<?xml version="1.0" encoding="utf-8"?>
<!-- Generator: Adobe Illustrator 20.1.0, SVG Export Plug-In . SVG Version: 6.00 Build 0)  -->
<svg version="1.0" id="Capa_1" xmlns="http://www.w3.org/2000/svg" xmlns:xlink="http://www.w3.org/1999/xlink" x="0px" y="0px"
	 viewBox="0 0 187.633 81.357" enable-background="new 0 0 187.633 81.357" xml:space="preserve">
<g>
	<circle fill-rule="evenodd" clip-rule="evenodd" fill="#003A89" cx="80.618" cy="14.475" r="9.751"/>
	<g>
		<rect x="2.779" y="69.684" fill-rule="evenodd" clip-rule="evenodd" fill="#211915" width="167.491" height="0.651"/>
		<g>
			<g>
				<g>
					<path fill-rule="evenodd" clip-rule="evenodd" fill="#635E5B" d="M8.528,73.901v-0.222h2.867v0.222h-0.305
						c-0.319,0-0.564,0.134-0.735,0.4c-0.083,0.123-0.125,0.411-0.125,0.86v3.284c0,0.811-0.082,1.443-0.245,1.892
						c-0.159,0.445-0.476,0.83-0.949,1.152c-0.469,0.319-1.11,0.478-1.921,0.478c-0.884,0-1.555-0.153-2.013-0.46
						c-0.458-0.306-0.782-0.718-0.973-1.237c-0.128-0.353-0.192-1.019-0.192-1.994v-3.164c0-0.497-0.07-0.824-0.209-0.979
						c-0.135-0.155-0.356-0.232-0.663-0.232H2.761v-0.222H6.26v0.222H5.95c-0.334,0-0.573,0.105-0.717,0.316
						c-0.1,0.143-0.148,0.442-0.148,0.896v3.528c0,0.316,0.028,0.675,0.084,1.081c0.059,0.406,0.165,0.722,0.317,0.949
						c0.15,0.227,0.368,0.413,0.651,0.561c0.286,0.148,0.636,0.221,1.051,0.221c0.528,0,1.002-0.115,1.421-0.346
						c0.417-0.231,0.701-0.525,0.854-0.884c0.155-0.363,0.232-0.974,0.232-1.833v-3.278c0-0.506-0.056-0.822-0.166-0.949
						c-0.156-0.175-0.386-0.262-0.694-0.262H8.528z"/>
					<path fill-rule="evenodd" clip-rule="evenodd" fill="#635E5B" d="M11.393,73.679h2.198l4.948,6.073v-4.669
						c0-0.497-0.055-0.807-0.166-0.931c-0.148-0.168-0.381-0.25-0.698-0.25h-0.281v-0.222h2.818v0.222h-0.287
						c-0.342,0-0.585,0.103-0.728,0.31c-0.088,0.128-0.132,0.417-0.132,0.871v6.825h-0.215l-5.338-6.52v4.985
						c0,0.498,0.054,0.808,0.161,0.931c0.151,0.167,0.384,0.251,0.699,0.251h0.286v0.221h-2.818v-0.221h0.281
						c0.347,0,0.591-0.103,0.734-0.31c0.087-0.128,0.132-0.418,0.132-0.872v-5.63c-0.235-0.274-0.415-0.456-0.538-0.542
						c-0.12-0.088-0.297-0.169-0.531-0.247c-0.116-0.036-0.29-0.053-0.525-0.053V73.679z"/>
					<path fill-rule="evenodd" clip-rule="evenodd" fill="#635E5B" d="M24.132,81.555v0.221h-3.469v-0.221h0.287
						c0.335,0,0.577-0.098,0.728-0.292c0.096-0.127,0.144-0.433,0.144-0.919v-5.231c0-0.41-0.025-0.68-0.078-0.812
						c-0.039-0.1-0.121-0.185-0.244-0.257c-0.175-0.096-0.358-0.143-0.549-0.143h-0.287v-0.222h3.469v0.222H23.84
						c-0.331,0-0.572,0.098-0.722,0.292c-0.101,0.127-0.151,0.433-0.151,0.919v5.231c0,0.41,0.026,0.681,0.078,0.811
						c0.04,0.1,0.123,0.186,0.251,0.257c0.171,0.095,0.352,0.143,0.543,0.143H24.132z"/>
					<path fill-rule="evenodd" clip-rule="evenodd" fill="#635E5B" d="M33.085,73.679v0.222c-0.287,0.052-0.503,0.143-0.651,0.275
						c-0.211,0.194-0.398,0.493-0.561,0.895l-2.824,6.891h-0.221l-3.033-6.98c-0.155-0.358-0.265-0.577-0.328-0.657
						c-0.1-0.123-0.223-0.218-0.37-0.286c-0.144-0.072-0.338-0.118-0.586-0.138v-0.222h3.308v0.222
						c-0.373,0.036-0.617,0.1-0.729,0.191c-0.111,0.091-0.167,0.209-0.167,0.353c0,0.198,0.092,0.51,0.275,0.931l2.06,4.747
						l1.91-4.687c0.188-0.462,0.28-0.782,0.281-0.961c0-0.115-0.057-0.225-0.173-0.328c-0.116-0.107-0.311-0.183-0.586-0.228
						c-0.02-0.004-0.054-0.009-0.101-0.017v-0.222H33.085z"/>
					<path fill-rule="evenodd" clip-rule="evenodd" fill="#635E5B" d="M35.763,74.121v3.201h1.778c0.463,0,0.771-0.07,0.927-0.209
						c0.207-0.183,0.322-0.506,0.346-0.967h0.221v2.818h-0.221c-0.056-0.395-0.112-0.647-0.167-0.759
						c-0.071-0.139-0.19-0.249-0.352-0.328c-0.163-0.08-0.415-0.119-0.754-0.12h-1.778v2.67c0,0.358,0.016,0.577,0.048,0.656
						c0.031,0.076,0.087,0.138,0.166,0.185c0.081,0.044,0.231,0.066,0.455,0.066h1.372c0.459,0,0.79-0.032,0.997-0.095
						c0.207-0.064,0.405-0.19,0.597-0.377c0.246-0.247,0.5-0.619,0.759-1.116h0.238l-0.698,2.03h-6.24v-0.221h0.288
						c0.19,0,0.371-0.045,0.542-0.137c0.127-0.064,0.213-0.16,0.257-0.287c0.048-0.127,0.071-0.388,0.071-0.782v-5.261
						c0-0.513-0.051-0.829-0.154-0.948c-0.144-0.16-0.383-0.239-0.716-0.239h-0.288v-0.222h6.24l0.089,1.774h-0.233
						c-0.084-0.426-0.178-0.718-0.28-0.878c-0.1-0.159-0.249-0.28-0.448-0.364c-0.159-0.06-0.44-0.09-0.841-0.09H35.763z"/>
					<path fill-rule="evenodd" clip-rule="evenodd" fill="#635E5B" d="M48.538,81.776h-2.161l-2.74-3.786
						c-0.203,0.009-0.369,0.012-0.496,0.012c-0.051,0-0.107,0-0.167,0c-0.059-0.004-0.12-0.009-0.184-0.012v2.353
						c0,0.51,0.055,0.826,0.167,0.949c0.151,0.176,0.378,0.263,0.681,0.263h0.316v0.221h-3.469v-0.221h0.305
						c0.342,0,0.586-0.111,0.735-0.334c0.083-0.123,0.124-0.416,0.124-0.877v-5.231c0-0.509-0.054-0.826-0.167-0.949
						c-0.154-0.175-0.385-0.262-0.692-0.262h-0.305v-0.222h2.95c0.859,0,1.493,0.064,1.899,0.192
						c0.41,0.124,0.756,0.354,1.038,0.692c0.288,0.335,0.431,0.735,0.431,1.2c0,0.497-0.163,0.93-0.49,1.296
						c-0.322,0.366-0.824,0.624-1.505,0.776l1.672,2.322c0.383,0.533,0.71,0.887,0.985,1.062c0.274,0.176,0.633,0.287,1.074,0.334
						V81.776z M42.789,77.614c0.075,0,0.141,0.002,0.197,0.006c0.054,0,0.101,0,0.137,0c0.771,0,1.353-0.167,1.743-0.501
						c0.394-0.335,0.591-0.761,0.591-1.277c0-0.506-0.159-0.916-0.479-1.23c-0.314-0.319-0.731-0.477-1.253-0.478
						c-0.23,0-0.543,0.039-0.937,0.114V77.614z"/>
					<path fill-rule="evenodd" clip-rule="evenodd" fill="#635E5B" d="M57.764,81.555v0.221h-3.47v-0.221h0.287
						c0.335,0,0.577-0.098,0.729-0.292c0.095-0.127,0.144-0.433,0.144-0.919v-5.231c0-0.41-0.026-0.68-0.079-0.812
						c-0.039-0.1-0.12-0.185-0.244-0.257c-0.175-0.096-0.357-0.143-0.549-0.143h-0.287v-0.222h3.47v0.222H57.47
						c-0.33,0-0.571,0.098-0.722,0.292c-0.1,0.127-0.149,0.433-0.149,0.919v5.231c0,0.41,0.025,0.681,0.078,0.811
						c0.039,0.1,0.122,0.186,0.25,0.257c0.171,0.095,0.353,0.143,0.543,0.143H57.764z"/>
					<path fill-rule="evenodd" clip-rule="evenodd" fill="#635E5B" d="M58.431,81.776v-0.221h0.304c0.342,0,0.585-0.109,0.729-0.328
						c0.086-0.132,0.131-0.426,0.131-0.884v-5.231c0-0.506-0.056-0.822-0.166-0.949c-0.156-0.175-0.387-0.262-0.694-0.262h-0.304
						v-0.222h3.296c1.211,0,2.13,0.137,2.759,0.413c0.633,0.274,1.14,0.732,1.522,1.373c0.386,0.64,0.579,1.381,0.579,2.22
						c0,1.127-0.342,2.068-1.026,2.824c-0.768,0.844-1.938,1.266-3.51,1.266H58.431z M60.742,81.19
						c0.506,0.112,0.931,0.167,1.272,0.167c0.924,0,1.689-0.324,2.298-0.973c0.609-0.649,0.914-1.527,0.914-2.639
						c0-1.119-0.305-2-0.914-2.645c-0.608-0.645-1.39-0.967-2.346-0.967c-0.357,0-0.765,0.058-1.224,0.173V81.19z"/>
					<path fill-rule="evenodd" clip-rule="evenodd" fill="#635E5B" d="M71.37,79.066h-3.134l-0.549,1.277
						c-0.135,0.315-0.203,0.549-0.203,0.704c0,0.124,0.057,0.233,0.173,0.329c0.118,0.091,0.374,0.15,0.763,0.178v0.221h-2.549
						v-0.221c0.337-0.06,0.558-0.137,0.656-0.233c0.203-0.191,0.428-0.579,0.675-1.164l2.847-6.663h0.21l2.818,6.734
						c0.226,0.542,0.431,0.894,0.615,1.057c0.187,0.16,0.446,0.249,0.776,0.269v0.221h-3.194v-0.221
						c0.323-0.016,0.54-0.07,0.651-0.161c0.116-0.092,0.173-0.203,0.173-0.335c0-0.175-0.08-0.452-0.239-0.83L71.37,79.066z
						 M71.203,78.624l-1.372-3.272l-1.41,3.272H71.203z"/>
					<path fill-rule="evenodd" clip-rule="evenodd" fill="#635E5B" d="M74.472,81.776v-0.221h0.305c0.342,0,0.585-0.109,0.729-0.328
						c0.087-0.132,0.131-0.426,0.132-0.884v-5.231c0-0.506-0.055-0.822-0.167-0.949c-0.155-0.175-0.386-0.262-0.693-0.262h-0.305
						v-0.222h3.296c1.211,0,2.13,0.137,2.759,0.413c0.633,0.274,1.14,0.732,1.522,1.373c0.386,0.64,0.579,1.381,0.579,2.22
						c0,1.127-0.342,2.068-1.026,2.824c-0.768,0.844-1.938,1.266-3.51,1.266H74.472z M76.783,81.19
						c0.506,0.112,0.93,0.167,1.272,0.167c0.924,0,1.689-0.324,2.298-0.973c0.609-0.649,0.914-1.527,0.914-2.639
						c0-1.119-0.305-2-0.914-2.645c-0.609-0.645-1.391-0.967-2.346-0.967c-0.357,0-0.766,0.058-1.224,0.173V81.19z"/>
					<path fill-rule="evenodd" clip-rule="evenodd" fill="#635E5B" d="M53.458,73.484l0.282,2.631h-0.305
						c-0.044-0.19-0.205-0.692-0.414-1.043c-0.184-0.31-0.462-0.591-0.816-0.784c-0.355-0.194-0.686-0.302-1.102-0.302
						c-0.387,0-0.767,0.166-1.016,0.467c-0.19,0.229-0.21,0.519-0.21,0.661c0,0.256,0.05,0.525,0.269,0.791
						c0.293,0.357,0.716,0.622,1.666,1.196c0.466,0.281,1.06,0.649,1.448,1.009c0.198,0.186,0.323,0.309,0.498,0.601
						c0.175,0.29,0.252,0.662,0.25,1.006c-0.004,0.554-0.153,1.039-0.621,1.527c-0.565,0.59-1.338,0.752-1.895,0.752
						c-0.249,0-0.45-0.011-0.704-0.059c-0.352-0.071-0.318-0.065-0.74-0.21c-0.356-0.123-0.51-0.171-0.589-0.166
						c-0.092,0.005-0.209,0.038-0.254,0.127c-0.019,0.039-0.075,0.115-0.102,0.289H48.83l-0.374-2.631h0.291
						c0.182,0.534,0.428,0.953,0.677,1.266c0.241,0.277,0.453,0.501,0.784,0.661c0.312,0.15,0.565,0.269,1.091,0.269
						c0.301,0,0.712-0.071,1.104-0.444c0.105-0.1,0.364-0.403,0.364-0.968c0-0.207-0.051-0.479-0.178-0.705
						c-0.112-0.209-0.182-0.261-0.305-0.4c-0.21-0.181-0.462-0.362-1.108-0.775c-0.977-0.624-1.365-0.787-1.799-1.226
						c-0.258-0.261-0.274-0.325-0.408-0.562c-0.073-0.128-0.197-0.451-0.182-0.815c0.004-0.518,0.135-1.001,0.555-1.476
						c0.463-0.49,1.036-0.684,1.709-0.684c0.445,0,0.901,0.163,1.416,0.341c0.207,0.071,0.242,0.075,0.337,0.075
						c0.107,0,0.194-0.031,0.26-0.093c0.088-0.109,0.113-0.192,0.145-0.322H53.458z"/>
				</g>
				<g>
					<path fill-rule="evenodd" clip-rule="evenodd" fill="#635E5B" d="M98.715,79.066h-3.134l-0.549,1.277
						c-0.136,0.315-0.203,0.549-0.203,0.704c0,0.124,0.056,0.233,0.173,0.329c0.118,0.091,0.374,0.15,0.763,0.178v0.221h-2.549
						v-0.221c0.338-0.06,0.558-0.137,0.655-0.233c0.203-0.191,0.429-0.579,0.675-1.164l2.848-6.663h0.209l2.818,6.734
						c0.228,0.542,0.433,0.894,0.615,1.057c0.188,0.16,0.446,0.249,0.776,0.269v0.221h-3.194v-0.221
						c0.324-0.016,0.54-0.07,0.651-0.161c0.117-0.092,0.173-0.203,0.173-0.335c0-0.175-0.079-0.452-0.239-0.83L98.715,79.066z
						 M98.548,78.624l-1.373-3.272l-1.41,3.272H98.548z"/>
					<path fill-rule="evenodd" clip-rule="evenodd" fill="#635E5B" d="M101.366,73.679h2.196l4.951,6.073v-4.669
						c0-0.497-0.056-0.807-0.168-0.931c-0.147-0.168-0.38-0.25-0.697-0.25h-0.282v-0.222h2.818v0.222h-0.286
						c-0.342,0-0.584,0.103-0.729,0.31c-0.087,0.128-0.132,0.417-0.132,0.871v6.825h-0.214l-5.338-6.52v4.985
						c0,0.498,0.054,0.808,0.162,0.931c0.15,0.167,0.383,0.251,0.699,0.251h0.286v0.221h-2.818v-0.221h0.28
						c0.346,0,0.592-0.103,0.735-0.31c0.086-0.128,0.132-0.418,0.132-0.872v-5.63c-0.235-0.274-0.416-0.456-0.538-0.542
						c-0.12-0.088-0.297-0.169-0.532-0.247c-0.115-0.036-0.289-0.053-0.524-0.053V73.679z"/>
					<path fill-rule="evenodd" clip-rule="evenodd" fill="#635E5B" d="M117.405,73.679l0.09,1.899h-0.227
						c-0.043-0.335-0.103-0.572-0.179-0.716c-0.124-0.23-0.288-0.4-0.497-0.508c-0.201-0.111-0.47-0.166-0.805-0.167h-1.141v6.186
						c0,0.498,0.055,0.808,0.162,0.931c0.15,0.167,0.383,0.251,0.699,0.251h0.28v0.221h-3.433v-0.221h0.286
						c0.342,0,0.585-0.103,0.729-0.31c0.086-0.128,0.13-0.418,0.132-0.872v-6.186h-0.974c-0.378,0-0.647,0.028-0.807,0.083
						c-0.207,0.076-0.384,0.221-0.53,0.436c-0.148,0.215-0.235,0.506-0.263,0.871h-0.228l0.096-1.899H117.405z"/>
					<path fill-rule="evenodd" clip-rule="evenodd" fill="#635E5B" d="M121.995,73.495c1.051,0,1.961,0.399,2.73,1.199
						c0.771,0.796,1.158,1.792,1.158,2.986c0,1.23-0.389,2.25-1.164,3.063c-0.776,0.812-1.716,1.218-2.818,1.218
						c-1.115,0-2.053-0.396-2.813-1.188c-0.756-0.791-1.134-1.816-1.134-3.075c0-1.285,0.436-2.334,1.312-3.147
						C120.026,73.846,120.936,73.495,121.995,73.495z M121.882,73.93c-0.724,0-1.305,0.27-1.743,0.807
						c-0.545,0.668-0.818,1.648-0.818,2.938c0,1.322,0.282,2.338,0.848,3.05c0.432,0.542,1.006,0.813,1.718,0.813
						c0.761,0,1.387-0.296,1.882-0.89c0.496-0.592,0.746-1.528,0.746-2.805c0-1.385-0.272-2.419-0.82-3.099
						C123.26,74.201,122.655,73.931,121.882,73.93z"/>
					<path fill-rule="evenodd" clip-rule="evenodd" fill="#635E5B" d="M92.305,73.484l0.28,2.631H92.28
						c-0.043-0.19-0.205-0.692-0.414-1.043c-0.184-0.31-0.461-0.591-0.816-0.784c-0.354-0.194-0.685-0.302-1.1-0.302
						c-0.388,0-0.769,0.166-1.017,0.467c-0.19,0.229-0.21,0.519-0.21,0.661c0,0.256,0.051,0.525,0.27,0.791
						c0.292,0.357,0.715,0.622,1.665,1.196c0.466,0.281,1.06,0.649,1.449,1.009c0.198,0.186,0.322,0.309,0.498,0.601
						c0.174,0.29,0.252,0.662,0.249,1.006c-0.004,0.554-0.152,1.039-0.621,1.527c-0.566,0.59-1.338,0.752-1.895,0.752
						c-0.25,0-0.451-0.011-0.705-0.059c-0.352-0.071-0.318-0.065-0.739-0.21c-0.357-0.123-0.51-0.171-0.59-0.166
						c-0.09,0.005-0.209,0.038-0.253,0.127c-0.02,0.039-0.075,0.115-0.102,0.289h-0.274L87.3,79.344h0.292
						c0.181,0.534,0.428,0.953,0.676,1.266c0.243,0.277,0.454,0.501,0.784,0.661c0.312,0.15,0.566,0.269,1.092,0.269
						c0.301,0,0.712-0.071,1.104-0.444c0.105-0.1,0.364-0.403,0.364-0.968c0-0.207-0.052-0.479-0.178-0.705
						c-0.112-0.209-0.182-0.261-0.304-0.4c-0.211-0.181-0.462-0.362-1.108-0.775c-0.977-0.624-1.365-0.787-1.8-1.226
						c-0.257-0.261-0.272-0.325-0.408-0.562c-0.071-0.128-0.197-0.451-0.181-0.815c0.004-0.518,0.134-1.001,0.554-1.476
						c0.462-0.49,1.037-0.684,1.709-0.684c0.446,0,0.902,0.163,1.417,0.341c0.206,0.071,0.242,0.075,0.337,0.075
						c0.106,0,0.193-0.031,0.26-0.093c0.088-0.109,0.112-0.192,0.144-0.322H92.305z"/>
				</g>
				<g>
					<path fill-rule="evenodd" clip-rule="evenodd" fill="#635E5B" d="M136.422,73.679l0.088,1.899h-0.226
						c-0.045-0.335-0.103-0.572-0.18-0.716c-0.122-0.23-0.288-0.4-0.495-0.508c-0.203-0.111-0.472-0.166-0.807-0.167h-1.139v6.186
						c0,0.498,0.053,0.808,0.16,0.931c0.152,0.167,0.385,0.251,0.699,0.251h0.28v0.221h-3.433v-0.221h0.288
						c0.342,0,0.585-0.103,0.728-0.31c0.086-0.128,0.132-0.418,0.132-0.872v-6.186h-0.974c-0.378,0-0.647,0.028-0.807,0.083
						c-0.207,0.076-0.384,0.221-0.53,0.436c-0.148,0.215-0.235,0.506-0.263,0.871h-0.227l0.096-1.899H136.422z"/>
					<path fill-rule="evenodd" clip-rule="evenodd" fill="#635E5B" d="M141.027,73.495c1.051,0,1.961,0.399,2.728,1.199
						c0.773,0.796,1.158,1.792,1.158,2.986c0,1.23-0.387,2.25-1.164,3.063c-0.776,0.812-1.715,1.218-2.818,1.218
						c-1.115,0-2.051-0.396-2.813-1.188c-0.756-0.791-1.134-1.816-1.134-3.075c0-1.285,0.438-2.334,1.314-3.147
						C139.058,73.846,139.968,73.495,141.027,73.495z M140.914,73.93c-0.726,0-1.307,0.27-1.745,0.807
						c-0.545,0.668-0.818,1.648-0.818,2.938c0,1.322,0.284,2.338,0.848,3.05c0.434,0.542,1.008,0.813,1.72,0.813
						c0.76,0,1.388-0.296,1.88-0.89c0.498-0.592,0.746-1.528,0.746-2.805c0-1.385-0.273-2.419-0.818-3.099
						C142.29,74.201,141.685,73.931,140.914,73.93z"/>
					<path fill-rule="evenodd" clip-rule="evenodd" fill="#635E5B" d="M150.081,81.776l-3.128-6.812v5.409
						c0,0.498,0.053,0.808,0.16,0.931c0.148,0.167,0.381,0.251,0.699,0.251h0.286v0.221h-2.818v-0.221h0.288
						c0.342,0,0.585-0.103,0.728-0.31c0.088-0.128,0.132-0.418,0.132-0.872v-5.29c0-0.358-0.039-0.616-0.118-0.776
						c-0.056-0.115-0.16-0.21-0.312-0.286c-0.147-0.08-0.385-0.12-0.716-0.12v-0.222h2.294l2.937,6.336l2.89-6.336h2.294v0.222
						h-0.28c-0.348,0-0.592,0.103-0.735,0.31c-0.088,0.128-0.132,0.417-0.132,0.871v5.29c0,0.498,0.056,0.808,0.167,0.931
						c0.147,0.167,0.38,0.251,0.699,0.251h0.28v0.221h-3.439v-0.221h0.286c0.346,0,0.588-0.103,0.728-0.31
						c0.088-0.128,0.132-0.418,0.132-0.872v-5.409l-3.123,6.812H150.081z"/>
					<path fill-rule="evenodd" clip-rule="evenodd" fill="#635E5B" d="M161.193,79.066h-3.134l-0.551,1.277
						c-0.135,0.315-0.203,0.549-0.203,0.704c0,0.124,0.058,0.233,0.173,0.329c0.12,0.091,0.376,0.15,0.765,0.178v0.221h-2.549
						v-0.221c0.338-0.06,0.556-0.137,0.656-0.233c0.203-0.191,0.428-0.579,0.675-1.164l2.848-6.663h0.209l2.818,6.734
						c0.227,0.542,0.432,0.894,0.615,1.057c0.188,0.16,0.445,0.249,0.776,0.269v0.221h-3.194v-0.221
						c0.321-0.016,0.539-0.07,0.65-0.161c0.115-0.092,0.173-0.203,0.173-0.335c0-0.175-0.079-0.452-0.239-0.83L161.193,79.066z
						 M161.025,78.624l-1.374-3.272l-1.408,3.272H161.025z"/>
					<path fill-rule="evenodd" clip-rule="evenodd" fill="#635E5B" d="M169.738,73.484l0.28,2.631h-0.304
						c-0.044-0.19-0.205-0.692-0.414-1.043c-0.182-0.31-0.461-0.591-0.816-0.784c-0.353-0.194-0.684-0.302-1.1-0.302
						c-0.387,0-0.769,0.166-1.017,0.467c-0.19,0.229-0.209,0.519-0.209,0.661c0,0.256,0.049,0.525,0.269,0.791
						c0.292,0.357,0.714,0.622,1.666,1.196c0.464,0.281,1.058,0.649,1.447,1.009c0.198,0.186,0.322,0.309,0.498,0.601
						c0.175,0.29,0.252,0.662,0.248,1.006c-0.004,0.554-0.152,1.039-0.62,1.527c-0.566,0.59-1.337,0.752-1.895,0.752
						c-0.25,0-0.451-0.011-0.703-0.059c-0.353-0.071-0.318-0.065-0.741-0.21c-0.355-0.123-0.509-0.171-0.589-0.166
						c-0.092,0.005-0.21,0.038-0.254,0.127c-0.021,0.039-0.075,0.115-0.103,0.289h-0.272l-0.376-2.631h0.294
						c0.182,0.534,0.427,0.953,0.677,1.266c0.241,0.277,0.453,0.501,0.782,0.661c0.312,0.15,0.566,0.269,1.093,0.269
						c0.301,0,0.713-0.071,1.103-0.444c0.105-0.1,0.365-0.403,0.365-0.968c0-0.207-0.053-0.479-0.179-0.705
						c-0.111-0.209-0.182-0.261-0.304-0.4c-0.21-0.181-0.461-0.362-1.107-0.775c-0.978-0.624-1.365-0.787-1.801-1.226
						c-0.256-0.261-0.272-0.325-0.406-0.562c-0.073-0.128-0.199-0.451-0.182-0.815c0.004-0.518,0.133-1.001,0.552-1.476
						c0.463-0.49,1.038-0.684,1.709-0.684c0.445,0,0.902,0.163,1.417,0.341c0.205,0.071,0.241,0.075,0.337,0.075
						c0.107,0,0.194-0.031,0.259-0.093c0.088-0.109,0.111-0.192,0.143-0.322H169.738z"/>
				</g>
			</g>
			<path fill-rule="evenodd" clip-rule="evenodd" fill="#635E5B" d="M163.178,71.673l-1.856,1.899h-0.214l0.658-1.899H163.178z"/>
		</g>
	</g>
	<g>
		
			<path fill-rule="evenodd" clip-rule="evenodd" fill="#81B16F" stroke="#81B16F" stroke-width="0.6179" stroke-miterlimit="3.8637" d="
			M186.363,58.308c-59.663,8.8-42.27-63.222-103.91-55.771C145.904,8.425,118.092,77.511,186.363,58.308z"/>
		<path fill-rule="evenodd" clip-rule="evenodd" fill="#003A89" d="M186.418,58.272C128.562,75.29,135.759,1.55,75.756,17.507
			C139.41,14.507,121.481,86.791,186.418,58.272z"/>
	</g>
	<g>
		<path fill-rule="evenodd" clip-rule="evenodd" fill="#81B16F" d="M24.892,33.192h-0.327c-0.244-1.385-0.899-2.559-1.963-3.52
			c-1.051-0.962-2.264-1.66-3.635-2.096c-1.372-0.449-2.655-0.673-3.848-0.673c-1.629,0-3.161,0.346-4.597,1.038
			c-1.424,0.681-2.655,1.649-3.694,2.905C5.79,32.09,4.982,33.59,4.405,35.347c-0.577,1.744-0.866,3.643-0.866,5.694
			c0,1.988,0.275,3.835,0.827,5.541c0.564,1.692,1.379,3.168,2.443,4.424c1.077,1.245,2.321,2.188,3.732,2.828
			c1.41,0.642,2.974,0.963,4.694,0.963c1.435,0,3.013-0.29,4.732-0.866c1.717-0.59,3.269-1.564,4.655-2.925v1.096
			c-1.706,1.322-3.271,2.29-4.694,2.905c-1.411,0.617-3.174,0.924-5.291,0.924c-2.231,0-4.27-0.404-6.117-1.212
			c-1.834-0.821-3.385-1.923-4.655-3.309c-1.27-1.386-2.232-2.943-2.885-4.675C0.327,45.004,0,43.222,0,41.387
			c0-2.756,0.679-5.315,2.039-7.675c1.358-2.373,3.199-4.245,5.521-5.618c2.321-1.385,4.841-2.077,7.56-2.077
			c1.68,0,3.469,0.25,5.368,0.75l2,0.558c0.385,0.077,0.712,0.115,0.982,0.115c0.5,0,0.833-0.07,1-0.211
			c0.166-0.153,0.294-0.423,0.384-0.807h0.308L24.892,33.192z"/>
		<path fill-rule="evenodd" clip-rule="evenodd" fill="#81B16F" d="M40.57,26.498l8.483,24.276c0.448,1.258,0.871,2.168,1.269,2.732
			c0.398,0.565,0.776,0.924,1.136,1.077c0.371,0.142,0.84,0.238,1.404,0.289v0.307H43.61v-0.307c0.948,0,1.68-0.09,2.193-0.27
			c0.512-0.18,0.769-0.667,0.769-1.462c0-0.436-0.122-1.019-0.365-1.75c-0.053-0.102-0.077-0.179-0.077-0.231l-2.52-7.522h-9.811
			l-2.251,6.964c-0.308,0.95-0.462,1.713-0.462,2.29c0,0.795,0.198,1.327,0.597,1.596c0.397,0.257,0.961,0.385,1.692,0.385v0.307
			H26.72v-0.307c0.948-0.09,1.705-0.449,2.269-1.077c0.577-0.641,1.077-1.61,1.5-2.905l8.003-24.392H40.57z M34.125,42.618h9.023
			l-4.618-13.446h-0.077L34.125,42.618z"/>
		<path fill-rule="evenodd" clip-rule="evenodd" fill="#81B16F" d="M54.844,27.171v-0.327h9.291c1.551,0,2.917,0.211,4.097,0.635
			c1.193,0.424,2.18,1.001,2.963,1.731c0.794,0.73,1.384,1.558,1.769,2.482c0.398,0.911,0.596,1.873,0.596,2.885
			c0,0.988-0.186,1.943-0.557,2.867c-0.359,0.91-0.93,1.725-1.712,2.442c-0.782,0.706-1.809,1.27-3.078,1.693
			c-1.27,0.423-2.732,0.634-4.386,0.634c-0.526,0-1.539-0.077-3.039-0.23v9.772c0,2.014,1.025,3.053,3.078,3.117v0.307h-9.022
			v-0.307c0.885-0.026,1.61-0.276,2.173-0.75c0.577-0.487,0.865-1.277,0.865-2.367V30.326c0-0.654-0.101-1.199-0.307-1.636
			c-0.207-0.435-0.449-0.743-0.731-0.923c-0.27-0.192-0.577-0.333-0.923-0.423c-0.335-0.089-0.565-0.148-0.693-0.173H54.844z
			 M60.788,27.845v13.351c0.987,0.179,1.962,0.269,2.923,0.269c1.834,0,3.385-0.467,4.656-1.404
			c1.282-0.949,1.922-2.699,1.923-5.251c0-2.103-0.564-3.828-1.693-5.175c-1.116-1.359-2.815-2.039-5.098-2.039
			C62.615,27.594,61.711,27.678,60.788,27.845z"/>
		<path fill-rule="evenodd" clip-rule="evenodd" fill="#81B16F" d="M85.142,26.844v0.327c-0.846,0-1.565,0.237-2.155,0.712
			c-0.59,0.475-0.885,1.263-0.885,2.366v21.506c0,1.09,0.314,1.886,0.943,2.386c0.629,0.487,1.326,0.731,2.097,0.731v0.307h-8.984
			v-0.307c0.821,0,1.526-0.237,2.116-0.713c0.603-0.487,0.904-1.288,0.904-2.405V30.249c0-1.18-0.302-1.987-0.904-2.423
			c-0.59-0.436-1.295-0.654-2.116-0.654v-0.327H85.142z"/>
		<path fill-rule="evenodd" clip-rule="evenodd" fill="#81B16F" d="M100.915,26.498l8.483,24.276
			c0.449,1.258,0.872,2.168,1.271,2.732c0.397,0.565,0.775,0.924,1.134,1.077c0.372,0.142,0.84,0.238,1.405,0.289v0.307h-9.252
			v-0.307c0.947,0,1.679-0.09,2.192-0.27c0.513-0.18,0.769-0.667,0.769-1.462c0-0.436-0.122-1.019-0.365-1.75
			c-0.053-0.102-0.077-0.179-0.077-0.231l-2.519-7.522h-9.812l-2.25,6.964c-0.307,0.95-0.461,1.713-0.461,2.29
			c0,0.795,0.198,1.327,0.596,1.596c0.397,0.257,0.961,0.385,1.692,0.385v0.307h-6.655v-0.307c0.949-0.09,1.705-0.449,2.27-1.077
			c0.576-0.641,1.076-1.61,1.5-2.905l8.002-24.392H100.915z M94.47,42.618h9.022l-4.618-13.446H98.8L94.47,42.618z"/>
	</g>
	<g>
		<path fill-rule="evenodd" clip-rule="evenodd" fill="#003A89" d="M6.281,59.217c-0.06-0.03-0.136-0.056-0.227-0.077
			c-0.086-0.022-0.179-0.039-0.278-0.053c-0.1-0.012-0.197-0.021-0.291-0.025c-0.095-0.008-0.175-0.013-0.24-0.013
			c-0.35,0-0.664,0.058-0.945,0.175c-0.281,0.112-0.52,0.272-0.719,0.48c-0.197,0.207-0.352,0.455-0.459,0.743
			c-0.103,0.286-0.156,0.598-0.156,0.939c0,0.349,0.053,0.668,0.156,0.958c0.103,0.285,0.252,0.53,0.447,0.738
			c0.198,0.202,0.438,0.36,0.718,0.473c0.281,0.112,0.6,0.167,0.958,0.167c0.07,0,0.151-0.004,0.246-0.013
			c0.094-0.004,0.19-0.015,0.285-0.032c0.099-0.013,0.192-0.03,0.278-0.052c0.09-0.026,0.166-0.058,0.227-0.097L6.255,63.14
			c-0.064,0.039-0.14,0.071-0.226,0.097c-0.086,0.026-0.175,0.045-0.266,0.058c-0.091,0.013-0.182,0.024-0.272,0.032
			c-0.09,0.005-0.173,0.008-0.246,0.008c-0.297,0-0.56-0.048-0.79-0.143c-0.228-0.1-0.421-0.233-0.575-0.401
			c-0.152-0.172-0.268-0.377-0.35-0.615c-0.078-0.242-0.116-0.505-0.116-0.79c0-0.281,0.04-0.54,0.122-0.777
			c0.083-0.237,0.201-0.442,0.356-0.615c0.155-0.177,0.345-0.312,0.57-0.407c0.229-0.1,0.49-0.149,0.783-0.149
			c0.16,0,0.333,0.015,0.518,0.045c0.185,0.026,0.35,0.076,0.492,0.149L6.281,59.217z"/>
		<path fill-rule="evenodd" clip-rule="evenodd" fill="#003A89" d="M9.439,63.127c-0.047,0.03-0.11,0.06-0.187,0.091
			c-0.073,0.03-0.154,0.055-0.24,0.077c-0.082,0.022-0.168,0.041-0.259,0.058c-0.086,0.013-0.167,0.02-0.241,0.02
			c-0.177,0-0.334-0.033-0.472-0.097c-0.133-0.07-0.246-0.16-0.336-0.273c-0.09-0.112-0.16-0.244-0.207-0.395
			c-0.048-0.155-0.071-0.322-0.071-0.498h2.259v-0.207c0-0.22-0.026-0.43-0.078-0.628c-0.047-0.198-0.125-0.371-0.233-0.518
			c-0.103-0.151-0.239-0.27-0.408-0.356c-0.164-0.09-0.362-0.135-0.595-0.135c-0.207,0-0.397,0.043-0.569,0.13
			c-0.173,0.086-0.32,0.205-0.441,0.355c-0.121,0.151-0.215,0.335-0.285,0.551c-0.065,0.21-0.098,0.442-0.098,0.692
			c0,0.246,0.026,0.475,0.079,0.686c0.055,0.212,0.142,0.395,0.259,0.55c0.121,0.155,0.275,0.276,0.465,0.363
			c0.195,0.086,0.428,0.129,0.699,0.129c0.151,0,0.313-0.015,0.485-0.045c0.173-0.03,0.331-0.075,0.473-0.135V63.127z M7.426,61.761
			c0-0.134,0.022-0.269,0.064-0.408c0.048-0.137,0.113-0.26,0.196-0.369c0.085-0.108,0.187-0.197,0.303-0.265
			c0.121-0.07,0.257-0.103,0.407-0.103c0.152,0,0.281,0.032,0.389,0.097c0.107,0.065,0.194,0.151,0.259,0.259
			c0.069,0.108,0.119,0.231,0.149,0.369c0.03,0.138,0.045,0.278,0.045,0.42H7.426z"/>
		<path fill-rule="evenodd" clip-rule="evenodd" fill="#003A89" d="M10.261,63.645h0.408V61.82c0-0.138,0.015-0.278,0.045-0.42
			c0.035-0.143,0.088-0.272,0.162-0.388c0.078-0.117,0.179-0.212,0.304-0.286c0.125-0.073,0.28-0.109,0.465-0.109
			c0.281,0,0.481,0.092,0.602,0.278c0.121,0.185,0.182,0.433,0.182,0.745v2.006h0.408v-2.11c0-0.181-0.023-0.349-0.066-0.505
			c-0.038-0.155-0.103-0.289-0.194-0.4c-0.09-0.113-0.207-0.201-0.35-0.266c-0.142-0.065-0.315-0.097-0.517-0.097
			c-0.173,0-0.32,0.021-0.441,0.064c-0.116,0.039-0.215,0.091-0.298,0.156c-0.081,0.064-0.148,0.138-0.2,0.22
			c-0.052,0.077-0.095,0.153-0.129,0.227H10.63v-0.589h-0.395c0.013,0.135,0.019,0.265,0.019,0.395
			c0.005,0.13,0.007,0.258,0.007,0.382V63.645z"/>
		<path fill-rule="evenodd" clip-rule="evenodd" fill="#003A89" d="M15.082,60.344h-0.75v-0.938l-0.408,0.143v0.795h-0.648v0.35
			h0.648v1.929c0,0.15,0.004,0.293,0.013,0.427c0.012,0.134,0.043,0.25,0.09,0.35c0.047,0.1,0.12,0.179,0.22,0.24
			c0.103,0.055,0.246,0.084,0.427,0.084c0.1,0,0.195-0.01,0.286-0.032c0.094-0.017,0.165-0.037,0.213-0.058l-0.025-0.336
			c-0.061,0.022-0.119,0.041-0.175,0.058c-0.055,0.013-0.123,0.02-0.2,0.02c-0.165,0-0.278-0.052-0.344-0.155
			c-0.064-0.108-0.096-0.238-0.096-0.389v-2.136h0.75V60.344z"/>
		<path fill-rule="evenodd" clip-rule="evenodd" fill="#003A89" d="M15.612,63.645h0.408v-1.631c0-0.147,0.013-0.298,0.039-0.453
			c0.025-0.16,0.069-0.302,0.13-0.428c0.06-0.129,0.142-0.235,0.245-0.317c0.108-0.082,0.244-0.123,0.408-0.123
			c0.113,0,0.211,0.013,0.298,0.039v-0.428c-0.035-0.008-0.08-0.018-0.136-0.025c-0.051-0.009-0.101-0.013-0.148-0.013
			c-0.103,0-0.201,0.019-0.291,0.058c-0.086,0.039-0.165,0.092-0.239,0.162c-0.07,0.064-0.13,0.14-0.182,0.227
			c-0.051,0.086-0.096,0.175-0.135,0.265h-0.013v-0.635h-0.408c0.005,0.06,0.009,0.116,0.013,0.169
			c0.005,0.047,0.007,0.099,0.007,0.154c0.005,0.056,0.007,0.116,0.007,0.182c0,0.064,0,0.142,0,0.232V63.645z"/>
		<path fill-rule="evenodd" clip-rule="evenodd" fill="#003A89" d="M17.314,61.994c0,0.225,0.03,0.442,0.09,0.654
			c0.061,0.207,0.154,0.39,0.278,0.55c0.126,0.159,0.286,0.287,0.479,0.382c0.195,0.095,0.425,0.142,0.693,0.142
			s0.498-0.047,0.693-0.142c0.194-0.095,0.353-0.223,0.479-0.382c0.124-0.16,0.217-0.343,0.278-0.55
			c0.06-0.212,0.09-0.43,0.09-0.654c0-0.224-0.03-0.44-0.09-0.647c-0.061-0.213-0.154-0.398-0.278-0.557
			c-0.126-0.16-0.286-0.288-0.479-0.383c-0.195-0.095-0.425-0.142-0.693-0.142s-0.498,0.047-0.693,0.142
			c-0.194,0.095-0.353,0.223-0.479,0.383c-0.124,0.159-0.217,0.344-0.278,0.557C17.344,61.554,17.314,61.771,17.314,61.994z
			 M17.761,61.994c0-0.19,0.023-0.369,0.07-0.538c0.048-0.167,0.117-0.314,0.208-0.44c0.094-0.124,0.209-0.222,0.342-0.291
			c0.138-0.073,0.296-0.109,0.473-0.109c0.177,0,0.332,0.036,0.465,0.109c0.139,0.07,0.253,0.167,0.344,0.291
			c0.094,0.126,0.165,0.273,0.213,0.44c0.048,0.169,0.07,0.348,0.07,0.538c0,0.19-0.023,0.369-0.07,0.538
			c-0.048,0.167-0.119,0.315-0.213,0.44c-0.091,0.125-0.205,0.224-0.344,0.297c-0.133,0.07-0.289,0.104-0.465,0.104
			c-0.177,0-0.335-0.035-0.473-0.104c-0.134-0.073-0.248-0.172-0.342-0.297c-0.091-0.125-0.16-0.273-0.208-0.44
			C17.784,62.363,17.761,62.184,17.761,61.994z"/>
		<path fill-rule="evenodd" clip-rule="evenodd" fill="#003A89" d="M22.134,63.645h0.434l0.485-1.211h2.279l0.485,1.211h0.466
			l-1.793-4.518h-0.505L22.134,63.645z M25.184,62.046h-1.961l0.983-2.492L25.184,62.046z"/>
		<path fill-rule="evenodd" clip-rule="evenodd" fill="#003A89" d="M28.859,60.396c-0.06-0.023-0.16-0.048-0.298-0.078
			c-0.134-0.035-0.3-0.052-0.498-0.052c-0.245,0-0.471,0.043-0.673,0.13c-0.198,0.082-0.369,0.2-0.512,0.355
			c-0.142,0.151-0.253,0.333-0.33,0.543c-0.077,0.212-0.117,0.445-0.117,0.699c0,0.229,0.032,0.45,0.098,0.66
			c0.064,0.208,0.162,0.391,0.29,0.551c0.135,0.16,0.298,0.287,0.492,0.381c0.199,0.09,0.433,0.136,0.699,0.136
			c0.155,0,0.3-0.008,0.434-0.025c0.137-0.013,0.275-0.043,0.414-0.091l-0.039-0.381c-0.124,0.048-0.248,0.085-0.369,0.111
			c-0.12,0.025-0.246,0.039-0.375,0.039c-0.185,0-0.354-0.037-0.505-0.11c-0.147-0.073-0.273-0.173-0.376-0.298
			c-0.103-0.125-0.182-0.27-0.239-0.433c-0.053-0.169-0.078-0.348-0.078-0.538c0-0.198,0.025-0.382,0.078-0.55
			c0.056-0.173,0.135-0.32,0.239-0.44c0.108-0.121,0.24-0.216,0.395-0.285c0.156-0.07,0.333-0.103,0.531-0.103
			c0.112,0,0.229,0.017,0.35,0.051c0.125,0.031,0.244,0.07,0.356,0.116L28.859,60.396z"/>
		<path fill-rule="evenodd" clip-rule="evenodd" fill="#003A89" d="M31.927,60.344h-0.408v1.826c0,0.138-0.017,0.278-0.052,0.421
			c-0.03,0.142-0.085,0.272-0.162,0.387c-0.073,0.117-0.173,0.212-0.298,0.286c-0.125,0.073-0.28,0.11-0.465,0.11
			c-0.281,0-0.481-0.093-0.603-0.279c-0.121-0.185-0.181-0.433-0.181-0.744v-2.007H29.35v2.11c0,0.182,0.02,0.35,0.058,0.505
			c0.043,0.155,0.111,0.29,0.201,0.401c0.09,0.112,0.207,0.2,0.35,0.265c0.142,0.065,0.315,0.097,0.517,0.097
			c0.173,0,0.318-0.021,0.434-0.064c0.12-0.04,0.222-0.091,0.304-0.156c0.081-0.064,0.149-0.135,0.2-0.213
			c0.052-0.082,0.095-0.16,0.129-0.232h0.013v0.588h0.395c-0.013-0.133-0.021-0.265-0.025-0.395c0-0.13,0-0.257,0-0.382V60.344z"/>
		<path fill-rule="evenodd" clip-rule="evenodd" fill="#003A89" d="M32.748,63.645h0.407v-3.301h-0.407V63.645z M32.58,59.813h0.297
			l0.816-0.933h-0.512L32.58,59.813z"/>
		<path fill-rule="evenodd" clip-rule="evenodd" fill="#003A89" d="M36.165,60.396c-0.06-0.023-0.16-0.048-0.298-0.078
			c-0.134-0.035-0.3-0.052-0.499-0.052c-0.245,0-0.47,0.043-0.673,0.13c-0.197,0.082-0.369,0.2-0.511,0.355
			c-0.142,0.151-0.252,0.333-0.329,0.543c-0.078,0.212-0.117,0.445-0.117,0.699c0,0.229,0.032,0.45,0.097,0.66
			c0.065,0.208,0.162,0.391,0.291,0.551c0.134,0.16,0.299,0.287,0.493,0.381c0.198,0.09,0.431,0.136,0.699,0.136
			c0.155,0,0.299-0.008,0.433-0.025c0.138-0.013,0.276-0.043,0.415-0.091l-0.039-0.381c-0.125,0.048-0.248,0.085-0.369,0.111
			c-0.121,0.025-0.246,0.039-0.376,0.039c-0.185,0-0.353-0.037-0.504-0.11c-0.147-0.073-0.273-0.173-0.376-0.298
			c-0.104-0.125-0.183-0.27-0.239-0.433c-0.053-0.169-0.079-0.348-0.079-0.538c0-0.198,0.026-0.382,0.079-0.55
			c0.055-0.173,0.135-0.32,0.239-0.44c0.108-0.121,0.24-0.216,0.395-0.285c0.155-0.07,0.333-0.103,0.53-0.103
			c0.113,0,0.229,0.017,0.35,0.051c0.126,0.031,0.244,0.07,0.356,0.116L36.165,60.396z"/>
		<path fill-rule="evenodd" clip-rule="evenodd" fill="#003A89" d="M36.404,61.994c0,0.225,0.03,0.442,0.09,0.654
			c0.06,0.207,0.153,0.39,0.278,0.55c0.126,0.159,0.285,0.287,0.479,0.382c0.194,0.095,0.425,0.142,0.692,0.142
			c0.268,0,0.498-0.047,0.693-0.142c0.195-0.095,0.354-0.223,0.478-0.382c0.126-0.16,0.218-0.343,0.278-0.55
			c0.061-0.212,0.091-0.43,0.091-0.654c0-0.224-0.03-0.44-0.091-0.647c-0.06-0.213-0.152-0.398-0.278-0.557
			c-0.124-0.16-0.284-0.288-0.478-0.383c-0.195-0.095-0.425-0.142-0.693-0.142c-0.267,0-0.498,0.047-0.692,0.142
			c-0.195,0.095-0.353,0.223-0.479,0.383c-0.125,0.159-0.218,0.344-0.278,0.557C36.434,61.554,36.404,61.771,36.404,61.994z
			 M36.85,61.994c0-0.19,0.024-0.369,0.071-0.538c0.048-0.167,0.117-0.314,0.208-0.44c0.095-0.124,0.21-0.222,0.343-0.291
			c0.137-0.073,0.295-0.109,0.472-0.109c0.177,0,0.333,0.036,0.466,0.109c0.138,0.07,0.252,0.167,0.343,0.291
			c0.095,0.126,0.166,0.273,0.213,0.44c0.047,0.169,0.071,0.348,0.071,0.538c0,0.19-0.024,0.369-0.071,0.538
			c-0.047,0.167-0.118,0.315-0.213,0.44c-0.091,0.125-0.205,0.224-0.343,0.297c-0.134,0.07-0.29,0.104-0.466,0.104
			c-0.177,0-0.335-0.035-0.472-0.104c-0.133-0.073-0.248-0.172-0.343-0.297c-0.091-0.125-0.16-0.273-0.208-0.44
			C36.874,62.363,36.85,62.184,36.85,61.994z"/>
		<rect x="40.053" y="58.791" fill-rule="evenodd" clip-rule="evenodd" fill="#003A89" width="0.408" height="4.854"/>
		<path fill-rule="evenodd" clip-rule="evenodd" fill="#003A89" d="M43.186,63.645h0.401c-0.018-0.113-0.027-0.222-0.033-0.33
			c0-0.108,0-0.229,0-0.363v-1.456c0-0.431-0.09-0.745-0.271-0.938c-0.182-0.195-0.477-0.291-0.887-0.291
			c-0.073,0-0.153,0.006-0.239,0.019c-0.086,0.013-0.175,0.03-0.266,0.053c-0.086,0.017-0.17,0.04-0.253,0.07
			c-0.077,0.026-0.149,0.054-0.213,0.084v0.396c0.151-0.1,0.306-0.168,0.465-0.208c0.164-0.043,0.332-0.064,0.505-0.064
			c0.276,0,0.47,0.071,0.583,0.213c0.112,0.138,0.168,0.349,0.168,0.635v0.167h-0.078c-0.215,0-0.442,0.009-0.679,0.026
			c-0.238,0.017-0.458,0.065-0.661,0.143c-0.198,0.073-0.365,0.187-0.498,0.342c-0.13,0.156-0.195,0.371-0.195,0.648
			c0,0.073,0.013,0.165,0.039,0.272c0.026,0.108,0.077,0.212,0.155,0.311c0.078,0.095,0.187,0.177,0.33,0.245
			c0.143,0.07,0.33,0.104,0.563,0.104c0.103,0,0.208-0.013,0.311-0.039c0.103-0.025,0.202-0.065,0.297-0.117
			c0.096-0.052,0.18-0.114,0.252-0.187c0.079-0.078,0.141-0.166,0.188-0.266h0.013V63.645z M43.147,62.182
			c0,0.09-0.007,0.203-0.02,0.337c-0.013,0.133-0.049,0.265-0.11,0.395c-0.06,0.125-0.157,0.233-0.29,0.323
			c-0.135,0.09-0.32,0.136-0.558,0.136c-0.19,0-0.352-0.046-0.485-0.136c-0.134-0.09-0.2-0.244-0.2-0.46
			c0-0.181,0.047-0.323,0.142-0.427c0.095-0.108,0.215-0.188,0.362-0.24c0.151-0.057,0.318-0.09,0.498-0.104
			c0.186-0.017,0.368-0.026,0.544-0.026h0.117V62.182z"/>
		<path fill-rule="evenodd" clip-rule="evenodd" fill="#003A89" d="M48.227,60.344h-0.428l-0.951,2.751h-0.013l-0.919-2.751H45.47
			l1.171,3.34l-0.085,0.291c-0.064,0.215-0.137,0.388-0.22,0.518c-0.077,0.133-0.203,0.2-0.375,0.2c-0.073,0-0.134-0.007-0.182-0.02
			c-0.043-0.008-0.085-0.019-0.122-0.032l-0.039,0.35c0.147,0.035,0.293,0.052,0.44,0.052c0.117,0,0.218-0.025,0.305-0.078
			c0.086-0.051,0.164-0.12,0.233-0.207c0.069-0.082,0.127-0.179,0.175-0.291c0.051-0.107,0.097-0.218,0.135-0.33L48.227,60.344z"/>
		<path fill-rule="evenodd" clip-rule="evenodd" fill="#003A89" d="M50.239,63.645h0.447V61.69h0.621
			c0.202,0,0.39-0.026,0.563-0.077c0.177-0.056,0.33-0.138,0.46-0.246c0.129-0.107,0.23-0.242,0.304-0.4
			c0.078-0.16,0.117-0.346,0.117-0.558c0-0.427-0.127-0.746-0.382-0.958c-0.254-0.215-0.593-0.323-1.016-0.323h-1.113V63.645z
			 M50.685,59.515h0.725c0.285,0,0.505,0.078,0.661,0.233c0.154,0.155,0.233,0.375,0.233,0.66c0,0.203-0.038,0.365-0.111,0.486
			c-0.073,0.117-0.17,0.205-0.291,0.265c-0.12,0.06-0.261,0.1-0.42,0.116c-0.155,0.017-0.317,0.027-0.486,0.027h-0.31V59.515z"/>
		<path fill-rule="evenodd" clip-rule="evenodd" fill="#003A89" d="M55.442,63.127c-0.047,0.03-0.11,0.06-0.188,0.091
			c-0.073,0.03-0.152,0.055-0.239,0.077c-0.083,0.022-0.169,0.041-0.26,0.058c-0.086,0.013-0.165,0.02-0.239,0.02
			c-0.178,0-0.335-0.033-0.473-0.097c-0.134-0.07-0.246-0.16-0.336-0.273c-0.091-0.112-0.16-0.244-0.208-0.395
			c-0.047-0.155-0.071-0.322-0.071-0.498h2.26v-0.207c0-0.22-0.026-0.43-0.078-0.628c-0.048-0.198-0.125-0.371-0.233-0.518
			c-0.103-0.151-0.24-0.27-0.407-0.356c-0.165-0.09-0.363-0.135-0.596-0.135c-0.207,0-0.397,0.043-0.57,0.13
			c-0.173,0.086-0.32,0.205-0.44,0.355c-0.12,0.151-0.216,0.335-0.285,0.551c-0.065,0.21-0.097,0.442-0.097,0.692
			c0,0.246,0.025,0.475,0.077,0.686c0.056,0.212,0.143,0.395,0.26,0.55c0.12,0.155,0.276,0.276,0.466,0.363
			c0.194,0.086,0.427,0.129,0.698,0.129c0.151,0,0.313-0.015,0.486-0.045c0.172-0.03,0.329-0.075,0.472-0.135V63.127z
			 M53.428,61.761c0-0.134,0.023-0.269,0.066-0.408c0.047-0.137,0.112-0.26,0.194-0.369c0.086-0.108,0.188-0.197,0.304-0.265
			c0.12-0.07,0.257-0.103,0.408-0.103c0.151,0,0.28,0.032,0.387,0.097c0.109,0.065,0.195,0.151,0.26,0.259
			c0.07,0.108,0.118,0.231,0.148,0.369c0.03,0.138,0.045,0.278,0.045,0.42H53.428z"/>
		<path fill-rule="evenodd" clip-rule="evenodd" fill="#003A89" d="M55.972,63.567c0.147,0.061,0.298,0.102,0.453,0.123
			c0.156,0.022,0.313,0.032,0.472,0.032c0.126,0,0.256-0.017,0.389-0.051c0.138-0.031,0.263-0.083,0.375-0.156
			c0.112-0.073,0.205-0.168,0.279-0.285c0.073-0.12,0.109-0.27,0.109-0.447c0-0.181-0.041-0.332-0.122-0.453
			c-0.078-0.12-0.178-0.224-0.298-0.31c-0.121-0.086-0.253-0.16-0.396-0.22c-0.137-0.061-0.267-0.121-0.387-0.182
			c-0.121-0.061-0.223-0.125-0.305-0.194c-0.077-0.069-0.117-0.155-0.117-0.259c0-0.211,0.065-0.356,0.194-0.433
			c0.134-0.078,0.306-0.116,0.519-0.116c0.112,0,0.235,0.015,0.369,0.045c0.134,0.026,0.255,0.062,0.363,0.11l0.039-0.356
			c-0.147-0.056-0.298-0.095-0.453-0.116c-0.155-0.022-0.276-0.032-0.363-0.032c-0.138,0-0.272,0.017-0.401,0.052
			c-0.125,0.03-0.239,0.082-0.342,0.155c-0.1,0.07-0.179,0.162-0.241,0.278c-0.06,0.113-0.09,0.25-0.09,0.415
			c0,0.159,0.04,0.293,0.117,0.401c0.078,0.104,0.175,0.194,0.291,0.272c0.12,0.073,0.248,0.14,0.382,0.2
			c0.138,0.06,0.265,0.126,0.382,0.195c0.121,0.065,0.22,0.14,0.298,0.227c0.078,0.086,0.116,0.194,0.116,0.323
			c0,0.095-0.02,0.179-0.058,0.252c-0.038,0.074-0.093,0.136-0.162,0.188c-0.069,0.048-0.149,0.085-0.24,0.111
			c-0.086,0.025-0.177,0.039-0.272,0.039c-0.159,0-0.313-0.02-0.46-0.058c-0.142-0.039-0.276-0.089-0.4-0.15L55.972,63.567z"/>
		<path fill-rule="evenodd" clip-rule="evenodd" fill="#003A89" d="M61.195,60.344h-0.408v0.538h-0.013
			c-0.021-0.03-0.054-0.078-0.097-0.143c-0.043-0.069-0.106-0.137-0.187-0.207c-0.078-0.07-0.18-0.13-0.305-0.182
			c-0.121-0.055-0.268-0.084-0.44-0.084c-0.243,0-0.449,0.043-0.622,0.13c-0.172,0.086-0.314,0.207-0.427,0.362
			c-0.107,0.151-0.188,0.332-0.239,0.544c-0.048,0.21-0.072,0.442-0.072,0.692c0,0.246,0.028,0.475,0.084,0.686
			c0.056,0.207,0.14,0.388,0.253,0.543c0.117,0.156,0.259,0.278,0.427,0.369c0.168,0.086,0.367,0.129,0.596,0.129
			c0.259,0,0.47-0.051,0.634-0.155c0.164-0.108,0.296-0.27,0.395-0.485h0.013v1.922h0.408V60.344z M58.833,61.994
			c0-0.16,0.012-0.321,0.039-0.485c0.03-0.164,0.083-0.311,0.156-0.44c0.077-0.134,0.179-0.243,0.304-0.324
			c0.125-0.086,0.285-0.129,0.478-0.129c0.182,0,0.335,0.043,0.461,0.129c0.124,0.086,0.224,0.198,0.297,0.337
			c0.077,0.134,0.133,0.283,0.168,0.446c0.035,0.16,0.052,0.316,0.052,0.466c0,0.151-0.017,0.308-0.052,0.473
			c-0.035,0.159-0.091,0.308-0.168,0.447c-0.073,0.133-0.173,0.243-0.297,0.33c-0.126,0.087-0.278,0.13-0.461,0.13
			c-0.194,0-0.353-0.041-0.478-0.123c-0.125-0.087-0.227-0.194-0.304-0.323c-0.073-0.134-0.126-0.283-0.156-0.447
			C58.845,62.316,58.833,62.154,58.833,61.994z"/>
		<path fill-rule="evenodd" clip-rule="evenodd" fill="#003A89" d="M64.554,60.344h-0.408v1.826c0,0.138-0.017,0.278-0.052,0.421
			c-0.03,0.142-0.085,0.272-0.162,0.387c-0.073,0.117-0.173,0.212-0.298,0.286c-0.125,0.073-0.28,0.11-0.465,0.11
			c-0.281,0-0.481-0.093-0.603-0.279c-0.121-0.185-0.181-0.433-0.181-0.744v-2.007h-0.408v2.11c0,0.182,0.02,0.35,0.058,0.505
			c0.043,0.155,0.111,0.29,0.201,0.401c0.09,0.112,0.207,0.2,0.35,0.265c0.142,0.065,0.315,0.097,0.517,0.097
			c0.173,0,0.318-0.021,0.434-0.064c0.12-0.04,0.222-0.091,0.304-0.156c0.081-0.064,0.149-0.135,0.2-0.213
			c0.052-0.082,0.095-0.16,0.129-0.232h0.013v0.588h0.395c-0.013-0.133-0.021-0.265-0.025-0.395c0-0.13,0-0.257,0-0.382V60.344z"/>
		<path fill-rule="evenodd" clip-rule="evenodd" fill="#003A89" d="M67.589,63.127c-0.048,0.03-0.111,0.06-0.188,0.091
			c-0.073,0.03-0.153,0.055-0.24,0.077c-0.082,0.022-0.168,0.041-0.259,0.058c-0.086,0.013-0.166,0.02-0.24,0.02
			c-0.178,0-0.335-0.033-0.473-0.097c-0.133-0.07-0.246-0.16-0.337-0.273c-0.09-0.112-0.16-0.244-0.207-0.395
			c-0.047-0.155-0.071-0.322-0.071-0.498h2.259v-0.207c0-0.22-0.025-0.43-0.078-0.628c-0.047-0.198-0.124-0.371-0.233-0.518
			c-0.104-0.151-0.239-0.27-0.407-0.356c-0.165-0.09-0.362-0.135-0.595-0.135c-0.208,0-0.398,0.043-0.57,0.13
			c-0.173,0.086-0.32,0.205-0.44,0.355c-0.121,0.151-0.216,0.335-0.286,0.551c-0.064,0.21-0.097,0.442-0.097,0.692
			c0,0.246,0.025,0.475,0.078,0.686c0.056,0.212,0.142,0.395,0.258,0.55c0.121,0.155,0.276,0.276,0.466,0.363
			c0.195,0.086,0.427,0.129,0.698,0.129c0.151,0,0.313-0.015,0.486-0.045c0.172-0.03,0.33-0.075,0.473-0.135V63.127z M65.576,61.761
			c0-0.134,0.022-0.269,0.065-0.408c0.048-0.137,0.112-0.26,0.195-0.369c0.087-0.108,0.187-0.197,0.304-0.265
			c0.121-0.07,0.257-0.103,0.408-0.103c0.151,0,0.281,0.032,0.388,0.097c0.108,0.065,0.194,0.151,0.26,0.259
			c0.069,0.108,0.118,0.231,0.148,0.369c0.03,0.138,0.045,0.278,0.045,0.42H65.576z"/>
		<path fill-rule="evenodd" clip-rule="evenodd" fill="#003A89" d="M68.411,63.645h0.407v-1.631c0-0.147,0.013-0.298,0.038-0.453
			c0.026-0.16,0.07-0.302,0.13-0.428c0.06-0.129,0.143-0.235,0.246-0.317c0.107-0.082,0.244-0.123,0.408-0.123
			c0.112,0,0.211,0.013,0.297,0.039v-0.428c-0.034-0.008-0.079-0.018-0.135-0.025c-0.053-0.009-0.101-0.013-0.148-0.013
			c-0.104,0-0.201,0.019-0.291,0.058c-0.086,0.039-0.166,0.092-0.24,0.162c-0.069,0.064-0.13,0.14-0.182,0.227
			c-0.052,0.086-0.098,0.175-0.135,0.265h-0.013v-0.635h-0.408c0.004,0.06,0.008,0.116,0.013,0.169
			c0.004,0.047,0.006,0.099,0.006,0.154c0.005,0.056,0.008,0.116,0.008,0.182c0,0.064,0,0.142,0,0.232V63.645z"/>
		<path fill-rule="evenodd" clip-rule="evenodd" fill="#003A89" d="M70.112,61.994c0,0.225,0.03,0.442,0.09,0.654
			c0.06,0.207,0.153,0.39,0.278,0.55c0.125,0.159,0.285,0.287,0.479,0.382c0.194,0.095,0.425,0.142,0.692,0.142
			c0.268,0,0.498-0.047,0.693-0.142c0.195-0.095,0.354-0.223,0.478-0.382c0.126-0.16,0.218-0.343,0.278-0.55
			c0.061-0.212,0.091-0.43,0.091-0.654c0-0.224-0.03-0.44-0.091-0.647c-0.06-0.213-0.152-0.398-0.278-0.557
			c-0.124-0.16-0.284-0.288-0.478-0.383c-0.195-0.095-0.425-0.142-0.693-0.142c-0.267,0-0.498,0.047-0.692,0.142
			c-0.195,0.095-0.354,0.223-0.479,0.383c-0.125,0.159-0.218,0.344-0.278,0.557C70.142,61.554,70.112,61.771,70.112,61.994z
			 M70.558,61.994c0-0.19,0.024-0.369,0.072-0.538c0.048-0.167,0.116-0.314,0.208-0.44c0.095-0.124,0.21-0.222,0.343-0.291
			c0.137-0.073,0.295-0.109,0.472-0.109c0.177,0,0.333,0.036,0.466,0.109c0.138,0.07,0.252,0.167,0.343,0.291
			c0.095,0.126,0.167,0.273,0.213,0.44c0.047,0.169,0.071,0.348,0.071,0.538c0,0.19-0.024,0.369-0.071,0.538
			c-0.047,0.167-0.119,0.315-0.213,0.44c-0.091,0.125-0.205,0.224-0.343,0.297c-0.133,0.07-0.289,0.104-0.466,0.104
			c-0.177,0-0.335-0.035-0.472-0.104c-0.133-0.073-0.248-0.172-0.343-0.297c-0.091-0.125-0.16-0.273-0.208-0.44
			C70.582,62.363,70.558,62.184,70.558,61.994z"/>
		<path fill-rule="evenodd" clip-rule="evenodd" fill="#003A89" d="M77.975,58.791h-0.408v2.11h-0.013
			c-0.012-0.039-0.045-0.092-0.096-0.162c-0.048-0.073-0.115-0.145-0.201-0.213c-0.083-0.069-0.186-0.129-0.31-0.182
			c-0.121-0.052-0.261-0.077-0.421-0.077c-0.242,0-0.449,0.043-0.621,0.13c-0.173,0.086-0.315,0.207-0.428,0.362
			c-0.107,0.151-0.188,0.332-0.239,0.544c-0.048,0.21-0.071,0.442-0.071,0.692c0,0.246,0.028,0.475,0.085,0.686
			c0.055,0.207,0.139,0.388,0.252,0.543c0.116,0.156,0.26,0.278,0.427,0.369c0.169,0.086,0.367,0.129,0.596,0.129
			c0.237,0,0.44-0.047,0.608-0.142c0.168-0.095,0.309-0.248,0.42-0.46h0.013v0.524h0.408V58.791z M75.612,61.994
			c0-0.16,0.013-0.321,0.039-0.485c0.03-0.164,0.083-0.311,0.156-0.44c0.077-0.134,0.179-0.243,0.303-0.324
			c0.125-0.086,0.285-0.129,0.479-0.129c0.182,0,0.335,0.043,0.461,0.129c0.124,0.086,0.224,0.198,0.297,0.337
			c0.078,0.134,0.133,0.283,0.168,0.446c0.035,0.16,0.052,0.316,0.052,0.466c0,0.151-0.017,0.308-0.052,0.473
			c-0.035,0.159-0.09,0.308-0.168,0.447c-0.073,0.133-0.173,0.243-0.297,0.33c-0.126,0.087-0.278,0.13-0.461,0.13
			c-0.194,0-0.353-0.041-0.479-0.123c-0.125-0.087-0.226-0.194-0.303-0.323c-0.073-0.134-0.126-0.283-0.156-0.447
			C75.625,62.316,75.612,62.154,75.612,61.994z"/>
		<path fill-rule="evenodd" clip-rule="evenodd" fill="#003A89" d="M80.972,63.127c-0.048,0.03-0.111,0.06-0.188,0.091
			c-0.073,0.03-0.153,0.055-0.24,0.077c-0.082,0.022-0.168,0.041-0.259,0.058c-0.086,0.013-0.166,0.02-0.24,0.02
			c-0.178,0-0.335-0.033-0.473-0.097c-0.133-0.07-0.246-0.16-0.336-0.273c-0.09-0.112-0.16-0.244-0.207-0.395
			c-0.047-0.155-0.071-0.322-0.071-0.498h2.259v-0.207c0-0.22-0.026-0.43-0.078-0.628c-0.047-0.198-0.124-0.371-0.233-0.518
			c-0.103-0.151-0.239-0.27-0.407-0.356c-0.165-0.09-0.363-0.135-0.595-0.135c-0.208,0-0.398,0.043-0.57,0.13
			c-0.173,0.086-0.32,0.205-0.441,0.355c-0.12,0.151-0.215,0.335-0.285,0.551c-0.064,0.21-0.097,0.442-0.097,0.692
			c0,0.246,0.025,0.475,0.078,0.686c0.056,0.212,0.142,0.395,0.259,0.55c0.121,0.155,0.276,0.276,0.466,0.363
			c0.194,0.086,0.427,0.129,0.698,0.129c0.151,0,0.313-0.015,0.486-0.045c0.172-0.03,0.33-0.075,0.473-0.135V63.127z M78.958,61.761
			c0-0.134,0.022-0.269,0.065-0.408c0.048-0.137,0.112-0.26,0.194-0.369c0.087-0.108,0.187-0.197,0.304-0.265
			c0.121-0.07,0.257-0.103,0.408-0.103c0.151,0,0.281,0.032,0.388,0.097c0.108,0.065,0.194,0.151,0.26,0.259
			c0.069,0.108,0.118,0.231,0.148,0.369c0.03,0.138,0.045,0.278,0.045,0.42H78.958z"/>
		<rect x="83.378" y="59.127" fill-rule="evenodd" clip-rule="evenodd" fill="#003A89" width="0.446" height="4.518"/>
		<path fill-rule="evenodd" clip-rule="evenodd" fill="#003A89" d="M84.626,63.645h0.408V61.82c0-0.138,0.015-0.278,0.045-0.42
			c0.034-0.143,0.088-0.272,0.162-0.388c0.077-0.117,0.178-0.212,0.305-0.286c0.124-0.073,0.28-0.109,0.466-0.109
			c0.28,0,0.48,0.092,0.602,0.278c0.12,0.185,0.181,0.433,0.181,0.745v2.006h0.408v-2.11c0-0.181-0.021-0.349-0.064-0.505
			c-0.039-0.155-0.104-0.289-0.195-0.4c-0.091-0.113-0.208-0.201-0.35-0.266c-0.142-0.065-0.315-0.097-0.518-0.097
			c-0.173,0-0.32,0.021-0.44,0.064c-0.117,0.039-0.216,0.091-0.297,0.156c-0.083,0.064-0.149,0.138-0.201,0.22
			c-0.053,0.077-0.095,0.153-0.13,0.227h-0.013v-0.589H84.6c0.013,0.135,0.02,0.265,0.02,0.395c0.005,0.13,0.007,0.258,0.007,0.382
			V63.645z"/>
		<polygon fill-rule="evenodd" clip-rule="evenodd" fill="#003A89" points="90.329,60.344 89.901,60.344 88.943,63.198 
			88.93,63.198 88.017,60.344 87.571,60.344 88.691,63.645 89.17,63.645 		"/>
		<path fill-rule="evenodd" clip-rule="evenodd" fill="#003A89" d="M92.91,63.127c-0.047,0.03-0.11,0.06-0.188,0.091
			c-0.073,0.03-0.153,0.055-0.239,0.077c-0.083,0.022-0.169,0.041-0.26,0.058c-0.086,0.013-0.166,0.02-0.239,0.02
			c-0.178,0-0.335-0.033-0.474-0.097c-0.134-0.07-0.245-0.16-0.337-0.273c-0.09-0.112-0.16-0.244-0.207-0.395
			c-0.047-0.155-0.071-0.322-0.071-0.498h2.26v-0.207c0-0.22-0.026-0.43-0.078-0.628c-0.048-0.198-0.125-0.371-0.233-0.518
			c-0.104-0.151-0.24-0.27-0.408-0.356c-0.163-0.09-0.362-0.135-0.595-0.135c-0.207,0-0.397,0.043-0.57,0.13
			c-0.173,0.086-0.32,0.205-0.44,0.355c-0.121,0.151-0.216,0.335-0.285,0.551c-0.065,0.21-0.097,0.442-0.097,0.692
			c0,0.246,0.025,0.475,0.077,0.686c0.056,0.212,0.143,0.395,0.26,0.55c0.12,0.155,0.276,0.276,0.465,0.363
			c0.195,0.086,0.428,0.129,0.699,0.129c0.151,0,0.313-0.015,0.485-0.045c0.173-0.03,0.33-0.075,0.473-0.135V63.127z M90.897,61.761
			c0-0.134,0.023-0.269,0.066-0.408c0.047-0.137,0.111-0.26,0.194-0.369c0.086-0.108,0.188-0.197,0.305-0.265
			c0.12-0.07,0.256-0.103,0.408-0.103c0.15,0,0.28,0.032,0.387,0.097c0.108,0.065,0.195,0.151,0.259,0.259
			c0.07,0.108,0.119,0.231,0.149,0.369c0.03,0.138,0.045,0.278,0.045,0.42H90.897z"/>
		<path fill-rule="evenodd" clip-rule="evenodd" fill="#003A89" d="M93.44,63.567c0.146,0.061,0.297,0.102,0.452,0.123
			c0.156,0.022,0.312,0.032,0.472,0.032c0.126,0,0.256-0.017,0.389-0.051c0.137-0.031,0.263-0.083,0.376-0.156
			c0.111-0.073,0.205-0.168,0.278-0.285c0.073-0.12,0.109-0.27,0.109-0.447c0-0.181-0.041-0.332-0.122-0.453
			c-0.079-0.12-0.177-0.224-0.299-0.31c-0.121-0.086-0.252-0.16-0.395-0.22c-0.137-0.061-0.267-0.121-0.387-0.182
			c-0.12-0.061-0.222-0.125-0.305-0.194c-0.077-0.069-0.117-0.155-0.117-0.259c0-0.211,0.064-0.356,0.194-0.433
			c0.134-0.078,0.307-0.116,0.519-0.116c0.111,0,0.235,0.015,0.369,0.045c0.133,0.026,0.254,0.062,0.363,0.11l0.038-0.356
			c-0.147-0.056-0.297-0.095-0.453-0.116c-0.154-0.022-0.274-0.032-0.361-0.032c-0.139,0-0.272,0.017-0.403,0.052
			c-0.124,0.03-0.239,0.082-0.342,0.155c-0.1,0.07-0.179,0.162-0.241,0.278c-0.06,0.113-0.09,0.25-0.09,0.415
			c0,0.159,0.039,0.293,0.116,0.401c0.077,0.104,0.175,0.194,0.291,0.272c0.12,0.073,0.248,0.14,0.382,0.2
			c0.139,0.06,0.265,0.126,0.381,0.195c0.122,0.065,0.22,0.14,0.299,0.227c0.077,0.086,0.117,0.194,0.117,0.323
			c0,0.095-0.021,0.179-0.058,0.252c-0.039,0.074-0.094,0.136-0.162,0.188c-0.07,0.048-0.15,0.085-0.241,0.111
			c-0.086,0.025-0.177,0.039-0.271,0.039c-0.16,0-0.314-0.02-0.461-0.058c-0.143-0.039-0.276-0.089-0.401-0.15L93.44,63.567z"/>
		<path fill-rule="evenodd" clip-rule="evenodd" fill="#003A89" d="M97.473,60.344h-0.752v-0.938l-0.408,0.143v0.795h-0.647v0.35
			h0.647v1.929c0,0.15,0.006,0.293,0.013,0.427c0.013,0.134,0.043,0.25,0.09,0.35c0.049,0.1,0.123,0.179,0.22,0.24
			c0.103,0.055,0.246,0.084,0.428,0.084c0.098,0,0.194-0.01,0.284-0.032c0.096-0.017,0.165-0.037,0.214-0.058l-0.026-0.336
			c-0.06,0.022-0.118,0.041-0.175,0.058c-0.057,0.013-0.122,0.02-0.201,0.02c-0.163,0-0.278-0.052-0.342-0.155
			c-0.066-0.108-0.098-0.238-0.098-0.389v-2.136h0.752V60.344z"/>
		<path fill-rule="evenodd" clip-rule="evenodd" fill="#003A89" d="M98.003,63.645h0.406v-3.301h-0.406V63.645z M98.409,59.049
			h-0.406v0.544h0.406V59.049z"/>
		<path fill-rule="evenodd" clip-rule="evenodd" fill="#003A89" d="M99.49,61.994c0-0.16,0.013-0.321,0.039-0.485
			c0.03-0.164,0.081-0.311,0.154-0.44c0.079-0.134,0.181-0.243,0.305-0.324c0.126-0.086,0.286-0.129,0.479-0.129
			c0.186,0,0.34,0.034,0.466,0.103c0.124,0.069,0.224,0.166,0.297,0.291c0.077,0.12,0.132,0.265,0.162,0.433
			c0.034,0.168,0.053,0.352,0.053,0.55c0,0.151-0.019,0.305-0.053,0.46c-0.034,0.151-0.092,0.289-0.175,0.415
			c-0.077,0.125-0.18,0.228-0.31,0.31c-0.126,0.078-0.28,0.117-0.466,0.117c-0.173,0-0.319-0.037-0.44-0.11
			c-0.12-0.078-0.22-0.177-0.297-0.298c-0.074-0.12-0.128-0.259-0.162-0.414C99.507,62.318,99.49,62.158,99.49,61.994z
			 M101.853,60.344h-0.408v0.376h-0.013c-0.079-0.1-0.156-0.177-0.233-0.233c-0.073-0.06-0.15-0.105-0.233-0.136
			c-0.083-0.035-0.171-0.055-0.265-0.065c-0.09-0.013-0.19-0.019-0.299-0.019c-0.241,0-0.447,0.043-0.62,0.13
			c-0.173,0.086-0.316,0.207-0.427,0.362c-0.109,0.151-0.188,0.332-0.241,0.544c-0.047,0.21-0.071,0.442-0.071,0.692
			c0,0.182,0.023,0.371,0.066,0.57c0.047,0.194,0.124,0.371,0.233,0.53c0.107,0.16,0.25,0.291,0.427,0.395
			c0.18,0.104,0.404,0.156,0.667,0.156c0.211,0,0.403-0.047,0.575-0.143c0.173-0.094,0.316-0.263,0.427-0.504h0.013
			c0,0.232-0.011,0.45-0.032,0.652c-0.017,0.208-0.066,0.389-0.143,0.544c-0.077,0.155-0.192,0.276-0.342,0.362
			c-0.152,0.091-0.359,0.136-0.622,0.136c-0.18,0-0.357-0.023-0.53-0.07c-0.169-0.043-0.316-0.098-0.44-0.163l-0.032,0.408
			c0.086,0.025,0.216,0.061,0.395,0.103c0.18,0.048,0.381,0.071,0.601,0.071c0.284,0,0.525-0.045,0.718-0.136
			c0.199-0.086,0.357-0.205,0.48-0.355c0.124-0.151,0.212-0.328,0.265-0.531c0.056-0.202,0.085-0.418,0.085-0.647V60.344z"/>
		<path fill-rule="evenodd" clip-rule="evenodd" fill="#003A89" d="M104.533,63.645h0.4c-0.017-0.113-0.028-0.222-0.032-0.33
			c0-0.108,0-0.229,0-0.363v-1.456c0-0.431-0.09-0.745-0.272-0.938c-0.18-0.195-0.476-0.291-0.885-0.291
			c-0.073,0-0.154,0.006-0.241,0.019s-0.175,0.03-0.265,0.053c-0.086,0.017-0.171,0.04-0.252,0.07
			c-0.079,0.026-0.148,0.054-0.215,0.084v0.396c0.151-0.1,0.307-0.168,0.466-0.208c0.164-0.043,0.333-0.064,0.506-0.064
			c0.274,0,0.47,0.071,0.581,0.213c0.113,0.138,0.169,0.349,0.169,0.635v0.167h-0.077c-0.216,0-0.444,0.009-0.681,0.026
			c-0.237,0.017-0.457,0.065-0.66,0.143c-0.199,0.073-0.365,0.187-0.498,0.342c-0.13,0.156-0.194,0.371-0.194,0.648
			c0,0.073,0.011,0.165,0.038,0.272c0.026,0.108,0.079,0.212,0.156,0.311c0.077,0.095,0.188,0.177,0.329,0.245
			c0.143,0.07,0.331,0.104,0.564,0.104c0.103,0,0.207-0.013,0.31-0.039c0.103-0.025,0.203-0.065,0.299-0.117
			c0.094-0.052,0.179-0.114,0.252-0.187c0.077-0.078,0.139-0.166,0.188-0.266h0.013V63.645z M104.493,62.182
			c0,0.09-0.008,0.203-0.019,0.337c-0.013,0.133-0.051,0.265-0.111,0.395c-0.06,0.125-0.158,0.233-0.291,0.323
			c-0.133,0.09-0.319,0.136-0.557,0.136c-0.19,0-0.351-0.046-0.485-0.136c-0.133-0.09-0.201-0.244-0.201-0.46
			c0-0.181,0.047-0.323,0.143-0.427c0.094-0.108,0.216-0.188,0.363-0.24c0.15-0.057,0.316-0.09,0.498-0.104
			c0.184-0.017,0.366-0.026,0.543-0.026h0.117V62.182z"/>
		<path fill-rule="evenodd" clip-rule="evenodd" fill="#003A89" d="M107.851,60.396c-0.06-0.023-0.16-0.048-0.297-0.078
			c-0.133-0.035-0.301-0.052-0.498-0.052c-0.246,0-0.47,0.043-0.673,0.13c-0.199,0.082-0.368,0.2-0.512,0.355
			c-0.143,0.151-0.252,0.333-0.331,0.543c-0.077,0.212-0.116,0.445-0.116,0.699c0,0.229,0.034,0.45,0.098,0.66
			c0.064,0.208,0.162,0.391,0.291,0.551c0.133,0.16,0.297,0.287,0.493,0.381c0.197,0.09,0.43,0.136,0.698,0.136
			c0.156,0,0.301-0.008,0.434-0.025c0.138-0.013,0.277-0.043,0.414-0.091l-0.038-0.381c-0.126,0.048-0.248,0.085-0.371,0.111
			c-0.12,0.025-0.244,0.039-0.374,0.039c-0.186,0-0.354-0.037-0.506-0.11c-0.147-0.073-0.271-0.173-0.374-0.298
			c-0.105-0.125-0.185-0.27-0.241-0.433c-0.051-0.169-0.077-0.348-0.077-0.538c0-0.198,0.026-0.382,0.077-0.55
			c0.056-0.173,0.136-0.32,0.241-0.44c0.107-0.121,0.239-0.216,0.395-0.285c0.154-0.07,0.331-0.103,0.53-0.103
			c0.113,0,0.229,0.017,0.35,0.051c0.124,0.031,0.243,0.07,0.356,0.116L107.851,60.396z"/>
		<path fill-rule="evenodd" clip-rule="evenodd" fill="#003A89" d="M108.343,63.645h0.408v-3.301h-0.408V63.645z M108.751,59.049
			h-0.408v0.544h0.408V59.049z"/>
		<path fill-rule="evenodd" clip-rule="evenodd" fill="#003A89" d="M109.327,61.994c0,0.225,0.03,0.442,0.09,0.654
			c0.06,0.207,0.152,0.39,0.278,0.55c0.124,0.159,0.284,0.287,0.48,0.382c0.194,0.095,0.425,0.142,0.692,0.142
			c0.267,0,0.498-0.047,0.692-0.142c0.195-0.095,0.353-0.223,0.479-0.382c0.126-0.16,0.218-0.343,0.279-0.55
			c0.06-0.212,0.09-0.43,0.09-0.654c0-0.224-0.03-0.44-0.09-0.647c-0.06-0.213-0.153-0.398-0.279-0.557
			c-0.126-0.16-0.284-0.288-0.479-0.383c-0.194-0.095-0.425-0.142-0.692-0.142c-0.267,0-0.498,0.047-0.692,0.142
			c-0.195,0.095-0.356,0.223-0.48,0.383c-0.126,0.159-0.218,0.344-0.278,0.557C109.357,61.554,109.327,61.771,109.327,61.994z
			 M109.772,61.994c0-0.19,0.024-0.369,0.071-0.538c0.047-0.167,0.117-0.314,0.207-0.44c0.096-0.124,0.209-0.222,0.344-0.291
			c0.137-0.073,0.295-0.109,0.472-0.109c0.177,0,0.333,0.036,0.466,0.109c0.137,0.07,0.252,0.167,0.342,0.291
			c0.096,0.126,0.167,0.273,0.214,0.44c0.047,0.169,0.071,0.348,0.071,0.538c0,0.19-0.024,0.369-0.071,0.538
			c-0.047,0.167-0.118,0.315-0.214,0.44c-0.09,0.125-0.205,0.224-0.342,0.297c-0.133,0.07-0.289,0.104-0.466,0.104
			c-0.177,0-0.335-0.035-0.472-0.104c-0.135-0.073-0.248-0.172-0.344-0.297c-0.09-0.125-0.16-0.273-0.207-0.44
			C109.796,62.363,109.772,62.184,109.772,61.994z M110.49,59.813h0.299l0.814-0.933h-0.512L110.49,59.813z"/>
		<path fill-rule="evenodd" clip-rule="evenodd" fill="#003A89" d="M112.976,63.645h0.408V61.82c0-0.138,0.015-0.278,0.045-0.42
			c0.034-0.143,0.088-0.272,0.162-0.388c0.077-0.117,0.179-0.212,0.305-0.286c0.124-0.073,0.28-0.109,0.466-0.109
			c0.28,0,0.481,0.092,0.602,0.278c0.12,0.185,0.18,0.433,0.18,0.745v2.006h0.408v-2.11c0-0.181-0.021-0.349-0.064-0.505
			c-0.039-0.155-0.104-0.289-0.196-0.4c-0.09-0.113-0.207-0.201-0.348-0.266c-0.143-0.065-0.316-0.097-0.519-0.097
			c-0.173,0-0.319,0.021-0.44,0.064c-0.117,0.039-0.216,0.091-0.297,0.156c-0.083,0.064-0.15,0.138-0.201,0.22
			c-0.053,0.077-0.096,0.153-0.13,0.227h-0.013v-0.589h-0.395c0.013,0.135,0.021,0.265,0.021,0.395
			c0.004,0.13,0.006,0.258,0.006,0.382V63.645z"/>
		<path fill-rule="evenodd" clip-rule="evenodd" fill="#003A89" d="M117.544,63.645h0.434l0.485-1.211h2.279l0.485,1.211h0.466
			l-1.794-4.518h-0.504L117.544,63.645z M120.592,62.046h-1.961l0.985-2.492L120.592,62.046z"/>
		<path fill-rule="evenodd" clip-rule="evenodd" fill="#003A89" d="M122.049,65.004h0.408v-1.922h0.011
			c0.1,0.215,0.231,0.377,0.395,0.485c0.165,0.104,0.376,0.155,0.636,0.155c0.224,0,0.421-0.043,0.589-0.129
			c0.173-0.091,0.316-0.213,0.427-0.369c0.116-0.155,0.203-0.337,0.259-0.543c0.056-0.211,0.085-0.44,0.085-0.686
			c0-0.25-0.026-0.481-0.077-0.692c-0.049-0.213-0.128-0.393-0.241-0.544c-0.107-0.155-0.248-0.276-0.421-0.362
			c-0.171-0.086-0.38-0.13-0.621-0.13c-0.177,0-0.325,0.028-0.448,0.084c-0.12,0.052-0.222,0.115-0.303,0.188
			c-0.083,0.073-0.148,0.149-0.195,0.226c-0.047,0.077-0.085,0.138-0.109,0.182h-0.013l0.026-0.603h-0.408V65.004z M124.411,61.994
			c0,0.16-0.015,0.322-0.045,0.485c-0.026,0.164-0.077,0.314-0.154,0.447c-0.073,0.13-0.173,0.237-0.299,0.323
			c-0.124,0.082-0.284,0.123-0.479,0.123c-0.181,0-0.333-0.043-0.459-0.13c-0.126-0.086-0.225-0.196-0.304-0.33
			c-0.073-0.138-0.128-0.288-0.162-0.447c-0.034-0.165-0.051-0.322-0.051-0.473c0-0.15,0.017-0.306,0.051-0.466
			c0.034-0.163,0.088-0.312,0.162-0.446c0.079-0.138,0.179-0.25,0.304-0.337c0.126-0.086,0.278-0.129,0.459-0.129
			c0.195,0,0.355,0.043,0.479,0.129c0.126,0.082,0.226,0.19,0.299,0.324c0.077,0.129,0.128,0.275,0.154,0.44
			C124.396,61.673,124.411,61.835,124.411,61.994z"/>
		<rect x="125.484" y="58.791" fill-rule="evenodd" clip-rule="evenodd" fill="#003A89" width="0.408" height="4.854"/>
		<path fill-rule="evenodd" clip-rule="evenodd" fill="#003A89" d="M126.721,63.645h0.408v-3.301h-0.408V63.645z M127.129,59.049
			h-0.408v0.544h0.408V59.049z"/>
		<path fill-rule="evenodd" clip-rule="evenodd" fill="#003A89" d="M130.137,60.396c-0.06-0.023-0.16-0.048-0.297-0.078
			c-0.133-0.035-0.301-0.052-0.498-0.052c-0.246,0-0.472,0.043-0.673,0.13c-0.199,0.082-0.37,0.2-0.511,0.355
			c-0.143,0.151-0.254,0.333-0.331,0.543c-0.077,0.212-0.116,0.445-0.116,0.699c0,0.229,0.032,0.45,0.098,0.66
			c0.064,0.208,0.162,0.391,0.292,0.551c0.133,0.16,0.297,0.287,0.49,0.381c0.199,0.09,0.433,0.136,0.699,0.136
			c0.156,0,0.301-0.008,0.434-0.025c0.137-0.013,0.276-0.043,0.413-0.091l-0.039-0.381c-0.124,0.048-0.248,0.085-0.368,0.111
			c-0.12,0.025-0.247,0.039-0.374,0.039c-0.186,0-0.355-0.037-0.506-0.11c-0.147-0.073-0.273-0.173-0.376-0.298
			c-0.103-0.125-0.182-0.27-0.239-0.433c-0.053-0.169-0.077-0.348-0.077-0.538c0-0.198,0.024-0.382,0.077-0.55
			c0.056-0.173,0.135-0.32,0.239-0.44c0.109-0.121,0.241-0.216,0.395-0.285c0.156-0.07,0.333-0.103,0.532-0.103
			c0.111,0,0.228,0.017,0.348,0.051c0.126,0.031,0.244,0.07,0.357,0.116L130.137,60.396z"/>
		<path fill-rule="evenodd" clip-rule="evenodd" fill="#003A89" d="M132.525,63.645h0.403c-0.019-0.113-0.028-0.222-0.034-0.33
			c0-0.108,0-0.229,0-0.363v-1.456c0-0.431-0.09-0.745-0.271-0.938c-0.182-0.195-0.477-0.291-0.887-0.291
			c-0.073,0-0.152,0.006-0.239,0.019c-0.086,0.013-0.175,0.03-0.265,0.053c-0.087,0.017-0.171,0.04-0.254,0.07
			c-0.077,0.026-0.148,0.054-0.212,0.084v0.396c0.15-0.1,0.306-0.168,0.466-0.208c0.163-0.043,0.331-0.064,0.504-0.064
			c0.277,0,0.47,0.071,0.583,0.213c0.113,0.138,0.167,0.349,0.167,0.635v0.167h-0.077c-0.216,0-0.442,0.009-0.679,0.026
			c-0.239,0.017-0.459,0.065-0.662,0.143c-0.197,0.073-0.363,0.187-0.498,0.342c-0.128,0.156-0.194,0.371-0.194,0.648
			c0,0.073,0.014,0.165,0.04,0.272c0.026,0.108,0.077,0.212,0.154,0.311c0.079,0.095,0.188,0.177,0.331,0.245
			c0.143,0.07,0.331,0.104,0.562,0.104c0.105,0,0.209-0.013,0.312-0.039c0.103-0.025,0.203-0.065,0.297-0.117
			c0.096-0.052,0.178-0.114,0.252-0.187c0.079-0.078,0.141-0.166,0.188-0.266h0.013V63.645z M132.485,62.182
			c0,0.09-0.006,0.203-0.019,0.337c-0.013,0.133-0.049,0.265-0.109,0.395c-0.062,0.125-0.158,0.233-0.291,0.323
			c-0.135,0.09-0.32,0.136-0.557,0.136c-0.19,0-0.351-0.046-0.487-0.136c-0.133-0.09-0.199-0.244-0.199-0.46
			c0-0.181,0.047-0.323,0.141-0.427c0.096-0.108,0.216-0.188,0.363-0.24c0.152-0.057,0.318-0.09,0.498-0.104
			c0.186-0.017,0.367-0.026,0.544-0.026h0.117V62.182z"/>
		<path fill-rule="evenodd" clip-rule="evenodd" fill="#003A89" d="M136.279,58.791h-0.408v2.11h-0.013
			c-0.014-0.039-0.045-0.092-0.098-0.162c-0.047-0.073-0.115-0.145-0.201-0.213c-0.081-0.069-0.184-0.129-0.31-0.182
			c-0.12-0.052-0.262-0.077-0.421-0.077c-0.241,0-0.447,0.043-0.621,0.13c-0.173,0.086-0.316,0.207-0.427,0.362
			c-0.109,0.151-0.188,0.332-0.241,0.544c-0.047,0.21-0.072,0.442-0.072,0.692c0,0.246,0.028,0.475,0.085,0.686
			c0.056,0.207,0.141,0.388,0.252,0.543c0.116,0.156,0.259,0.278,0.428,0.369c0.168,0.086,0.367,0.129,0.594,0.129
			c0.239,0,0.44-0.047,0.609-0.142c0.169-0.095,0.308-0.248,0.421-0.46h0.013v0.524h0.408V58.791z M133.916,61.994
			c0-0.16,0.013-0.321,0.039-0.485c0.03-0.164,0.081-0.311,0.154-0.44c0.079-0.134,0.181-0.243,0.305-0.324
			c0.126-0.086,0.286-0.129,0.479-0.129c0.181,0,0.335,0.043,0.459,0.129c0.126,0.086,0.225,0.198,0.299,0.337
			c0.077,0.134,0.133,0.283,0.167,0.446c0.034,0.16,0.053,0.316,0.053,0.466c0,0.151-0.019,0.308-0.053,0.473
			c-0.034,0.159-0.09,0.308-0.167,0.447c-0.073,0.133-0.173,0.243-0.299,0.33c-0.124,0.087-0.278,0.13-0.459,0.13
			c-0.194,0-0.353-0.041-0.479-0.123c-0.124-0.087-0.226-0.194-0.305-0.323c-0.073-0.134-0.124-0.283-0.154-0.447
			C133.929,62.316,133.916,62.154,133.916,61.994z"/>
		<path fill-rule="evenodd" clip-rule="evenodd" fill="#003A89" d="M138.958,63.645h0.401c-0.017-0.113-0.028-0.222-0.032-0.33
			c0-0.108,0-0.229,0-0.363v-1.456c0-0.431-0.09-0.745-0.272-0.938c-0.181-0.195-0.476-0.291-0.886-0.291
			c-0.073,0-0.154,0.006-0.241,0.019s-0.175,0.03-0.265,0.053c-0.086,0.017-0.171,0.04-0.252,0.07
			c-0.079,0.026-0.149,0.054-0.215,0.084v0.396c0.15-0.1,0.307-0.168,0.466-0.208c0.163-0.043,0.333-0.064,0.506-0.064
			c0.275,0,0.47,0.071,0.581,0.213c0.113,0.138,0.169,0.349,0.169,0.635v0.167h-0.077c-0.216,0-0.443,0.009-0.681,0.026
			c-0.237,0.017-0.457,0.065-0.66,0.143c-0.2,0.073-0.365,0.187-0.498,0.342c-0.13,0.156-0.194,0.371-0.194,0.648
			c0,0.073,0.011,0.165,0.038,0.272c0.026,0.108,0.079,0.212,0.156,0.311c0.077,0.095,0.188,0.177,0.329,0.245
			c0.143,0.07,0.331,0.104,0.564,0.104c0.103,0,0.207-0.013,0.31-0.039c0.103-0.025,0.203-0.065,0.299-0.117
			c0.094-0.052,0.178-0.114,0.252-0.187c0.077-0.078,0.139-0.166,0.188-0.266h0.013V63.645z M138.919,62.182
			c0,0.09-0.007,0.203-0.019,0.337c-0.013,0.133-0.051,0.265-0.111,0.395c-0.06,0.125-0.158,0.233-0.291,0.323
			c-0.133,0.09-0.32,0.136-0.557,0.136c-0.19,0-0.351-0.046-0.485-0.136c-0.134-0.09-0.201-0.244-0.201-0.46
			c0-0.181,0.047-0.323,0.143-0.427c0.094-0.108,0.216-0.188,0.363-0.24c0.15-0.057,0.316-0.09,0.498-0.104
			c0.184-0.017,0.366-0.026,0.543-0.026h0.116V62.182z"/>
	</g>
</g>
</svg>
