<?xml version="1.0" encoding="UTF-8" standalone="no"?>
<svg
   xmlns:dc="http://purl.org/dc/elements/1.1/"
   xmlns:cc="http://creativecommons.org/ns#"
   xmlns:rdf="http://www.w3.org/1999/02/22-rdf-syntax-ns#"
   xmlns:svg="http://www.w3.org/2000/svg"
   xmlns="http://www.w3.org/2000/svg"
   xmlns:sodipodi="http://sodipodi.sourceforge.net/DTD/sodipodi-0.dtd"
   xmlns:inkscape="http://www.inkscape.org/namespaces/inkscape"
   id="svg"
   version="1.1"
   width="303.7648"
   height="115.24828"
   style="display:block"
   sodipodi:docname="cgna-mono.svg"
   inkscape:version="0.92.1 r15371">
  <metadata
     id="metadata9">
    <rdf:RDF>
      <cc:Work
         rdf:about="">
        <dc:format>image/svg+xml</dc:format>
        <dc:type
           rdf:resource="http://purl.org/dc/dcmitype/StillImage" />
        <dc:title></dc:title>
      </cc:Work>
    </rdf:RDF>
  </metadata>
  <defs
     id="defs7" />
  <sodipodi:namedview
     pagecolor="#ffffff"
     bordercolor="#666666"
     borderopacity="1"
     objecttolerance="10"
     gridtolerance="10"
     guidetolerance="10"
     inkscape:pageopacity="0"
     inkscape:pageshadow="2"
     inkscape:window-width="690"
     inkscape:window-height="480"
     id="namedview5"
     showgrid="false"
     fit-margin-top="0"
     fit-margin-left="0"
     fit-margin-right="0"
     fit-margin-bottom="0"
     inkscape:zoom="0.11833333"
     inkscape:cx="1151.9318"
     inkscape:cy="-394.36959"
     inkscape:window-x="0"
     inkscape:window-y="0"
     inkscape:window-maximized="0"
     inkscape:current-layer="svg" />
  <g
     id="svgg"
     transform="translate(-48.068187,-32.882129)">
    <path
       id="path0"
       d="m 86.917,33.007 c -2.429,0.199 -3.777,0.415 -4.449,0.712 -0.303,0.135 -1.039,0.373 -1.635,0.531 -0.596,0.157 -1.346,0.402 -1.666,0.544 -0.321,0.143 -0.621,0.272 -0.667,0.289 -1.113,0.393 -2.833,1.164 -2.833,1.269 0,0.062 -0.169,0.155 -0.375,0.207 -0.207,0.052 -0.75,0.337 -1.209,0.634 C 73.625,37.49 73.194,37.718 73.125,37.7 73.056,37.682 73,37.733 73,37.814 c 0,0.081 -0.131,0.183 -0.292,0.228 -0.16,0.044 -1.059,0.652 -1.997,1.352 -0.939,0.7 -1.775,1.273 -1.858,1.273 -0.084,0 -0.381,0.261 -0.661,0.58 -0.281,0.319 -1.039,1.035 -1.684,1.591 -0.646,0.556 -1.175,1.111 -1.175,1.233 0,0.123 -0.262,0.423 -0.583,0.668 -0.321,0.244 -0.587,0.535 -0.59,0.644 -0.004,0.11 -0.489,0.838 -1.078,1.617 -0.589,0.779 -1.204,1.677 -1.368,1.995 -0.163,0.318 -0.579,1.023 -0.922,1.567 -0.344,0.544 -0.625,1.065 -0.625,1.158 0,0.092 -0.249,0.7 -0.552,1.349 -0.304,0.65 -0.694,1.668 -0.867,2.264 -0.174,0.596 -0.36,1.121 -0.415,1.167 -0.054,0.046 -0.236,0.571 -0.403,1.167 -0.167,0.595 -0.421,1.458 -0.566,1.916 -0.144,0.459 -0.242,1.006 -0.217,1.217 0.025,0.212 -0.029,0.474 -0.12,0.584 -0.548,0.661 -0.562,11.63 -0.015,12.191 0.085,0.087 0.155,0.318 0.155,0.512 0,0.328 0.624,2.647 1.493,5.548 0.201,0.67 0.854,2.17 1.452,3.333 0.598,1.163 1.273,2.483 1.5,2.932 0.227,0.449 0.857,1.408 1.401,2.13 0.543,0.722 0.987,1.361 0.987,1.42 0,0.058 0.368,0.487 0.817,0.953 0.45,0.466 1.476,1.541 2.281,2.389 0.804,0.848 1.564,1.541 1.687,1.541 0.124,0 0.268,0.111 0.32,0.247 0.052,0.136 0.369,0.412 0.703,0.615 0.335,0.203 0.909,0.606 1.275,0.895 0.367,0.29 0.929,0.669 1.25,0.843 0.321,0.174 0.621,0.366 0.667,0.425 0.35,0.454 5.553,2.985 6.811,3.313 0.7,0.183 1.497,0.436 1.772,0.562 0.546,0.251 3.326,0.648 6.559,0.937 2.925,0.261 9.81,-0.35 11.275,-1.001 0.366,-0.163 1.116,-0.419 1.666,-0.569 0.986,-0.268 4.114,-1.732 4.223,-1.975 0.03,-0.069 0.127,-0.125 0.216,-0.125 0.088,0 0.724,-0.319 1.413,-0.708 0.689,-0.39 1.454,-0.814 1.7,-0.944 1.291,-0.676 7.115,-5.982 7.115,-6.481 0,-0.067 0.449,-0.668 0.997,-1.335 0.548,-0.667 1.193,-1.565 1.432,-1.997 0.24,-0.432 0.71,-1.213 1.045,-1.735 0.335,-0.523 0.609,-1.018 0.609,-1.1 0,-0.082 0.15,-0.322 0.334,-0.533 0.183,-0.212 0.333,-0.476 0.333,-0.588 0,-0.237 0.7,-1.896 1.158,-2.746 0.173,-0.321 0.473,-1.221 0.667,-2 0.193,-0.779 0.418,-1.566 0.5,-1.75 0.196,-0.442 0.508,-1.43 0.508,-1.608 0,-0.078 -4.535,-0.142 -10.079,-0.142 h -10.079 l -0.796,1.125 c -2.298,3.249 -4.981,5.165 -8.212,5.863 -1.118,0.242 -2.379,0.42 -2.709,0.383 -0.16,-0.019 -0.291,0.041 -0.291,0.131 0,0.185 -1.547,0.229 -1.726,0.05 -0.064,-0.063 -0.357,-0.133 -0.653,-0.154 -1.461,-0.107 -4.211,-0.855 -4.919,-1.339 -0.341,-0.233 -0.966,-0.6 -1.39,-0.817 -0.424,-0.216 -0.815,-0.509 -0.87,-0.651 -0.054,-0.141 -0.207,-0.257 -0.338,-0.257 -0.332,0 -1.644,-1.305 -2.199,-2.187 C 78.82,76.578 78.476,76.152 78.307,76.032 78.138,75.912 78,75.74 78,75.648 c 0,-0.091 -0.324,-0.668 -0.72,-1.282 -0.446,-0.691 -0.832,-1.56 -1.014,-2.283 -0.161,-0.641 -0.36,-1.316 -0.441,-1.5 -0.494,-1.117 -0.492,-5.832 0.004,-6.5 0.068,-0.091 0.26,-0.691 0.427,-1.333 0.182,-0.701 0.591,-1.612 1.024,-2.283 0.396,-0.614 0.72,-1.193 0.72,-1.286 0,-0.094 0.225,-0.337 0.5,-0.541 0.275,-0.203 0.5,-0.455 0.5,-0.559 0,-0.238 0.708,-0.914 0.958,-0.914 0.102,0 0.346,-0.225 0.542,-0.5 0.196,-0.275 0.457,-0.5 0.58,-0.5 0.123,0 0.404,-0.207 0.624,-0.459 0.22,-0.252 0.921,-0.721 1.557,-1.041 0.635,-0.321 1.193,-0.625 1.239,-0.676 1.253,-1.381 11.007,-1.303 12.097,0.098 0.099,0.127 0.38,0.307 0.624,0.4 1.17,0.445 3.924,2.811 5.112,4.391 l 0.584,0.776 10.083,-0.036 10.083,-0.037 -0.046,-0.572 c -0.026,-0.314 -0.126,-0.667 -0.223,-0.784 -0.097,-0.117 -0.128,-0.291 -0.069,-0.386 0.06,-0.096 0.029,-0.174 -0.068,-0.174 -0.098,0 -0.177,-0.123 -0.177,-0.274 0,-0.533 -0.71,-2.661 -1.326,-3.976 -0.344,-0.734 -0.679,-1.502 -0.744,-1.709 -0.066,-0.206 -0.187,-0.375 -0.27,-0.375 -0.082,0 -0.412,-0.543 -0.733,-1.208 -1.318,-2.728 -3.298,-5.335 -5.873,-7.732 -1.955,-1.82 -3.693,-3.226 -3.987,-3.226 -0.085,0 -0.247,-0.15 -0.362,-0.334 -0.114,-0.183 -0.294,-0.333 -0.399,-0.333 -0.106,0 -0.574,-0.291 -1.041,-0.647 -0.734,-0.559 -2.368,-1.406 -5.682,-2.945 -0.458,-0.213 -1.358,-0.51 -2,-0.659 -0.641,-0.15 -1.279,-0.316 -1.416,-0.37 -0.138,-0.053 -0.325,-0.108 -0.417,-0.122 -0.092,-0.014 -0.382,-0.116 -0.644,-0.228 -1.094,-0.463 -7.549,-0.778 -10.689,-0.522 m 76.333,-0.063 c -3.723,0.176 -6.702,0.524 -7.5,0.875 -0.183,0.081 -0.783,0.236 -1.333,0.345 -1.183,0.235 -3.263,0.831 -3.5,1.003 -0.092,0.067 -0.692,0.286 -1.334,0.488 -1.984,0.623 -4.849,2.014 -6.282,3.049 -0.487,0.351 -1.104,0.768 -1.373,0.926 -0.269,0.158 -0.652,0.455 -0.852,0.662 -0.2,0.206 -0.417,0.375 -0.481,0.375 -0.479,0 -5.757,5.134 -6.262,6.09 -0.137,0.26 -0.418,0.642 -0.625,0.85 -0.206,0.208 -0.375,0.46 -0.375,0.561 0,0.101 -0.324,0.685 -0.719,1.299 -0.396,0.614 -0.821,1.379 -0.945,1.7 -0.124,0.32 -0.284,0.662 -0.357,0.759 -0.259,0.344 -1.591,3.845 -1.963,5.157 -0.207,0.734 -0.489,1.582 -0.626,1.886 -0.678,1.505 -1.03,9.962 -0.577,13.864 0.28,2.41 1.959,7.691 3.285,10.331 0.221,0.441 0.402,0.849 0.402,0.908 0,0.095 0.835,1.332 2.667,3.951 0.321,0.459 0.715,0.907 0.875,0.997 0.16,0.09 0.292,0.26 0.292,0.378 0,0.118 0.525,0.721 1.166,1.34 0.642,0.62 1.167,1.188 1.167,1.263 0,0.075 0.244,0.329 0.542,0.565 0.298,0.236 0.823,0.667 1.168,0.959 0.345,0.291 0.767,0.611 0.938,0.711 0.171,0.099 0.939,0.602 1.707,1.118 0.767,0.515 1.709,1.096 2.092,1.289 0.383,0.194 0.741,0.423 0.795,0.51 0.054,0.087 0.706,0.393 1.45,0.68 0.743,0.287 1.511,0.622 1.705,0.746 0.194,0.123 0.99,0.421 1.77,0.662 0.779,0.24 1.661,0.551 1.96,0.69 0.298,0.139 1.461,0.439 2.583,0.666 1.122,0.227 2.19,0.483 2.373,0.568 1.57,0.729 14.636,0.719 15.516,-0.012 0.127,-0.104 0.344,-0.147 0.482,-0.094 0.139,0.054 0.252,0.04 0.252,-0.031 0,-0.07 0.469,-0.221 1.042,-0.335 1.044,-0.207 2.635,-0.698 2.792,-0.86 0.078,-0.082 1.182,-0.57 2.219,-0.982 0.257,-0.103 1.011,-0.588 1.673,-1.078 0.663,-0.49 1.39,-0.987 1.615,-1.104 0.518,-0.27 3.107,-2.94 3.415,-3.524 0.128,-0.241 0.344,-0.481 0.481,-0.534 0.138,-0.052 0.459,-0.484 0.715,-0.959 0.256,-0.475 0.577,-1.06 0.714,-1.299 0.136,-0.24 0.324,-0.693 0.418,-1.006 0.379,-1.273 0.516,-0.656 0.987,4.442 0.26,2.82 0.538,5.254 0.618,5.408 0.08,0.155 0.145,0.475 0.145,0.711 v 0.43 l 5.375,-0.044 5.375,-0.044 V 85.917 71.583 L 187.708,71.541 C 174.995,71.5 174.5,71.509 174.5,71.804 c 0,0.337 0.619,1.969 1.256,3.311 0.226,0.475 0.411,0.934 0.411,1.02 0,0.135 0.303,0.904 0.834,2.115 0.305,0.696 0.936,3.592 1.507,6.917 0.433,2.519 -0.993,4.905 -3.257,5.451 -3.634,0.877 -5.807,-0.811 -8.924,-6.93 -0.251,-0.492 -0.521,-0.942 -0.6,-1 -0.079,-0.058 -0.337,-0.48 -0.572,-0.938 -0.857,-1.665 -1.883,-3.513 -2.264,-4.08 -0.215,-0.32 -0.392,-0.657 -0.393,-0.75 -0.002,-0.259 -0.973,-1.404 -2.031,-2.396 l -0.95,-0.89 -0.996,0.766 c -0.548,0.422 -1.07,0.767 -1.161,0.767 -0.091,0 -0.377,0.225 -0.637,0.5 -0.26,0.275 -0.561,0.5 -0.669,0.5 -0.109,0 -0.596,0.461 -1.084,1.026 -0.488,0.564 -1.12,1.257 -1.406,1.541 -0.285,0.284 -0.616,0.704 -0.735,0.933 -0.209,0.402 -0.46,0.752 -1.656,2.316 -0.309,0.403 -1.305,2.203 -2.214,4 -1.757,3.476 -1.881,3.639 -3.271,4.301 -1.548,0.737 -2.78,0.224 -4.393,-1.827 -0.875,-1.113 -1.042,-3.738 -0.336,-5.29 0.188,-0.413 0.47,-1.275 0.629,-1.917 0.356,-1.447 1.369,-3.92 2.154,-5.258 0.325,-0.556 0.591,-1.065 0.591,-1.132 0,-0.241 1.102,-1.824 1.959,-2.812 0.481,-0.555 0.875,-1.079 0.875,-1.164 0,-0.085 0.225,-0.321 0.5,-0.524 0.275,-0.204 0.5,-0.448 0.5,-0.544 0,-0.229 3.241,-3.483 3.469,-3.483 0.096,0 0.335,-0.225 0.531,-0.5 0.195,-0.275 0.456,-0.5 0.58,-0.5 0.375,0 1.123,-1.019 1.03,-1.404 -0.14,-0.58 -0.577,-1.691 -1.107,-2.812 -0.277,-0.586 -0.503,-1.142 -0.503,-1.236 0,-0.172 -0.472,-1.418 -0.997,-2.631 -0.159,-0.367 -0.457,-1.229 -0.662,-1.917 -0.206,-0.687 -0.438,-1.328 -0.516,-1.423 -0.199,-0.243 -0.798,-3.662 -0.928,-5.299 -0.06,-0.749 -0.164,-1.436 -0.231,-1.528 -0.202,-0.276 -0.212,-4.535 -0.011,-4.659 0.098,-0.061 0.178,-0.241 0.178,-0.401 0,-2.012 4.86,-3.725 7.167,-2.526 1.956,1.017 2.061,1.266 2.257,5.336 0.059,1.238 0.209,2.625 0.333,3.084 0.123,0.458 0.309,1.433 0.412,2.166 0.182,1.296 0.64,3.082 0.834,3.25 0.053,0.046 0.235,0.571 0.404,1.167 0.17,0.596 0.555,1.608 0.856,2.25 0.301,0.642 0.746,1.617 0.989,2.167 l 0.443,1 1.801,-1.912 c 0.991,-1.052 1.941,-2.177 2.111,-2.5 0.17,-0.324 0.441,-0.734 0.601,-0.911 0.161,-0.178 0.292,-0.41 0.292,-0.516 0,-0.106 0.309,-0.672 0.687,-1.256 0.378,-0.585 0.789,-1.351 0.913,-1.701 0.123,-0.351 0.337,-0.84 0.475,-1.088 0.488,-0.875 1.9,-4.632 2.174,-5.783 0.153,-0.642 0.377,-1.392 0.498,-1.667 0.122,-0.275 0.381,-1.042 0.577,-1.705 0.853,-2.896 3.999,-3.955 6.502,-2.189 0.553,0.389 1.048,0.844 1.101,1.01 0.052,0.165 0.15,0.301 0.217,0.301 0.298,0 0.576,2.039 0.382,2.814 -0.106,0.423 -0.31,1.632 -0.453,2.686 -0.265,1.949 -0.694,3.979 -1.127,5.333 -0.131,0.413 -0.407,1.313 -0.612,2 -0.205,0.688 -0.438,1.331 -0.517,1.43 -0.079,0.099 -0.333,0.699 -0.565,1.333 -0.232,0.635 -0.598,1.529 -0.814,1.987 -0.488,1.035 -1.293,2.795 -1.66,3.631 -0.377,0.855 -1.422,0.794 12.889,0.746 l 12.75,-0.043 -0.036,-0.417 c -0.24,-2.804 -0.853,-6.077 -1.314,-7.012 -0.116,-0.235 -0.371,-1.06 -0.566,-1.833 -0.337,-1.334 -1.32,-3.514 -2.245,-4.978 -0.232,-0.369 -0.423,-0.736 -0.423,-0.816 0,-0.08 -0.168,-0.332 -0.375,-0.56 -0.206,-0.228 -0.513,-0.68 -0.682,-1.005 -0.303,-0.582 -1.032,-1.534 -2.24,-2.926 -0.341,-0.392 -0.644,-0.786 -0.675,-0.875 -0.03,-0.089 -0.13,-0.162 -0.22,-0.162 -0.091,0 -0.947,-0.662 -1.903,-1.472 -0.956,-0.809 -1.945,-1.578 -2.197,-1.708 -0.252,-0.13 -0.533,-0.327 -0.624,-0.438 -0.238,-0.288 -2.635,-1.514 -3.557,-1.82 -0.427,-0.141 -1.158,-0.435 -1.625,-0.652 -0.467,-0.217 -1.768,-0.585 -2.891,-0.817 -1.123,-0.233 -2.36,-0.531 -2.747,-0.663 -1.853,-0.629 -8.612,-1.044 -13.347,-0.819 M 206.333,67.5 v 32.833 h 10.094 10.093 l -0.052,-17.903 -0.051,-17.904 0.435,0.699 c 0.239,0.385 0.488,0.866 0.553,1.071 0.064,0.204 0.189,0.371 0.277,0.371 0.088,0 0.232,0.19 0.32,0.422 0.089,0.233 0.499,0.941 0.913,1.575 0.413,0.633 0.752,1.198 0.752,1.254 0,0.056 0.48,0.838 1.068,1.738 0.588,0.9 1.199,1.889 1.357,2.198 0.159,0.31 0.563,0.975 0.897,1.479 0.334,0.504 0.697,1.123 0.806,1.375 0.109,0.252 0.274,0.459 0.368,0.459 0.094,0 0.152,0.06 0.129,0.133 -0.023,0.073 0.352,0.74 0.833,1.482 0.481,0.742 0.875,1.392 0.875,1.445 0,0.052 0.412,0.728 0.917,1.501 0.504,0.774 0.916,1.489 0.916,1.589 0,0.101 0.071,0.183 0.158,0.183 0.087,0 0.348,0.378 0.58,0.839 0.232,0.462 0.648,1.169 0.925,1.572 0.277,0.403 0.504,0.78 0.504,0.838 0,0.057 0.49,0.855 1.088,1.771 0.599,0.917 1.07,1.756 1.046,1.865 -0.023,0.109 0.279,0.679 0.671,1.266 0.393,0.587 0.946,1.485 1.23,1.995 0.283,0.509 0.729,1.221 0.99,1.582 0.261,0.36 0.475,0.757 0.475,0.88 0,0.124 0.062,0.225 0.139,0.225 0.076,0 0.243,0.207 0.372,0.459 0.128,0.252 0.629,1.073 1.111,1.824 0.483,0.752 0.878,1.445 0.878,1.542 0,0.121 3.136,0.175 10.083,0.175 h 10.084 V 67.5 34.667 h -10.083 -10.082 l -0.043,17.708 c -0.038,15.741 -0.07,17.653 -0.288,17.208 -0.135,-0.275 -0.623,-1.074 -1.084,-1.775 -0.46,-0.702 -0.966,-1.489 -1.124,-1.75 -0.158,-0.261 -0.383,-0.623 -0.5,-0.804 -0.976,-1.51 -1.631,-2.591 -1.636,-2.703 -0.003,-0.074 -0.492,-0.884 -1.086,-1.801 -0.593,-0.917 -1.152,-1.838 -1.242,-2.048 -0.089,-0.209 -0.488,-0.884 -0.886,-1.5 -0.398,-0.615 -0.766,-1.236 -0.818,-1.38 -0.052,-0.144 -0.59,-1.028 -1.195,-1.963 -0.605,-0.935 -1.101,-1.755 -1.101,-1.821 -0.001,-0.067 -0.343,-0.646 -0.76,-1.288 -0.417,-0.642 -0.863,-1.41 -0.99,-1.708 -0.128,-0.298 -0.311,-0.542 -0.407,-0.542 -0.097,0 -0.175,-0.094 -0.175,-0.208 0,-0.115 -0.36,-0.771 -0.801,-1.459 -0.44,-0.687 -0.85,-1.382 -0.912,-1.543 -0.061,-0.162 -0.441,-0.799 -0.843,-1.417 -0.402,-0.618 -0.782,-1.285 -0.844,-1.483 -0.062,-0.197 -0.223,-0.401 -0.357,-0.453 -0.134,-0.051 -0.243,-0.18 -0.243,-0.286 0,-0.185 -1.126,-2.136 -2.26,-3.914 -0.296,-0.465 -0.736,-1.234 -0.976,-1.708 -0.24,-0.474 -0.51,-0.862 -0.6,-0.862 -0.091,0 -0.164,-0.113 -0.164,-0.25 0,-0.22 -1.241,-0.25 -10.167,-0.25 H 206.333 V 67.5 m 88.262,-31.668 c -0.166,0.642 -0.354,1.168 -0.416,1.168 -0.062,0 -0.365,0.806 -0.673,1.792 -0.308,0.985 -0.61,1.829 -0.671,1.875 -0.061,0.045 -0.321,0.758 -0.579,1.583 -0.257,0.825 -0.526,1.575 -0.598,1.667 -0.071,0.091 -0.131,0.204 -0.132,0.25 -0.001,0.045 -0.079,0.285 -0.173,0.533 -0.094,0.247 -0.335,0.997 -0.535,1.666 -0.2,0.67 -0.431,1.303 -0.513,1.408 -0.082,0.104 -0.375,0.892 -0.65,1.75 -0.275,0.857 -0.602,1.784 -0.726,2.059 -0.124,0.275 -0.44,1.175 -0.701,2 -0.262,0.825 -0.519,1.538 -0.573,1.584 -0.053,0.045 -0.308,0.758 -0.565,1.583 -0.257,0.825 -0.57,1.688 -0.694,1.917 -0.124,0.229 -0.46,1.166 -0.746,2.083 -0.286,0.917 -0.577,1.742 -0.646,1.833 -0.069,0.092 -0.335,0.842 -0.59,1.667 -0.256,0.825 -0.538,1.594 -0.627,1.708 -0.088,0.115 -0.113,0.209 -0.054,0.209 0.06,0 0.002,0.168 -0.128,0.375 -0.129,0.206 -0.404,0.956 -0.611,1.666 -0.207,0.711 -0.44,1.292 -0.518,1.292 -0.079,0 -0.143,0.093 -0.143,0.207 0,0.292 -1.051,3.525 -1.178,3.626 -0.058,0.046 -0.352,0.871 -0.652,1.834 -0.301,0.962 -0.613,1.834 -0.694,1.936 -0.081,0.103 -0.329,0.794 -0.551,1.536 -0.222,0.743 -0.52,1.596 -0.663,1.897 -0.142,0.301 -0.487,1.26 -0.767,2.131 -0.279,0.87 -0.641,1.883 -0.805,2.25 -0.164,0.366 -0.438,1.154 -0.611,1.75 -0.172,0.596 -0.391,1.138 -0.487,1.205 -0.11,0.077 -0.113,0.125 -0.008,0.128 0.107,0.003 0.105,0.049 -0.005,0.128 -0.234,0.167 -0.787,2.003 -0.663,2.203 0.109,0.177 -0.321,1.766 -0.559,2.065 -0.082,0.103 -0.396,0.975 -0.698,1.937 -0.303,0.963 -0.641,1.9 -0.752,2.084 -0.111,0.183 -0.402,0.971 -0.647,1.75 -0.244,0.779 -0.511,1.539 -0.592,1.69 -0.255,0.472 -0.163,0.476 9.986,0.476 h 9.932 l 0.205,-0.463 c 0.113,-0.255 0.439,-1.249 0.725,-2.208 0.286,-0.96 0.578,-1.82 0.649,-1.912 0.071,-0.092 0.381,-1.048 0.689,-2.125 l 0.559,-1.958 h 10.69 c 8.35,0 10.727,0.045 10.86,0.208 0.094,0.115 0.413,1.033 0.709,2.042 0.296,1.008 0.595,1.908 0.664,2 0.069,0.091 0.326,0.841 0.57,1.666 0.244,0.825 0.49,1.613 0.547,1.75 0.056,0.138 0.115,0.288 0.131,0.334 0.244,0.706 -0.362,0.666 10.258,0.666 10.914,0 10.348,0.064 9.814,-1.108 -0.197,-0.432 -0.469,-1.166 -0.605,-1.63 -0.135,-0.465 -0.339,-0.995 -0.453,-1.178 -0.114,-0.184 -0.417,-1.009 -0.675,-1.834 -0.257,-0.825 -0.571,-1.687 -0.697,-1.916 -0.388,-0.703 -0.854,-2.319 -0.686,-2.375 0.194,-0.064 -0.51,-2.459 -0.723,-2.459 -0.082,0 -0.15,-0.103 -0.15,-0.228 0,-0.28 -0.77,-2.664 -1.084,-3.355 -0.125,-0.275 -0.469,-1.25 -0.765,-2.167 -0.296,-0.916 -0.628,-1.816 -0.738,-2 -0.111,-0.183 -0.33,-0.821 -0.489,-1.416 -0.158,-0.596 -0.395,-1.252 -0.526,-1.459 -0.132,-0.206 -0.191,-0.375 -0.131,-0.375 0.059,0 0.034,-0.093 -0.054,-0.208 -0.089,-0.115 -0.371,-0.883 -0.627,-1.708 -0.255,-0.825 -0.52,-1.575 -0.589,-1.667 -0.154,-0.207 -0.913,-2.476 -1.072,-3.208 -0.065,-0.298 -0.2,-0.542 -0.299,-0.542 -0.1,0 -0.132,-0.049 -0.072,-0.11 0.06,-0.06 0.046,-0.191 -0.033,-0.291 -0.078,-0.1 -0.353,-0.857 -0.611,-1.682 -0.257,-0.825 -0.512,-1.538 -0.566,-1.584 -0.054,-0.046 -0.352,-0.871 -0.662,-1.833 -0.31,-0.962 -0.62,-1.825 -0.689,-1.917 -0.069,-0.091 -0.356,-0.906 -0.637,-1.81 -0.282,-0.903 -0.577,-1.728 -0.655,-1.833 -0.079,-0.104 -0.357,-0.865 -0.618,-1.69 -0.261,-0.825 -0.543,-1.546 -0.626,-1.602 -0.084,-0.056 -0.14,-0.152 -0.126,-0.212 0.042,-0.175 -1.024,-3.33 -1.201,-3.554 -0.087,-0.11 -0.114,-0.274 -0.058,-0.363 0.055,-0.09 0.026,-0.208 -0.064,-0.264 -0.091,-0.056 -0.325,-0.642 -0.52,-1.303 -0.196,-0.661 -0.46,-1.389 -0.587,-1.619 -0.127,-0.229 -0.465,-1.166 -0.751,-2.083 -0.286,-0.917 -0.577,-1.742 -0.646,-1.833 -0.07,-0.092 -0.373,-0.955 -0.674,-1.917 -0.301,-0.963 -0.639,-1.9 -0.749,-2.083 -0.111,-0.184 -0.376,-0.896 -0.588,-1.584 -0.213,-0.687 -0.467,-1.305 -0.565,-1.372 -0.098,-0.067 -0.131,-0.124 -0.074,-0.125 0.057,-0.002 -0.066,-0.471 -0.273,-1.044 l -0.377,-1.042 -10.653,-0.043 -10.653,-0.043 -0.303,1.168 m 11.823,25.693 c 0.285,0.965 0.645,2.021 0.8,2.348 0.155,0.327 0.282,0.658 0.281,0.736 -0.002,0.27 0.889,3.308 0.995,3.391 0.128,0.1 1.006,3.017 1.007,3.349 0.001,0.129 0.108,0.44 0.24,0.692 0.131,0.251 0.436,1.114 0.677,1.916 0.242,0.803 0.621,1.922 0.844,2.488 0.222,0.566 0.405,1.109 0.405,1.208 0,0.126 -1.87,0.18 -6.185,0.18 -5.224,0 -6.17,-0.036 -6.095,-0.232 0.049,-0.128 0.185,-0.56 0.301,-0.959 0.117,-0.399 0.262,-0.763 0.322,-0.809 0.06,-0.046 0.358,-0.946 0.662,-2 0.305,-1.054 0.608,-1.954 0.673,-2 0.066,-0.046 0.324,-0.758 0.574,-1.583 0.249,-0.825 0.513,-1.575 0.586,-1.667 0.073,-0.091 0.336,-0.879 0.585,-1.75 0.249,-0.871 0.583,-1.846 0.743,-2.166 0.16,-0.321 0.486,-1.264 0.724,-2.095 0.237,-0.832 0.546,-1.732 0.686,-2 0.14,-0.269 0.255,-0.589 0.256,-0.711 0.003,-0.7 0.471,0.146 0.919,1.664 m -203.96,50.931 -0.625,0.064 v 2.659 2.66 l -0.486,-0.545 c -0.87,-0.974 -3.789,-0.595 -3.838,0.498 -0.005,0.114 -0.074,0.208 -0.153,0.208 -0.079,0 -0.28,0.355 -0.445,0.789 -0.579,1.515 -0.278,5.544 0.414,5.544 0.096,0 0.175,0.09 0.175,0.2 0,1.184 2.894,1.625 3.95,0.601 l 0.55,-0.533 v 0.533 c 0,0.52 0.017,0.533 0.752,0.533 h 0.752 l -0.044,-6.611 c -0.028,-4.246 -0.103,-6.621 -0.21,-6.638 -0.092,-0.014 -0.448,0.003 -0.792,0.038 M 258,119.092 v 6.593 l 0.751,-0.051 0.752,-0.051 0.04,-6.541 0.04,-6.542 H 258.792 258 v 6.592 m 82.833,-0.009 v 6.584 h 0.834 0.833 v -6.584 -6.583 h -0.833 -0.834 v 6.583 m -193.135,-5.625 c -0.104,0.344 -0.341,0.922 -0.526,1.284 -0.744,1.453 0.663,1.13 1.739,-0.4 0.983,-1.397 0.973,-1.509 -0.135,-1.509 -0.884,0 -0.891,0.005 -1.078,0.625 m 174.872,0 c -0.262,0.61 -0.737,1.875 -0.737,1.96 0,0.024 0.195,0.08 0.432,0.126 0.392,0.075 1.402,-0.62 1.402,-0.964 0,-0.054 0.187,-0.374 0.416,-0.711 0.608,-0.895 0.552,-1.036 -0.414,-1.036 -0.802,0 -0.841,0.022 -1.099,0.625 m -156.903,0.468 v 0.926 l 0.791,-0.051 0.792,-0.051 0.05,-0.875 0.051,-0.875 h -0.842 -0.842 v 0.926 m 52.5,-0.009 v 0.916 H 219.083 220 V 113.917 113 h -0.917 -0.916 v 0.917 m 11,0 v 0.916 h 0.75 0.75 V 113.917 113 h -0.75 -0.75 v 0.917 M 51.896,113.441 c -0.287,0.043 -0.694,0.26 -0.904,0.485 -0.211,0.224 -0.464,0.41 -0.563,0.413 -0.244,0.007 -0.929,0.592 -0.929,0.794 0,0.089 -0.169,0.273 -0.375,0.408 -1.884,1.237 -1.099,7.451 1.17,9.265 l 0.904,0.723 2.234,0.094 2.234,0.094 v -0.961 -0.96 l -0.625,0.115 c -0.344,0.063 -0.697,0.184 -0.784,0.269 -0.329,0.32 -2.397,0.183 -2.587,-0.171 -0.095,-0.179 -0.38,-0.447 -0.633,-0.597 C 50.591,123.148 50,121.703 50,120.874 c 0,-0.169 -0.079,-0.387 -0.176,-0.483 -0.234,-0.234 -0.239,-1.876 -0.007,-2.108 0.101,-0.101 0.183,-0.353 0.183,-0.562 0,-1.967 2.819,-3.407 5.208,-2.661 0.48,0.149 0.744,-1.197 0.29,-1.478 -0.218,-0.134 -2.924,-0.24 -3.602,-0.141 m 69.166,10e-4 c -0.286,0.042 -0.693,0.259 -0.904,0.484 -0.21,0.224 -0.463,0.41 -0.562,0.413 -0.219,0.007 -0.929,0.583 -0.929,0.754 0,0.067 -0.252,0.505 -0.56,0.973 -1.091,1.657 -1.117,4.753 -0.059,6.934 1.122,2.313 2.894,3.007 6.354,2.493 l 1.438,-0.214 -0.045,-3.181 -0.045,-3.181 h -1.833 -1.834 l -0.051,0.708 -0.051,0.708 h 1.093 1.093 v 2 2 l -1.459,-0.007 c -1.471,-0.006 -2.875,-0.729 -2.875,-1.48 0,-0.106 -0.158,-0.502 -0.351,-0.881 -0.578,-1.133 -0.531,-3.993 0.086,-5.171 0.897,-1.715 2.767,-2.372 4.921,-1.73 1.224,0.364 1.203,0.374 1.145,-0.522 -0.037,-0.576 -0.115,-0.778 -0.285,-0.742 -0.129,0.028 -0.291,-0.039 -0.359,-0.149 -0.128,-0.207 -2.919,-0.355 -3.928,-0.209 M 189,119.5 v 6.167 h 0.667 0.666 l 0.002,-4.959 0.002,-4.958 0.567,1.018 c 0.311,0.559 0.772,1.534 1.023,2.166 0.251,0.632 0.509,1.187 0.573,1.233 0.064,0.045 0.322,0.57 0.574,1.166 0.251,0.596 0.523,1.196 0.603,1.334 0.081,0.137 0.444,0.868 0.807,1.625 l 0.661,1.375 h 1.013 1.013 l -0.044,-6.125 -0.044,-6.125 -0.791,-0.051 -0.792,-0.051 -0.013,4.968 c -0.007,2.732 -0.055,4.855 -0.107,4.717 -0.051,-0.138 -0.35,-0.774 -0.664,-1.415 -0.314,-0.64 -0.765,-1.652 -1.004,-2.247 -0.238,-0.595 -0.533,-1.183 -0.656,-1.305 -0.122,-0.123 -0.223,-0.322 -0.223,-0.441 0,-0.396 -1.638,-3.927 -1.916,-4.131 -0.092,-0.067 -0.561,-0.124 -1.042,-0.125 L 189,113.333 v 6.167 m 80.282,-6.05 c -0.044,0.073 -0.323,0.958 -0.619,1.967 -0.297,1.008 -0.594,1.908 -0.66,2 -0.066,0.091 -0.324,0.804 -0.573,1.583 -0.249,0.779 -0.553,1.642 -0.675,1.917 -0.122,0.275 -0.432,1.212 -0.688,2.083 -0.257,0.871 -0.515,1.621 -0.574,1.667 -0.574,0.442 -0.302,1 0.486,1 0.751,0 0.828,-0.037 0.932,-0.453 0.062,-0.249 0.252,-0.758 0.422,-1.131 0.17,-0.373 0.361,-0.884 0.424,-1.135 l 0.115,-0.457 2.268,0.046 2.269,0.046 0.295,1.084 c 0.163,0.596 0.343,1.289 0.4,1.541 0.101,0.443 1.893,0.758 1.897,0.334 0.002,-0.242 -0.889,-3.293 -0.986,-3.375 -0.054,-0.046 -0.128,-0.196 -0.163,-0.334 -0.299,-1.152 -1.118,-3.603 -1.23,-3.682 -0.077,-0.054 -0.124,-0.166 -0.104,-0.25 0.02,-0.083 -0.041,-0.338 -0.135,-0.568 -0.094,-0.229 -0.345,-1.016 -0.559,-1.75 -0.213,-0.733 -0.44,-1.371 -0.503,-1.416 -0.064,-0.046 -0.144,-0.234 -0.178,-0.417 -0.065,-0.347 -1.675,-0.606 -1.861,-0.3 m -194.324,1.167 c -0.44,0.069 -0.458,0.111 -0.458,1.061 v 0.989 h -0.75 c -0.746,0 -0.75,0.003 -0.75,0.583 0,0.58 0.004,0.583 0.75,0.583 h 0.75 v 2.981 c 0,4.517 0.155,4.846 2.292,4.85 l 1.041,0.003 v -0.584 c 0,-0.546 -0.034,-0.583 -0.541,-0.586 -1.035,-0.004 -1.036,-0.008 -1.099,-3.491 l -0.058,-3.173 h 0.849 0.849 v -0.583 -0.583 h -0.825 -0.825 l -0.05,-1.042 c -0.054,-1.128 -0.11,-1.176 -1.175,-1.008 m 134,0.002 c -0.44,0.067 -0.458,0.108 -0.458,1.059 v 0.989 h -0.667 c -0.65,0 -0.666,0.014 -0.666,0.583 0,0.569 0.016,0.583 0.666,0.583 h 0.667 v 2.97 c 0,4.559 0.14,4.857 2.292,4.861 l 1.041,0.003 v -0.584 c 0,-0.546 -0.034,-0.583 -0.541,-0.586 -1.04,-0.004 -1.132,-0.257 -1.211,-3.33 -0.083,-3.272 -0.066,-3.334 0.938,-3.334 h 0.814 v -0.574 -0.575 l -0.875,-0.05 -0.875,-0.051 -0.049,-1.041 c -0.054,-1.118 -0.014,-1.084 -1.076,-0.923 m 61.376,1.339 c 10e-4,0.161 0.106,0.492 0.233,0.736 0.19,0.364 1.266,3.958 1.266,4.228 0,0.043 -0.787,0.078 -1.75,0.078 -1.902,0 -1.95,-0.029 -1.489,-0.913 0.143,-0.273 0.445,-1.193 0.671,-2.045 0.595,-2.237 1.066,-3.153 1.069,-2.084 m -210.685,0.853 c -2.638,0.64 -3.33,6.123 -1.041,8.25 0.696,0.646 1.618,0.766 3.85,0.498 l 0.875,-0.105 v -0.616 c 0,-0.81 -0.068,-0.852 -0.791,-0.483 -1.687,0.86 -3.414,0.055 -3.623,-1.688 -0.017,-0.138 -0.085,-0.419 -0.152,-0.625 l -0.123,-0.375 h 2.618 2.618 l -0.086,-1.386 c -0.172,-2.753 -1.728,-4.055 -4.145,-3.47 m 5.684,4.346 v 4.51 h 0.816 0.815 l 0.065,-3.125 c 0.068,-3.259 0.145,-3.631 0.87,-4.238 0.727,-0.607 2.417,-0.058 2.213,0.719 -0.044,0.17 -0.013,0.352 0.07,0.403 0.083,0.052 0.151,1.477 0.151,3.167 v 3.074 h 0.675 0.676 l -0.051,-3.997 -0.05,-3.996 -0.462,-0.462 c -0.732,-0.73 -2.937,-0.698 -3.608,0.052 l -0.459,0.515 -0.152,-0.515 c -0.135,-0.457 -0.231,-0.52 -0.86,-0.565 l -0.709,-0.051 v 4.509 m 13.566,-4.227 c 0.055,0.145 0.101,2.17 0.101,4.5 v 4.237 h 0.833 0.834 v -2.892 c 0,-2.867 0.156,-3.942 0.573,-3.942 0.115,0 0.341,-0.147 0.504,-0.326 0.163,-0.18 0.343,-0.318 0.401,-0.306 0.582,0.114 1.022,-0.273 1.022,-0.901 v -0.665 l -0.875,0.118 c -0.978,0.131 -1.242,0.29 -1.513,0.907 -0.177,0.405 -0.188,0.393 -0.242,-0.285 l -0.056,-0.708 h -0.842 c -0.699,0 -0.824,0.044 -0.74,0.263 m 7.403,-0.145 c -0.469,0.072 -1.259,0.879 -1.949,1.992 -0.707,1.14 -0.594,3.836 0.22,5.238 0.911,1.57 1.045,1.644 2.991,1.648 l 1.647,0.004 0.703,-0.709 c 0.884,-0.889 1.181,-2.187 1.04,-4.544 -0.18,-3.02 -1.566,-4.1 -4.652,-3.629 m 21.111,-0.006 c -0.414,0.083 -1.435,1.078 -2.022,1.971 -0.46,0.7 -0.678,4.121 -0.28,4.392 0.087,0.06 0.259,0.357 0.382,0.661 0.517,1.279 1.435,1.861 2.924,1.852 2.26,-0.013 2.663,-0.137 2.687,-0.824 0.022,-0.635 -0.087,-0.949 -0.25,-0.72 -0.221,0.31 -1.074,0.556 -1.931,0.556 -1.048,0 -2.256,-1.077 -2.256,-2.01 0,-0.255 -0.046,-0.582 -0.101,-0.727 -0.09,-0.233 0.196,-0.263 2.5,-0.263 h 2.601 l -0.001,-0.959 c -0.003,-2.884 -1.688,-4.441 -4.253,-3.929 m 22.709,-0.002 c -0.254,0.044 -0.625,0.299 -0.823,0.568 -0.199,0.268 -0.445,0.488 -0.547,0.488 -0.555,0 -1.111,2.948 -0.824,4.366 0.664,3.291 1.417,3.794 5.03,3.36 l 0.875,-0.105 v -0.644 c 0,-0.354 -0.028,-0.643 -0.063,-0.643 -0.034,0 -0.332,0.112 -0.661,0.25 -1.723,0.72 -3.609,-0.279 -3.609,-1.911 0,-0.278 -0.075,-0.506 -0.167,-0.506 -0.091,0 -0.166,-0.075 -0.166,-0.167 0,-0.104 0.98,-0.166 2.606,-0.166 h 2.607 l -0.091,-1.375 c -0.186,-2.805 -1.559,-3.962 -4.167,-3.515 m 5.711,4.39 v 4.5 h 0.816 0.815 l 0.065,-3.125 c 0.068,-3.259 0.145,-3.631 0.87,-4.238 0.506,-0.423 1.327,-0.38 1.883,0.098 l 0.468,0.402 0.054,3.431 0.054,3.432 h 0.821 0.821 v -3.396 c 0,-4.864 -0.326,-5.528 -2.706,-5.513 -1.29,0.009 -1.353,0.028 -1.815,0.545 l -0.479,0.536 v -0.586 -0.586 h -0.833 -0.834 v 4.5 m 10.566,-4.359 c -1.544,0.477 -2.722,3.153 -2.34,5.317 0.094,0.527 0.22,0.996 0.281,1.042 0.062,0.045 0.205,0.37 0.32,0.722 0.428,1.312 1.196,1.768 2.987,1.773 l 1.564,0.005 0.709,-0.71 c 1.67,-1.669 1.729,-5.763 0.107,-7.348 -0.85,-0.829 -2.416,-1.175 -3.628,-0.801 m 6.434,4.359 v 4.5 h 0.834 0.833 v -2.528 c 0,-3.59 0.179,-4.472 0.984,-4.847 0.969,-0.453 1.683,-0.233 1.683,0.518 0,0.196 0.075,0.357 0.166,0.357 0.106,0 0.167,1.194 0.167,3.25 v 3.25 h 0.667 0.666 v -2.656 c 0,-1.635 0.075,-2.836 0.194,-3.125 0.106,-0.258 0.178,-0.563 0.159,-0.678 -0.019,-0.114 0.044,-0.208 0.14,-0.208 0.096,0 0.174,-0.085 0.174,-0.189 0,-0.605 1.047,-0.974 1.711,-0.603 0.608,0.34 0.617,0.4 0.62,4 l 0.002,3.459 h 0.843 0.842 l -0.051,-3.778 c -0.038,-2.838 -0.102,-3.795 -0.259,-3.848 -0.114,-0.038 -0.208,-0.162 -0.208,-0.276 0,-1.223 -3.032,-1.483 -3.824,-0.328 l -0.404,0.59 -0.536,-0.639 c -0.789,-0.939 -2.533,-0.968 -3.363,-0.054 l -0.53,0.583 -0.005,-0.625 -0.005,-0.625 h -0.75 -0.75 v 4.5 m 12.834,0 v 4.5 h 0.833 0.833 v -4.5 -4.5 h -0.833 -0.833 v 4.5 m 6.162,-4.356 c -0.671,0.168 -1.782,1.057 -2.068,1.655 -0.536,1.12 -0.882,3.46 -0.594,4.018 0.075,0.147 0.262,0.623 0.416,1.059 0.165,0.47 0.561,1.062 0.973,1.456 l 0.694,0.664 1.333,-0.018 c 2.098,-0.028 2.327,-0.111 2.369,-0.863 0.041,-0.751 -0.195,-0.896 -0.88,-0.539 -0.953,0.497 -1.833,0.345 -2.607,-0.451 l -0.688,-0.709 -0.075,-1.532 c -0.079,-1.636 0.075,-2.101 1.05,-3.153 0.412,-0.444 1.839,-0.574 2.211,-0.201 0.365,0.364 1.036,-0.156 0.987,-0.764 -0.055,-0.672 -1.649,-0.989 -3.121,-0.622 m 5.671,0.106 c -0.229,0.131 -0.551,0.241 -0.716,0.244 -0.254,0.005 -0.282,0.1 -0.188,0.631 0.157,0.881 0.323,0.997 0.861,0.6 1.05,-0.776 3.21,-0.591 3.21,0.274 0,0.173 0.075,0.361 0.166,0.417 0.092,0.057 0.167,0.278 0.167,0.492 0,0.408 -0.227,0.485 -1.917,0.649 -2.312,0.224 -4.239,3.276 -2.815,4.458 0.128,0.106 0.232,0.278 0.232,0.384 0,0.697 3.345,0.781 4.026,0.101 0.275,-0.275 0.531,-0.5 0.57,-0.5 0.039,0 0.071,0.225 0.071,0.5 0,0.46 0.046,0.5 0.583,0.5 h 0.583 v -3.422 c 0,-3.833 -0.07,-4.167 -1.064,-5.039 -0.706,-0.62 -2.896,-0.788 -3.769,-0.289 m 21.859,3.375 c 0.081,4.965 0.287,5.375 2.707,5.375 1.025,0 1.22,-0.052 1.612,-0.428 l 0.447,-0.428 0.107,0.428 c 0.096,0.382 0.19,0.428 0.879,0.428 h 0.771 l -0.108,-1.275 c -0.059,-0.702 -0.107,-2.727 -0.107,-4.5 v -3.225 h -0.709 l -0.708,-0.001 0.04,2.988 c 0.054,3.984 -0.309,4.836 -2.061,4.844 -0.639,0.003 -0.824,-0.21 -0.975,-1.122 -0.064,-0.389 -0.185,-0.75 -0.269,-0.802 -0.083,-0.051 -0.152,-1.402 -0.152,-3.001 v -2.906 h -0.766 -0.766 l 0.058,3.625 m 13.54,-3.362 c 0.055,0.145 0.101,2.17 0.101,4.5 v 4.237 h 0.833 0.834 v -2.892 c 0,-3.03 0.14,-3.858 0.68,-4.029 0.176,-0.056 0.32,-0.172 0.32,-0.257 0,-0.086 0.135,-0.156 0.3,-0.156 0.752,0 1.197,-0.392 1.198,-1.057 l 0.002,-0.641 -0.875,0.11 c -0.699,0.088 -0.968,0.216 -1.334,0.635 l -0.458,0.524 v -0.619 -0.618 h -0.851 c -0.708,0 -0.834,0.044 -0.75,0.263 m 5.434,4.237 v 4.5 h 0.834 0.833 v -4.5 -4.5 h -0.833 -0.834 v 4.5 m 6.149,-4.356 c -3.958,0.96 -3.374,8.856 0.656,8.856 2.125,0 2.553,-0.137 2.496,-0.799 -0.056,-0.651 -0.544,-1.11 -0.779,-0.734 -0.075,0.12 -0.542,0.258 -1.037,0.307 -1.995,0.198 -2.989,-2.373 -2.055,-5.315 0.267,-0.841 2.904,-1.738 2.904,-0.987 0,0.568 0.755,0.014 0.8,-0.587 0.062,-0.831 -1.26,-1.159 -2.985,-0.741 m 4.671,-0.075 c -0.038,0.038 -0.049,2.063 -0.023,4.5 l 0.047,4.431 h 0.745 0.745 v -4.5 -4.5 h -0.723 c -0.397,0 -0.753,0.031 -0.791,0.069 m 5.746,0.072 c -2.078,0.641 -3.042,4.245 -1.846,6.895 0.154,0.341 0.282,0.678 0.283,0.75 0.015,0.647 1.342,1.214 2.841,1.214 h 1.534 l 0.709,-0.71 c 1.67,-1.669 1.729,-5.763 0.107,-7.348 -0.85,-0.829 -2.416,-1.175 -3.628,-0.801 m 6.434,4.359 v 4.5 h 0.834 0.833 v -3.178 c 0,-3.29 0.058,-3.619 0.733,-4.186 0.714,-0.6 2.1,-0.185 2.1,0.63 0,0.209 0.075,0.427 0.167,0.484 0.101,0.062 0.167,1.307 0.167,3.176 v 3.074 h 0.75 0.75 l -0.013,-3.542 c -0.015,-4.129 -0.131,-4.731 -0.992,-5.169 -0.983,-0.5 -2.764,-0.309 -3.362,0.36 l -0.467,0.523 v -0.586 c 0,-0.584 -0.003,-0.586 -0.75,-0.586 h -0.75 v 4.5 m 9.445,-4.219 c -0.521,0.217 -0.621,0.329 -0.544,0.617 0.052,0.193 0.096,0.525 0.097,0.738 0.003,0.417 0.561,0.382 0.918,-0.057 0.469,-0.577 2.612,-0.434 2.897,0.193 0.537,1.177 -0.158,1.993 -1.584,1.86 -3.028,-0.283 -4.494,4.431 -1.613,5.185 1.384,0.362 2.387,0.245 3.001,-0.35 l 0.55,-0.533 v 0.533 c 0,0.521 0.016,0.533 0.759,0.533 h 0.759 l -0.05,-3.542 -0.051,-3.542 -0.461,-0.678 c -0.816,-1.202 -3.006,-1.649 -4.678,-0.957 m 27.316,-0.16 c -1.232,0.313 -2.094,1.659 -2.094,3.268 0,0.336 -0.075,0.611 -0.167,0.611 -0.193,0 -0.227,0.883 -0.041,1.069 0.068,0.069 0.132,0.4 0.142,0.736 0.03,1.083 0.26,1.679 0.949,2.462 l 0.675,0.766 1.213,-0.061 c 1.071,-0.054 1.273,-0.119 1.721,-0.548 L 281,124.604 v 0.954 c 0,1.91 -0.743,2.775 -2.384,2.775 -0.636,0 -1.103,-0.087 -1.27,-0.237 -0.699,-0.629 -1.179,-0.52 -1.179,0.269 v 0.734 l 1.169,0.2 c 2.283,0.392 3.38,0.176 4.465,-0.877 0.796,-0.773 0.857,-1.254 0.862,-6.797 l 0.004,-4.958 H 282 c -0.627,0 -0.667,0.029 -0.667,0.49 0,0.582 -0.266,0.816 -0.411,0.361 -0.188,-0.595 -1.764,-1.002 -2.828,-0.73 m 6.406,4.379 v 4.5 h 0.814 0.815 l 0.076,-2.875 c 0.045,-1.709 0.158,-3.078 0.28,-3.375 0.303,-0.742 0.856,-1.27 1.212,-1.157 0.167,0.053 0.303,0.016 0.303,-0.082 0,-0.098 0.15,-0.178 0.333,-0.178 0.28,0 0.334,-0.111 0.334,-0.686 v -0.685 l -0.792,0.116 c -0.559,0.081 -0.951,0.268 -1.333,0.634 l -0.542,0.52 v -0.616 -0.616 h -0.75 -0.75 v 4.5 m 7.288,-4.39 c -0.254,0.043 -0.624,0.299 -0.823,0.568 -0.198,0.268 -0.464,0.488 -0.59,0.488 -0.125,0 -0.182,0.075 -0.125,0.167 0.057,0.092 0.038,0.167 -0.041,0.167 -0.08,0 -0.283,0.313 -0.452,0.696 -0.591,1.34 -0.257,5.47 0.442,5.47 0.085,0 0.108,0.075 0.051,0.167 -0.057,0.092 -0.019,0.167 0.084,0.167 0.103,0 0.382,0.231 0.62,0.514 l 0.433,0.514 1.742,-0.056 1.741,-0.056 0.477,-0.571 c 1.549,-1.856 1.729,-4.964 0.405,-6.959 -0.771,-1.16 -2.117,-1.594 -3.964,-1.276 m 7.411,0.191 c -0.584,0.226 -0.7,0.34 -0.627,0.613 0.05,0.185 0.091,0.504 0.092,0.711 0.003,0.437 0.362,0.492 0.741,0.113 0.144,-0.144 0.262,-0.21 0.262,-0.146 0,0.063 0.093,0.04 0.208,-0.051 0.855,-0.682 2.528,-0.335 2.781,0.576 0.336,1.211 0.177,1.357 -1.573,1.451 -0.366,0.02 -0.906,0.163 -1.2,0.317 -0.293,0.155 -0.631,0.281 -0.751,0.281 -0.482,0 -1.35,1.768 -1.333,2.713 0.037,1.906 3.206,2.989 4.651,1.588 l 0.55,-0.533 v 0.533 c 0,0.516 0.022,0.533 0.714,0.533 h 0.713 l -0.06,-3.292 c -0.069,-3.822 -0.154,-4.27 -0.956,-5.048 -0.725,-0.703 -2.853,-0.884 -4.212,-0.359 m 9.547,-0.154 c -1.72,0.351 -2.631,1.908 -2.629,4.492 0.003,3.03 1.087,4.375 3.501,4.344 1.906,-0.024 2.128,-0.116 2.149,-0.881 0.02,-0.744 -0.193,-0.874 -0.861,-0.526 -2.312,1.206 -4.004,-1.57 -2.921,-4.793 0.434,-1.291 1.933,-1.92 2.995,-1.257 0.531,0.332 0.88,0.058 0.822,-0.643 -0.068,-0.814 -1.265,-1.103 -3.056,-0.736 m 4.455,3.561 c 0.095,5.038 0.23,5.292 2.815,5.292 1.306,0 1.339,-0.01 1.617,-0.499 0.362,-0.638 0.534,-0.635 0.534,0.008 0,0.497 0.018,0.509 0.708,0.459 l 0.708,-0.052 v -4.416 -4.417 l -0.791,-0.051 -0.792,-0.051 v 3.439 3.439 l -0.487,0.487 c -0.581,0.581 -1.624,0.68 -2.052,0.195 -0.438,-0.497 -0.628,-1.948 -0.628,-4.8 v -2.741 h -0.851 -0.852 l 0.071,3.708 m 8.632,0.792 v 4.5 h 0.792 0.792 v -4.5 -4.5 h -0.792 -0.792 v 4.5 m 6.162,-4.356 c -1.704,0.426 -3.266,3.297 -2.803,5.153 0.198,0.794 0.219,0.861 0.448,1.418 0.105,0.256 0.234,0.631 0.288,0.834 0.207,0.786 1.441,1.451 2.69,1.449 2.152,-0.004 2.382,-0.094 2.382,-0.937 0,-0.801 -0.071,-0.845 -0.773,-0.479 -1.816,0.948 -3.814,-0.923 -3.47,-3.249 0.231,-1.562 0.289,-1.714 0.899,-2.343 0.682,-0.702 1.741,-0.902 2.532,-0.479 0.464,0.249 0.812,-0.077 0.812,-0.76 0,-0.692 -1.473,-0.989 -3.005,-0.607 m 6.487,0 c -1.049,0.255 -2.315,1.971 -2.315,3.139 0,0.305 -0.09,0.698 -0.199,0.873 -0.155,0.247 -0.155,0.417 0,0.756 0.109,0.24 0.2,0.677 0.202,0.971 0.024,3.386 4.966,4.451 6.52,1.405 0.735,-1.441 0.791,-4.129 0.112,-5.372 -0.839,-1.534 -2.496,-2.214 -4.32,-1.772 m 11.31,0.132 c -0.61,0.253 -0.621,0.274 -0.518,0.949 0.136,0.889 0.146,0.896 0.686,0.497 0.789,-0.583 2.442,-0.669 2.956,-0.155 0.545,0.545 0.61,1.766 0.094,1.766 -0.178,0 -0.375,0.083 -0.438,0.186 -0.071,0.115 -0.455,0.157 -1.01,0.111 -0.493,-0.041 -0.895,-0.024 -0.895,0.038 0,0.061 -0.282,0.208 -0.625,0.327 -2.161,0.743 -2.229,4.263 -0.093,4.822 1.466,0.383 2.457,0.251 3.034,-0.406 l 0.517,-0.59 v 0.59 c 0,0.587 0.003,0.589 0.75,0.589 H 351 v -3.318 c 0,-3.872 -0.227,-4.666 -1.526,-5.343 -0.806,-0.42 -2.741,-0.454 -3.682,-0.063 m -284.178,1.253 c 0.239,0.224 0.387,0.557 0.389,0.875 10e-4,0.282 0.069,0.618 0.151,0.747 0.346,0.547 0.021,0.682 -1.646,0.682 h -1.624 l -0.014,-0.487 c -0.013,-0.471 0.387,-1.436 0.803,-1.937 0.316,-0.381 1.485,-0.309 1.941,0.12 m 47.751,0.096 c 0.295,0.316 0.461,0.728 0.537,1.333 l 0.109,0.875 h -1.732 -1.733 l 0.071,-0.458 c 0.152,-0.993 0.232,-1.201 0.648,-1.696 0.585,-0.695 1.481,-0.718 2.1,-0.054 m 22.772,-0.073 c 0.199,0.212 0.397,0.605 0.44,0.875 0.043,0.269 0.127,0.696 0.186,0.948 l 0.109,0.458 h -1.743 -1.743 l 0.11,-0.708 c 0.105,-0.679 0.359,-1.304 0.713,-1.75 0.292,-0.369 1.521,-0.257 1.928,0.177 m -43.464,0.262 0.577,0.482 0.057,1.784 c 0.095,2.954 -0.2,3.6 -1.69,3.704 -1.498,0.104 -2.118,-0.805 -2.116,-3.101 0.002,-2.96 1.471,-4.288 3.172,-2.869 m 12.587,0.03 0.49,0.511 v 2.228 2.228 l -0.49,0.511 c -0.967,1.01 -2.407,0.598 -2.905,-0.833 -1.09,-3.127 1.063,-6.568 2.905,-4.645 m 47.466,-0.062 c 0.716,0.899 1.271,3.66 0.796,3.954 -0.08,0.05 -0.191,0.317 -0.247,0.595 -0.401,2.007 -2.875,2.053 -3.428,0.063 -0.449,-1.619 -0.131,-3.993 0.625,-4.658 0.659,-0.581 1.773,-0.558 2.254,0.046 m 88.524,0.009 c 1.569,1.797 0.748,6.042 -1.169,6.042 -1.255,0 -1.598,-0.428 -1.908,-2.384 -0.484,-3.054 1.522,-5.438 3.077,-3.658 m 42.953,0 c 1.046,1.109 1.086,4.279 0.071,5.57 -0.704,0.894 -2.265,0.547 -2.67,-0.594 -1.158,-3.26 0.758,-6.928 2.599,-4.976 m 14.006,0 c 1.692,1.77 0.769,6.042 -1.304,6.042 -1.243,0 -1.77,-0.953 -1.784,-3.227 -0.018,-2.825 1.637,-4.333 3.088,-2.815 m 42.667,0 c 1.672,1.75 0.771,6.042 -1.269,6.042 -0.873,0 -1.439,-0.321 -1.441,-0.817 -10e-4,-0.147 -0.119,-0.491 -0.262,-0.766 -0.295,-0.565 -0.371,-2.8 -0.107,-3.13 0.089,-0.112 0.22,-0.391 0.29,-0.62 0.4,-1.304 1.864,-1.676 2.789,-0.709 M 181,122.076 c 0,0.807 -0.456,1.913 -0.792,1.92 -0.114,0.002 -0.208,0.073 -0.208,0.158 0,0.805 -2.117,0.533 -2.269,-0.291 -0.062,-0.337 -0.195,-0.668 -0.297,-0.735 -0.128,-0.086 -0.121,-0.124 0.024,-0.125 0.115,-0.002 0.211,-0.172 0.214,-0.378 0.012,-0.831 0.786,-1.264 2.286,-1.28 L 181,121.333 v 0.743 m 73.333,0.309 c 0,2.33 -2.712,3.255 -3.173,1.082 -0.318,-1.498 0.319,-2.11 2.215,-2.126 l 0.958,-0.008 v 1.052 m 48.5,-0.21 c 0,2.167 -2.905,3.593 -3.268,1.604 -0.318,-1.741 0.284,-2.373 2.31,-2.422 l 0.958,-0.024 v 0.842 m 46.5,0.241 c 0,2.036 -2.924,3.264 -3.265,1.371 -0.319,-1.77 0.307,-2.434 2.307,-2.447 l 0.958,-0.007 v 1.083 M 338,133.247 c 0,0.136 -0.217,0.695 -0.481,1.241 -0.535,1.104 -0.521,1.179 0.222,1.179 0.456,0 0.614,-0.141 1.306,-1.164 0.987,-1.462 0.984,-1.503 -0.13,-1.503 -0.7,0 -0.917,0.059 -0.917,0.247 M 48.5,142 v 5.833 h 0.833 0.834 V 142 136.167 H 49.333 48.5 V 142 m 6.667,-0.008 v 5.841 H 56 56.833 v -4.5 c 0,-4.805 0.039,-5.017 0.637,-3.538 0.213,0.525 0.634,1.48 0.936,2.122 0.302,0.641 0.776,1.654 1.054,2.25 0.277,0.595 0.779,1.664 1.114,2.375 l 0.611,1.291 H 62.092 63 V 142 136.167 h -0.747 -0.748 l -0.044,4.458 -0.044,4.458 -0.47,-1 c -0.258,-0.55 -0.7,-1.487 -0.983,-2.083 -0.283,-0.596 -0.775,-1.646 -1.093,-2.333 -0.318,-0.688 -0.823,-1.738 -1.122,-2.334 l -0.543,-1.083 -1.02,-0.05 -1.019,-0.049 v 5.841 m 12.833,0 v 5.841 h 0.831 0.83 l 0.045,-4.541 0.044,-4.54 0.479,0.999 c 0.264,0.549 0.722,1.524 1.018,2.166 0.296,0.641 0.765,1.654 1.041,2.25 0.277,0.595 0.773,1.668 1.103,2.383 l 0.601,1.3 0.962,-0.05 0.963,-0.05 0.043,-5.792 0.044,-5.791 h -0.835 -0.836 v 4.605 4.606 l -0.564,-1.147 C 73.458,143.6 73.001,142.596 72.752,142 c -0.52,-1.243 -1.387,-3.098 -2.18,-4.667 L 70.024,136.25 69.012,136.2 68,136.151 v 5.841 m 15.417,-5.702 c -1.365,0.199 -2.41,1.908 -2.677,4.377 -0.064,0.595 -0.191,1.177 -0.282,1.291 -0.11,0.138 -0.109,0.279 0.003,0.417 0.093,0.115 0.223,0.696 0.29,1.292 0.067,0.595 0.263,1.361 0.435,1.701 0.173,0.34 0.314,0.716 0.314,0.835 0,0.119 0.15,0.31 0.333,0.425 0.184,0.114 0.336,0.301 0.339,0.415 0.029,1.148 3.957,1.275 5.183,0.168 2.923,-2.641 2.149,-10.127 -1.126,-10.887 -0.655,-0.152 -1.904,-0.167 -2.812,-0.034 m 9.322,0.076 c 0.038,0.12 0.192,0.63 0.343,1.134 0.151,0.504 0.342,1.067 0.423,1.25 0.227,0.512 0.995,3.153 0.996,3.425 10e-4,0.133 0.118,0.465 0.26,0.738 0.142,0.273 0.449,1.211 0.681,2.083 0.232,0.873 0.471,1.624 0.532,1.67 0.06,0.046 0.117,0.159 0.127,0.251 0.079,0.721 0.283,0.916 0.96,0.915 0.835,-0.002 0.904,-0.117 1.623,-2.742 0.275,-1.005 0.563,-1.905 0.639,-2 0.077,-0.095 0.302,-0.811 0.502,-1.59 0.199,-0.779 0.62,-2.161 0.935,-3.071 0.763,-2.201 0.758,-2.262 -0.177,-2.262 -0.588,0 -0.75,0.059 -0.75,0.277 0,0.301 -0.248,1.195 -1.082,3.889 -0.297,0.963 -0.672,2.238 -0.832,2.834 -0.16,0.595 -0.332,1.195 -0.382,1.333 -0.05,0.137 -0.098,0.319 -0.106,0.403 -0.029,0.306 -0.431,0.285 -0.431,-0.022 0,-0.173 -0.09,-0.404 -0.2,-0.514 -0.11,-0.11 -0.138,-0.2 -0.063,-0.2 0.075,0 0.063,-0.094 -0.028,-0.209 -0.091,-0.114 -0.37,-0.996 -0.621,-1.958 -0.25,-0.963 -0.525,-1.836 -0.611,-1.941 -0.085,-0.105 -0.141,-0.255 -0.123,-0.333 0.018,-0.079 -0.021,-0.262 -0.085,-0.407 -0.065,-0.146 -0.283,-0.896 -0.485,-1.667 l -0.367,-1.402 -0.873,-0.05 c -0.658,-0.038 -0.857,0.003 -0.805,0.166 m 15.34,0.334 c -0.065,0.303 -0.174,0.625 -0.243,0.717 -0.07,0.091 -0.368,0.991 -0.665,2 -0.296,1.008 -0.596,1.908 -0.668,2 -0.071,0.091 -0.333,0.879 -0.581,1.75 -0.248,0.87 -0.519,1.665 -0.602,1.765 -0.083,0.1 -0.097,0.235 -0.032,0.301 0.066,0.065 0.037,0.171 -0.062,0.234 -0.17,0.109 -0.726,1.781 -0.726,2.184 0,0.102 0.296,0.182 0.671,0.182 0.759,0 0.819,-0.092 1.285,-1.963 l 0.261,-1.046 2.266,0.046 2.266,0.047 0.154,0.75 c 0.085,0.412 0.222,0.795 0.305,0.851 0.083,0.055 0.137,0.205 0.12,0.333 -0.09,0.68 0.199,0.982 0.941,0.982 0.402,0 0.731,-0.064 0.731,-0.143 0,-0.279 -1.038,-3.776 -1.17,-3.94 -0.074,-0.092 -0.338,-0.879 -0.587,-1.75 -0.249,-0.871 -0.519,-1.608 -0.599,-1.639 -0.08,-0.031 -0.106,-0.122 -0.056,-0.202 0.049,-0.08 0.008,-0.28 -0.091,-0.444 -0.1,-0.164 -0.392,-1.011 -0.65,-1.882 l -0.468,-1.583 -0.841,-0.05 c -0.831,-0.049 -0.843,-0.043 -0.959,0.5 m 9.421,5.292 v 5.841 h 0.831 0.83 l 0.045,-4.541 0.044,-4.54 0.479,0.999 c 0.264,0.549 0.722,1.524 1.018,2.166 0.296,0.641 0.765,1.654 1.041,2.25 0.277,0.595 0.773,1.668 1.103,2.383 l 0.601,1.3 0.962,-0.05 0.963,-0.05 0.043,-5.792 0.044,-5.791 h -0.835 -0.836 v 4.625 4.625 l -0.533,-1.084 c -0.293,-0.596 -0.537,-1.158 -0.542,-1.25 -0.004,-0.091 -0.046,-0.204 -0.093,-0.25 -0.047,-0.046 -0.262,-0.496 -0.479,-1 -0.518,-1.207 -1.433,-3.153 -2.114,-4.5 l -0.548,-1.083 -1.012,-0.05 -1.012,-0.049 v 5.841 m 12.833,-10e-4 v 5.875 l 2.23,-0.058 2.23,-0.058 0.966,-0.666 c 2.712,-1.868 3.297,-6.565 1.145,-9.198 -1.025,-1.254 -1.688,-1.496 -4.529,-1.655 l -2.042,-0.114 v 5.874 m 14.834,-5.703 c -0.229,0.042 -0.53,0.17 -0.667,0.285 -0.138,0.115 -0.378,0.255 -0.534,0.31 -1.017,0.36 -1.932,4.299 -1.558,6.7 0.769,4.925 5.44,6.187 7.798,2.108 l 0.544,-0.941 v -2.667 -2.666 l -0.531,-0.917 c -1.207,-2.085 -2.541,-2.669 -5.052,-2.212 m 16.833,5.7 v 5.872 l 2.136,-0.055 2.137,-0.055 0.967,-0.667 c 1.106,-0.762 1.545,-1.241 1.993,-2.174 0.174,-0.363 0.384,-0.796 0.467,-0.963 0.805,-1.619 0.128,-4.8 -1.331,-6.249 -1.131,-1.124 -1.746,-1.334 -4.302,-1.471 L 162,136.116 v 5.872 m 12.206,-0.03 0.044,5.792 2.856,0.046 2.857,0.045 0.066,-0.569 c 0.11,-0.938 0.107,-0.939 -2.126,-0.939 h -2.07 v -1.916 -1.917 h 1.917 1.917 V 141.75 141 h -1.917 -1.917 v -1.833 -1.834 h 2 2 v -0.583 -0.583 h -2.835 -2.836 l 0.044,5.791 m 11.572,-5.522 c -0.966,0.524 -1.41,1.225 -1.53,2.42 -0.148,1.466 -0.048,1.623 2.207,3.481 1.995,1.644 2.296,2.132 1.94,3.147 -0.345,0.982 -2.24,1.475 -3.266,0.85 -0.829,-0.506 -0.962,-0.441 -0.962,0.466 v 0.8 l 1.239,0.221 c 4.239,0.753 6.473,-2.781 3.542,-5.602 -1.05,-1.01 -2.344,-2.052 -2.549,-2.052 -0.498,0 -0.48,-2.236 0.018,-2.258 0.091,-0.004 0.373,-0.11 0.627,-0.236 0.374,-0.185 0.608,-0.191 1.25,-0.028 1.32,0.335 1.284,0.349 1.339,-0.496 l 0.05,-0.768 -0.781,-0.107 c -1.297,-0.178 -2.624,-0.109 -3.124,0.162 m 8.722,5.538 v 5.859 h 2.005 c 2.259,0 2.648,-0.111 3.912,-1.114 0.954,-0.758 1.85,-2.446 1.765,-3.328 -0.019,-0.198 0.044,-0.408 0.141,-0.468 0.218,-0.135 0.237,-2.423 0.021,-2.423 -0.086,0 -0.151,-0.131 -0.144,-0.292 0.098,-2.304 -1.993,-3.804 -5.556,-3.984 l -2.144,-0.109 v 5.859 m 12.463,0.026 0.045,5.833 h 2.922 2.922 l -0.051,-0.708 -0.051,-0.708 -2.125,-0.047 -2.125,-0.047 v -1.911 -1.912 h 1.917 1.916 V 141.75 141 h -1.916 -1.917 v -1.833 -1.834 h 1.917 1.916 v -0.583 -0.583 h -2.708 -2.708 L 206.963,142 M 224,142 v 5.833 h 2.667 2.666 v -0.75 -0.75 h -2 -2 v -5.083 -5.083 H 224.667 224 V 142 m 11.844,-4.978 c -0.103,0.48 -0.252,0.952 -0.332,1.05 -0.08,0.098 -0.387,1.003 -0.683,2.011 -0.297,1.009 -0.596,1.909 -0.666,2 -0.07,0.092 -0.338,0.879 -0.596,1.75 -0.258,0.871 -0.529,1.609 -0.603,1.64 -0.073,0.03 -0.096,0.115 -0.051,0.188 0.045,0.072 -0.029,0.354 -0.164,0.625 -0.136,0.272 -0.294,0.731 -0.352,1.02 l -0.105,0.527 h 0.829 0.83 l 0.271,-1.041 c 0.149,-0.573 0.319,-1.248 0.376,-1.5 l 0.105,-0.459 h 2.154 c 1.901,0 2.166,0.035 2.256,0.292 0.057,0.16 0.242,0.606 0.412,0.991 0.169,0.384 0.308,0.81 0.308,0.945 0,0.621 0.199,0.772 1.014,0.772 h 0.811 l -0.102,-0.541 c -0.057,-0.298 -0.16,-0.617 -0.229,-0.709 -0.07,-0.091 -0.369,-0.991 -0.665,-2 -0.296,-1.008 -0.596,-1.908 -0.667,-2 -0.07,-0.091 -0.372,-0.991 -0.67,-2 -0.299,-1.008 -0.61,-1.946 -0.693,-2.083 -0.082,-0.138 -0.281,-0.7 -0.442,-1.25 l -0.292,-1 -0.933,-0.05 -0.934,-0.049 -0.187,0.871 m 18.585,0.77 c -0.257,0.893 -0.524,1.7 -0.594,1.791 -0.07,0.092 -0.373,0.954 -0.673,1.917 -0.301,0.962 -0.603,1.825 -0.671,1.917 -0.068,0.091 -0.366,0.991 -0.662,2 -0.297,1.008 -0.603,1.915 -0.682,2.015 -0.222,0.281 0.01,0.401 0.777,0.401 0.668,0 0.711,-0.03 0.882,-0.625 0.099,-0.343 0.312,-1.02 0.473,-1.504 l 0.292,-0.88 2.164,0.046 2.164,0.047 0.283,1 c 0.156,0.55 0.33,1.206 0.387,1.458 0.097,0.426 0.164,0.458 0.947,0.458 h 0.844 l -0.119,-0.541 c -0.065,-0.298 -0.264,-0.955 -0.44,-1.459 -0.177,-0.504 -0.543,-1.629 -0.814,-2.5 -0.271,-0.871 -0.595,-1.808 -0.721,-2.083 -0.126,-0.275 -0.436,-1.212 -0.689,-2.083 -0.253,-0.871 -0.523,-1.696 -0.602,-1.834 -0.078,-0.137 -0.215,-0.456 -0.304,-0.708 -0.147,-0.414 -0.24,-0.458 -0.969,-0.458 h -0.807 l -0.466,1.625 m 9.793,-1.389 c 0.061,0.16 0.111,2.797 0.111,5.861 v 5.569 h 0.75 0.75 v -2.666 c 0,-1.763 0.06,-2.667 0.177,-2.667 1.455,0 2.143,0.673 2.745,2.683 0.761,2.543 0.836,2.65 1.86,2.65 0.861,0 1.036,-0.1 0.741,-0.425 -0.079,-0.087 -0.383,-0.871 -0.676,-1.741 -0.293,-0.871 -0.669,-1.884 -0.836,-2.25 -0.167,-0.367 -0.348,-0.798 -0.402,-0.959 -0.054,-0.16 -0.209,-0.291 -0.344,-0.291 -0.605,0 -0.381,-0.375 0.452,-0.757 1.834,-0.839 1.668,-3.845 -0.269,-4.852 -0.775,-0.403 -5.206,-0.538 -5.059,-0.155 m 13.707,1.389 c -0.256,0.893 -0.597,1.925 -0.756,2.291 -0.16,0.367 -0.5,1.342 -0.755,2.167 -0.255,0.825 -0.519,1.575 -0.587,1.667 -0.068,0.091 -0.329,0.879 -0.581,1.75 -0.252,0.87 -0.523,1.665 -0.602,1.765 -0.224,0.282 0.009,0.401 0.783,0.401 0.665,0 0.716,-0.033 0.825,-0.541 0.064,-0.298 0.177,-0.618 0.251,-0.711 0.074,-0.093 0.225,-0.526 0.335,-0.963 l 0.2,-0.794 2.178,0.046 2.179,0.047 0.283,1 c 0.156,0.55 0.33,1.206 0.387,1.458 0.101,0.443 1.764,0.755 1.764,0.33 0,-0.27 -0.695,-2.622 -0.823,-2.785 -0.073,-0.093 -0.376,-0.995 -0.672,-2.003 -0.296,-1.009 -0.597,-1.909 -0.668,-2 -0.071,-0.092 -0.337,-0.879 -0.591,-1.75 -0.254,-0.871 -0.525,-1.696 -0.604,-1.834 -0.078,-0.137 -0.215,-0.456 -0.304,-0.708 -0.147,-0.414 -0.24,-0.458 -0.969,-0.458 h -0.807 l -0.466,1.625 m 9.949,2.75 c 0.086,4.85 0.193,5.467 1.087,6.284 0.294,0.269 0.535,0.553 0.535,0.631 0,0.462 2.634,0.646 3.713,0.259 1.737,-0.622 2.12,-2.008 2.12,-7.663 v -3.886 h -0.833 -0.833 l -0.004,4.125 c -0.005,4.714 -0.085,5.269 -0.855,5.916 -1.088,0.915 -2.522,0.445 -2.976,-0.975 -0.114,-0.357 -0.273,-0.822 -0.353,-1.033 -0.08,-0.21 -0.146,-2.104 -0.146,-4.208 v -3.825 h -0.766 -0.766 l 0.077,4.375 m 15.623,-4.252 c -2.648,0.32 -4.677,6.145 -2.983,8.562 0.168,0.24 0.258,0.483 0.199,0.542 -0.058,0.058 -0.018,0.106 0.089,0.106 0.106,0 0.194,0.109 0.194,0.243 0,0.281 0.82,1.09 1.104,1.09 0.105,0 0.305,0.174 0.445,0.387 0.344,0.525 2.14,0.87 3.676,0.705 l 1.108,-0.118 v -0.828 -0.827 l -0.625,0.111 c -0.343,0.061 -0.696,0.177 -0.783,0.257 -0.217,0.201 -1.381,0.186 -1.508,-0.02 -0.057,-0.092 -0.273,-0.167 -0.481,-0.167 -0.208,0 -0.554,-0.187 -0.769,-0.416 -0.216,-0.229 -0.476,-0.417 -0.578,-0.417 -0.445,0 -1.09,-3.348 -0.882,-4.583 0.456,-2.714 2.899,-4.272 4.99,-3.182 0.559,0.292 0.636,0.212 0.636,-0.656 v -0.699 l -0.875,-0.105 c -0.912,-0.11 -1.965,-0.104 -2.957,0.015 m 10.764,1.494 c -0.258,0.898 -0.526,1.708 -0.596,1.799 -0.07,0.092 -0.373,0.954 -0.674,1.917 -0.3,0.962 -0.601,1.825 -0.668,1.917 -0.067,0.091 -0.322,0.841 -0.568,1.666 -0.245,0.825 -0.554,1.737 -0.686,2.026 -0.333,0.728 -0.336,0.724 0.574,0.724 h 0.813 l 0.199,-0.789 c 0.11,-0.434 0.26,-0.866 0.334,-0.958 0.074,-0.093 0.188,-0.415 0.252,-0.716 l 0.117,-0.546 2.185,0.046 2.185,0.047 0.283,1 c 0.156,0.55 0.33,1.206 0.387,1.458 0.099,0.434 1.765,0.759 1.765,0.344 0,-0.247 -0.566,-2.141 -0.663,-2.219 -0.057,-0.046 -0.357,-0.946 -0.666,-2 -0.31,-1.054 -0.616,-1.992 -0.681,-2.083 -0.065,-0.092 -0.322,-0.842 -0.571,-1.667 -0.249,-0.825 -0.526,-1.59 -0.617,-1.701 -0.09,-0.111 -0.116,-0.279 -0.057,-0.375 0.059,-0.096 0.041,-0.174 -0.039,-0.174 -0.081,0 -0.217,-0.281 -0.302,-0.625 -0.151,-0.61 -0.175,-0.626 -0.996,-0.674 l -0.842,-0.049 -0.468,1.632 m 9.775,4.174 0.043,5.792 0.792,0.051 0.792,0.051 0.012,-4.718 0.012,-4.717 0.516,1.083 c 0.283,0.596 0.528,1.121 0.544,1.167 0.016,0.045 0.228,0.516 0.472,1.046 1.255,2.725 1.684,3.647 2.246,4.823 l 0.614,1.286 0.959,0.006 0.958,0.005 V 142 136.167 h -0.833 -0.834 l -0.019,4.458 c -0.011,2.452 -0.054,4.327 -0.096,4.167 -0.041,-0.161 -0.135,-0.292 -0.206,-0.292 -0.072,0 -0.377,-0.638 -0.679,-1.417 -0.301,-0.779 -0.603,-1.416 -0.672,-1.416 -0.069,0 -0.174,-0.198 -0.235,-0.439 -0.06,-0.241 -0.41,-1.073 -0.777,-1.849 -0.367,-0.776 -0.847,-1.817 -1.066,-2.312 l -0.398,-0.9 h -1.095 -1.094 l 0.044,5.791 M 337,142 v 5.833 h 0.75 0.75 V 142 136.167 H 337.75 337 V 142 m 9.297,-5.184 c -0.155,0.358 -0.476,1.325 -0.713,2.151 -0.237,0.825 -0.57,1.789 -0.739,2.142 -0.17,0.352 -0.474,1.241 -0.678,1.974 -0.203,0.734 -0.429,1.409 -0.502,1.5 -0.127,0.161 -0.998,2.895 -0.998,3.134 0,0.064 0.319,0.116 0.71,0.116 0.8,0 1.103,-0.448 1.475,-2.181 l 0.178,-0.828 2.188,0.046 2.189,0.047 0.349,1.166 c 0.53,1.769 0.515,1.75 1.345,1.75 0.403,0 0.732,-0.066 0.732,-0.148 0,-0.333 -0.866,-3.107 -1.033,-3.309 -0.1,-0.119 -0.133,-0.265 -0.075,-0.323 0.058,-0.058 0.039,-0.188 -0.042,-0.288 -0.082,-0.1 -0.313,-0.744 -0.515,-1.432 -0.202,-0.687 -0.467,-1.475 -0.59,-1.75 -0.122,-0.275 -0.461,-1.287 -0.751,-2.25 -0.636,-2.102 -0.682,-2.166 -1.558,-2.166 -0.643,0 -0.71,0.044 -0.972,0.649 m -212.503,0.797 c 0.969,0.136 2.126,1.153 2.397,2.107 0.109,0.383 0.261,0.768 0.337,0.855 0.196,0.224 0.173,1.884 -0.028,2.008 -0.092,0.057 -0.167,0.315 -0.167,0.573 0,1.733 -1.457,3.177 -3.205,3.177 -1.344,0 -1.226,0.499 -1.164,-4.894 l 0.047,-4.145 0.536,0.11 c 0.295,0.06 0.856,0.154 1.247,0.209 m 31.307,-0.059 c 4.494,0.942 4.25,8.779 -0.273,8.779 H 163.5 v -4.5 c 0,-5.117 -0.174,-4.652 1.601,-4.279 m 32.484,-0.04 c 2.343,0.434 3.165,1.577 3.165,4.403 0,3.146 -0.97,4.416 -3.372,4.416 h -1.211 v -4.5 c 0,-3.61 0.043,-4.5 0.219,-4.5 0.121,0 0.66,0.082 1.199,0.181 m 70.519,0.338 c 0.793,0.388 0.814,0.418 0.865,1.22 0.103,1.627 -0.584,2.322 -2.2,2.228 l -0.852,-0.05 -0.047,-1.981 -0.048,-1.98 0.735,0.083 c 0.404,0.045 1.1,0.261 1.547,0.48 m -181.589,0.356 c 1.575,1.905 1.332,6.708 -0.406,8.034 -1.251,0.954 -3.272,0.113 -3.533,-1.471 -0.063,-0.378 -0.19,-0.782 -0.283,-0.897 -0.135,-0.167 -0.192,-2.35 -0.097,-3.707 0.025,-0.358 0.785,-1.67 1.279,-2.209 0.741,-0.807 2.269,-0.682 3.04,0.25 m 61.636,-0.14 c 1.434,1.478 1.354,6.883 -0.119,8.097 -0.615,0.508 -2.199,0.749 -2.199,0.335 0,-0.092 -0.139,-0.167 -0.31,-0.167 -1.884,0 -2.192,-6.494 -0.398,-8.375 0.7,-0.733 2.264,-0.677 3.026,0.11 m 89.348,1.813 c 0.293,0.989 0.63,2.001 0.75,2.25 0.593,1.235 0.627,1.202 -1.238,1.202 -0.923,0 -1.678,-0.039 -1.678,-0.086 0,-0.212 0.687,-2.622 0.821,-2.878 0.081,-0.157 0.28,-0.755 0.44,-1.328 0.161,-0.574 0.311,-1.024 0.332,-1 0.022,0.023 0.28,0.851 0.573,1.84 m 78.489,-0.464 c 0.008,0.183 0.121,0.539 0.253,0.79 0.198,0.38 0.926,2.773 0.926,3.045 0,0.045 -0.758,0.081 -1.685,0.081 h -1.685 l 0.114,-0.452 c 0.062,-0.249 0.258,-0.77 0.435,-1.158 0.176,-0.387 0.321,-0.754 0.321,-0.815 0,-0.06 0.198,-0.758 0.441,-1.551 l 0.442,-1.44 0.212,0.583 c 0.117,0.321 0.219,0.733 0.226,0.917 m -59.829,0.041 c 0.004,0.207 0.073,0.375 0.154,0.375 0.08,0 0.304,0.619 0.498,1.375 0.193,0.757 0.399,1.544 0.456,1.75 0.104,0.371 0.088,0.375 -1.581,0.375 -1.827,0 -1.883,-0.035 -1.436,-0.891 0.136,-0.261 0.483,-1.274 0.77,-2.25 0.288,-0.976 0.566,-1.848 0.617,-1.936 0.118,-0.203 0.512,0.704 0.522,1.202 m 23.5,-0.116 c 0.004,0.142 0.076,0.329 0.159,0.416 0.118,0.125 1.015,3.222 1.015,3.507 0,0.038 -0.75,0.068 -1.666,0.068 -1.806,0 -1.863,-0.036 -1.417,-0.891 0.136,-0.261 0.483,-1.274 0.77,-2.25 0.288,-0.976 0.566,-1.848 0.617,-1.936 0.102,-0.176 0.51,0.672 0.522,1.086 m -170.113,0.255 c 0.163,0.634 0.421,1.565 0.571,2.07 0.151,0.504 0.261,0.973 0.245,1.041 -0.016,0.069 0.046,0.125 0.138,0.125 0.092,0 0.167,0.113 0.167,0.25 0,0.206 -0.297,0.25 -1.667,0.25 -0.917,0 -1.667,-0.047 -1.667,-0.104 0,-0.26 1.064,-3.646 1.269,-4.039 0.126,-0.242 0.23,-0.54 0.23,-0.662 0.003,-0.618 0.452,0.056 0.714,1.069 M 347.5,138.653 c 0,0.175 0.058,0.344 0.128,0.375 0.07,0.03 0.339,0.88 0.596,1.889 0.258,1.008 0.538,1.904 0.622,1.991 0.341,0.352 0.083,0.425 -1.485,0.425 -1.661,0 -1.974,-0.073 -1.713,-0.401 0.079,-0.1 0.348,-0.881 0.597,-1.735 0.249,-0.854 0.558,-1.754 0.686,-2 0.129,-0.246 0.234,-0.541 0.235,-0.655 0,-0.115 0.076,-0.209 0.167,-0.209 0.092,0 0.167,0.144 0.167,0.32"
       inkscape:connector-curvature="0"
       style="fill:#000000;fill-rule:evenodd;stroke:none" />
  </g>
</svg>
