<?xml version="1.0" encoding="UTF-8" standalone="no"?>
<!-- Generator: Adobe Illustrator 16.0.0, SVG Export Plug-In . SVG Version: 6.00 Build 0)  -->

<svg
   xmlns:dc="http://purl.org/dc/elements/1.1/"
   xmlns:cc="http://creativecommons.org/ns#"
   xmlns:rdf="http://www.w3.org/1999/02/22-rdf-syntax-ns#"
   xmlns:svg="http://www.w3.org/2000/svg"
   xmlns="http://www.w3.org/2000/svg"
   xmlns:sodipodi="http://sodipodi.sourceforge.net/DTD/sodipodi-0.dtd"
   xmlns:inkscape="http://www.inkscape.org/namespaces/inkscape"
   version="1.1"
   id="Capa_1"
   x="0px"
   y="0px"
   width="177.62801"
   height="64.904999"
   viewBox="0 0 177.62801 64.904999"
   enable-background="new 0 0 180 66.75"
   xml:space="preserve"
   sodipodi:docname="chiletransforma.svg"
   inkscape:version="0.92.1 r15371"><metadata
     id="metadata117"><rdf:RDF><cc:Work
         rdf:about=""><dc:format>image/svg+xml</dc:format><dc:type
           rdf:resource="http://purl.org/dc/dcmitype/StillImage" /><dc:title></dc:title></cc:Work></rdf:RDF></metadata><defs
     id="defs115" /><sodipodi:namedview
     pagecolor="#ffffff"
     bordercolor="#666666"
     borderopacity="1"
     objecttolerance="10"
     gridtolerance="10"
     guidetolerance="10"
     inkscape:pageopacity="0"
     inkscape:pageshadow="2"
     inkscape:window-width="640"
     inkscape:window-height="480"
     id="namedview113"
     showgrid="false"
     fit-margin-top="0"
     fit-margin-left="0"
     fit-margin-right="0"
     fit-margin-bottom="0"
     inkscape:zoom="1.5777778"
     inkscape:cx="89.554"
     inkscape:cy="31.53"
     inkscape:window-x="0"
     inkscape:window-y="0"
     inkscape:window-maximized="0"
     inkscape:current-layer="Capa_1" /><g
     id="g110"
     transform="translate(-0.446)"><g
       id="g102"><g
         id="g20"><path
           d="M 39.546,28.638 H 35.22 V 42.002 H 31.367 V 28.638 H 26.57 v -3.066 h 13.771 z"
           id="path2"
           inkscape:connector-curvature="0"
           style="fill:#003049" /><path
           d="m 63.136,25.497 h -2.982 l -6.245,16.009 c -1.081,-1.88 -1.983,-3.414 -2.698,-4.591 -0.781,-1.279 -1.393,-2.052 -1.839,-2.318 v -0.026 c 0.365,-0.166 0.725,-0.382 1.076,-0.647 0.35,-0.266 0.662,-0.573 0.937,-0.921 0.275,-0.35 0.497,-0.744 0.663,-1.186 0.167,-0.439 0.25,-0.926 0.25,-1.458 0,-0.647 -0.106,-1.259 -0.322,-1.833 -0.215,-0.571 -0.565,-1.08 -1.045,-1.52 -0.481,-0.441 -1.105,-0.789 -1.877,-1.047 -0.771,-0.258 -1.72,-0.387 -2.847,-0.387 h -5.12 v 16.43 h 3.803 v -6.159 h 1.138 c 0.132,0.051 0.293,0.2 0.484,0.449 0.188,0.249 0.433,0.62 0.729,1.109 0.297,0.491 0.66,1.113 1.088,1.87 0.43,0.756 0.951,1.667 1.563,2.73 h 7.55 l 1.491,-3.915 h 5.321 l 1.565,3.915 h 4.102 z m -15.233,6.968 c -0.429,0.44 -0.972,0.661 -1.63,0.661 H 44.89 v -4.438 h 1.407 c 0.691,0 1.239,0.2 1.643,0.6 0.403,0.398 0.605,0.897 0.605,1.495 0,0.68 -0.215,1.242 -0.642,1.682 z m 12.101,2.579 0.993,-2.642 c 0.134,-0.365 0.253,-0.715 0.361,-1.046 0.107,-0.332 0.187,-0.64 0.237,-0.923 h 0.025 c 0.048,0.266 0.128,0.571 0.236,0.91 0.108,0.341 0.228,0.71 0.36,1.109 l 0.896,2.592 z"
           id="path4"
           inkscape:connector-curvature="0"
           style="fill:#003049" /><path
           d="M 82.816,42.001 75.991,33.35 C 75.725,33.017 75.473,32.684 75.232,32.352 74.99,32.02 74.729,31.671 74.447,31.306 h -0.051 c 0.035,0.281 0.055,0.655 0.063,1.122 0.009,0.465 0.013,0.872 0.013,1.22 v 8.353 h -3.754 v -16.43 h 3.804 l 6.587,8.302 c 0.266,0.333 0.518,0.66 0.758,0.984 0.241,0.325 0.476,0.661 0.71,1.01 h 0.073 c -0.033,-0.431 -0.049,-0.906 -0.049,-1.419 0,-0.516 0,-0.939 0,-1.272 v -7.604 h 3.753 v 16.43 h -3.538 z"
           id="path6"
           inkscape:connector-curvature="0"
           style="fill:#003049" /><path
           d="m 98.87,39.334 c -0.323,0.614 -0.767,1.138 -1.33,1.569 -0.564,0.434 -1.219,0.765 -1.965,0.999 -0.745,0.232 -1.549,0.348 -2.41,0.348 -1.228,0 -2.279,-0.166 -3.157,-0.499 -0.879,-0.332 -1.633,-0.706 -2.264,-1.121 l 1.442,-2.718 c 0.546,0.384 1.132,0.699 1.753,0.947 0.621,0.25 1.295,0.375 2.026,0.375 0.282,0 0.564,-0.025 0.845,-0.075 0.282,-0.049 0.535,-0.137 0.759,-0.261 0.223,-0.125 0.405,-0.282 0.547,-0.474 0.141,-0.192 0.211,-0.429 0.211,-0.711 0,-0.499 -0.22,-0.911 -0.659,-1.234 -0.441,-0.324 -0.969,-0.639 -1.592,-0.947 -0.621,-0.307 -1.271,-0.64 -1.951,-0.998 -0.68,-0.356 -1.268,-0.826 -1.765,-1.407 -0.315,-0.366 -0.564,-0.786 -0.746,-1.259 -0.183,-0.475 -0.274,-1.026 -0.274,-1.658 0,-0.632 0.125,-1.238 0.374,-1.82 0.249,-0.58 0.617,-1.093 1.106,-1.533 0.487,-0.44 1.09,-0.793 1.802,-1.06 0.712,-0.265 1.542,-0.399 2.487,-0.399 0.878,0 1.681,0.1 2.41,0.299 0.73,0.199 1.351,0.44 1.866,0.724 l -0.075,3.191 c -0.763,-0.383 -1.446,-0.683 -2.05,-0.899 -0.605,-0.215 -1.248,-0.323 -1.926,-0.323 -0.581,0 -1.053,0.121 -1.417,0.362 -0.365,0.24 -0.547,0.56 -0.547,0.96 0,0.432 0.174,0.797 0.523,1.096 0.348,0.298 0.777,0.585 1.292,0.859 0.514,0.275 1.074,0.554 1.678,0.835 0.605,0.282 1.164,0.632 1.678,1.047 0.513,0.417 0.945,0.919 1.292,1.507 0.348,0.591 0.521,1.319 0.521,2.182 0,0.783 -0.162,1.481 -0.484,2.096 z"
           id="path8"
           inkscape:connector-curvature="0"
           style="fill:#003049" /><path
           d="m 109.646,28.638 h -5.171 v 3.516 h 5.097 l 0.024,3.066 h -5.121 v 6.782 h -3.803 v -16.43 h 9.894 z"
           id="path10"
           inkscape:connector-curvature="0"
           style="fill:#003049" /><path
           d="m 127.704,37.052 c -0.375,1.04 -0.932,1.933 -1.678,2.68 -0.78,0.797 -1.694,1.417 -2.747,1.859 -1.053,0.439 -2.234,0.659 -3.542,0.659 -1.242,0 -2.358,-0.171 -3.344,-0.511 -0.987,-0.341 -1.853,-0.836 -2.599,-1.483 -0.845,-0.764 -1.491,-1.683 -1.938,-2.756 -0.447,-1.071 -0.67,-2.239 -0.67,-3.502 0,-1.214 0.202,-2.344 0.609,-3.39 0.405,-1.047 0.998,-1.971 1.776,-2.769 0.746,-0.763 1.638,-1.361 2.673,-1.794 1.035,-0.433 2.199,-0.649 3.493,-0.649 1.374,0 2.608,0.221 3.703,0.662 1.093,0.439 2.013,1.059 2.76,1.856 0.695,0.749 1.213,1.621 1.553,2.618 0.339,0.997 0.511,2.07 0.511,3.218 0,1.163 -0.187,2.264 -0.56,3.302 z m -3.816,-5.509 c -0.232,-0.673 -0.551,-1.237 -0.957,-1.696 -0.406,-0.457 -0.887,-0.806 -1.443,-1.046 -0.554,-0.242 -1.148,-0.362 -1.776,-0.362 -0.647,0 -1.248,0.12 -1.803,0.362 -0.555,0.24 -1.04,0.59 -1.454,1.046 -0.415,0.458 -0.738,1.023 -0.971,1.696 -0.232,0.672 -0.347,1.441 -0.347,2.307 0,0.863 0.115,1.632 0.347,2.305 0.232,0.674 0.556,1.238 0.971,1.695 0.414,0.457 0.898,0.806 1.454,1.048 0.555,0.239 1.156,0.36 1.803,0.36 0.628,0 1.222,-0.121 1.776,-0.36 0.556,-0.242 1.037,-0.591 1.443,-1.048 0.405,-0.457 0.725,-1.021 0.957,-1.695 0.232,-0.673 0.348,-1.441 0.348,-2.305 0,-0.866 -0.115,-1.635 -0.348,-2.307 z"
           id="path12"
           inkscape:connector-curvature="0"
           style="fill:#003049" /><path
           d="m 138.561,42.001 c -0.613,-1.063 -1.133,-1.974 -1.563,-2.73 -0.428,-0.757 -0.792,-1.379 -1.088,-1.87 -0.298,-0.489 -0.541,-0.86 -0.73,-1.109 -0.19,-0.25 -0.351,-0.398 -0.484,-0.449 h -1.136 v 6.159 h -3.804 v -16.43 h 5.119 c 1.127,0 2.078,0.129 2.847,0.387 0.771,0.259 1.396,0.606 1.877,1.047 0.48,0.44 0.829,0.949 1.043,1.52 0.215,0.574 0.324,1.186 0.324,1.833 0,0.532 -0.084,1.019 -0.25,1.458 -0.168,0.442 -0.389,0.835 -0.664,1.186 -0.275,0.349 -0.588,0.656 -0.938,0.921 -0.35,0.265 -0.709,0.482 -1.077,0.647 v 0.026 c 0.449,0.267 1.061,1.039 1.84,2.318 0.779,1.28 1.774,2.975 2.984,5.086 z m -1.953,-12.714 c -0.403,-0.4 -0.952,-0.6 -1.643,-0.6 h -1.406 v 4.438 h 1.383 c 0.657,0 1.2,-0.221 1.629,-0.661 0.427,-0.439 0.642,-1.002 0.642,-1.683 0,-0.596 -0.203,-1.095 -0.605,-1.494 z"
           id="path14"
           inkscape:connector-curvature="0"
           style="fill:#003049" /><path
           d="m 157.124,42.001 v -8.377 c 0,-0.299 0,-0.606 0,-0.923 0,-0.315 0.007,-0.598 0.025,-0.847 h -0.025 c -0.034,0.083 -0.096,0.204 -0.187,0.361 -0.092,0.159 -0.195,0.32 -0.311,0.486 -0.117,0.167 -0.229,0.333 -0.337,0.499 -0.108,0.166 -0.195,0.298 -0.261,0.399 l -2.692,4.04 h -1.669 l -3.065,-4.189 c -0.184,-0.233 -0.366,-0.478 -0.55,-0.736 -0.182,-0.257 -0.364,-0.544 -0.547,-0.859 h -0.074 c 0.015,0.282 0.024,0.574 0.024,0.873 0,0.281 0,0.541 0,0.771 v 8.503 h -3.753 v -16.43 h 3.429 l 4.103,5.735 c 0.248,0.348 0.476,0.677 0.682,0.983 0.208,0.308 0.403,0.628 0.585,0.96 h 0.049 c 0.315,-0.632 0.713,-1.321 1.194,-2.069 l 3.678,-5.609 h 3.456 v 16.43 h -3.754 z"
           id="path16"
           inkscape:connector-curvature="0"
           style="fill:#003049" /><path
           d="m 173.778,42.001 -1.565,-3.915 h -5.32 l -1.492,3.915 h -3.729 l 6.439,-16.504 h 2.982 l 6.787,16.504 z m -3.605,-9.549 c -0.131,-0.399 -0.253,-0.768 -0.36,-1.109 -0.107,-0.339 -0.186,-0.644 -0.235,-0.91 h -0.025 c -0.05,0.283 -0.129,0.591 -0.236,0.923 -0.108,0.332 -0.228,0.681 -0.36,1.046 l -0.994,2.642 h 3.107 z"
           id="path18"
           inkscape:connector-curvature="0"
           style="fill:#003049" /></g><path
         d="m 15.455,16.729 c 3.186,-2.09 6.996,-3.306 11.086,-3.306 0.002,0 0.002,-0.817 0.002,-1.657 h -0.002 c -4.425,0 -8.542,1.319 -11.987,3.579 z"
         id="path22"
         inkscape:connector-curvature="0"
         style="fill:#f29107" /><g
         id="g26"><path
           d="M 9.246,51.182 C 4.79,46.73 2.033,40.571 2.033,33.765 2.033,23.206 8.671,14.202 17.989,10.72 L 17.436,9.23 c -9.922,3.707 -16.99,13.292 -16.99,24.535 0,7.247 2.937,13.805 7.682,18.544 z"
           id="path24"
           inkscape:connector-curvature="0"
           style="fill:#e2001a" /></g><path
         d="m 26.542,54.105 c -8.711,0 -16.14,-5.508 -19.012,-13.242 l -1.546,0.579 c 3.105,8.362 11.136,14.319 20.558,14.319 0.002,0 0.003,0 0.004,0 z"
         id="path28"
         inkscape:connector-curvature="0"
         style="fill:#05a29a" /><path
         d="m 45.941,53.289 c -4.971,4.967 -11.826,8.039 -19.398,8.039 -7.568,0 -14.421,-3.067 -19.392,-8.031 L 4.633,55.83 c 5.616,5.608 13.359,9.075 21.91,9.075 8.553,0 16.3,-3.469 21.915,-9.081 z"
         id="path30"
         inkscape:connector-curvature="0"
         style="fill:#009ee0" /><path
         d="m 26.542,47.876 c -7.771,0 -14.072,-6.318 -14.072,-14.111 0,-3.912 1.587,-7.45 4.149,-10.007 l -2.377,-2.394 c -3.175,3.168 -5.141,7.553 -5.141,12.401 0,9.66 7.81,17.492 17.441,17.492 0.002,0 0.004,0 0.006,0 z"
         id="path32"
         inkscape:connector-curvature="0"
         style="fill:#95be21" /><path
         d="m 20.781,39.564 2.21,-2.226 c -0.915,-0.914 -1.48,-2.179 -1.48,-3.574 0,-1.401 0.569,-2.669 1.487,-3.582 l -2.209,-2.226 c -1.489,1.483 -2.41,3.538 -2.41,5.808 0,2.266 0.919,4.319 2.402,5.8 z"
         id="path34"
         inkscape:connector-curvature="0"
         style="fill:#fecd0f" /><g
         id="g100"><path
           d="m 49.907,46.277 h 2.569 l -0.213,0.647 H 50.68 v 1.453 h 1.568 v 0.648 H 50.68 v 1.567 h 1.818 v 0.647 h -2.591 z"
           id="path36"
           inkscape:connector-curvature="0"
           style="fill:#003049" /><path
           d="m 56.915,50.939 c -0.507,0.286 -1.007,0.377 -1.479,0.377 -1.539,0 -2.406,-1.047 -2.406,-2.501 0,-1.431 1,-2.584 2.517,-2.584 0.523,0 0.964,0.112 1.244,0.248 v 0.739 c -0.36,-0.196 -0.75,-0.316 -1.229,-0.316 -1.097,0 -1.708,0.843 -1.708,1.883 0,1.099 0.641,1.86 1.671,1.86 0.471,0 0.839,-0.136 1.177,-0.331 z"
           id="path38"
           inkscape:connector-curvature="0"
           style="fill:#003049" /><path
           d="m 57.284,48.777 c 0,-1.506 1.008,-2.545 2.422,-2.545 1.42,0 2.415,1.055 2.415,2.545 0,1.538 -1.031,2.54 -2.415,2.54 -1.406,-10e-4 -2.422,-1.01 -2.422,-2.54 z m 4.02,0 c 0,-1.121 -0.604,-1.875 -1.598,-1.875 -0.957,0 -1.597,0.715 -1.597,1.875 0,1.161 0.64,1.869 1.597,1.869 0.957,0 1.598,-0.708 1.598,-1.869 z"
           id="path40"
           inkscape:connector-curvature="0"
           style="fill:#003049" /><path
           d="m 62.843,46.277 h 0.759 l 2.126,2.816 c 0.25,0.332 0.441,0.604 0.596,0.844 h 0.015 c -0.008,-0.265 -0.015,-0.542 -0.015,-0.851 v -2.809 h 0.772 v 4.963 h -0.684 l -2.208,-2.931 c -0.243,-0.314 -0.427,-0.587 -0.596,-0.82 h -0.015 c 0.015,0.218 0.021,0.475 0.021,0.798 v 2.953 h -0.772 v -4.963 z"
           id="path42"
           inkscape:connector-curvature="0"
           style="fill:#003049" /><path
           d="m 67.813,48.777 c 0,-1.506 1.007,-2.545 2.421,-2.545 1.421,0 2.414,1.055 2.414,2.545 0,1.538 -1.031,2.54 -2.414,2.54 -1.406,-10e-4 -2.421,-1.01 -2.421,-2.54 z m 4.02,0 c 0,-1.121 -0.604,-1.875 -1.598,-1.875 -0.957,0 -1.597,0.715 -1.597,1.875 0,1.161 0.641,1.869 1.597,1.869 0.956,0 1.598,-0.708 1.598,-1.869 z"
           id="path44"
           inkscape:connector-curvature="0"
           style="fill:#003049" /><path
           d="m 73.372,46.277 h 0.707 l 1.303,1.942 c 0.177,0.279 0.301,0.467 0.419,0.671 h 0.014 c 0.104,-0.197 0.236,-0.422 0.405,-0.701 l 1.199,-1.913 h 0.714 v 4.963 H 77.361 V 48.31 c 0,-0.218 0,-0.496 0.006,-0.714 h -0.006 c -0.082,0.165 -0.251,0.429 -0.34,0.573 l -1.037,1.664 H 75.615 L 74.475,48.13 C 74.371,47.981 74.239,47.792 74.144,47.604 H 74.13 c 0.015,0.211 0.015,0.497 0.015,0.693 v 2.944 h -0.773 z"
           id="path46"
           inkscape:connector-curvature="0"
           style="fill:#003049" /><path
           d="m 79.46,44.891 h 0.846 l -0.684,1.108 h -0.589 z m -0.389,1.386 h 0.772 v 4.963 h -0.772 z"
           id="path48"
           inkscape:connector-curvature="0"
           style="fill:#003049" /><path
           d="m 82.118,46.255 h 0.574 l 1.921,4.985 H 83.788 L 83.317,49.967 H 81.514 L 81.05,51.24 h -0.793 z m 0.956,3.065 -0.389,-1.13 c -0.14,-0.407 -0.207,-0.632 -0.258,-0.798 h -0.014 c -0.051,0.173 -0.125,0.399 -0.266,0.798 l -0.405,1.13 z"
           id="path50"
           inkscape:connector-curvature="0"
           style="fill:#003049" /><path
           d="m 86.374,46.277 h 1.082 c 0.464,0 0.803,0.066 1.083,0.218 0.479,0.256 0.758,0.731 0.758,1.386 0,0.581 -0.243,1.152 -0.892,1.431 -0.257,0.113 -0.581,0.181 -1.016,0.181 h -0.243 v 1.747 h -0.772 z m 1.067,2.568 c 0.265,0 0.464,-0.045 0.611,-0.127 0.294,-0.144 0.434,-0.438 0.434,-0.837 0,-0.354 -0.132,-0.647 -0.404,-0.813 -0.155,-0.091 -0.36,-0.143 -0.647,-0.143 h -0.288 v 1.92 z"
           id="path52"
           inkscape:connector-curvature="0"
           style="fill:#003049" /><path
           d="m 90.011,46.277 h 1.215 c 0.47,0 0.802,0.083 1.052,0.226 0.479,0.248 0.67,0.686 0.67,1.167 0,0.67 -0.375,1.107 -0.956,1.296 v 0.016 c 0.146,0.082 0.338,0.353 0.596,0.799 l 0.832,1.46 h -0.89 l -0.745,-1.318 c -0.235,-0.429 -0.411,-0.64 -0.543,-0.67 h -0.457 v 1.989 h -0.773 v -4.965 z m 1.185,2.32 c 0.243,0 0.42,-0.045 0.581,-0.135 0.221,-0.135 0.368,-0.376 0.368,-0.708 0,-0.279 -0.102,-0.52 -0.316,-0.654 -0.133,-0.106 -0.324,-0.174 -0.626,-0.174 h -0.419 v 1.672 h 0.412 z"
           id="path54"
           inkscape:connector-curvature="0"
           style="fill:#003049" /><path
           d="m 93.605,48.777 c 0,-1.506 1.008,-2.545 2.421,-2.545 1.42,0 2.414,1.055 2.414,2.545 0,1.538 -1.03,2.54 -2.414,2.54 -1.406,-10e-4 -2.421,-1.01 -2.421,-2.54 z m 4.019,0 c 0,-1.121 -0.604,-1.875 -1.598,-1.875 -0.957,0 -1.597,0.715 -1.597,1.875 0,1.161 0.641,1.869 1.597,1.869 0.957,0 1.598,-0.708 1.598,-1.869 z"
           id="path56"
           inkscape:connector-curvature="0"
           style="fill:#003049" /><path
           d="m 99.163,46.277 h 1.392 c 1.721,0 2.627,1.001 2.627,2.447 0,1.478 -0.979,2.516 -2.687,2.516 h -1.333 v -4.963 z m 1.339,4.316 c 1.362,0 1.855,-0.866 1.855,-1.861 0,-1.069 -0.611,-1.808 -1.87,-1.808 h -0.552 v 3.668 h 0.567 z"
           id="path58"
           inkscape:connector-curvature="0"
           style="fill:#003049" /><path
           d="m 104.021,50.322 c -0.109,-0.248 -0.161,-0.558 -0.161,-0.903 v -3.141 h 0.773 v 3.08 c 0,0.256 0.037,0.49 0.118,0.671 0.17,0.398 0.523,0.617 1.053,0.617 0.53,0 0.875,-0.219 1.044,-0.617 0.09,-0.181 0.125,-0.415 0.125,-0.686 v -3.065 h 0.773 v 3.141 c 0,0.354 -0.06,0.662 -0.169,0.918 -0.279,0.648 -0.899,0.979 -1.774,0.979 -0.898,0 -1.508,-0.331 -1.782,-0.994 z"
           id="path60"
           inkscape:connector-curvature="0"
           style="fill:#003049" /><path
           d="m 112.304,50.939 c -0.508,0.286 -1.008,0.377 -1.48,0.377 -1.538,0 -2.406,-1.047 -2.406,-2.501 0,-1.431 1,-2.584 2.517,-2.584 0.523,0 0.965,0.112 1.244,0.248 v 0.739 c -0.36,-0.196 -0.75,-0.316 -1.229,-0.316 -1.098,0 -1.708,0.843 -1.708,1.883 0,1.099 0.641,1.86 1.671,1.86 0.472,0 0.839,-0.136 1.178,-0.331 z"
           id="path62"
           inkscape:connector-curvature="0"
           style="fill:#003049" /><path
           d="m 113.814,46.925 h -1.406 v -0.647 h 3.71 l -0.207,0.647 h -1.325 v 4.315 h -0.773 v -4.315 z"
           id="path64"
           inkscape:connector-curvature="0"
           style="fill:#003049" /><path
           d="m 116.472,46.277 h 0.773 v 4.963 h -0.773 z"
           id="path66"
           inkscape:connector-curvature="0"
           style="fill:#003049" /><path
           d="m 117.65,46.277 h 0.839 l 1.06,2.809 c 0.147,0.391 0.258,0.723 0.361,1.033 h 0.015 c 0.095,-0.295 0.206,-0.626 0.368,-1.048 l 1.052,-2.794 h 0.832 l -1.958,4.993 h -0.611 z"
           id="path68"
           inkscape:connector-curvature="0"
           style="fill:#003049" /><path
           d="m 123.628,46.255 h 0.574 l 1.921,4.985 h -0.825 l -0.471,-1.273 h -1.804 l -0.463,1.273 h -0.795 z m 0.957,3.065 -0.39,-1.13 c -0.14,-0.407 -0.206,-0.632 -0.257,-0.798 h -0.016 c -0.051,0.173 -0.125,0.399 -0.264,0.798 l -0.406,1.13 z"
           id="path70"
           inkscape:connector-curvature="0"
           style="fill:#003049" /><path
           d="m 128.694,49.268 -1.635,-2.99 h 0.847 l 1.185,2.274 h 0.015 l 1.156,-2.274 h 0.839 l -1.627,3.005 v 1.958 h -0.78 z"
           id="path72"
           inkscape:connector-curvature="0"
           style="fill:#003049" /><path
           d="m 132.854,46.277 h 1.391 c 1.722,0 2.628,1.001 2.628,2.447 0,1.478 -0.979,2.516 -2.688,2.516 h -1.332 v -4.963 z m 1.34,4.316 c 1.361,0 1.854,-0.866 1.854,-1.861 0,-1.069 -0.611,-1.808 -1.869,-1.808 h -0.552 v 3.668 h 0.567 z"
           id="path74"
           inkscape:connector-curvature="0"
           style="fill:#003049" /><path
           d="m 137.588,46.277 h 0.772 v 4.963 h -0.772 z"
           id="path76"
           inkscape:connector-curvature="0"
           style="fill:#003049" /><path
           d="m 138.767,46.277 h 0.838 l 1.061,2.809 c 0.147,0.391 0.258,0.723 0.361,1.033 h 0.015 c 0.096,-0.295 0.206,-0.626 0.368,-1.048 l 1.052,-2.794 h 0.832 l -1.958,4.993 h -0.611 z"
           id="path78"
           inkscape:connector-curvature="0"
           style="fill:#003049" /><path
           d="m 143.699,46.277 h 2.569 l -0.214,0.647 h -1.583 v 1.453 h 1.567 v 0.648 h -1.567 v 1.567 h 1.818 v 0.647 h -2.591 v -4.962 z"
           id="path80"
           inkscape:connector-curvature="0"
           style="fill:#003049" /><path
           d="m 147.042,46.277 h 1.214 c 0.472,0 0.803,0.083 1.053,0.226 0.479,0.248 0.669,0.686 0.669,1.167 0,0.67 -0.375,1.107 -0.956,1.296 v 0.016 c 0.147,0.082 0.339,0.353 0.597,0.799 l 0.831,1.46 h -0.89 l -0.744,-1.318 c -0.236,-0.429 -0.412,-0.64 -0.545,-0.67 h -0.456 v 1.989 h -0.773 z m 1.185,2.32 c 0.243,0 0.42,-0.045 0.582,-0.135 0.221,-0.135 0.368,-0.376 0.368,-0.708 0,-0.279 -0.103,-0.52 -0.316,-0.654 -0.132,-0.106 -0.324,-0.174 -0.626,-0.174 h -0.419 v 1.672 h 0.411 z"
           id="path82"
           inkscape:connector-curvature="0"
           style="fill:#003049" /><path
           d="m 151.062,50.298 c 0.265,0.182 0.633,0.348 1.075,0.348 0.449,0 0.869,-0.173 0.869,-0.655 0,-1.047 -2.113,-0.919 -2.113,-2.418 0,-0.73 0.56,-1.341 1.531,-1.341 0.479,0 0.891,0.112 1.142,0.248 v 0.716 c -0.361,-0.188 -0.737,-0.293 -1.119,-0.293 -0.368,0 -0.729,0.151 -0.729,0.594 0,0.98 2.104,0.866 2.104,2.425 0,0.866 -0.699,1.395 -1.67,1.395 -0.56,0 -1.059,-0.167 -1.398,-0.414 z"
           id="path84"
           inkscape:connector-curvature="0"
           style="fill:#003049" /><path
           d="m 154.537,46.277 h 0.773 v 4.963 h -0.773 z"
           id="path86"
           inkscape:connector-curvature="0"
           style="fill:#003049" /><path
           d="m 156.245,46.277 h 2.576 l -0.214,0.647 h -1.589 v 1.453 h 1.561 v 0.648 h -1.561 v 2.214 h -0.773 z"
           id="path88"
           inkscape:connector-curvature="0"
           style="fill:#003049" /><path
           d="m 159.426,46.277 h 0.772 v 4.963 h -0.772 z"
           id="path90"
           inkscape:connector-curvature="0"
           style="fill:#003049" /><path
           d="m 164.8,50.939 c -0.508,0.286 -1.009,0.377 -1.479,0.377 -1.539,0 -2.407,-1.047 -2.407,-2.501 0,-1.431 1,-2.584 2.517,-2.584 0.521,0 0.964,0.112 1.244,0.248 v 0.739 c -0.36,-0.196 -0.751,-0.316 -1.229,-0.316 -1.097,0 -1.708,0.843 -1.708,1.883 0,1.099 0.641,1.86 1.672,1.86 0.47,0 0.838,-0.136 1.177,-0.331 z"
           id="path92"
           inkscape:connector-curvature="0"
           style="fill:#003049" /><path
           d="m 166.729,46.255 h 0.574 l 1.921,4.985 H 168.4 l -0.471,-1.273 h -1.803 l -0.464,1.273 h -0.795 z m 0.957,3.065 -0.39,-1.13 c -0.139,-0.407 -0.206,-0.632 -0.258,-0.798 h -0.015 c -0.051,0.173 -0.124,0.399 -0.265,0.798 l -0.405,1.13 z"
           id="path94"
           inkscape:connector-curvature="0"
           style="fill:#003049" /><path
           d="m 169.638,46.277 h 1.391 c 1.723,0 2.627,1.001 2.627,2.447 0,1.478 -0.978,2.516 -2.687,2.516 h -1.332 v -4.963 z m 1.34,4.316 c 1.361,0 1.854,-0.866 1.854,-1.861 0,-1.069 -0.61,-1.808 -1.869,-1.808 h -0.552 v 3.668 h 0.567 z"
           id="path96"
           inkscape:connector-curvature="0"
           style="fill:#003049" /><path
           d="m 175.579,46.255 h 0.575 l 1.92,4.985 h -0.824 l -0.471,-1.273 h -1.803 l -0.464,1.273 h -0.795 z m 0.957,3.065 -0.389,-1.13 c -0.141,-0.407 -0.207,-0.632 -0.258,-0.798 h -0.015 c -0.051,0.173 -0.125,0.399 -0.265,0.798 l -0.404,1.13 z"
           id="path98"
           inkscape:connector-curvature="0"
           style="fill:#003049" /></g></g><g
       id="g108"><rect
         x="100.671"
         width="34.752998"
         height="9.2919998"
         id="rect104"
         y="0"
         style="fill:#0664ab" /><rect
         x="135.424"
         width="42.479"
         height="9.2919998"
         id="rect106"
         y="0"
         style="fill:#e43539" /></g></g></svg>