<?xml version="1.0" encoding="UTF-8" standalone="no"?>
<svg
   xmlns:dc="http://purl.org/dc/elements/1.1/"
   xmlns:cc="http://creativecommons.org/ns#"
   xmlns:rdf="http://www.w3.org/1999/02/22-rdf-syntax-ns#"
   xmlns:svg="http://www.w3.org/2000/svg"
   xmlns="http://www.w3.org/2000/svg"
   xmlns:sodipodi="http://sodipodi.sourceforge.net/DTD/sodipodi-0.dtd"
   xmlns:inkscape="http://www.inkscape.org/namespaces/inkscape"
   id="svg"
   version="1.1"
   width="153.63875"
   height="208.13882"
   style="display:block"
   inkscape:version="0.91 r13725"
   sodipodi:docname="ciep.svg">
  <metadata
     id="metadata12">
    <rdf:RDF>
      <cc:Work
         rdf:about="">
        <dc:format>image/svg+xml</dc:format>
        <dc:type
           rdf:resource="http://purl.org/dc/dcmitype/StillImage" />
        <dc:title></dc:title>
      </cc:Work>
    </rdf:RDF>
  </metadata>
  <defs
     id="defs10" />
  <sodipodi:namedview
     pagecolor="#ffffff"
     bordercolor="#666666"
     borderopacity="1"
     objecttolerance="10"
     gridtolerance="10"
     guidetolerance="10"
     inkscape:pageopacity="0"
     inkscape:pageshadow="2"
     inkscape:window-width="695"
     inkscape:window-height="480"
     id="namedview8"
     showgrid="false"
     fit-margin-top="0"
     fit-margin-left="0"
     fit-margin-right="0"
     fit-margin-bottom="0"
     inkscape:zoom="0.12333333"
     inkscape:cx="1076.8086"
     inkscape:cy="-676.7599"
     inkscape:window-x="0"
     inkscape:window-y="0"
     inkscape:window-maximized="0"
     inkscape:current-layer="svg" />
  <g
     id="svgg"
     transform="translate(-123.19142,-50.209387)">
    <path
       id="path0"
       d="m 159.167,238.758 0,1.092 -0.977,-0.111 c -1.838,-0.208 -2.607,0.557 -2.607,2.594 0,2.187 0.538,2.667 2.986,2.667 2.03,0 1.931,0.205 1.931,-3.989 l 0,-3.344 -0.667,0 -0.666,0 0,1.091 m 36.168,-0.677 c -0.316,0.381 -0.068,1.063 0.433,1.188 0.648,0.163 1.196,-0.432 0.932,-1.012 -0.222,-0.489 -1.02,-0.591 -1.365,-0.176 m 17.443,-0.137 c -0.415,0.416 0.033,1.389 0.639,1.389 0.692,0 1.097,-1.164 0.486,-1.399 -0.35,-0.134 -0.986,-0.128 -1.125,0.01 m -86.844,0.31 c -1.673,0.872 -1.826,5.439 -0.215,6.421 0.713,0.435 3.519,0.482 3.68,0.061 0.296,-0.771 0.17,-0.861 -1.216,-0.868 -2.072,-0.009 -2.307,-0.341 -2.154,-3.052 0.086,-1.515 0.249,-1.649 2.003,-1.649 0.929,0 1.302,-0.06 1.304,-0.209 10e-4,-0.114 0.047,-0.377 0.102,-0.583 0.129,-0.478 -2.636,-0.574 -3.504,-0.121 M 169,241.5 l 0,3.5 0.583,0 0.584,0 0,-3.5 0,-3.5 -0.584,0 -0.583,0 0,3.5 m 47.708,-2.947 c -0.742,1.09 0.344,1.181 1.355,0.114 l 0.632,-0.667 -0.806,0.001 c -0.724,0.001 -0.843,0.057 -1.181,0.552 m -75.583,0.062 c -0.507,0.132 -0.435,5.572 0.081,6.052 0.607,0.566 2.308,0.423 2.477,-0.209 0.118,-0.446 0.104,-0.458 -0.581,-0.458 -0.979,0 -1.102,-0.19 -1.102,-1.7 l 0,-1.3 0.814,0 c 0.703,0 0.827,-0.051 0.914,-0.375 0.198,-0.738 0.144,-0.792 -0.811,-0.792 l -0.917,0 0,-0.666 c 0,-0.689 -0.102,-0.754 -0.875,-0.552 m 50.989,0.002 c -0.482,0.125 -0.358,5.748 0.136,6.121 0.454,0.343 2.417,0.364 2.417,0.026 0,-0.13 0.045,-0.355 0.101,-0.5 0.083,-0.217 -0.035,-0.264 -0.661,-0.264 -0.96,0 -1.107,-0.242 -1.107,-1.822 l 0,-1.178 0.814,0 c 0.703,0 0.827,-0.051 0.914,-0.375 0.198,-0.738 0.144,-0.792 -0.811,-0.792 l -0.917,0 0,-0.666 c 0,-0.691 -0.1,-0.753 -0.886,-0.55 m -61.071,1.305 c -0.849,0.357 -0.96,0.648 -0.96,2.515 0,2.352 0.123,2.48 2.38,2.48 l 1.62,0 0.053,-0.459 0.053,-0.458 -1.249,0 c -2.479,0 -2.618,-1.13 -0.148,-1.202 l 1.625,-0.048 0.051,-0.816 c 0.12,-1.884 -1.486,-2.827 -3.425,-2.012 m 5.526,-0.107 c -1.169,0.3 -1.402,0.858 -1.402,3.346 l 0,1.839 0.666,0 0.667,0 0,-1.883 c 0,-2.113 0.076,-2.284 1.02,-2.284 1.153,0 1.147,-0.012 1.147,2.185 l 0,1.982 0.666,0 0.667,0 0,-1.839 c 0,-1.972 -0.219,-2.832 -0.802,-3.144 -0.454,-0.243 -2.005,-0.362 -2.629,-0.202 m 12.108,0.151 c -1.174,0.64 -1.413,3.816 -0.36,4.769 0.702,0.636 3.092,0.538 3.785,-0.155 0.556,-0.556 0.602,-3.442 0.066,-4.124 -0.618,-0.785 -2.471,-1.045 -3.491,-0.49 m 13.845,-0.133 c -1.095,0.259 -1.272,0.622 -1.272,2.604 0,2.346 0.213,2.561 2.542,2.562 l 1.541,0.001 0,-0.5 0,-0.5 -1.166,0 c -0.945,0 -1.23,-0.063 -1.5,-0.333 -0.693,-0.693 -0.472,-0.834 1.312,-0.834 l 1.646,0 0.106,-0.53 c 0.379,-1.895 -1.035,-2.983 -3.209,-2.47 m 9.901,-0.026 c -0.964,0.216 -1.256,0.966 -1.256,3.218 l 0,1.975 0.666,0 0.667,0 0,-1.982 c 0,-2.197 -0.006,-2.185 1.147,-2.185 0.944,0 1.02,0.171 1.02,2.284 l 0,1.883 0.583,0 0.583,0 0,-2.13 c 0,-2.971 -0.764,-3.657 -3.41,-3.063 M 183,239.765 c -1.173,0.433 -1.5,0.999 -1.5,2.593 0,2.143 0.512,2.642 2.715,2.642 1.31,0 1.42,-0.026 1.508,-0.362 0.147,-0.565 0.005,-0.638 -1.233,-0.638 -0.934,0 -1.221,-0.064 -1.49,-0.333 -0.694,-0.694 -0.472,-0.834 1.326,-0.834 l 1.659,0 0.112,-0.599 c 0.318,-1.694 -1.427,-3.085 -3.097,-2.469 m 15.387,0.16 c -0.717,0.368 -1.054,1.147 -1.053,2.434 0.001,1.862 0.714,2.548 2.541,2.445 0.828,-0.047 0.959,-0.013 0.959,0.242 -0.001,0.399 -0.653,0.621 -1.825,0.621 -0.967,0 -1.425,0.461 -1.055,1.06 0.129,0.209 2.71,0.029 3.246,-0.226 1.309,-0.622 1.435,-5.604 0.164,-6.437 -0.608,-0.398 -2.317,-0.478 -2.977,-0.139 m 17.738,-0.139 c -1.435,0.217 -1.968,3.469 -0.804,4.907 0.29,0.358 0.442,0.39 1.845,0.39 2.135,0 2.334,-0.225 2.334,-2.644 0,-2.522 -0.685,-3.06 -3.375,-2.653 m 5.465,0.016 c -1.028,0.218 -1.09,0.382 -1.09,2.884 l 0,2.314 0.583,0 0.584,0 0,-1.896 c 0,-2.176 0.076,-2.32 1.196,-2.239 l 0.72,0.052 0.047,2.041 0.047,2.042 0.661,0 0.662,0 -0.017,-1.958 c -0.026,-3.163 -0.704,-3.81 -3.393,-3.24 m -76.524,0.348 c -0.633,0.386 -0.733,0.809 -0.733,3.121 l 0,1.729 0.662,0 0.661,0 0.047,-1.958 0.047,-1.959 0.833,-0.083 c 0.799,-0.08 0.836,-0.106 0.886,-0.625 l 0.052,-0.542 -0.969,0.001 c -0.656,0 -1.136,0.102 -1.486,0.316 m 31.101,-0.189 c 0,0.123 0.229,0.751 1.107,3.039 0.229,0.596 0.495,1.293 0.59,1.55 0.325,0.87 1.403,0.595 1.833,-0.467 0.186,-0.458 0.405,-0.983 0.487,-1.166 0.081,-0.184 0.327,-0.821 0.545,-1.417 0.218,-0.596 0.452,-1.215 0.518,-1.375 0.104,-0.249 0.026,-0.292 -0.536,-0.292 -0.737,0 -0.823,0.116 -1.39,1.881 -0.586,1.82 -0.596,1.818 -1.261,-0.214 -0.544,-1.665 -0.546,-1.667 -1.247,-1.667 -0.355,0 -0.646,0.058 -0.646,0.128 m 11.041,0.303 c -1.212,0.955 -0.582,2.437 1.125,2.647 1.298,0.16 1.5,0.238 1.5,0.582 0,0.414 -0.319,0.507 -1.745,0.507 -1.244,0 -1.421,0.095 -1.421,0.764 0,0.38 3.294,0.328 3.772,-0.059 1.284,-1.041 0.781,-2.582 -0.907,-2.78 -1.328,-0.156 -1.532,-0.236 -1.532,-0.603 0,-0.291 0.126,-0.322 1.317,-0.322 l 1.317,0 0.183,-0.525 c 0.101,-0.289 0.183,-0.551 0.183,-0.583 0,-0.332 -3.311,-0.007 -3.792,0.372 m 8.125,2.153 0,2.583 0.667,0 0.667,0 0,-2.583 0,-2.584 -0.667,0 -0.667,0 0,2.584 m 8.105,-2.209 c -0.2,0.75 -0.159,0.777 1.27,0.827 1.229,0.043 1.38,0.084 1.423,0.382 0.045,0.307 -0.031,0.329 -0.97,0.276 -2.093,-0.117 -3.197,1.559 -1.888,2.868 0.547,0.547 3.762,0.69 3.959,0.175 0.17,-0.441 0.113,-3.736 -0.07,-4.079 -0.467,-0.871 -3.512,-1.239 -3.724,-0.449 m 5.622,-0.118 c -0.659,0.289 -0.893,0.93 -0.893,2.446 0,2.001 0.454,2.455 2.458,2.46 L 212,245 l 0,-0.5 0,-0.5 -1,0 c -1.327,0 -1.667,-0.316 -1.667,-1.551 0,-1.236 0.193,-1.427 1.5,-1.485 l 1.084,-0.047 0.052,-0.542 0.052,-0.542 -1.219,0.014 c -0.67,0.007 -1.454,0.117 -1.742,0.243 m 3.773,2.327 0,2.583 0.584,0 0.583,0 0,-2.583 0,-2.584 -0.583,0 -0.584,0 0,2.584 m -79.924,-1.557 c 0.979,0.446 0.579,1.14 -0.659,1.14 -0.972,0 -1.083,-0.034 -1.083,-0.333 0,-0.78 0.893,-1.193 1.742,-0.807 m 17.725,-0.013 c 0.781,0.272 0.997,2.939 0.261,3.222 -1.247,0.478 -1.895,-0.089 -1.895,-1.658 0,-1.237 0.106,-1.465 0.75,-1.624 0.183,-0.045 0.341,-0.09 0.35,-0.101 0.009,-0.011 0.249,0.062 0.534,0.161 m 7.955,0.061 0.578,0.242 0,1.425 0,1.425 -0.905,0 c -1.241,0 -1.429,-0.221 -1.429,-1.687 0,-1.152 0.005,-1.165 0.542,-1.398 0.671,-0.291 0.535,-0.291 1.214,-0.007 m 5.486,-0.048 c 0.988,0.45 0.579,1.14 -0.676,1.14 l -1.102,0 0.111,-0.458 c 0.195,-0.812 0.821,-1.067 1.667,-0.682 m 20.331,-0.031 c 0.329,0.125 0.427,0.279 0.427,0.667 l 0,0.504 -1.101,0 -1.101,0 0.114,-0.458 c 0.064,-0.252 0.128,-0.466 0.144,-0.475 0.705,-0.437 0.908,-0.469 1.517,-0.238 m 15.902,0.021 c 0.525,0.183 0.525,0.183 0.525,1.41 0,1.378 -0.126,1.541 -1.166,1.503 -0.92,-0.033 -1,-0.155 -1,-1.518 l 0,-1.235 0.541,-0.157 c 0.298,-0.086 0.55,-0.163 0.559,-0.171 0.009,-0.009 0.253,0.067 0.541,0.168 m 17.317,-0.006 c 1.274,0.444 0.916,3.323 -0.413,3.323 -1.44,0 -1.857,-3.057 -0.462,-3.384 0.183,-0.043 0.341,-0.086 0.35,-0.097 0.009,-0.011 0.246,0.06 0.525,0.158 m -11.722,1.924 c 0.169,0.065 0.264,0.305 0.264,0.666 l 0,0.566 -0.82,0 c -0.451,0 -0.938,-0.046 -1.083,-0.101 -0.371,-0.142 -0.349,-1.019 0.028,-1.117 0.452,-0.119 1.319,-0.126 1.611,-0.014"
       inkscape:connector-curvature="0"
       style="fill:#808080;fill-rule:evenodd;stroke:none" />
    <path
       id="path1"
       d="m 217.605,156.708 c -0.168,0.628 -0.117,1.744 0.103,2.239 0.148,0.334 0.212,1.702 0.22,4.72 0.006,2.337 0.072,5.318 0.148,6.625 0.158,2.729 -0.097,2.477 2.246,2.215 1.42,-0.159 4.318,-0.453 9.095,-0.921 1.375,-0.135 3.512,-0.325 4.75,-0.422 1.237,-0.097 3.525,-0.285 5.083,-0.419 7.84,-0.671 8.788,-0.744 15.167,-1.164 0.641,-0.043 2.179,-0.153 3.416,-0.246 1.238,-0.092 3.218,-0.23 4.4,-0.305 2,-0.128 2.171,-0.165 2.458,-0.542 0.17,-0.223 0.384,-0.495 0.476,-0.606 0.091,-0.111 0.166,-0.241 0.166,-0.289 0,-0.048 0.288,-0.557 0.639,-1.132 1.185,-1.938 3.861,-6.989 3.861,-7.287 0,-0.175 -8.273,-0.987 -13.666,-1.341 -1.513,-0.099 -4.288,-0.286 -6.167,-0.415 -9.244,-0.636 -20.611,-1.089 -27.272,-1.087 l -5.022,0.002 -0.101,0.375 m -42.355,1.232 c -0.988,0.056 -5.29,0.472 -8.333,0.807 -1.192,0.132 -2.992,0.319 -4,0.417 -1.719,0.166 -3.209,0.344 -7.667,0.915 -1.008,0.129 -2.508,0.317 -3.333,0.418 -1.65,0.202 -4.141,0.55 -6.584,0.919 -0.871,0.132 -2.183,0.322 -2.916,0.421 -0.734,0.1 -2.009,0.291 -2.834,0.424 -0.825,0.134 -2.212,0.359 -3.083,0.5 -0.871,0.141 -1.945,0.328 -2.388,0.415 -0.442,0.086 -0.986,0.157 -1.208,0.157 -0.511,0 -0.514,0.281 -0.013,1.2 0.215,0.394 0.533,0.979 0.708,1.3 0.175,0.321 0.365,0.621 0.422,0.667 0.057,0.046 0.246,0.346 0.421,0.667 0.417,0.768 3.366,5.126 3.955,5.844 0.117,0.143 0.54,0.706 0.938,1.25 0.399,0.544 0.777,1.026 0.841,1.072 0.065,0.046 0.557,0.61 1.095,1.254 1.433,1.713 1.936,2.257 4.12,4.46 l 1.974,1.992 0.859,-0.107 c 0.996,-0.125 1.944,-0.299 6.359,-1.171 0.642,-0.127 1.73,-0.317 2.417,-0.424 0.688,-0.106 1.737,-0.301 2.333,-0.432 0.596,-0.132 1.234,-0.238 1.417,-0.237 0.183,0.002 0.858,-0.107 1.5,-0.242 0.642,-0.135 1.729,-0.328 2.417,-0.43 0.687,-0.102 1.85,-0.292 2.583,-0.424 0.733,-0.131 2.533,-0.427 4,-0.658 4.439,-0.699 5.608,-0.886 7,-1.117 l 1.333,-0.222 -0.052,-0.496 c -0.057,-0.544 -0.334,-1.422 -0.971,-3.079 -0.57,-1.48 -0.72,-1.841 -0.992,-2.389 -0.129,-0.259 -0.235,-0.572 -0.235,-0.694 0,-0.123 -0.107,-0.436 -0.237,-0.695 -0.243,-0.482 -0.372,-0.925 -0.865,-2.972 -0.477,-1.98 -0.436,-7.804 0.061,-8.603 0.451,-0.726 0.461,-0.823 0.083,-0.784 -0.16,0.017 -0.667,0.051 -1.125,0.077 m 83.167,15.171 c -0.642,0.026 -2.517,0.157 -4.167,0.293 -1.65,0.135 -4.2,0.327 -5.667,0.426 -2.824,0.191 -6.934,0.525 -11.333,0.92 -1.467,0.132 -3.679,0.321 -4.917,0.42 -2.622,0.211 -6.347,0.572 -9.416,0.914 -1.192,0.133 -2.738,0.286 -3.436,0.341 l -1.268,0.099 -0.113,3.78 c -0.062,2.079 -0.151,4.192 -0.199,4.696 l -0.087,0.917 0.718,0.318 c 2.894,1.281 6.381,5.073 7.523,8.182 0.634,1.725 1.107,3.349 1.109,3.812 0.003,0.535 0.429,0.545 1.558,0.036 0.29,-0.131 0.697,-0.287 0.903,-0.346 0.228,-0.066 0.411,-0.282 0.468,-0.555 0.052,-0.246 0.202,-0.694 0.334,-0.995 0.132,-0.301 0.24,-0.62 0.24,-0.709 0,-0.089 0.187,-0.55 0.416,-1.025 0.23,-0.475 0.417,-0.957 0.417,-1.071 0,-0.114 0.095,-0.306 0.21,-0.427 0.116,-0.121 0.306,-0.435 0.422,-0.698 2.248,-5.074 9.102,-8.413 18.569,-9.046 l 1.617,-0.109 2.216,-2.238 c 2.996,-3.027 2.936,-2.962 4.116,-4.379 0.572,-0.688 1.167,-1.401 1.32,-1.584 0.452,-0.539 1.297,-1.649 1.429,-1.875 0.124,-0.214 0.051,-0.217 -2.982,-0.097 m -81.5,8.743 c -0.747,0.132 -2.18,0.371 -4.917,0.819 -0.504,0.083 -1.179,0.19 -1.5,0.238 -1.229,0.185 -2.801,0.441 -4.083,0.666 -0.734,0.129 -1.896,0.323 -2.584,0.432 -0.687,0.11 -1.775,0.302 -2.416,0.428 -0.642,0.126 -1.336,0.229 -1.542,0.23 -0.575,0 -0.445,0.407 0.205,0.642 1.717,0.621 2.34,2.485 1.739,5.203 -0.548,2.481 -0.579,2.92 -0.213,3.045 0.171,0.058 0.536,0.251 0.811,0.429 0.901,0.582 0.888,0.625 0.947,-3.194 0.089,-5.844 0.43,-6.101 8.136,-6.117 8.523,-0.017 8.5,-0.045 8.5,10.079 l 0,6.36 0.644,0.193 c 0.952,0.285 0.993,0.263 1.107,-0.599 0.584,-4.428 2.233,-8.204 4.804,-10.997 l 0.649,-0.705 -0.446,-0.17 c -0.246,-0.093 -0.545,-0.169 -0.665,-0.169 -0.121,0 -0.49,-0.114 -0.822,-0.252 -0.331,-0.139 -0.639,-0.255 -0.684,-0.257 -1.736,-0.115 -4.428,-3.095 -5.224,-5.783 -0.235,-0.793 -0.543,-0.858 -2.446,-0.521 m -18.459,67.493 c -0.355,0.207 -0.387,1.033 -0.051,1.312 0.498,0.413 1.005,0.146 1.063,-0.559 0.069,-0.846 -0.335,-1.147 -1.012,-0.753 m 39.709,0.924 0,1.105 -0.625,-0.09 c -2.06,-0.296 -2.875,0.426 -2.875,2.547 0,2.186 0.916,2.952 3.323,2.778 1.536,-0.111 1.51,-0.041 1.51,-4.06 l 0,-3.384 -0.667,0 -0.666,0 0,1.104 m 9.833,2.656 0,3.761 0.542,-0.052 0.541,-0.053 0.045,-3.708 0.045,-3.708 -0.586,0 -0.587,0 0,3.76 m 46.125,-3.645 c -0.506,0.131 -0.403,1.35 0.125,1.483 0.687,0.172 0.917,-0.018 0.917,-0.76 0,-0.369 -0.069,-0.672 -0.153,-0.672 -0.085,0 -0.253,-0.028 -0.375,-0.063 -0.122,-0.035 -0.354,-0.03 -0.514,0.012 M 138,253.083 l 0,3.584 2.244,0 c 2.42,0 2.589,-0.065 2.589,-0.989 0,-0.327 -0.091,-0.345 -1.833,-0.345 l -1.833,0 0,-0.916 0,-0.917 1.647,0 c 1.567,0 1.652,-0.018 1.748,-0.375 0.21,-0.785 0.196,-0.792 -1.645,-0.792 l -1.75,0 0,-0.833 0,-0.833 1.73,0 c 1.654,0 1.735,-0.017 1.831,-0.375 0.215,-0.801 0.24,-0.792 -2.311,-0.792 l -2.417,0 0,3.583 m 79.833,0.01 0,3.594 0.625,-0.052 0.625,-0.052 0.049,-1.291 0.049,-1.292 0.701,-0.007 c 2.071,-0.022 2.945,-0.583 3.079,-1.976 0.185,-1.931 -0.576,-2.517 -3.272,-2.517 l -1.856,0 0,3.593 m -52.208,-2.978 c -0.515,0.134 -0.433,5.425 0.092,5.95 0.535,0.536 2.096,0.75 2.403,0.33 0.404,-0.553 0.269,-0.895 -0.356,-0.895 -1.056,0 -1.097,-0.061 -1.097,-1.601 l 0,-1.399 0.74,0 c 0.798,0 0.825,-0.02 0.99,-0.708 0.109,-0.458 0.108,-0.459 -0.81,-0.459 l -0.92,0 0,-0.666 c 0,-0.696 -0.162,-0.782 -1.042,-0.552 m 63.167,0 c -0.262,0.068 -0.292,0.338 -0.292,2.639 0,3.419 0.156,3.714 2,3.791 l 0.917,0.038 0.052,-0.541 c 0.05,-0.518 0.026,-0.542 -0.528,-0.542 -1.067,0 -1.108,-0.059 -1.108,-1.601 l 0,-1.399 0.834,0 0.833,0 0,-0.583 0,-0.584 -0.833,0 -0.834,0 0,-0.666 c 0,-0.696 -0.162,-0.782 -1.041,-0.552 m -7.379,0.778 c 0.949,0.695 0.23,1.774 -1.183,1.774 l -1.063,0 0,-1 0,-1 0.968,0 c 0.552,0 1.101,0.097 1.278,0.226 m -95.267,0.388 c -1.041,0.12 -1.366,0.649 -1.443,2.347 -0.111,2.422 0.557,3.108 2.922,3.005 l 1.125,-0.05 0.052,-0.541 0.052,-0.542 -1.177,0 c -0.955,0 -1.24,-0.063 -1.51,-0.333 -0.688,-0.688 -0.468,-0.834 1.254,-0.834 1.572,0 1.589,-0.004 1.759,-0.451 0.366,-0.964 -0.349,-2.549 -1.151,-2.549 -0.176,0 -0.536,-0.027 -0.8,-0.061 -0.263,-0.033 -0.751,-0.029 -1.083,0.009 m 5.15,0.004 c -1.116,0.122 -1.296,0.56 -1.296,3.154 l 0,2.228 0.583,0 0.584,0 0,-1.98 c 0,-2.097 0.049,-2.24 0.834,-2.425 1.026,-0.243 1.241,0.132 1.332,2.326 l 0.084,1.995 0.583,0 0.583,0 0,-2.205 c 0,-2.936 -0.493,-3.401 -3.287,-3.093 m 17.804,0.027 c -0.991,0.16 -1.335,0.738 -1.409,2.372 -0.104,2.284 0.444,2.983 2.34,2.983 2.047,0 2.469,-0.48 2.469,-2.806 0,-2.262 -0.915,-2.949 -3.4,-2.549 m 21.198,-0.03 c -2.209,0.252 -2.077,4.908 0.15,5.276 1.106,0.183 2.385,0.129 2.388,-0.1 10e-4,-0.114 0.045,-0.369 0.098,-0.565 0.091,-0.339 0.03,-0.359 -1.239,-0.417 -1.484,-0.067 -1.439,-0.048 -1.591,-0.684 l -0.11,-0.459 1.669,0 1.67,0 0,-1.091 c 0,-1.179 -0.435,-1.909 -1.138,-1.909 -0.176,0 -0.536,-0.027 -0.799,-0.061 -0.264,-0.033 -0.758,-0.029 -1.098,0.01 m 5.119,0.005 c -1.109,0.162 -1.25,0.51 -1.25,3.075 l 0,2.305 0.583,0 0.583,0 0.003,-1.959 c 0.003,-2.131 0.048,-2.297 0.666,-2.452 0.888,-0.223 1.075,0.171 1.141,2.406 l 0.059,2.023 0.524,-0.051 0.524,-0.051 0.047,-1.958 c 0.053,-2.214 0.35,-2.749 1.288,-2.321 0.392,0.179 0.406,0.246 0.451,2.232 l 0.047,2.047 0.584,0 0.583,0 0.046,-2.193 c 0.061,-2.844 -0.082,-3.076 -1.91,-3.105 -0.692,-0.01 -1.287,0.064 -1.425,0.178 -0.133,0.11 -0.303,0.133 -0.39,0.053 -0.199,-0.185 -1.509,-0.324 -2.154,-0.229 m 26.217,0.033 c -1.683,0.34 -2.092,3.809 -0.577,4.887 0.626,0.446 3.275,0.666 3.279,0.272 10e-4,-0.126 0.045,-0.39 0.098,-0.586 0.091,-0.339 0.031,-0.359 -1.26,-0.418 -1.392,-0.063 -1.666,-0.202 -1.671,-0.85 -0.003,-0.257 0.182,-0.292 1.563,-0.292 1.725,0 1.767,-0.026 1.767,-1.105 0,-1.557 -1.25,-2.302 -3.199,-1.908 m 36.96,0.007 c -1.048,0.209 -1.261,0.617 -1.261,2.416 0,2.176 0.283,2.507 2.144,2.507 1.284,0 1.308,0.007 1.147,0.361 -0.199,0.437 -0.576,0.55 -1.832,0.553 -1.318,0.004 -1.514,0.899 -0.24,1.09 2.543,0.381 3.347,-0.344 3.422,-3.087 0.097,-3.545 -0.644,-4.387 -3.38,-3.84 m 5.739,-0.019 c -1.702,0.317 -2.315,3.342 -0.986,4.874 0.594,0.686 2.891,0.696 3.619,0.017 l 0.534,-0.499 0,-1.727 c 0,-1.832 -0.345,-2.636 -1.132,-2.642 -0.156,-10e-4 -0.547,-0.031 -0.868,-0.066 -0.321,-0.036 -0.846,-0.017 -1.167,0.043 m 5.39,0.011 c -1.201,0.202 -1.223,0.254 -1.223,2.951 l 0,2.397 0.583,0 0.584,0 0,-2.088 0,-2.087 0.458,-0.175 c 0.281,-0.107 0.652,-0.119 0.958,-0.031 l 0.5,0.142 0.084,2.078 0.083,2.077 0.583,0 0.584,0 0,-2.287 c 0,-2.949 -0.514,-3.428 -3.194,-2.977 m -105.427,0.274 c -0.918,0.498 -1.202,3.417 -0.421,4.323 0.506,0.587 2.929,1.064 3.175,0.626 0.462,-0.824 0.316,-1.003 -0.876,-1.07 -1.434,-0.081 -1.424,-0.07 -1.424,-1.555 0,-1.471 -0.014,-1.455 1.237,-1.488 1.125,-0.029 1.093,-0.013 1.243,-0.637 l 0.11,-0.459 -1.295,0.007 c -0.815,0.004 -1.463,0.098 -1.749,0.253 m 9.498,0.001 c -0.523,0.284 -0.71,0.833 -0.572,1.683 0.125,0.771 0.458,0.993 1.681,1.121 2.079,0.217 1.811,1.102 -0.334,1.102 -1.261,0 -1.402,0.087 -1.402,0.867 0,0.997 4.063,0.102 4.258,-0.938 0.262,-1.392 -0.096,-1.815 -1.762,-2.083 -1.96,-0.316 -1.759,-0.929 0.304,-0.929 l 1.283,0 0.052,-0.542 0.052,-0.542 -1.552,0.007 c -1.046,0.005 -1.701,0.087 -2.008,0.254 m 4.41,2.364 0.046,2.625 0.625,0.052 0.625,0.052 0,-2.677 0,-2.677 -0.671,0 -0.671,0 0.046,2.625 m 2.689,-2.381 c -1.402,0.982 -0.785,2.536 1.12,2.821 2.113,0.317 1.839,1.095 -0.388,1.099 -0.92,0.002 -1.292,0.063 -1.294,0.211 -10e-4,0.115 -0.047,0.377 -0.103,0.584 -0.2,0.746 3.292,0.457 3.98,-0.329 0.929,-1.061 0.196,-2.393 -1.441,-2.619 -2.084,-0.288 -1.922,-0.932 0.232,-0.92 1.368,0.009 1.49,-0.063 1.499,-0.882 0.003,-0.318 -3.145,-0.287 -3.605,0.035 m 21.712,0.131 c -0.204,0.762 -0.155,0.81 0.71,0.695 0.889,-0.118 2.018,0.157 2.018,0.492 0,0.139 -0.353,0.203 -1.125,0.204 -1.794,0.002 -2.439,0.702 -2.136,2.317 0.222,1.18 3.483,1.751 4.293,0.752 0.412,-0.508 0.387,-3.466 -0.036,-4.123 -0.514,-0.801 -3.527,-1.073 -3.724,-0.337 m 5.478,-0.182 c -1.518,0.83 -0.937,2.671 0.905,2.863 1.206,0.126 1.345,0.189 1.345,0.603 0,0.412 -0.318,0.508 -1.684,0.508 -1.188,0 -1.857,0.526 -1.334,1.048 0.259,0.26 3.024,0.053 3.643,-0.272 1.142,-0.6 0.693,-2.635 -0.625,-2.837 -1.826,-0.281 -1.833,-0.283 -1.833,-0.606 0,-0.4 0.847,-0.585 1.99,-0.433 0.85,0.112 1.01,-0.006 1.01,-0.747 0,-0.372 -2.779,-0.476 -3.417,-0.127 m 22.355,0.182 c -0.208,0.777 -0.159,0.822 0.77,0.715 1.047,-0.121 1.855,0.077 1.931,0.472 0.048,0.251 -0.046,0.274 -0.75,0.182 -2.072,-0.27 -3.448,1.652 -2.128,2.971 0.673,0.674 3.555,0.84 3.944,0.228 0.178,-0.279 0.156,-3.681 -0.026,-4.161 -0.318,-0.835 -3.532,-1.184 -3.741,-0.407 m 13.345,-0.25 c -0.039,0.069 -0.117,0.32 -0.174,0.559 l -0.103,0.434 1.26,-0.017 c 1.067,-0.015 1.297,0.032 1.497,0.306 0.358,0.49 0.288,0.594 -0.268,0.4 -2.008,-0.7 -3.867,1.58 -2.398,2.941 0.686,0.636 3.182,0.781 3.853,0.225 0.234,-0.194 0.308,-2.805 0.109,-3.802 -0.183,-0.918 -3.355,-1.796 -3.776,-1.046 m 8.717,0.464 0,0.589 0.792,-0.095 c 0.931,-0.113 1.772,0.089 1.84,0.442 0.039,0.202 -0.157,0.247 -1.03,0.238 -1.602,-0.019 -2.019,0.34 -2.019,1.737 0,1.475 0.365,1.741 2.397,1.746 2.017,0.006 2.021,0.002 2.016,-2.308 -0.005,-2.587 -0.321,-2.938 -2.652,-2.938 l -1.344,0 0,0.589 m 21.333,2.088 0,2.677 0.625,-0.052 0.625,-0.052 0.046,-2.625 0.046,-2.625 -0.671,0 -0.671,0 0,2.677 m 2.601,-2.413 c -0.281,0.732 -0.135,0.928 0.608,0.82 0.979,-0.142 2.024,0.1 2.099,0.487 0.051,0.265 -0.019,0.291 -0.525,0.196 -2.2,-0.412 -3.813,1.628 -2.355,2.979 0.687,0.637 3.18,0.787 3.848,0.233 0.363,-0.302 0.305,-3.786 -0.071,-4.251 -0.611,-0.754 -3.357,-1.108 -3.604,-0.464 m -128.726,0.802 c 0.755,0.572 0.375,1.101 -0.791,1.101 -0.973,0 -1.084,-0.034 -1.084,-0.333 0,-0.796 1.195,-1.285 1.875,-0.768 m 23.088,0.027 c 0.525,0.368 0.563,2.793 0.048,3.068 -1.093,0.585 -1.889,0.021 -1.98,-1.401 -0.101,-1.587 0.861,-2.417 1.932,-1.667 m 20.993,-0.123 c 0.113,0.071 0.254,0.37 0.313,0.664 l 0.106,0.533 -1.122,0 -1.122,0 0.11,-0.458 c 0.182,-0.753 1.082,-1.141 1.715,-0.739 m 26.007,0.123 c 0.333,0.233 0.371,0.402 0.371,1.667 l 0,1.407 -0.656,0 c -1.353,0 -1.511,-0.164 -1.511,-1.57 0,-1.335 0.263,-1.763 1.083,-1.763 0.189,0 0.51,0.116 0.713,0.259 m 5.504,-0.059 c 0.612,0.612 0.244,1.133 -0.8,1.133 -0.915,0 -1,-0.031 -1,-0.362 0,-0.791 1.246,-1.325 1.8,-0.771 m 36.805,-0.101 c 1.258,0.338 0.896,3.07 -0.406,3.065 -0.995,-0.004 -1.116,-0.167 -1.116,-1.505 0,-1.496 0.365,-1.87 1.522,-1.56 m 5.831,0.142 c 0.457,0.319 0.559,2.237 0.153,2.857 -0.339,0.517 -1.271,0.553 -1.756,0.068 -1.227,-1.227 0.23,-3.887 1.603,-2.925 m -60.866,1.86 c 0.704,0.27 0.316,1.232 -0.498,1.232 -1.738,0 -2.105,-1.283 -0.377,-1.32 0.336,-0.007 0.73,0.032 0.875,0.088 m 27.833,0 c 0.69,0.265 0.319,1.232 -0.473,1.232 -1.02,0 -1.263,-0.126 -1.263,-0.657 0,-0.662 0.81,-0.93 1.736,-0.575 m 13.397,0.099 c 0.784,0.783 -0.18,1.406 -1.592,1.028 -0.417,-0.112 -0.545,-0.965 -0.166,-1.118 0.41,-0.165 1.562,-0.107 1.758,0.09 m 8.603,-0.099 c 0.621,0.238 0.329,1.232 -0.361,1.23 -1.711,-0.007 -2.126,-1.276 -0.431,-1.318 0.291,-0.007 0.647,0.032 0.792,0.088 m 23.889,0.004 c 0.791,0.212 0.515,1.228 -0.334,1.226 -1.16,-0.004 -1.458,-0.141 -1.458,-0.67 0,-0.615 0.728,-0.841 1.792,-0.556"
       inkscape:connector-curvature="0"
       style="fill:#d8de3f;fill-rule:evenodd;stroke:none" />
    <path
       id="path2"
       d="m 166.304,58.382 c -0.122,0.118 -0.483,0.319 -0.804,0.445 -0.321,0.126 -0.658,0.28 -0.75,0.343 -0.092,0.063 -0.654,0.379 -1.25,0.703 -0.596,0.323 -1.346,0.744 -1.667,0.936 -0.321,0.192 -0.874,0.52 -1.231,0.728 -1.334,0.782 -2.669,1.677 -2.741,1.838 -0.03,0.069 -0.127,0.125 -0.213,0.125 -0.447,0 -6.276,4.541 -8.481,6.606 -0.413,0.387 -1.032,0.943 -1.375,1.236 -0.936,0.799 -1.009,0.678 1.708,2.855 0.504,0.404 1.357,1.059 1.895,1.456 0.538,0.396 1.103,0.843 1.255,0.992 0.152,0.149 0.555,0.459 0.895,0.688 0.341,0.23 0.62,0.467 0.621,0.528 0,0.062 0.256,0.27 0.569,0.463 l 0.569,0.351 0.747,-0.504 c 1.045,-0.705 2.549,-0.593 3.145,0.235 0.066,0.091 0.238,0.058 0.416,-0.081 0.579,-0.45 2.472,-2.076 2.638,-2.265 0.918,-1.048 2.762,-1.368 3.878,-0.673 0.342,0.213 0.734,0.439 0.872,0.502 0.137,0.063 0.449,0.245 0.692,0.405 0.244,0.159 0.945,0.589 1.56,0.956 0.615,0.367 1.241,0.742 1.392,0.833 0.151,0.092 0.874,0.525 1.607,0.962 0.733,0.438 1.445,0.871 1.582,0.964 0.138,0.092 0.382,0.211 0.542,0.265 0.16,0.054 0.292,0.151 0.292,0.216 0,0.065 0.318,0.285 0.708,0.49 0.39,0.204 0.933,0.515 1.208,0.691 0.275,0.175 0.704,0.434 0.952,0.575 0.249,0.141 0.852,0.649 1.341,1.13 0.489,0.481 2.123,2.033 3.632,3.45 1.508,1.417 2.972,2.804 3.253,3.083 0.281,0.279 0.768,0.747 1.083,1.04 l 0.573,0.532 1.416,-0.465 c 0.779,-0.256 1.755,-0.563 2.167,-0.682 0.412,-0.119 1.275,-0.399 1.917,-0.622 0.641,-0.222 1.391,-0.464 1.666,-0.537 0.275,-0.072 0.967,-0.292 1.537,-0.487 1.352,-0.463 1.429,-0.456 2.787,0.241 0.977,0.501 1.212,0.563 1.516,0.401 0.446,-0.239 2.438,-0.138 3.244,0.165 0.32,0.12 0.883,0.33 1.25,0.465 1.144,0.423 1.662,0.635 3.108,1.272 0.335,0.147 0.658,0.268 0.719,0.268 0.06,0 0.537,0.196 1.058,0.435 1.757,0.807 2.276,1.036 3.898,1.718 2.065,0.869 1.653,0.978 4.684,-1.236 1.443,-1.055 2.691,-1.917 2.773,-1.917 0.082,0 0.174,-0.071 0.204,-0.157 0.031,-0.087 0.411,-0.252 0.846,-0.368 0.958,-0.255 1.366,-0.141 3.991,1.112 l 0.782,0.373 1.552,-1.656 c 5.635,-6.016 6.117,-6.399 7.591,-6.029 0.416,0.104 1.518,0.674 1.71,0.884 0.046,0.051 0.308,0.204 0.582,0.341 0.274,0.138 0.927,0.531 1.45,0.875 1.244,0.816 1.766,0.746 2.802,-0.377 0.046,-0.049 0.421,-0.345 0.833,-0.656 0.412,-0.312 0.826,-0.647 0.918,-0.746 0.093,-0.099 0.505,-0.441 0.917,-0.76 0.412,-0.32 0.861,-0.674 0.998,-0.787 0.138,-0.113 0.738,-0.592 1.334,-1.066 0.595,-0.473 1.12,-0.912 1.166,-0.974 0.311,-0.427 2.054,-1.525 2.691,-1.695 0.778,-0.208 2.643,0.402 2.643,0.865 0,0.085 0.112,0.154 0.25,0.154 0.137,0 0.25,0.063 0.25,0.139 0,0.076 0.335,0.379 0.744,0.673 0.41,0.294 0.841,0.628 0.959,0.742 0.117,0.115 0.776,0.655 1.463,1.201 0.688,0.547 1.288,1.034 1.334,1.082 0.045,0.049 0.42,0.349 0.833,0.666 0.412,0.318 0.775,0.635 0.806,0.704 0.03,0.07 0.161,0.127 0.291,0.127 0.13,0 0.236,0.061 0.236,0.135 0,0.44 0.981,0.855 1.447,0.612 0.258,-0.135 0.826,-0.246 1.262,-0.246 0.952,-0.002 0.948,0.024 0.16,-1.147 -1.462,-2.171 -2.112,-3.109 -2.207,-3.188 -0.055,-0.046 -0.431,-0.533 -0.834,-1.083 -0.403,-0.55 -0.961,-1.265 -1.239,-1.589 -0.278,-0.324 -0.768,-0.917 -1.089,-1.318 -1.357,-1.695 -5.225,-5.7 -7.387,-7.648 C 249.214,67.683 244.523,64 244.193,64 c -0.091,0 -0.19,-0.061 -0.221,-0.137 -0.222,-0.545 -7.566,-4.873 -9.055,-5.336 -0.525,-0.163 -7.895,-0.197 -34.526,-0.159 -18.623,0.027 -33.824,-0.008 -33.782,-0.076 0.124,-0.201 -0.065,-0.145 -0.305,0.09 m -42.2,55.576 c -0.471,3.199 -0.615,4.509 -0.767,6.959 -0.452,7.314 0.158,15.13 1.698,21.75 0.096,0.412 0.232,1.012 0.302,1.333 0.415,1.903 1.977,7.102 2.478,8.25 0.08,0.183 0.274,0.671 0.432,1.083 0.158,0.413 0.355,0.881 0.437,1.04 0.082,0.159 0.149,0.365 0.149,0.458 0,0.092 0.233,0.675 0.516,1.294 1.145,2.496 1.318,2.889 1.323,3.005 0.026,0.589 0.454,0.716 1.601,0.476 0.629,-0.131 1.781,-0.328 2.56,-0.436 0.779,-0.108 2.017,-0.297 2.75,-0.42 3.313,-0.555 4.596,-0.755 5.917,-0.922 0.779,-0.098 2.092,-0.284 2.917,-0.412 1.754,-0.273 4.577,-0.661 6.583,-0.906 0.779,-0.095 2.279,-0.281 3.333,-0.414 2.865,-0.36 6.045,-0.729 7.917,-0.918 0.917,-0.093 2.754,-0.281 4.083,-0.418 3.872,-0.398 7.633,-0.741 9.25,-0.844 2.525,-0.16 2.553,-0.171 2.988,-1.145 0.353,-0.789 1.333,-1.802 2.918,-3.015 0.235,-0.18 0.465,-0.368 0.511,-0.417 0.145,-0.155 0.73,-0.492 1.299,-0.748 0.302,-0.136 1.67,-1.365 3.04,-2.73 2.354,-2.348 2.531,-2.489 3.246,-2.569 0.626,-0.071 1.848,-0.687 2.248,-1.134 0.16,-0.178 1.753,-0.876 2.234,-0.979 0.576,-0.122 0.673,-0.29 0.911,-1.577 0.227,-1.23 0.549,-1.728 1.327,-2.05 0.336,-0.14 0.632,-0.272 0.657,-0.295 0.46,-0.423 -0.411,-1.74 -1.687,-2.547 -1.46,-0.925 -1.732,-1.18 -2.533,-2.377 -0.497,-0.742 -0.698,-1.129 -1.426,-2.75 -0.741,-1.651 -1.101,-4.054 -0.649,-4.333 0.091,-0.057 0.166,-0.216 0.166,-0.354 0,-0.138 0.179,-0.49 0.398,-0.782 0.218,-0.292 0.448,-0.718 0.51,-0.947 0.898,-3.31 4.674,-5.882 9.422,-6.419 1.264,-0.142 2.366,-0.436 2.709,-0.721 0.234,-0.194 0.337,-0.2 0.542,-0.03 0.214,0.178 0.253,0.15 0.258,-0.185 l 0.005,-0.395 0.404,0.458 c 0.473,0.538 0.54,0.556 0.625,0.167 0.108,-0.497 0.74,1.113 0.86,2.192 0.146,1.307 0.422,1.841 1.562,3.015 1.471,1.516 1.536,1.647 1.422,2.869 l -0.099,1.055 0.65,0.575 c 0.357,0.317 0.892,0.747 1.19,0.955 0.672,0.473 0.682,0.81 0.042,1.464 -0.555,0.567 -0.63,1.073 -0.242,1.626 0.188,0.27 0.212,0.452 0.089,0.682 -0.093,0.173 -0.121,0.362 -0.063,0.42 0.058,0.058 0.018,0.105 -0.089,0.105 -0.351,0 -0.204,0.266 0.237,0.426 0.385,0.141 0.438,0.263 0.499,1.147 0.038,0.545 0.126,1.032 0.198,1.083 1.112,0.804 0.44,2.175 -1.067,2.177 -0.286,0 -0.614,0.113 -0.728,0.25 -0.114,0.138 -0.289,0.25 -0.389,0.25 -0.329,0 -1.611,1.546 -1.611,1.942 0,0.21 -0.156,0.973 -0.345,1.694 -0.425,1.613 -0.173,2.362 0.859,2.55 1.107,0.202 1.799,0.622 2.146,1.301 0.317,0.623 1.348,1.591 2.119,1.99 0.794,0.412 2.015,2.908 2.538,5.19 l 0.287,1.25 7.489,0.206 c 7.832,0.216 15.287,0.544 21.907,0.965 2.154,0.137 5.191,0.327 6.75,0.423 1.558,0.095 4.108,0.282 5.666,0.415 5.895,0.503 8.709,0.76 9.977,0.913 1.425,0.172 1.607,0.134 1.607,-0.339 0,-0.172 0.066,-0.354 0.146,-0.404 0.081,-0.05 0.186,-0.261 0.234,-0.468 0.047,-0.208 0.249,-0.79 0.447,-1.294 0.894,-2.275 2.197,-6.505 2.669,-8.667 0.07,-0.321 0.206,-0.921 0.302,-1.333 1.124,-4.832 1.878,-11.639 1.865,-16.834 -0.011,-4.019 -0.683,-11.691 -1.082,-12.336 -0.066,-0.107 -26.329,-0.164 -75.827,-0.164 l -75.725,0 -0.092,0.625"
       inkscape:connector-curvature="0"
       style="fill:#91ccdc;fill-rule:evenodd;stroke:none" />
    <path
       id="path3"
       d="m 197.417,50.25 c -0.184,0.032 -1.346,0.14 -2.584,0.241 -4.018,0.326 -6.31,0.639 -9.166,1.25 -0.596,0.128 -1.534,0.321 -2.084,0.431 -0.55,0.11 -1.337,0.294 -1.75,0.41 -0.412,0.117 -1.237,0.343 -1.833,0.505 -1.339,0.362 -3.554,1.044 -4.333,1.334 -2.881,1.072 -4.315,1.632 -4.667,1.823 -0.229,0.124 -0.492,0.24 -0.583,0.257 -0.092,0.017 -0.617,0.241 -1.167,0.497 -0.55,0.256 -1.263,0.579 -1.583,0.716 -1.713,0.735 -3.176,0.705 32.839,0.66 24.269,-0.031 34.109,0.009 34.35,0.138 0.187,0.1 0.366,0.155 0.398,0.122 0.086,-0.085 -4.384,-2.301 -4.643,-2.301 -0.056,0 -0.497,-0.178 -0.981,-0.395 -0.484,-0.217 -1.518,-0.639 -2.297,-0.936 -2.646,-1.011 -7.252,-2.434 -9.166,-2.831 -0.505,-0.105 -1.367,-0.293 -1.917,-0.419 -2.59,-0.591 -4.207,-0.836 -8.333,-1.263 -1.741,-0.18 -9.793,-0.363 -10.5,-0.239 m -53.868,24.375 c -0.459,0.527 -1.052,1.193 -1.317,1.48 -0.63,0.681 -1.022,1.149 -1.728,2.062 -0.318,0.412 -0.629,0.787 -0.691,0.833 -0.062,0.046 -0.468,0.566 -0.902,1.156 -0.435,0.591 -0.854,1.153 -0.932,1.25 -0.95,1.187 -3.123,4.487 -4.671,7.094 -0.66,1.112 -3.181,6.107 -3.743,7.417 -0.118,0.275 -0.406,0.926 -0.64,1.448 -0.234,0.521 -0.425,1.05 -0.425,1.175 0,0.125 -0.063,0.298 -0.14,0.385 -0.076,0.087 -0.378,0.833 -0.67,1.658 -0.292,0.825 -0.611,1.725 -0.708,2 -0.208,0.584 -0.296,0.884 -0.983,3.334 -0.283,1.008 -0.581,2.133 -0.661,2.5 -0.081,0.366 -0.227,0.877 -0.326,1.136 -0.098,0.258 -0.179,0.539 -0.179,0.625 0,0.095 4.257,0.155 10.917,0.155 6.004,0 10.917,-0.063 10.917,-0.141 0,-0.077 -0.132,-0.296 -0.292,-0.486 -0.404,-0.477 -0.687,-0.824 -1.459,-1.789 -0.366,-0.458 -0.874,-1.058 -1.128,-1.333 l -0.461,-0.501 0.111,-1.807 0.111,-1.807 -0.483,-0.395 c -0.265,-0.218 -0.576,-0.398 -0.691,-0.401 -0.115,-0.004 -0.208,-0.064 -0.208,-0.135 0,-0.071 -0.282,-0.276 -0.625,-0.457 -0.344,-0.18 -0.663,-0.368 -0.709,-0.416 -0.207,-0.221 -3.696,-2.498 -3.826,-2.498 -0.08,0 -0.171,-0.057 -0.201,-0.126 -0.08,-0.181 -3.621,-2.541 -3.813,-2.541 -0.088,0 -0.16,-0.07 -0.16,-0.155 0,-0.086 -0.131,-0.201 -0.291,-0.255 -0.161,-0.055 -0.464,-0.243 -0.673,-0.418 l -0.382,-0.319 0.841,-1.677 c 0.994,-1.979 0.888,-1.945 2.014,-0.65 1.327,1.525 5.951,6.143 6.908,6.899 0.458,0.362 0.858,0.715 0.889,0.783 0.03,0.069 0.162,0.125 0.292,0.125 0.129,0 0.236,0.063 0.236,0.139 0,0.076 0.356,0.391 0.791,0.7 0.436,0.309 1.041,0.791 1.345,1.07 l 0.553,0.508 -0.114,1.856 c -0.106,1.747 -0.092,1.877 0.239,2.209 0.194,0.193 0.352,0.395 0.352,0.447 0,0.052 0.094,0.192 0.209,0.309 0.114,0.118 0.733,0.897 1.375,1.73 l 1.166,1.515 15.459,0.009 c 13.551,0.007 15.458,-0.022 15.458,-0.239 0,-0.136 -0.515,-1.279 -1.145,-2.541 -0.63,-1.262 -1.231,-2.558 -1.335,-2.878 -0.104,-0.321 -0.376,-1.186 -0.605,-1.922 -0.44,-1.413 -0.448,-1.424 -1.994,-2.586 -0.543,-0.409 -1.173,-0.913 -1.4,-1.122 -0.227,-0.208 -0.654,-0.528 -0.949,-0.711 -0.616,-0.38 -0.664,-0.523 -0.904,-2.666 -0.097,-0.867 -0.211,-1.689 -0.254,-1.827 -0.042,-0.138 -0.143,-0.902 -0.224,-1.698 -0.143,-1.414 -0.663,-2.506 -1.612,-3.385 -0.487,-0.451 -1.067,-1.433 -1.331,-2.254 -0.162,-0.502 -0.358,-1.043 -0.437,-1.202 -0.079,-0.159 -0.143,-0.373 -0.143,-0.475 0,-0.102 -0.102,-0.422 -0.227,-0.71 -0.499,-1.158 -0.655,-1.565 -0.949,-2.479 -0.169,-0.524 -0.389,-1.106 -0.488,-1.292 -0.241,-0.449 -0.067,-0.426 0.595,0.079 0.301,0.229 0.595,0.416 0.655,0.416 0.151,0 1.651,1.055 1.719,1.209 0.031,0.068 0.122,0.125 0.204,0.125 0.081,0 0.693,0.364 1.361,0.809 0.667,0.445 1.776,1.176 2.463,1.625 0.688,0.448 1.349,0.909 1.47,1.024 0.121,0.115 0.271,0.211 0.334,0.214 0.513,0.024 0.661,0.44 0.447,1.251 -0.362,1.367 -0.513,1.628 -1.398,2.41 -1.069,0.944 -1.055,0.633 -0.257,5.833 0.133,0.871 0.241,1.752 0.24,1.959 -0.002,0.223 0.098,0.375 0.247,0.375 0.138,0 0.25,0.063 0.25,0.14 0,0.078 0.375,0.396 0.833,0.709 0.459,0.312 0.834,0.608 0.834,0.657 0,0.049 0.518,0.46 1.152,0.912 0.932,0.665 1.192,0.95 1.358,1.493 0.904,2.946 2.165,6.002 3.474,8.422 0.117,0.216 1.284,0.256 8.659,0.293 l 8.524,0.043 0,-2.038 0,-2.039 -2.438,-2.382 c -1.34,-1.31 -2.634,-2.555 -2.875,-2.767 -0.24,-0.212 -0.678,-0.642 -0.972,-0.956 l -0.535,-0.571 3.202,0.125 c 1.76,0.069 5.601,0.239 8.534,0.378 2.934,0.14 5.934,0.251 6.667,0.248 0.733,-0.003 2.496,0.107 3.917,0.244 1.421,0.137 3.708,0.327 5.083,0.421 1.375,0.094 3.662,0.283 5.083,0.42 1.421,0.137 2.944,0.249 3.383,0.249 0.924,-0.001 4.861,0.408 6.451,0.67 1.002,0.166 1.757,0.322 4.416,0.914 0.55,0.123 1.488,0.309 2.084,0.415 0.595,0.105 1.533,0.291 2.083,0.414 1.941,0.432 3.344,0.728 4.333,0.913 1.154,0.215 2.604,0.519 6.478,1.357 0.933,0.202 1.064,0.298 2.848,2.097 l 1.87,1.885 5.944,0 c 4.645,0 5.943,-0.045 5.942,-0.208 -0.001,-0.115 -1.046,-1.248 -2.324,-2.519 -1.661,-1.653 -2.356,-2.46 -2.438,-2.833 -0.063,-0.287 -0.209,-0.747 -0.324,-1.022 -0.116,-0.276 -0.413,-1.176 -0.66,-2.001 -0.247,-0.825 -0.555,-1.746 -0.684,-2.047 -0.129,-0.301 -0.235,-0.645 -0.235,-0.764 0,-0.119 -0.356,-0.468 -0.792,-0.777 -0.435,-0.309 -0.829,-0.605 -0.875,-0.659 -0.046,-0.054 -0.289,-0.256 -0.541,-0.449 -0.376,-0.289 -3.194,-2.831 -3.862,-3.485 -0.102,-0.1 -0.559,-0.388 -1.016,-0.641 -0.457,-0.252 -1.551,-0.902 -2.431,-1.443 -1.92,-1.181 -1.792,-1.171 -2.682,-0.212 -0.891,0.96 -0.929,1.002 -1.593,1.775 l -0.541,0.63 0,-1.756 0,-1.755 -0.417,0 c -0.454,0 -0.527,-0.156 -0.219,-0.464 0.325,-0.326 0.011,-0.436 -0.655,-0.229 -0.344,0.107 -1.335,0.419 -2.203,0.694 -0.867,0.274 -1.6,0.499 -1.63,0.499 -0.065,0 0.798,-0.833 4.055,-3.917 1.356,-1.283 2.601,-2.465 2.767,-2.625 0.447,-0.432 0.636,-0.357 0.63,0.25 -0.017,1.958 0.714,4.73 1.088,4.125 0.269,-0.434 0.881,0.049 3.667,2.894 1.65,1.686 3.412,3.395 3.917,3.798 0.504,0.404 1.104,0.893 1.333,1.088 0.646,0.551 2.562,2.067 2.768,2.192 0.102,0.061 0.275,0.411 0.386,0.778 0.11,0.367 0.298,0.929 0.416,1.25 0.359,0.971 0.607,1.7 0.933,2.75 0.593,1.904 0.767,2.23 1.671,3.135 0.5,0.499 1.546,1.592 2.323,2.428 l 1.414,1.52 1.878,0 c 2.164,0 2.059,0.118 1.556,-1.75 -0.173,-0.641 -0.475,-1.766 -0.671,-2.5 -0.358,-1.334 -1.545,-4.933 -2.145,-6.5 -1.207,-3.156 -2.628,-6.263 -4.191,-9.166 -1.136,-2.111 -0.993,-2.013 -1.898,-1.308 l -0.779,0.607 -0.581,-0.65 -0.58,-0.649 -0.639,0.719 -0.638,0.719 -1.403,-1.1 c -0.772,-0.604 -1.553,-1.228 -1.737,-1.385 -0.183,-0.158 -0.633,-0.506 -1,-0.774 -0.366,-0.268 -0.741,-0.576 -0.833,-0.683 -0.092,-0.108 -0.523,-0.445 -0.958,-0.749 C 256.356,84.859 256,84.548 256,84.472 c 0,-0.076 -0.106,-0.139 -0.236,-0.139 -0.13,0 -0.261,-0.059 -0.292,-0.131 -0.03,-0.073 -0.618,-0.579 -1.305,-1.125 -0.687,-0.547 -1.395,-1.125 -1.573,-1.285 -0.405,-0.366 -0.521,-0.365 -0.892,0.006 -0.163,0.163 -0.595,0.515 -0.958,0.782 -0.363,0.266 -0.736,0.564 -0.827,0.66 -0.092,0.097 -0.729,0.624 -1.417,1.17 -0.687,0.546 -1.275,1.053 -1.306,1.125 -0.03,0.072 -0.161,0.132 -0.291,0.132 -0.13,0 -0.236,0.062 -0.236,0.138 0,0.076 -0.357,0.388 -0.792,0.692 -0.435,0.305 -0.867,0.639 -0.958,0.743 -0.092,0.104 -0.729,0.637 -1.417,1.183 -0.687,0.546 -1.287,1.03 -1.333,1.076 -0.53,0.534 -0.638,0.53 -1.577,-0.071 -0.511,-0.327 -0.961,-0.595 -0.998,-0.595 -0.038,0 -0.505,-0.287 -1.039,-0.638 -0.533,-0.35 -1.082,-0.689 -1.22,-0.751 -0.137,-0.062 -0.55,-0.297 -0.916,-0.521 -0.367,-0.225 -0.712,-0.412 -0.766,-0.416 -0.166,-0.012 -0.651,0.472 -2.908,2.901 -2.079,2.237 -2.627,2.82 -4.226,4.497 -0.83,0.871 -0.735,0.872 -2.684,-0.029 -2.964,-1.37 -2.888,-1.355 -3.64,-0.752 -0.335,0.269 -0.773,0.575 -0.972,0.681 -0.199,0.106 -0.461,0.289 -0.583,0.406 -0.122,0.118 -0.694,0.534 -1.271,0.925 -0.578,0.391 -1.548,1.077 -2.157,1.524 l -1.106,0.812 -0.927,-0.332 c -0.51,-0.183 -1.19,-0.449 -1.51,-0.592 -0.321,-0.143 -0.809,-0.354 -1.084,-0.469 -0.275,-0.116 -0.837,-0.359 -1.25,-0.542 -1.525,-0.673 -6.025,-2.548 -6.709,-2.795 -0.389,-0.14 -1.177,-0.417 -1.751,-0.615 l -1.045,-0.361 -0.872,0.428 c -0.576,0.282 -0.958,0.378 -1.123,0.284 -0.137,-0.079 -0.724,-0.406 -1.304,-0.726 l -1.054,-0.582 -1.113,0.352 c -1.667,0.527 -2.952,0.953 -3.388,1.124 -0.215,0.084 -0.728,0.245 -1.141,0.357 -0.639,0.174 -2.148,0.646 -4.261,1.331 -0.753,0.244 -0.762,0.241 -1.748,-0.709 -0.499,-0.481 -2.062,-1.963 -3.473,-3.292 -1.41,-1.329 -3.323,-3.145 -4.249,-4.035 -0.927,-0.89 -2.005,-1.784 -2.396,-1.986 -0.391,-0.202 -0.794,-0.467 -0.895,-0.589 -0.102,-0.123 -0.249,-0.223 -0.326,-0.223 -0.078,0 -1.307,-0.713 -2.731,-1.583 -1.424,-0.871 -2.664,-1.584 -2.755,-1.584 -0.091,0 -0.166,-0.066 -0.166,-0.147 0,-0.081 -0.131,-0.192 -0.291,-0.248 -0.161,-0.055 -0.517,-0.251 -0.792,-0.434 -0.275,-0.184 -0.613,-0.385 -0.75,-0.447 -0.138,-0.063 -0.625,-0.349 -1.083,-0.636 -0.459,-0.288 -0.914,-0.571 -1.012,-0.63 -0.098,-0.059 -0.395,0.096 -0.661,0.343 -0.266,0.247 -0.975,0.862 -1.575,1.366 -0.601,0.504 -1.354,1.154 -1.672,1.444 -0.319,0.291 -0.843,0.758 -1.164,1.04 l -0.583,0.512 -0.702,-0.79 c -0.386,-0.434 -0.705,-0.846 -0.708,-0.914 -0.004,-0.069 -0.119,-0.125 -0.257,-0.125 -0.137,0 -0.252,0.056 -0.254,0.125 -0.002,0.068 -0.358,0.513 -0.791,0.988 l -0.788,0.863 -1.583,-1.255 c -0.871,-0.69 -1.846,-1.464 -2.167,-1.719 -0.321,-0.256 -1.071,-0.851 -1.667,-1.322 -0.596,-0.472 -1.233,-0.983 -1.416,-1.136 -0.184,-0.154 -0.678,-0.545 -1.099,-0.87 -2.246,-1.734 -2.922,-2.267 -3.122,-2.461 -0.291,-0.282 -0.203,-0.34 -1.147,0.745 m -2.319,5.538 c 0.115,0.716 0.335,0.825 0.863,0.426 0.661,-0.5 0.521,-0.621 5.905,5.078 1.602,1.695 2.97,3.108 3.041,3.139 0.07,0.03 0.128,0.122 0.128,0.205 0,0.082 -0.219,0.019 -0.486,-0.139 -0.267,-0.159 -1.373,-0.814 -2.458,-1.455 -1.084,-0.642 -2.095,-1.242 -2.246,-1.334 -0.325,-0.197 -2.38,-1.428 -2.783,-1.666 -0.155,-0.092 -0.552,-0.336 -0.883,-0.542 -0.878,-0.548 -1.134,-0.466 -2.104,0.676 -0.482,0.568 -1.326,1.518 -1.875,2.111 l -0.999,1.078 0,-1.788 c 0,-1.951 -0.115,-1.629 1.294,-3.609 2.178,-3.061 2.429,-3.271 2.603,-2.18 m 97.389,9.725 c 0.845,0.612 1.606,1.112 1.691,1.112 0.085,0 0.198,0.112 0.25,0.25 0.124,0.323 0.607,0.326 0.607,0.003 0,-0.175 0.215,-0.095 0.75,0.283 0.412,0.29 0.75,0.589 0.75,0.663 0,0.074 0.106,0.134 0.236,0.134 0.13,0 0.261,0.061 0.291,0.134 0.031,0.074 0.731,0.64 1.556,1.259 0.825,0.618 1.65,1.255 1.833,1.414 0.184,0.16 0.727,0.575 1.209,0.923 0.481,0.347 0.875,0.667 0.875,0.711 0,0.104 -1.018,-0.468 -1.301,-0.732 -0.123,-0.115 -0.312,-0.21 -0.42,-0.212 -0.108,-0.002 -0.383,-0.151 -0.613,-0.33 -0.967,-0.756 -0.887,-0.239 0.125,0.809 0.675,0.698 3.464,3.648 5.602,5.925 0.336,0.358 0.587,0.675 0.557,0.704 -0.228,0.229 -1.937,-0.23 -2.655,-0.714 -0.456,-0.306 -0.89,-0.557 -0.965,-0.557 -0.075,0 -0.161,-0.06 -0.191,-0.132 -0.031,-0.073 -0.394,-0.362 -0.806,-0.642 -0.412,-0.281 -1.537,-1.052 -2.5,-1.715 -0.963,-0.662 -2.162,-1.479 -2.667,-1.815 -0.504,-0.337 -0.954,-0.652 -1,-0.7 -0.046,-0.048 -0.645,-0.461 -1.333,-0.917 -0.687,-0.456 -1.275,-0.886 -1.306,-0.954 -0.116,-0.262 -0.527,-0.111 -0.527,0.194 0,0.414 -0.168,0.847 -0.328,0.847 -0.069,0 -0.163,-0.852 -0.209,-1.893 -0.07,-1.572 -0.156,-2.047 -0.508,-2.792 -0.62,-1.313 -1.289,-2.842 -1.289,-2.948 0,-0.05 0.169,0.059 0.375,0.242 0.207,0.184 1.066,0.834 1.911,1.446 m -39.465,3.378 1.18,0.6 0.613,-0.362 c 0.593,-0.349 0.634,-0.352 1.291,-0.081 1.21,0.499 1.498,0.608 2.429,0.918 1.162,0.386 2.69,0.96 2.771,1.041 0.034,0.034 -0.332,0.039 -0.813,0.01 C 204.318,95.255 203,95.231 203,95.327 c 0,0.121 1.595,1.404 3.116,2.507 1.9,1.379 1.132,1.371 -1.752,-0.02 -1.163,-0.561 -2.665,-1.285 -3.338,-1.611 -0.947,-0.458 -1.319,-0.745 -1.649,-1.272 -0.235,-0.375 -0.477,-0.719 -0.539,-0.764 -0.062,-0.046 -0.163,-0.196 -0.224,-0.334 -0.181,-0.405 -0.518,-0.907 -0.697,-1.039 -0.393,-0.288 0.14,-0.085 1.237,0.472 m 26.429,1.756 c 0.275,0.165 0.8,0.448 1.167,0.628 0.586,0.288 1.659,1.313 3.988,3.807 l 0.655,0.702 -1.155,-0.414 c -0.635,-0.227 -1.305,-0.481 -1.488,-0.565 -0.183,-0.083 -0.918,-0.357 -1.633,-0.608 -1.277,-0.448 -1.308,-0.472 -1.767,-1.389 -0.257,-0.513 -0.628,-1.196 -0.823,-1.516 -0.196,-0.321 -0.427,-0.745 -0.515,-0.942 -0.087,-0.198 -0.238,-0.408 -0.335,-0.469 -0.097,-0.06 -0.177,-0.178 -0.177,-0.263 0,-0.139 0.775,0.243 2.083,1.029 M 202.5,185.606 c -9.927,0.898 -14.661,3.846 -17.072,10.633 -1.209,3.403 -1.428,5.513 -1.428,13.782 -0.001,8.626 0.288,10.939 1.779,14.26 0.213,0.476 0.388,0.911 0.388,0.968 0,0.279 1.57,2.445 2.367,3.265 1.858,1.911 4.758,3.559 7.299,4.147 3.816,0.884 3.705,0.875 11.417,0.949 13.047,0.125 13.004,0.132 13.418,-2.027 0.245,-1.274 0.635,-3.075 0.921,-4.25 0.915,-3.757 1.983,-3.415 -10.701,-3.421 -11.719,-0.005 -11.245,0.033 -13.177,-1.068 -1.587,-0.905 -2.521,-3.526 -2.539,-7.127 l -0.005,-1.033 12.625,-0.05 c 11.637,-0.047 12.669,-0.073 13.192,-0.342 0.312,-0.161 0.649,-0.292 0.75,-0.293 0.899,-0.005 2.431,-2.3 2.89,-4.328 0.339,-1.498 0.387,-9.424 0.067,-11.088 -1.296,-6.739 -4.879,-10.414 -11.941,-12.249 -2.291,-0.595 -7.573,-0.97 -10.25,-0.728 m 47.75,-0.011 c -4.509,0.428 -7.674,1.101 -9.581,2.037 -1.438,0.706 -3.002,1.741 -3.733,2.47 -1.586,1.584 -2.7,3.165 -3.333,4.731 -0.167,0.413 -0.397,0.975 -0.512,1.25 -0.115,0.275 -0.304,0.913 -0.421,1.417 -0.116,0.504 -0.28,1.142 -0.364,1.417 -0.867,2.849 -1.33,46.057 -0.501,46.807 0.548,0.497 10.416,0.41 10.769,-0.094 0.224,-0.32 0.259,-1.238 0.259,-6.667 0,-3.463 0.061,-6.296 0.136,-6.296 0.074,0 0.468,0.165 0.875,0.368 1.457,0.725 2.564,1.063 5.058,1.547 1.637,0.318 8.744,0.283 10.265,-0.05 0.412,-0.09 1.275,-0.253 1.916,-0.361 5.856,-0.987 9.712,-4.09 11.918,-9.588 2.321,-5.785 2.194,-22.53 -0.222,-29.083 -0.886,-2.403 -3.682,-6.333 -4.506,-6.333 -0.084,0 -0.236,-0.109 -0.338,-0.241 -1.565,-2.038 -11.534,-3.916 -17.685,-3.331 m -108.667,1.311 c -0.091,0.033 -0.841,0.148 -1.666,0.257 -3.429,0.451 -7.722,1.952 -8.87,3.1 -0.131,0.13 -0.289,0.237 -0.351,0.237 -1.315,0 -5.363,6.887 -5.363,9.124 0,0.195 -0.078,0.561 -0.174,0.814 -0.559,1.47 -0.865,11.484 -0.488,15.952 0.557,6.599 2.656,11.286 6.079,13.577 0.367,0.246 0.704,0.493 0.75,0.549 0.046,0.056 0.533,0.329 1.083,0.606 2.267,1.142 3.144,1.42 6.584,2.085 1.829,0.354 2.29,0.37 10.147,0.356 l 8.231,-0.015 0.307,-0.399 c 0.169,-0.219 0.309,-0.582 0.311,-0.805 0.002,-0.223 0.109,-0.823 0.237,-1.333 0.358,-1.427 0.974,-4.411 1.171,-5.678 0.05,-0.326 -0.003,-0.767 -0.12,-1 l -0.211,-0.416 -8.745,0 c -8.002,0 -8.823,-0.026 -9.662,-0.303 -1.349,-0.446 -2.166,-0.813 -2.166,-0.973 0,-0.077 -0.113,-0.141 -0.25,-0.141 -0.138,0 -0.25,-0.057 -0.25,-0.127 0,-0.069 -0.169,-0.315 -0.375,-0.546 -1.438,-1.607 -1.793,-3.945 -1.783,-11.744 0.012,-9.901 0.611,-11.803 4.107,-13.039 l 1.301,-0.461 8,0 c 8.93,0 8.325,0.086 8.586,-1.211 0.106,-0.525 0.292,-1.405 0.413,-1.955 1.268,-5.747 1.27,-5.77 0.544,-6.251 -0.347,-0.23 -16.769,-0.475 -17.377,-0.26 m 25.25,0.042 c -0.896,0.343 -0.833,-1.427 -0.833,23.302 0,21.778 0.012,22.71 0.305,22.974 0.269,0.244 0.892,0.276 5.39,0.276 l 5.086,0 0.284,-0.542 c 0.469,-0.894 0.337,-45.246 -0.136,-45.72 -0.32,-0.32 -9.34,-0.579 -10.096,-0.29 m 42.022,8.289 c 4.072,0.8 5.312,2.66 5.312,7.971 l 0,2.292 -9.5,0 -9.5,0 0,-1.223 c 0,-6.1 1.536,-8.532 5.75,-9.103 0.825,-0.112 1.612,-0.231 1.75,-0.265 0.566,-0.139 5.008,0.096 6.188,0.328 m 49.478,0.372 c 2.8,0.764 3.762,2.055 4.516,6.058 0.353,1.87 0.406,14.143 0.072,16.583 -0.8,5.847 -2.343,6.949 -9.739,6.948 -9.318,0 -10.432,-1.534 -10.432,-14.365 0,-10.258 0.787,-13.678 3.382,-14.689 2.427,-0.946 9.549,-1.258 12.201,-0.535"
       inkscape:connector-curvature="0"
       style="fill:#0094d6;fill-rule:evenodd;stroke:none" />
  </g>
</svg>
