<?xml version="1.0" encoding="UTF-8" standalone="no"?>
<svg
   xmlns:dc="http://purl.org/dc/elements/1.1/"
   xmlns:cc="http://creativecommons.org/ns#"
   xmlns:rdf="http://www.w3.org/1999/02/22-rdf-syntax-ns#"
   xmlns:svg="http://www.w3.org/2000/svg"
   xmlns="http://www.w3.org/2000/svg"
   xmlns:sodipodi="http://sodipodi.sourceforge.net/DTD/sodipodi-0.dtd"
   xmlns:inkscape="http://www.inkscape.org/namespaces/inkscape"
   id="svg"
   version="1.1"
   width="400"
   height="362.155"
   style="display:block"
   sodipodi:docname="conicyt.svg"
   inkscape:version="0.92.1 r15371">
  <metadata
     id="metadata10">
    <rdf:RDF>
      <cc:Work
         rdf:about="">
        <dc:format>image/svg+xml</dc:format>
        <dc:type
           rdf:resource="http://purl.org/dc/dcmitype/StillImage" />
        <dc:title></dc:title>
      </cc:Work>
    </rdf:RDF>
  </metadata>
  <defs
     id="defs8" />
  <sodipodi:namedview
     pagecolor="#ffffff"
     bordercolor="#666666"
     borderopacity="1"
     objecttolerance="10"
     gridtolerance="10"
     guidetolerance="10"
     inkscape:pageopacity="0"
     inkscape:pageshadow="2"
     inkscape:window-width="640"
     inkscape:window-height="480"
     id="namedview6"
     showgrid="false"
     fit-margin-top="0"
     fit-margin-left="0"
     fit-margin-right="0"
     fit-margin-bottom="0"
     inkscape:zoom="0.118"
     inkscape:cx="1104.5"
     inkscape:cy="-637.845"
     inkscape:window-x="0"
     inkscape:window-y="0"
     inkscape:window-maximized="0"
     inkscape:current-layer="svg" />
  <g
     id="svgg">
    <path
       id="path0"
       d="M 163.875,181.077 V 362.155 H 281.938 400 V 181.077 0 H 281.938 163.875 V 181.077 M 196.421,25.016 c 2.573,0.622 4.143,1.36 4.083,1.918 -0.03,0.279 -1.187,2.928 -1.432,3.279 -0.025,0.035 -0.478,-0.138 -1.007,-0.384 -3.451,-1.609 -7.15,-1.309 -8.817,0.713 -2.426,2.943 -2.025,10.61 0.663,12.693 2.007,1.554 5.195,1.422 8.346,-0.345 1.133,-0.636 1.061,-0.686 1.836,1.271 0.72,1.819 0.699,1.874 -1.009,2.746 -1.186,0.605 -1.658,0.775 -3.451,1.245 -0.984,0.258 -4.669,0.251 -5.489,-0.011 -1.708,-0.545 -2.552,-0.955 -3.494,-1.694 -1.015,-0.797 -2.494,-2.718 -2.494,-3.239 0,-0.149 -0.072,-0.316 -0.16,-0.37 -0.087,-0.054 -0.202,-0.283 -0.253,-0.508 -0.052,-0.226 -0.236,-0.899 -0.41,-1.497 -0.377,-1.301 -0.483,-7.233 -0.144,-8.149 0.11,-0.298 0.306,-0.909 0.434,-1.358 0.128,-0.448 0.301,-0.892 0.383,-0.986 0.082,-0.095 0.151,-0.299 0.152,-0.453 0.008,-1.272 4.063,-4.707 5.571,-4.72 0.172,-0.002 0.434,-0.082 0.583,-0.178 0.381,-0.246 5.065,-0.225 6.109,0.027 m 19.287,0.103 c 2.065,0.59 4.133,2.291 5.015,4.123 0.585,1.217 0.652,1.398 1.047,2.809 0.342,1.221 0.412,7.336 0.095,8.329 -0.111,0.349 -0.306,1.001 -0.433,1.449 -1.583,5.576 -8.345,8.309 -13.838,5.592 -4.283,-2.118 -6.29,-9.343 -4.472,-16.101 0.647,-2.404 3.455,-5.788 4.803,-5.788 0.139,0 0.314,-0.061 0.388,-0.135 0.535,-0.535 5.803,-0.733 7.395,-0.278 M 270.78,25 c 1.583,0.41 2.047,0.565 3.046,1.023 0.568,0.26 1.068,0.563 1.11,0.672 0.077,0.203 -1.442,3.545 -1.612,3.545 -0.051,0 -0.411,-0.163 -0.801,-0.361 -3.721,-1.899 -8.239,-1.169 -9.515,1.538 -1.603,3.401 -1.188,9.082 0.831,11.375 1.732,1.968 5.276,2.046 8.665,0.191 1.33,-0.728 1.193,-0.814 2.035,1.268 0.745,1.843 0.515,2.151 -2.447,3.266 -6.106,2.299 -12.054,0.125 -13.905,-5.082 -0.861,-2.425 -1.201,-7.224 -0.667,-9.431 1.078,-4.459 3.214,-6.974 6.75,-7.946 0.962,-0.265 5.552,-0.305 6.51,-0.058 m 41.312,0.216 c 0.056,0.224 0.078,1.059 0.049,1.856 l -0.054,1.448 -2.85,0.05 -2.851,0.049 -0.047,9.638 -0.047,9.638 -2.308,0.051 -2.309,0.05 v -9.583 c 0,-8.571 -0.03,-9.595 -0.286,-9.693 -0.158,-0.06 -1.421,-0.11 -2.807,-0.11 h -2.52 v -1.901 -1.901 h 7.964 7.963 l 0.103,0.408 m -79.295,0.271 c 0.115,0.36 0.425,1.135 0.993,2.489 0.084,0.2 0.971,2.44 1.971,4.98 1.804,4.582 2.069,5.232 2.377,5.837 0.088,0.173 0.16,0.398 0.16,0.5 0,0.102 0.155,0.531 0.345,0.953 0.189,0.423 0.485,1.153 0.657,1.624 0.632,1.735 0.689,0.932 0.574,-8.043 l -0.111,-8.669 2.029,0.051 2.029,0.051 v 11.318 11.317 l -3.461,0.049 c -3.998,0.057 -3.582,0.254 -4.506,-2.131 -0.835,-2.154 -0.878,-2.258 -1.341,-3.303 -0.209,-0.472 -0.38,-0.977 -0.38,-1.121 0,-0.145 -0.072,-0.308 -0.161,-0.363 -0.088,-0.054 -0.215,-0.313 -0.28,-0.573 -0.065,-0.261 -0.286,-0.853 -0.491,-1.315 -0.204,-0.462 -0.454,-1.044 -0.556,-1.293 -0.101,-0.249 -0.256,-0.594 -0.344,-0.767 -0.088,-0.173 -0.16,-0.398 -0.16,-0.5 0,-0.102 -0.152,-0.531 -0.339,-0.953 -0.187,-0.422 -0.648,-1.542 -1.026,-2.488 -1.207,-3.025 -1.174,-3.225 -1.045,6.31 l 0.115,8.551 -2.066,-0.052 -2.067,-0.051 -0.047,-11.363 -0.046,-11.362 h 3.538 c 3.21,0 3.547,0.029 3.639,0.317 m 20.44,11.091 v 11.317 l -2.218,0.051 -2.219,0.051 V 36.578 25.159 l 2.219,0.05 2.218,0.051 V 36.578 M 282.46,26.211 c 0.224,0.573 0.484,1.183 0.577,1.356 0.092,0.173 0.168,0.397 0.168,0.5 0,0.102 0.153,0.53 0.341,0.953 0.187,0.422 0.44,1.052 0.561,1.401 0.122,0.349 0.288,0.797 0.37,0.996 0.082,0.199 0.423,1.09 0.758,1.979 0.672,1.782 0.855,1.975 1.176,1.235 0.119,-0.274 0.673,-1.557 1.231,-2.852 0.558,-1.295 1.159,-2.68 1.336,-3.078 0.177,-0.399 0.595,-1.356 0.929,-2.128 l 0.607,-1.403 h 2.411 c 1.327,0 2.412,0.064 2.412,0.142 0,0.079 -0.314,0.751 -0.698,1.494 -0.384,0.743 -1.331,2.574 -2.104,4.068 -0.774,1.494 -2.171,4.196 -3.105,6.005 l -1.698,3.289 v 3.909 3.909 h -2.263 -2.264 v -4.047 c 0,-3.106 -0.059,-4.169 -0.254,-4.572 -0.632,-1.304 -2.336,-4.95 -3.505,-7.497 -0.297,-0.648 -0.886,-1.911 -1.309,-2.807 -1.498,-3.176 -1.632,-3.479 -1.632,-3.685 0,-0.148 0.804,-0.208 2.774,-0.208 h 2.773 l 0.408,1.041 m -71.595,2.652 c -2.537,0.98 -3.531,3.115 -3.531,7.581 0,5.449 1.597,8.107 4.866,8.098 2.906,-0.007 4.357,-1.632 5.014,-5.61 1.107,-6.708 -2.058,-11.726 -6.349,-10.069 m 157.928,34.23 c 0.322,0.929 0.179,1.319 -0.535,1.458 -1.545,0.301 -2.44,0.498 -2.947,0.651 -0.923,0.277 -1.329,0.209 -1.427,-0.24 -0.274,-1.255 -0.406,-1.138 2.255,-2.008 2.307,-0.753 2.346,-0.751 2.654,0.139 M 202.354,63.83 v 1.086 l -1.222,0.054 -1.223,0.053 v -1.064 c 0,-1.32 0.014,-1.333 1.351,-1.269 l 1.094,0.053 v 1.087 m 16.116,0 v 1.086 h -1.268 -1.267 l -0.056,-0.882 c -0.087,-1.358 -0.038,-1.406 1.366,-1.344 l 1.225,0.053 v 1.087 m 37.936,0 v 1.177 h -1.268 -1.267 V 63.83 62.653 h 1.267 1.268 v 1.177 m 25.169,5.613 v 6.791 h -0.973 c -0.632,0 -1.051,-0.093 -1.193,-0.264 -0.189,-0.228 -0.316,-0.203 -0.924,0.181 -2.715,1.714 -5.518,-0.55 -5.503,-4.444 0.016,-4.028 2.401,-6.014 5.787,-4.817 0.349,0.123 0.36,0.062 0.3,-1.79 -0.081,-2.505 -0.113,-2.447 1.324,-2.447 h 1.182 v 6.79 m 34.315,0 v 6.7 l -0.969,0.055 c -0.738,0.043 -1.021,-0.016 -1.188,-0.244 -0.2,-0.273 -0.279,-0.259 -0.912,0.171 -3.273,2.221 -6.849,-2.128 -5.412,-6.58 0.785,-2.429 2.567,-3.295 5.568,-2.705 0.327,0.064 0.345,-0.045 0.303,-1.873 -0.054,-2.391 -0.084,-2.342 1.403,-2.277 l 1.207,0.053 v 6.7 m 44.182,-5.613 v 1.086 h -1.267 -1.268 l -0.056,-0.882 c -0.086,-1.358 -0.037,-1.406 1.367,-1.344 l 1.224,0.053 v 1.087 m -172.72,-0.59 c 0.077,0.125 0.2,0.593 0.273,1.042 0.074,0.448 0.226,1.263 0.34,1.811 0.113,0.548 0.271,1.322 0.35,1.72 0.672,3.374 0.99,4.9 1.033,4.961 0.151,0.212 0.602,-0.462 0.602,-0.9 0,-0.282 0.073,-0.7 0.161,-0.928 0.088,-0.229 0.256,-0.865 0.372,-1.412 0.265,-1.255 1.057,-4.438 1.286,-5.174 0.095,-0.306 0.173,-0.684 0.173,-0.841 0,-0.421 0.388,-0.504 2.324,-0.501 2.303,0.003 2.136,-0.256 2.271,3.528 0.064,1.793 0.168,4.706 0.23,6.473 l 0.113,3.215 h -1.445 -1.444 l -0.119,-3.017 c -0.066,-1.659 -0.119,-3.954 -0.119,-5.1 0,-2.118 -0.123,-2.466 -0.381,-1.075 -0.078,0.424 -0.22,1.097 -0.315,1.496 -0.095,0.398 -0.26,1.132 -0.367,1.629 -0.107,0.498 -0.471,2.047 -0.808,3.441 l -0.612,2.535 h -1.97 -1.969 l -0.146,-0.724 c -0.081,-0.399 -0.225,-1.071 -0.32,-1.494 -0.257,-1.135 -0.515,-2.299 -0.703,-3.169 -0.091,-0.423 -0.299,-1.34 -0.462,-2.037 -0.162,-0.697 -0.344,-1.537 -0.402,-1.867 -0.26,-1.462 -0.415,0.056 -0.46,4.498 l -0.049,4.793 h -1.172 -1.173 l 0.047,-1.539 c 0.156,-5.152 0.429,-11.313 0.508,-11.44 0.156,-0.253 4.193,-0.182 4.353,0.076 m 118.95,0.384 c 0.059,0.235 0.081,0.703 0.049,1.041 l -0.059,0.613 -2.716,0.091 -2.716,0.09 -0.052,1.494 -0.053,1.494 h 1.999 1.999 v 1.171 1.171 l -1.946,0.051 -1.947,0.052 -0.053,1.433 c -0.067,1.792 -0.173,1.729 2.902,1.733 2.786,0.003 2.783,10e-4 2.642,1.471 l -0.059,0.614 h -4.074 -4.074 l -0.051,-6.066 c -0.027,-3.336 -0.005,-6.249 0.049,-6.474 0.099,-0.407 0.102,-0.407 4.076,-0.407 h 3.977 l 0.107,0.428 m -73.98,2.018 0.091,1.266 1.177,0.091 c 1.953,0.15 1.913,1.754 -0.047,1.847 l -1.13,0.054 -0.05,2.472 c -0.061,2.965 0.028,3.15 1.415,2.959 0.965,-0.132 0.989,-0.113 1.164,0.943 0.157,0.95 -0.512,1.322 -2.377,1.322 -2.371,0 -2.82,-0.715 -2.951,-4.698 l -0.098,-2.998 -0.589,-0.057 c -0.726,-0.07 -0.958,-1.844 -0.241,-1.844 0.743,0 0.92,-0.196 0.92,-1.019 0,-0.857 -0.102,-0.764 1.63,-1.488 0.854,-0.357 0.989,-0.215 1.086,1.15 m -20.551,1.402 c 1.191,0.77 1.357,1.454 1.357,5.574 v 3.631 l -1.313,-0.053 -1.313,-0.053 -0.09,-3.39 c -0.112,-4.189 -0.567,-4.968 -2.343,-4.017 l -0.645,0.345 -0.09,3.531 -0.091,3.531 h -1.267 -1.268 l -0.048,-4.572 -0.049,-4.572 h 0.999 c 0.55,0 0.999,0.081 0.999,0.181 0,0.282 0.571,0.2 1.268,-0.181 0.955,-0.523 3.054,-0.499 3.894,0.045 m 14.644,-0.175 c 0.606,0.444 0.338,1.863 -0.34,1.795 -2.931,-0.298 -3.238,-0.231 -3.133,0.673 0.045,0.38 0.295,0.588 1.328,1.102 3.002,1.495 3.641,3.213 1.907,5.13 -1.358,1.502 -5.625,1.412 -5.625,-0.118 0,-1.055 0.35,-1.326 1.246,-0.968 2.834,1.134 3.623,-1.005 0.863,-2.34 -2.541,-1.23 -2.932,-3.844 -0.771,-5.162 0.694,-0.423 3.988,-0.504 4.525,-0.112 m 15.649,0.024 c 1.366,0.715 2.024,1.953 2.08,3.916 l 0.039,1.35 -2.803,0.051 c -3.095,0.055 -3.247,0.107 -2.89,0.98 0.586,1.433 2.017,1.812 3.999,1.058 1.022,-0.388 1.241,-0.353 1.241,0.197 0,0.2 0.089,0.53 0.198,0.733 0.253,0.473 0.105,0.614 -1.113,1.059 -1.064,0.389 -3.859,0.511 -4.064,0.178 -0.062,-0.1 -0.242,-0.181 -0.401,-0.181 -2.176,0 -3.383,-5.204 -1.807,-7.792 1,-1.643 3.828,-2.436 5.521,-1.549 m 9.453,0.83 v 1.086 h -0.976 c -1.706,0 -1.732,0.058 -1.785,3.984 l -0.046,3.35 -1.313,0.053 -1.313,0.053 v -4.625 -4.625 h 0.923 c 0.767,0 0.938,0.06 1.016,0.358 0.088,0.338 0.133,0.327 0.748,-0.181 0.56,-0.461 0.808,-0.54 1.7,-0.54 h 1.046 v 1.087 m 13.445,-0.553 c 2.422,1.536 2.976,5.346 1.167,8.027 -0.873,1.294 -3.923,1.876 -5.521,1.052 -3.352,-1.728 -3.319,-7.534 0.053,-9.312 1.003,-0.529 3.296,-0.405 4.301,0.233 m 25.058,-0.076 c 1.176,0.689 1.687,1.698 1.821,3.6 l 0.11,1.556 -2.698,0.003 c -3.086,0.003 -3.288,0.065 -3.04,0.929 0.379,1.32 2.042,1.772 3.91,1.062 1.052,-0.4 1.094,-0.382 1.409,0.603 0.267,0.833 0.2,0.917 -1.094,1.39 -2.034,0.744 -4.484,0.366 -5.65,-0.871 -2.202,-2.337 -1.6,-7.302 1.026,-8.454 1.016,-0.446 3.303,-0.347 4.206,0.182 m 45.029,-0.189 c 0.354,0.148 0.692,0.347 0.75,0.441 0.179,0.29 -0.464,1.675 -0.731,1.573 -2.577,-0.989 -4.055,-0.229 -4.207,2.163 -0.192,3.009 1.062,4.114 3.662,3.228 0.986,-0.336 1.111,-0.261 1.276,0.756 0.128,0.789 0.137,0.78 -1.222,1.326 -0.627,0.252 -3.505,0.27 -3.658,0.023 -0.062,-0.1 -0.254,-0.181 -0.427,-0.181 -0.365,0 -1.494,-1.15 -1.778,-1.811 -0.532,-1.238 -0.602,-1.564 -0.602,-2.807 0,-0.737 0.093,-1.569 0.207,-1.847 0.548,-1.344 0.71,-1.627 1.184,-2.07 1.156,-1.079 3.918,-1.474 5.546,-0.794 m 8.716,0.142 c 1.339,0.758 1.451,1.16 1.517,5.429 l 0.059,3.758 h -0.853 c -0.587,0 -0.922,-0.095 -1.074,-0.301 -0.231,-0.317 -0.369,-0.285 -1.268,0.289 -2.09,1.335 -4.809,-0.227 -4.865,-2.795 -0.045,-2.03 0.96,-2.844 3.688,-2.988 1.694,-0.089 1.721,-0.098 1.775,-0.564 0.134,-1.155 -1.128,-1.615 -3.148,-1.146 -1.309,0.304 -1.348,0.29 -1.703,-0.609 -0.182,-0.461 -0.187,-0.647 -0.021,-0.813 0.752,-0.752 4.716,-0.927 5.893,-0.26 m 10.391,-0.127 c 0.74,0.369 0.775,0.445 0.561,1.221 -0.236,0.856 -0.326,0.894 -1.369,0.578 -2.548,-0.774 -3.803,0.641 -3.404,3.837 0.23,1.839 1.51,2.485 3.519,1.776 1.099,-0.388 1.164,-0.362 1.375,0.548 0.22,0.948 0.174,1.014 -1.014,1.427 -4.858,1.691 -8.531,-3.221 -5.855,-7.829 0.981,-1.687 4.268,-2.516 6.187,-1.558 m 14.257,0.103 c 2.85,1.34 3.288,7.019 0.678,8.793 -2.202,1.496 -5.724,0.821 -6.641,-1.272 -2.15,-4.906 1.563,-9.589 5.963,-7.521 m 11.425,0.076 c 1.158,0.883 1.232,1.201 1.236,5.332 l 0.003,3.712 h -1.267 -1.268 l -0.09,-3.411 -0.091,-3.412 -0.508,-0.436 c -0.635,-0.546 -1.168,-0.552 -1.955,-0.022 l -0.615,0.414 -0.049,3.479 -0.049,3.479 h -1.264 -1.264 v -4.618 -4.617 l 0.86,0.005 c 0.473,0.004 1.017,0.124 1.208,0.269 0.277,0.21 0.401,0.218 0.615,0.039 0.99,-0.826 3.537,-0.947 4.498,-0.213 m -177.436,4.472 -0.048,4.572 -1.218,0.054 -1.219,0.053 -0.049,-3.673 -0.049,-3.672 -0.498,-0.239 c -0.419,-0.201 -0.498,-0.352 -0.498,-0.953 v -0.714 h 1.814 1.814 l -0.049,4.572 m 16.116,0 -0.048,4.572 h -1.268 -1.267 l -0.049,-3.646 -0.049,-3.647 -0.54,-0.223 c -0.467,-0.194 -0.539,-0.317 -0.539,-0.926 v -0.702 h 1.904 1.905 l -0.049,4.572 m 37.888,0.045 v 4.618 h -1.264 -1.264 l -0.049,-3.665 -0.049,-3.664 -0.498,-0.239 c -0.419,-0.201 -0.498,-0.352 -0.498,-0.953 v -0.714 h 1.811 1.811 v 4.617 m 64.101,-1.562 c 0,1.681 0.049,3.301 0.109,3.601 0.191,0.954 1.762,1.291 2.673,0.574 l 0.477,-0.376 v -3.427 -3.427 h 1.362 1.361 l -0.049,4.572 -0.048,4.572 -0.874,0.056 c -0.755,0.048 -0.888,0.005 -0.972,-0.317 -0.102,-0.39 -0.326,-0.486 -0.495,-0.213 -0.552,0.894 -3.583,1.233 -4.632,0.519 -1.414,-0.962 -1.601,-1.676 -1.617,-6.156 l -0.011,-3.033 h 1.358 1.358 v 3.055 m 39.614,1.517 -0.049,4.572 h -1.267 -1.268 l -0.049,-3.646 -0.049,-3.647 -0.539,-0.223 c -0.468,-0.194 -0.54,-0.317 -0.54,-0.926 v -0.702 h 1.905 1.904 l -0.048,4.572 m -120.88,-2.84 c -0.398,0.279 -0.943,1.331 -0.943,1.821 0,0.194 0.379,0.249 1.72,0.249 1.9,0 1.991,-0.073 1.504,-1.213 -0.49,-1.151 -1.383,-1.486 -2.281,-0.857 m 22.361,0.182 c -0.883,0.884 -0.905,4.44 -0.033,5.32 1.433,1.444 2.713,0.228 2.713,-2.576 0,-3.007 -1.194,-4.23 -2.68,-2.744 m 14.779,-0.033 c -2.126,1.788 -0.666,6.618 1.701,5.629 0.94,-0.392 0.952,-0.434 0.956,-3.128 l 0.002,-2.409 -0.628,-0.262 c -0.891,-0.373 -1.441,-0.327 -2.031,0.17 m 10.407,-0.01 c -0.323,0.278 -0.532,0.681 -0.611,1.177 l -0.121,0.754 h 1.653 1.653 V 70.23 c 0,-1.464 -1.52,-2.266 -2.574,-1.36 m 23.675,0.217 -0.64,0.64 v 1.857 c 0,2.328 0.462,3.121 1.798,3.086 1.448,-0.038 1.643,-0.434 1.643,-3.328 v -2.475 l -0.7,-0.21 c -1.086,-0.325 -1.412,-0.259 -2.101,0.43 m 54.809,-0.228 c -1.256,1.337 -0.841,5.271 0.607,5.749 1.486,0.49 2.152,-0.472 2.157,-3.116 0.005,-2.717 -1.415,-4.07 -2.764,-2.633 m -24.484,3.153 c -1.466,0.562 -1.124,2.773 0.428,2.773 1.089,0 1.59,-0.585 1.527,-1.785 l -0.054,-1.022 -0.815,-0.035 c -0.448,-0.019 -0.937,0.012 -1.086,0.069 M 192.061,326.855 c 2.148,0.738 2.321,0.994 1.573,2.311 -0.736,1.295 -0.797,1.317 -2.176,0.817 -5.364,-1.947 -8.805,1.771 -7.333,7.923 0.681,2.847 1.944,3.861 4.667,3.749 2.388,-0.097 2.607,-0.276 2.607,-2.125 v -1.43 l -0.539,-0.118 c -0.297,-0.065 -0.688,-0.071 -0.87,-0.014 -0.785,0.249 -1.636,-1.997 -0.927,-2.446 0.49,-0.311 5.361,-0.204 5.485,0.12 0.157,0.409 0.131,7.187 -0.028,7.432 -0.074,0.112 -0.541,0.368 -1.039,0.569 -6.595,2.666 -11.727,0.634 -13.018,-5.155 -1.859,-8.331 4.03,-14.237 11.598,-11.633 m 22.726,-0.357 c 0.348,0.186 0.364,0.338 0.309,2.886 -0.069,3.129 -0.102,3.055 1.086,2.453 4.42,-2.24 8.636,2.957 6.979,8.601 -1.185,4.033 -5.763,5.735 -8.554,3.18 -0.42,-0.385 -0.422,-0.385 -0.682,-0.024 -0.611,0.849 -0.816,0.996 -1.393,0.996 -1.069,0 -1.034,0.319 -1.034,-9.186 v -8.752 l 0.408,-0.164 c 0.575,-0.231 2.442,-0.225 2.881,0.01 m 15.374,-0.009 c 0.294,0.157 0.351,0.387 0.351,1.426 0,1.583 -0.113,1.677 -1.93,1.609 l -1.42,-0.054 -0.091,-1.197 c -0.111,-1.47 -0.062,-1.746 0.328,-1.849 0.609,-0.161 2.42,-0.118 2.762,0.065 m 71.888,0 c 0.433,0.231 0.561,17.456 0.133,17.884 -0.486,0.486 -2.187,0.27 -2.69,-0.342 l -0.462,-0.563 -0.896,0.607 c -1.832,1.24 -4.792,0.723 -6.208,-1.085 -1.955,-2.494 -1.869,-7.56 0.168,-9.874 1.343,-1.525 4.347,-2.291 5.778,-1.473 1.051,0.601 1.087,0.524 1.087,-2.345 0,-2.301 0.038,-2.639 0.317,-2.801 0.415,-0.242 2.325,-0.248 2.773,-0.008 m 32.185,-0.005 c 2.098,0.273 3.838,0.982 3.838,1.564 0,0.631 -1.106,2.45 -1.414,2.325 -5.401,-2.195 -8.554,-0.325 -8.543,5.066 0.012,5.606 3.606,7.831 8.27,5.119 0.628,-0.365 1.324,-0.002 1.324,0.691 0,0.155 0.122,0.516 0.271,0.804 0.693,1.34 -2.089,2.621 -5.703,2.625 -5.021,0.006 -7.43,-2.625 -7.727,-8.437 -0.357,-7.011 3.203,-10.598 9.684,-9.757 m 9.463,0.005 c 0.323,0.173 0.35,0.404 0.35,2.988 0,3.107 -0.05,3.015 1.268,2.347 1.182,-0.599 3.294,-0.634 4.527,-0.075 2.128,0.965 2.354,1.707 2.354,7.742 0,5.419 0.115,5.099 -1.841,5.099 -1.844,0 -1.781,0.158 -1.781,-4.492 0,-5.278 -0.252,-6.01 -2.07,-6.01 -2.341,0 -2.457,0.266 -2.457,5.656 0,5.102 0.091,4.846 -1.72,4.846 -0.759,0 -1.375,-0.089 -1.503,-0.217 -0.399,-0.399 -0.303,-17.641 0.099,-17.876 0.416,-0.242 2.326,-0.248 2.774,-0.008 m 15.444,0.043 c 0.26,0.19 0.306,0.466 0.261,1.584 l -0.054,1.354 -1.511,0.053 c -1.917,0.067 -2.02,-0.014 -2.02,-1.605 0,-0.986 0.064,-1.274 0.317,-1.421 0.456,-0.266 2.631,-0.241 3.007,0.035 m 6.401,-0.118 0.4,0.107 0.053,7.421 0.053,7.421 0.427,0.346 c 0.236,0.191 0.62,0.346 0.854,0.346 0.783,0 1.147,1.802 0.496,2.453 -0.934,0.934 -4.118,0.011 -4.901,-1.421 -0.487,-0.891 -0.587,-16.206 -0.108,-16.556 0.322,-0.236 2.014,-0.308 2.726,-0.117 m -160.34,5.26 c 3.084,1.205 4.695,5.476 3.467,9.185 -1.719,5.19 -9.382,5.348 -11.322,0.233 -2.175,-5.735 2.607,-11.47 7.855,-9.418 m 36.035,0.002 c 2.258,0.888 3.476,3.015 3.362,5.871 l -0.054,1.339 -3.698,0.049 c -4.061,0.054 -4.272,0.107 -4.073,1.021 0.457,2.093 3.839,2.828 6.207,1.348 0.69,-0.43 1.587,1.311 1.122,2.18 -0.639,1.193 -5.705,1.636 -7.667,0.669 -4.534,-2.234 -4.376,-10.735 0.232,-12.451 1.111,-0.414 3.547,-0.428 4.569,-0.026 m 13.141,-0.087 c 0.276,0.277 0.285,2.358 0.011,2.632 -0.128,0.128 -0.533,0.167 -1.071,0.104 -1.056,-0.125 -2.424,0.446 -2.595,1.082 -0.059,0.221 -0.108,2.328 -0.109,4.682 -0.003,4.893 0.154,4.501 -1.806,4.501 -1.753,0 -1.649,0.436 -1.594,-6.721 l 0.047,-6.226 h 1.081 c 0.952,0 1.107,0.051 1.292,0.423 0.375,0.752 0.532,0.801 1.087,0.338 1.163,-0.969 3.076,-1.396 3.657,-0.815 m 11.353,0.127 c 2.112,0.98 2.445,2.066 2.445,7.982 0,5.179 0.106,4.892 -1.811,4.892 -1.912,0 -1.811,0.263 -1.812,-4.699 0,-4.716 -0.108,-5.212 -1.221,-5.643 -0.704,-0.272 -2.158,-0.095 -2.73,0.332 l -0.484,0.362 -0.049,4.583 c -0.032,3.011 -0.117,4.666 -0.248,4.824 -0.259,0.313 -2.709,0.332 -3.017,0.024 -0.311,-0.311 -0.311,-12.292 0,-12.603 0.54,-0.54 2.182,-0.223 2.396,0.462 0.146,0.467 0.672,0.536 1.07,0.139 0.947,-0.947 4.033,-1.318 5.461,-0.655 m 13.096,-0.007 c 3.417,1.387 4.792,6.002 2.988,10.023 -1.856,4.136 -8.826,4.08 -10.722,-0.087 -2.668,-5.859 2.24,-12.165 7.734,-9.936 m 34.297,-0.033 c 2.268,0.892 3.491,3.074 3.362,6 l -0.053,1.21 -3.698,0.049 c -4.061,0.054 -4.273,0.107 -4.073,1.021 0.466,2.133 3.42,2.772 6.192,1.34 0.717,-0.371 1.607,1.315 1.145,2.17 -0.637,1.178 -5.649,1.651 -7.641,0.721 -4.559,-2.128 -4.423,-10.764 0.198,-12.485 1.111,-0.414 3.547,-0.428 4.568,-0.026 m 64.863,0.012 c 2.254,0.802 3.93,4.276 3.291,6.822 l -0.117,0.467 -3.663,0.003 c -4.069,0.003 -4.22,0.038 -4.043,0.928 0.394,1.985 2.736,2.694 5.55,1.679 1.446,-0.522 1.461,-0.516 1.767,0.703 0.407,1.621 -1.074,2.392 -4.584,2.387 -4.234,-0.005 -6.329,-2.226 -6.316,-6.696 0.015,-5.044 3.667,-7.876 8.115,-6.293 m -147.693,0.082 c 0.311,0.311 0.311,12.292 0,12.603 -0.128,0.128 -0.744,0.217 -1.503,0.217 -1.821,0 -1.72,0.314 -1.72,-5.332 l -0.001,-4.899 -0.678,-0.362 c -0.736,-0.392 -1.057,-1.608 -0.577,-2.186 0.28,-0.338 4.147,-0.373 4.479,-0.041 m 129.054,6.302 v 6.428 l -1.42,0.053 c -2.063,0.077 -1.93,0.439 -1.93,-5.234 v -4.864 l -0.724,-0.458 c -0.643,-0.406 -0.724,-0.536 -0.724,-1.164 0,-1.317 -0.041,-1.297 2.511,-1.24 l 2.287,0.05 v 6.429 m -157.491,-3.881 c -1.894,1.028 -1.803,6.842 0.122,7.755 1.387,0.659 2.972,-0.221 3.305,-1.833 0.851,-4.129 -0.961,-7.26 -3.427,-5.922 m 14.168,0.131 -0.814,0.4 -0.05,3.107 -0.049,3.106 0.659,0.544 c 2.16,1.78 4.115,0.169 4.134,-3.407 0.02,-3.536 -1.441,-4.947 -3.88,-3.75 m 21.999,-0.213 c -0.549,0.266 -1.207,1.334 -1.238,2.008 l -0.027,0.596 h 2.173 2.173 l 0.056,-0.491 c 0.18,-1.556 -1.692,-2.817 -3.137,-2.113 m 37.455,0.031 c -1.652,0.926 -1.933,6.015 -0.413,7.471 0.998,0.956 2.913,0.596 3.417,-0.642 1.579,-3.887 -0.366,-8.309 -3.004,-6.829 m 20.13,0.108 c -2.116,0.974 -2.127,6.695 -0.015,7.697 1.033,0.491 2.714,0.083 3.169,-0.768 0.225,-0.421 0.269,-6.15 0.05,-6.495 -0.429,-0.676 -2.168,-0.911 -3.204,-0.434 m 14.234,-0.067 c -0.588,0.322 -1.084,1.148 -1.146,1.907 l -0.051,0.625 h 2.173 2.173 l 0.057,-0.491 c 0.184,-1.596 -1.763,-2.835 -3.206,-2.041 m 64.776,0.035 c -0.603,0.374 -1.281,1.552 -1.205,2.091 0.079,0.553 4.23,0.743 4.438,0.203 0.568,-1.482 -1.815,-3.174 -3.233,-2.294"
       inkscape:connector-curvature="0"
       style="fill:#ef3f44;fill-rule:evenodd;stroke:none" />
    <path
       id="path1"
       d="m 0,181.077 v 181.078 h 81.938 81.937 V 181.077 0 H 81.938 0 V 181.077 M 83.477,17.425 c 3.04,1.361 4.164,5.56 2.245,8.389 -0.249,0.366 -0.404,0.714 -0.346,0.773 0.151,0.15 1.324,-1.196 1.73,-1.983 0.499,-0.967 0.788,-0.99 2.002,-0.161 1.261,0.861 1.082,0.843 2.526,0.256 4.103,-1.667 8.384,0.404 8.643,4.183 0.065,0.95 0.176,1.353 0.446,1.61 0.888,0.848 0.02,3.34 -1.774,5.09 -0.613,0.597 -1.162,1.223 -1.221,1.39 -0.424,1.214 -5.598,1.693 -7.747,0.717 -1.184,-0.538 -3.064,-2.442 -3.064,-3.103 0,-0.199 -0.081,-0.362 -0.181,-0.362 -0.365,0 0.19,1.483 0.773,2.066 0.418,0.418 0.397,1.062 -0.049,1.465 -0.415,0.376 -0.452,0.674 -0.145,1.166 0.264,0.424 -0.318,1.685 -1.144,2.476 -0.329,0.315 -0.521,0.685 -0.521,1.002 0,0.52 -0.603,1.241 -1.037,1.241 -0.134,0 -0.397,0.357 -0.585,0.795 -0.264,0.617 -0.506,0.868 -1.08,1.121 -0.844,0.373 -0.882,0.476 -0.366,0.992 0.924,0.924 0.079,1.505 -1.458,1.002 -1.798,-0.588 -4.436,-0.552 -6.934,0.094 -1.162,0.301 -1.587,-0.03 -1.209,-0.942 0.229,-0.553 0.216,-0.602 -0.262,-0.962 -1.385,-1.046 -2.081,-2.105 -2.27,-3.457 -0.086,-0.618 -0.205,-0.777 -0.825,-1.097 -0.497,-0.257 -0.784,-0.557 -0.915,-0.956 -0.106,-0.32 -0.375,-0.71 -0.598,-0.866 -0.49,-0.343 -0.426,-0.657 0.161,-0.796 0.398,-0.094 0.367,-0.139 -0.421,-0.601 -0.733,-0.429 -0.853,-0.581 -0.855,-1.08 -0.003,-0.603 -0.345,-1.41 -0.362,-0.853 -0.052,1.759 -3.888,2.973 -7.089,2.245 -6.65,-1.513 -7.58,-9.918 -1.419,-12.817 2.191,-1.031 6.501,-0.646 7.167,0.641 0.404,0.782 0.619,0.465 0.619,-0.916 0,-4.038 2.987,-6.898 7.205,-6.898 1.384,0 1.662,0.552 1.034,2.054 -0.627,1.501 -0.254,1.999 0.547,0.732 0.552,-0.874 1.326,-1.563 2.084,-1.854 0.403,-0.155 0.415,-0.185 0.114,-0.306 -0.198,-0.08 -0.586,-0.014 -0.957,0.163 -1.149,0.548 -1.334,0.192 -0.397,-0.766 1.475,-1.508 5.533,-1.962 7.935,-0.887 m 0.654,3.082 c 0.077,0.324 0.145,0.772 0.15,0.996 0.012,0.452 0.248,0.452 0.534,-0.001 0.136,-0.216 0.103,-0.472 -0.12,-0.94 -0.394,-0.827 -0.756,-0.862 -0.564,-0.055 m 9.848,4.788 c -1.714,0.456 -2.257,1.323 -0.829,1.323 1.329,0 2.445,1.6 2.464,3.531 l 0.007,0.725 0.376,-0.452 c 0.571,-0.687 -0.07,-3.804 -0.782,-3.804 -0.082,0 -0.149,-0.122 -0.149,-0.271 0,-0.352 0.357,-0.346 0.872,0.015 0.716,0.501 1.284,1.629 1.517,3.009 0.252,1.492 0.446,1.171 0.486,-0.806 0.025,-1.185 0.419,-1.455 0.663,-0.453 l 0.143,0.589 0.077,-0.538 c 0.042,-0.296 -0.013,-0.568 -0.121,-0.604 -0.108,-0.036 -0.197,-0.209 -0.197,-0.385 0,-0.504 -1.2,-1.611 -1.949,-1.799 -1.332,-0.333 -1.595,-0.341 -2.578,-0.08 m -34.314,1.301 c -0.929,0.241 -2.263,1.167 -2.263,1.571 0,0.143 0.645,0.087 0.823,-0.072 1.161,-1.03 4.609,-0.641 4.609,0.519 0,0.315 -0.127,0.359 -1.041,0.365 -1.424,0.008 -3.305,0.97 -3.305,1.689 0,0.3 0.403,0.239 0.881,-0.134 0.822,-0.64 2.79,-0.844 3.854,-0.4 1.061,0.444 1.318,0.885 1.394,2.394 0.077,1.533 0.332,1.681 0.714,0.414 1.05,-3.488 -2.284,-7.224 -5.666,-6.346 m 51.698,4.209 c 0,0.589 0.67,0.751 1.077,0.261 0.302,-0.365 0.702,-0.16 0.768,0.393 0.083,0.691 0.577,0.931 1.046,0.507 0.459,-0.416 0.799,-0.172 0.812,0.581 0.011,0.604 0.516,0.761 1.011,0.312 0.528,-0.477 0.964,-0.211 0.829,0.507 -0.06,0.322 -0.182,1.083 -0.271,1.691 -0.24,1.653 -0.823,2.525 -1.379,2.064 -0.222,-0.184 -0.272,-0.174 -0.272,0.058 0,0.155 0.068,0.324 0.151,0.376 1.453,0.898 -0.208,6.327 -2.037,6.656 -0.456,0.082 -0.596,0.515 -0.166,0.514 0.183,-0.001 0.565,-0.123 0.851,-0.272 1.688,-0.88 3.002,2.079 1.641,3.696 -0.816,0.969 0.113,1.226 2.143,0.592 1.373,-0.429 1.504,-0.574 1.145,-1.269 -0.43,-0.83 -0.359,-1.319 0.437,-3.017 0.843,-1.801 0.838,-1.752 0.346,-3.404 -0.924,-3.103 1.505,-5.292 4.316,-3.889 1.999,0.999 3.938,4.102 5.179,8.288 0.162,0.548 0.452,1.526 0.644,2.173 3.04,10.241 2.89,27.164 -0.36,40.562 -1.015,4.188 -1.467,5.127 -2.42,5.033 -0.764,-0.074 -0.817,-0.985 -0.175,-3.041 0.891,-2.854 0.819,-3.07 -0.534,-1.619 -1.76,1.887 -2.654,0.607 -1.464,-2.094 0.324,-0.733 0.806,-2.432 0.806,-2.839 0,-0.442 -0.172,-0.415 -0.798,0.124 -1.216,1.045 -1.616,0.348 -0.832,-1.451 0.752,-1.723 0.993,-2.878 0.566,-2.713 -1.409,0.546 -1.896,0.038 -1.415,-1.477 0.539,-1.7 0.876,-3.372 0.767,-3.806 l -0.11,-0.438 -0.471,0.561 c -1.208,1.435 -1.928,0.151 -1.253,-2.234 0.591,-2.091 0.603,-2.02 -0.266,-1.531 l -0.734,0.413 -0.353,-0.428 c -0.409,-0.496 -0.481,-2.127 -0.159,-3.628 0.377,-1.756 0.158,-2.028 -0.537,-0.667 -1.219,2.387 -2.461,2.681 -2.853,0.677 -0.137,-0.699 -0.231,-0.813 -0.846,-1.024 -0.928,-0.319 -0.922,-0.31 -1.045,-1.69 l -0.107,-1.208 -0.028,1.294 c -0.026,1.181 0.015,1.34 0.469,1.827 0.274,0.294 0.609,0.771 0.744,1.061 0.781,1.675 0.954,2.114 1.379,3.497 0.592,1.925 1.19,3.455 2.481,6.355 0.2,0.448 0.432,0.978 0.516,1.177 0.084,0.199 0.275,0.647 0.425,0.996 1.491,3.467 1.619,4.125 0.937,4.807 -0.588,0.588 -0.932,0.56 -1.573,-0.126 l -0.532,-0.57 -0.501,0.479 c -0.648,0.622 -0.792,0.607 -1.647,-0.166 -0.597,-0.539 -0.774,-0.613 -1.075,-0.452 -0.545,0.291 -0.847,0.237 -1.438,-0.26 -0.939,-0.791 -1.662,-0.462 -1.663,0.758 -0.002,1.158 -1.051,2.161 -2.085,1.993 -0.652,-0.106 -0.993,0.124 -0.993,0.669 0,0.408 -0.67,1.197 -1.017,1.197 -0.449,0 -0.445,0.369 0.011,0.967 0.446,0.584 0.451,0.618 0.134,0.905 -0.664,0.601 -2.192,-1.73 -1.579,-2.408 0.592,-0.654 0.012,-1.17 -0.816,-0.727 -0.716,0.383 -0.786,0.867 -0.231,1.589 0.497,0.647 0.82,1.141 1.073,1.639 0.166,0.327 -0.793,1.099 -1.377,1.108 -0.249,0.005 -0.671,0.121 -0.936,0.26 -0.266,0.139 -0.832,0.311 -1.257,0.383 -0.426,0.072 -0.886,0.243 -1.024,0.38 -0.312,0.312 -0.475,0.226 -2.216,-1.174 -1.572,-1.264 -2.763,-1.889 -4.164,-2.184 -0.674,-0.142 -1.177,-0.386 -1.559,-0.757 -0.61,-0.59 -4.013,-0.92 -4.421,-0.428 -0.204,0.245 0.442,1.353 0.789,1.353 0.136,0 0.624,0.2 1.084,0.445 0.46,0.244 1.57,0.627 2.466,0.849 2.397,0.596 5.153,2.134 4.677,2.611 -0.277,0.277 -1.878,0.124 -2.493,-0.238 -0.931,-0.547 -2.332,-0.796 -3.189,-0.566 -0.659,0.177 -2.787,2.117 -2.787,2.541 0,0.366 5.092,-0.297 7.153,-0.931 0.587,-0.18 2.659,-0.638 3.757,-0.83 0.374,-0.065 0.679,-0.182 0.679,-0.259 0,-0.077 0.349,-0.193 0.775,-0.257 0.425,-0.064 1.005,-0.236 1.288,-0.382 0.282,-0.147 0.691,-0.267 0.907,-0.267 0.217,0 0.714,-0.163 1.104,-0.362 0.391,-0.199 0.877,-0.365 1.08,-0.368 0.203,-0.003 0.527,-0.125 0.72,-0.272 1.168,-0.883 5.896,1.448 5.896,2.907 0,0.346 0.124,0.438 0.724,0.539 0.397,0.068 0.768,0.195 0.823,0.284 0.225,0.365 2.272,1.419 2.548,1.313 1.754,-0.673 1.179,-4.969 -0.773,-5.785 -1.257,-0.525 -1.864,10e-4 -0.968,0.839 1.445,1.349 -0.555,2.966 -2.034,1.644 -0.889,-0.794 -0.891,-2.674 -0.003,-3.467 0.364,-0.326 0.589,-0.697 0.589,-0.975 0,-0.79 0.615,-0.932 1.67,-0.384 0.764,0.396 1.053,0.453 1.797,0.354 1.084,-0.144 1.506,0.157 1.671,1.19 0.062,0.385 0.284,1.095 0.494,1.576 0.416,0.953 0.533,2.544 0.282,3.819 l -0.152,0.77 h 1.664 c 2.577,0 3.761,1.46 2.338,2.883 -1,1 -1.973,0.715 -3.08,-0.902 l -0.287,-0.419 -0.882,0.441 c -1.177,0.589 -1.183,0.775 -0.05,1.425 4.667,2.676 12.782,2.185 14.724,-0.892 1.01,-1.601 0.237,-3.979 -0.89,-2.734 -1.535,1.696 -4.202,-0.306 -3,-2.252 1.646,-2.662 5.973,-0.617 5.973,2.822 0,1.064 0.35,1.51 0.912,1.162 0.452,-0.279 1.989,0.302 2.278,0.861 0.74,1.43 -0.772,2.966 -2.002,2.035 -0.525,-0.397 -0.919,-0.326 -1.584,0.287 -1.867,1.719 -5.952,3.401 -7.147,2.943 -0.43,-0.166 -1.098,0.432 -1.222,1.093 -0.304,1.624 -2.249,2.676 -2.712,1.468 -0.181,-0.472 -0.14,-0.583 0.431,-1.168 0.859,-0.878 0.577,-1.468 -0.815,-1.709 -1.727,-0.299 -4.392,-1.283 -5.994,-2.213 -2.192,-1.274 -1.886,-1.204 -3.831,-0.873 -2.448,0.417 -2.976,1.158 -0.835,1.171 0.212,0.002 0.487,0.125 0.611,0.275 0.16,0.193 0.165,0.271 0.018,0.271 -0.309,0 -1.829,1.455 -1.829,1.751 0,0.14 0.171,0.487 0.38,0.77 0.503,0.679 0.253,1.16 -0.785,1.512 -0.703,0.238 -0.768,0.312 -0.728,0.818 0.088,1.098 -1.264,1.661 -2.206,0.92 -0.466,-0.366 -0.555,-0.374 -1.819,-0.158 -1.738,0.297 -2.831,0.129 -3.611,-0.555 -0.567,-0.498 -1.19,-0.704 -1.19,-0.392 0,0.59 -3.191,1.921 -5.095,2.126 -0.666,0.072 -1.228,0.263 -1.619,0.552 -0.915,0.675 -1.686,0.596 -2.543,-0.261 -0.54,-0.54 -0.902,-0.734 -1.553,-0.832 -1.099,-0.164 -2.248,-0.623 -3.592,-1.434 -1.327,-0.8 -1.467,-0.804 -1.823,-0.057 -1.096,2.298 -4.795,1.529 -4.777,-0.994 0.019,-2.674 3.432,-3.245 6.559,-1.096 1.239,0.851 1.48,0.802 1.311,-0.271 -0.075,-0.473 -0.156,-1.43 -0.18,-2.127 l -0.045,-1.268 -0.75,-0.056 c -0.413,-0.03 -2.209,0.071 -3.992,0.227 -1.783,0.155 -4.092,0.282 -5.13,0.282 -1.038,0 -2.148,0.091 -2.468,0.202 -0.425,0.148 -0.858,0.15 -1.611,0.005 -0.567,-0.109 -2.009,-0.209 -3.204,-0.223 -1.195,-0.014 -3.273,-0.136 -4.617,-0.272 -3.926,-0.398 -4.774,-0.361 -4.633,0.199 0.062,0.251 0.019,1.19 -0.096,2.089 -0.269,2.096 -0.23,2.126 1.379,1.085 2.783,-1.802 5.384,-1.601 6.178,0.478 1.065,2.788 -3.402,4.496 -4.553,1.741 -0.313,-0.749 -0.666,-0.732 -1.936,0.093 -0.984,0.64 -2.535,1.255 -3.572,1.416 -0.606,0.094 -0.966,0.296 -1.466,0.821 -0.807,0.848 -1.596,0.93 -2.506,0.259 -0.402,-0.296 -0.951,-0.475 -1.71,-0.555 -1.889,-0.201 -3.311,-0.74 -4.676,-1.77 -0.813,-0.614 -0.789,-0.614 -1.527,0.033 -0.779,0.685 -1.918,0.863 -3.654,0.571 -1.236,-0.207 -1.343,-0.198 -1.79,0.154 -0.868,0.682 -2.37,0.122 -2.191,-0.817 0.105,-0.55 -0.006,-0.68 -0.842,-0.992 -1.011,-0.376 -1.192,-0.749 -0.693,-1.424 0.221,-0.299 0.402,-0.628 0.402,-0.732 0,-0.252 -1.278,-1.542 -1.672,-1.688 -0.483,-0.179 -0.182,-0.673 0.409,-0.673 1.379,0 1.561,-0.818 0.222,-1 -0.474,-0.064 -1.294,-0.22 -1.823,-0.348 -0.895,-0.216 -1.002,-0.205 -1.539,0.158 -2.121,1.434 -5.337,2.76 -7.507,3.095 -1.372,0.212 -1.643,0.819 -0.766,1.716 1.004,1.027 0.288,2.156 -0.959,1.512 -0.731,-0.378 -0.949,-0.666 -1.313,-1.74 -0.29,-0.853 -0.802,-1.33 -1.245,-1.16 -1.043,0.4 -4.889,-1.088 -6.795,-2.631 -1.108,-0.896 -1.169,-0.921 -1.711,-0.698 -1.065,0.439 -1.444,0.428 -1.968,-0.058 -1.289,-1.194 0.184,-3.187 2.003,-2.711 0.66,0.173 0.909,-0.204 0.89,-1.349 -0.06,-3.468 4.771,-5.328 6.129,-2.36 0.817,1.786 -1.685,3.467 -3.037,2.041 -1.285,-1.356 -2.075,1.119 -0.883,2.766 2.146,2.962 9.587,3.412 14.412,0.871 1.312,-0.691 1.352,-0.96 0.224,-1.52 -0.965,-0.478 -1.197,-0.402 -1.696,0.564 -0.564,1.09 -1.997,1.185 -2.784,0.184 -0.738,-0.938 -0.143,-2.328 1.184,-2.766 0.835,-0.276 0.756,-0.58 -0.496,-1.918 -0.46,-0.492 -0.536,-0.73 -0.605,-1.902 -0.082,-1.399 -0.247,-2.301 -0.809,-4.417 -1.444,-5.448 -1.438,-5.508 0.817,-7.385 2.075,-1.727 2.067,-3.132 -0.036,-5.706 -1.113,-1.363 -1.4,-1.468 -2.435,-0.891 -0.984,0.55 -1.563,0.624 -1.718,0.22 -0.063,-0.163 -0.336,-0.272 -0.683,-0.272 -0.843,0 -1.069,-0.302 -0.697,-0.932 0.29,-0.49 0.286,-0.526 -0.097,-0.883 -0.471,-0.439 -0.494,-0.598 -0.128,-0.901 0.184,-0.153 0.272,-0.562 0.272,-1.265 0,-1.695 1.04,-2.605 1.745,-1.528 0.29,0.441 0.286,0.505 -0.062,1.222 -0.578,1.191 -0.065,1.91 1.229,1.722 0.362,-0.053 0.442,-0.222 0.629,-1.334 0.487,-2.906 4.116,-6.657 14.118,-14.595 3.178,-2.522 3.611,-3.16 2.826,-4.161 -0.186,-0.238 -0.994,-1.413 -1.795,-2.613 -1.325,-1.984 -1.812,-2.866 -2.368,-4.286 -0.126,-0.322 -0.524,-0.659 -1.15,-0.975 -0.527,-0.266 -1.226,-0.717 -1.553,-1.002 -0.668,-0.584 -1.11,-0.637 -2.177,-0.26 -0.625,0.22 -0.766,0.222 -0.943,0.008 -0.47,-0.566 0.407,-1.482 1.592,-1.662 1.382,-0.211 1.579,-0.903 0.426,-1.491 -0.842,-0.43 -1.339,-0.983 -1.259,-1.4 0.097,-0.506 0.677,-0.505 1.209,0.002 0.639,0.61 1.475,0.935 1.475,0.573 0,-0.143 -0.183,-0.355 -0.407,-0.469 -0.661,-0.339 -1.038,-0.92 -0.839,-1.292 0.238,-0.445 0.433,-0.41 1.334,0.237 1.387,0.997 2.101,0.407 1.22,-1.008 -0.577,-0.927 -0.586,-1.363 -0.028,-1.363 0.37,0 1.256,0.86 1.256,1.221 0,0.125 0.122,0.228 0.271,0.228 0.415,0 0.327,-0.45 -0.255,-1.304 -0.56,-0.821 -0.507,-1.414 0.126,-1.411 0.342,10e-4 1.125,1.033 1.125,1.481 0,0.446 0.472,0.725 1.115,0.66 0.5,-0.051 0.653,0.034 1.005,0.555 0.431,0.639 0.549,1.286 0.234,1.286 -0.546,0 -0.087,0.512 0.551,0.614 0.499,0.08 0.98,0.346 1.51,0.834 0.731,0.674 2.541,1.441 3.417,1.447 0.481,0.004 1.041,0.666 1.037,1.225 -0.008,1.013 -1.02,1.725 -2.749,1.935 -1.802,0.219 -1.712,0.861 0.218,1.556 1.415,0.509 2.252,1.017 3.015,1.831 0.792,0.845 2.055,2.856 2.055,3.274 0,1.087 0.633,1.284 1.72,0.535 0.667,-0.46 1.062,-0.972 2.241,-2.905 0.685,-1.123 1.274,-1.211 4.304,-0.644 1.72,0.322 2.827,0.438 3.519,0.369 1.199,-0.118 2.079,0.097 3.22,0.786 0.462,0.279 1.163,0.565 1.558,0.636 2.385,0.424 2.247,1.252 -0.341,2.059 -1.545,0.482 -1.829,0.486 -2.41,0.029 -0.265,-0.208 -0.734,-0.362 -1.106,-0.362 -0.477,0 -0.797,-0.147 -1.224,-0.56 -1.025,-0.993 -4.367,-1.253 -5.619,-0.436 -0.261,0.17 -0.6,0.902 -1.049,2.27 -0.796,2.419 -1.381,3.434 -1.978,3.434 -1.567,0 0.314,2.757 2.39,3.504 1.133,0.408 2.174,1.402 2.776,2.653 l 0.305,0.633 0.012,-0.566 c 0.023,-1.136 -1.457,-4.223 -2.91,-6.069 -0.768,-0.976 -0.72,-1.054 1.825,-3.037 2.441,-1.902 2.757,-2.039 3.471,-1.501 1.707,1.284 4.635,1.268 7.494,-0.043 2.708,-1.241 6.501,-1.742 8.423,-1.113 0.484,0.158 1.026,0.288 1.205,0.288 0.386,0 2.298,0.758 2.382,0.945 0.032,0.071 0.358,0.184 0.724,0.25 0.366,0.066 0.886,0.232 1.155,0.368 1.028,0.52 3.513,0.328 4.943,-0.382 1.482,-0.736 1.69,-0.715 2.77,0.279 0.17,0.156 0.838,0.683 1.486,1.17 0.647,0.488 1.395,1.083 1.663,1.324 l 0.486,0.437 -0.396,0.587 c -0.217,0.323 -0.742,1.093 -1.165,1.71 -0.423,0.618 -0.769,1.193 -0.769,1.277 0,0.085 -0.115,0.384 -0.255,0.666 -1.053,2.123 -1.085,2.255 -1.084,4.406 0.003,2.736 0.183,3.147 1.416,3.226 1.424,0.09 2.099,0.771 2.64,2.665 0.333,1.161 1.455,2.782 1.936,2.795 0.12,0.003 0.309,0.149 0.42,0.323 0.17,0.266 0.183,0.245 0.081,-0.136 -0.527,-1.953 -0.205,-3.668 0.879,-4.68 0.453,-0.423 1.21,-0.422 1.21,0 0,0.215 0.931,1.24 1.125,1.24 0.151,0 -0.039,-0.589 -0.233,-0.725 -0.518,-0.362 -1.913,-3.847 -2.083,-5.203 -0.21,-1.684 -0.545,-2.095 -0.676,-0.829 -0.189,1.836 -1.242,2.578 -2.24,1.579 -0.457,-0.456 -0.507,-0.469 -0.683,-0.168 -1.469,2.505 -3.476,1.305 -3.105,-1.856 0.066,-0.557 0.189,-1.1 0.274,-1.207 0.085,-0.106 0.211,-0.457 0.28,-0.779 0.069,-0.323 0.206,-0.636 0.304,-0.697 0.098,-0.06 0.256,-0.285 0.351,-0.5 0.192,-0.435 0.45,-0.834 1.57,-2.437 1.012,-1.447 1.054,-1.342 -1.277,-3.204 -0.374,-0.299 -0.885,-0.726 -1.137,-0.95 -0.251,-0.225 -0.513,-0.409 -0.583,-0.411 -0.069,-10e-4 -0.402,-0.246 -0.739,-0.543 -0.808,-0.711 -1.43,-0.691 -2.985,0.097 -2.588,1.311 -7.014,0.275 -6.103,-1.428 2.551,-4.767 8.856,-8.731 11.698,-7.355 1.293,0.626 1.428,1.388 0.719,4.054 -0.487,1.831 -0.574,3.155 -0.25,3.787 0.987,1.92 3.275,2.338 5.295,0.967 0.543,-0.368 0.773,-0.429 1.123,-0.296 0.437,0.166 0.633,-0.045 0.257,-0.277 -0.603,-0.373 -0.874,-1.987 -0.466,-2.769 0.776,-1.486 3.769,-2.817 4.933,-2.195 0.338,0.181 0.48,0.184 0.651,0.013 0.286,-0.286 0.001,-0.759 -0.651,-1.079 -0.605,-0.297 -1.023,-1.089 -1.023,-1.937 0,-1.227 -1.261,-2.036 -2.119,-1.361 -0.397,0.312 -1.141,0.266 -1.141,-0.071 0,-0.034 -0.116,-0.341 -0.258,-0.681 -0.477,-1.141 0.945,-2.734 2.166,-2.428 0.351,0.089 0.45,0.009 0.617,-0.499 0.252,-0.763 1.026,-1.507 1.73,-1.663 1.131,-0.25 1.155,-0.27 1.212,-0.956 0.046,-0.553 0.158,-0.717 0.641,-0.941 0.321,-0.15 0.586,-0.408 0.588,-0.575 0.002,-0.167 0.217,-0.556 0.477,-0.865 0.553,-0.658 0.976,-0.495 0.976,0.375 m -25.807,1.069 c -0.138,0.224 0.441,1.806 0.661,1.806 0.179,0 0.213,-1.272 0.047,-1.705 -0.124,-0.323 -0.534,-0.382 -0.708,-0.101 m -25.91,0.6 c -0.62,0.533 -0.46,0.898 0.282,0.639 1.408,-0.491 2.162,1 1.095,2.168 -0.873,0.956 -0.639,1.247 0.458,0.569 1.536,-0.949 1.565,-2.682 0.057,-3.452 -0.891,-0.454 -1.294,-0.438 -1.892,0.076 m 20.757,2.671 c -1.235,1.562 -0.816,4.402 0.527,3.574 1.109,-0.684 1.61,-2.425 0.645,-2.244 -0.744,0.14 -0.752,0.109 -0.246,-0.904 0.747,-1.496 0.14,-1.775 -0.926,-0.426 m -7.79,0.12 c 0.001,0.075 0.225,0.27 0.498,0.435 0.273,0.164 0.966,0.633 1.54,1.041 0.574,0.408 1.086,0.742 1.139,0.742 0.182,0 1.168,0.793 1.168,0.939 0,0.328 -1.83,-0.349 -2.092,-0.774 -0.056,-0.091 -0.234,-0.165 -0.394,-0.165 -0.161,0 -0.421,-0.113 -0.578,-0.25 -0.497,-0.435 -1.089,-0.534 -1.216,-0.204 -0.138,0.36 0.358,0.739 1.745,1.335 2.297,0.987 2.897,1.371 2.897,1.857 0,0.474 -0.48,0.426 -1.119,-0.112 -0.644,-0.542 -1.054,-0.582 -1.054,-0.104 0,0.363 0.789,1.1 1.177,1.1 0.123,0 0.449,0.177 0.725,0.394 l 0.502,0.395 -0.387,0.313 c -0.62,0.502 -0.318,1.252 0.504,1.252 0.68,0 0.965,-2.976 0.45,-4.709 -0.398,-1.341 -0.743,-1.742 -1.794,-2.086 -0.887,-0.29 -2.06,-0.791 -3.016,-1.286 -0.545,-0.283 -0.696,-0.307 -0.695,-0.113 m 5.431,0.825 c 0,0.23 0.12,0.577 0.266,0.77 0.146,0.193 0.269,0.62 0.272,0.949 0.003,0.329 0.128,0.833 0.277,1.122 0.186,0.361 0.285,1.198 0.317,2.692 0.043,2.051 0.15,2.606 0.446,2.31 0.205,-0.205 0.094,-5.032 -0.12,-5.246 -0.105,-0.104 -0.19,-0.446 -0.19,-0.759 0,-0.334 -0.146,-0.702 -0.352,-0.888 -0.194,-0.176 -0.404,-0.555 -0.467,-0.843 -0.137,-0.626 -0.449,-0.7 -0.449,-0.107 m 31.62,-0.04 c -0.617,0.485 -0.6,0.709 0.054,0.709 0.812,0 1.046,0.148 1.749,1.105 0.713,0.971 0.82,1.023 1.24,0.602 0.397,-0.397 0.145,-0.793 -1.119,-1.756 -1.431,-1.091 -1.393,-1.078 -1.924,-0.66 m 4.443,0.165 c 0.389,0.526 0.696,0.7 0.696,0.395 0,-0.154 -0.837,-0.938 -1.003,-0.938 -0.052,0 0.087,0.245 0.307,0.543 m -5.159,1.932 c -0.216,0.217 -0.128,0.361 0.356,0.581 0.597,0.273 0.676,0.198 0.324,-0.305 -0.287,-0.41 -0.471,-0.485 -0.68,-0.276 m 12.394,0.524 c -0.708,0.595 -0.912,1.548 -0.499,2.327 0.636,1.2 0.594,1.636 -0.287,2.96 -1.131,1.703 -1.302,3.691 -0.39,4.569 0.822,0.793 1.618,-0.225 1.006,-1.288 -0.576,-1.001 -0.509,-1.866 0.241,-3.11 0.733,-1.216 0.765,-1.444 0.271,-1.938 -0.499,-0.499 -0.492,-1.777 0.013,-2.42 0.436,-0.554 1.214,-0.646 1.364,-0.16 0.202,0.654 0.39,0.852 0.813,0.856 0.351,0.003 0.445,0.109 0.485,0.547 0.103,1.127 0.215,1.358 0.656,1.358 0.64,0 0.894,0.429 0.791,1.337 -0.108,0.965 0.211,1.787 0.86,2.212 0.805,0.528 0.845,0.944 0.257,2.706 -0.801,2.398 -0.524,3.473 0.723,2.806 1.275,-0.682 1.379,1.791 0.202,4.792 -0.924,2.354 -1.044,3.409 -0.4,3.5 0.468,0.066 0.789,-0.259 1.222,-1.237 0.943,-2.131 1.617,7.01 0.975,13.219 -0.395,3.814 -0.81,11.548 -0.542,10.082 0.088,-0.481 0.255,-1.133 0.371,-1.449 0.224,-0.609 0.597,-3.182 0.897,-6.189 1.413,-14.141 -0.934,-28.861 -5.43,-34.06 -1.697,-1.962 -2.553,-2.3 -3.599,-1.42 M 43.361,38.586 c -0.891,0.251 -2.368,2.122 -1.978,2.504 0.386,0.377 0.677,0.266 0.888,-0.338 0.322,-0.925 0.98,-1.352 1.753,-1.138 0.425,0.117 0.898,0.1 1.511,-0.056 0.72,-0.183 0.963,-0.181 1.264,0.006 0.844,0.528 1.747,0.696 2.059,0.384 0.491,-0.492 -0.116,-0.914 -1.374,-0.954 -0.571,-0.018 -1.445,-0.12 -1.943,-0.226 -0.498,-0.106 -1.068,-0.226 -1.268,-0.266 -0.199,-0.039 -0.609,-0.002 -0.912,0.084 m 37.877,0.853 c -0.523,0.754 -0.618,1.303 -0.227,1.303 0.341,0 1.198,-1.156 1.198,-1.617 0,-0.586 -0.448,-0.441 -0.971,0.314 m -37.463,1.555 c -0.399,0.304 -0.412,0.699 -0.021,0.622 0.401,-0.08 0.94,-0.876 0.587,-0.868 -0.137,0.003 -0.391,0.114 -0.566,0.246 M 93.481,41 c -1.27,0.461 -1.112,0.648 0.552,0.648 1.664,0 1.938,-0.166 1.042,-0.629 C 94.466,40.704 94.3,40.702 93.481,41 m -12.252,0.662 c -0.478,0.568 -0.55,0.83 -0.363,1.318 0.167,0.435 0.598,0.139 0.966,-0.664 0.553,-1.207 0.192,-1.599 -0.603,-0.654 m 26.429,2.871 c -0.123,0.2 0.162,0.416 0.329,0.249 0.173,-0.173 0.14,-0.418 -0.054,-0.418 -0.094,0 -0.217,0.076 -0.275,0.169 m -61.754,0.916 c -0.241,0.389 0.352,0.728 2.643,1.512 1.24,0.425 2.721,1.025 3.291,1.334 1.557,0.843 1.476,-0.117 -0.13,-1.53 -1.105,-0.973 -5.412,-1.949 -5.804,-1.316 m 29.515,4.104 c -0.673,0.106 -2.655,0.791 -2.888,0.997 -0.095,0.083 -0.281,0.152 -0.414,0.152 -0.133,0 -0.456,0.14 -0.718,0.312 -1.875,1.228 -4.782,1.233 -6.146,0.009 -0.26,-0.233 -0.588,-0.328 -0.996,-0.289 -0.728,0.07 -0.847,0.573 -0.156,0.656 0.836,0.1 0.971,0.192 0.723,0.491 -0.288,0.347 -0.982,0.346 -1.33,-0.002 -0.366,-0.366 -0.816,-0.341 -1.509,0.081 -1.111,0.678 -1.111,0.954 -0.003,2.607 0.544,0.812 1.137,1.884 1.319,2.382 0.181,0.498 0.381,0.946 0.444,0.996 0.715,0.564 0.686,6.862 -0.036,7.687 -0.083,0.094 -0.151,0.328 -0.151,0.519 0,0.191 -0.276,0.806 -0.614,1.367 -1.031,1.711 -1.675,4.667 -0.74,3.397 0.364,-0.494 0.478,0.104 0.411,2.15 -0.051,1.573 -0.067,1.627 -0.46,1.573 -0.52,-0.073 -0.541,0.469 -0.059,1.53 1.078,2.375 4.261,4.232 7.257,4.235 0.747,10e-4 1.928,0.126 2.625,0.277 2.548,0.553 2.297,0.553 2.087,0.002 -0.753,-1.982 -0.1,-9.078 0.804,-8.731 0.516,0.198 0.405,8.7 -0.118,9.067 -0.218,0.152 -0.361,0.303 -0.317,0.334 1.721,1.228 1.956,1.477 2.638,2.804 0.675,1.313 0.862,1.279 1.714,-0.316 0.24,-0.448 0.627,-0.977 0.861,-1.177 0.234,-0.2 0.595,-0.547 0.802,-0.771 0.207,-0.224 0.52,-0.407 0.696,-0.407 0.175,0 0.365,-0.075 0.421,-0.167 0.204,-0.329 3.31,-0.92 4.837,-0.92 1.167,0 1.691,-0.085 2.234,-0.362 0.391,-0.199 0.819,-0.362 0.951,-0.362 0.455,0 1.586,-0.704 2.529,-1.573 2.728,-2.518 3.004,-6.042 0.805,-10.303 -2.444,-4.735 -2.038,-9.343 1.218,-13.838 0.81,-1.118 0.767,-1.205 -1.215,-2.507 -1.251,-0.822 -1.892,-0.93 -2.465,-0.417 -1.447,1.296 -3.547,1.245 -6.531,-0.157 -2.615,-1.229 -5.9,-1.741 -8.51,-1.326 m 38.75,0.787 c -0.187,0.302 0.851,0.582 1.77,0.477 1.14,-0.131 1.469,-0.344 0.765,-0.497 -0.87,-0.19 -2.413,-0.178 -2.535,0.02 m -14.033,0.283 c -0.349,0.131 -0.878,0.247 -1.177,0.255 -0.518,0.016 -0.527,0.029 -0.192,0.282 0.502,0.38 1.163,0.329 1.854,-0.141 0.98,-0.667 0.742,-0.861 -0.485,-0.396 m -18.283,0.639 c 2.042,0.744 1.336,0.889 -4.329,0.886 -5.603,-0.004 -6.445,-0.162 -4.592,-0.864 1.782,-0.675 7.095,-0.688 8.921,-0.022 m 10.088,0.474 c 0.104,0.316 -0.807,0.502 -1.133,0.231 -0.148,-0.123 -0.269,-0.3 -0.269,-0.393 0,-0.249 1.317,-0.096 1.402,0.162 m -36.203,0.509 c -0.143,0.142 0.064,1.173 0.235,1.173 0.207,0 0.211,-1.034 0.005,-1.162 -0.086,-0.053 -0.194,-0.058 -0.24,-0.011 m 37.698,0.964 c 0,1.08 -0.18,1.106 -8.067,1.157 -6.289,0.042 -7.234,0.083 -7.234,0.319 0,0.235 0.925,0.284 6.878,0.363 6.168,0.081 6.885,0.121 6.936,0.385 0.162,0.844 -0.132,0.882 -6.754,0.882 -6.273,0 -6.732,0.047 -6.239,0.642 0.184,0.221 1.158,0.263 5.985,0.263 5.474,0 5.775,0.018 5.95,0.344 0.405,0.757 -0.049,0.828 -5.948,0.924 -4.764,0.078 -5.541,0.129 -5.541,0.362 0,0.233 0.768,0.286 5.433,0.369 2.988,0.054 5.452,0.115 5.477,0.136 0.176,0.149 -0.009,0.926 -0.241,1.015 -0.157,0.06 -2.434,0.11 -5.059,0.11 -4.819,0 -5.346,0.071 -4.771,0.643 0.195,0.194 1.25,0.254 4.908,0.278 4.938,0.034 5.194,0.079 4.94,0.881 -0.148,0.465 -1.894,0.548 -2.26,0.107 -0.328,-0.396 -0.751,-0.289 -6.922,1.738 -0.866,0.285 -1.732,0.518 -1.924,0.518 -1.365,0 -0.675,0.829 1.266,1.522 1.489,0.532 1.636,0.516 2.664,-0.282 0.451,-0.35 7.056,-0.522 7.56,-0.196 0.113,0.073 0.541,0.825 0.95,1.671 l 0.745,1.538 -0.002,4.166 c -0.003,4.445 -0.1,5.019 -0.862,5.129 -0.29,0.041 -0.403,-0.035 -0.403,-0.272 0.005,-5.957 -0.124,-10.576 -0.301,-10.753 -0.542,-0.541 -0.605,0.061 -0.607,5.862 -0.003,5.906 -0.023,6.127 -0.583,6.334 -0.612,0.225 -0.682,-0.432 -0.682,-6.367 0,-5.836 -0.051,-6.301 -0.639,-5.813 -0.217,0.18 -0.27,1.275 -0.309,6.399 l -0.048,6.182 h -0.543 -0.543 l -0.091,-6.338 c -0.078,-5.473 -0.128,-6.338 -0.362,-6.338 -0.235,0 -0.284,0.863 -0.362,6.318 -0.081,5.638 -0.123,6.339 -0.393,6.509 -0.682,0.43 -0.875,-0.12 -0.875,-2.495 0,-2.114 -0.019,-2.225 -0.44,-2.591 l -0.441,-0.383 -0.057,2.876 c -0.062,3.074 -0.167,3.453 -0.853,3.086 C 82.406,80.213 82.39,80.073 82.39,77.042 V 73.88 h 0.453 c 0.636,0 0.582,-0.177 -0.543,-1.765 -2.797,-3.948 -4.31,-6.133 -4.388,-6.338 -0.177,-0.459 -0.758,-0.211 -1.271,0.543 -0.625,0.917 -3.222,4.546 -4.677,6.533 l -1.038,1.418 -0.017,2.726 c -0.015,2.335 -0.061,2.754 -0.319,2.918 -0.823,0.521 -0.875,0.14 -0.878,-6.374 -0.003,-6.061 -0.062,-6.695 -0.61,-6.485 -0.254,0.098 -0.293,0.851 -0.335,6.41 l -0.048,6.299 -0.432,0.061 c -0.709,0.1 -0.739,-0.17 -0.742,-6.524 -0.003,-6.143 -0.052,-6.608 -0.642,-6.118 -0.216,0.18 -0.27,1.241 -0.309,6.127 -0.048,5.869 -0.051,5.911 -0.432,5.965 -0.642,0.092 -0.699,-0.367 -0.793,-6.392 -0.078,-4.99 -0.128,-5.795 -0.362,-5.795 -0.234,0 -0.278,0.742 -0.32,5.394 -0.052,5.826 -0.134,6.266 -0.967,5.182 -0.372,-0.484 -0.54,-10.666 -0.176,-10.666 0.092,0 0.258,-0.277 0.37,-0.615 0.265,-0.804 0.391,-0.829 4.246,-0.832 l 3.243,-0.002 0.879,0.564 0.88,0.564 1.128,-0.409 c 2.373,-0.861 2.903,-1.313 1.808,-1.539 -0.274,-0.057 -2.128,-0.627 -4.12,-1.266 -4.263,-1.369 -4.883,-1.504 -5.039,-1.098 -0.166,0.432 -1.603,0.389 -2.01,-0.061 -0.438,-0.484 0.216,-0.916 1.35,-0.891 0.446,0.01 2.518,0.01 4.606,10e-4 4.335,-0.02 4.004,-0.13 5.208,1.733 1.22,1.886 1.239,1.824 1.185,-3.861 l -0.048,-4.996 -7.203,0.024 c -7.714,0.025 -8.28,-0.038 -8.28,-0.921 0,-0.498 -0.198,-0.492 16.071,-0.502 14.94,-0.01 15.618,0.004 15.618,0.317 m -16.868,2.279 c 0.15,0.78 -0.233,0.827 -6.776,0.827 H 63.6 l -0.281,-0.428 c -0.539,-0.823 -0.336,-0.847 6.658,-0.796 6.285,0.045 6.526,0.06 6.591,0.397 m -0.679,2.025 c 0.688,0.829 -0.173,0.975 -5.751,0.975 -5.635,0 -6.455,-0.124 -6.033,-0.912 0.268,-0.5 11.371,-0.56 11.784,-0.063 m -19.506,0.81 c -1.37,0.397 -1.123,0.988 0.371,0.888 2.207,-0.148 2.993,-0.08 3.268,0.284 0.146,0.193 0.268,0.263 0.271,0.156 0.007,-0.222 -0.58,-0.773 -1.301,-1.22 -0.529,-0.329 -1.684,-0.376 -2.609,-0.108 m 18.659,0.999 c 0.339,0.13 0.376,0.634 0.069,0.941 -0.23,0.229 -9.603,0.328 -10.18,0.107 -0.34,-0.13 -0.385,-0.907 -0.06,-1.038 0.326,-0.131 9.829,-0.141 10.171,-0.01 m -18.817,1.725 c -2.044,0.501 -3.417,0.605 -4.514,0.341 -1.331,-0.319 -1.841,-0.18 -1.035,0.282 1.426,0.817 1.41,0.743 0.465,2.152 -2.698,4.02 -5.599,5.808 -10.218,6.298 -0.248,0.026 -0.452,0.123 -0.452,0.216 0,0.29 1.047,0.487 2.083,0.391 1.514,-0.14 1.53,-0.109 1.078,2.083 -0.672,3.259 -0.36,4.554 1.576,6.551 1.834,1.892 3.241,2.597 5.435,2.725 0.842,0.05 1.701,0.209 1.992,0.369 2.019,1.111 2.507,1.235 4.002,1.017 0.966,-0.142 1.733,-0.152 2.404,-0.034 0.543,0.096 1.293,0.135 1.668,0.086 0.376,-0.048 0.792,0.005 0.929,0.118 0.157,0.13 0.602,0.165 1.219,0.094 0.882,-0.101 1.049,-0.059 1.788,0.445 0.585,0.4 1.028,0.558 1.572,0.56 0.732,0.003 1.506,0.635 1.506,1.229 0,0.267 1.266,1.044 2.144,1.316 0.914,0.283 1.18,0.173 1.807,-0.748 0.696,-1.024 1.732,-1.141 2.309,-0.261 0.416,0.636 0.191,1.121 -0.608,1.309 -1.244,0.292 -0.759,1.985 0.779,2.719 0.58,0.277 0.629,0.269 1.476,-0.236 1.275,-0.761 3.244,-0.778 4.341,-0.038 1.024,0.691 1.387,0.644 2.333,-0.302 1.13,-1.13 1.087,-1.875 -0.124,-2.179 -0.539,-0.135 -0.714,-0.54 -0.492,-1.139 0.369,-1 1.944,-0.89 2.311,0.161 0.474,1.36 4.186,0.456 4.186,-1.02 0,-0.412 0.67,-0.808 1.372,-0.811 0.489,-0.002 0.964,-0.175 1.525,-0.556 0.748,-0.507 0.898,-0.542 1.836,-0.434 0.625,0.073 1.065,0.048 1.134,-0.065 0.11,-0.178 1.585,-0.267 4.182,-0.254 0.911,0.005 1.6,0.136 2.445,0.463 0.647,0.251 1.666,0.496 2.264,0.544 0.597,0.048 1.453,0.22 1.901,0.381 2.966,1.066 4.696,0.208 3.543,-1.758 -0.337,-0.575 -0.465,-1.052 -0.465,-1.729 0,-1.581 -0.624,-1.161 -0.904,0.609 -0.366,2.316 -1.45,2.577 -1.45,0.35 0,-1.771 -0.421,-2.281 -0.984,-1.191 -0.724,1.4 -1.232,0.831 -1.383,-1.55 -0.154,-2.434 -0.237,-2.661 -0.914,-2.525 -0.912,0.182 -1.417,-0.463 -1.582,-2.02 -0.256,-2.421 -2.742,-4.035 -2.742,-1.781 0,0.333 -0.225,0.939 -0.523,1.409 -0.288,0.454 -0.582,1.101 -0.654,1.439 -0.725,3.424 -4.318,6.007 -8.692,6.249 -5.062,0.28 -7.325,1.222 -9.196,3.826 -0.742,1.032 -1.179,1.015 -2.067,-0.078 -2.175,-2.678 -4.123,-3.459 -9.38,-3.76 -5.223,-0.299 -8.769,-3.799 -8.788,-8.676 -0.003,-0.972 -0.091,-1.588 -0.258,-1.807 -0.325,-0.43 0.012,-1.47 0.798,-2.463 0.436,-0.55 0.52,-0.798 0.44,-1.296 -0.076,-0.476 0.011,-0.778 0.382,-1.323 0.265,-0.389 0.483,-0.837 0.484,-0.996 0.006,-0.723 -0.371,-3.147 -0.509,-3.273 -1.055,-0.961 -2.093,-1.812 -2.197,-1.799 -0.071,0.008 -0.782,0.175 -1.578,0.37 m 13.023,2.865 c 0.358,0.221 0.604,0.476 0.548,0.567 -0.189,0.306 -5.097,0.206 -5.217,-0.106 -0.228,-0.596 0.074,-0.798 1.304,-0.871 1.907,-0.114 2.668,-0.021 3.365,0.41 m 20.966,-0.123 c 0.43,0.665 0.123,0.764 -2.53,0.815 -1.56,0.031 -2.578,-0.018 -2.578,-0.123 0,-0.184 0.811,-0.804 1.268,-0.97 0.509,-0.184 3.69,0.046 3.84,0.278 m 3.864,1.933 c -0.331,0.365 -0.328,0.371 0.15,0.371 0.494,0 0.54,0.06 0.738,0.96 0.275,1.251 1.926,2.271 1.901,1.174 -0.042,-1.827 -1.896,-3.492 -2.789,-2.505 m -33.221,1.253 c -0.295,0.443 -0.445,0.942 -0.463,1.53 -0.014,0.481 -0.125,0.935 -0.248,1.011 -0.327,0.202 -0.961,1.456 -0.838,1.656 0.624,1.009 2.258,-1.762 2.258,-3.829 0,-1.103 -0.163,-1.188 -0.709,-0.368 m 10.246,0.144 c -0.221,0.221 -0.14,4.225 0.086,4.225 0.7,0 1.087,-3.976 0.412,-4.235 -0.354,-0.137 -0.351,-0.137 -0.498,0.01 m 12.774,0.095 c -0.289,0.289 -0.296,4.467 -0.008,5.427 0.423,1.412 0.604,0.671 0.604,-2.474 0,-3.015 -0.09,-3.459 -0.596,-2.953 m 12.916,2.67 c -0.059,0.096 -0.159,0.837 -0.221,1.647 -0.104,1.342 -0.153,1.488 -0.552,1.64 -0.499,0.19 -0.496,0.653 0.007,0.961 0.72,0.44 1.212,-0.58 1.212,-2.515 0,-1.55 -0.164,-2.188 -0.446,-1.733 M 77.23,76.518 c 0,5.875 -0.023,6.324 -0.317,6.381 -0.186,0.036 -0.317,-0.049 -0.317,-0.205 0,-0.146 -0.122,-0.312 -0.272,-0.369 -0.511,-0.197 -0.394,-11.279 0.125,-11.832 0.754,-0.803 0.781,-0.601 0.781,6.025 m 1.647,-5.759 c 0.551,0.367 0.616,0.999 0.616,5.994 0,5.26 -0.064,5.791 -0.771,6.363 -0.662,0.536 -0.678,0.401 -0.678,-5.882 0,-6.782 0.03,-7.012 0.833,-6.475 m 14.734,2.306 c 0,1.387 -0.227,2.069 -0.482,1.443 -0.361,-0.885 -0.075,-3.593 0.314,-2.977 0.093,0.146 0.168,0.837 0.168,1.534 M 61.204,72.793 c 0,0.693 0.068,1.066 0.181,0.996 0.1,-0.062 0.181,-0.51 0.181,-0.996 0,-0.486 -0.081,-0.934 -0.181,-0.996 -0.113,-0.07 -0.181,0.304 -0.181,0.996 m 20.281,4.005 c 0,3.856 -0.009,3.948 -0.399,4.221 -0.635,0.445 -0.682,0.145 -0.685,-4.438 -0.003,-4.576 0.021,-4.723 0.663,-4.12 0.415,0.39 0.421,0.446 0.421,4.337 M 39.397,73.427 c -0.547,3.72 -4.564,8.239 -7.324,8.239 -0.503,0 -0.584,0.192 -0.791,1.875 -0.238,1.928 -0.263,1.624 0.399,4.729 0.663,3.104 0.584,2.907 1.307,3.281 0.792,0.41 0.973,0.144 1.793,-2.63 0.416,-1.411 0.538,-1.506 1.769,-1.375 0.762,0.081 1.091,0.029 1.539,-0.242 1.16,-0.702 1.929,-0.567 1.929,0.336 0,0.185 0.239,0.574 0.53,0.866 1.335,1.334 0.775,3.684 -0.943,3.963 -1.34,0.217 -2.1,-1.353 -1.036,-2.14 0.658,-0.486 0.692,-0.8 0.104,-0.948 -2.007,-0.504 -3.679,2.729 -2.556,4.944 0.634,1.253 1.428,1.185 3.177,-0.27 0.149,-0.125 0.577,-0.283 0.95,-0.352 0.599,-0.111 0.679,-0.188 0.679,-0.649 0,-0.288 0.067,-0.523 0.148,-0.523 0.082,0 0.865,-0.571 1.741,-1.268 1.789,-1.424 2.175,-1.518 4.027,-0.979 1.05,0.305 1.43,0.23 0.879,-0.173 -0.218,-0.159 -0.297,-0.376 -0.23,-0.632 0.068,-0.262 0.018,-0.389 -0.153,-0.389 -0.653,0 -0.223,-0.729 0.696,-1.181 1.618,-0.795 2.927,-1.551 3.285,-1.898 0.636,-0.617 -0.639,-1.485 -1.61,-1.096 C 49.214,85.112 48.686,84.82 45.99,82.861 44.743,81.955 43.398,80.992 43.002,80.722 41.14,79.451 41.038,79.309 40.915,77.806 40.827,76.728 40.698,76.28 40.32,75.734 39.986,75.253 39.831,74.788 39.819,74.232 39.787,72.81 39.553,72.364 39.397,73.427 m 33.668,3.417 c 0,3.481 -0.049,3.723 -0.749,3.733 -0.626,0.008 -0.649,-6.522 -0.024,-6.96 0.726,-0.509 0.773,-0.313 0.773,3.227 m 34.495,-2.15 c -0.249,0.143 -0.779,0.268 -1.177,0.278 -1.126,0.03 -1.598,0.273 -0.905,0.467 0.934,0.262 2.16,0.164 2.678,-0.214 0.899,-0.656 0.4,-1.1 -0.596,-0.531 m -56.949,8.964 c -0.096,0.155 0.587,0.541 0.963,0.544 0.068,0 0.434,0.286 0.813,0.634 0.853,0.784 1.212,0.815 1.212,0.104 0,-0.29 0.086,-0.556 0.191,-0.592 0.411,-0.136 -0.066,-0.652 -0.7,-0.757 -1.03,-0.17 -2.355,-0.134 -2.479,0.067 m 51.092,1.961 c -0.403,0.445 -0.378,0.755 0.063,0.755 0.199,0 0.362,-0.08 0.362,-0.178 0,-0.613 1.567,-0.205 2.937,0.764 0.237,0.167 0.363,0.17 0.522,0.011 0.346,-0.346 0.046,-0.744 -0.736,-0.978 -0.405,-0.122 -0.826,-0.33 -0.937,-0.463 -0.311,-0.375 -1.848,-0.313 -2.211,0.089 m -41.415,1.967 c -0.468,0.42 -0.999,0.659 -1.938,0.873 -1.397,0.318 -2.698,1.062 -4.385,2.508 -1.504,1.29 -1.505,1.286 0.409,1.641 0.918,0.17 2.199,0.46 2.846,0.643 1.774,0.503 5.433,1.127 6.211,1.059 l 0.688,-0.059 -0.326,-0.442 c -1.799,-2.445 -3.081,-2.776 -5.909,-1.529 -1.57,0.692 -2.93,0.334 -1.976,-0.52 0.616,-0.552 2.871,-1.54 4.391,-1.923 2.403,-0.605 4.255,-1.6 4.255,-2.286 v -0.543 h -1.811 c -1.781,0 -1.821,0.009 -2.455,0.578 m 7.4,1.237 c -0.292,0.64 0.033,0.959 0.585,0.573 0.362,-0.254 0.428,-0.252 0.717,0.024 0.944,0.902 0.305,2.024 -1.153,2.024 -0.852,0 -1.088,0.223 -0.81,0.766 0.13,0.252 0.314,0.291 0.953,0.204 0.701,-0.096 0.805,-0.064 0.916,0.285 0.309,0.975 -1.002,1.807 -2.921,1.853 l -1.24,0.029 1.268,0.128 c 0.697,0.07 2.612,0.26 4.255,0.421 3.965,0.389 11.424,0.391 15.301,0.004 1.594,-0.159 3.549,-0.345 4.346,-0.414 1.685,-0.144 1.009,-0.42 -0.822,-0.335 -1.123,0.052 -1.861,-0.297 -2.201,-1.044 -0.306,-0.672 0.091,-1.044 0.958,-0.898 0.552,0.093 0.714,0.051 0.862,-0.225 0.277,-0.519 0.028,-0.715 -1.035,-0.815 -1.092,-0.102 -1.318,-0.32 -1.25,-1.208 0.059,-0.762 0.521,-1.111 1.04,-0.787 0.721,0.45 1.064,-0.137 0.443,-0.758 -0.641,-0.641 -1.464,-0.184 -2.935,1.632 -0.411,0.505 -1.076,1.148 -1.479,1.428 -0.404,0.279 -0.734,0.587 -0.734,0.683 0,0.289 -0.838,1.197 -1.823,1.975 l -0.923,0.73 -2.163,0.011 c -2.123,0.012 -2.174,0.002 -2.815,-0.514 -1.511,-1.216 -1.84,-1.547 -1.943,-1.957 -0.06,-0.238 -0.384,-0.595 -0.72,-0.793 -0.337,-0.199 -1.04,-0.88 -1.562,-1.513 -1.68,-2.036 -2.659,-2.51 -3.115,-1.509 m -18.525,2.259 c 0.061,0.1 0.315,0.181 0.564,0.181 0.256,0 0.404,-0.079 0.341,-0.181 -0.062,-0.1 -0.316,-0.181 -0.565,-0.181 -0.255,0 -0.404,0.079 -0.34,0.181 m 1.961,0.583 c 0.494,0.131 0.752,0.126 0.896,-0.018 0.15,-0.15 -0.033,-0.198 -0.694,-0.184 l -0.896,0.019 0.694,0.183 m -5.141,0.458 c -0.101,0.274 -0.297,0.739 -0.436,1.034 -0.273,0.581 -0.22,0.822 0.181,0.822 0.361,0 0.809,-0.948 0.809,-1.711 0,-0.765 -0.298,-0.843 -0.554,-0.145 m 62.845,0.302 c 0,0.432 1.162,1.554 1.61,1.554 0.422,0 0.172,-0.678 -0.486,-1.321 -0.798,-0.779 -1.124,-0.847 -1.124,-0.233 m -76.716,0.027 c -0.161,0.419 0.429,2.193 0.773,2.325 0.425,0.163 0.576,-0.01 0.475,-0.542 -0.087,-0.452 -0.062,-0.47 0.476,-0.352 0.722,0.159 0.626,-0.224 -0.217,-0.862 -1.025,-0.777 -1.377,-0.91 -1.507,-0.569 m 15.064,-0.11 c -0.066,0.105 -0.069,0.35 -0.008,0.543 0.148,0.465 0.674,0.266 0.601,-0.227 -0.062,-0.419 -0.414,-0.607 -0.593,-0.316 m 1.691,0.652 c -0.263,0.138 -0.525,0.439 -0.582,0.669 -0.209,0.831 0.292,1.676 0.536,0.905 0.056,-0.175 0.229,-0.624 0.385,-0.998 0.341,-0.815 0.288,-0.905 -0.339,-0.576 m 57.459,0.668 c -0.101,0.523 -0.243,1.141 -0.315,1.374 -0.114,0.369 -0.077,0.416 0.288,0.362 0.389,-0.056 0.826,-1.269 0.887,-2.46 0.04,-0.766 -0.691,-0.151 -0.86,0.724 M 50.28,94.024 c -0.059,0.324 -0.161,0.772 -0.226,0.996 -0.191,0.655 0.378,0.504 0.824,-0.219 0.309,-0.499 0.347,-0.701 0.19,-0.996 -0.295,-0.55 -0.667,-0.447 -0.788,0.219 m -8.484,0.263 c -0.04,0.339 -0.347,0.716 -0.995,1.223 -1.477,1.154 -1.426,1.91 0.129,1.91 0.937,0 1.311,-0.482 1.407,-1.812 0.063,-0.864 0.147,-1.097 0.428,-1.186 0.472,-0.15 0.096,-0.624 -0.494,-0.624 -0.319,0 -0.432,0.115 -0.475,0.489 m 10.375,-0.081 c -0.277,0.747 -0.396,1.735 -0.222,1.843 0.286,0.177 0.745,-0.431 0.745,-0.986 0,-0.285 0.081,-0.57 0.181,-0.631 0.32,-0.198 0.192,-0.634 -0.186,-0.634 -0.215,0 -0.429,0.169 -0.518,0.408 m 51.405,-0.147 c 0,0.144 0.085,0.313 0.189,0.377 0.103,0.064 0.137,0.278 0.075,0.474 -0.159,0.501 0.721,1.283 1.061,0.943 0.065,-0.065 -0.011,-0.212 -0.169,-0.328 -0.242,-0.177 -0.327,-0.497 -0.42,-1.591 -0.022,-0.257 -0.736,-0.136 -0.736,0.125 m 9.429,-0.005 c -0.17,0.205 -0.138,0.281 0.159,0.375 0.313,0.099 0.372,0.269 0.372,1.077 0,1.608 1.094,2.406 2.365,1.726 0.564,-0.301 0.418,-0.624 -0.736,-1.623 -0.765,-0.663 -1.086,-1.07 -1.086,-1.376 0,-0.504 -0.707,-0.621 -1.074,-0.179 m -10.806,0.18 c -0.053,0.141 0.031,0.503 0.187,0.806 0.157,0.303 0.285,0.667 0.285,0.809 0,0.43 0.48,0.73 0.613,0.383 0.213,-0.556 0.109,-1.184 -0.285,-1.717 -0.437,-0.591 -0.652,-0.666 -0.8,-0.281 m -48.51,0.288 c -0.063,0.2 -0.226,0.363 -0.363,0.363 -0.409,0 -0.462,0.284 -0.165,0.879 0.418,0.839 0.619,0.858 0.619,0.059 0,-0.4 0.115,-0.808 0.261,-0.93 0.143,-0.119 0.216,-0.332 0.162,-0.474 -0.142,-0.368 -0.379,-0.32 -0.514,0.103 m 58.041,-0.007 c -0.391,0.248 -0.124,0.406 0.443,0.264 0.361,-0.091 0.427,-0.164 0.248,-0.278 -0.306,-0.194 -0.364,-0.193 -0.691,0.014 m -68.181,0.188 c 0.5,0.215 0.815,0.215 0.815,0 0,-0.099 -0.265,-0.175 -0.589,-0.168 -0.493,0.011 -0.529,0.038 -0.226,0.168 m 13.348,0.364 c -0.488,1.266 -0.612,1.852 -0.431,2.033 0.298,0.298 0.754,0.01 0.754,-0.478 0,-0.245 0.077,-0.647 0.17,-0.892 0.12,-0.316 0.099,-0.543 -0.075,-0.78 -0.231,-0.316 -0.253,-0.31 -0.418,0.117 m 42.587,-0.253 c -0.217,0.09 0.291,2.272 0.525,2.253 0.07,-0.005 0.197,-0.01 0.282,-0.01 0.254,0 0.075,-1.436 -0.237,-1.913 -0.159,-0.242 -0.307,-0.434 -0.33,-0.426 -0.022,0.008 -0.13,0.051 -0.24,0.096 m -54.838,0.235 c -0.056,0.091 -0.051,0.298 0.011,0.46 0.062,0.162 -0.005,0.434 -0.15,0.605 -0.66,0.776 -1.395,2.361 -1.177,2.536 0.59,0.475 1.932,-1.218 1.938,-2.442 10e-4,-0.219 0.164,-0.511 0.363,-0.651 0.354,-0.248 0.352,-0.257 -0.099,-0.463 -0.555,-0.252 -0.752,-0.262 -0.886,-0.045 m 65.63,0.041 c -0.441,0.177 -0.444,0.188 -0.099,0.442 0.194,0.144 0.461,0.688 0.592,1.21 0.277,1.098 0.705,1.754 1.285,1.969 0.558,0.206 0.731,-0.28 0.323,-0.907 -0.171,-0.261 -0.426,-0.734 -0.569,-1.051 -0.142,-0.317 -0.342,-0.627 -0.443,-0.69 -0.101,-0.062 -0.183,-0.353 -0.183,-0.646 0,-0.568 -0.162,-0.626 -0.906,-0.327 m -14.241,1.166 c 0.132,0.962 0.53,1.526 1.079,1.526 0.352,0 0.353,-0.01 0.028,-0.369 -0.183,-0.203 -0.379,-0.711 -0.435,-1.129 -0.075,-0.556 -0.195,-0.779 -0.446,-0.827 -0.312,-0.06 -0.333,0.015 -0.226,0.799 M 46.294,96.159 c 0.077,0.386 -0.038,0.9 -0.387,1.719 -0.566,1.333 -0.528,1.619 0.238,1.772 1.575,0.315 2.473,3.262 1.104,3.62 -0.863,0.225 -1.575,-1.032 -0.966,-1.705 0.587,-0.649 -0.202,-0.974 -0.833,-0.343 -1.562,1.562 1.498,3.777 3.315,2.4 0.797,-0.605 0.803,-0.693 0.151,-1.997 -1.133,-2.268 -1.616,-4.534 -1.08,-5.07 0.343,-0.343 -0.328,-0.946 -1.051,-0.946 -0.573,0 -0.596,0.026 -0.491,0.55 m 13.71,-0.284 c -0.194,0.507 0.38,1.997 0.769,1.997 0.28,0 0.33,-0.112 0.28,-0.633 -0.113,-1.175 -0.786,-2.05 -1.049,-1.364 m 48.186,0.1 c -0.254,0.281 -0.282,0.416 -0.119,0.58 0.505,0.504 -0.05,3.05 -1.129,5.18 -0.611,1.205 -0.595,1.343 0.211,1.893 1.099,0.75 1.954,0.721 2.823,-0.097 0.985,-0.926 1.038,-2.289 0.101,-2.586 -0.658,-0.209 -0.969,0.377 -0.435,0.821 0.6,0.497 -0.221,1.772 -0.962,1.494 -1.518,-0.569 -0.434,-3.663 1.285,-3.667 0.521,-0.001 0.557,-0.477 0.106,-1.4 -0.258,-0.529 -0.423,-1.197 -0.425,-1.723 -0.004,-0.992 -0.771,-1.252 -1.456,-0.495 m -14.756,0.089 c -0.117,0.141 -0.146,0.357 -0.065,0.488 0.08,0.128 0.188,0.56 0.242,0.958 0.125,0.935 0.599,0.994 0.735,0.091 0.167,-1.121 -0.427,-2.122 -0.912,-1.537 m -29.922,1.12 c -0.102,1.146 0.075,1.558 0.485,1.133 0.455,-0.472 0.45,-2.064 -0.008,-2.129 -0.345,-0.049 -0.394,0.052 -0.477,0.996 m -15.074,-0.67 c 0.062,0.1 0.27,0.181 0.464,0.181 0.309,0 0.351,0.132 0.351,1.111 0,1.3 0.279,2.353 0.759,2.868 0.606,0.651 0.625,0.623 1.315,-1.851 0.279,-1.003 0.313,-1.041 0.897,-1.041 0.94,0 1.084,0.315 0.763,1.662 -0.631,2.643 -0.551,3.118 0.564,3.337 0.717,0.141 0.949,-0.249 0.517,-0.866 -0.978,-1.396 1.093,-1.589 2.49,-0.232 1.029,1 0.868,1.958 -0.442,2.627 -0.901,0.459 -0.833,0.757 0.213,0.94 1.095,0.191 1.706,0.026 2.235,-0.603 0.636,-0.756 1.313,-0.842 2.087,-0.267 1.319,0.981 2.492,0.082 2.825,-2.166 0.074,-0.496 0.244,-1.217 0.38,-1.603 0.135,-0.386 0.245,-0.765 0.245,-0.842 0,-0.167 -1.33,-0.478 -2.716,-0.634 -1.117,-0.126 -3.473,-0.545 -4.708,-0.838 -2.265,-0.536 -3.873,-0.825 -4.163,-0.749 -0.177,0.046 -0.498,-0.065 -0.711,-0.248 -0.6,-0.514 -3.634,-1.222 -3.365,-0.786 m 16.759,0.247 c -0.089,0.236 -0.291,0.477 -0.448,0.538 -0.391,0.15 -0.358,0.401 0.111,0.838 0.589,0.549 0.999,0.501 0.623,-0.073 -0.256,-0.392 -0.259,-0.474 -0.021,-0.712 0.306,-0.305 0.364,-1.019 0.084,-1.019 -0.103,0 -0.259,0.193 -0.349,0.428 M 105.512,96.7 c -0.679,0.177 -1.378,0.452 -1.554,0.611 -0.176,0.159 -0.618,0.29 -0.982,0.29 -0.364,0 -1.05,0.089 -1.525,0.198 -0.474,0.11 -1.351,0.313 -1.949,0.451 -1.203,0.28 -2.628,0.524 -5.613,0.961 -2.299,0.336 -2.161,0.107 -1.593,2.65 0.604,2.701 1.501,3.489 2.893,2.543 0.91,-0.618 1.187,-0.59 2.077,0.213 0.706,0.638 0.819,0.678 1.834,0.647 1.661,-0.05 1.724,-0.277 0.33,-1.193 -1.133,-0.744 -0.993,-1.91 0.33,-2.756 1.451,-0.928 2.464,-0.657 2.03,0.542 -0.282,0.781 -0.093,1.1 0.551,0.929 1.057,-0.281 1.167,-0.884 0.59,-3.238 -0.365,-1.494 -0.284,-1.766 0.527,-1.766 0.794,0 0.952,0.211 1.303,1.733 0.367,1.593 0.528,1.759 1.085,1.116 0.505,-0.583 0.846,-1.705 0.803,-2.643 -0.051,-1.141 -0.01,-1.293 0.357,-1.293 0.193,0 0.402,-0.081 0.463,-0.181 0.158,-0.254 -0.511,-0.19 -1.957,0.186 M 67.61,96.96 c -0.299,0.779 0.24,2.089 0.859,2.089 0.392,0 0.429,-0.221 0.128,-0.781 C 68.48,98.05 68.335,97.634 68.275,97.343 68.151,96.738 67.778,96.523 67.61,96.96 m 3.248,0.233 c -0.173,0.274 -0.5,0.693 -0.729,0.93 -0.228,0.238 -0.414,0.544 -0.414,0.679 0,0.402 0.693,0.282 0.925,-0.16 0.118,-0.224 0.454,-0.683 0.747,-1.021 0.416,-0.478 0.48,-0.647 0.29,-0.766 -0.377,-0.24 -0.482,-0.196 -0.819,0.338 m 15.516,0.666 c 0,1.058 0.039,1.19 0.351,1.19 0.478,0 0.515,-0.118 0.39,-1.265 -0.172,-1.592 -0.741,-1.534 -0.741,0.075 m 3.392,-1.055 c -0.164,0.164 0.202,1.013 0.635,1.476 0.764,0.816 1.203,0.263 0.5,-0.63 -0.199,-0.253 -0.362,-0.572 -0.362,-0.707 0,-0.246 -0.565,-0.347 -0.773,-0.139 m -13.11,0.358 c -0.121,0.315 1.473,2.068 1.88,2.068 0.487,0 0.2,-0.679 -0.634,-1.5 -0.946,-0.932 -1.082,-0.995 -1.246,-0.568 m -3.684,0.351 c -0.487,0.517 -0.351,1.39 0.232,1.503 0.267,0.051 0.313,-0.09 0.313,-0.949 0,-1.166 0.015,-1.151 -0.545,-0.554 m 10.324,0.547 c 0,0.86 0.047,1.007 0.309,0.956 0.621,-0.119 0.644,-1.461 0.03,-1.79 -0.313,-0.167 -0.339,-0.103 -0.339,0.834 m -8.39,-0.701 c -0.067,0.067 -0.121,0.48 -0.121,0.919 0,0.91 0.505,1.064 0.73,0.223 0.2,-0.747 -0.219,-1.532 -0.609,-1.142 m 6.516,0.211 c -0.374,0.413 -0.378,0.743 -0.017,1.258 0.449,0.641 0.623,0.475 0.623,-0.594 0,-1.059 -0.125,-1.196 -0.606,-0.664 m -1.337,3.546 c 0.513,0.513 0.753,1.38 0.538,1.948 -0.178,0.472 -0.142,0.593 0.331,1.133 0.721,0.82 0.676,1.106 -0.375,2.405 -0.498,0.615 -0.905,1.199 -0.905,1.297 0,0.418 -1.231,1.472 -1.72,1.472 -0.494,0 -1.72,-1.055 -1.72,-1.481 0,-0.102 -0.408,-0.674 -0.906,-1.27 -1.023,-1.224 -1.111,-1.702 -0.44,-2.373 0.41,-0.41 0.452,-0.562 0.346,-1.269 -0.126,-0.836 0.204,-1.806 0.679,-1.997 0.563,-0.226 3.92,-0.118 4.172,0.135"
       inkscape:connector-curvature="0"
       style="fill:#006cb8;fill-rule:evenodd;stroke:none" />
  </g>
</svg>
