<?xml version="1.0" encoding="UTF-8" standalone="no"?>
<svg
   xmlns:dc="http://purl.org/dc/elements/1.1/"
   xmlns:cc="http://creativecommons.org/ns#"
   xmlns:rdf="http://www.w3.org/1999/02/22-rdf-syntax-ns#"
   xmlns:svg="http://www.w3.org/2000/svg"
   xmlns="http://www.w3.org/2000/svg"
   xmlns:sodipodi="http://sodipodi.sourceforge.net/DTD/sodipodi-0.dtd"
   xmlns:inkscape="http://www.inkscape.org/namespaces/inkscape"
   id="svg"
   version="1.1"
   width="368.44476"
   height="67.617607"
   style="display:block"
   inkscape:version="0.91 r13725"
   sodipodi:docname="conicyt-mono.svg">
  <metadata
     id="metadata9">
    <rdf:RDF>
      <cc:Work
         rdf:about="">
        <dc:format>image/svg+xml</dc:format>
        <dc:type
           rdf:resource="http://purl.org/dc/dcmitype/StillImage" />
        <dc:title></dc:title>
      </cc:Work>
    </rdf:RDF>
  </metadata>
  <defs
     id="defs7" />
  <sodipodi:namedview
     pagecolor="#ffffff"
     bordercolor="#666666"
     borderopacity="1"
     objecttolerance="10"
     gridtolerance="10"
     guidetolerance="10"
     inkscape:pageopacity="0"
     inkscape:pageshadow="2"
     inkscape:window-width="640"
     inkscape:window-height="480"
     id="namedview5"
     showgrid="false"
     fit-margin-top="0"
     fit-margin-left="0"
     fit-margin-right="0"
     fit-margin-bottom="0"
     inkscape:zoom="0.74"
     inkscape:cx="187.44477"
     inkscape:cy="35.351254"
     inkscape:window-x="0"
     inkscape:window-y="0"
     inkscape:window-maximized="0"
     inkscape:current-layer="svg" />
  <g
     id="svgg"
     transform="translate(-12.55523,-9.7336476)">
    <path
       id="path0"
       d="M 26,12.645 C 15.067,18.865 12.504,24.749 12.556,43.5 12.609,62.385 15.77,69.271 27.02,75.01 35.329,79.249 57.803,76.517 63.792,70.54 64.178,70.156 59.237,59 58.681,59 58.445,59 56.146,60.177 53.572,61.616 38.194,70.211 26.774,62.509 26.647,43.458 26.523,24.998 37.338,16.979 52.859,24.022 c 5.794,2.629 5.578,2.713 8.102,-3.152 1.828,-4.251 1.978,-5.341 0.873,-6.355 C 56.106,9.257 33.984,8.102 26,12.645 m 56.34,-0.562 c -15.175,6.983 -19.764,39.006 -8.054,56.198 7.704,11.31 31.496,12.172 41.91,1.518 10.379,-10.617 10.527,-42.408 0.248,-53.164 -6.441,-6.739 -24.2,-9.11 -34.104,-4.552 M 134,43.5 l 0,33.5 5.982,0 5.982,0 0.268,-23.668 0.268,-23.667 3.359,8.417 c 1.848,4.63 4.476,11.343 5.84,14.918 1.364,3.575 3.068,7.85 3.787,9.5 0.719,1.65 2.306,5.588 3.527,8.75 l 2.219,5.75 10.384,0 10.384,0 0,-33.5 0,-33.5 -6.601,0 -6.601,0 0.587,24.75 c 0.327,13.814 0.215,23.631 -0.254,22.218 -0.463,-1.392 -1.311,-3.417 -1.886,-4.5 -0.575,-1.082 -2.171,-4.893 -3.548,-8.468 -1.376,-3.575 -4.068,-10.55 -5.982,-15.5 -1.914,-4.95 -4.269,-11.137 -5.233,-13.75 L 154.728,10 144.364,10 134,10 l 0,33.5 m 66,0 0,33.5 6.5,0 6.5,0 0,-33.5 0,-33.5 -6.5,0 -6.5,0 0,33.5 m 39,-30.855 c -6.429,3.658 -7.416,4.725 -10.89,11.783 -5.923,12.031 -4.025,35.578 3.598,44.637 7.209,8.568 25.416,10.95 38.042,4.977 6.901,-3.265 7.13,-3.824 4.286,-10.459 -2.316,-5.402 -1.638,-5.224 -7.464,-1.967 -15.663,8.754 -26.985,1.154 -26.985,-18.116 0,-18.786 10.126,-26.522 25.554,-19.522 6.069,2.754 6.327,2.661 8.749,-3.169 1.736,-4.175 1.908,-5.418 0.884,-6.354 C 269.082,9.252 246.932,8.132 239,12.645 m 39,-1.991 c 0,0.359 1.074,2.946 2.386,5.75 C 299.198,56.583 298,53.202 298,66.122 l 0,10.878 6.5,0 6.5,0 0,-10.742 0,-10.743 10.112,-20.007 c 5.562,-11.005 10.512,-20.436 11,-20.958 2.886,-3.087 0.958,-4.55 -5.997,-4.55 -8.213,0 -7.619,-0.667 -14.642,16.423 l -4.9,11.923 -2.321,-5.297 C 302.031,27.981 299.038,20.203 296.634,13.25 L 295.511,10 286.755,10 C 281.94,10 278,10.294 278,10.654 m 56,5.346 0,6 8.5,0 8.5,0 0,27.5 0,27.5 7,0 7,0 0,-27.5 0,-27.5 8,0 8,0 0,-6 0,-6 -23.5,0 -23.5,0 0,6 m -231.209,7.566 c 9.308,6.52 8.738,35.319 -0.795,40.142 C 89.215,70.174 79.641,56.239 83.064,36.154 85.165,23.824 94.581,17.816 102.791,23.566"
       inkscape:connector-curvature="0"
       style="fill:#5b5a5d;fill-rule:evenodd;stroke:none" />
  </g>
</svg>
