<svg id="svg" version="1.1" width="400" height="174.4610281923715" viewBox="0 0 400 174.4610281923715" xmlns="http://www.w3.org/2000/svg" xmlns:xlink="http://www.w3.org/1999/xlink" ><g id="svgg"><path id="path0" d="M29.494 12.282 C 29.494 22.399,29.536 24.599,29.730 24.761 C 29.904 24.905,46.966 24.945,94.608 24.913 L 159.250 24.869 159.294 12.435 L 159.339 0.000 94.417 0.000 L 29.494 0.000 29.494 12.282 M356.017 38.668 C 355.923 38.914,355.846 39.180,355.846 39.260 C 355.846 39.339,355.729 39.449,355.585 39.505 C 355.400 39.576,355.323 39.864,355.323 40.489 C 355.323 41.113,355.400 41.402,355.585 41.473 C 355.754 41.538,355.846 41.808,355.846 42.238 C 355.846 43.073,355.989 43.455,356.301 43.455 C 356.480 43.455,356.545 43.711,356.545 44.415 C 356.545 45.259,356.587 45.375,356.894 45.375 C 357.212 45.375,357.243 45.492,357.243 46.700 C 357.243 47.879,357.281 48.036,357.592 48.117 C 357.908 48.200,357.941 48.355,357.941 49.775 C 357.941 51.195,357.973 51.350,358.290 51.433 C 358.631 51.522,358.639 51.671,358.639 58.485 C 358.639 65.329,358.633 65.445,358.290 65.445 C 357.972 65.445,357.941 65.561,357.941 66.734 C 357.941 67.875,357.901 68.033,357.592 68.113 C 357.295 68.191,357.243 68.351,357.243 69.181 C 357.243 69.896,357.178 70.157,357.001 70.157 C 356.729 70.157,356.550 70.679,356.547 71.489 C 356.545 71.888,356.450 72.061,356.195 72.127 C 355.945 72.193,355.846 72.365,355.846 72.740 C 355.846 73.042,355.736 73.303,355.585 73.362 C 355.420 73.425,355.323 73.691,355.323 74.078 C 355.323 74.578,355.257 74.695,354.974 74.695 C 354.757 74.695,354.625 74.811,354.625 75.002 C 354.625 75.171,354.468 75.407,354.276 75.527 C 354.084 75.647,353.927 75.931,353.927 76.159 C 353.927 76.427,353.803 76.606,353.578 76.665 C 353.386 76.715,353.229 76.872,353.229 77.014 C 353.229 77.156,353.072 77.313,352.880 77.363 C 352.688 77.413,352.531 77.579,352.531 77.732 C 352.531 77.885,352.413 78.010,352.269 78.010 C 352.123 78.010,352.007 78.166,352.007 78.360 C 352.007 78.592,351.891 78.709,351.658 78.709 C 351.425 78.709,351.309 78.825,351.309 79.058 C 351.309 79.290,351.193 79.407,350.960 79.407 C 350.768 79.407,350.611 79.515,350.611 79.648 C 350.611 79.781,350.454 79.931,350.262 79.981 C 350.070 80.031,349.913 80.197,349.913 80.350 C 349.913 80.545,349.751 80.628,349.373 80.628 C 348.980 80.628,348.808 80.723,348.742 80.977 C 348.677 81.223,348.504 81.326,348.153 81.326 C 347.835 81.326,347.589 81.452,347.469 81.675 C 347.340 81.918,347.104 82.024,346.698 82.024 C 346.261 82.024,346.091 82.112,346.023 82.373 C 345.946 82.665,345.785 82.723,345.037 82.723 C 344.403 82.723,344.113 82.799,344.042 82.984 C 343.892 83.375,337.386 83.375,337.236 82.984 C 337.160 82.786,336.839 82.723,335.916 82.723 C 334.844 82.723,334.686 82.680,334.606 82.373 C 334.529 82.079,334.367 82.024,333.575 82.024 C 332.752 82.024,332.635 81.981,332.635 81.675 C 332.635 81.395,332.519 81.326,332.045 81.326 C 331.601 81.326,331.432 81.240,331.363 80.977 C 331.293 80.710,331.125 80.628,330.645 80.628 C 330.198 80.628,330.017 80.551,330.017 80.361 C 330.017 80.214,329.880 80.043,329.712 79.982 C 329.544 79.920,329.344 79.765,329.267 79.638 C 329.190 79.511,328.896 79.407,328.613 79.407 C 328.268 79.407,328.098 79.319,328.098 79.141 C 328.098 78.994,327.912 78.804,327.685 78.718 C 327.458 78.631,327.225 78.437,327.167 78.286 C 327.103 78.119,326.853 78.010,326.533 78.010 C 326.120 78.010,326.003 77.934,326.003 77.661 C 326.003 77.429,325.887 77.312,325.654 77.312 C 325.457 77.312,325.305 77.196,325.305 77.045 C 325.305 76.898,325.168 76.726,325.000 76.662 C 324.832 76.598,324.464 76.286,324.183 75.969 C 323.832 75.575,323.515 75.393,323.179 75.393 C 322.804 75.393,322.688 75.310,322.688 75.044 C 322.688 74.811,322.571 74.695,322.339 74.695 C 322.106 74.695,321.990 74.578,321.990 74.346 C 321.990 74.152,321.873 73.997,321.728 73.997 C 321.584 73.997,321.466 73.843,321.466 73.656 C 321.466 73.469,321.270 73.105,321.030 72.846 C 320.790 72.587,320.593 72.308,320.593 72.226 C 320.593 72.144,319.887 72.077,319.023 72.077 C 317.568 72.077,317.452 72.103,317.452 72.426 C 317.452 72.659,317.336 72.775,317.103 72.775 C 316.780 72.775,316.754 72.891,316.754 74.346 C 316.754 75.800,316.780 75.916,317.103 75.916 C 317.336 75.916,317.452 76.033,317.452 76.265 C 317.452 76.498,317.568 76.614,317.801 76.614 C 318.072 76.614,318.150 76.731,318.150 77.136 C 318.150 77.469,318.276 77.737,318.499 77.876 C 318.691 77.996,318.850 78.174,318.851 78.271 C 318.855 78.505,319.631 79.232,319.876 79.232 C 319.983 79.232,320.070 79.428,320.070 79.668 C 320.070 79.908,320.227 80.262,320.419 80.454 C 320.611 80.646,320.768 80.921,320.768 81.065 C 320.768 81.210,320.923 81.326,321.117 81.326 C 321.391 81.326,321.466 81.443,321.466 81.866 C 321.466 82.259,321.561 82.431,321.815 82.497 C 322.076 82.566,322.164 82.735,322.164 83.170 C 322.164 83.490,322.268 83.815,322.395 83.892 C 322.523 83.969,322.677 84.169,322.739 84.337 C 322.801 84.505,322.971 84.642,323.118 84.642 C 323.319 84.642,323.386 84.839,323.386 85.426 C 323.386 86.021,323.470 86.263,323.735 86.428 C 323.927 86.548,324.084 86.817,324.084 87.026 C 324.084 87.589,324.264 87.958,324.539 87.958 C 324.700 87.958,324.782 88.163,324.782 88.569 C 324.782 89.063,324.848 89.180,325.131 89.180 C 325.447 89.180,325.480 89.296,325.480 90.407 C 325.480 91.337,325.543 91.658,325.742 91.734 C 325.918 91.802,326.003 92.079,326.003 92.587 C 326.003 93.506,326.138 93.892,326.458 93.892 C 326.649 93.892,326.702 94.249,326.702 95.550 C 326.702 97.091,326.726 97.208,327.051 97.208 C 327.394 97.208,327.400 97.324,327.400 104.517 C 327.400 111.680,327.393 111.828,327.051 111.918 C 326.734 112.001,326.702 112.156,326.702 113.596 C 326.702 114.831,326.648 115.183,326.460 115.183 C 326.153 115.183,326.009 115.724,326.006 116.885 C 326.004 117.582,325.941 117.801,325.742 117.801 C 325.538 117.801,325.480 118.034,325.480 118.848 C 325.480 119.779,325.441 119.895,325.131 119.895 C 324.824 119.895,324.782 120.012,324.782 120.855 C 324.782 121.699,324.740 121.815,324.433 121.815 C 324.142 121.815,324.084 121.931,324.084 122.513 C 324.084 123.095,324.026 123.211,323.735 123.211 C 323.454 123.211,323.386 123.328,323.386 123.802 C 323.386 124.245,323.299 124.415,323.037 124.483 C 322.769 124.553,322.688 124.721,322.688 125.202 C 322.688 125.643,322.610 125.829,322.426 125.829 C 322.243 125.829,322.164 126.013,322.164 126.440 C 322.164 126.934,322.098 127.051,321.815 127.051 C 321.590 127.051,321.466 127.167,321.466 127.379 C 321.466 127.561,321.310 127.749,321.117 127.799 C 320.850 127.869,320.768 128.037,320.768 128.518 C 320.768 129.029,320.703 129.145,320.419 129.145 C 320.186 129.145,320.070 129.261,320.070 129.494 C 320.070 129.697,319.953 129.843,319.792 129.843 C 319.639 129.843,319.474 129.995,319.425 130.180 C 319.377 130.365,319.227 130.559,319.093 130.611 C 318.957 130.663,318.848 130.941,318.848 131.234 C 318.848 131.646,318.771 131.763,318.499 131.763 C 318.266 131.763,318.150 131.879,318.150 132.112 C 318.150 132.344,318.034 132.461,317.801 132.461 C 317.568 132.461,317.452 132.577,317.452 132.810 C 317.452 133.042,317.336 133.159,317.103 133.159 C 316.780 133.159,316.754 133.275,316.754 134.729 C 316.754 136.184,316.780 136.300,317.103 136.300 C 317.336 136.300,317.452 136.417,317.452 136.649 C 317.452 136.983,317.568 136.998,320.070 136.998 C 322.571 136.998,322.688 136.983,322.688 136.649 C 322.688 136.318,322.804 136.300,324.962 136.300 C 326.822 136.300,327.254 136.253,327.337 136.038 C 327.413 135.840,327.733 135.777,328.656 135.777 C 329.729 135.777,329.887 135.735,329.967 135.428 C 330.047 135.121,330.205 135.079,331.276 135.079 C 332.347 135.079,332.504 135.036,332.585 134.729 C 332.662 134.434,332.823 134.380,333.632 134.380 C 334.441 134.380,334.602 134.327,334.679 134.031 C 334.756 133.737,334.917 133.682,335.710 133.682 C 336.533 133.682,336.649 133.639,336.649 133.333 C 336.649 133.027,336.766 132.984,337.609 132.984 C 338.346 132.984,338.569 132.923,338.569 132.723 C 338.569 132.538,338.755 132.461,339.196 132.461 C 339.676 132.461,339.845 132.379,339.915 132.112 C 339.984 131.847,340.153 131.763,340.613 131.763 C 341.073 131.763,341.241 131.678,341.311 131.414 C 341.379 131.151,341.549 131.065,341.992 131.065 C 342.467 131.065,342.583 130.996,342.583 130.716 C 342.583 130.425,342.699 130.366,343.281 130.366 C 343.863 130.366,343.979 130.308,343.979 130.017 C 343.979 129.735,344.095 129.668,344.590 129.668 C 344.995 129.668,345.201 129.587,345.201 129.426 C 345.201 129.287,345.464 129.134,345.821 129.067 C 346.162 129.003,346.484 128.838,346.537 128.699 C 346.591 128.560,346.751 128.447,346.894 128.447 C 347.036 128.447,347.194 128.290,347.244 128.098 C 347.295 127.906,347.477 127.749,347.650 127.749 C 348.151 127.749,348.517 127.557,348.517 127.294 C 348.517 127.160,348.674 127.051,348.866 127.051 C 349.098 127.051,349.215 126.934,349.215 126.702 C 349.215 126.469,349.331 126.353,349.564 126.353 C 349.758 126.353,349.913 126.236,349.913 126.091 C 349.913 125.933,350.074 125.829,350.318 125.829 C 350.748 125.829,351.832 124.975,351.832 124.635 C 351.832 124.524,351.990 124.433,352.182 124.433 C 352.414 124.433,352.531 124.316,352.531 124.084 C 352.531 123.851,352.647 123.735,352.880 123.735 C 353.112 123.735,353.229 123.618,353.229 123.386 C 353.229 123.122,353.346 123.036,353.709 123.035 C 354.048 123.034,354.367 122.830,354.799 122.339 C 355.135 121.957,355.508 121.643,355.628 121.642 C 355.748 121.641,355.846 121.532,355.846 121.399 C 355.846 121.266,356.003 121.117,356.195 121.066 C 356.387 121.016,356.545 120.859,356.545 120.717 C 356.545 120.576,356.702 120.418,356.894 120.368 C 357.086 120.318,357.243 120.152,357.243 119.999 C 357.243 119.846,357.363 119.721,357.510 119.721 C 357.657 119.721,357.828 119.583,357.889 119.415 C 357.951 119.247,358.106 119.047,358.233 118.970 C 358.360 118.894,358.464 118.717,358.464 118.578 C 358.464 118.439,358.621 118.325,358.813 118.325 C 359.096 118.325,359.162 118.208,359.162 117.714 C 359.162 117.219,359.229 117.103,359.511 117.103 C 359.744 117.103,359.860 116.987,359.860 116.754 C 359.860 116.521,359.977 116.405,360.209 116.405 C 360.442 116.405,360.558 116.289,360.558 116.056 C 360.558 115.823,360.675 115.707,360.908 115.707 C 361.099 115.707,361.257 115.597,361.257 115.464 C 361.257 115.330,361.374 115.175,361.518 115.120 C 361.662 115.065,361.780 114.905,361.780 114.764 C 361.780 114.624,361.937 114.459,362.129 114.398 C 362.389 114.315,362.478 114.134,362.478 113.688 C 362.478 113.205,362.546 113.089,362.827 113.089 C 363.060 113.089,363.176 112.973,363.176 112.740 C 363.176 112.548,363.286 112.391,363.419 112.391 C 363.682 112.391,363.874 112.025,363.874 111.524 C 363.874 111.351,364.031 111.169,364.223 111.119 C 364.415 111.069,364.572 110.911,364.572 110.768 C 364.572 110.625,364.690 110.463,364.834 110.408 C 364.999 110.345,365.096 110.078,365.096 109.691 C 365.096 109.191,365.162 109.075,365.445 109.075 C 365.728 109.075,365.794 108.959,365.794 108.464 C 365.794 107.970,365.861 107.853,366.143 107.853 C 366.434 107.853,366.492 107.737,366.492 107.155 C 366.492 106.574,366.550 106.457,366.841 106.457 C 367.121 106.457,367.190 106.341,367.190 105.867 C 367.190 105.423,367.277 105.254,367.539 105.185 C 367.807 105.115,367.888 104.947,367.888 104.467 C 367.888 104.025,367.966 103.839,368.150 103.839 C 368.339 103.839,368.412 103.646,368.412 103.141 C 368.412 102.560,368.470 102.443,368.761 102.443 C 369.068 102.443,369.110 102.327,369.110 101.483 C 369.110 100.640,369.152 100.524,369.459 100.524 C 369.765 100.524,369.808 100.407,369.808 99.584 C 369.808 98.791,369.863 98.630,370.157 98.553 C 370.453 98.476,370.506 98.315,370.506 97.506 C 370.506 96.697,370.560 96.536,370.855 96.459 C 371.163 96.379,371.204 96.221,371.204 95.130 C 371.204 94.146,371.258 93.892,371.466 93.892 C 371.675 93.892,371.728 93.631,371.728 92.595 C 371.728 91.451,371.769 91.284,372.077 91.187 C 372.405 91.082,372.426 90.923,372.426 88.470 C 372.426 85.980,372.441 85.864,372.775 85.864 C 373.119 85.864,373.124 85.748,373.124 78.081 C 373.124 70.446,373.117 70.297,372.775 70.208 C 372.448 70.122,372.426 69.970,372.426 67.781 C 372.426 65.561,372.408 65.445,372.077 65.445 C 371.752 65.445,371.728 65.329,371.728 63.787 C 371.728 62.430,371.680 62.129,371.466 62.129 C 371.273 62.129,371.204 61.928,371.204 61.366 C 371.204 60.255,371.021 59.511,370.746 59.511 C 370.571 59.511,370.506 59.247,370.506 58.535 C 370.506 57.706,370.454 57.545,370.157 57.468 C 369.867 57.392,369.808 57.230,369.808 56.508 C 369.808 55.786,369.749 55.624,369.459 55.548 C 369.169 55.472,369.110 55.310,369.110 54.588 C 369.110 53.866,369.051 53.704,368.761 53.628 C 368.487 53.557,368.412 53.390,368.412 52.859 C 368.412 52.373,368.338 52.182,368.150 52.182 C 367.990 52.182,367.888 52.018,367.888 51.759 C 367.888 51.157,367.715 50.785,367.433 50.785 C 367.272 50.785,367.190 50.580,367.190 50.175 C 367.190 49.680,367.124 49.564,366.841 49.564 C 366.557 49.564,366.492 49.447,366.492 48.937 C 366.492 48.456,366.410 48.288,366.143 48.218 C 365.881 48.150,365.794 47.980,365.794 47.536 C 365.794 47.062,365.725 46.946,365.445 46.946 C 365.189 46.946,365.096 46.830,365.096 46.510 C 365.096 46.254,364.996 46.073,364.854 46.073 C 364.715 46.073,364.562 45.812,364.497 45.462 C 364.428 45.097,364.280 44.852,364.128 44.852 C 363.989 44.852,363.874 44.695,363.874 44.503 C 363.874 44.270,363.758 44.154,363.525 44.154 C 363.245 44.154,363.176 44.037,363.176 43.563 C 363.176 43.119,363.090 42.950,362.827 42.881 C 362.635 42.831,362.478 42.665,362.478 42.512 C 362.478 42.350,362.332 42.234,362.129 42.234 C 361.896 42.234,361.780 42.118,361.780 41.885 C 361.780 41.693,361.671 41.536,361.538 41.536 C 361.399 41.536,361.246 41.275,361.181 40.925 C 361.112 40.559,360.964 40.314,360.812 40.314 C 360.673 40.314,360.558 40.162,360.558 39.977 C 360.558 39.791,360.401 39.590,360.209 39.529 C 360.017 39.468,359.860 39.306,359.860 39.168 C 359.860 39.030,359.712 38.918,359.532 38.918 C 359.350 38.918,359.162 38.762,359.112 38.569 C 358.953 37.963,356.252 38.049,356.017 38.668 M338.743 55.846 C 338.743 56.164,338.627 56.195,337.453 56.195 C 336.467 56.195,336.139 56.257,336.063 56.457 C 336.007 56.601,335.809 56.719,335.622 56.719 C 335.097 56.719,334.729 56.906,334.729 57.174 C 334.729 57.308,334.572 57.417,334.380 57.417 C 334.148 57.417,334.031 57.533,334.031 57.766 C 334.031 58.040,333.915 58.115,333.492 58.115 C 333.107 58.115,332.927 58.211,332.865 58.448 C 332.817 58.631,332.628 58.820,332.445 58.868 C 332.262 58.916,332.112 59.071,332.112 59.213 C 332.112 59.355,331.955 59.512,331.763 59.562 C 331.512 59.627,331.414 59.800,331.414 60.173 C 331.414 60.546,331.315 60.718,331.065 60.784 C 330.797 60.853,330.716 61.022,330.716 61.502 C 330.716 62.013,330.651 62.129,330.366 62.129 C 330.061 62.129,330.017 62.245,330.017 63.069 C 330.017 63.861,329.963 64.022,329.668 64.099 C 329.334 64.187,329.319 64.337,329.319 67.714 C 329.319 71.090,329.334 71.241,329.668 71.328 C 329.963 71.405,330.017 71.566,330.017 72.359 C 330.017 73.182,330.061 73.298,330.366 73.298 C 330.651 73.298,330.716 73.415,330.716 73.926 C 330.716 74.406,330.797 74.574,331.065 74.644 C 331.258 74.695,331.414 74.882,331.414 75.064 C 331.414 75.276,331.537 75.393,331.763 75.393 C 331.957 75.393,332.112 75.509,332.112 75.654 C 332.112 75.798,332.229 75.916,332.373 75.916 C 332.519 75.916,332.635 76.071,332.635 76.265 C 332.635 76.498,332.752 76.614,332.984 76.614 C 333.217 76.614,333.333 76.731,333.333 76.963 C 333.333 77.196,333.450 77.312,333.682 77.312 C 333.879 77.312,334.031 77.429,334.031 77.580 C 334.031 77.727,334.169 77.898,334.337 77.962 C 334.505 78.025,334.726 78.187,334.827 78.323 C 334.929 78.458,335.381 78.611,335.831 78.662 C 336.363 78.722,336.649 78.838,336.649 78.993 C 336.649 79.189,337.421 79.232,340.925 79.232 C 344.609 79.232,345.201 79.196,345.201 78.970 C 345.201 78.776,345.404 78.709,345.986 78.709 C 346.514 78.709,346.876 78.604,347.090 78.390 C 347.265 78.215,347.540 78.021,347.701 77.959 C 347.862 77.897,347.993 77.727,347.993 77.580 C 347.993 77.397,348.164 77.312,348.533 77.312 C 348.926 77.312,349.098 77.218,349.164 76.963 C 349.215 76.770,349.402 76.614,349.584 76.614 C 349.796 76.614,349.913 76.491,349.913 76.265 C 349.913 76.033,350.029 75.916,350.262 75.916 C 350.494 75.916,350.611 75.800,350.611 75.567 C 350.611 75.375,350.725 75.218,350.865 75.218 C 351.017 75.218,351.165 74.973,351.233 74.607 C 351.299 74.257,351.451 73.997,351.590 73.997 C 351.757 73.997,351.832 73.778,351.832 73.298 C 351.832 72.717,351.891 72.600,352.182 72.600 C 352.506 72.600,352.531 72.484,352.531 70.942 C 352.531 69.401,352.555 69.284,352.880 69.284 C 353.203 69.284,353.229 69.168,353.229 67.714 C 353.229 66.259,353.203 66.143,352.880 66.143 C 352.555 66.143,352.531 66.027,352.531 64.485 C 352.531 62.944,352.506 62.827,352.182 62.827 C 351.891 62.827,351.832 62.711,351.832 62.129 C 351.832 61.625,351.760 61.431,351.571 61.431 C 351.408 61.431,351.309 61.266,351.309 60.993 C 351.309 60.752,351.152 60.421,350.960 60.256 C 350.768 60.092,350.611 59.857,350.611 59.734 C 350.611 59.612,350.454 59.511,350.262 59.511 C 350.029 59.511,349.913 59.395,349.913 59.162 C 349.913 58.930,349.796 58.813,349.564 58.813 C 349.331 58.813,349.215 58.697,349.215 58.464 C 349.215 58.239,349.098 58.115,348.886 58.115 C 348.704 58.115,348.517 57.959,348.466 57.766 C 348.401 57.516,348.228 57.417,347.855 57.417 C 347.482 57.417,347.310 57.318,347.244 57.068 C 347.174 56.801,347.006 56.719,346.526 56.719 C 346.085 56.719,345.899 56.641,345.899 56.457 C 345.899 56.257,345.677 56.195,344.951 56.195 C 344.156 56.195,343.985 56.139,343.892 55.846 C 343.788 55.519,343.628 55.497,341.262 55.497 C 338.860 55.497,338.743 55.514,338.743 55.846 M56.719 72.426 C 56.719 72.754,56.603 72.775,54.818 72.775 C 53.289 72.775,52.897 72.826,52.816 73.037 C 52.745 73.222,52.456 73.298,51.822 73.298 C 51.074 73.298,50.912 73.356,50.836 73.647 C 50.760 73.938,50.598 73.997,49.876 73.997 C 49.154 73.997,48.992 74.055,48.916 74.346 C 48.845 74.619,48.678 74.695,48.147 74.695 C 47.586 74.695,47.469 74.755,47.469 75.044 C 47.469 75.328,47.353 75.393,46.842 75.393 C 46.362 75.393,46.194 75.474,46.124 75.742 C 46.055 76.004,45.886 76.091,45.442 76.091 C 45.055 76.091,44.852 76.174,44.852 76.333 C 44.852 76.472,44.591 76.624,44.241 76.690 C 43.905 76.753,43.630 76.882,43.630 76.976 C 43.630 77.070,43.434 77.221,43.194 77.312 C 42.954 77.404,42.757 77.598,42.757 77.744 C 42.757 77.891,42.640 78.010,42.496 78.010 C 42.350 78.010,42.234 78.166,42.234 78.360 C 42.234 78.612,42.118 78.709,41.812 78.709 C 41.209 78.709,40.838 78.882,40.838 79.164 C 40.838 79.297,40.681 79.407,40.489 79.407 C 40.297 79.407,40.140 79.482,40.140 79.573 C 40.140 79.790,39.301 80.628,39.085 80.628 C 38.993 80.628,38.918 80.785,38.918 80.977 C 38.918 81.210,38.802 81.326,38.569 81.326 C 38.336 81.326,38.220 81.443,38.220 81.675 C 38.220 81.908,38.104 82.024,37.871 82.024 C 37.638 82.024,37.522 82.141,37.522 82.373 C 37.522 82.606,37.405 82.723,37.173 82.723 C 36.940 82.723,36.824 82.839,36.824 83.072 C 36.824 83.264,36.709 83.421,36.570 83.421 C 36.418 83.421,36.270 83.666,36.201 84.031 C 36.136 84.381,35.983 84.642,35.844 84.642 C 35.711 84.642,35.602 84.799,35.602 84.991 C 35.602 85.224,35.486 85.340,35.253 85.340 C 35.028 85.340,34.904 85.457,34.904 85.669 C 34.904 85.851,34.748 86.038,34.555 86.089 C 34.305 86.154,34.206 86.327,34.206 86.700 C 34.206 87.073,34.107 87.245,33.857 87.311 C 33.592 87.380,33.508 87.549,33.508 88.009 C 33.508 88.469,33.423 88.638,33.159 88.707 C 32.905 88.773,32.810 88.945,32.810 89.338 C 32.810 89.702,32.724 89.878,32.548 89.878 C 32.360 89.878,32.286 90.069,32.286 90.556 C 32.286 91.087,32.211 91.253,31.937 91.325 C 31.647 91.400,31.588 91.563,31.588 92.284 C 31.588 93.006,31.529 93.168,31.239 93.244 C 30.944 93.322,30.890 93.482,30.890 94.291 C 30.890 95.100,30.836 95.261,30.541 95.339 C 30.225 95.421,30.192 95.577,30.192 96.996 C 30.192 98.416,30.159 98.572,29.843 98.654 C 29.297 98.797,29.297 110.449,29.843 110.995 C 30.130 111.282,30.192 111.576,30.192 112.654 C 30.192 113.749,30.249 114.014,30.541 114.264 C 30.801 114.487,30.890 114.779,30.890 115.413 C 30.890 116.116,30.950 116.279,31.239 116.354 C 31.513 116.426,31.588 116.592,31.588 117.123 C 31.588 117.685,31.648 117.801,31.937 117.801 C 32.240 117.801,32.286 117.917,32.286 118.679 C 32.286 119.271,32.366 119.588,32.531 119.651 C 32.665 119.703,32.825 120.007,32.885 120.327 C 32.945 120.647,33.109 120.953,33.251 121.007 C 33.392 121.062,33.508 121.259,33.508 121.446 C 33.508 121.972,33.695 122.339,33.963 122.339 C 34.097 122.339,34.206 122.496,34.206 122.688 C 34.206 122.920,34.322 123.037,34.555 123.037 C 34.839 123.037,34.904 123.153,34.904 123.664 C 34.904 124.144,34.986 124.312,35.253 124.382 C 35.445 124.432,35.602 124.578,35.602 124.706 C 35.602 124.834,35.706 125.002,35.833 125.079 C 35.961 125.155,36.115 125.356,36.177 125.524 C 36.239 125.692,36.409 125.829,36.556 125.829 C 36.724 125.829,36.824 125.989,36.824 126.255 C 36.824 126.490,36.966 126.784,37.141 126.910 C 37.315 127.035,37.509 127.275,37.571 127.443 C 37.634 127.611,37.796 127.749,37.932 127.749 C 38.068 127.749,38.220 127.906,38.270 128.098 C 38.321 128.290,38.487 128.447,38.640 128.447 C 38.793 128.447,38.918 128.534,38.918 128.640 C 38.918 128.886,39.645 129.661,39.879 129.665 C 39.976 129.667,40.154 129.825,40.274 130.017 C 40.413 130.240,40.681 130.366,41.014 130.366 C 41.419 130.366,41.536 130.444,41.536 130.716 C 41.536 130.948,41.652 131.065,41.885 131.065 C 42.118 131.065,42.234 131.181,42.234 131.414 C 42.234 131.606,42.334 131.763,42.457 131.763 C 42.579 131.763,42.814 131.920,42.979 132.112 C 43.143 132.304,43.475 132.461,43.716 132.461 C 43.989 132.461,44.154 132.559,44.154 132.723 C 44.154 132.866,44.305 132.984,44.491 132.984 C 44.676 132.984,44.878 133.141,44.939 133.333 C 45.021 133.593,45.203 133.682,45.649 133.682 C 46.044 133.682,46.248 133.765,46.248 133.925 C 46.248 134.239,46.631 134.380,47.484 134.380 C 48.051 134.380,48.168 134.440,48.168 134.729 C 48.168 135.020,48.284 135.079,48.866 135.079 C 49.344 135.079,49.564 135.155,49.564 135.320 C 49.564 135.627,50.104 135.771,51.265 135.774 C 51.962 135.776,52.182 135.839,52.182 136.038 C 52.182 136.252,52.480 136.300,53.819 136.300 C 55.310 136.300,55.465 136.331,55.548 136.649 C 55.637 136.990,55.786 136.998,61.743 136.998 C 67.701 136.998,67.850 136.990,67.939 136.649 C 68.023 136.327,68.177 136.300,69.966 136.300 C 71.571 136.300,71.902 136.255,71.902 136.038 C 71.902 135.833,72.145 135.777,73.038 135.777 C 73.958 135.777,74.231 135.710,74.473 135.428 C 74.696 135.167,74.988 135.079,75.622 135.079 C 76.326 135.079,76.488 135.018,76.564 134.729 C 76.640 134.439,76.802 134.380,77.524 134.380 C 78.245 134.380,78.408 134.321,78.483 134.031 C 78.555 133.758,78.722 133.682,79.252 133.682 C 79.814 133.682,79.930 133.622,79.930 133.333 C 79.930 133.050,80.047 132.984,80.546 132.984 C 80.933 132.984,81.200 132.887,81.263 132.723 C 81.322 132.571,81.583 132.461,81.885 132.461 C 82.259 132.461,82.432 132.362,82.497 132.112 C 82.548 131.919,82.735 131.763,82.917 131.763 C 83.233 131.763,83.246 131.524,83.246 125.829 L 83.246 119.895 82.635 119.895 C 82.209 119.895,82.024 119.974,82.024 120.157 C 82.024 120.301,81.899 120.419,81.746 120.419 C 81.593 120.419,81.427 120.576,81.377 120.768 C 81.326 120.961,81.139 121.117,80.957 121.117 C 80.745 121.117,80.628 121.240,80.628 121.466 C 80.628 121.699,80.512 121.815,80.279 121.815 C 80.047 121.815,79.930 121.931,79.930 122.164 C 79.930 122.438,79.814 122.513,79.390 122.513 C 78.997 122.513,78.826 122.608,78.759 122.862 C 78.709 123.055,78.521 123.211,78.339 123.211 C 78.158 123.211,78.010 123.320,78.010 123.454 C 78.010 123.592,77.749 123.745,77.400 123.810 C 77.064 123.873,76.789 124.002,76.789 124.096 C 76.789 124.190,76.592 124.342,76.353 124.433 C 76.113 124.524,75.916 124.718,75.916 124.865 C 75.916 125.053,75.736 125.131,75.305 125.131 C 74.811 125.131,74.695 125.197,74.695 125.480 C 74.695 125.786,74.578 125.829,73.755 125.829 C 72.962 125.829,72.801 125.883,72.724 126.178 C 72.647 126.475,72.486 126.527,71.657 126.527 C 70.941 126.527,70.681 126.592,70.681 126.769 C 70.681 126.956,70.259 127.027,68.833 127.079 C 67.313 127.136,66.956 127.201,66.817 127.448 C 66.543 127.939,61.635 127.896,61.210 127.400 C 60.948 127.094,60.695 127.051,59.164 127.051 C 57.728 127.051,57.417 127.004,57.417 126.789 C 57.417 126.585,57.184 126.527,56.370 126.527 C 55.439 126.527,55.323 126.488,55.323 126.178 C 55.323 125.896,55.207 125.829,54.718 125.829 C 54.292 125.829,54.058 125.726,53.927 125.480 C 53.778 125.203,53.561 125.131,52.873 125.131 C 52.123 125.131,52.007 125.084,52.007 124.782 C 52.007 124.549,51.891 124.433,51.658 124.433 C 51.466 124.433,51.309 124.319,51.309 124.179 C 51.309 124.027,51.064 123.879,50.698 123.810 C 50.348 123.745,50.087 123.592,50.087 123.454 C 50.087 123.320,49.939 123.211,49.759 123.211 C 49.577 123.211,49.389 123.055,49.339 122.862 C 49.272 122.608,49.101 122.513,48.707 122.513 C 48.284 122.513,48.168 122.438,48.168 122.164 C 48.168 121.931,48.051 121.815,47.818 121.815 C 47.586 121.815,47.469 121.699,47.469 121.466 C 47.469 121.240,47.353 121.117,47.141 121.117 C 46.959 121.117,46.771 120.961,46.721 120.768 C 46.671 120.576,46.504 120.419,46.351 120.419 C 46.198 120.419,46.073 120.301,46.073 120.157 C 46.073 120.012,45.918 119.895,45.724 119.895 C 45.492 119.895,45.375 119.779,45.375 119.546 C 45.375 119.354,45.266 119.197,45.133 119.197 C 44.994 119.197,44.842 118.936,44.776 118.586 C 44.713 118.250,44.584 117.976,44.490 117.976 C 44.396 117.976,44.245 117.779,44.154 117.539 C 44.062 117.299,43.868 117.103,43.722 117.103 C 43.575 117.103,43.455 116.952,43.455 116.768 C 43.455 116.248,43.267 115.881,43.001 115.881 C 42.867 115.881,42.757 115.724,42.757 115.532 C 42.757 115.300,42.641 115.183,42.408 115.183 C 42.118 115.183,42.059 115.067,42.059 114.485 C 42.059 113.981,41.987 113.787,41.798 113.787 C 41.609 113.787,41.536 113.595,41.536 113.103 C 41.536 112.251,41.395 111.867,41.081 111.867 C 40.896 111.867,40.838 111.571,40.838 110.629 C 40.838 109.538,40.796 109.381,40.489 109.300 C 39.946 109.158,39.946 100.892,40.489 100.349 C 40.759 100.078,40.838 99.767,40.838 98.962 C 40.838 98.182,40.909 97.883,41.123 97.764 C 41.307 97.660,41.438 97.287,41.494 96.708 C 41.552 96.106,41.659 95.812,41.820 95.812 C 41.976 95.812,42.059 95.605,42.059 95.221 C 42.059 94.777,42.146 94.608,42.408 94.539 C 42.676 94.469,42.757 94.301,42.757 93.821 C 42.757 93.310,42.822 93.194,43.106 93.194 C 43.389 93.194,43.455 93.077,43.455 92.583 C 43.455 92.140,43.532 91.972,43.734 91.972 C 43.887 91.972,44.053 91.815,44.103 91.623 C 44.153 91.431,44.298 91.274,44.424 91.274 C 44.550 91.274,44.701 91.124,44.759 90.941 C 44.817 90.758,44.980 90.564,45.120 90.510 C 45.260 90.456,45.375 90.301,45.375 90.165 C 45.375 90.030,45.532 89.877,45.724 89.827 C 45.916 89.777,46.073 89.611,46.073 89.458 C 46.073 89.305,46.186 89.180,46.323 89.180 C 46.461 89.180,46.623 89.023,46.684 88.831 C 46.745 88.639,46.865 88.482,46.950 88.482 C 47.157 88.482,47.993 87.637,47.993 87.427 C 47.993 87.335,48.150 87.260,48.342 87.260 C 48.575 87.260,48.691 87.144,48.691 86.911 C 48.691 86.678,48.807 86.562,49.040 86.562 C 49.273 86.562,49.389 86.446,49.389 86.213 C 49.389 85.930,49.506 85.864,50.000 85.864 C 50.336 85.864,50.611 85.783,50.611 85.685 C 50.611 85.587,50.807 85.432,51.047 85.340 C 51.287 85.249,51.483 85.055,51.483 84.908 C 51.483 84.721,51.663 84.642,52.094 84.642 C 52.589 84.642,52.705 84.576,52.705 84.293 C 52.705 84.002,52.821 83.944,53.403 83.944 C 53.985 83.944,54.101 83.886,54.101 83.595 C 54.101 83.288,54.218 83.246,55.061 83.246 C 55.905 83.246,56.021 83.204,56.021 82.897 C 56.021 82.579,56.137 82.548,57.330 82.548 C 58.377 82.548,58.639 82.496,58.639 82.286 C 58.639 82.059,59.354 82.024,64.030 82.024 C 68.662 82.024,69.436 82.061,69.522 82.286 C 69.598 82.484,69.918 82.548,70.829 82.548 C 71.889 82.548,72.047 82.590,72.127 82.897 C 72.204 83.188,72.365 83.246,73.108 83.246 C 73.880 83.246,73.997 83.292,73.997 83.595 C 73.997 83.884,74.113 83.944,74.674 83.944 C 75.205 83.944,75.372 84.020,75.443 84.293 C 75.509 84.544,75.681 84.642,76.054 84.642 C 76.427 84.642,76.599 84.741,76.665 84.991 C 76.735 85.259,76.903 85.340,77.383 85.340 C 77.824 85.340,78.010 85.418,78.010 85.602 C 78.010 85.748,78.166 85.864,78.360 85.864 C 78.592 85.864,78.709 85.980,78.709 86.213 C 78.709 86.438,78.825 86.562,79.037 86.562 C 79.219 86.562,79.407 86.718,79.457 86.911 C 79.524 87.165,79.695 87.260,80.088 87.260 C 80.512 87.260,80.628 87.335,80.628 87.609 C 80.628 87.835,80.745 87.958,80.957 87.958 C 81.143 87.958,81.327 88.115,81.380 88.320 C 81.453 88.598,81.589 88.669,81.968 88.625 L 82.461 88.569 82.507 82.941 C 82.552 77.401,82.547 77.312,82.201 77.312 C 81.966 77.312,81.850 77.197,81.850 76.963 C 81.850 76.681,81.734 76.614,81.239 76.614 C 80.812 76.614,80.628 76.535,80.628 76.353 C 80.628 76.165,80.437 76.091,79.951 76.091 C 79.420 76.091,79.253 76.015,79.182 75.742 C 79.106 75.452,78.943 75.393,78.222 75.393 C 77.500 75.393,77.338 75.334,77.262 75.044 C 77.184 74.747,77.024 74.695,76.194 74.695 C 75.334 74.695,75.218 74.653,75.218 74.346 C 75.218 74.039,75.102 73.997,74.258 73.997 C 73.557 73.997,73.298 73.931,73.298 73.755 C 73.298 73.450,72.759 73.304,71.616 73.301 C 70.980 73.299,70.689 73.222,70.618 73.037 C 70.537 72.826,70.142 72.775,68.592 72.775 C 66.783 72.775,66.667 72.754,66.667 72.426 C 66.667 72.085,66.550 72.077,61.693 72.077 C 56.835 72.077,56.719 72.085,56.719 72.426 M115.881 72.426 C 115.881 72.750,115.765 72.775,114.223 72.775 C 112.866 72.775,112.565 72.822,112.565 73.037 C 112.565 73.238,112.341 73.298,111.589 73.298 C 110.760 73.298,110.599 73.351,110.522 73.647 C 110.446 73.938,110.284 73.997,109.562 73.997 C 108.840 73.997,108.678 74.055,108.602 74.346 C 108.531 74.619,108.364 74.695,107.833 74.695 C 107.272 74.695,107.155 74.755,107.155 75.044 C 107.155 75.326,107.039 75.393,106.545 75.393 C 106.050 75.393,105.934 75.459,105.934 75.742 C 105.934 76.025,105.817 76.091,105.317 76.091 C 104.950 76.091,104.663 76.189,104.607 76.335 C 104.556 76.470,104.362 76.620,104.176 76.668 C 103.991 76.717,103.839 76.881,103.839 77.034 C 103.839 77.226,103.679 77.312,103.322 77.312 C 102.983 77.312,102.740 77.433,102.618 77.661 C 102.515 77.853,102.316 78.010,102.175 78.010 C 102.035 78.010,101.920 78.168,101.920 78.360 C 101.920 78.592,101.803 78.709,101.571 78.709 C 101.338 78.709,101.222 78.825,101.222 79.058 C 101.222 79.340,101.105 79.407,100.611 79.407 C 100.168 79.407,100.000 79.483,100.000 79.685 C 100.000 79.838,99.843 80.004,99.651 80.054 C 99.459 80.104,99.302 80.249,99.302 80.375 C 99.302 80.501,99.145 80.655,98.953 80.716 C 98.761 80.776,98.604 80.920,98.604 81.034 C 98.604 81.149,98.447 81.340,98.255 81.460 C 98.032 81.599,97.906 81.867,97.906 82.200 C 97.906 82.606,97.828 82.723,97.557 82.723 C 97.363 82.723,97.208 82.839,97.208 82.984 C 97.208 83.128,97.083 83.246,96.930 83.246 C 96.777 83.246,96.610 83.403,96.560 83.595 C 96.510 83.787,96.358 83.944,96.223 83.944 C 96.088 83.944,95.903 84.140,95.812 84.380 C 95.720 84.620,95.565 84.817,95.467 84.817 C 95.368 84.817,95.288 85.092,95.288 85.428 C 95.288 85.922,95.221 86.038,94.939 86.038 C 94.706 86.038,94.590 86.155,94.590 86.387 C 94.590 86.579,94.480 86.736,94.347 86.736 C 94.097 86.736,93.892 87.097,93.892 87.536 C 93.892 87.672,93.735 87.941,93.543 88.133 C 93.351 88.325,93.194 88.678,93.194 88.918 C 93.194 89.175,93.094 89.354,92.951 89.354 C 92.683 89.354,92.496 89.721,92.496 90.247 C 92.496 90.434,92.378 90.632,92.234 90.687 C 92.047 90.759,91.972 91.051,91.972 91.709 C 91.972 92.483,91.916 92.644,91.623 92.721 C 91.315 92.801,91.274 92.959,91.274 94.050 C 91.274 95.172,91.241 95.288,90.925 95.288 C 90.607 95.288,90.576 95.404,90.576 96.588 C 90.576 97.645,90.519 97.920,90.271 98.059 C 89.990 98.216,89.961 98.732,89.914 104.307 C 89.861 110.642,89.892 111.169,90.317 111.169 C 90.527 111.169,90.576 111.471,90.576 112.756 C 90.576 114.197,90.608 114.352,90.925 114.435 C 91.219 114.512,91.274 114.673,91.274 115.465 C 91.274 116.289,91.317 116.405,91.623 116.405 C 91.930 116.405,91.972 116.521,91.972 117.365 C 91.972 118.102,92.033 118.325,92.234 118.325 C 92.418 118.325,92.496 118.511,92.496 118.952 C 92.496 119.432,92.577 119.600,92.845 119.670 C 93.109 119.739,93.194 119.908,93.194 120.368 C 93.194 120.828,93.278 120.997,93.543 121.066 C 93.803 121.134,93.892 121.304,93.892 121.736 C 93.892 122.162,93.984 122.344,94.241 122.426 C 94.463 122.496,94.590 122.690,94.590 122.960 C 94.590 123.194,94.746 123.480,94.939 123.601 C 95.131 123.721,95.288 123.957,95.288 124.126 C 95.288 124.295,95.397 124.433,95.529 124.433 C 95.662 124.433,95.812 124.590,95.862 124.782 C 95.912 124.974,96.070 125.131,96.212 125.131 C 96.370 125.131,96.516 125.370,96.585 125.742 C 96.648 126.078,96.771 126.353,96.859 126.353 C 97.070 126.353,97.828 127.119,97.962 127.469 C 98.021 127.623,98.190 127.749,98.337 127.749 C 98.487 127.749,98.604 127.901,98.604 128.098 C 98.604 128.290,98.703 128.447,98.824 128.447 C 98.945 128.447,99.142 128.604,99.261 128.796 C 99.381 128.988,99.597 129.145,99.740 129.145 C 99.883 129.145,100.000 129.263,100.000 129.407 C 100.000 129.551,100.099 129.668,100.220 129.668 C 100.341 129.668,100.538 129.825,100.658 130.017 C 100.797 130.240,101.065 130.366,101.398 130.366 C 101.803 130.366,101.920 130.444,101.920 130.716 C 101.920 130.908,102.028 131.065,102.161 131.065 C 102.294 131.065,102.444 131.222,102.494 131.414 C 102.548 131.622,102.732 131.763,102.951 131.763 C 103.154 131.763,103.316 131.875,103.316 132.017 C 103.316 132.168,103.561 132.316,103.927 132.385 C 104.277 132.451,104.538 132.603,104.538 132.742 C 104.538 132.908,104.756 132.984,105.236 132.984 C 105.817 132.984,105.934 133.042,105.934 133.333 C 105.934 133.616,106.050 133.682,106.545 133.682 C 107.039 133.682,107.155 133.749,107.155 134.031 C 107.155 134.322,107.272 134.380,107.853 134.380 C 108.435 134.380,108.551 134.439,108.551 134.729 C 108.551 135.020,108.668 135.079,109.250 135.079 C 109.728 135.079,109.948 135.155,109.948 135.320 C 109.948 135.627,110.488 135.771,111.649 135.774 C 112.346 135.776,112.565 135.839,112.565 136.038 C 112.565 136.253,112.866 136.300,114.223 136.300 C 115.765 136.300,115.881 136.325,115.881 136.649 C 115.881 136.991,115.998 136.998,121.395 136.998 C 126.762 136.998,126.911 136.989,127.000 136.649 C 127.083 136.331,127.238 136.300,128.729 136.300 C 130.068 136.300,130.366 136.252,130.366 136.038 C 130.366 135.839,130.586 135.776,131.283 135.774 C 132.444 135.771,132.984 135.627,132.984 135.320 C 132.984 135.155,133.202 135.079,133.668 135.079 C 134.521 135.079,134.904 134.937,134.904 134.624 C 134.904 134.461,135.111 134.380,135.531 134.380 C 136.012 134.380,136.180 134.299,136.250 134.031 C 136.317 133.772,136.488 133.682,136.911 133.682 C 137.334 133.682,137.505 133.593,137.572 133.333 C 137.638 133.081,137.810 132.984,138.195 132.984 C 138.487 132.984,138.789 132.880,138.866 132.753 C 138.942 132.626,139.143 132.471,139.311 132.409 C 139.479 132.348,139.616 132.177,139.616 132.030 C 139.616 131.849,139.786 131.763,140.145 131.763 C 140.466 131.763,140.716 131.654,140.780 131.488 C 140.838 131.336,141.071 131.142,141.298 131.056 C 141.525 130.969,141.710 130.779,141.710 130.633 C 141.710 130.486,141.828 130.366,141.972 130.366 C 142.118 130.366,142.234 130.211,142.234 130.017 C 142.234 129.736,142.350 129.668,142.833 129.668 C 143.279 129.668,143.460 129.579,143.543 129.319 C 143.604 129.127,143.766 128.970,143.904 128.970 C 144.041 128.970,144.154 128.853,144.154 128.709 C 144.154 128.565,144.240 128.447,144.345 128.447 C 144.514 128.447,145.550 127.462,145.550 127.302 C 145.550 127.173,146.446 126.353,146.586 126.353 C 146.768 126.353,146.946 125.914,146.946 125.466 C 146.946 125.276,147.066 125.131,147.224 125.131 C 147.377 125.131,147.543 124.974,147.593 124.782 C 147.644 124.590,147.796 124.433,147.932 124.433 C 148.067 124.433,148.229 124.295,148.291 124.127 C 148.352 123.959,148.507 123.759,148.634 123.682 C 148.762 123.606,148.866 123.320,148.866 123.048 C 148.866 122.701,148.969 122.527,149.215 122.463 C 149.482 122.393,149.564 122.224,149.564 121.744 C 149.564 121.233,149.628 121.117,149.913 121.117 C 150.120 121.117,150.262 121.001,150.262 120.831 C 150.262 120.673,150.388 120.453,150.541 120.340 C 150.696 120.227,150.861 119.779,150.911 119.332 C 150.978 118.739,151.088 118.506,151.330 118.443 C 151.574 118.379,151.658 118.197,151.658 117.730 C 151.658 117.289,151.736 117.103,151.920 117.103 C 152.120 117.103,152.182 116.881,152.182 116.155 C 152.182 115.360,152.238 115.189,152.531 115.096 C 152.838 114.999,152.880 114.832,152.880 113.708 C 152.880 112.578,152.920 112.421,153.229 112.340 C 153.560 112.254,153.578 112.102,153.578 109.374 C 153.578 106.645,153.595 106.493,153.927 106.407 C 154.510 106.254,154.407 102.618,153.819 102.618 C 153.624 102.618,153.578 102.102,153.578 99.927 C 153.578 97.101,153.519 96.684,153.123 96.684 C 152.936 96.684,152.880 96.375,152.880 95.359 C 152.880 94.180,152.841 94.024,152.531 93.942 C 152.241 93.867,152.182 93.704,152.182 92.993 C 152.182 92.392,152.103 92.106,151.920 92.035 C 151.756 91.972,151.658 91.706,151.658 91.326 C 151.658 90.865,151.574 90.696,151.309 90.626 C 151.047 90.558,150.960 90.388,150.960 89.945 C 150.960 89.471,150.891 89.354,150.611 89.354 C 150.320 89.354,150.262 89.238,150.262 88.656 C 150.262 88.074,150.204 87.958,149.913 87.958 C 149.628 87.958,149.564 87.842,149.564 87.331 C 149.564 86.851,149.482 86.682,149.215 86.613 C 148.966 86.548,148.866 86.374,148.866 86.013 C 148.866 85.727,148.754 85.461,148.610 85.406 C 148.470 85.352,148.308 85.158,148.250 84.975 C 148.192 84.792,148.032 84.642,147.894 84.642 C 147.756 84.642,147.644 84.517,147.644 84.364 C 147.644 84.211,147.487 84.045,147.295 83.995 C 147.103 83.945,146.946 83.762,146.946 83.589 C 146.946 83.088,146.754 82.723,146.491 82.723 C 146.357 82.723,146.248 82.610,146.248 82.472 C 146.248 82.335,146.091 82.173,145.899 82.112 C 145.707 82.051,145.550 81.881,145.550 81.735 C 145.550 81.588,145.393 81.427,145.201 81.377 C 145.009 81.327,144.852 81.182,144.852 81.056 C 144.852 80.930,144.695 80.776,144.503 80.716 C 144.311 80.655,144.154 80.492,144.154 80.355 C 144.154 80.217,144.041 80.105,143.904 80.105 C 143.766 80.105,143.604 79.948,143.543 79.756 C 143.460 79.496,143.279 79.407,142.833 79.407 C 142.350 79.407,142.234 79.339,142.234 79.058 C 142.234 78.864,142.118 78.709,141.972 78.709 C 141.828 78.709,141.710 78.583,141.710 78.430 C 141.710 78.277,141.556 78.112,141.367 78.063 C 141.178 78.013,140.977 77.824,140.919 77.643 C 140.843 77.403,140.650 77.312,140.215 77.312 C 139.732 77.312,139.616 77.245,139.616 76.963 C 139.616 76.731,139.500 76.614,139.267 76.614 C 139.073 76.614,138.918 76.498,138.918 76.353 C 138.918 76.171,138.736 76.091,138.328 76.091 C 137.884 76.091,137.714 76.004,137.646 75.742 C 137.576 75.474,137.408 75.393,136.927 75.393 C 136.417 75.393,136.300 75.328,136.300 75.044 C 136.300 74.762,136.184 74.695,135.695 74.695 C 135.269 74.695,135.036 74.591,134.904 74.346 C 134.756 74.068,134.539 73.997,133.851 73.997 C 133.226 73.997,132.984 73.929,132.984 73.753 C 132.984 73.439,132.601 73.298,131.743 73.298 C 131.291 73.298,131.019 73.208,130.953 73.037 C 130.874 72.830,130.510 72.775,129.213 72.775 C 127.691 72.775,127.574 72.750,127.574 72.426 C 127.574 72.084,127.458 72.077,121.728 72.077 C 115.998 72.077,115.881 72.084,115.881 72.426 M280.366 72.426 C 280.267 72.740,280.102 72.775,278.715 72.775 C 277.507 72.775,277.154 72.831,277.075 73.037 C 277.004 73.222,276.714 73.298,276.080 73.298 C 275.332 73.298,275.170 73.356,275.094 73.647 C 275.019 73.936,274.856 73.997,274.157 73.997 C 273.489 73.997,273.271 74.070,273.124 74.346 C 273.000 74.578,272.758 74.695,272.403 74.695 C 272.016 74.695,271.844 74.791,271.778 75.044 C 271.709 75.308,271.540 75.393,271.080 75.393 C 270.620 75.393,270.451 75.477,270.382 75.742 C 270.317 75.990,270.144 76.091,269.782 76.091 C 269.502 76.091,269.231 76.201,269.180 76.335 C 269.128 76.470,268.934 76.620,268.749 76.668 C 268.564 76.717,268.412 76.881,268.412 77.034 C 268.412 77.215,268.258 77.312,267.974 77.312 C 267.733 77.312,267.401 77.469,267.237 77.661 C 267.073 77.853,266.843 78.010,266.727 78.010 C 266.611 78.010,266.466 78.168,266.405 78.360 C 266.344 78.551,266.182 78.709,266.044 78.709 C 265.907 78.709,265.794 78.866,265.794 79.058 C 265.794 79.290,265.678 79.407,265.445 79.407 C 265.251 79.407,265.096 79.523,265.096 79.668 C 265.096 79.814,264.941 79.930,264.747 79.930 C 264.514 79.930,264.398 80.047,264.398 80.279 C 264.398 80.512,264.282 80.628,264.049 80.628 C 263.816 80.628,263.700 80.745,263.700 80.977 C 263.700 81.210,263.583 81.326,263.351 81.326 C 263.118 81.326,263.002 81.443,263.002 81.675 C 263.002 81.869,262.885 82.024,262.740 82.024 C 262.595 82.024,262.478 82.180,262.478 82.373 C 262.478 82.606,262.362 82.723,262.129 82.723 C 261.935 82.723,261.780 82.839,261.780 82.984 C 261.780 83.128,261.660 83.246,261.513 83.246 C 261.366 83.246,261.194 83.384,261.132 83.551 C 261.069 83.719,260.875 83.960,260.701 84.085 C 260.518 84.216,260.384 84.530,260.384 84.827 C 260.384 85.224,260.305 85.340,260.035 85.340 C 259.802 85.340,259.686 85.457,259.686 85.689 C 259.686 85.883,259.570 86.038,259.424 86.038 C 259.241 86.038,259.162 86.223,259.162 86.649 C 259.162 87.144,259.096 87.260,258.813 87.260 C 258.583 87.260,258.464 87.376,258.464 87.603 C 258.464 87.792,258.307 88.030,258.115 88.133 C 257.848 88.275,257.766 88.498,257.766 89.078 C 257.766 89.690,257.699 89.855,257.417 89.928 C 257.152 89.998,257.068 90.166,257.068 90.626 C 257.068 91.087,256.984 91.255,256.719 91.325 C 256.428 91.401,256.370 91.563,256.370 92.305 C 256.370 92.979,256.307 93.194,256.108 93.194 C 255.905 93.194,255.846 93.424,255.846 94.220 C 255.846 95.100,255.797 95.260,255.497 95.339 C 255.175 95.423,255.148 95.577,255.148 97.366 C 255.148 99.186,255.127 99.302,254.799 99.302 C 254.458 99.302,254.450 99.418,254.450 104.887 C 254.450 110.355,254.458 110.471,254.799 110.471 C 255.124 110.471,255.148 110.588,255.148 112.129 C 255.148 113.671,255.173 113.787,255.497 113.787 C 255.815 113.787,255.846 113.903,255.846 115.096 C 255.846 116.143,255.899 116.405,256.108 116.405 C 256.287 116.405,256.371 116.585,256.372 116.972 C 256.376 117.801,256.552 118.325,256.827 118.325 C 256.987 118.325,257.068 118.534,257.068 118.952 C 257.068 119.432,257.150 119.600,257.417 119.670 C 257.682 119.739,257.766 119.908,257.766 120.368 C 257.766 120.828,257.851 120.997,258.115 121.066 C 258.366 121.132,258.464 121.304,258.464 121.677 C 258.464 122.050,258.563 122.223,258.813 122.288 C 259.006 122.339,259.162 122.526,259.162 122.708 C 259.162 122.889,259.271 123.037,259.405 123.037 C 259.543 123.037,259.696 123.298,259.762 123.647 C 259.825 123.983,259.953 124.258,260.047 124.258 C 260.141 124.258,260.293 124.455,260.384 124.695 C 260.475 124.935,260.670 125.131,260.816 125.131 C 260.966 125.131,261.082 125.284,261.082 125.480 C 261.082 125.713,261.198 125.829,261.431 125.829 C 261.705 125.829,261.780 125.945,261.780 126.369 C 261.780 126.762,261.875 126.934,262.129 127.000 C 262.321 127.050,262.478 127.195,262.478 127.321 C 262.478 127.447,262.635 127.601,262.827 127.661 C 263.019 127.722,263.176 127.842,263.176 127.927 C 263.176 128.124,264.016 128.970,264.211 128.970 C 264.291 128.970,264.398 129.127,264.448 129.319 C 264.518 129.587,264.687 129.668,265.167 129.668 C 265.678 129.668,265.794 129.733,265.794 130.017 C 265.794 130.209,265.903 130.366,266.035 130.366 C 266.168 130.366,266.318 130.524,266.368 130.716 C 266.418 130.908,266.575 131.065,266.717 131.065 C 266.859 131.065,267.016 131.222,267.066 131.414 C 267.136 131.681,267.304 131.763,267.785 131.763 C 268.296 131.763,268.412 131.827,268.412 132.112 C 268.412 132.344,268.528 132.461,268.761 132.461 C 268.955 132.461,269.110 132.577,269.110 132.723 C 269.110 132.905,269.294 132.984,269.721 132.984 C 270.215 132.984,270.332 133.051,270.332 133.333 C 270.332 133.624,270.448 133.682,271.030 133.682 C 271.611 133.682,271.728 133.741,271.728 134.031 C 271.728 134.313,271.844 134.380,272.327 134.380 C 272.773 134.380,272.954 134.470,273.037 134.729 C 273.129 135.021,273.301 135.079,274.075 135.079 C 274.856 135.079,275.017 135.134,275.094 135.428 C 275.170 135.719,275.332 135.777,276.074 135.777 C 276.748 135.777,276.963 135.840,276.963 136.038 C 276.963 136.252,277.262 136.300,278.601 136.300 C 280.092 136.300,280.247 136.331,280.330 136.649 C 280.419 136.989,280.568 136.998,285.951 136.998 C 291.334 136.998,291.484 136.989,291.572 136.649 C 291.655 136.333,291.811 136.300,293.220 136.300 C 294.441 136.300,294.797 136.244,294.876 136.038 C 294.949 135.847,295.252 135.777,296.005 135.777 C 296.800 135.777,297.112 135.698,297.382 135.428 C 297.630 135.180,297.964 135.079,298.533 135.079 C 299.188 135.079,299.351 135.015,299.426 134.729 C 299.495 134.465,299.664 134.380,300.124 134.380 C 300.584 134.380,300.753 134.296,300.822 134.031 C 300.891 133.769,301.060 133.682,301.504 133.682 C 301.978 133.682,302.094 133.614,302.094 133.333 C 302.094 133.052,302.211 132.984,302.696 132.984 C 303.028 132.984,303.361 132.880,303.438 132.753 C 303.515 132.626,303.715 132.471,303.883 132.409 C 304.051 132.348,304.188 132.177,304.188 132.030 C 304.188 131.841,304.367 131.763,304.799 131.763 C 305.294 131.763,305.410 131.696,305.410 131.414 C 305.410 131.181,305.526 131.065,305.759 131.065 C 305.992 131.065,306.108 130.948,306.108 130.716 C 306.108 130.444,306.225 130.366,306.630 130.366 C 306.963 130.366,307.231 130.240,307.370 130.017 C 307.490 129.825,307.687 129.668,307.808 129.668 C 307.929 129.668,308.028 129.551,308.028 129.407 C 308.028 129.263,308.153 129.145,308.306 129.145 C 308.459 129.145,308.625 128.988,308.675 128.796 C 308.726 128.604,308.883 128.447,309.024 128.447 C 309.166 128.447,309.323 128.290,309.374 128.098 C 309.424 127.906,309.581 127.749,309.723 127.749 C 309.864 127.749,310.021 127.592,310.072 127.400 C 310.122 127.208,310.274 127.051,310.410 127.051 C 310.546 127.051,310.709 126.913,310.773 126.745 C 310.837 126.577,311.149 126.195,311.466 125.896 C 311.834 125.548,312.042 125.186,312.042 124.892 C 312.042 124.549,312.130 124.433,312.391 124.433 C 312.616 124.433,312.740 124.316,312.740 124.104 C 312.740 123.922,312.896 123.735,313.089 123.684 C 313.339 123.619,313.438 123.446,313.438 123.073 C 313.438 122.701,313.537 122.528,313.787 122.463 C 313.996 122.408,314.136 122.224,314.136 122.006 C 314.136 121.802,314.249 121.640,314.390 121.640 C 314.541 121.640,314.689 121.398,314.756 121.042 C 314.818 120.712,314.979 120.401,315.113 120.349 C 315.251 120.296,315.358 120.017,315.358 119.710 C 315.358 119.311,315.452 119.140,315.707 119.073 C 316.001 118.996,316.056 118.835,316.056 118.042 C 316.056 117.219,316.099 117.103,316.405 117.103 C 316.696 117.103,316.754 116.987,316.754 116.405 C 316.754 115.925,316.830 115.707,316.997 115.707 C 317.335 115.707,317.452 115.315,317.452 114.185 C 317.452 113.462,317.530 113.158,317.757 112.992 C 318.013 112.805,318.072 112.423,318.121 110.649 C 318.166 109.023,318.237 108.507,318.427 108.434 C 318.807 108.289,318.792 101.222,318.412 101.222 C 318.193 101.222,318.150 100.863,318.150 99.042 C 318.150 97.051,318.120 96.843,317.801 96.644 C 317.507 96.460,317.452 96.237,317.452 95.230 C 317.452 94.180,317.409 94.022,317.103 93.942 C 316.808 93.865,316.754 93.704,316.754 92.912 C 316.754 92.088,316.711 91.972,316.405 91.972 C 316.102 91.972,316.056 91.856,316.056 91.083 C 316.056 90.341,315.998 90.179,315.707 90.103 C 315.444 90.034,315.358 89.865,315.358 89.416 C 315.358 89.066,315.257 88.781,315.113 88.726 C 314.979 88.674,314.818 88.363,314.756 88.033 C 314.694 87.704,314.567 87.435,314.473 87.435 C 314.379 87.435,314.227 87.238,314.136 86.998 C 314.045 86.758,313.850 86.562,313.704 86.562 C 313.523 86.562,313.438 86.390,313.438 86.022 C 313.438 85.629,313.343 85.457,313.089 85.391 C 312.896 85.340,312.740 85.153,312.740 84.971 C 312.740 84.759,312.616 84.642,312.391 84.642 C 312.158 84.642,312.042 84.526,312.042 84.293 C 312.042 84.099,311.926 83.944,311.780 83.944 C 311.635 83.944,311.518 83.789,311.518 83.595 C 311.518 83.403,311.375 83.103,311.200 82.927 C 311.024 82.752,310.830 82.477,310.769 82.317 C 310.707 82.156,310.536 82.024,310.389 82.024 C 310.242 82.024,310.122 81.899,310.122 81.746 C 310.122 81.593,309.965 81.427,309.773 81.377 C 309.581 81.327,309.424 81.170,309.424 81.028 C 309.424 80.886,309.267 80.729,309.075 80.679 C 308.883 80.629,308.726 80.510,308.726 80.414 C 308.726 80.184,307.988 79.413,307.764 79.410 C 307.668 79.408,307.490 79.250,307.370 79.058 C 307.231 78.835,306.963 78.709,306.630 78.709 C 306.225 78.709,306.108 78.631,306.108 78.360 C 306.108 78.127,305.992 78.010,305.759 78.010 C 305.526 78.010,305.410 77.894,305.410 77.661 C 305.410 77.429,305.294 77.312,305.061 77.312 C 304.869 77.312,304.712 77.198,304.712 77.059 C 304.712 76.907,304.467 76.759,304.101 76.690 C 303.751 76.624,303.490 76.472,303.490 76.333 C 303.490 76.167,303.272 76.091,302.792 76.091 C 302.211 76.091,302.094 76.033,302.094 75.742 C 302.094 75.459,301.978 75.393,301.483 75.393 C 300.989 75.393,300.873 75.326,300.873 75.044 C 300.873 74.755,300.756 74.695,300.195 74.695 C 299.664 74.695,299.497 74.619,299.426 74.346 C 299.350 74.055,299.188 73.997,298.466 73.997 C 297.744 73.997,297.582 73.938,297.506 73.647 C 297.429 73.351,297.268 73.298,296.439 73.298 C 295.687 73.298,295.462 73.238,295.462 73.037 C 295.462 72.822,295.162 72.775,293.805 72.775 C 292.263 72.775,292.147 72.750,292.147 72.426 C 292.147 72.084,292.030 72.077,286.312 72.077 C 280.631 72.077,280.474 72.086,280.366 72.426 M162.304 104.538 L 162.304 136.300 167.539 136.300 L 172.775 136.300 172.775 122.688 L 172.775 109.075 174.171 109.075 C 175.451 109.075,175.567 109.104,175.567 109.424 C 175.567 109.729,175.684 109.773,176.485 109.773 C 177.214 109.773,177.448 109.845,177.621 110.122 C 177.760 110.345,178.028 110.471,178.361 110.471 C 178.767 110.471,178.883 110.549,178.883 110.820 C 178.883 111.012,178.959 111.169,179.052 111.169 C 179.145 111.169,179.495 111.444,179.831 111.780 C 180.167 112.116,180.523 112.391,180.622 112.391 C 180.722 112.391,180.803 112.516,180.803 112.669 C 180.803 112.822,180.957 112.988,181.146 113.037 C 181.335 113.086,181.536 113.275,181.594 113.457 C 181.652 113.638,181.811 113.787,181.949 113.787 C 182.086 113.787,182.199 113.868,182.199 113.967 C 182.199 114.067,182.474 114.423,182.810 114.759 C 183.146 115.095,183.421 115.445,183.421 115.538 C 183.421 115.631,183.578 115.707,183.770 115.707 C 184.002 115.707,184.119 115.823,184.119 116.056 C 184.119 116.289,184.235 116.405,184.468 116.405 C 184.752 116.405,184.817 116.521,184.817 117.032 C 184.817 117.512,184.898 117.681,185.166 117.750 C 185.358 117.801,185.515 117.953,185.515 118.089 C 185.515 118.224,185.633 118.381,185.777 118.436 C 185.921 118.491,186.038 118.685,186.038 118.867 C 186.038 119.049,186.195 119.354,186.387 119.546 C 186.579 119.738,186.736 120.013,186.736 120.157 C 186.736 120.303,186.892 120.419,187.086 120.419 C 187.370 120.419,187.435 120.535,187.435 121.046 C 187.435 121.526,187.516 121.695,187.784 121.764 C 188.034 121.830,188.133 122.002,188.133 122.375 C 188.133 122.748,188.231 122.921,188.482 122.986 C 188.744 123.055,188.831 123.224,188.831 123.668 C 188.831 123.993,188.911 124.258,189.010 124.258 C 189.108 124.258,189.263 124.455,189.354 124.695 C 189.446 124.935,189.640 125.131,189.786 125.131 C 189.974 125.131,190.052 125.311,190.052 125.742 C 190.052 126.236,190.119 126.353,190.401 126.353 C 190.686 126.353,190.750 126.469,190.750 126.980 C 190.750 127.460,190.832 127.628,191.099 127.698 C 191.350 127.764,191.449 127.936,191.449 128.309 C 191.449 128.682,191.547 128.854,191.798 128.920 C 191.991 128.970,192.147 129.158,192.147 129.340 C 192.147 129.521,192.256 129.668,192.389 129.668 C 192.528 129.668,192.680 129.929,192.746 130.279 C 192.809 130.615,192.937 130.890,193.031 130.890 C 193.125 130.890,193.277 131.086,193.368 131.326 C 193.459 131.566,193.654 131.763,193.800 131.763 C 193.947 131.763,194.066 131.913,194.066 132.097 C 194.066 132.618,194.254 132.984,194.521 132.984 C 194.655 132.984,194.764 133.141,194.764 133.333 C 194.764 133.566,194.881 133.682,195.113 133.682 C 195.397 133.682,195.462 133.799,195.462 134.299 C 195.462 134.666,195.561 134.953,195.707 135.009 C 195.842 135.060,195.991 135.254,196.040 135.440 C 196.088 135.625,196.253 135.777,196.406 135.777 C 196.559 135.777,196.684 135.894,196.684 136.038 C 196.684 136.266,197.460 136.300,202.618 136.300 L 208.551 136.300 208.551 135.428 C 208.551 134.948,208.471 134.555,208.373 134.555 C 208.274 134.555,208.119 134.359,208.028 134.119 C 207.937 133.879,207.742 133.682,207.596 133.682 C 207.429 133.682,207.330 133.521,207.330 133.248 C 207.330 133.002,207.178 132.718,206.981 132.595 C 206.789 132.475,206.632 132.239,206.632 132.070 C 206.632 131.879,206.500 131.763,206.283 131.763 C 206.050 131.763,205.934 131.646,205.934 131.414 C 205.934 131.181,205.817 131.065,205.585 131.065 C 205.302 131.065,205.236 130.948,205.236 130.454 C 205.236 130.027,205.157 129.843,204.974 129.843 C 204.828 129.843,204.712 129.688,204.712 129.494 C 204.712 129.261,204.596 129.145,204.363 129.145 C 204.079 129.145,204.014 129.029,204.014 128.518 C 204.014 128.037,203.932 127.869,203.665 127.799 C 203.414 127.734,203.316 127.561,203.316 127.188 C 203.316 126.816,203.217 126.643,202.967 126.578 C 202.774 126.527,202.618 126.340,202.618 126.158 C 202.618 125.945,202.494 125.829,202.269 125.829 C 201.978 125.829,201.920 125.713,201.920 125.131 C 201.920 124.627,201.847 124.433,201.658 124.433 C 201.514 124.433,201.396 124.282,201.396 124.098 C 201.396 123.578,201.208 123.211,200.941 123.211 C 200.798 123.211,200.698 123.031,200.698 122.775 C 200.698 122.535,200.541 122.182,200.349 121.990 C 200.157 121.798,200.000 121.523,200.000 121.379 C 200.000 121.233,199.845 121.117,199.651 121.117 C 199.368 121.117,199.302 121.001,199.302 120.506 C 199.302 120.012,199.235 119.895,198.953 119.895 C 198.671 119.895,198.604 119.779,198.604 119.293 C 198.604 118.962,198.500 118.628,198.373 118.551 C 198.245 118.475,198.091 118.274,198.029 118.106 C 197.967 117.938,197.796 117.801,197.649 117.801 C 197.467 117.801,197.382 117.630,197.382 117.261 C 197.382 116.868,197.287 116.696,197.033 116.630 C 196.840 116.579,196.684 116.392,196.684 116.210 C 196.684 115.998,196.561 115.881,196.335 115.881 C 196.051 115.881,195.986 115.765,195.986 115.254 C 195.986 114.774,195.904 114.606,195.637 114.536 C 195.444 114.485,195.288 114.298,195.288 114.116 C 195.288 113.935,195.170 113.787,195.026 113.787 C 194.850 113.787,194.764 113.611,194.764 113.247 C 194.764 112.854,194.670 112.682,194.415 112.616 C 194.222 112.565,194.066 112.378,194.066 112.196 C 194.066 111.984,193.943 111.867,193.717 111.867 C 193.443 111.867,193.368 111.751,193.368 111.327 C 193.368 110.934,193.273 110.763,193.019 110.696 C 192.826 110.646,192.670 110.458,192.670 110.276 C 192.670 110.064,192.547 109.948,192.321 109.948 C 192.088 109.948,191.972 109.831,191.972 109.599 C 191.972 109.405,191.856 109.250,191.710 109.250 C 191.566 109.250,191.449 109.124,191.449 108.971 C 191.449 108.818,191.291 108.652,191.099 108.602 C 190.906 108.552,190.750 108.364,190.750 108.182 C 190.750 107.970,190.627 107.853,190.401 107.853 C 190.198 107.853,190.052 107.737,190.052 107.575 C 190.052 107.422,189.895 107.256,189.703 107.206 C 189.511 107.156,189.354 107.006,189.354 106.873 C 189.354 106.740,189.197 106.632,189.005 106.632 C 188.749 106.632,188.656 106.515,188.656 106.195 C 188.656 105.803,188.726 105.759,189.354 105.759 C 189.858 105.759,190.052 105.686,190.052 105.497 C 190.052 105.323,190.227 105.236,190.574 105.236 C 190.908 105.236,191.175 105.109,191.314 104.887 C 191.434 104.695,191.631 104.538,191.752 104.538 C 191.873 104.538,191.972 104.380,191.972 104.188 C 191.972 103.917,192.088 103.839,192.494 103.839 C 192.827 103.839,193.095 103.713,193.234 103.490 C 193.354 103.298,193.546 103.141,193.660 103.141 C 193.775 103.141,193.918 102.984,193.979 102.792 C 194.040 102.600,194.199 102.443,194.332 102.443 C 194.470 102.443,194.623 102.182,194.689 101.832 C 194.754 101.483,194.907 101.222,195.046 101.222 C 195.179 101.222,195.288 101.065,195.288 100.873 C 195.288 100.640,195.404 100.524,195.637 100.524 C 195.928 100.524,195.986 100.407,195.986 99.825 C 195.986 99.244,196.044 99.127,196.335 99.127 C 196.613 99.127,196.684 99.011,196.684 98.559 C 196.684 98.179,196.800 97.917,197.033 97.772 C 197.322 97.592,197.382 97.365,197.382 96.463 C 197.382 95.561,197.443 95.334,197.731 95.154 C 198.064 94.946,198.080 94.747,198.080 90.925 C 198.080 87.103,198.064 86.904,197.731 86.696 C 197.437 86.512,197.382 86.289,197.382 85.282 C 197.382 84.233,197.339 84.075,197.033 83.995 C 196.745 83.919,196.684 83.757,196.684 83.063 C 196.684 82.376,196.620 82.202,196.335 82.112 C 196.143 82.051,195.986 81.849,195.986 81.664 C 195.986 81.443,195.866 81.326,195.637 81.326 C 195.354 81.326,195.288 81.210,195.288 80.710 C 195.288 80.323,195.190 80.056,195.026 79.993 C 194.882 79.938,194.764 79.783,194.764 79.650 C 194.764 79.516,194.607 79.407,194.415 79.407 C 194.183 79.407,194.066 79.290,194.066 79.058 C 194.066 78.825,193.950 78.709,193.717 78.709 C 193.485 78.709,193.368 78.592,193.368 78.360 C 193.368 78.127,193.252 78.010,193.019 78.010 C 192.787 78.010,192.670 77.894,192.670 77.661 C 192.670 77.429,192.554 77.312,192.321 77.312 C 192.088 77.312,191.972 77.196,191.972 76.963 C 191.972 76.766,191.856 76.614,191.705 76.614 C 191.558 76.614,191.392 76.497,191.337 76.353 C 191.275 76.191,191.010 76.091,190.645 76.091 C 190.169 76.091,190.052 76.022,190.052 75.742 C 190.052 75.451,189.936 75.393,189.354 75.393 C 188.773 75.393,188.656 75.334,188.656 75.044 C 188.656 74.766,188.540 74.695,188.087 74.695 C 187.708 74.695,187.446 74.579,187.301 74.346 C 187.134 74.078,186.894 73.997,186.274 73.997 C 185.706 73.997,185.400 73.906,185.243 73.691 C 185.061 73.442,184.687 73.375,183.217 73.325 C 181.900 73.281,181.376 73.199,181.274 73.020 C 181.157 72.814,179.621 72.775,171.719 72.775 L 162.304 72.775 162.304 104.538 M214.740 72.993 C 214.695 73.113,214.678 87.387,214.702 104.712 L 214.747 136.213 219.939 136.259 L 225.131 136.305 225.131 121.730 L 225.131 107.155 236.128 107.155 L 247.126 107.155 247.080 102.225 L 247.033 97.295 236.082 97.250 L 225.131 97.205 225.131 90.226 L 225.131 83.246 236.126 83.246 L 247.120 83.246 247.120 78.010 L 247.120 72.775 230.972 72.775 C 218.214 72.775,214.806 72.821,214.740 72.993 M126.590 82.286 C 126.666 82.485,126.988 82.548,127.918 82.548 C 129.029 82.548,129.145 82.581,129.145 82.897 C 129.145 83.177,129.261 83.246,129.735 83.246 C 130.179 83.246,130.348 83.333,130.417 83.595 C 130.487 83.862,130.655 83.944,131.135 83.944 C 131.646 83.944,131.763 84.009,131.763 84.293 C 131.763 84.573,131.879 84.642,132.353 84.642 C 132.797 84.642,132.966 84.729,133.035 84.991 C 133.085 85.183,133.251 85.340,133.404 85.340 C 133.557 85.340,133.682 85.458,133.682 85.602 C 133.682 85.748,133.838 85.864,134.031 85.864 C 134.223 85.864,134.380 85.976,134.380 86.114 C 134.380 86.251,134.529 86.411,134.711 86.469 C 134.892 86.526,135.081 86.728,135.131 86.917 C 135.180 87.106,135.346 87.260,135.498 87.260 C 135.651 87.260,135.777 87.373,135.777 87.510 C 135.777 87.648,135.934 87.810,136.126 87.871 C 136.318 87.932,136.475 88.094,136.475 88.232 C 136.475 88.369,136.587 88.482,136.725 88.482 C 136.862 88.482,137.025 88.639,137.086 88.831 C 137.146 89.023,137.309 89.180,137.446 89.180 C 137.584 89.180,137.696 89.337,137.696 89.529 C 137.696 89.761,137.813 89.878,138.045 89.878 C 138.278 89.878,138.394 89.994,138.394 90.227 C 138.394 90.460,138.511 90.576,138.743 90.576 C 139.026 90.576,139.092 90.692,139.092 91.187 C 139.092 91.613,139.171 91.798,139.354 91.798 C 139.498 91.798,139.616 91.923,139.616 92.076 C 139.616 92.229,139.773 92.395,139.965 92.445 C 140.239 92.517,140.314 92.683,140.314 93.214 C 140.314 93.775,140.374 93.892,140.663 93.892 C 140.947 93.892,141.012 94.008,141.012 94.519 C 141.012 94.999,141.094 95.167,141.361 95.237 C 141.656 95.314,141.710 95.475,141.710 96.268 C 141.710 97.091,141.754 97.208,142.059 97.208 C 142.377 97.208,142.408 97.324,142.408 98.517 C 142.408 99.564,142.461 99.825,142.670 99.825 C 142.896 99.825,142.932 100.465,142.932 104.538 C 142.932 108.610,142.896 109.250,142.670 109.250 C 142.461 109.250,142.408 109.511,142.408 110.558 C 142.408 111.751,142.377 111.867,142.059 111.867 C 141.754 111.867,141.710 111.984,141.710 112.807 C 141.710 113.600,141.656 113.761,141.361 113.838 C 141.097 113.907,141.012 114.076,141.012 114.536 C 141.012 114.996,140.928 115.165,140.663 115.234 C 140.399 115.303,140.314 115.472,140.314 115.932 C 140.314 116.392,140.230 116.561,139.965 116.630 C 139.711 116.696,139.616 116.868,139.616 117.261 C 139.616 117.625,139.531 117.801,139.354 117.801 C 139.209 117.801,139.092 117.956,139.092 118.150 C 139.092 118.383,138.976 118.499,138.743 118.499 C 138.518 118.499,138.394 118.615,138.394 118.828 C 138.394 119.010,138.239 119.197,138.045 119.248 C 137.795 119.313,137.696 119.486,137.696 119.859 C 137.696 120.231,137.598 120.404,137.347 120.469 C 137.155 120.520,136.998 120.677,136.998 120.818 C 136.998 120.960,136.841 121.117,136.649 121.167 C 136.457 121.218,136.300 121.384,136.300 121.537 C 136.300 121.690,136.182 121.815,136.038 121.815 C 135.893 121.815,135.777 121.970,135.777 122.164 C 135.777 122.397,135.660 122.513,135.428 122.513 C 135.195 122.513,135.079 122.629,135.079 122.862 C 135.079 123.134,134.962 123.211,134.549 123.211 C 134.177 123.211,133.839 123.392,133.409 123.822 C 133.073 124.158,132.689 124.433,132.556 124.433 C 132.123 124.433,131.763 124.639,131.763 124.888 C 131.763 125.021,131.606 125.131,131.414 125.131 C 131.181 125.131,131.065 125.247,131.065 125.480 C 131.065 125.783,130.948 125.829,130.176 125.829 C 129.433 125.829,129.272 125.887,129.195 126.178 C 129.124 126.451,128.957 126.527,128.426 126.527 C 127.940 126.527,127.749 126.601,127.749 126.789 C 127.749 127.002,127.456 127.051,126.162 127.051 C 124.721 127.051,124.566 127.083,124.483 127.400 C 124.397 127.729,124.245 127.749,121.728 127.749 C 119.210 127.749,119.058 127.729,118.972 127.400 C 118.892 127.093,118.734 127.051,117.662 127.051 C 116.739 127.051,116.418 126.987,116.342 126.789 C 116.270 126.601,115.975 126.527,115.296 126.527 C 114.498 126.527,114.337 126.473,114.260 126.178 C 114.196 125.932,114.022 125.829,113.671 125.829 C 113.362 125.829,113.090 125.696,112.955 125.480 C 112.816 125.257,112.548 125.131,112.215 125.131 C 111.885 125.131,111.693 125.041,111.693 124.888 C 111.693 124.621,111.326 124.433,110.806 124.433 C 110.622 124.433,110.471 124.313,110.471 124.166 C 110.471 124.019,110.334 123.848,110.166 123.786 C 109.998 123.724,109.798 123.570,109.721 123.442 C 109.644 123.315,109.477 123.211,109.349 123.211 C 109.220 123.211,109.075 123.054,109.024 122.862 C 108.958 122.608,108.786 122.513,108.393 122.513 C 107.970 122.513,107.853 122.438,107.853 122.164 C 107.853 121.931,107.737 121.815,107.504 121.815 C 107.272 121.815,107.155 121.699,107.155 121.466 C 107.155 121.233,107.039 121.117,106.806 121.117 C 106.532 121.117,106.457 121.001,106.457 120.577 C 106.457 120.184,106.362 120.012,106.108 119.946 C 105.915 119.895,105.759 119.708,105.759 119.526 C 105.759 119.314,105.636 119.197,105.410 119.197 C 105.177 119.197,105.061 119.081,105.061 118.848 C 105.061 118.656,104.952 118.499,104.819 118.499 C 104.680 118.499,104.527 118.238,104.462 117.888 C 104.393 117.523,104.245 117.277,104.093 117.277 C 103.954 117.277,103.839 117.120,103.839 116.928 C 103.839 116.696,103.723 116.579,103.490 116.579 C 103.200 116.579,103.141 116.463,103.141 115.881 C 103.141 115.300,103.083 115.183,102.792 115.183 C 102.486 115.183,102.443 115.067,102.443 114.223 C 102.443 113.380,102.401 113.264,102.094 113.264 C 101.784 113.264,101.745 113.147,101.745 112.216 C 101.745 111.402,101.687 111.169,101.483 111.169 C 101.273 111.169,101.222 110.900,101.222 109.795 C 101.222 108.103,101.078 107.330,100.764 107.330 C 100.321 107.330,100.424 102.066,100.873 101.786 C 101.180 101.594,101.222 101.379,101.222 99.999 C 101.222 98.720,101.270 98.429,101.483 98.429 C 101.693 98.429,101.745 98.168,101.745 97.120 C 101.745 95.928,101.776 95.812,102.094 95.812 C 102.375 95.812,102.443 95.695,102.443 95.221 C 102.443 94.777,102.530 94.608,102.792 94.539 C 103.057 94.470,103.141 94.301,103.141 93.841 C 103.141 93.381,103.226 93.212,103.490 93.143 C 103.725 93.082,103.839 92.905,103.839 92.605 C 103.839 92.327,104.070 91.927,104.450 91.547 C 104.880 91.118,105.061 90.780,105.061 90.407 C 105.061 89.994,105.138 89.878,105.410 89.878 C 105.643 89.878,105.759 89.761,105.759 89.529 C 105.759 89.296,105.876 89.180,106.108 89.180 C 106.300 89.180,106.457 89.091,106.457 88.982 C 106.457 88.874,106.732 88.525,107.068 88.209 C 107.404 87.892,107.679 87.549,107.679 87.446 C 107.679 87.344,107.836 87.260,108.028 87.260 C 108.261 87.260,108.377 87.144,108.377 86.911 C 108.377 86.678,108.493 86.562,108.726 86.562 C 108.959 86.562,109.075 86.446,109.075 86.213 C 109.075 85.980,109.191 85.864,109.424 85.864 C 109.616 85.864,109.773 85.755,109.773 85.622 C 109.773 85.483,110.034 85.330,110.384 85.265 C 110.750 85.196,110.995 85.048,110.995 84.896 C 110.995 84.756,111.152 84.642,111.344 84.642 C 111.576 84.642,111.693 84.526,111.693 84.293 C 111.693 84.002,111.809 83.944,112.391 83.944 C 112.973 83.944,113.089 83.886,113.089 83.595 C 113.089 83.292,113.205 83.246,113.978 83.246 C 114.720 83.246,114.882 83.188,114.958 82.897 C 115.036 82.598,115.196 82.548,116.076 82.548 C 116.873 82.548,117.103 82.489,117.103 82.286 C 117.103 82.060,117.741 82.024,121.796 82.024 C 125.807 82.024,126.504 82.062,126.590 82.286 M291.623 82.286 C 291.623 82.487,291.846 82.548,292.583 82.548 C 293.426 82.548,293.543 82.590,293.543 82.897 C 293.543 83.186,293.659 83.246,294.220 83.246 C 294.751 83.246,294.918 83.322,294.989 83.595 C 295.056 83.848,295.228 83.944,295.615 83.944 C 295.970 83.944,296.211 84.061,296.335 84.293 C 296.455 84.517,296.700 84.642,297.019 84.642 C 297.369 84.642,297.543 84.745,297.607 84.991 C 297.657 85.183,297.824 85.340,297.977 85.340 C 298.130 85.340,298.255 85.458,298.255 85.602 C 298.255 85.746,298.403 85.864,298.583 85.864 C 298.765 85.864,298.953 86.020,299.003 86.213 C 299.070 86.467,299.241 86.562,299.635 86.562 C 300.058 86.562,300.175 86.637,300.175 86.911 C 300.175 87.144,300.291 87.260,300.524 87.260 C 300.756 87.260,300.873 87.376,300.873 87.609 C 300.873 87.842,300.989 87.958,301.222 87.958 C 301.454 87.958,301.571 88.074,301.571 88.307 C 301.571 88.540,301.687 88.656,301.920 88.656 C 302.192 88.656,302.269 88.773,302.269 89.185 C 302.269 89.488,302.378 89.756,302.524 89.812 C 302.664 89.866,302.827 90.060,302.885 90.243 C 302.943 90.426,303.103 90.576,303.240 90.576 C 303.378 90.576,303.490 90.733,303.490 90.925 C 303.490 91.158,303.607 91.274,303.839 91.274 C 304.122 91.274,304.188 91.390,304.188 91.885 C 304.188 92.379,304.255 92.496,304.538 92.496 C 304.822 92.496,304.887 92.612,304.887 93.123 C 304.887 93.603,304.968 93.771,305.236 93.841 C 305.495 93.909,305.585 94.079,305.585 94.504 C 305.585 94.825,305.689 95.116,305.822 95.167 C 305.955 95.218,306.101 95.624,306.153 96.091 C 306.206 96.562,306.369 97.014,306.527 97.129 C 306.720 97.271,306.806 97.609,306.806 98.230 C 306.806 99.011,306.852 99.127,307.155 99.127 C 307.497 99.127,307.504 99.244,307.504 104.538 C 307.504 109.831,307.497 109.948,307.155 109.948 C 306.852 109.948,306.806 110.064,306.806 110.845 C 306.806 111.466,306.720 111.804,306.527 111.946 C 306.369 112.061,306.206 112.513,306.153 112.984 C 306.101 113.451,305.955 113.857,305.822 113.908 C 305.686 113.960,305.585 114.253,305.585 114.591 C 305.585 114.981,305.502 115.183,305.342 115.183 C 305.060 115.183,304.887 115.555,304.887 116.157 C 304.887 116.463,304.790 116.579,304.538 116.579 C 304.257 116.579,304.188 116.696,304.188 117.170 C 304.188 117.614,304.102 117.783,303.839 117.852 C 303.647 117.902,303.490 118.060,303.490 118.202 C 303.490 118.345,303.377 118.505,303.238 118.559 C 303.100 118.612,302.934 118.934,302.870 119.275 C 302.803 119.632,302.651 119.895,302.511 119.895 C 302.378 119.895,302.269 120.004,302.269 120.137 C 302.269 120.269,302.112 120.419,301.920 120.469 C 301.728 120.520,301.571 120.686,301.571 120.839 C 301.571 121.001,301.425 121.117,301.222 121.117 C 300.989 121.117,300.873 121.233,300.873 121.466 C 300.873 121.699,300.756 121.815,300.524 121.815 C 300.291 121.815,300.175 121.931,300.175 122.164 C 300.175 122.397,300.058 122.513,299.825 122.513 C 299.593 122.513,299.476 122.629,299.476 122.862 C 299.476 123.056,299.360 123.211,299.215 123.211 C 299.071 123.211,298.953 123.319,298.953 123.451 C 298.953 123.595,298.676 123.734,298.255 123.802 C 297.803 123.874,297.557 124.005,297.557 124.173 C 297.557 124.316,297.400 124.433,297.208 124.433 C 296.975 124.433,296.859 124.549,296.859 124.782 C 296.859 125.064,296.742 125.131,296.248 125.131 C 295.753 125.131,295.637 125.197,295.637 125.480 C 295.637 125.771,295.521 125.829,294.939 125.829 C 294.357 125.829,294.241 125.887,294.241 126.178 C 294.241 126.485,294.124 126.527,293.281 126.527 C 292.544 126.527,292.321 126.588,292.321 126.789 C 292.321 127.002,292.028 127.051,290.734 127.051 C 289.294 127.051,289.139 127.083,289.056 127.400 C 288.939 127.848,284.119 127.954,284.119 127.509 C 284.119 127.214,283.361 127.051,281.997 127.051 C 281.242 127.051,280.940 126.981,280.866 126.789 C 280.794 126.601,280.500 126.527,279.824 126.527 C 278.999 126.527,278.883 126.484,278.883 126.178 C 278.883 125.889,278.767 125.829,278.205 125.829 C 277.674 125.829,277.508 125.753,277.436 125.480 C 277.371 125.229,277.198 125.131,276.826 125.131 C 276.453 125.131,276.280 125.032,276.215 124.782 C 276.148 124.528,275.977 124.433,275.584 124.433 C 275.215 124.433,275.044 124.348,275.044 124.166 C 275.044 124.019,274.906 123.848,274.738 123.786 C 274.570 123.724,274.370 123.570,274.293 123.442 C 274.216 123.315,274.045 123.211,273.912 123.211 C 273.780 123.211,273.621 123.054,273.560 122.862 C 273.499 122.670,273.380 122.513,273.295 122.513 C 273.093 122.513,272.251 121.671,272.251 121.470 C 272.251 121.385,272.094 121.265,271.902 121.204 C 271.710 121.143,271.553 120.981,271.553 120.843 C 271.553 120.706,271.441 120.593,271.303 120.593 C 271.166 120.593,271.003 120.436,270.942 120.244 C 270.881 120.052,270.719 119.895,270.582 119.895 C 270.444 119.895,270.332 119.738,270.332 119.546 C 270.332 119.314,270.215 119.197,269.983 119.197 C 269.750 119.197,269.634 119.081,269.634 118.848 C 269.634 118.615,269.517 118.499,269.284 118.499 C 269.001 118.499,268.935 118.383,268.935 117.883 C 268.935 117.508,268.837 117.229,268.684 117.170 C 268.546 117.117,268.382 116.839,268.319 116.553 C 268.256 116.267,268.094 115.990,267.959 115.938 C 267.824 115.886,267.714 115.656,267.714 115.426 C 267.714 115.197,267.557 114.852,267.365 114.660 C 267.171 114.466,267.016 114.078,267.016 113.787 C 267.016 113.380,266.938 113.264,266.667 113.264 C 266.349 113.264,266.318 113.147,266.318 111.975 C 266.318 110.833,266.278 110.676,265.969 110.595 C 265.643 110.510,265.620 110.357,265.620 108.301 C 265.620 106.503,265.571 106.079,265.358 105.997 C 265.156 105.919,265.096 105.582,265.096 104.519 C 265.096 103.411,265.147 103.141,265.358 103.141 C 265.577 103.141,265.620 102.775,265.620 100.893 C 265.620 98.791,265.642 98.639,265.969 98.553 C 266.264 98.476,266.318 98.315,266.318 97.506 C 266.318 96.697,266.371 96.536,266.667 96.459 C 266.957 96.383,267.016 96.221,267.016 95.499 C 267.016 94.777,267.075 94.615,267.365 94.539 C 267.629 94.470,267.714 94.301,267.714 93.841 C 267.714 93.381,267.798 93.212,268.063 93.143 C 268.317 93.077,268.412 92.905,268.412 92.512 C 268.412 92.148,268.497 91.972,268.674 91.972 C 268.818 91.972,268.935 91.818,268.935 91.629 C 268.935 91.441,269.092 91.202,269.284 91.099 C 269.513 90.977,269.634 90.734,269.634 90.395 C 269.634 89.994,269.712 89.878,269.983 89.878 C 270.215 89.878,270.332 89.761,270.332 89.529 C 270.332 89.337,270.430 89.180,270.551 89.180 C 270.672 89.180,271.023 88.905,271.331 88.569 C 271.639 88.233,271.972 87.958,272.071 87.958 C 272.170 87.958,272.251 87.801,272.251 87.609 C 272.251 87.376,272.368 87.260,272.600 87.260 C 272.833 87.260,272.949 87.144,272.949 86.911 C 272.949 86.678,273.066 86.562,273.298 86.562 C 273.531 86.562,273.647 86.446,273.647 86.213 C 273.647 85.980,273.764 85.864,273.997 85.864 C 274.188 85.864,274.346 85.755,274.346 85.622 C 274.346 85.483,274.607 85.330,274.956 85.265 C 275.322 85.196,275.567 85.048,275.567 84.896 C 275.567 84.743,275.737 84.642,275.997 84.642 C 276.233 84.642,276.567 84.498,276.738 84.321 C 276.910 84.145,277.188 83.951,277.356 83.890 C 277.524 83.830,277.661 83.660,277.661 83.513 C 277.661 83.308,277.868 83.246,278.550 83.246 C 279.293 83.246,279.454 83.188,279.531 82.897 C 279.608 82.602,279.769 82.548,280.567 82.548 C 281.246 82.548,281.540 82.474,281.612 82.286 C 281.698 82.062,282.424 82.024,286.668 82.024 C 290.956 82.024,291.623 82.060,291.623 82.286 M179.632 82.897 C 179.714 83.212,179.870 83.246,181.223 83.246 C 182.453 83.246,182.723 83.294,182.723 83.513 C 182.723 83.660,182.860 83.830,183.028 83.890 C 183.196 83.951,183.474 84.145,183.646 84.321 C 183.817 84.498,184.151 84.642,184.387 84.642 C 184.664 84.642,184.817 84.741,184.817 84.920 C 184.817 85.073,184.974 85.240,185.166 85.290 C 185.358 85.340,185.515 85.490,185.515 85.622 C 185.515 85.755,185.633 85.864,185.777 85.864 C 185.961 85.864,186.038 86.050,186.038 86.491 C 186.038 86.971,186.120 87.140,186.387 87.209 C 186.682 87.286,186.736 87.448,186.736 88.240 C 186.736 89.063,186.780 89.180,187.086 89.180 C 187.411 89.180,187.435 89.296,187.435 90.925 C 187.435 92.554,187.411 92.670,187.086 92.670 C 186.779 92.670,186.736 92.787,186.736 93.630 C 186.736 94.392,186.679 94.590,186.458 94.590 C 186.305 94.590,186.141 94.742,186.092 94.927 C 186.044 95.112,185.894 95.306,185.759 95.358 C 185.624 95.410,185.515 95.688,185.515 95.981 C 185.515 96.393,185.438 96.510,185.166 96.510 C 184.940 96.510,184.817 96.626,184.817 96.839 C 184.817 97.078,184.648 97.200,184.206 97.283 C 183.870 97.346,183.595 97.475,183.595 97.569 C 183.595 97.663,183.399 97.815,183.159 97.906 C 182.919 97.997,182.723 98.191,182.723 98.338 C 182.723 98.556,182.450 98.604,181.223 98.604 C 179.870 98.604,179.714 98.638,179.632 98.953 C 179.544 99.287,179.394 99.302,176.158 99.302 L 172.775 99.302 172.775 90.925 L 172.775 82.548 176.158 82.548 C 179.394 82.548,179.544 82.563,179.632 82.897 " stroke="none" fill="#0c64ac" fill-rule="evenodd"></path><path id="path1" d="M159.295 12.478 L 159.250 24.956 238.569 24.954 C 282.195 24.953,318.065 24.904,318.281 24.846 L 318.674 24.741 318.674 12.371 L 318.674 0.000 239.008 0.000 L 159.341 0.000 159.295 12.478 " stroke="none" fill="#e3343c" fill-rule="evenodd"></path></g></svg>