<?xml version="1.0" encoding="UTF-8" standalone="no"?>
<svg
   xmlns:dc="http://purl.org/dc/elements/1.1/"
   xmlns:cc="http://creativecommons.org/ns#"
   xmlns:rdf="http://www.w3.org/1999/02/22-rdf-syntax-ns#"
   xmlns:svg="http://www.w3.org/2000/svg"
   xmlns="http://www.w3.org/2000/svg"
   xmlns:sodipodi="http://sodipodi.sourceforge.net/DTD/sodipodi-0.dtd"
   xmlns:inkscape="http://www.inkscape.org/namespaces/inkscape"
   id="svg"
   version="1.1"
   width="400"
   height="396.17224880382776"
   style="display: block;"
   sodipodi:docname="image2vector (1).svg"
   inkscape:version="0.92.2 (5c3e80d, 2017-08-06)">
  <metadata
     id="metadata11">
    <rdf:RDF>
      <cc:Work
         rdf:about="">
        <dc:format>image/svg+xml</dc:format>
        <dc:type
           rdf:resource="http://purl.org/dc/dcmitype/StillImage" />
      </cc:Work>
    </rdf:RDF>
  </metadata>
  <defs
     id="defs9" />
  <sodipodi:namedview
     pagecolor="#ffffff"
     bordercolor="#666666"
     borderopacity="1"
     objecttolerance="10"
     gridtolerance="10"
     guidetolerance="10"
     inkscape:pageopacity="0"
     inkscape:pageshadow="2"
     inkscape:window-width="1366"
     inkscape:window-height="745"
     id="namedview7"
     showgrid="false"
     inkscape:zoom="0.59570049"
     inkscape:cx="200"
     inkscape:cy="198.08612"
     inkscape:window-x="1358"
     inkscape:window-y="-8"
     inkscape:window-maximized="1"
     inkscape:current-layer="svg" />
  <g
     id="svgg"
     transform="translate(1.6786959,0.6426081)">
    <path
       id="path0"
       d="M 0,198.216 V 396.432 H 200 400 V 198.216 0 H 200 0 V 198.216 M 210.902,4.352 c 3.816,0.168 8.186,0.504 9.712,0.747 1.527,0.243 4.203,0.637 5.947,0.874 6.086,0.829 14.808,2.584 22.398,4.507 1.2,0.303 2.984,0.755 3.965,1.003 2.331,0.589 14.743,4.751 15.26,5.116 0.219,0.155 1.112,0.518 1.984,0.807 0.873,0.289 2.211,0.79 2.974,1.114 0.763,0.324 1.744,0.74 2.18,0.924 3.144,1.326 5.45,2.397 10.307,4.785 3.053,1.502 6.264,3.133 7.136,3.626 5.224,2.951 6.683,3.829 9.825,5.912 1.915,1.27 3.551,2.308 3.636,2.308 0.085,0 1.303,0.771 2.706,1.712 2.204,1.478 3.283,2.247 5.241,3.735 0.218,0.166 1.11,0.827 1.982,1.47 0.872,0.643 1.675,1.268 1.784,1.39 0.109,0.121 0.911,0.742 1.783,1.38 0.873,0.637 2.311,1.795 3.196,2.574 0.886,0.779 2.581,2.212 3.766,3.184 5.463,4.478 20.2,19.867 24.313,25.388 0.894,1.199 1.736,2.269 1.871,2.378 0.393,0.316 9.075,12.623 9.075,12.863 0,0.12 0.624,1.087 1.387,2.149 0.763,1.062 1.388,2.053 1.388,2.201 0,0.147 0.624,1.245 1.387,2.438 0.763,1.193 1.388,2.251 1.388,2.352 0,0.101 0.671,1.302 1.492,2.668 1.482,2.469 4.624,8.684 6.638,13.135 1.698,3.752 3.763,8.726 3.763,9.065 0,0.172 0.348,1.07 0.774,1.994 0.427,0.924 1.679,4.446 2.783,7.825 2.147,6.572 2.351,7.233 3.362,10.902 0.361,1.308 0.82,2.914 1.02,3.568 1.243,4.062 3.607,17.3 4.353,24.381 0.219,2.071 0.554,4.925 0.745,6.342 0.471,3.494 0.501,28.453 0.039,31.913 -0.204,1.527 -0.548,4.559 -0.764,6.74 -0.216,2.18 -0.586,5.034 -0.823,6.343 -0.236,1.308 -0.584,3.359 -0.774,4.558 -0.19,1.2 -0.905,4.678 -1.589,7.731 -0.684,3.052 -1.402,6.264 -1.596,7.136 -0.194,0.872 -0.721,2.745 -1.172,4.162 -0.451,1.417 -1.019,3.291 -1.262,4.163 -0.657,2.356 -1.557,5.072 -1.91,5.761 -0.171,0.334 -0.445,1.22 -0.61,1.969 -0.164,0.749 -0.433,1.635 -0.596,1.969 -0.696,1.42 -1.69,3.867 -2.253,5.545 -0.333,0.991 -0.967,2.605 -1.408,3.586 -0.442,0.981 -1.326,2.944 -1.965,4.361 -1.823,4.045 -6.011,12.185 -8.271,16.077 -1.133,1.95 -2.411,4.171 -2.839,4.934 -1.076,1.917 -5.854,9.141 -6.687,10.109 -0.375,0.436 -1.011,1.349 -1.414,2.028 -1.08,1.826 -7.615,10.386 -8.202,10.745 -0.278,0.17 -0.789,0.725 -1.136,1.233 -6.103,8.945 -32.348,31.757 -44.119,38.348 -0.436,0.244 -2.487,1.514 -4.559,2.822 -3.636,2.296 -4.648,2.852 -11.1,6.099 -4.302,2.165 -10.047,4.78 -13.875,6.316 -2.773,1.113 -3.45,1.395 -5.153,2.14 -2.237,0.98 -12.241,4.247 -15.334,5.008 -1.566,0.385 -3.026,0.811 -3.244,0.946 -0.219,0.135 -1.258,0.431 -2.308,0.658 -1.82,0.393 -3.034,0.66 -7.063,1.556 -3.733,0.829 -5.65,1.178 -8.721,1.588 -1.745,0.233 -3.975,0.597 -4.956,0.81 -10.267,2.229 -42.001,2.343 -52.329,0.187 -1.417,-0.295 -3.558,-0.639 -4.757,-0.762 -1.953,-0.202 -9.861,-1.726 -13.479,-2.598 -0.763,-0.184 -2.329,-0.527 -3.479,-0.763 -1.151,-0.235 -2.4,-0.586 -2.775,-0.78 -0.376,-0.194 -1.664,-0.57 -2.864,-0.837 -2.127,-0.472 -4.947,-1.345 -6.541,-2.024 -0.436,-0.186 -1.595,-0.54 -2.577,-0.787 -0.981,-0.246 -2.319,-0.676 -2.973,-0.953 -1.037,-0.441 -2.307,-0.946 -5.55,-2.206 -2.312,-0.898 -5.358,-2.156 -6.937,-2.865 -5.834,-2.619 -7.148,-3.227 -9.118,-4.222 -10.491,-5.294 -29.101,-17.072 -31.319,-19.821 -0.109,-0.135 -0.911,-0.774 -1.783,-1.419 -7.675,-5.683 -20.895,-18.457 -27.751,-26.813 -0.436,-0.531 -1.694,-2.033 -2.795,-3.336 -1.102,-1.303 -2.705,-3.351 -3.562,-4.55 -0.858,-1.199 -1.694,-2.359 -1.858,-2.577 -2.378,-3.163 -9.03,-13.012 -9.03,-13.372 0,-0.095 -1.267,-2.388 -2.817,-5.095 -2.507,-4.381 -6.984,-13.262 -9.475,-18.797 -2.6,-5.779 -7.926,-20.744 -7.926,-22.273 0,-0.418 -0.153,-0.929 -0.341,-1.137 -0.329,-0.362 -0.951,-2.415 -1.616,-5.332 -3.81,-16.707 -4.493,-20.966 -5.595,-34.886 -0.521,-6.581 -0.286,-27.59 0.357,-31.912 0.227,-1.527 0.613,-4.559 0.858,-6.74 0.245,-2.18 0.694,-5.213 0.998,-6.739 0.304,-1.526 0.843,-4.291 1.198,-6.145 0.906,-4.726 2.053,-9.537 3.214,-13.478 1.507,-5.116 4.213,-13.602 4.55,-14.272 0.165,-0.327 0.764,-1.843 1.332,-3.37 0.569,-1.526 1.189,-3.131 1.378,-3.568 0.19,-0.436 1.259,-2.933 2.377,-5.55 1.871,-4.379 2.634,-6.014 4.139,-8.863 0.304,-0.576 1.061,-2.073 1.682,-3.326 0.621,-1.253 1.262,-2.279 1.426,-2.279 0.163,-0.001 0.302,-0.224 0.308,-0.497 0.009,-0.397 4.661,-8.495 6.32,-11.001 11.834,-17.874 25.7,-33.376 40.25,-44.999 2.18,-1.742 4.053,-3.268 4.162,-3.391 1.118,-1.26 20.019,-13.753 24.183,-15.983 3.584,-1.92 14.112,-7.087 16.254,-7.977 1.417,-0.59 3.29,-1.382 4.162,-1.761 0.872,-0.379 2.21,-0.917 2.973,-1.195 0.763,-0.278 1.923,-0.736 2.577,-1.018 3.165,-1.366 18.683,-6.134 19.961,-6.134 0.474,0 1.172,-0.178 1.551,-0.395 0.379,-0.217 2.472,-0.77 4.653,-1.228 2.18,-0.458 4.767,-1.001 5.748,-1.206 13.422,-2.809 29.533,-3.885 46.779,-3.126 M 188.107,16.05 c -0.218,0.095 -2.626,0.367 -5.352,0.606 -8.489,0.744 -14.035,1.561 -20.02,2.951 -1.308,0.304 -3.716,0.839 -5.351,1.19 -1.636,0.35 -3.509,0.785 -4.163,0.966 -2.257,0.623 -5.949,1.738 -6.739,2.035 -0.436,0.164 -1.685,0.574 -2.775,0.911 -4.087,1.263 -9.358,3.211 -12.944,4.785 -0.796,0.349 -1.55,0.635 -1.675,0.635 -1.123,0 -17.014,8.081 -21.563,10.965 -1.149,0.728 -2.25,1.324 -2.445,1.324 -0.196,0 -0.415,0.14 -0.488,0.311 -0.073,0.17 -1.381,1.09 -2.907,2.043 -2.887,1.802 -10.556,7.12 -10.902,7.559 -0.109,0.138 -1.269,1.033 -2.577,1.988 -1.308,0.955 -2.571,1.924 -2.807,2.153 -0.236,0.229 -1.914,1.665 -3.729,3.191 -4.604,3.871 -15.558,14.828 -18.627,18.632 -1.407,1.745 -2.667,3.261 -2.799,3.37 -2.142,1.766 -14.345,19.38 -17.44,25.173 -0.932,1.745 -1.829,3.35 -1.992,3.568 -0.685,0.913 -5.201,10.235 -6.914,14.272 -1.018,2.398 -2.086,4.896 -2.375,5.55 -4.335,9.828 -9.753,30.64 -11.352,43.607 -2.521,20.447 -1.336,46.769 2.83,62.835 0.518,1.998 1.594,6.311 1.978,7.929 0.687,2.893 3.605,12.188 4.542,14.469 0.269,0.654 0.712,1.814 0.985,2.577 0.573,1.603 0.797,2.145 2.177,5.265 0.558,1.26 1.014,2.362 1.014,2.448 0,0.704 6.902,14.694 8.492,17.213 0.562,0.891 1.022,1.714 1.022,1.83 0,0.366 6.792,10.981 8.88,13.878 1.982,2.751 5.778,7.746 6.176,8.127 0.114,0.109 0.917,1.091 1.784,2.181 0.868,1.09 1.796,2.209 2.063,2.487 0.267,0.278 1.163,1.349 1.99,2.379 2.025,2.52 13.697,14.186 16.164,16.156 1.085,0.866 2.422,2.022 2.973,2.568 0.55,0.547 2.963,2.502 5.362,4.345 2.398,1.843 4.45,3.447 4.559,3.565 1.876,2.03 18.84,12.168 27.353,16.346 7.426,3.644 20.627,9.042 22.115,9.042 0.271,0 0.803,0.163 1.181,0.363 0.379,0.2 1.759,0.675 3.067,1.055 1.308,0.38 2.646,0.825 2.973,0.988 1.444,0.72 9.407,2.462 21.606,4.726 7.598,1.409 15.989,1.988 28.7,1.977 16.678,-0.015 21.816,-0.56 40.676,-4.317 2.536,-0.505 8.666,-2.081 9.316,-2.395 0.327,-0.158 1.665,-0.608 2.973,-1.001 11.665,-3.497 24.939,-9.168 35.016,-14.96 1.816,-1.043 3.363,-1.897 3.438,-1.897 0.468,0 14.679,-9.26 15.262,-9.946 0.109,-0.128 1.019,-0.841 2.022,-1.585 4.328,-3.213 6.615,-5.021 8.286,-6.552 0.981,-0.899 2.497,-2.225 3.369,-2.947 1.671,-1.383 13.705,-13.421 15.068,-15.072 0.438,-0.531 2.097,-2.526 3.687,-4.434 4.85,-5.819 14.744,-19.474 14.744,-20.347 0,-0.084 0.615,-1.115 1.368,-2.291 2.321,-3.629 10.128,-18.629 10.128,-19.46 0,-0.111 0.556,-1.409 1.236,-2.886 3.037,-6.604 6.365,-16.221 8.27,-23.895 0.189,-0.764 0.808,-3.172 1.374,-5.352 4.868,-18.745 6.111,-42.728 3.41,-65.808 -0.204,-1.744 -0.463,-3.617 -0.575,-4.162 -0.112,-0.546 -0.489,-2.686 -0.837,-4.758 -0.349,-2.071 -0.883,-4.747 -1.187,-5.946 -0.305,-1.199 -0.817,-3.251 -1.139,-4.559 -1.293,-5.258 -2.883,-10.967 -3.422,-12.29 -0.178,-0.436 -0.63,-1.774 -1.005,-2.973 -0.376,-1.199 -0.816,-2.537 -0.978,-2.973 -0.589,-1.584 -1.698,-4.388 -2.196,-5.55 -0.28,-0.654 -1.342,-3.152 -2.36,-5.55 -3.779,-8.902 -8.233,-17.321 -13.13,-24.815 -1.482,-2.269 -2.911,-4.522 -3.176,-5.008 -0.908,-1.663 -10.251,-13.852 -11.63,-15.172 -0.113,-0.109 -1.183,-1.358 -2.377,-2.775 -3.146,-3.736 -13.102,-13.561 -17.465,-17.235 -2.065,-1.738 -3.843,-3.264 -3.952,-3.39 -0.109,-0.126 -0.912,-0.753 -1.784,-1.392 -0.872,-0.639 -2.389,-1.812 -3.37,-2.607 -2.266,-1.837 -13.004,-9.073 -13.463,-9.073 -0.19,0 -0.405,-0.137 -0.478,-0.305 -0.507,-1.168 -23.698,-13.174 -25.448,-13.174 -0.271,0 -0.661,-0.152 -0.869,-0.338 -0.422,-0.38 -6.747,-2.781 -10.089,-3.83 -1.199,-0.377 -2.49,-0.841 -2.869,-1.033 -0.378,-0.192 -0.96,-0.349 -1.293,-0.349 -0.333,0 -0.916,-0.156 -1.294,-0.347 -0.618,-0.311 -3.373,-1.172 -6.635,-2.072 -6.995,-1.93 -18.716,-4.031 -28.741,-5.152 -3.456,-0.386 -29.218,-0.869 -29.931,-0.561 M 42.815,161.172 c 1.199,0.506 4.41,1.742 7.135,2.748 2.726,1.006 6.953,2.627 9.394,3.602 4.036,1.612 6.834,2.665 17.795,6.694 1.98,0.728 4.477,1.684 5.55,2.125 1.072,0.44 6.588,2.529 12.256,4.642 5.669,2.113 13.519,5.048 17.444,6.522 12.172,4.572 21.913,7.539 36.273,11.048 8.016,1.959 20.336,4.334 26.957,5.196 1.854,0.241 5.065,0.701 7.136,1.022 12.961,2.007 45.069,2.743 60.654,1.389 7.464,-0.649 19.367,-1.974 21.606,-2.406 1.09,-0.211 4.123,-0.735 6.739,-1.166 10.618,-1.747 23.994,-4.832 29.534,-6.81 1.854,-0.662 4.44,-1.521 5.749,-1.908 5.449,-1.613 14.358,-4.487 15.52,-5.006 0.687,-0.307 1.448,-0.559 1.691,-0.559 0.242,0 0.75,-0.163 1.129,-0.363 0.854,-0.45 3.018,-1.341 4.851,-1.996 3.139,-1.122 6.214,-2.382 9.404,-3.853 1.575,-0.726 2.959,-1.32 3.077,-1.32 0.735,0 19.013,-8.944 22.399,-10.961 2.671,-1.592 3.574,-1.416 3.574,0.697 0,0.624 0.173,1.895 0.384,2.825 1.45,6.384 2.081,22.195 1.349,33.802 -0.621,9.841 -0.64,10.009 -2.478,21.407 -0.423,2.62 -1.108,5.983 -1.655,8.127 -0.925,3.626 -1.682,6.206 -2.004,6.833 -0.194,0.379 -0.353,1.039 -0.353,1.468 0,0.429 -0.164,1.189 -0.365,1.69 -0.2,0.501 -0.653,1.892 -1.006,3.091 -0.353,1.199 -0.792,2.537 -0.976,2.973 -0.184,0.437 -0.817,2.131 -1.407,3.767 -2.064,5.722 -2.868,7.554 -7.487,17.046 -1.432,2.944 -3.175,6.333 -3.873,7.532 -0.697,1.2 -1.658,2.894 -2.133,3.766 -2.095,3.841 -11.224,16.861 -14.593,20.813 -0.651,0.763 -2.093,2.45 -3.205,3.747 -2.259,2.637 -13.936,14.427 -16.117,16.273 -0.772,0.654 -2.188,1.814 -3.145,2.577 -0.957,0.763 -2.554,2.06 -3.548,2.883 -0.995,0.823 -1.987,1.627 -2.205,1.787 -0.218,0.161 -1.734,1.267 -3.369,2.459 -1.636,1.192 -3.063,2.271 -3.172,2.398 -0.278,0.324 -9.427,6.076 -11.538,7.254 -0.958,0.534 -2.724,1.527 -3.923,2.206 -2.745,1.553 -12.593,6.384 -13.015,6.384 -0.173,0 -1.017,0.334 -1.876,0.741 -3.613,1.715 -9.344,4.019 -9.99,4.018 -0.276,-10e-4 -0.811,0.171 -1.19,0.381 -0.641,0.357 -5.556,1.881 -11.59,3.595 -4.638,1.317 -9.276,2.438 -11.496,2.78 -1.2,0.185 -3.429,0.621 -4.956,0.97 -11.49,2.623 -43.085,2.633 -55.302,0.017 -1.635,-0.35 -3.954,-0.788 -5.154,-0.974 -1.199,-0.186 -3.875,-0.792 -5.946,-1.347 -2.071,-0.555 -5.193,-1.389 -6.938,-1.853 -3.867,-1.028 -9.266,-2.729 -10.202,-3.214 -0.379,-0.196 -0.961,-0.356 -1.294,-0.356 -0.333,0 -0.915,-0.173 -1.294,-0.384 -0.379,-0.212 -2.562,-1.127 -4.851,-2.034 -2.289,-0.908 -4.332,-1.805 -4.539,-1.995 -0.207,-0.189 -0.605,-0.345 -0.885,-0.345 -0.572,0 -9.861,-4.49 -13.208,-6.384 -1.199,-0.679 -2.974,-1.677 -3.944,-2.218 C 94.94,334.273 73.782,314.837 60.487,295.68 c -1.869,-2.693 -3.578,-5.113 -3.796,-5.376 -0.219,-0.263 -0.398,-0.561 -0.398,-0.662 0,-0.101 -0.892,-1.622 -1.982,-3.38 -1.09,-1.757 -1.982,-3.284 -1.982,-3.393 0,-0.109 -0.588,-1.138 -1.307,-2.286 -1.287,-2.056 -4.731,-8.922 -6.816,-13.586 -0.585,-1.308 -1.312,-2.914 -1.617,-3.568 -0.859,-1.848 -3.342,-8.28 -3.342,-8.659 0,-0.186 -0.246,-0.901 -0.547,-1.588 -0.764,-1.748 -2.625,-7.901 -2.625,-8.683 0,-0.355 -0.158,-0.745 -0.352,-0.864 -0.194,-0.12 -0.448,-0.8 -0.564,-1.51 -0.116,-0.711 -0.499,-2.274 -0.852,-3.473 -0.574,-1.954 -0.944,-3.694 -2.236,-10.505 -2.152,-11.349 -2.896,-21.772 -2.587,-36.274 0.127,-5.996 0.418,-11.526 0.645,-12.289 0.228,-0.763 0.678,-3.261 1.001,-5.55 0.323,-2.29 0.765,-5.055 0.983,-6.145 0.218,-1.09 0.674,-3.409 1.012,-5.154 0.339,-1.744 0.871,-3.563 1.184,-4.042 l 0.568,-0.872 2.879,1.216 c 1.583,0.668 3.859,1.629 5.059,2.135"
       inkscape:connector-curvature="0"
       style="fill:#ffffff;fill-rule:evenodd;stroke:none" />
    <path
       id="path1"
       d="m 189.693,5.217 c -9.311,0.422 -13.375,0.716 -14.074,1.018 -0.664,0.287 -5.825,1.172 -9.026,1.548 -1.148,0.135 -2.185,0.401 -2.303,0.592 -0.117,0.19 -1.085,0.347 -2.149,0.347 -1.065,0 -2.041,0.17 -2.169,0.378 -0.129,0.208 -1.303,0.499 -2.609,0.646 -1.307,0.148 -2.472,0.424 -2.589,0.613 -0.117,0.19 -0.905,0.345 -1.751,0.345 -0.847,0 -1.649,0.178 -1.784,0.396 -0.135,0.218 -0.66,0.397 -1.168,0.397 -0.507,0 -1.433,0.266 -2.057,0.592 -0.625,0.325 -1.616,0.593 -2.203,0.594 -0.586,0.002 -1.177,0.181 -1.311,0.399 -0.135,0.218 -0.726,0.402 -1.312,0.409 -0.587,0.007 -1.413,0.275 -1.837,0.595 -0.423,0.32 -1.094,0.582 -1.492,0.582 -0.397,0 -1.032,0.157 -1.41,0.349 -0.379,0.191 -1.67,0.663 -2.869,1.048 -1.199,0.386 -2.883,1.032 -3.742,1.436 -0.858,0.404 -1.801,0.735 -2.094,0.735 -0.293,0 -1.414,0.446 -2.489,0.991 -1.076,0.545 -2.308,0.991 -2.739,0.991 -0.43,0 -0.89,0.174 -1.021,0.386 -0.131,0.212 -0.9,0.682 -1.708,1.044 -3.616,1.621 -14.451,7.033 -15.645,7.815 -0.726,0.475 -2.026,1.221 -2.889,1.657 -0.862,0.436 -1.868,1.06 -2.235,1.387 -0.367,0.327 -1.348,0.947 -2.181,1.378 -0.832,0.43 -2.048,1.144 -2.702,1.586 -0.654,0.443 -1.486,0.982 -1.849,1.2 -2.047,1.226 -7.479,5.103 -8.078,5.765 -0.386,0.426 -0.92,0.775 -1.186,0.775 -0.267,0 -0.73,0.295 -1.029,0.656 -0.648,0.781 -7.859,6.592 -8.534,6.876 -1.105,0.467 -21.941,21.425 -21.941,22.07 0,0.208 -0.555,0.903 -1.234,1.543 -0.679,0.64 -1.652,1.816 -2.162,2.614 -0.51,0.797 -1.647,2.224 -2.527,3.171 -0.879,0.947 -1.601,1.914 -1.604,2.149 -0.003,0.234 -0.451,0.845 -0.996,1.357 -0.545,0.512 -0.991,1.167 -0.991,1.456 0,0.288 -0.624,1.215 -1.388,2.06 -0.763,0.845 -1.387,1.706 -1.387,1.914 0,0.208 -0.446,0.797 -0.991,1.31 -0.545,0.512 -0.991,1.175 -0.991,1.473 0,0.299 -0.446,1.024 -0.991,1.612 -0.545,0.588 -0.991,1.219 -0.991,1.402 0,0.184 -0.589,1.256 -1.308,2.383 -0.719,1.127 -1.727,2.852 -2.24,3.833 -0.514,0.981 -1.108,2.009 -1.322,2.284 -1.156,1.489 -8.609,16.469 -8.609,17.305 0,0.133 -0.378,1.087 -0.839,2.12 -1.401,3.137 -1.823,4.189 -2.346,5.843 -0.275,0.872 -0.92,2.45 -1.433,3.506 -0.513,1.055 -0.932,2.338 -0.932,2.85 0,0.512 -0.179,1.042 -0.397,1.176 -0.218,0.135 -0.396,0.571 -0.396,0.97 0,0.398 -0.266,1.235 -0.592,1.859 -0.326,0.625 -0.593,1.527 -0.595,2.004 -0.001,0.478 -0.181,0.979 -0.399,1.114 -0.218,0.135 -0.396,0.772 -0.396,1.416 0,0.644 -0.156,1.481 -0.347,1.86 -0.191,0.378 -0.65,1.759 -1.019,3.067 -0.369,1.308 -0.838,2.926 -1.04,3.596 -0.203,0.669 -0.369,1.673 -0.369,2.23 0,0.556 -0.268,1.77 -0.595,2.697 -0.327,0.927 -0.594,2.188 -0.594,2.802 0,0.613 -0.179,1.226 -0.397,1.361 -0.218,0.134 -0.396,1.275 -0.396,2.534 0,1.259 -0.134,2.421 -0.298,2.583 -0.379,0.376 -1.224,6.25 -1.744,12.127 -0.765,8.649 -0.412,41.572 0.458,42.619 0.19,0.229 0.469,1.839 0.621,3.577 0.151,1.738 0.413,3.339 0.581,3.557 0.168,0.218 0.396,1.466 0.506,2.775 0.212,2.521 0.703,5.054 1.421,7.331 0.24,0.762 0.437,1.955 0.437,2.653 0,0.697 0.178,1.377 0.396,1.512 0.218,0.135 0.397,0.913 0.397,1.728 0,0.816 0.152,1.653 0.339,1.86 0.509,0.565 1.643,4.349 1.643,5.482 0,0.546 0.178,1.103 0.396,1.237 0.218,0.135 0.397,0.52 0.397,0.856 0,0.336 0.24,1.173 0.533,1.86 0.719,1.683 1.449,3.974 1.449,4.549 0,0.259 0.446,1.394 0.991,2.524 0.545,1.13 0.991,2.268 0.991,2.53 0,0.261 0.267,0.986 0.592,1.61 0.326,0.625 0.594,1.448 0.595,1.83 10e-4,0.381 0.181,0.693 0.399,0.693 0.218,0 0.395,0.223 0.393,0.496 -0.008,1.2 6.508,15.18 8.916,19.128 0.664,1.09 1.562,2.696 1.995,3.568 0.433,0.872 1.545,2.78 2.472,4.24 0.926,1.46 1.685,2.829 1.685,3.042 0,0.213 0.401,0.893 0.892,1.511 0.49,0.618 1.07,1.414 1.288,1.768 1.159,1.884 3.472,5.086 3.978,5.506 0.32,0.265 0.581,0.657 0.581,0.871 0,0.215 0.401,0.899 0.892,1.521 0.491,0.621 1.605,2.132 2.478,3.358 0.872,1.225 2.474,3.217 3.561,4.425 1.086,1.208 2.265,2.666 2.619,3.24 1.02,1.651 19.749,20.354 22.165,22.134 1.199,0.884 2.612,2.074 3.141,2.646 0.529,0.572 1.125,1.04 1.326,1.04 0.381,0 3.862,2.689 6.801,5.253 0.937,0.817 1.885,1.486 2.107,1.486 0.221,0 0.61,0.25 0.863,0.555 0.254,0.306 1.881,1.42 3.617,2.477 1.735,1.057 3.155,2.056 3.155,2.22 0,0.164 0.196,0.298 0.435,0.298 0.239,0 0.994,0.402 1.679,0.892 0.685,0.491 1.604,1.083 2.043,1.316 1.614,0.857 4.527,2.515 6.012,3.421 2.487,1.518 17.199,8.643 17.847,8.643 0.225,0 1.248,0.446 2.273,0.991 1.026,0.545 2.128,0.991 2.451,0.991 0.323,0 1.467,0.446 2.543,0.991 1.076,0.545 2.308,0.991 2.738,0.991 0.431,0 0.893,0.179 1.028,0.397 0.135,0.218 0.547,0.397 0.915,0.399 0.369,10e-4 1.182,0.268 1.806,0.594 0.625,0.326 1.551,0.592 2.058,0.592 0.507,0 1.033,0.179 1.167,0.397 0.135,0.218 0.67,0.396 1.19,0.396 0.519,0 1.051,0.173 1.182,0.385 0.131,0.212 1.127,0.503 2.213,0.647 1.086,0.144 2.07,0.417 2.187,0.606 0.117,0.19 0.727,0.344 1.355,0.344 0.629,0 1.253,0.179 1.388,0.397 0.135,0.218 0.819,0.396 1.521,0.396 0.702,0 1.629,0.248 2.061,0.55 0.432,0.303 1.675,0.65 2.764,0.772 3.014,0.337 6.186,0.915 7.725,1.407 0.761,0.243 1.93,0.443 2.596,0.443 0.667,0 1.381,0.164 1.589,0.364 0.207,0.2 1.536,0.459 2.953,0.574 1.417,0.115 4.093,0.384 5.946,0.598 11.112,1.281 25.883,1.624 35.085,0.815 2.398,-0.211 5.926,-0.495 7.84,-0.63 1.914,-0.136 3.575,-0.4 3.691,-0.588 0.115,-0.187 1.349,-0.34 2.74,-0.34 1.392,0 2.641,-0.179 2.775,-0.397 0.135,-0.218 0.904,-0.404 1.709,-0.414 0.804,-0.009 2.176,-0.274 3.048,-0.588 0.873,-0.315 2.334,-0.574 3.248,-0.578 0.913,-0.003 1.771,-0.184 1.906,-0.402 0.135,-0.218 1.017,-0.396 1.96,-0.396 0.944,0 2.227,-0.267 2.851,-0.593 0.625,-0.325 1.616,-0.593 2.202,-0.594 0.587,-0.002 1.177,-0.181 1.312,-0.399 0.135,-0.218 0.623,-0.397 1.086,-0.397 0.462,0 1.388,-0.17 2.057,-0.378 0.67,-0.208 2.823,-0.851 4.786,-1.429 1.962,-0.579 3.924,-1.196 4.361,-1.373 0.436,-0.176 1.774,-0.628 2.973,-1.005 1.199,-0.377 3.007,-1.106 4.018,-1.62 1.01,-0.513 2.116,-0.934 2.456,-0.934 0.341,0 1.458,-0.446 2.484,-0.991 1.025,-0.545 2.086,-0.991 2.358,-0.991 0.273,0 1.718,-0.605 3.212,-1.344 1.494,-0.74 5.392,-2.648 8.663,-4.241 3.271,-1.593 6.499,-3.307 7.173,-3.809 0.675,-0.502 1.346,-0.913 1.491,-0.913 0.216,0 4.976,-2.82 7.392,-4.379 0.327,-0.211 1.644,-1.051 2.926,-1.868 1.283,-0.816 2.825,-1.885 3.427,-2.376 0.602,-0.49 1.261,-0.892 1.464,-0.892 0.203,0 0.802,-0.467 1.331,-1.038 0.528,-0.571 1.673,-1.493 2.543,-2.048 0.871,-0.555 2.208,-1.602 2.973,-2.328 0.765,-0.725 1.551,-1.32 1.746,-1.322 0.196,-10e-4 1.191,-0.761 2.212,-1.688 1.021,-0.927 2.687,-2.309 3.702,-3.072 2.442,-1.836 19.28,-18.901 21.243,-21.529 0.846,-1.132 2.182,-2.674 2.969,-3.425 0.788,-0.751 1.432,-1.577 1.432,-1.835 0,-0.257 0.271,-0.693 0.602,-0.968 0.741,-0.615 4.155,-5.461 4.155,-5.898 0,-0.173 0.366,-0.647 0.814,-1.052 0.812,-0.735 3.943,-5.221 3.943,-5.65 0,-0.124 0.344,-0.595 0.763,-1.045 0.42,-0.45 1.229,-1.748 1.798,-2.884 0.568,-1.137 1.206,-2.173 1.418,-2.304 0.211,-0.13 0.762,-1.067 1.224,-2.082 0.463,-1.014 1.309,-2.565 1.881,-3.445 1.096,-1.685 2.019,-3.417 4.761,-8.934 0.921,-1.853 1.844,-3.679 2.051,-4.058 0.206,-0.378 0.376,-0.871 0.376,-1.095 0,-0.223 0.602,-1.698 1.338,-3.276 2.247,-4.82 2.626,-5.74 2.626,-6.374 0,-0.336 0.178,-0.721 0.397,-0.856 0.218,-0.135 0.402,-0.547 0.408,-0.915 0.007,-0.369 0.452,-1.563 0.988,-2.653 0.536,-1.09 0.977,-2.373 0.978,-2.85 0.002,-0.478 0.183,-0.979 0.401,-1.114 0.218,-0.135 0.402,-0.725 0.409,-1.312 0.007,-0.587 0.274,-1.413 0.594,-1.836 0.32,-0.423 0.582,-1.171 0.582,-1.662 0,-0.49 0.179,-1.002 0.397,-1.137 0.218,-0.134 0.402,-0.725 0.409,-1.311 0.013,-1.082 1.243,-5.032 1.713,-5.502 0.141,-0.141 0.256,-0.91 0.256,-1.71 0,-0.799 0.134,-1.587 0.297,-1.75 0.323,-0.323 1.202,-4.509 1.547,-7.368 0.118,-0.981 0.376,-1.953 0.573,-2.16 0.197,-0.207 0.361,-1.099 0.364,-1.982 0.004,-0.884 0.263,-2.32 0.578,-3.192 0.314,-0.872 0.579,-2.665 0.588,-3.984 0.01,-1.319 0.185,-2.568 0.389,-2.775 0.204,-0.207 0.46,-2.25 0.568,-4.539 0.107,-2.289 0.376,-7.73 0.597,-12.091 0.269,-5.309 0.271,-10.221 0.006,-14.866 -0.218,-3.816 -0.486,-8.9 -0.597,-11.299 -0.111,-2.398 -0.369,-4.53 -0.573,-4.737 -0.205,-0.207 -0.38,-1.456 -0.39,-2.775 -0.009,-1.319 -0.274,-3.112 -0.588,-3.984 -0.315,-0.872 -0.574,-2.512 -0.578,-3.644 -0.003,-1.132 -0.184,-2.168 -0.402,-2.303 -0.218,-0.135 -0.397,-0.748 -0.397,-1.362 0,-0.615 -0.267,-1.758 -0.594,-2.541 -0.327,-0.783 -0.595,-2.132 -0.595,-2.998 0,-0.866 -0.178,-1.686 -0.396,-1.82 -0.218,-0.135 -0.397,-0.686 -0.397,-1.224 0,-0.538 -0.461,-2.445 -1.024,-4.238 -1.613,-5.133 -1.751,-5.644 -1.751,-6.51 0,-0.448 -0.267,-1.037 -0.594,-1.309 -0.327,-0.271 -0.595,-0.907 -0.595,-1.412 0,-0.506 -0.178,-1.03 -0.396,-1.165 -0.218,-0.134 -0.397,-0.759 -0.397,-1.387 0,-0.628 -0.178,-1.253 -0.396,-1.388 -0.218,-0.134 -0.397,-0.569 -0.397,-0.966 0,-0.396 -0.267,-0.943 -0.594,-1.214 -0.327,-0.271 -0.595,-0.996 -0.595,-1.611 0,-0.614 -0.158,-1.215 -0.352,-1.334 -0.193,-0.12 -0.469,-0.844 -0.612,-1.61 -0.144,-0.765 -0.432,-1.391 -0.64,-1.391 -0.208,0 -0.378,-0.235 -0.378,-0.521 0,-0.286 -0.357,-1.258 -0.793,-2.161 -0.436,-0.902 -0.793,-1.859 -0.793,-2.125 0,-0.633 -6.954,-14.746 -8.277,-16.799 -1.545,-2.396 -1.961,-3.095 -2.37,-3.985 -0.205,-0.447 -0.927,-1.632 -1.603,-2.634 -0.676,-1.002 -1.229,-1.941 -1.229,-2.087 0,-0.147 -0.401,-0.835 -0.893,-1.529 -0.491,-0.694 -1.071,-1.549 -1.288,-1.9 -0.873,-1.409 -2.018,-3.011 -3.255,-4.556 -0.717,-0.895 -1.303,-1.8 -1.303,-2.012 0,-0.212 -0.446,-0.805 -0.991,-1.317 -0.545,-0.512 -0.991,-1.085 -0.991,-1.274 0,-0.406 -3.019,-4.278 -5.594,-7.175 -1.006,-1.131 -1.898,-2.276 -1.982,-2.545 -0.236,-0.748 -21.38,-21.909 -21.899,-21.916 -0.251,-0.004 -1.308,-0.807 -2.35,-1.784 -1.042,-0.978 -2.033,-1.778 -2.201,-1.778 -0.168,0 -1.278,-0.85 -2.466,-1.89 -1.188,-1.04 -2.874,-2.416 -3.746,-3.058 -0.872,-0.642 -1.788,-1.352 -2.035,-1.578 -0.382,-0.349 -2.721,-1.887 -5.894,-3.876 -0.436,-0.274 -1.36,-0.899 -2.054,-1.39 -0.695,-0.492 -1.387,-0.893 -1.539,-0.893 -0.152,0 -1.1,-0.59 -2.108,-1.311 -1.007,-0.721 -3.033,-1.894 -4.502,-2.608 -1.47,-0.713 -2.766,-1.449 -2.881,-1.636 -0.197,-0.317 -11.338,-5.914 -14.55,-7.307 -0.808,-0.351 -1.577,-0.812 -1.708,-1.024 -0.131,-0.212 -0.575,-0.386 -0.987,-0.386 -0.412,0 -1.587,-0.446 -2.613,-0.991 -1.025,-0.545 -2.16,-0.991 -2.523,-0.991 -0.363,0 -1.374,-0.345 -2.247,-0.767 -0.873,-0.422 -2.068,-0.888 -2.655,-1.035 -0.587,-0.148 -1.165,-0.427 -1.285,-0.621 -0.12,-0.194 -0.732,-0.352 -1.361,-0.352 -0.628,0 -1.252,-0.179 -1.387,-0.397 -0.135,-0.218 -0.646,-0.396 -1.137,-0.396 -0.49,0 -1.238,-0.262 -1.661,-0.582 -0.424,-0.32 -1.26,-0.588 -1.86,-0.595 -0.6,-0.007 -1.09,-0.191 -1.09,-0.409 0,-0.218 -0.58,-0.397 -1.289,-0.399 -0.708,-10e-4 -1.799,-0.269 -2.424,-0.594 -0.624,-0.326 -1.55,-0.592 -2.057,-0.592 -0.508,0 -1.033,-0.179 -1.168,-0.397 -0.135,-0.218 -0.937,-0.396 -1.784,-0.396 -0.846,0 -1.634,-0.155 -1.751,-0.345 -0.117,-0.189 -1.282,-0.465 -2.589,-0.613 -1.306,-0.147 -2.48,-0.438 -2.609,-0.646 -0.128,-0.208 -1.104,-0.378 -2.169,-0.378 -1.064,0 -2.045,-0.179 -2.18,-0.397 -0.135,-0.218 -0.937,-0.396 -1.782,-0.396 -0.845,0 -2.02,-0.184 -2.611,-0.409 -0.592,-0.225 -2.253,-0.511 -3.693,-0.635 -1.44,-0.124 -2.787,-0.386 -2.994,-0.582 -0.208,-0.196 -1.691,-0.357 -3.297,-0.357 -1.606,0 -3.22,-0.154 -3.588,-0.342 -0.949,-0.487 -20.01,-0.75 -28.021,-0.387 m 29.336,10.58 c 1.744,0.212 4.777,0.583 6.739,0.825 4.822,0.595 16.684,3.026 21.407,4.387 9.953,2.869 20.018,6.319 20.992,7.195 0.207,0.187 0.603,0.339 0.881,0.339 0.656,0 3.701,1.375 11.031,4.979 11.103,5.46 16.941,8.94 26.734,15.937 20.499,14.645 39.241,35.779 52.468,59.163 2.984,5.277 10.321,21.179 11.157,24.183 0.152,0.545 0.443,1.348 0.648,1.784 0.686,1.461 4.335,13.01 4.335,13.721 0,0.386 0.155,0.797 0.343,0.914 0.189,0.116 0.447,0.796 0.574,1.51 0.127,0.714 0.511,2.546 0.854,4.073 1.498,6.675 1.587,7.118 2.528,12.686 3.727,22.054 3.186,46.384 -1.506,67.69 -0.228,1.036 -0.571,2.642 -0.762,3.568 -0.677,3.278 -2.979,11.714 -3.597,13.182 -0.184,0.436 -0.722,2.04 -1.197,3.565 -3.023,9.713 -10.933,26.889 -16.112,34.985 -0.739,1.155 -1.343,2.192 -1.343,2.305 0,0.37 -8.384,12.61 -10.259,14.975 -7.036,8.881 -9.1,11.23 -16.104,18.341 -7.164,7.274 -20.14,18.343 -23.092,19.699 -0.49,0.225 -0.892,0.559 -0.892,0.742 0,0.183 -0.252,0.333 -0.561,0.333 -0.309,0 -0.621,0.134 -0.694,0.297 -1.061,2.387 -27.342,16.431 -37.991,20.303 -0.764,0.277 -1.923,0.735 -2.577,1.017 -0.654,0.282 -3.241,1.165 -5.749,1.962 -2.507,0.798 -5.005,1.613 -5.55,1.812 -0.888,0.325 -3.019,0.921 -7.135,1.998 -6.717,1.757 -13.133,2.963 -22.201,4.173 -6.316,0.842 -33.16,1.246 -38.85,0.585 -2.071,-0.241 -5.372,-0.617 -7.334,-0.835 -3.342,-0.372 -4.583,-0.56 -10.109,-1.529 -6.801,-1.192 -21.322,-5.179 -27.156,-7.455 -2.868,-1.12 -3.559,-1.405 -4.256,-1.76 -0.378,-0.192 -0.879,-0.35 -1.112,-0.35 -0.233,0 -1.172,-0.338 -2.086,-0.752 -0.915,-0.413 -2.823,-1.235 -4.24,-1.825 -3.541,-1.475 -14.85,-7.127 -16.236,-8.114 -0.622,-0.443 -1.234,-0.805 -1.359,-0.805 -0.64,0 -13.825,-8.474 -15.914,-10.228 -0.224,-0.188 -0.937,-0.684 -1.586,-1.102 -0.648,-0.419 -1.446,-0.976 -1.773,-1.238 -0.327,-0.261 -1.688,-1.332 -3.024,-2.378 -7.983,-6.253 -20.012,-17.835 -25.447,-24.499 -7.113,-8.724 -9.262,-11.549 -12.907,-16.963 -2.317,-3.443 -4.212,-6.338 -4.212,-6.434 0,-0.097 -0.657,-1.202 -1.46,-2.457 -7.588,-11.863 -17.436,-36.326 -20.792,-51.649 -0.215,-0.981 -0.568,-2.587 -0.785,-3.568 -0.785,-3.548 -1.658,-9.44 -3.172,-21.407 -1.364,-10.784 -0.604,-31.857 1.651,-45.788 0.212,-1.308 0.48,-3.003 0.595,-3.766 0.115,-0.763 0.367,-2.012 0.56,-2.775 0.193,-0.763 0.571,-2.458 0.841,-3.766 0.844,-4.094 3.23,-13.105 3.883,-14.668 0.183,-0.436 0.657,-1.863 1.055,-3.172 0.397,-1.308 0.833,-2.557 0.968,-2.775 0.135,-0.218 0.66,-1.645 1.167,-3.171 9.447,-28.426 32.906,-60.404 59.295,-80.824 2.18,-1.687 4.238,-3.28 4.573,-3.54 0.752,-0.583 8.888,-6.001 11.934,-7.948 2.172,-1.388 4.019,-2.408 11.045,-6.097 5.746,-3.018 6.892,-3.595 8.325,-4.19 0.763,-0.317 2.418,-1.044 3.678,-1.615 1.259,-0.571 2.517,-1.039 2.794,-1.039 0.278,0 0.674,-0.145 0.881,-0.322 0.995,-0.85 13.733,-5.225 21.19,-7.277 8.026,-2.21 19.75,-4.311 28.534,-5.115 2.503,-0.229 4.642,-0.508 4.753,-0.62 0.343,-0.343 29.344,0.178 32.719,0.588 m 145.887,154.964 c -2.23,1.465 -16.115,8.361 -21.804,10.83 -6.337,2.75 -12.178,5.129 -12.592,5.129 -0.185,0 -1.084,0.34 -1.999,0.756 -2.81,1.279 -12.947,4.766 -19.106,6.572 -1.744,0.512 -4.509,1.48 -6.144,2.152 -1.636,0.671 -3.097,1.221 -3.248,1.222 -0.293,0.001 -6.583,2.871 -8.27,3.774 -0.557,0.297 -2.073,0.931 -3.37,1.408 -1.296,0.477 -3.071,1.183 -3.943,1.568 -3.595,1.589 -4.889,2.1 -7.532,2.973 -1.526,0.504 -4.738,1.618 -7.136,2.477 -2.398,0.858 -6.145,2.046 -8.325,2.639 -2.18,0.593 -4.678,1.327 -5.55,1.632 -0.872,0.305 -3.986,1.107 -6.92,1.782 -2.934,0.675 -5.432,1.287 -5.55,1.361 -0.388,0.239 -11.996,2.527 -16.866,3.324 -32.687,5.349 -65.472,4.65 -98.91,-2.108 -8.031,-1.623 -20.642,-4.868 -25.966,-6.681 -2.181,-0.742 -6.194,-2.113 -8.92,-3.045 -4.42,-1.513 -12.908,-4.879 -20.813,-8.254 -3.377,-1.442 -18.202,-8.976 -19.605,-9.964 -0.555,-0.39 -1.812,-1.112 -2.793,-1.605 -4.024,-2.017 -16.295,-9.707 -16.584,-10.392 -0.217,-0.513 -1.123,-0.356 -1.656,0.287 -1.37,1.651 -1.739,22.741 -0.6,34.286 0.371,3.766 1.426,11.782 1.799,13.677 3.785,19.23 7.468,30.384 15.379,46.581 16.801,34.396 48.346,64.741 82.534,79.392 0.763,0.327 2.232,0.972 3.264,1.433 7.208,3.218 20.295,7.384 30.036,9.56 1.2,0.268 2.591,0.645 3.091,0.839 0.501,0.193 1.411,0.352 2.023,0.352 0.611,0 1.628,0.169 2.26,0.377 8.253,2.71 41.845,2.935 55.857,0.375 1.309,-0.239 2.914,-0.52 3.568,-0.623 8.015,-1.27 27.553,-7.194 35.565,-10.784 0.935,-0.419 2.681,-1.176 3.88,-1.683 2.219,-0.938 9.526,-4.628 13.479,-6.806 4.522,-2.493 16.203,-10.021 17.047,-10.987 0.109,-0.125 1.357,-1.095 2.775,-2.156 17.376,-13.003 33.567,-31.565 44.542,-51.066 2.571,-4.568 4.366,-8.15 8.391,-16.747 1.604,-3.428 5.562,-14.434 6.913,-19.227 0.277,-0.981 0.658,-2.229 0.848,-2.775 4.915,-14.138 7.435,-45.273 5.118,-63.23 -1.414,-10.961 -1.221,-10.56 -4.167,-8.625"
       inkscape:connector-curvature="0"
       style="fill:#4972fe;fill-rule:evenodd;stroke:none" />
    <path
       id="path2"
       d="m 188.702,4.373 c -6.414,0.281 -18.198,1.77 -24.579,3.105 -0.981,0.205 -3.568,0.748 -5.748,1.206 -2.181,0.458 -4.274,1.011 -4.653,1.228 -0.379,0.217 -1.077,0.395 -1.551,0.395 -1.278,0 -16.796,4.768 -19.961,6.134 -0.654,0.282 -1.814,0.74 -2.577,1.018 -0.763,0.278 -2.101,0.816 -2.973,1.195 -0.872,0.379 -2.745,1.171 -4.162,1.761 -2.142,0.89 -12.67,6.057 -16.254,7.977 -4.164,2.23 -23.065,14.723 -24.183,15.983 -0.109,0.123 -1.982,1.649 -4.162,3.391 -14.55,11.623 -28.416,27.125 -40.25,44.999 -1.659,2.506 -6.311,10.604 -6.32,11.001 -0.006,0.273 -0.145,0.496 -0.308,0.497 -0.164,0 -0.805,1.026 -1.426,2.279 -0.621,1.253 -1.378,2.75 -1.682,3.326 -1.505,2.849 -2.268,4.484 -4.139,8.863 -1.118,2.617 -2.187,5.114 -2.377,5.55 -0.189,0.437 -0.809,2.042 -1.378,3.568 -0.568,1.527 -1.167,3.043 -1.332,3.37 -0.337,0.67 -3.043,9.156 -4.55,14.272 -1.161,3.941 -2.308,8.752 -3.214,13.478 -0.355,1.854 -0.894,4.619 -1.198,6.145 -0.304,1.526 -0.753,4.559 -0.998,6.739 -0.245,2.181 -0.631,5.213 -0.858,6.74 -0.643,4.322 -0.878,25.331 -0.357,31.912 1.102,13.92 1.785,18.179 5.595,34.886 0.665,2.917 1.287,4.97 1.616,5.332 0.188,0.208 0.341,0.719 0.341,1.137 0,1.529 5.326,16.494 7.926,22.273 2.491,5.535 6.968,14.416 9.475,18.797 1.55,2.707 2.817,5 2.817,5.095 0,0.36 6.652,10.209 9.03,13.372 0.164,0.218 1,1.378 1.858,2.577 0.857,1.199 2.46,3.247 3.562,4.55 1.101,1.303 2.359,2.805 2.795,3.336 6.856,8.356 20.076,21.13 27.751,26.813 0.872,0.645 1.674,1.284 1.783,1.419 2.218,2.749 20.828,14.527 31.319,19.821 1.97,0.995 3.284,1.603 9.118,4.222 1.579,0.709 4.625,1.967 6.937,2.865 3.243,1.26 4.513,1.765 5.55,2.206 0.654,0.277 1.992,0.707 2.973,0.953 0.982,0.247 2.141,0.601 2.577,0.787 1.594,0.679 4.414,1.552 6.541,2.024 1.2,0.267 2.488,0.643 2.864,0.837 0.375,0.194 1.624,0.545 2.775,0.78 1.15,0.236 2.716,0.579 3.479,0.763 3.618,0.872 11.526,2.396 13.479,2.598 1.199,0.123 3.34,0.467 4.757,0.762 10.328,2.156 42.062,2.042 52.329,-0.187 0.981,-0.213 3.211,-0.577 4.956,-0.81 3.071,-0.41 4.988,-0.759 8.721,-1.588 4.029,-0.896 5.243,-1.163 7.063,-1.556 1.05,-0.227 2.089,-0.523 2.308,-0.658 0.218,-0.135 1.678,-0.561 3.244,-0.946 3.093,-0.761 13.097,-4.028 15.334,-5.008 1.703,-0.745 2.38,-1.027 5.153,-2.14 3.828,-1.536 9.573,-4.151 13.875,-6.316 6.452,-3.247 7.464,-3.803 11.1,-6.099 2.072,-1.308 4.123,-2.578 4.559,-2.822 11.771,-6.591 38.016,-29.403 44.119,-38.348 0.347,-0.508 0.858,-1.063 1.136,-1.233 0.587,-0.359 7.122,-8.919 8.202,-10.745 0.403,-0.679 1.039,-1.592 1.414,-2.028 0.833,-0.968 5.611,-8.192 6.687,-10.109 0.428,-0.763 1.706,-2.984 2.839,-4.934 2.26,-3.892 6.448,-12.032 8.271,-16.077 0.639,-1.417 1.523,-3.38 1.965,-4.361 0.441,-0.981 1.075,-2.595 1.408,-3.586 0.563,-1.678 1.557,-4.125 2.253,-5.545 0.163,-0.334 0.432,-1.22 0.596,-1.969 0.165,-0.749 0.439,-1.635 0.61,-1.969 0.353,-0.689 1.253,-3.405 1.91,-5.761 0.243,-0.872 0.811,-2.746 1.262,-4.163 0.451,-1.417 0.978,-3.29 1.172,-4.162 0.194,-0.872 0.912,-4.084 1.596,-7.136 0.684,-3.053 1.399,-6.531 1.589,-7.731 0.19,-1.199 0.538,-3.25 0.774,-4.558 0.237,-1.309 0.607,-4.163 0.823,-6.343 0.216,-2.181 0.56,-5.213 0.764,-6.74 0.462,-3.46 0.432,-28.419 -0.039,-31.913 -0.191,-1.417 -0.526,-4.271 -0.745,-6.342 -0.746,-7.081 -3.11,-20.319 -4.353,-24.381 -0.2,-0.654 -0.659,-2.26 -1.02,-3.568 -1.011,-3.669 -1.215,-4.33 -3.362,-10.902 -1.104,-3.379 -2.356,-6.901 -2.783,-7.825 -0.426,-0.924 -0.774,-1.822 -0.774,-1.994 0,-0.339 -2.065,-5.313 -3.763,-9.065 -2.014,-4.451 -5.156,-10.666 -6.638,-13.135 -0.821,-1.366 -1.492,-2.567 -1.492,-2.668 0,-0.101 -0.625,-1.159 -1.388,-2.352 -0.763,-1.193 -1.387,-2.291 -1.387,-2.438 0,-0.148 -0.625,-1.139 -1.388,-2.201 -0.763,-1.062 -1.387,-2.029 -1.387,-2.149 0,-0.24 -8.682,-12.547 -9.075,-12.863 -0.135,-0.109 -0.977,-1.179 -1.871,-2.378 -1.678,-2.253 -2.785,-3.568 -6.482,-7.693 -3.354,-3.744 -15.425,-15.723 -17.831,-17.695 -1.185,-0.972 -2.88,-2.405 -3.766,-3.184 -0.885,-0.779 -2.323,-1.937 -3.196,-2.574 -0.872,-0.638 -1.674,-1.259 -1.783,-1.38 -0.109,-0.122 -0.912,-0.747 -1.784,-1.39 -0.872,-0.643 -1.764,-1.304 -1.982,-1.47 -1.958,-1.488 -3.037,-2.257 -5.241,-3.735 -1.403,-0.941 -2.621,-1.712 -2.706,-1.712 -0.085,0 -1.721,-1.038 -3.636,-2.308 -3.142,-2.083 -4.601,-2.961 -9.825,-5.912 -0.872,-0.493 -4.083,-2.124 -7.136,-3.626 -4.857,-2.388 -7.163,-3.459 -10.307,-4.785 -0.436,-0.184 -1.417,-0.6 -2.18,-0.924 -0.763,-0.324 -2.101,-0.825 -2.974,-1.114 -0.872,-0.289 -1.765,-0.652 -1.984,-0.807 -0.517,-0.365 -12.929,-4.527 -15.26,-5.116 -0.981,-0.248 -2.765,-0.7 -3.965,-1.003 -7.59,-1.923 -16.312,-3.678 -22.398,-4.507 -1.744,-0.237 -4.42,-0.631 -5.947,-0.874 -5.713,-0.91 -20.198,-1.24 -31.912,-0.726 m 29.012,1.231 c 0.368,0.188 1.982,0.342 3.588,0.342 1.606,0 3.089,0.161 3.297,0.357 0.207,0.196 1.554,0.458 2.994,0.582 1.44,0.124 3.101,0.41 3.693,0.635 0.591,0.225 1.766,0.409 2.611,0.409 0.845,0 1.647,0.178 1.782,0.396 0.135,0.218 1.116,0.397 2.18,0.397 1.065,0 2.041,0.17 2.169,0.378 0.129,0.208 1.303,0.499 2.609,0.646 1.307,0.148 2.472,0.424 2.589,0.613 0.117,0.19 0.905,0.345 1.751,0.345 0.847,0 1.649,0.178 1.784,0.396 0.135,0.218 0.66,0.397 1.168,0.397 0.507,0 1.433,0.266 2.057,0.592 0.625,0.325 1.716,0.593 2.424,0.594 0.709,0.002 1.289,0.181 1.289,0.399 0,0.218 0.49,0.402 1.09,0.409 0.6,0.007 1.436,0.275 1.86,0.595 0.423,0.32 1.171,0.582 1.661,0.582 0.491,0 1.002,0.178 1.137,0.396 0.135,0.218 0.759,0.397 1.387,0.397 0.629,0 1.241,0.158 1.361,0.352 0.12,0.194 0.698,0.473 1.285,0.621 0.587,0.147 1.782,0.613 2.655,1.035 0.873,0.422 1.884,0.767 2.247,0.767 0.363,0 1.498,0.446 2.523,0.991 1.026,0.545 2.201,0.991 2.613,0.991 0.412,0 0.856,0.174 0.987,0.386 0.131,0.212 0.9,0.673 1.708,1.024 3.212,1.393 14.353,6.99 14.55,7.307 0.115,0.187 1.411,0.923 2.881,1.636 1.469,0.714 3.495,1.887 4.502,2.608 1.008,0.721 1.956,1.311 2.108,1.311 0.152,0 0.844,0.401 1.539,0.893 0.694,0.491 1.618,1.116 2.054,1.39 3.173,1.989 5.512,3.527 5.894,3.876 0.247,0.226 1.163,0.936 2.035,1.578 0.872,0.642 2.558,2.018 3.746,3.058 1.188,1.04 2.298,1.89 2.466,1.89 0.168,0 1.159,0.8 2.201,1.778 1.042,0.977 2.099,1.78 2.35,1.784 0.519,0.007 21.663,21.168 21.899,21.916 0.084,0.269 0.976,1.414 1.982,2.545 2.575,2.897 5.594,6.769 5.594,7.175 0,0.189 0.446,0.762 0.991,1.274 0.545,0.512 0.991,1.105 0.991,1.317 0,0.212 0.586,1.117 1.303,2.012 1.237,1.545 2.382,3.147 3.255,4.556 0.217,0.351 0.797,1.206 1.288,1.9 0.492,0.694 0.893,1.382 0.893,1.529 0,0.146 0.553,1.085 1.229,2.087 0.676,1.002 1.398,2.187 1.603,2.634 0.409,0.89 0.825,1.589 2.37,3.985 1.323,2.053 8.277,16.166 8.277,16.799 0,0.266 0.357,1.223 0.793,2.125 0.436,0.903 0.793,1.875 0.793,2.161 0,0.286 0.17,0.521 0.378,0.521 0.208,0 0.496,0.626 0.64,1.391 0.143,0.766 0.419,1.49 0.612,1.61 0.194,0.119 0.352,0.72 0.352,1.334 0,0.615 0.268,1.34 0.595,1.611 0.327,0.271 0.594,0.818 0.594,1.214 0,0.397 0.179,0.832 0.397,0.966 0.218,0.135 0.396,0.76 0.396,1.388 0,0.628 0.179,1.253 0.397,1.387 0.218,0.135 0.396,0.659 0.396,1.165 0,0.505 0.268,1.141 0.595,1.412 0.327,0.272 0.594,0.861 0.594,1.309 0,0.866 0.138,1.377 1.751,6.51 0.563,1.793 1.024,3.7 1.024,4.238 0,0.538 0.179,1.089 0.397,1.224 0.218,0.134 0.396,0.954 0.396,1.82 0,0.866 0.268,2.215 0.595,2.998 0.327,0.783 0.594,1.926 0.594,2.541 0,0.614 0.179,1.227 0.397,1.362 0.218,0.135 0.399,1.171 0.402,2.303 0.004,1.132 0.263,2.772 0.578,3.644 0.314,0.872 0.579,2.665 0.588,3.984 0.01,1.319 0.185,2.568 0.39,2.775 0.204,0.207 0.462,2.339 0.573,4.737 0.111,2.399 0.379,7.483 0.597,11.299 0.265,4.645 0.263,9.557 -0.006,14.866 -0.221,4.361 -0.49,9.802 -0.597,12.091 -0.108,2.289 -0.364,4.332 -0.568,4.539 -0.204,0.207 -0.379,1.456 -0.389,2.775 -0.009,1.319 -0.274,3.112 -0.588,3.984 -0.315,0.872 -0.574,2.308 -0.578,3.192 -0.003,0.883 -0.167,1.775 -0.364,1.982 -0.197,0.207 -0.455,1.179 -0.573,2.16 -0.345,2.859 -1.224,7.045 -1.547,7.368 -0.163,0.163 -0.297,0.951 -0.297,1.75 0,0.8 -0.115,1.569 -0.256,1.71 -0.47,0.47 -1.7,4.42 -1.713,5.502 -0.007,0.586 -0.191,1.177 -0.409,1.311 -0.218,0.135 -0.397,0.647 -0.397,1.137 0,0.491 -0.262,1.239 -0.582,1.662 -0.32,0.423 -0.587,1.249 -0.594,1.836 -0.007,0.587 -0.191,1.177 -0.409,1.312 -0.218,0.135 -0.399,0.636 -0.401,1.114 -10e-4,0.477 -0.442,1.76 -0.978,2.85 -0.536,1.09 -0.981,2.284 -0.988,2.653 -0.006,0.368 -0.19,0.78 -0.408,0.915 -0.219,0.135 -0.397,0.52 -0.397,0.856 0,0.634 -0.379,1.554 -2.626,6.374 -0.736,1.578 -1.338,3.053 -1.338,3.276 0,0.224 -0.17,0.717 -0.376,1.095 -0.207,0.379 -1.13,2.205 -2.051,4.058 -2.742,5.517 -3.665,7.249 -4.761,8.934 -0.572,0.88 -1.418,2.431 -1.881,3.445 -0.462,1.015 -1.013,1.952 -1.224,2.082 -0.212,0.131 -0.85,1.167 -1.418,2.304 -0.569,1.136 -1.378,2.434 -1.798,2.884 -0.419,0.45 -0.763,0.921 -0.763,1.045 0,0.429 -3.131,4.915 -3.943,5.65 -0.448,0.405 -0.814,0.879 -0.814,1.052 0,0.437 -3.414,5.283 -4.155,5.898 -0.331,0.275 -0.602,0.711 -0.602,0.968 0,0.258 -0.644,1.084 -1.432,1.835 -0.787,0.751 -2.123,2.293 -2.969,3.425 -1.963,2.628 -18.801,19.693 -21.243,21.529 -1.015,0.763 -2.681,2.145 -3.702,3.072 -1.021,0.927 -2.016,1.687 -2.212,1.688 -0.195,0.002 -0.981,0.597 -1.746,1.322 -0.765,0.726 -2.102,1.773 -2.973,2.328 -0.87,0.555 -2.015,1.477 -2.543,2.048 -0.529,0.571 -1.128,1.038 -1.331,1.038 -0.203,0 -0.862,0.402 -1.464,0.892 -0.602,0.491 -2.144,1.56 -3.427,2.376 -1.282,0.817 -2.599,1.657 -2.926,1.868 -2.416,1.559 -7.176,4.379 -7.392,4.379 -0.145,0 -0.816,0.411 -1.491,0.913 -0.674,0.502 -3.902,2.216 -7.173,3.809 -3.271,1.593 -7.169,3.501 -8.663,4.241 -1.494,0.739 -2.939,1.344 -3.212,1.344 -0.272,0 -1.333,0.446 -2.358,0.991 -1.026,0.545 -2.143,0.991 -2.484,0.991 -0.34,0 -1.446,0.421 -2.456,0.934 -1.011,0.514 -2.819,1.243 -4.018,1.62 -1.199,0.377 -2.537,0.829 -2.973,1.005 -0.437,0.177 -2.399,0.794 -4.361,1.373 -1.963,0.578 -4.116,1.221 -4.786,1.429 -0.669,0.208 -1.595,0.378 -2.057,0.378 -0.463,0 -0.951,0.179 -1.086,0.397 -0.135,0.218 -0.725,0.397 -1.312,0.399 -0.586,10e-4 -1.577,0.269 -2.202,0.594 -0.624,0.326 -1.907,0.593 -2.851,0.593 -0.943,0 -1.825,0.178 -1.96,0.396 -0.135,0.218 -0.993,0.399 -1.906,0.402 -0.914,0.004 -2.375,0.263 -3.248,0.578 -0.872,0.314 -2.244,0.579 -3.048,0.588 -0.805,0.01 -1.574,0.196 -1.709,0.414 -0.134,0.218 -1.383,0.397 -2.775,0.397 -1.391,0 -2.625,0.153 -2.74,0.34 -0.116,0.188 -1.777,0.452 -3.691,0.588 -1.914,0.135 -5.442,0.419 -7.84,0.63 -9.202,0.809 -23.973,0.466 -35.085,-0.815 -1.853,-0.214 -4.529,-0.483 -5.946,-0.598 -1.417,-0.115 -2.746,-0.374 -2.953,-0.574 -0.208,-0.2 -0.922,-0.364 -1.589,-0.364 -0.666,0 -1.835,-0.2 -2.596,-0.443 -1.539,-0.492 -4.711,-1.07 -7.725,-1.407 -1.089,-0.122 -2.332,-0.469 -2.764,-0.772 -0.432,-0.302 -1.359,-0.55 -2.061,-0.55 -0.702,0 -1.386,-0.178 -1.521,-0.396 -0.135,-0.218 -0.759,-0.397 -1.388,-0.397 -0.628,0 -1.238,-0.154 -1.355,-0.344 -0.117,-0.189 -1.101,-0.462 -2.187,-0.606 -1.086,-0.144 -2.082,-0.435 -2.213,-0.647 -0.131,-0.212 -0.663,-0.385 -1.182,-0.385 -0.52,0 -1.055,-0.178 -1.19,-0.396 -0.134,-0.218 -0.66,-0.397 -1.167,-0.397 -0.507,0 -1.433,-0.266 -2.058,-0.592 -0.624,-0.326 -1.437,-0.593 -1.806,-0.594 -0.368,-0.002 -0.78,-0.181 -0.915,-0.399 -0.135,-0.218 -0.597,-0.397 -1.028,-0.397 -0.43,0 -1.662,-0.446 -2.738,-0.991 -1.076,-0.545 -2.22,-0.991 -2.543,-0.991 -0.323,0 -1.425,-0.446 -2.451,-0.991 -1.025,-0.545 -2.048,-0.991 -2.273,-0.991 -0.648,0 -15.36,-7.125 -17.847,-8.643 -1.485,-0.906 -4.398,-2.564 -6.012,-3.421 -0.439,-0.233 -1.358,-0.825 -2.043,-1.316 -0.685,-0.49 -1.44,-0.892 -1.679,-0.892 -0.239,0 -0.435,-0.134 -0.435,-0.298 0,-0.164 -1.42,-1.163 -3.155,-2.22 -1.736,-1.057 -3.363,-2.171 -3.617,-2.477 -0.253,-0.305 -0.642,-0.555 -0.863,-0.555 -0.222,0 -1.17,-0.669 -2.107,-1.486 -2.939,-2.564 -6.42,-5.253 -6.801,-5.253 -0.201,0 -0.797,-0.468 -1.326,-1.04 -0.529,-0.572 -1.942,-1.762 -3.141,-2.646 -2.416,-1.78 -21.145,-20.483 -22.165,-22.134 -0.354,-0.574 -1.533,-2.032 -2.619,-3.24 -1.087,-1.208 -2.689,-3.2 -3.561,-4.425 -0.873,-1.226 -1.987,-2.737 -2.478,-3.358 -0.491,-0.622 -0.892,-1.306 -0.892,-1.521 0,-0.214 -0.261,-0.606 -0.581,-0.871 -0.506,-0.42 -2.819,-3.622 -3.978,-5.506 -0.218,-0.354 -0.798,-1.15 -1.288,-1.768 -0.491,-0.618 -0.892,-1.298 -0.892,-1.511 0,-0.213 -0.759,-1.582 -1.685,-3.042 -0.927,-1.46 -2.039,-3.368 -2.472,-4.24 -0.433,-0.872 -1.331,-2.478 -1.995,-3.568 -2.408,-3.948 -8.924,-17.928 -8.916,-19.128 0.002,-0.273 -0.175,-0.496 -0.393,-0.496 -0.218,0 -0.398,-0.312 -0.399,-0.693 -0.001,-0.382 -0.269,-1.205 -0.595,-1.83 -0.325,-0.624 -0.592,-1.349 -0.592,-1.61 0,-0.262 -0.446,-1.4 -0.991,-2.53 -0.545,-1.13 -0.991,-2.265 -0.991,-2.524 0,-0.575 -0.73,-2.866 -1.449,-4.549 -0.293,-0.687 -0.533,-1.524 -0.533,-1.86 0,-0.336 -0.179,-0.721 -0.397,-0.856 -0.218,-0.134 -0.396,-0.691 -0.396,-1.237 0,-1.133 -1.134,-4.917 -1.643,-5.482 -0.187,-0.207 -0.339,-1.044 -0.339,-1.86 0,-0.815 -0.179,-1.593 -0.397,-1.728 -0.218,-0.135 -0.396,-0.815 -0.396,-1.512 0,-0.698 -0.197,-1.891 -0.437,-2.653 -0.718,-2.277 -1.209,-4.81 -1.421,-7.331 -0.11,-1.309 -0.338,-2.557 -0.506,-2.775 -0.168,-0.218 -0.43,-1.819 -0.581,-3.557 -0.152,-1.738 -0.431,-3.348 -0.621,-3.577 -0.87,-1.047 -1.223,-33.97 -0.458,-42.619 0.52,-5.877 1.365,-11.751 1.744,-12.127 0.164,-0.162 0.298,-1.324 0.298,-2.583 0,-1.259 0.178,-2.4 0.396,-2.534 0.218,-0.135 0.397,-0.748 0.397,-1.361 0,-0.614 0.267,-1.875 0.594,-2.802 0.327,-0.927 0.595,-2.141 0.595,-2.697 0,-0.557 0.166,-1.561 0.369,-2.23 0.202,-0.67 0.671,-2.288 1.04,-3.596 0.369,-1.308 0.828,-2.689 1.019,-3.067 0.191,-0.379 0.347,-1.216 0.347,-1.86 0,-0.644 0.178,-1.281 0.396,-1.416 0.218,-0.135 0.398,-0.636 0.399,-1.114 0.002,-0.477 0.269,-1.379 0.595,-2.004 0.326,-0.624 0.592,-1.461 0.592,-1.859 0,-0.399 0.178,-0.835 0.396,-0.97 0.218,-0.134 0.397,-0.664 0.397,-1.176 0,-0.512 0.419,-1.795 0.932,-2.85 0.513,-1.056 1.158,-2.634 1.433,-3.506 0.523,-1.654 0.945,-2.706 2.346,-5.843 0.461,-1.033 0.839,-1.987 0.839,-2.12 0,-0.836 7.453,-15.816 8.609,-17.305 0.214,-0.275 0.808,-1.303 1.322,-2.284 0.513,-0.981 1.521,-2.706 2.24,-3.833 0.719,-1.127 1.308,-2.199 1.308,-2.383 0,-0.183 0.446,-0.814 0.991,-1.402 0.545,-0.588 0.991,-1.313 0.991,-1.612 0,-0.298 0.446,-0.961 0.991,-1.473 0.545,-0.513 0.991,-1.102 0.991,-1.31 0,-0.208 0.624,-1.069 1.387,-1.914 0.764,-0.845 1.388,-1.772 1.388,-2.06 0,-0.289 0.446,-0.944 0.991,-1.456 0.545,-0.512 0.993,-1.123 0.996,-1.357 0.003,-0.235 0.725,-1.202 1.604,-2.149 0.88,-0.947 2.017,-2.374 2.527,-3.171 0.51,-0.798 1.483,-1.974 2.162,-2.614 0.679,-0.64 1.234,-1.335 1.234,-1.543 0,-0.645 20.836,-21.603 21.941,-22.07 0.675,-0.284 7.886,-6.095 8.534,-6.876 0.299,-0.361 0.762,-0.656 1.029,-0.656 0.266,0 0.8,-0.349 1.186,-0.775 0.599,-0.662 6.031,-4.539 8.078,-5.765 0.363,-0.218 1.195,-0.757 1.849,-1.2 0.654,-0.442 1.87,-1.156 2.702,-1.586 0.833,-0.431 1.814,-1.051 2.181,-1.378 0.367,-0.327 1.373,-0.951 2.235,-1.387 0.863,-0.436 2.163,-1.182 2.889,-1.657 1.194,-0.782 12.029,-6.194 15.645,-7.815 0.808,-0.362 1.577,-0.832 1.708,-1.044 0.131,-0.212 0.591,-0.386 1.021,-0.386 0.431,0 1.663,-0.446 2.739,-0.991 1.075,-0.545 2.196,-0.991 2.489,-0.991 0.293,0 1.236,-0.331 2.094,-0.735 0.859,-0.404 2.543,-1.05 3.742,-1.436 1.199,-0.385 2.49,-0.857 2.869,-1.048 0.378,-0.192 1.013,-0.349 1.41,-0.349 0.398,0 1.069,-0.262 1.492,-0.582 0.424,-0.32 1.25,-0.588 1.837,-0.595 0.586,-0.007 1.177,-0.191 1.312,-0.409 0.134,-0.218 0.725,-0.397 1.311,-0.399 0.587,-10e-4 1.578,-0.269 2.203,-0.594 0.624,-0.326 1.55,-0.592 2.057,-0.592 0.508,0 1.033,-0.179 1.168,-0.397 0.135,-0.218 0.937,-0.396 1.784,-0.396 0.846,0 1.634,-0.155 1.751,-0.345 0.117,-0.189 1.282,-0.465 2.589,-0.613 1.306,-0.147 2.48,-0.438 2.609,-0.646 0.128,-0.208 1.104,-0.378 2.169,-0.378 1.064,0 2.032,-0.157 2.149,-0.347 0.118,-0.191 1.155,-0.457 2.303,-0.592 3.201,-0.376 8.362,-1.261 9.026,-1.548 2.543,-1.099 40.087,-1.661 42.095,-0.631 m -31.404,9.605 c -0.111,0.112 -2.25,0.391 -4.753,0.62 -8.784,0.804 -20.508,2.905 -28.534,5.115 -7.457,2.052 -20.195,6.427 -21.19,7.277 -0.207,0.177 -0.603,0.322 -0.881,0.322 -0.277,0 -1.535,0.468 -2.794,1.039 -1.26,0.571 -2.915,1.298 -3.678,1.615 -1.433,0.595 -2.579,1.172 -8.325,4.19 -7.026,3.689 -8.873,4.709 -11.045,6.097 -3.046,1.947 -11.182,7.365 -11.934,7.948 -0.335,0.26 -2.393,1.853 -4.573,3.54 -26.389,20.42 -49.848,52.398 -59.295,80.824 -0.507,1.526 -1.032,2.953 -1.167,3.171 -0.135,0.218 -0.571,1.467 -0.968,2.775 -0.398,1.309 -0.872,2.736 -1.055,3.172 -0.653,1.563 -3.039,10.574 -3.883,14.668 -0.27,1.308 -0.648,3.003 -0.841,3.766 -0.193,0.763 -0.445,2.012 -0.56,2.775 -0.115,0.763 -0.383,2.458 -0.595,3.766 -2.255,13.931 -3.015,35.004 -1.651,45.788 1.514,11.967 2.387,17.859 3.172,21.407 0.217,0.981 0.57,2.587 0.785,3.568 3.356,15.323 13.204,39.786 20.792,51.649 0.803,1.255 1.46,2.36 1.46,2.457 0,0.096 1.895,2.991 4.212,6.434 3.645,5.414 5.794,8.239 12.907,16.963 5.435,6.664 17.464,18.246 25.447,24.499 1.336,1.046 2.697,2.117 3.024,2.378 0.327,0.262 1.125,0.819 1.773,1.238 0.649,0.418 1.362,0.914 1.586,1.102 2.089,1.754 15.274,10.228 15.914,10.228 0.125,0 0.737,0.362 1.359,0.805 1.386,0.987 12.695,6.639 16.236,8.114 1.417,0.59 3.325,1.412 4.24,1.825 0.914,0.414 1.853,0.752 2.086,0.752 0.233,0 0.734,0.158 1.112,0.35 0.697,0.355 1.388,0.64 4.256,1.76 5.834,2.276 20.355,6.263 27.156,7.455 5.526,0.969 6.767,1.157 10.109,1.529 1.962,0.218 5.263,0.594 7.334,0.835 2.412,0.28 9.184,0.373 18.831,0.257 16.084,-0.194 18.947,-0.431 31.516,-2.618 2.117,-0.368 7.89,-1.661 10.704,-2.397 4.116,-1.077 6.247,-1.673 7.135,-1.998 0.545,-0.199 3.043,-1.014 5.55,-1.812 2.508,-0.797 5.095,-1.68 5.749,-1.962 0.654,-0.282 1.813,-0.74 2.577,-1.017 10.649,-3.872 36.93,-17.916 37.991,-20.303 0.073,-0.163 0.385,-0.297 0.694,-0.297 0.309,0 0.561,-0.15 0.561,-0.333 0,-0.183 0.402,-0.517 0.892,-0.742 2.952,-1.356 15.928,-12.425 23.092,-19.699 7.004,-7.111 9.068,-9.46 16.104,-18.341 1.875,-2.365 10.259,-14.605 10.259,-14.975 0,-0.113 0.604,-1.15 1.343,-2.305 5.179,-8.096 13.089,-25.272 16.112,-34.985 0.475,-1.525 1.013,-3.129 1.197,-3.565 0.618,-1.468 2.92,-9.904 3.597,-13.182 0.191,-0.926 0.534,-2.532 0.762,-3.568 4.692,-21.306 5.233,-45.636 1.506,-67.69 -0.941,-5.568 -1.03,-6.011 -2.528,-12.686 -0.343,-1.527 -0.727,-3.359 -0.854,-4.073 -0.127,-0.714 -0.385,-1.394 -0.574,-1.51 -0.188,-0.117 -0.343,-0.528 -0.343,-0.914 0,-0.711 -3.649,-12.26 -4.335,-13.721 -0.205,-0.436 -0.496,-1.239 -0.648,-1.784 -0.836,-3.004 -8.173,-18.906 -11.157,-24.183 C 346.054,85.238 327.312,64.104 306.813,49.459 297.02,42.462 291.182,38.982 280.079,33.522 c -7.33,-3.604 -10.375,-4.979 -11.031,-4.979 -0.278,0 -0.674,-0.152 -0.881,-0.339 -0.974,-0.876 -11.039,-4.326 -20.992,-7.195 -4.723,-1.361 -16.585,-3.792 -21.407,-4.387 -1.962,-0.242 -4.995,-0.613 -6.739,-0.825 -3.375,-0.41 -32.376,-0.931 -32.719,-0.588 m 31.728,1.402 c 10.025,1.121 21.746,3.222 28.741,5.152 3.262,0.9 6.017,1.761 6.635,2.072 0.378,0.191 0.961,0.347 1.294,0.347 0.333,0 0.915,0.157 1.293,0.349 0.379,0.192 1.67,0.656 2.869,1.033 3.342,1.049 9.667,3.45 10.089,3.83 0.208,0.186 0.598,0.338 0.869,0.338 1.75,0 24.941,12.006 25.448,13.174 0.073,0.168 0.288,0.305 0.478,0.305 0.459,0 11.197,7.236 13.463,9.073 0.981,0.795 2.498,1.968 3.37,2.607 0.872,0.639 1.675,1.266 1.784,1.392 0.109,0.126 1.887,1.652 3.952,3.39 4.363,3.674 14.319,13.499 17.465,17.235 1.194,1.417 2.264,2.666 2.377,2.775 1.379,1.32 10.722,13.509 11.63,15.172 0.265,0.486 1.694,2.739 3.176,5.008 4.897,7.494 9.351,15.913 13.13,24.815 1.018,2.398 2.08,4.896 2.36,5.55 0.498,1.162 1.607,3.966 2.196,5.55 0.162,0.436 0.602,1.774 0.978,2.973 0.375,1.199 0.827,2.537 1.005,2.973 0.539,1.323 2.129,7.032 3.422,12.29 0.322,1.308 0.834,3.36 1.139,4.559 0.304,1.199 0.838,3.875 1.187,5.946 0.348,2.072 0.725,4.212 0.837,4.758 3.563,17.323 2.218,50.513 -2.835,69.97 -0.566,2.18 -1.185,4.588 -1.374,5.352 -1.905,7.674 -5.233,17.291 -8.27,23.895 -0.68,1.477 -1.236,2.775 -1.236,2.886 0,0.831 -7.807,15.831 -10.128,19.46 -0.753,1.176 -1.368,2.207 -1.368,2.291 0,0.873 -9.894,14.528 -14.744,20.347 -1.59,1.908 -3.249,3.903 -3.687,4.434 -1.363,1.651 -13.397,13.689 -15.068,15.072 -0.872,0.722 -2.388,2.048 -3.369,2.947 -1.671,1.531 -3.958,3.339 -8.286,6.552 -1.003,0.744 -1.913,1.457 -2.022,1.585 -0.583,0.686 -14.794,9.946 -15.262,9.946 -0.075,0 -1.622,0.854 -3.438,1.897 -10.077,5.792 -23.351,11.463 -35.016,14.96 -1.308,0.393 -2.646,0.843 -2.973,1.001 -0.65,0.314 -6.78,1.89 -9.316,2.395 -18.86,3.757 -23.998,4.302 -40.676,4.317 -12.711,0.011 -21.102,-0.568 -28.7,-1.977 -12.199,-2.264 -20.162,-4.006 -21.606,-4.726 -0.327,-0.163 -1.665,-0.608 -2.973,-0.988 -1.308,-0.38 -2.688,-0.855 -3.067,-1.055 -0.378,-0.2 -0.91,-0.363 -1.181,-0.363 -0.857,0 -10.61,-3.755 -16.168,-6.225 -6.707,-2.98 -15.408,-7.634 -23.191,-12.403 -2.773,-1.699 -9.735,-6.355 -10.109,-6.76 -0.109,-0.118 -2.161,-1.722 -4.559,-3.565 -2.399,-1.843 -4.812,-3.798 -5.362,-4.345 -0.551,-0.546 -1.888,-1.702 -2.973,-2.568 -2.467,-1.97 -14.139,-13.636 -16.164,-16.156 -0.827,-1.03 -1.723,-2.101 -1.99,-2.379 -0.267,-0.278 -1.195,-1.397 -2.063,-2.487 -0.867,-1.09 -1.67,-2.072 -1.784,-2.181 -0.398,-0.381 -4.194,-5.376 -6.176,-8.127 -2.088,-2.897 -8.88,-13.512 -8.88,-13.878 0,-0.116 -0.46,-0.939 -1.022,-1.83 -1.59,-2.519 -8.492,-16.509 -8.492,-17.213 0,-0.086 -0.456,-1.188 -1.014,-2.448 -1.38,-3.12 -1.604,-3.662 -2.177,-5.265 -0.273,-0.763 -0.716,-1.923 -0.985,-2.577 -0.937,-2.281 -3.855,-11.576 -4.542,-14.469 -0.384,-1.618 -1.46,-5.931 -1.978,-7.929 -4.166,-16.066 -5.351,-42.388 -2.83,-62.835 1.599,-12.967 7.017,-33.779 11.352,-43.607 0.289,-0.654 1.357,-3.152 2.375,-5.55 1.713,-4.037 6.229,-13.359 6.914,-14.272 0.163,-0.218 1.06,-1.823 1.992,-3.568 3.095,-5.793 15.298,-23.407 17.44,-25.173 0.132,-0.109 1.392,-1.625 2.799,-3.37 3.069,-3.804 14.023,-14.761 18.627,-18.632 1.815,-1.526 3.493,-2.962 3.729,-3.191 0.236,-0.229 1.499,-1.198 2.807,-2.153 1.308,-0.955 2.468,-1.85 2.577,-1.988 0.346,-0.439 8.015,-5.757 10.902,-7.559 1.526,-0.953 2.834,-1.873 2.907,-2.043 0.073,-0.171 0.292,-0.311 0.488,-0.311 0.195,0 1.296,-0.596 2.445,-1.324 4.549,-2.884 20.44,-10.965 21.563,-10.965 0.125,0 0.879,-0.286 1.675,-0.635 3.586,-1.574 8.857,-3.522 12.944,-4.785 1.09,-0.337 2.339,-0.747 2.775,-0.911 0.79,-0.297 4.482,-1.412 6.739,-2.035 0.654,-0.181 2.527,-0.616 4.163,-0.966 1.635,-0.351 4.043,-0.886 5.351,-1.19 5.985,-1.39 11.531,-2.207 20.02,-2.951 2.726,-0.239 5.134,-0.511 5.352,-0.606 0.713,-0.308 26.475,0.175 29.931,0.561 M 34.309,158.693 c -0.313,0.479 -0.845,2.298 -1.184,4.042 -0.338,1.745 -0.794,4.064 -1.012,5.154 -0.218,1.09 -0.66,3.855 -0.983,6.145 -0.323,2.289 -0.773,4.787 -1.001,5.55 -0.227,0.763 -0.518,6.293 -0.645,12.289 -0.309,14.502 0.435,24.925 2.587,36.274 1.292,6.811 1.662,8.551 2.236,10.505 0.353,1.199 0.736,2.762 0.852,3.473 0.116,0.71 0.37,1.39 0.564,1.51 0.194,0.119 0.352,0.509 0.352,0.864 0,0.782 1.861,6.935 2.625,8.683 0.301,0.687 0.547,1.402 0.547,1.588 0,0.379 2.483,6.811 3.342,8.659 0.305,0.654 1.032,2.26 1.617,3.568 2.085,4.664 5.529,11.53 6.816,13.586 0.719,1.148 1.307,2.177 1.307,2.286 0,0.109 0.892,1.636 1.982,3.393 1.09,1.758 1.982,3.279 1.982,3.38 0,0.101 0.179,0.399 0.398,0.662 0.218,0.263 1.927,2.683 3.796,5.376 13.295,19.157 34.453,38.593 53.706,49.335 0.97,0.541 2.745,1.539 3.944,2.218 3.347,1.894 12.636,6.384 13.208,6.384 0.28,0 0.678,0.156 0.885,0.345 0.207,0.19 2.25,1.087 4.539,1.995 2.289,0.907 4.472,1.822 4.851,2.034 0.379,0.211 0.961,0.384 1.294,0.384 0.333,0 0.915,0.16 1.294,0.356 0.936,0.485 6.335,2.186 10.202,3.214 1.745,0.464 4.867,1.298 6.938,1.853 2.071,0.555 4.747,1.161 5.946,1.347 1.2,0.186 3.519,0.624 5.154,0.974 12.217,2.616 43.812,2.606 55.302,-0.017 1.527,-0.349 3.756,-0.785 4.956,-0.97 2.22,-0.342 6.858,-1.463 11.496,-2.78 6.034,-1.714 10.949,-3.238 11.59,-3.595 0.379,-0.21 0.914,-0.382 1.19,-0.381 0.646,0.001 6.377,-2.303 9.99,-4.018 0.859,-0.407 1.703,-0.741 1.876,-0.741 0.422,0 10.27,-4.831 13.015,-6.384 1.199,-0.679 2.965,-1.672 3.923,-2.206 2.111,-1.178 11.26,-6.93 11.538,-7.254 0.109,-0.127 1.536,-1.206 3.172,-2.398 1.635,-1.192 3.151,-2.298 3.369,-2.459 0.218,-0.16 1.21,-0.964 2.205,-1.787 0.994,-0.823 2.591,-2.12 3.548,-2.883 0.957,-0.763 2.373,-1.923 3.145,-2.577 2.181,-1.846 13.858,-13.636 16.117,-16.273 1.112,-1.297 2.554,-2.984 3.205,-3.747 3.369,-3.952 12.498,-16.972 14.593,-20.813 0.475,-0.872 1.436,-2.566 2.133,-3.766 0.698,-1.199 2.441,-4.588 3.873,-7.532 4.619,-9.492 5.423,-11.324 7.487,-17.046 0.59,-1.636 1.223,-3.33 1.407,-3.767 0.184,-0.436 0.623,-1.774 0.976,-2.973 0.353,-1.199 0.806,-2.59 1.006,-3.091 0.201,-0.501 0.365,-1.261 0.365,-1.69 0,-0.429 0.159,-1.089 0.353,-1.468 0.322,-0.627 1.079,-3.207 2.004,-6.833 0.547,-2.144 1.232,-5.507 1.655,-8.127 1.838,-11.398 1.857,-11.566 2.478,-21.407 0.732,-11.607 0.101,-27.418 -1.349,-33.802 -0.211,-0.93 -0.384,-2.201 -0.384,-2.825 0,-2.113 -0.903,-2.289 -3.574,-0.697 -3.386,2.017 -21.664,10.961 -22.399,10.961 -0.118,0 -1.502,0.594 -3.077,1.32 -3.19,1.471 -6.265,2.731 -9.404,3.853 -1.833,0.655 -3.997,1.546 -4.851,1.996 -0.379,0.2 -0.887,0.363 -1.129,0.363 -0.243,0 -1.004,0.252 -1.691,0.559 -1.162,0.519 -10.071,3.393 -15.52,5.006 -1.309,0.387 -3.895,1.246 -5.749,1.908 -5.54,1.978 -18.916,5.063 -29.534,6.81 -2.616,0.431 -5.649,0.955 -6.739,1.166 -2.239,0.432 -14.142,1.757 -21.606,2.406 -15.585,1.354 -47.693,0.618 -60.654,-1.389 -2.071,-0.321 -5.282,-0.781 -7.136,-1.022 -6.621,-0.862 -18.941,-3.237 -26.957,-5.196 -14.36,-3.509 -24.101,-6.476 -36.273,-11.048 -3.925,-1.474 -11.775,-4.409 -17.444,-6.522 -5.668,-2.113 -11.184,-4.202 -12.256,-4.642 -1.073,-0.441 -3.57,-1.397 -5.55,-2.125 -10.961,-4.029 -13.759,-5.082 -17.795,-6.694 -2.441,-0.975 -6.668,-2.596 -9.394,-3.602 -2.725,-1.006 -5.936,-2.242 -7.135,-2.748 -1.2,-0.506 -3.476,-1.467 -5.059,-2.135 l -2.879,-1.216 -0.568,0.872 m 333.934,14.449 c 1.027,7.39 1.213,9.261 1.654,16.635 0.903,15.093 -2.096,41.805 -5.932,52.839 -0.19,0.546 -0.571,1.794 -0.848,2.775 -1.351,4.793 -5.309,15.799 -6.913,19.227 -4.025,8.597 -5.82,12.179 -8.391,16.747 -10.975,19.501 -27.166,38.063 -44.542,51.066 -1.418,1.061 -2.666,2.031 -2.775,2.156 -0.844,0.966 -12.525,8.494 -17.047,10.987 -3.953,2.178 -11.26,5.868 -13.479,6.806 -1.199,0.507 -2.945,1.264 -3.88,1.683 -8.012,3.59 -27.55,9.514 -35.565,10.784 -0.654,0.103 -2.259,0.384 -3.568,0.623 -14.012,2.56 -47.604,2.335 -55.857,-0.375 -0.632,-0.208 -1.649,-0.377 -2.26,-0.377 -0.612,0 -1.522,-0.159 -2.023,-0.352 -0.5,-0.194 -1.891,-0.571 -3.091,-0.839 -9.741,-2.176 -22.828,-6.342 -30.036,-9.56 -1.032,-0.461 -2.501,-1.106 -3.264,-1.433 C 96.238,337.883 64.693,307.538 47.892,273.142 39.981,256.945 36.298,245.791 32.513,226.561 c -0.373,-1.895 -1.428,-9.911 -1.799,-13.677 -1.139,-11.545 -0.77,-32.635 0.6,-34.286 0.533,-0.643 1.439,-0.8 1.656,-0.287 0.289,0.685 12.56,8.375 16.584,10.392 0.981,0.493 2.238,1.215 2.793,1.605 1.403,0.988 16.228,8.522 19.605,9.964 7.905,3.375 16.393,6.741 20.813,8.254 2.726,0.932 6.739,2.303 8.92,3.045 8.285,2.821 26.155,7.034 36.571,8.622 14.301,2.18 20.223,2.806 32.674,3.454 13.344,0.694 33.462,-0.124 46.315,-1.884 8.57,-1.174 25.327,-4.199 26.182,-4.727 0.118,-0.074 2.616,-0.686 5.55,-1.361 2.934,-0.675 6.048,-1.477 6.92,-1.782 0.872,-0.305 3.37,-1.039 5.55,-1.632 2.18,-0.593 5.927,-1.781 8.325,-2.639 2.398,-0.859 5.61,-1.973 7.136,-2.477 2.643,-0.873 3.937,-1.384 7.532,-2.973 0.872,-0.385 2.647,-1.091 3.943,-1.568 1.297,-0.477 2.813,-1.111 3.37,-1.408 1.687,-0.903 7.977,-3.773 8.27,-3.774 0.151,-0.001 1.612,-0.551 3.248,-1.222 1.635,-0.672 4.4,-1.64 6.144,-2.152 6.159,-1.806 16.296,-5.293 19.106,-6.572 0.915,-0.416 1.814,-0.756 1.999,-0.756 0.414,0 6.255,-2.379 12.592,-5.129 5.689,-2.469 19.574,-9.365 21.804,-10.83 2.585,-1.698 2.78,-1.559 3.327,2.381"
       inkscape:connector-curvature="0"
       style="fill:#a5b9fe;fill-rule:evenodd;stroke:none" />
  </g>
  <text
     xml:space="preserve"
     style="font-style:normal;font-weight:normal;font-size:40px;line-height:1.25;font-family:sans-serif;letter-spacing:0px;word-spacing:0px;fill:#000000;fill-opacity:1;stroke:none"
     x="55.862617"
     y="160.68915"
     id="text15"><tspan
       sodipodi:role="line"
       id="tspan13"
       x="55.862617"
       y="160.68915"
       style="font-style:normal;font-variant:normal;font-weight:normal;font-stretch:normal;font-size:133.33332825px;font-family:'Epic Fusion';-inkscape-font-specification:'Epic Fusion'">epic</tspan></text>
  <text
     xml:space="preserve"
     style="font-style:normal;font-weight:normal;font-size:40px;line-height:1.25;font-family:sans-serif;letter-spacing:0px;word-spacing:0px;fill:#000000;fill-opacity:1;stroke:none"
     x="77.613487"
     y="270.91266"
     id="text19"><tspan
       sodipodi:role="line"
       id="tspan17"
       x="77.613487"
       y="270.91266"
       style="font-style:normal;font-variant:normal;font-weight:normal;font-stretch:normal;font-size:51.2px;line-height:5.25;font-family:'Epic Fusion';-inkscape-font-specification:'Epic Fusion'">consulting</tspan></text>
</svg>
