<?xml version="1.0" encoding="UTF-8" standalone="no"?>
<svg
   xmlns:dc="http://purl.org/dc/elements/1.1/"
   xmlns:cc="http://creativecommons.org/ns#"
   xmlns:rdf="http://www.w3.org/1999/02/22-rdf-syntax-ns#"
   xmlns:svg="http://www.w3.org/2000/svg"
   xmlns="http://www.w3.org/2000/svg"
   xmlns:sodipodi="http://sodipodi.sourceforge.net/DTD/sodipodi-0.dtd"
   xmlns:inkscape="http://www.inkscape.org/namespaces/inkscape"
   id="svg"
   version="1.1"
   width="175.4787"
   height="108.65533"
   style="display:block"
   inkscape:version="0.91 r13725"
   sodipodi:docname="fc.svg">
  <metadata
     id="metadata12">
    <rdf:RDF>
      <cc:Work
         rdf:about="">
        <dc:format>image/svg+xml</dc:format>
        <dc:type
           rdf:resource="http://purl.org/dc/dcmitype/StillImage" />
        <dc:title></dc:title>
      </cc:Work>
    </rdf:RDF>
  </metadata>
  <defs
     id="defs10" />
  <sodipodi:namedview
     pagecolor="#ffffff"
     bordercolor="#666666"
     borderopacity="1"
     objecttolerance="10"
     gridtolerance="10"
     guidetolerance="10"
     inkscape:pageopacity="0"
     inkscape:pageshadow="2"
     inkscape:window-width="640"
     inkscape:window-height="480"
     id="namedview8"
     showgrid="false"
     fit-margin-top="0"
     fit-margin-left="0"
     fit-margin-right="0"
     fit-margin-bottom="0"
     inkscape:zoom="0.35"
     inkscape:cx="96.019146"
     inkscape:cy="37.750732"
     inkscape:window-x="0"
     inkscape:window-y="0"
     inkscape:window-maximized="0"
     inkscape:current-layer="svg" />
  <g
     id="svgg"
     transform="translate(-119.30883,-30.782062)">
    <path
       id="path0"
       d="m 207.417,49.509 c -2.595,0.4 -3.828,0.729 -4.695,1.251 -0.817,0.492 -0.987,0.533 -1.88,0.452 -1.889,-0.171 -7.675,1.949 -7.675,2.812 0,0.237 -0.966,0.643 -1.534,0.645 -1.564,0.007 -5.533,2.922 -6.849,5.031 -0.154,0.247 -0.623,0.601 -1.041,0.786 -1.746,0.772 -5.41,4.874 -5.41,6.057 0,0.17 -0.361,0.7 -0.803,1.175 -1.455,1.566 -2.989,4.661 -3.445,6.949 -0.118,0.595 -0.418,1.608 -0.667,2.25 -0.985,2.545 -0.722,4.3 0.715,4.776 1.082,0.359 18.537,0.267 19.402,-0.102 0.157,-0.067 0.334,-0.273 0.393,-0.459 0.058,-0.185 0.501,-0.916 0.984,-1.625 0.483,-0.709 1.001,-1.66 1.151,-2.113 0.204,-0.613 0.554,-1.096 1.36,-1.875 0.597,-0.577 1.226,-1.324 1.397,-1.659 0.364,-0.712 4.03,-3.148 5.543,-3.684 0.488,-0.172 1.337,-0.5 1.887,-0.728 0.55,-0.228 1.45,-0.463 2,-0.522 0.55,-0.058 1.607,-0.188 2.348,-0.289 1.72,-0.233 5.398,0.178 7.751,0.867 0.88,0.257 1.951,0.521 2.38,0.585 0.437,0.065 0.869,0.243 0.984,0.403 0.343,0.482 2.224,1.677 2.985,1.898 0.609,0.176 0.784,0.333 1.153,1.029 0.238,0.452 0.892,1.243 1.451,1.758 0.84,0.772 1.049,1.073 1.195,1.727 0.205,0.916 0.648,1.835 1.17,2.429 0.201,0.23 0.5,0.679 0.665,1 0.751,1.464 1.084,1.511 10.888,1.551 8.804,0.037 9.608,-0.02 10.308,-0.72 0.851,-0.85 0.587,-3.367 -0.527,-5.036 -0.536,-0.802 -0.668,-1.152 -0.672,-1.772 -0.011,-2.091 -1.414,-5.064 -3.269,-6.925 -0.675,-0.677 -1.227,-1.362 -1.227,-1.523 0,-0.649 -1.27,-2.535 -2.575,-3.825 -1.306,-1.289 -1.814,-1.639 -3.126,-2.152 -0.453,-0.177 -0.688,-0.408 -0.878,-0.865 -0.583,-1.395 -5.072,-4.399 -6.573,-4.399 -0.755,0 -1.301,-0.269 -1.878,-0.926 -1.174,-1.337 -5.765,-3.021 -7.727,-2.835 -0.895,0.086 -1.071,0.05 -1.569,-0.317 -1.315,-0.971 -3.075,-1.173 -9.34,-1.075 -0.413,0.006 -1.425,-0.027 -2.25,-0.074 -0.825,-0.047 -1.95,-0.016 -2.5,0.069"
       inkscape:connector-curvature="0"
       style="fill:#f3c20b;fill-rule:evenodd;stroke:none" />
    <path
       id="path1"
       d="m 294.161,30.915 c -0.221,0.223 -0.9,0.822 -1.961,1.728 -0.21,0.18 -0.693,0.577 -1.072,0.884 -0.38,0.306 -0.929,0.781 -1.222,1.056 -0.293,0.275 -0.958,0.875 -1.478,1.334 -0.521,0.458 -1.153,1.021 -1.407,1.25 -0.253,0.229 -1.092,0.989 -1.865,1.689 -0.773,0.7 -1.968,1.751 -2.656,2.336 -0.687,0.585 -1.447,1.25 -1.688,1.477 -0.24,0.228 -0.66,0.602 -0.933,0.831 -0.815,0.686 -3.046,2.681 -4.208,3.763 -0.598,0.557 -1.62,1.463 -2.27,2.015 -1.507,1.278 -1.857,1.591 -4.234,3.782 -0.229,0.211 -1.242,1.089 -2.25,1.951 -1.009,0.862 -1.927,1.692 -2.04,1.845 -0.77,1.038 -2.691,0.694 -4.546,-0.814 -0.254,-0.206 -1.013,-0.643 -1.688,-0.973 -0.674,-0.329 -1.414,-0.696 -1.643,-0.816 -1.902,-0.997 -4.865,-2.419 -5.373,-2.58 -0.342,-0.109 -0.665,-0.267 -0.718,-0.352 -0.052,-0.085 -0.233,-0.154 -0.402,-0.154 -0.169,0 -0.72,-0.218 -1.226,-0.484 -0.506,-0.266 -1.169,-0.532 -1.475,-0.591 -0.306,-0.059 -0.894,-0.247 -1.306,-0.418 -1.06,-0.439 -2.695,-0.977 -4.25,-1.4 -0.733,-0.199 -1.483,-0.446 -1.667,-0.548 -0.183,-0.103 -0.596,-0.241 -0.916,-0.308 -0.321,-0.066 -0.809,-0.253 -1.084,-0.415 -0.275,-0.161 -0.95,-0.339 -1.5,-0.394 -0.55,-0.055 -1.412,-0.22 -1.916,-0.365 -0.505,-0.146 -1.555,-0.396 -2.334,-0.558 -0.779,-0.161 -1.641,-0.409 -1.916,-0.552 -0.275,-0.142 -1.1,-0.313 -1.834,-0.38 -0.733,-0.066 -1.745,-0.256 -2.25,-0.422 -0.504,-0.166 -1.366,-0.347 -1.916,-0.402 -0.55,-0.056 -1.75,-0.242 -2.667,-0.415 -2.155,-0.405 -3.966,-0.644 -5.833,-0.768 -0.825,-0.055 -2.025,-0.203 -2.667,-0.33 -3.873,-0.765 -25.354,-0.768 -29.25,-0.004 -0.687,0.135 -2.15,0.365 -3.25,0.51 -1.1,0.146 -2.477,0.41 -3.059,0.587 -0.583,0.178 -1.261,0.323 -1.507,0.323 -0.246,0 -0.894,0.122 -1.441,0.27 -0.546,0.148 -1.593,0.402 -2.326,0.564 -1.9,0.42 -4.58,1.15 -5.167,1.407 -0.275,0.121 -0.913,0.312 -1.417,0.425 -0.504,0.113 -1.075,0.304 -1.268,0.425 -0.194,0.121 -0.782,0.333 -1.308,0.47 -0.525,0.137 -1.079,0.36 -1.231,0.494 -0.152,0.135 -0.614,0.343 -1.026,0.461 -0.413,0.119 -0.9,0.305 -1.083,0.415 -0.184,0.109 -0.596,0.282 -0.917,0.384 -0.321,0.102 -0.952,0.373 -1.403,0.602 -0.451,0.229 -0.911,0.417 -1.022,0.417 -0.11,0 -0.291,0.109 -0.402,0.242 -0.11,0.133 -0.626,0.365 -1.145,0.516 -0.52,0.15 -1.034,0.347 -1.144,0.437 -0.246,0.202 -1.071,0.646 -3.176,1.707 -0.894,0.451 -1.751,0.926 -1.905,1.057 -0.154,0.131 -0.504,0.362 -0.777,0.514 -0.274,0.152 -0.807,0.449 -1.185,0.659 -0.379,0.21 -0.835,0.528 -1.015,0.708 -0.179,0.179 -0.392,0.326 -0.474,0.326 -0.202,0 -2.096,1.275 -2.352,1.584 -0.114,0.137 -0.299,0.25 -0.411,0.25 -0.112,0 -0.334,0.143 -0.492,0.318 -0.158,0.175 -0.517,0.413 -0.797,0.529 -0.281,0.116 -0.681,0.367 -0.889,0.557 -1.272,1.158 -2.246,2.006 -2.846,2.476 -1.173,0.919 -2.98,2.532 -3.743,3.343 -0.402,0.427 -0.789,0.777 -0.861,0.777 -0.14,0 -1.647,1.513 -3.593,3.608 -2.031,2.187 -2.527,2.759 -3.481,4.017 -0.504,0.664 -0.987,1.208 -1.074,1.208 -0.086,0 -0.202,0.131 -0.258,0.292 -0.161,0.466 -1.277,2.104 -1.597,2.342 -0.16,0.12 -0.291,0.316 -0.291,0.436 0,0.12 -0.207,0.488 -0.459,0.819 -0.252,0.33 -0.675,0.959 -0.94,1.398 -0.265,0.438 -0.672,1.096 -0.904,1.463 -0.232,0.367 -0.588,0.929 -0.791,1.25 -1.027,1.62 -1.019,2.935 0.025,4.204 0.206,0.25 0.422,0.674 0.481,0.941 0.058,0.268 0.252,0.619 0.43,0.78 0.179,0.161 0.327,0.375 0.331,0.476 0.004,0.1 0.229,0.442 0.5,0.759 0.271,0.318 0.493,0.665 0.493,0.772 0,0.106 0.118,0.292 0.263,0.411 0.144,0.12 0.408,0.486 0.586,0.813 0.178,0.326 0.585,0.931 0.904,1.344 0.32,0.412 0.631,0.862 0.692,1 0.061,0.138 0.342,0.526 0.625,0.862 0.282,0.337 0.889,1.112 1.347,1.722 0.458,0.611 1.025,1.31 1.26,1.555 0.234,0.244 1.042,1.17 1.795,2.057 0.753,0.886 1.437,1.636 1.52,1.666 0.083,0.03 1,0.866 2.038,1.857 1.038,0.991 2.037,1.935 2.22,2.096 0.612,0.54 3.323,2.765 4.167,3.42 0.458,0.355 0.946,0.77 1.083,0.921 0.138,0.15 0.7,0.528 1.25,0.839 0.55,0.311 1.379,0.886 1.842,1.277 0.462,0.391 1.175,0.867 1.583,1.057 0.408,0.19 1.205,0.663 1.77,1.05 0.565,0.387 1.416,0.929 1.891,1.204 0.475,0.275 1.062,0.653 1.305,0.84 0.244,0.187 0.968,0.589 1.609,0.893 1.134,0.537 1.434,0.684 2.042,1.004 0.702,0.369 2.511,1.155 3.081,1.338 0.342,0.11 0.664,0.267 0.715,0.35 0.051,0.082 0.409,0.233 0.794,0.334 0.386,0.102 0.889,0.31 1.118,0.462 0.481,0.32 1.942,0.903 3.492,1.392 0.591,0.187 1.228,0.435 1.416,0.551 0.188,0.116 0.706,0.299 1.149,0.405 0.444,0.107 0.969,0.294 1.167,0.416 0.198,0.122 0.847,0.32 1.443,0.439 0.596,0.12 1.327,0.318 1.625,0.441 0.298,0.123 1.07,0.334 1.715,0.47 0.645,0.136 1.376,0.35 1.625,0.475 0.248,0.126 1.045,0.28 1.77,0.344 0.725,0.063 1.737,0.259 2.25,0.434 0.512,0.176 1.719,0.393 2.682,0.483 0.962,0.09 2.2,0.275 2.75,0.411 3.494,0.862 26.228,0.936 31.25,0.101 0.504,-0.084 2.079,-0.272 3.5,-0.418 1.421,-0.146 2.937,-0.38 3.369,-0.521 0.432,-0.141 1.857,-0.353 3.167,-0.47 1.381,-0.124 2.641,-0.328 3,-0.485 0.341,-0.15 0.943,-0.272 1.339,-0.272 0.395,0 1.129,-0.118 1.63,-0.262 0.501,-0.144 1.862,-0.438 3.024,-0.654 1.162,-0.216 2.263,-0.473 2.447,-0.571 0.184,-0.099 0.878,-0.294 1.542,-0.434 0.664,-0.139 1.287,-0.32 1.386,-0.402 0.098,-0.081 0.742,-0.3 1.429,-0.486 0.688,-0.186 1.693,-0.492 2.234,-0.681 0.542,-0.189 1.098,-0.343 1.237,-0.343 0.139,0 0.371,-0.103 0.516,-0.228 0.243,-0.211 0.938,-0.477 3.096,-1.183 0.459,-0.15 1.121,-0.425 1.473,-0.611 0.352,-0.186 1.005,-0.447 1.451,-0.579 0.447,-0.133 0.858,-0.316 0.915,-0.407 0.167,-0.27 1.965,-1.123 2.631,-1.248 0.339,-0.063 0.796,-0.256 1.015,-0.428 0.218,-0.173 0.724,-0.463 1.123,-0.646 0.399,-0.183 0.838,-0.41 0.976,-0.503 0.137,-0.094 0.512,-0.286 0.833,-0.426 0.78,-0.341 1.954,-1.025 3.032,-1.765 1.612,-1.107 2.603,-1.544 3.044,-1.344 0.336,0.154 4.04,3.248 4.507,3.766 0.092,0.102 0.73,0.671 1.417,1.266 0.688,0.594 1.408,1.231 1.6,1.416 0.193,0.185 0.784,0.711 1.313,1.17 0.529,0.458 1.122,0.99 1.316,1.181 0.195,0.192 0.993,0.905 1.773,1.584 0.781,0.679 1.582,1.385 1.78,1.568 0.199,0.183 0.783,0.708 1.297,1.167 0.515,0.458 1.1,0.983 1.301,1.166 0.2,0.184 0.71,0.634 1.132,1 0.849,0.737 3.433,3.039 4.751,4.234 0.465,0.421 1.28,1.141 1.811,1.6 0.532,0.458 1.051,0.93 1.154,1.049 0.289,0.332 1.738,1.569 4.314,3.685 0.71,0.583 1.296,1.144 1.302,1.246 0.006,0.103 0.084,0.002 0.174,-0.223 0.206,-0.515 0.203,-6.681 -0.003,-7.203 -0.084,-0.213 -0.722,-0.948 -1.417,-1.633 -0.696,-0.686 -1.265,-1.301 -1.265,-1.368 0,-0.067 -0.168,-0.303 -0.375,-0.525 -1.417,-1.523 -4.06,-5.28 -5.291,-7.521 -0.413,-0.751 -0.873,-1.547 -1.023,-1.77 -0.276,-0.41 -0.528,-0.868 -1.139,-2.071 -0.186,-0.366 -0.451,-0.812 -0.588,-0.99 -0.138,-0.178 -0.25,-0.435 -0.25,-0.571 0,-0.136 -0.254,-0.778 -0.564,-1.426 -0.761,-1.594 -1.027,-2.225 -1.267,-3.013 -0.112,-0.366 -0.383,-1.037 -0.603,-1.491 -0.22,-0.453 -0.4,-0.925 -0.4,-1.048 0,-0.123 -0.153,-0.524 -0.34,-0.891 -0.187,-0.367 -0.416,-1.075 -0.508,-1.573 -0.092,-0.498 -0.309,-1.227 -0.482,-1.618 -0.173,-0.392 -0.365,-1.125 -0.428,-1.629 -0.062,-0.504 -0.219,-1.085 -0.348,-1.292 -0.13,-0.206 -0.343,-1.106 -0.474,-2 -0.132,-0.893 -0.348,-1.924 -0.48,-2.291 -0.133,-0.367 -0.293,-1.454 -0.356,-2.417 -0.063,-0.962 -0.229,-2.275 -0.37,-2.916 -0.326,-1.495 -0.491,-9.693 -0.236,-11.75 0.096,-0.78 0.328,-2.691 0.515,-4.247 0.187,-1.557 0.446,-3.169 0.576,-3.584 0.129,-0.414 0.283,-1.278 0.341,-1.919 0.058,-0.642 0.244,-1.467 0.415,-1.834 0.17,-0.366 0.362,-1.04 0.425,-1.496 0.063,-0.456 0.248,-1.093 0.409,-1.416 0.162,-0.323 0.342,-0.9 0.401,-1.281 0.058,-0.382 0.362,-1.357 0.675,-2.167 0.532,-1.378 1.404,-3.719 2.101,-5.64 0.427,-1.177 1.883,-3.974 3.081,-5.922 0.275,-0.447 0.725,-1.201 1,-1.675 0.275,-0.474 0.612,-0.988 0.75,-1.141 0.137,-0.153 0.402,-0.552 0.587,-0.885 0.185,-0.334 0.61,-0.93 0.945,-1.325 0.334,-0.395 1.066,-1.281 1.625,-1.968 1.925,-2.365 2.684,-3.203 3.755,-4.142 0.862,-0.755 0.962,-1.396 0.825,-5.275 -0.119,-3.389 -0.179,-3.737 -0.576,-3.335 m -78.066,15.247 c 3.73,0.208 9.287,1.293 11.441,2.234 0.341,0.149 0.756,0.271 0.921,0.271 0.166,0 0.75,0.222 1.297,0.494 0.548,0.273 1.082,0.498 1.188,0.5 0.106,0.003 1.006,0.417 2,0.92 0.994,0.502 1.903,0.915 2.019,0.916 0.332,0.005 2.099,1.039 2.34,1.371 0.12,0.164 0.3,0.299 0.401,0.299 0.101,0 0.415,0.171 0.699,0.38 0.284,0.21 0.703,0.466 0.932,0.57 0.23,0.104 1.329,0.964 2.444,1.911 1.116,0.947 2.334,1.943 2.709,2.212 0.374,0.27 0.681,0.553 0.681,0.628 0,0.076 0.454,0.606 1.009,1.177 1.17,1.203 1.229,1.273 1.997,2.344 0.317,0.443 0.783,1.053 1.035,1.355 0.252,0.303 0.459,0.588 0.459,0.634 0,0.046 0.293,0.524 0.65,1.061 0.621,0.932 0.941,1.486 2.055,3.561 1.074,2 2.29,5.302 2.639,7.167 0.112,0.595 0.271,1.216 0.355,1.379 0.714,1.401 0.754,12.316 0.049,13.457 -0.059,0.095 -0.248,0.827 -0.421,1.627 -0.392,1.82 -0.948,3.441 -1.794,5.229 -0.362,0.765 -0.818,1.728 -1.013,2.141 -0.195,0.412 -0.573,1.125 -0.84,1.583 -0.266,0.459 -0.592,1.059 -0.723,1.334 -0.132,0.275 -0.363,0.603 -0.515,0.728 -0.152,0.126 -0.276,0.306 -0.276,0.401 0,0.185 -0.806,1.332 -1.533,2.179 -0.247,0.289 -0.622,0.732 -0.833,0.984 -0.211,0.253 -0.759,0.865 -1.217,1.36 -0.458,0.494 -0.974,1.102 -1.147,1.35 -0.172,0.248 -0.558,0.596 -0.858,0.772 -0.299,0.177 -0.711,0.563 -0.914,0.857 -0.204,0.294 -0.776,0.835 -1.271,1.202 -0.495,0.367 -1.067,0.801 -1.272,0.965 -0.204,0.163 -0.859,0.61 -1.455,0.992 -0.596,0.382 -1.14,0.786 -1.209,0.898 -0.07,0.112 -0.407,0.293 -0.75,0.404 -0.343,0.11 -0.75,0.31 -0.904,0.444 -0.474,0.414 -4.26,2.38 -4.582,2.38 -0.099,0 -0.268,0.106 -0.376,0.236 -0.107,0.129 -0.585,0.326 -1.062,0.437 -0.477,0.111 -1.092,0.336 -1.367,0.5 -0.275,0.164 -0.929,0.377 -1.454,0.473 -0.525,0.096 -1.134,0.292 -1.353,0.436 -0.219,0.144 -0.952,0.368 -1.629,0.499 -0.677,0.13 -1.643,0.317 -2.147,0.415 -2.415,0.471 -3.307,0.571 -6.25,0.704 -1.742,0.078 -3.504,0.148 -3.917,0.154 -1.279,0.021 -7.321,-0.327 -7.684,-0.443 -0.189,-0.06 -0.918,-0.209 -1.621,-0.331 -2.139,-0.372 -3.461,-0.706 -4.135,-1.044 -0.354,-0.177 -1.015,-0.371 -1.47,-0.43 -0.455,-0.06 -1.114,-0.258 -1.464,-0.441 -0.35,-0.182 -0.735,-0.331 -0.856,-0.331 -0.121,0 -0.555,-0.178 -0.964,-0.396 -0.41,-0.218 -0.927,-0.449 -1.15,-0.514 -0.596,-0.173 -2.956,-1.262 -3.809,-1.757 -0.236,-0.138 -0.861,-0.501 -1.388,-0.808 -0.527,-0.306 -0.959,-0.618 -0.959,-0.692 0,-0.074 -0.21,-0.207 -0.467,-0.297 -0.257,-0.089 -0.929,-0.547 -1.493,-1.016 -0.564,-0.47 -1.09,-0.854 -1.169,-0.854 -0.079,0 -0.302,-0.168 -0.496,-0.375 -0.193,-0.206 -0.738,-0.637 -1.21,-0.958 -1.742,-1.183 -6.813,-6.975 -7.733,-8.833 -0.068,-0.138 -0.38,-0.7 -0.694,-1.25 -0.314,-0.55 -0.73,-1.338 -0.925,-1.75 -0.195,-0.413 -0.677,-1.432 -1.071,-2.265 -0.394,-0.833 -0.771,-1.804 -0.837,-2.157 -0.066,-0.353 -0.253,-0.872 -0.416,-1.152 -0.162,-0.28 -0.349,-1.029 -0.414,-1.665 -0.066,-0.635 -0.252,-1.46 -0.414,-1.833 -0.732,-1.691 -0.782,-11.638 -0.069,-13.656 0.134,-0.379 0.362,-1.251 0.505,-1.939 0.144,-0.687 0.355,-1.4 0.47,-1.583 0.115,-0.184 0.307,-0.692 0.427,-1.13 0.12,-0.437 0.278,-0.832 0.35,-0.876 0.071,-0.045 0.292,-0.567 0.49,-1.161 0.197,-0.594 0.434,-1.126 0.526,-1.183 0.093,-0.057 0.312,-0.414 0.489,-0.794 0.176,-0.379 0.589,-1.177 0.918,-1.773 0.329,-0.596 0.705,-1.282 0.836,-1.524 0.131,-0.243 0.349,-0.533 0.484,-0.646 0.136,-0.112 0.247,-0.296 0.247,-0.408 0,-0.112 0.153,-0.343 0.341,-0.512 0.187,-0.17 0.501,-0.594 0.697,-0.943 0.196,-0.348 0.404,-0.634 0.461,-0.634 0.058,0 0.626,-0.637 1.261,-1.416 0.636,-0.779 1.284,-1.458 1.439,-1.509 0.156,-0.05 0.33,-0.238 0.387,-0.417 0.056,-0.178 0.162,-0.324 0.235,-0.324 0.073,0 0.578,-0.432 1.122,-0.959 1.23,-1.19 2.715,-2.483 3.272,-2.848 0.233,-0.152 0.773,-0.522 1.201,-0.822 0.428,-0.3 1.079,-0.712 1.447,-0.917 0.369,-0.204 1.019,-0.572 1.445,-0.818 1.84,-1.061 5.164,-2.617 5.807,-2.719 0.384,-0.06 0.787,-0.217 0.895,-0.347 0.109,-0.13 0.265,-0.237 0.347,-0.237 0.082,0 0.822,-0.263 1.643,-0.583 0.821,-0.321 1.663,-0.587 1.871,-0.591 0.208,-0.004 0.679,-0.122 1.045,-0.263 1.587,-0.609 5.538,-1.24 8.667,-1.385 3.871,-0.18 4.389,-0.181 7.345,-0.016 m -75.694,23.001 c 2.894,0.474 3.786,3.81 1.313,4.907 -0.347,0.154 -0.761,0.351 -0.92,0.438 -1.167,0.64 -3.423,-0.503 -3.818,-1.934 -0.364,-1.319 0.599,-2.995 1.954,-3.4 0.268,-0.08 0.487,-0.151 0.487,-0.159 0,-0.007 0.443,0.059 0.984,0.148"
       inkscape:connector-curvature="0"
       style="fill:#0e1b8d;fill-rule:evenodd;stroke:none"
       sodipodi:nodetypes="cccsccscccccccccccccssscccccsccccccccccccscccscccccsssccccsccsscssccccsccsccsccsccccccscccsccccsscccscsssccccccccscscssccccccssccssscccccsccsccccscccccccccccccccccccscsscccccscccsssccccccccccccscccccscccccccccscccccsccccscccscccccccccccsccccccscscccscsssscccccccccsccccsccscccscsscccccccccccsccsccscccsccsccccscsccccccccsc" />
    <path
       id="path2"
       d="m 111.82,9.75 c -1.207,0.146 -2.054,0.351 -2.683,0.648 -0.506,0.24 -0.995,0.435 -1.088,0.435 -0.094,0 -0.44,0.207 -0.769,0.459 -0.33,0.252 -0.863,0.646 -1.184,0.875 -1.669,1.19 -3.245,3.839 -3.57,6 -0.274,1.818 -0.279,132.067 -0.006,133.833 0.487,3.148 2.89,6.255 5.636,7.288 0.314,0.119 0.689,0.321 0.833,0.45 0.315,0.282 2.102,0.762 2.838,0.762 0.29,0 0.669,0.076 0.842,0.168 0.172,0.092 0.486,0.174 0.697,0.182 3.121,0.115 188.396,-0.056 188.617,-0.174 0.163,-0.087 0.909,-0.236 1.658,-0.33 3.596,-0.45 6.995,-3.203 8.328,-6.741 l 0.448,-1.188 0,-67.417 0,-67.417 -0.354,-0.75 c -0.194,-0.412 -0.41,-0.937 -0.481,-1.166 -0.15,-0.491 -1.074,-1.888 -1.31,-1.982 -0.089,-0.036 -0.765,-0.628 -1.5,-1.315 -1.786,-1.671 -3.127,-2.314 -5.371,-2.574 C 300.85,9.501 114.246,9.455 111.82,9.75 m 190.513,0.798 c 1.307,0.06 1.726,0.149 2.4,0.512 0.449,0.242 0.951,0.44 1.114,0.44 0.164,0 0.765,0.375 1.336,0.833 0.571,0.459 1.094,0.834 1.162,0.834 0.466,0 2.361,2.962 2.673,4.177 0.204,0.798 0.375,128.247 0.179,133.573 -0.12,3.239 -2.576,6.859 -5.2,7.663 -0.227,0.069 -0.826,0.324 -1.33,0.565 l -0.917,0.438 -95.417,0.05 c -99.747,0.053 -97.145,0.07 -98.489,-0.65 -0.324,-0.174 -0.711,-0.316 -0.86,-0.316 -0.149,0 -0.555,-0.225 -0.901,-0.5 -0.346,-0.275 -0.675,-0.501 -0.731,-0.501 -0.156,-0.001 -2.185,-1.925 -2.185,-2.072 0,-0.071 -0.225,-0.462 -0.5,-0.869 -0.275,-0.407 -0.585,-1.093 -0.691,-1.524 -0.105,-0.432 -0.258,-0.916 -0.34,-1.078 -0.087,-0.171 -0.152,-28.014 -0.157,-67 l -0.007,-66.706 0.396,-1.167 c 0.896,-2.638 3.104,-5.063 5.241,-5.754 0.353,-0.114 0.941,-0.361 1.308,-0.547 0.522,-0.266 1.118,-0.361 2.75,-0.436 2.377,-0.11 186.745,-0.075 189.166,0.035 m -188.741,2.437 c -0.051,0.084 -0.412,0.202 -0.801,0.262 -1.073,0.166 -1.859,0.44 -2.013,0.702 -0.076,0.13 -0.327,0.308 -0.558,0.396 -0.23,0.087 -0.458,0.308 -0.506,0.49 -0.047,0.183 -0.173,0.332 -0.28,0.332 -0.382,0 -1.252,0.977 -1.796,2.02 l -0.555,1.063 0,66.75 0,66.75 0.514,1.083 c 0.959,2.024 2.504,3.366 4.7,4.083 l 1.286,0.42 93.917,-0.004 93.917,-0.004 1.122,-0.397 c 0.617,-0.218 1.354,-0.592 1.638,-0.831 0.283,-0.238 0.605,-0.433 0.714,-0.433 0.19,0 1.456,-1.145 1.902,-1.719 0.116,-0.149 0.416,-0.817 0.667,-1.484 L 307.917,151.25 307.91,85 307.904,18.75 307.447,17.668 c -0.795,-1.884 -3.182,-3.955 -4.986,-4.327 -0.525,-0.108 -0.998,-0.267 -1.051,-0.352 -0.129,-0.208 -187.689,-0.211 -187.818,-0.004 m 187.386,0.974 c 1.704,0.161 1.966,0.23 2.61,0.693 0.394,0.283 0.785,0.515 0.869,0.515 0.085,0 0.254,0.187 0.376,0.416 0.123,0.23 0.279,0.417 0.347,0.417 0.069,0 0.412,0.506 0.764,1.125 l 0.639,1.125 0,66.833 0,66.834 -0.479,0.916 c -0.893,1.708 -2.425,2.834 -4.584,3.371 l -1.437,0.357 -92.583,-0.006 -92.583,-0.005 -1.466,-0.344 c -2.066,-0.483 -4.304,-2.025 -4.788,-3.298 C 107.972,151.091 108,153.92 108,84.899 l 0,-65.414 0.424,-1.311 c 0.234,-0.721 0.534,-1.353 0.667,-1.404 0.133,-0.051 0.242,-0.193 0.242,-0.314 0,-0.274 1.022,-1.244 1.917,-1.821 0.834,-0.538 1.382,-0.669 2.75,-0.657 0.596,0.004 1.346,-0.056 1.667,-0.135 0.887,-0.219 182.97,-0.105 185.311,0.116 m -7.405,16.825 c -0.452,0.418 -1.161,1.078 -1.573,1.468 -0.413,0.39 -1.095,0.999 -1.518,1.354 -0.422,0.354 -1.472,1.275 -2.333,2.047 -0.861,0.771 -2.162,1.933 -2.89,2.583 -0.728,0.649 -1.471,1.324 -1.651,1.499 -0.18,0.175 -0.859,0.768 -1.509,1.317 -0.65,0.55 -1.257,1.087 -1.349,1.192 -0.151,0.175 -2.845,2.575 -5.245,4.673 -0.524,0.458 -1.834,1.621 -2.91,2.583 -1.077,0.962 -2.42,2.154 -2.984,2.648 -1.668,1.457 -3.423,3.036 -4.497,4.045 -1.472,1.383 -2.535,1.284 -4.622,-0.428 -0.234,-0.192 -1.434,-0.862 -2.667,-1.49 -1.233,-0.627 -2.354,-1.205 -2.492,-1.283 -0.788,-0.447 -3.886,-1.83 -4.666,-2.082 -0.505,-0.163 -1.104,-0.428 -1.334,-0.588 -0.229,-0.16 -1.054,-0.494 -1.833,-0.743 -0.779,-0.248 -2.167,-0.7 -3.083,-1.003 -0.917,-0.304 -2.342,-0.754 -3.167,-1.001 -0.825,-0.247 -1.763,-0.581 -2.083,-0.742 -0.321,-0.162 -0.996,-0.345 -1.5,-0.408 -0.505,-0.062 -1.555,-0.291 -2.334,-0.507 -0.779,-0.216 -1.716,-0.443 -2.083,-0.503 -0.367,-0.06 -1.229,-0.285 -1.917,-0.499 -0.687,-0.214 -1.625,-0.437 -2.083,-0.495 -0.458,-0.059 -1.471,-0.245 -2.25,-0.415 -2.117,-0.462 -5.109,-0.984 -6.333,-1.106 -0.596,-0.059 -1.271,-0.179 -1.5,-0.266 -0.229,-0.088 -1.354,-0.23 -2.5,-0.318 -1.146,-0.087 -2.871,-0.264 -3.834,-0.392 -5.788,-0.773 -23.379,-0.675 -28.771,0.161 -8.094,1.255 -19.631,4.215 -22.16,5.685 -0.375,0.218 -0.781,0.397 -0.903,0.397 -0.122,0 -1.39,0.534 -2.819,1.188 -1.428,0.654 -2.859,1.282 -3.18,1.396 -0.484,0.172 -1.89,0.913 -3,1.581 -0.138,0.083 -0.663,0.348 -1.167,0.588 -0.879,0.421 -2.726,1.494 -4.212,2.449 -0.387,0.249 -0.967,0.608 -1.288,0.798 -0.321,0.19 -0.883,0.568 -1.25,0.84 -0.366,0.272 -1.191,0.845 -1.833,1.275 -1.171,0.782 -2.245,1.611 -3.515,2.711 -0.375,0.325 -0.966,0.815 -1.312,1.09 -0.347,0.275 -1.268,1.1 -2.048,1.834 -0.779,0.733 -1.651,1.519 -1.937,1.747 -1.015,0.806 -5.179,5.199 -6.382,6.734 -0.352,0.448 -1.014,1.273 -1.473,1.833 -0.458,0.561 -1.058,1.355 -1.333,1.766 -0.275,0.41 -0.838,1.209 -1.25,1.775 -0.413,0.565 -0.874,1.242 -1.026,1.503 -0.152,0.261 -0.741,1.225 -1.309,2.142 -2.258,3.645 -2.302,3.852 -1.172,5.553 0.373,0.562 0.754,1.219 0.846,1.461 0.092,0.242 0.529,0.975 0.971,1.629 0.442,0.655 1.053,1.591 1.357,2.08 0.305,0.49 0.643,0.979 0.751,1.087 0.108,0.109 0.407,0.533 0.663,0.943 0.257,0.411 0.686,1.009 0.953,1.33 0.268,0.321 0.935,1.146 1.483,1.833 3.895,4.886 11.849,12.358 15.431,14.495 0.533,0.318 1.306,0.854 1.719,1.19 0.412,0.336 1.012,0.742 1.333,0.901 0.321,0.159 1.108,0.628 1.75,1.042 0.642,0.414 1.429,0.919 1.75,1.122 0.321,0.204 1.113,0.715 1.761,1.136 0.648,0.421 1.398,0.849 1.667,0.95 0.269,0.102 1.239,0.548 2.155,0.993 0.917,0.445 2.304,1.083 3.084,1.418 0.779,0.335 1.904,0.843 2.5,1.129 1.137,0.545 3.628,1.461 5.145,1.891 0.492,0.14 1.166,0.4 1.497,0.577 0.332,0.178 0.726,0.323 0.876,0.323 0.15,0 0.601,0.118 1.002,0.262 0.818,0.294 3.995,1.138 5.646,1.5 0.596,0.131 1.721,0.389 2.5,0.574 0.779,0.185 2.317,0.443 3.417,0.574 1.1,0.131 2.262,0.312 2.583,0.404 0.556,0.158 1.629,0.282 6.334,0.735 2.518,0.243 13.483,0.216 17.583,-0.042 1.558,-0.099 4.071,-0.251 5.583,-0.34 2.764,-0.161 4.658,-0.351 6.667,-0.666 0.596,-0.093 1.646,-0.246 2.333,-0.34 1.665,-0.227 4.111,-0.624 5.75,-0.933 1.408,-0.266 3.343,-0.613 5.417,-0.973 0.688,-0.119 1.578,-0.337 1.979,-0.486 0.401,-0.148 0.889,-0.269 1.084,-0.268 0.194,0 0.991,-0.193 1.77,-0.43 0.779,-0.237 2.167,-0.659 3.084,-0.938 0.916,-0.278 2.137,-0.685 2.711,-0.903 0.575,-0.218 1.139,-0.397 1.253,-0.397 0.114,0 0.475,-0.143 0.801,-0.318 0.327,-0.175 0.964,-0.433 1.415,-0.573 0.741,-0.23 1.568,-0.544 4.176,-1.585 0.47,-0.187 1.129,-0.527 1.463,-0.754 0.335,-0.227 0.829,-0.461 1.099,-0.52 0.445,-0.098 2.047,-0.845 2.665,-1.243 0.137,-0.089 0.55,-0.301 0.917,-0.472 1.272,-0.593 3.173,-1.664 4.416,-2.488 2.422,-1.606 2.641,-1.629 3.839,-0.397 0.233,0.238 0.861,0.809 1.396,1.267 0.535,0.458 1.102,0.953 1.26,1.099 0.158,0.147 0.955,0.856 1.771,1.577 0.817,0.721 1.522,1.352 1.568,1.402 0.045,0.051 0.683,0.616 1.416,1.257 0.734,0.641 1.409,1.249 1.5,1.352 0.092,0.102 0.767,0.699 1.5,1.325 0.734,0.626 1.371,1.18 1.417,1.23 0.046,0.05 0.721,0.65 1.5,1.332 0.779,0.683 1.492,1.32 1.583,1.417 0.092,0.097 0.767,0.701 1.5,1.342 0.734,0.642 1.409,1.252 1.5,1.356 0.092,0.105 0.699,0.642 1.35,1.195 0.651,0.552 2.121,1.855 3.268,2.894 1.147,1.039 2.677,2.413 3.401,3.053 0.723,0.641 1.877,1.7 2.565,2.353 0.714,0.679 1.442,1.223 1.698,1.269 l 0.449,0.08 -0.077,-2.933 c -0.155,-5.912 -0.063,-5.512 -1.592,-6.962 -1.073,-1.02 -2.663,-2.881 -3.228,-3.781 -0.184,-0.292 -0.67,-0.979 -1.081,-1.527 -1.217,-1.623 -2.211,-3.108 -2.675,-3.997 -0.239,-0.458 -0.931,-1.695 -1.537,-2.75 -1.321,-2.3 -2.452,-4.743 -3.703,-8 -0.511,-1.329 -1.076,-2.791 -1.256,-3.25 -0.963,-2.451 -2.737,-10.431 -3.148,-14.166 -0.85,-7.71 -0.238,-18.491 1.333,-23.513 0.175,-0.557 0.399,-1.455 0.499,-1.997 0.1,-0.541 0.279,-1.173 0.398,-1.404 0.118,-0.231 0.307,-0.87 0.419,-1.42 0.112,-0.55 0.263,-1.075 0.336,-1.166 0.073,-0.092 0.447,-1.104 0.833,-2.25 0.385,-1.146 0.812,-2.301 0.95,-2.567 0.137,-0.266 0.399,-0.941 0.582,-1.5 0.37,-1.132 2.22,-4.765 3.276,-6.433 0.377,-0.596 0.8,-1.287 0.939,-1.535 1.116,-1.993 4.468,-6.188 6.951,-8.702 l 1.634,-1.653 0,-2.863 c 0,-1.575 0.048,-3.43 0.106,-4.123 l 0.107,-1.259 -0.492,-0.254 c -0.484,-0.25 -0.503,-0.243 -1.315,0.506 m 1.164,3.466 c 0.137,3.879 0.037,4.52 -0.825,5.275 -1.071,0.939 -1.83,1.777 -3.755,4.142 -0.559,0.687 -1.291,1.573 -1.625,1.968 -0.335,0.395 -0.76,0.991 -0.945,1.325 -0.185,0.333 -0.45,0.732 -0.587,0.885 -0.138,0.153 -0.475,0.667 -0.75,1.141 -0.275,0.474 -0.725,1.228 -1,1.675 -1.198,1.948 -2.654,4.745 -3.081,5.922 -0.697,1.921 -1.569,4.262 -2.101,5.64 -0.313,0.81 -0.617,1.785 -0.675,2.167 -0.059,0.381 -0.239,0.958 -0.401,1.281 -0.161,0.323 -0.346,0.96 -0.409,1.416 -0.063,0.456 -0.255,1.13 -0.425,1.496 -0.171,0.367 -0.357,1.192 -0.415,1.834 -0.058,0.641 -0.212,1.505 -0.341,1.919 -0.13,0.415 -0.389,2.027 -0.576,3.584 -0.187,1.556 -0.419,3.467 -0.515,4.247 -0.255,2.057 -0.09,10.255 0.236,11.75 0.141,0.641 0.307,1.954 0.37,2.916 0.063,0.963 0.223,2.05 0.356,2.417 0.132,0.367 0.348,1.398 0.48,2.291 0.131,0.894 0.344,1.794 0.474,2 0.129,0.207 0.286,0.788 0.348,1.292 0.063,0.504 0.255,1.237 0.428,1.629 0.173,0.391 0.39,1.12 0.482,1.618 0.092,0.498 0.321,1.206 0.508,1.573 0.187,0.367 0.34,0.768 0.34,0.891 0,0.123 0.18,0.595 0.4,1.048 0.22,0.454 0.491,1.125 0.603,1.491 0.24,0.788 0.506,1.419 1.267,3.013 0.31,0.648 0.564,1.29 0.564,1.426 0,0.136 0.112,0.393 0.25,0.571 0.137,0.178 0.402,0.624 0.588,0.99 0.611,1.203 0.863,1.661 1.139,2.071 0.15,0.223 0.61,1.019 1.023,1.77 1.231,2.241 3.874,5.998 5.291,7.521 0.207,0.222 0.375,0.458 0.375,0.525 0,0.067 0.569,0.682 1.265,1.368 0.695,0.685 1.333,1.42 1.417,1.633 0.206,0.522 0.209,6.688 0.003,7.203 -0.09,0.225 -0.168,0.326 -0.174,0.223 -0.006,-0.102 -0.592,-0.663 -1.302,-1.246 -2.576,-2.116 -4.025,-3.353 -4.314,-3.685 -0.103,-0.119 -0.622,-0.591 -1.154,-1.049 -0.531,-0.459 -1.346,-1.179 -1.811,-1.6 -1.318,-1.195 -3.902,-3.497 -4.751,-4.234 -0.422,-0.366 -0.932,-0.816 -1.132,-1 -0.201,-0.183 -0.786,-0.708 -1.301,-1.166 -0.514,-0.459 -1.098,-0.984 -1.297,-1.167 -0.198,-0.183 -0.999,-0.889 -1.78,-1.568 -0.78,-0.679 -1.578,-1.392 -1.773,-1.584 -0.194,-0.191 -0.787,-0.723 -1.316,-1.181 -0.529,-0.459 -1.12,-0.985 -1.313,-1.17 -0.192,-0.185 -0.912,-0.822 -1.6,-1.416 -0.687,-0.595 -1.325,-1.164 -1.417,-1.266 -0.467,-0.518 -4.171,-3.612 -4.507,-3.766 -0.441,-0.2 -1.432,0.237 -3.044,1.344 -1.078,0.74 -2.252,1.424 -3.032,1.765 -0.321,0.14 -0.696,0.332 -0.833,0.426 -0.138,0.093 -0.577,0.32 -0.976,0.503 -0.399,0.183 -0.905,0.473 -1.123,0.646 -0.219,0.172 -0.676,0.365 -1.015,0.428 -0.666,0.125 -2.464,0.978 -2.631,1.248 -0.057,0.091 -0.468,0.274 -0.915,0.407 -0.446,0.132 -1.099,0.393 -1.451,0.579 -0.352,0.186 -1.014,0.461 -1.473,0.611 -2.158,0.706 -2.853,0.972 -3.096,1.183 -0.145,0.125 -0.377,0.228 -0.516,0.228 -0.139,0 -0.695,0.154 -1.237,0.343 -0.541,0.189 -1.546,0.495 -2.234,0.681 -0.687,0.186 -1.331,0.405 -1.429,0.486 -0.099,0.082 -0.722,0.263 -1.386,0.402 -0.664,0.14 -1.358,0.335 -1.542,0.434 -0.184,0.098 -1.285,0.355 -2.447,0.571 -1.162,0.216 -2.523,0.51 -3.024,0.654 -0.501,0.144 -1.235,0.262 -1.63,0.262 -0.396,0 -0.998,0.122 -1.339,0.272 -0.359,0.157 -1.619,0.361 -3,0.485 -1.31,0.117 -2.735,0.329 -3.167,0.47 -0.432,0.141 -1.948,0.375 -3.369,0.521 -1.421,0.146 -2.996,0.334 -3.5,0.418 -5.022,0.835 -27.756,0.761 -31.25,-0.101 -0.55,-0.136 -1.788,-0.321 -2.75,-0.411 -0.963,-0.09 -2.17,-0.307 -2.682,-0.483 -0.513,-0.175 -1.525,-0.371 -2.25,-0.434 -0.725,-0.064 -1.522,-0.218 -1.77,-0.344 -0.249,-0.125 -0.98,-0.339 -1.625,-0.475 -0.645,-0.136 -1.417,-0.347 -1.715,-0.47 -0.298,-0.123 -1.029,-0.321 -1.625,-0.441 -0.596,-0.119 -1.245,-0.317 -1.443,-0.439 -0.198,-0.122 -0.723,-0.309 -1.167,-0.416 -0.443,-0.106 -0.961,-0.289 -1.149,-0.405 -0.188,-0.116 -0.825,-0.364 -1.416,-0.551 -1.55,-0.489 -3.011,-1.072 -3.492,-1.392 -0.229,-0.152 -0.732,-0.36 -1.118,-0.462 -0.385,-0.101 -0.743,-0.252 -0.794,-0.334 -0.051,-0.083 -0.373,-0.24 -0.715,-0.35 -0.57,-0.183 -2.379,-0.969 -3.081,-1.338 -0.608,-0.32 -0.908,-0.467 -2.042,-1.004 -0.641,-0.304 -1.365,-0.706 -1.609,-0.893 -0.243,-0.187 -0.83,-0.565 -1.305,-0.84 -0.475,-0.275 -1.326,-0.817 -1.891,-1.204 -0.565,-0.387 -1.362,-0.86 -1.77,-1.05 -0.408,-0.19 -1.121,-0.666 -1.583,-1.057 -0.463,-0.391 -1.292,-0.966 -1.842,-1.277 -0.55,-0.311 -1.112,-0.689 -1.25,-0.839 -0.137,-0.151 -0.625,-0.566 -1.083,-0.921 -0.844,-0.655 -3.555,-2.88 -4.167,-3.42 -0.183,-0.161 -1.182,-1.105 -2.22,-2.096 -1.038,-0.991 -1.955,-1.827 -2.038,-1.857 -0.083,-0.03 -0.767,-0.78 -1.52,-1.666 -0.753,-0.887 -1.561,-1.813 -1.795,-2.057 -0.235,-0.245 -0.802,-0.944 -1.26,-1.555 -0.458,-0.61 -1.065,-1.385 -1.347,-1.722 -0.283,-0.336 -0.564,-0.724 -0.625,-0.862 -0.061,-0.138 -0.372,-0.588 -0.692,-1 -0.319,-0.413 -0.726,-1.018 -0.904,-1.344 -0.178,-0.327 -0.442,-0.693 -0.586,-0.813 -0.145,-0.119 -0.263,-0.305 -0.263,-0.411 0,-0.107 -0.222,-0.454 -0.493,-0.772 -0.271,-0.317 -0.496,-0.659 -0.5,-0.759 -0.004,-0.101 -0.152,-0.315 -0.331,-0.476 -0.178,-0.161 -0.372,-0.512 -0.43,-0.78 -0.059,-0.267 -0.275,-0.691 -0.481,-0.941 -1.044,-1.269 -1.052,-2.584 -0.025,-4.204 0.203,-0.321 0.559,-0.883 0.791,-1.25 0.232,-0.367 0.639,-1.025 0.904,-1.463 0.265,-0.439 0.688,-1.068 0.94,-1.398 0.252,-0.331 0.459,-0.699 0.459,-0.819 0,-0.12 0.131,-0.316 0.291,-0.436 0.32,-0.238 1.436,-1.876 1.597,-2.342 0.056,-0.161 0.172,-0.292 0.258,-0.292 0.087,0 0.57,-0.544 1.074,-1.208 0.954,-1.258 1.45,-1.83 3.481,-4.017 1.946,-2.095 3.453,-3.608 3.593,-3.608 0.072,0 0.459,-0.35 0.861,-0.777 0.763,-0.811 2.57,-2.424 3.743,-3.343 0.6,-0.47 1.574,-1.318 2.846,-2.476 0.208,-0.19 0.608,-0.441 0.889,-0.557 0.28,-0.116 0.639,-0.354 0.797,-0.529 0.158,-0.175 0.38,-0.318 0.492,-0.318 0.112,0 0.297,-0.113 0.411,-0.25 0.256,-0.309 2.15,-1.584 2.352,-1.584 0.082,0 0.295,-0.147 0.474,-0.326 0.18,-0.18 0.636,-0.498 1.015,-0.708 0.378,-0.21 0.911,-0.507 1.185,-0.659 0.273,-0.152 0.623,-0.383 0.777,-0.514 0.154,-0.131 1.011,-0.606 1.905,-1.057 2.105,-1.061 2.93,-1.505 3.176,-1.707 0.11,-0.09 0.624,-0.287 1.144,-0.437 0.519,-0.151 1.035,-0.383 1.145,-0.516 0.111,-0.133 0.292,-0.242 0.402,-0.242 0.111,0 0.571,-0.188 1.022,-0.417 0.451,-0.229 1.082,-0.5 1.403,-0.602 0.321,-0.102 0.733,-0.275 0.917,-0.384 0.183,-0.11 0.67,-0.296 1.083,-0.415 0.412,-0.118 0.874,-0.326 1.026,-0.461 0.152,-0.134 0.706,-0.357 1.231,-0.494 0.526,-0.137 1.114,-0.349 1.308,-0.47 0.193,-0.121 0.764,-0.312 1.268,-0.425 0.504,-0.113 1.142,-0.304 1.417,-0.425 0.587,-0.257 3.267,-0.987 5.167,-1.407 0.733,-0.162 1.78,-0.416 2.326,-0.564 0.547,-0.148 1.195,-0.27 1.441,-0.27 0.246,0 0.924,-0.145 1.507,-0.323 0.582,-0.177 1.959,-0.441 3.059,-0.587 1.1,-0.145 2.563,-0.375 3.25,-0.51 3.896,-0.764 25.377,-0.761 29.25,0.004 0.642,0.127 1.842,0.275 2.667,0.33 1.867,0.124 3.678,0.363 5.833,0.768 0.917,0.173 2.117,0.359 2.667,0.415 0.55,0.055 1.412,0.236 1.916,0.402 0.505,0.166 1.517,0.356 2.25,0.422 0.734,0.067 1.559,0.238 1.834,0.38 0.275,0.143 1.137,0.391 1.916,0.552 0.779,0.162 1.829,0.412 2.334,0.558 0.504,0.145 1.366,0.31 1.916,0.365 0.55,0.055 1.225,0.233 1.5,0.394 0.275,0.162 0.763,0.349 1.084,0.415 0.32,0.067 0.733,0.205 0.916,0.308 0.184,0.102 0.934,0.349 1.667,0.548 1.555,0.423 3.19,0.961 4.25,1.4 0.412,0.171 1,0.359 1.306,0.418 0.306,0.059 0.969,0.325 1.475,0.591 0.506,0.266 1.057,0.484 1.226,0.484 0.169,0 0.35,0.069 0.402,0.154 0.053,0.085 0.376,0.243 0.718,0.352 0.508,0.161 3.471,1.583 5.373,2.58 0.229,0.12 0.969,0.487 1.643,0.816 0.675,0.33 1.434,0.767 1.688,0.973 1.855,1.508 3.776,1.852 4.546,0.814 0.113,-0.153 1.031,-0.983 2.04,-1.845 1.008,-0.862 2.021,-1.74 2.25,-1.951 2.377,-2.191 2.727,-2.504 4.234,-3.782 0.65,-0.552 1.672,-1.458 2.27,-2.015 1.162,-1.082 3.393,-3.077 4.208,-3.763 0.273,-0.229 0.693,-0.603 0.933,-0.831 0.241,-0.227 1.001,-0.892 1.688,-1.477 0.688,-0.585 1.883,-1.636 2.656,-2.336 0.773,-0.7 1.612,-1.46 1.865,-1.689 0.254,-0.229 0.886,-0.792 1.407,-1.25 0.52,-0.459 1.185,-1.059 1.478,-1.334 0.293,-0.275 0.842,-0.75 1.222,-1.056 0.379,-0.307 0.862,-0.704 1.072,-0.884 1.061,-0.906 1.74,-1.505 1.961,-1.728 0.397,-0.402 0.457,-0.054 0.576,3.335 M 208.75,46.178 c -3.129,0.145 -7.08,0.776 -8.667,1.385 -0.366,0.141 -0.837,0.259 -1.045,0.263 -0.208,0.004 -1.05,0.27 -1.871,0.591 -0.821,0.32 -1.561,0.583 -1.643,0.583 -0.082,0 -0.238,0.107 -0.347,0.237 -0.108,0.13 -0.511,0.287 -0.895,0.347 -0.643,0.102 -3.967,1.658 -5.807,2.719 -0.426,0.246 -1.076,0.614 -1.445,0.818 -0.368,0.205 -1.019,0.617 -1.447,0.917 -0.428,0.3 -0.968,0.67 -1.201,0.822 -0.557,0.365 -2.042,1.658 -3.272,2.848 -0.544,0.527 -1.049,0.959 -1.122,0.959 -0.073,0 -0.179,0.146 -0.235,0.324 -0.057,0.179 -0.231,0.367 -0.387,0.417 -0.155,0.051 -0.803,0.73 -1.439,1.509 -0.635,0.779 -1.203,1.416 -1.261,1.416 -0.057,0 -0.265,0.286 -0.461,0.634 -0.196,0.349 -0.51,0.773 -0.697,0.943 -0.188,0.169 -0.341,0.4 -0.341,0.512 0,0.112 -0.111,0.296 -0.247,0.408 -0.135,0.113 -0.353,0.403 -0.484,0.646 -0.131,0.242 -0.507,0.928 -0.836,1.524 -0.329,0.596 -0.742,1.394 -0.918,1.773 -0.177,0.38 -0.396,0.737 -0.489,0.794 -0.092,0.057 -0.329,0.589 -0.526,1.183 -0.198,0.594 -0.419,1.116 -0.49,1.161 -0.072,0.044 -0.23,0.439 -0.35,0.876 -0.12,0.438 -0.312,0.946 -0.427,1.13 -0.115,0.183 -0.326,0.896 -0.47,1.583 -0.143,0.688 -0.371,1.56 -0.505,1.939 -0.713,2.018 -0.663,11.965 0.069,13.656 0.162,0.373 0.348,1.198 0.414,1.833 0.065,0.636 0.252,1.385 0.414,1.665 0.163,0.28 0.35,0.799 0.416,1.152 0.066,0.353 0.443,1.324 0.837,2.157 0.394,0.833 0.876,1.852 1.071,2.265 0.195,0.412 0.611,1.2 0.925,1.75 0.314,0.55 0.626,1.112 0.694,1.25 0.92,1.858 5.991,7.65 7.733,8.833 0.472,0.321 1.017,0.752 1.21,0.958 0.194,0.207 0.417,0.375 0.496,0.375 0.079,0 0.605,0.384 1.169,0.854 0.564,0.469 1.236,0.927 1.493,1.016 0.257,0.09 0.467,0.223 0.467,0.297 0,0.074 0.432,0.386 0.959,0.692 0.527,0.307 1.152,0.67 1.388,0.808 0.853,0.495 3.213,1.584 3.809,1.757 0.223,0.065 0.74,0.296 1.15,0.514 0.409,0.218 0.843,0.396 0.964,0.396 0.121,0 0.506,0.149 0.856,0.331 0.35,0.183 1.009,0.381 1.464,0.441 0.455,0.059 1.116,0.253 1.47,0.43 0.674,0.338 1.996,0.672 4.135,1.044 0.703,0.122 1.432,0.271 1.621,0.331 0.363,0.116 6.405,0.464 7.684,0.443 0.413,-0.006 2.175,-0.076 3.917,-0.154 2.943,-0.133 3.835,-0.233 6.25,-0.704 0.504,-0.098 1.47,-0.285 2.147,-0.415 0.677,-0.131 1.41,-0.355 1.629,-0.499 0.219,-0.144 0.828,-0.34 1.353,-0.436 0.525,-0.096 1.179,-0.309 1.454,-0.473 0.275,-0.164 0.89,-0.389 1.367,-0.5 0.477,-0.111 0.955,-0.308 1.062,-0.437 0.108,-0.13 0.277,-0.236 0.376,-0.236 0.322,0 4.108,-1.966 4.582,-2.38 0.154,-0.134 0.561,-0.334 0.904,-0.444 0.343,-0.111 0.68,-0.292 0.75,-0.404 0.069,-0.112 0.613,-0.516 1.209,-0.898 0.596,-0.382 1.251,-0.829 1.455,-0.992 0.205,-0.164 0.777,-0.598 1.272,-0.965 0.495,-0.367 1.067,-0.908 1.271,-1.202 0.203,-0.294 0.615,-0.68 0.914,-0.857 0.3,-0.176 0.686,-0.524 0.858,-0.772 0.173,-0.248 0.689,-0.856 1.147,-1.35 0.458,-0.495 1.006,-1.107 1.217,-1.36 0.211,-0.252 0.586,-0.695 0.833,-0.984 0.727,-0.847 1.533,-1.994 1.533,-2.179 0,-0.095 0.124,-0.275 0.276,-0.401 0.152,-0.125 0.383,-0.453 0.515,-0.728 0.131,-0.275 0.457,-0.875 0.723,-1.334 0.267,-0.458 0.645,-1.171 0.84,-1.583 0.195,-0.413 0.651,-1.376 1.013,-2.141 0.846,-1.788 1.402,-3.409 1.794,-5.229 0.173,-0.8 0.362,-1.532 0.421,-1.627 0.705,-1.141 0.665,-12.056 -0.049,-13.457 -0.084,-0.163 -0.243,-0.784 -0.355,-1.379 C 254.662,74.302 253.446,71 252.372,69 c -1.114,-2.075 -1.434,-2.629 -2.055,-3.561 -0.357,-0.537 -0.65,-1.015 -0.65,-1.061 0,-0.046 -0.207,-0.331 -0.459,-0.634 -0.252,-0.302 -0.718,-0.912 -1.035,-1.355 -0.768,-1.071 -0.827,-1.141 -1.997,-2.344 -0.555,-0.571 -1.009,-1.101 -1.009,-1.177 0,-0.075 -0.307,-0.358 -0.681,-0.628 -0.375,-0.269 -1.593,-1.265 -2.709,-2.212 -1.115,-0.947 -2.214,-1.807 -2.444,-1.911 -0.229,-0.104 -0.648,-0.36 -0.932,-0.57 -0.284,-0.209 -0.598,-0.38 -0.699,-0.38 -0.101,0 -0.281,-0.135 -0.401,-0.299 -0.241,-0.332 -2.008,-1.366 -2.34,-1.371 -0.116,-10e-4 -1.025,-0.414 -2.019,-0.916 -0.994,-0.503 -1.894,-0.917 -2,-0.92 -0.106,-0.002 -0.64,-0.227 -1.188,-0.5 -0.547,-0.272 -1.131,-0.494 -1.297,-0.494 -0.165,0 -0.58,-0.122 -0.921,-0.271 -2.154,-0.941 -7.711,-2.026 -11.441,-2.234 -2.956,-0.165 -3.474,-0.164 -7.345,0.016 m 9.5,0.581 c 1.008,0.131 2.098,0.239 2.422,0.24 0.324,0 0.999,0.114 1.5,0.253 0.501,0.138 1.399,0.37 1.995,0.514 0.595,0.145 1.421,0.374 1.833,0.511 0.412,0.136 1.2,0.384 1.75,0.552 1.109,0.338 2.891,1.067 4.667,1.909 0.641,0.304 1.804,0.836 2.583,1.182 0.779,0.346 1.647,0.824 1.928,1.063 0.281,0.238 0.827,0.621 1.213,0.85 1.611,0.957 2.317,1.459 3.053,2.168 1.01,0.974 1.352,1.261 2.556,2.147 0.55,0.405 1.065,0.846 1.144,0.981 0.08,0.134 0.708,0.854 1.396,1.599 0.689,0.746 1.411,1.59 1.606,1.878 0.195,0.287 0.81,1.152 1.368,1.921 5.545,7.651 7.63,17.685 5.639,27.14 -1.19,5.654 -4.997,12.772 -8.969,16.773 -0.468,0.471 -1.031,1.096 -1.251,1.39 -0.22,0.293 -0.557,0.608 -0.75,0.699 -0.192,0.091 -0.575,0.459 -0.85,0.818 -0.569,0.743 -2.494,2.267 -3.526,2.792 -0.381,0.194 -0.719,0.41 -0.75,0.482 -0.084,0.191 -1.111,0.89 -1.971,1.343 -0.414,0.217 -1.128,0.613 -1.586,0.879 -0.458,0.266 -0.946,0.534 -1.083,0.595 -0.138,0.061 -0.954,0.443 -1.814,0.847 -1.922,0.905 -3.363,1.462 -5.103,1.972 -0.733,0.215 -1.643,0.504 -2.022,0.643 -0.379,0.138 -1.354,0.334 -2.167,0.434 -0.813,0.101 -1.943,0.335 -2.512,0.52 -1.444,0.471 -14.628,0.525 -15.882,0.066 -0.413,-0.151 -1.314,-0.338 -2.003,-0.416 -0.689,-0.077 -1.701,-0.303 -2.25,-0.502 -0.548,-0.198 -1.56,-0.5 -2.247,-0.67 -1.274,-0.316 -3.438,-1.079 -3.746,-1.321 -0.094,-0.074 -0.467,-0.23 -0.829,-0.346 -1.221,-0.394 -4.407,-1.993 -5.644,-2.832 -0.675,-0.458 -1.301,-0.833 -1.39,-0.833 -0.089,0 -0.307,-0.131 -0.485,-0.292 -0.453,-0.41 -3.485,-2.716 -4.148,-3.156 -2.321,-1.537 -8.582,-9.716 -9.341,-12.202 -0.067,-0.22 -0.405,-1.016 -0.751,-1.767 -0.345,-0.752 -0.756,-1.809 -0.913,-2.35 -0.157,-0.541 -0.351,-1.064 -0.432,-1.163 -0.081,-0.098 -0.226,-0.734 -0.323,-1.413 -0.096,-0.679 -0.286,-1.648 -0.423,-2.154 -1.222,-4.527 -0.382,-13.511 1.696,-18.133 0.217,-0.484 0.395,-0.972 0.395,-1.084 0,-0.112 0.627,-1.366 1.392,-2.787 1.941,-3.6 2.417,-4.317 4.522,-6.795 0.823,-0.969 1.873,-2.106 2.332,-2.525 0.46,-0.419 1.148,-1.062 1.53,-1.429 3.209,-3.078 9.14,-6.759 12.391,-7.691 0.504,-0.144 1.254,-0.429 1.667,-0.632 1.695,-0.834 6.697,-2.228 8.75,-2.439 0.825,-0.084 1.725,-0.203 2,-0.262 1.874,-0.407 8.59,-0.388 11.833,0.033 m -79.32,22.415 c -1.355,0.405 -2.318,2.081 -1.954,3.4 0.395,1.431 2.651,2.574 3.818,1.934 0.159,-0.087 0.573,-0.284 0.92,-0.438 1.713,-0.76 1.884,-3.213 0.3,-4.31 -0.456,-0.316 -2.597,-0.93 -2.597,-0.745 0,0.008 -0.219,0.079 -0.487,0.159 m 2.91,0.831 c 1.568,1.242 1.289,3.165 -0.583,4.015 -2.785,1.265 -5.416,-1.695 -3.389,-3.813 1.047,-1.094 2.736,-1.18 3.972,-0.202"
       inkscape:connector-curvature="0"
       style="fill:#50566d;fill-rule:evenodd;stroke:none"
       sodipodi:nodetypes="ccsccccccsccccccccccccccccscscccccscsscssccccccccccccccscccccccccccscccccccccccscscccccccccccsccsscccccccccscccccccccccccsccssccsccccscscccccsccccccccccsccsccccccccsscsccccccsccssccccccccccsccscccccccccsccccccscccccsccccccccccccccccsccccccccsccccccccccscccccsccccccccccccssscccscccccsscscccccccccccccccccccsccccsccscccccsssccssccccccsscscsccccccccssscscccssccccscccsccccccsccsccsccsccccsscssccsccccssscccccscccsccccccccccccscccccssscccccccccccccsccsccccccscsccccsccscccsccsccscccccccccccsscscccsccsccccscccccccccsssscscccscsccccccscccccccccccscccsccccscccccsccccccccccsccccccccccccccccscccccccccccccsccccsccccsccccccccccccccscccsc" />
    <path
       id="path3"
       d="m 205.443,88.779 c -0.239,0.125 -0.512,0.372 -0.607,0.55 -0.168,0.314 -0.494,0.322 -12.713,0.335 -12.489,0.013 -15.306,0.061 -17.206,0.296 l -1,0.123 0.035,0.834 c 0.128,3.042 0.131,3.061 0.577,3.538 0.286,0.305 0.472,0.744 0.55,1.295 0.066,0.458 0.177,0.908 0.248,1 0.071,0.092 0.225,0.467 0.341,0.833 0.209,0.657 1.09,1.746 1.415,1.748 0.092,10e-4 0.467,0.148 0.834,0.326 0.366,0.179 0.816,0.379 1,0.443 l 0.333,0.118 -0.333,0.067 c -0.545,0.109 -1.25,0.413 -1.25,0.539 0,0.223 1.007,1.974 1.252,2.178 0.136,0.113 0.248,0.309 0.248,0.435 0,0.309 1.148,1.563 1.431,1.563 0.124,0 0.547,0.482 0.939,1.071 0.427,0.641 1.311,1.583 2.203,2.345 0.819,0.7 1.569,1.369 1.666,1.486 0.245,0.294 2.307,0.931 3.014,0.931 0.65,0 0.64,-0.013 0.42,0.567 -0.103,0.27 -0.103,0.457 0,0.521 0.088,0.054 0.16,0.244 0.16,0.421 0,0.32 0.347,0.551 2,1.329 0.412,0.194 0.862,0.454 1,0.577 0.137,0.124 0.887,0.497 1.667,0.829 0.779,0.332 1.679,0.726 2,0.874 0.823,0.382 2.587,1.016 3.666,1.318 0.505,0.141 1.086,0.365 1.294,0.499 0.207,0.133 0.986,0.318 1.731,0.412 0.745,0.093 1.768,0.277 2.274,0.409 2.088,0.544 11.776,0.705 14.436,0.24 2.18,-0.381 3.569,-0.689 4.849,-1.073 0.733,-0.221 1.62,-0.448 1.97,-0.505 0.351,-0.057 0.876,-0.249 1.167,-0.427 0.291,-0.177 0.648,-0.323 0.793,-0.323 0.145,-0.001 0.632,-0.188 1.083,-0.417 0.451,-0.229 1.082,-0.501 1.403,-0.605 0.321,-0.103 0.696,-0.28 0.834,-0.393 0.137,-0.113 0.92,-0.528 1.74,-0.922 2.294,-1.104 2.647,-1.387 2.849,-2.284 0.155,-0.692 0.237,-0.789 0.833,-0.988 0.364,-0.122 0.86,-0.335 1.103,-0.473 0.244,-0.139 0.573,-0.252 0.732,-0.252 0.947,0 4.743,-3.21 4.743,-4.01 0,-0.184 0.112,-0.377 0.25,-0.43 0.137,-0.053 0.25,-0.194 0.25,-0.314 0,-0.12 0.393,-0.531 0.875,-0.913 0.481,-0.382 0.971,-0.876 1.088,-1.097 0.118,-0.222 0.286,-0.403 0.374,-0.403 0.088,0 0.376,-0.452 0.639,-1.005 l 0.479,-1.006 -0.417,-0.328 c -0.229,-0.18 -0.575,-0.329 -0.769,-0.331 -0.347,-0.004 1.455,-0.985 1.823,-0.993 0.742,-0.016 1.757,-2.138 1.693,-3.542 -0.032,-0.727 0.014,-0.829 0.59,-1.304 0.759,-0.626 0.829,-1.241 0.208,-1.824 -0.549,-0.516 -0.526,-0.931 0.083,-1.5 0.683,-0.638 0.647,-0.946 -0.125,-1.049 -0.343,-0.046 -0.925,-0.165 -1.291,-0.264 -0.451,-0.121 -5.175,-0.181 -14.613,-0.183 l -13.945,-0.004 -0.517,-0.436 c -0.285,-0.239 -0.797,-0.502 -1.138,-0.583 -1.058,-0.254 -12.748,-0.138 -13.261,0.131"
       inkscape:connector-curvature="0"
       style="fill:#018ede;fill-rule:evenodd;stroke:none" />
  </g>
</svg>
