<?xml version="1.0" encoding="UTF-8" standalone="no"?>
<svg
   xmlns:dc="http://purl.org/dc/elements/1.1/"
   xmlns:cc="http://creativecommons.org/ns#"
   xmlns:rdf="http://www.w3.org/1999/02/22-rdf-syntax-ns#"
   xmlns:svg="http://www.w3.org/2000/svg"
   xmlns="http://www.w3.org/2000/svg"
   xmlns:sodipodi="http://sodipodi.sourceforge.net/DTD/sodipodi-0.dtd"
   xmlns:inkscape="http://www.inkscape.org/namespaces/inkscape"
   id="svg"
   version="1.1"
   width="194.01672"
   height="193.81786"
   style="display:block"
   inkscape:version="0.91 r13725"
   sodipodi:docname="fcv.svg">
  <metadata
     id="metadata9">
    <rdf:RDF>
      <cc:Work
         rdf:about="">
        <dc:format>image/svg+xml</dc:format>
        <dc:type
           rdf:resource="http://purl.org/dc/dcmitype/StillImage" />
        <dc:title></dc:title>
      </cc:Work>
    </rdf:RDF>
  </metadata>
  <defs
     id="defs7" />
  <sodipodi:namedview
     pagecolor="#ffffff"
     bordercolor="#666666"
     borderopacity="1"
     objecttolerance="10"
     gridtolerance="10"
     guidetolerance="10"
     inkscape:pageopacity="0"
     inkscape:pageshadow="2"
     inkscape:window-width="640"
     inkscape:window-height="480"
     id="namedview5"
     showgrid="false"
     fit-margin-top="0"
     fit-margin-left="0"
     fit-margin-right="0"
     fit-margin-bottom="0"
     inkscape:zoom="0.5"
     inkscape:cx="203.05982"
     inkscape:cy="190.63571"
     inkscape:window-x="0"
     inkscape:window-y="0"
     inkscape:window-maximized="0"
     inkscape:current-layer="svg" />
  <g
     id="svgg"
     transform="translate(-13.514655,-13.599146)">
    <path
       id="path0"
       d="m 105.667,13.673 c -3.871,0.129 -4.926,0.228 -7.167,0.677 -0.871,0.174 -2.558,0.427 -3.75,0.563 -1.192,0.135 -2.804,0.43 -3.583,0.657 -0.779,0.227 -1.919,0.492 -2.533,0.589 -1.215,0.194 -1.252,0.204 -2.717,0.759 -0.55,0.208 -1.519,0.466 -2.154,0.574 -0.634,0.107 -1.572,0.37 -2.083,0.585 -0.512,0.215 -1.38,0.52 -1.93,0.678 -0.55,0.158 -1.338,0.454 -1.75,0.658 -0.413,0.204 -1.106,0.458 -1.541,0.564 -0.435,0.107 -1.232,0.418 -1.771,0.692 -0.538,0.274 -1.095,0.498 -1.236,0.498 -0.142,0 -0.733,0.251 -1.313,0.558 -0.581,0.306 -1.444,0.686 -1.918,0.842 -0.474,0.157 -0.948,0.389 -1.054,0.516 -0.105,0.127 -0.71,0.429 -1.345,0.671 -0.634,0.243 -1.199,0.515 -1.255,0.606 -0.056,0.09 -0.638,0.424 -1.293,0.742 -0.655,0.318 -1.641,0.831 -2.191,1.141 -0.55,0.309 -1.445,0.794 -1.99,1.078 -0.545,0.283 -1.145,0.656 -1.334,0.828 -0.188,0.171 -0.598,0.441 -0.91,0.599 -0.312,0.158 -0.867,0.504 -1.233,0.77 -0.366,0.265 -0.749,0.484 -0.849,0.486 -0.101,0.002 -0.371,0.154 -0.6,0.337 -0.229,0.183 -1.167,0.835 -2.084,1.447 -0.916,0.613 -1.741,1.197 -1.833,1.298 -0.092,0.102 -0.879,0.719 -1.75,1.373 -0.871,0.654 -1.958,1.491 -2.417,1.86 -0.458,0.37 -1.02,0.801 -1.25,0.958 -0.229,0.156 -0.641,0.49 -0.916,0.741 -0.275,0.251 -1.588,1.427 -2.917,2.613 -3.701,3.301 -7.745,7.565 -11.167,11.774 -0.637,0.784 -1.271,1.61 -2.869,3.741 -1.179,1.573 -1.075,1.422 -2.251,3.251 -0.479,0.744 -1.027,1.578 -1.217,1.853 -0.619,0.894 -1.48,2.32 -1.757,2.906 -0.148,0.315 -0.438,0.803 -0.644,1.083 -0.206,0.281 -0.474,0.773 -0.595,1.094 -0.121,0.321 -0.394,0.82 -0.606,1.11 -0.213,0.289 -0.541,0.938 -0.73,1.443 -0.189,0.504 -0.449,1.005 -0.578,1.112 -0.129,0.107 -0.36,0.582 -0.514,1.056 -0.153,0.475 -0.488,1.238 -0.744,1.696 -0.256,0.458 -0.553,1.171 -0.66,1.583 -0.107,0.413 -0.341,1.003 -0.521,1.311 -0.179,0.309 -0.482,1.134 -0.673,1.834 -0.191,0.699 -0.488,1.55 -0.66,1.89 -0.173,0.34 -0.464,1.261 -0.647,2.046 -0.183,0.785 -0.447,1.702 -0.587,2.037 -0.14,0.335 -0.442,1.702 -0.67,3.038 -0.227,1.335 -0.493,2.653 -0.589,2.928 -0.589,1.686 -1.042,10.552 -0.673,13.166 0.544,3.854 3.333,6.81 7.334,7.772 l 1.935,0.466 38.583,0.005 38.583,0.005 1.625,-0.468 c 5.127,-1.475 7.044,-6.98 4.031,-11.572 -0.226,-0.343 -0.566,-1.018 -0.755,-1.5 -0.189,-0.481 -0.456,-0.999 -0.594,-1.152 -0.137,-0.153 -0.391,-0.731 -0.563,-1.285 -0.173,-0.555 -0.467,-1.308 -0.654,-1.674 -0.187,-0.367 -0.493,-1.326 -0.68,-2.132 -0.187,-0.805 -0.492,-1.952 -0.677,-2.548 -1.039,-3.35 -1.032,-13.307 0.012,-16.697 0.178,-0.579 0.475,-1.7 0.658,-2.491 0.184,-0.79 0.525,-1.795 0.758,-2.233 0.232,-0.437 0.423,-0.928 0.423,-1.09 0,-0.163 0.296,-0.883 0.659,-1.6 0.362,-0.718 0.813,-1.643 1.002,-2.056 0.324,-0.706 0.691,-1.32 1.951,-3.266 1.867,-2.882 5.928,-7.215 8.579,-9.152 1.371,-1.002 2.896,-2.025 3.477,-2.332 0.347,-0.183 0.781,-0.468 0.963,-0.634 0.182,-0.165 0.733,-0.452 1.225,-0.638 0.492,-0.187 1.013,-0.446 1.158,-0.576 0.146,-0.131 0.924,-0.461 1.729,-0.733 0.805,-0.272 1.556,-0.571 1.67,-0.666 0.113,-0.094 0.798,-0.322 1.521,-0.507 0.724,-0.185 1.691,-0.475 2.149,-0.645 3.334,-1.236 14.772,-1.3 18.167,-0.102 0.641,0.227 1.691,0.53 2.333,0.674 0.642,0.144 1.509,0.439 1.927,0.655 0.418,0.216 1.093,0.48 1.5,0.588 0.407,0.108 1.077,0.403 1.49,0.657 0.412,0.254 1.012,0.561 1.333,0.684 0.321,0.123 0.808,0.384 1.083,0.581 0.275,0.198 0.752,0.458 1.059,0.58 0.307,0.121 0.858,0.47 1.224,0.776 0.366,0.306 0.716,0.556 0.778,0.556 0.117,0 1.377,0.936 2.791,2.072 1.852,1.488 5.003,4.87 6.349,6.815 0.202,0.291 0.56,0.792 0.796,1.113 0.925,1.257 1.636,2.455 1.944,3.277 0.177,0.473 0.429,0.948 0.559,1.057 0.131,0.108 0.389,0.6 0.573,1.093 0.185,0.493 0.522,1.255 0.749,1.693 0.227,0.439 0.492,1.153 0.588,1.589 0.096,0.435 0.357,1.26 0.58,1.833 0.223,0.573 0.53,1.829 0.684,2.792 0.153,0.962 0.42,2.425 0.592,3.25 0.492,2.362 0.45,7.298 -0.085,9.885 -0.222,1.072 -0.483,2.53 -0.582,3.241 -0.098,0.711 -0.36,1.724 -0.582,2.25 -0.221,0.527 -0.455,1.257 -0.519,1.624 -0.2,1.15 -2.533,6.122 -3.721,7.929 -1.473,2.242 -1.867,2.805 -2.031,2.907 -0.097,0.06 -0.361,0.402 -0.588,0.761 -0.442,0.7 -5.497,5.819 -5.746,5.819 -0.083,0 -0.427,0.244 -0.765,0.542 -0.799,0.703 -1.949,1.5 -2.927,2.03 -0.428,0.232 -0.831,0.506 -0.894,0.608 -0.063,0.102 -0.612,0.408 -1.22,0.681 -0.608,0.273 -1.218,0.594 -1.355,0.713 -0.138,0.12 -0.551,0.312 -0.917,0.428 -0.367,0.115 -1.192,0.462 -1.833,0.771 -0.641,0.308 -1.264,0.561 -1.384,0.561 -0.12,0 -0.99,0.258 -1.934,0.574 -0.98,0.328 -2.53,0.684 -3.616,0.832 -1.045,0.141 -2.575,0.378 -3.4,0.526 -1.969,0.353 -5.993,0.245 -9.083,-0.244 -1.238,-0.196 -2.763,-0.433 -3.39,-0.526 -0.626,-0.094 -1.418,-0.313 -1.76,-0.487 -0.341,-0.174 -1.103,-0.438 -1.694,-0.586 -0.59,-0.148 -1.411,-0.445 -1.823,-0.661 -0.413,-0.215 -0.937,-0.441 -1.167,-0.503 -0.229,-0.062 -1.016,-0.399 -1.75,-0.75 -3.614,-1.727 -4.149,-1.811 -6.411,-1.001 -2.048,0.732 -4.137,2.519 -4.449,3.805 -0.058,0.24 -0.301,0.85 -0.539,1.354 l -0.434,0.917 0,39 0,39 0.563,1.916 c 1.083,3.683 2.851,5.8 6.176,7.398 l 1.428,0.686 3.833,-0.023 c 3.156,-0.019 4.187,-0.087 5.833,-0.388 1.1,-0.201 2.908,-0.507 4.017,-0.679 1.109,-0.172 2.422,-0.463 2.917,-0.646 0.495,-0.182 1.678,-0.489 2.629,-0.681 0.952,-0.191 2.002,-0.486 2.334,-0.654 0.332,-0.169 1.189,-0.466 1.904,-0.661 0.715,-0.196 1.465,-0.459 1.666,-0.586 0.202,-0.127 0.817,-0.358 1.367,-0.512 0.55,-0.154 1.3,-0.452 1.666,-0.662 0.367,-0.21 0.855,-0.435 1.084,-0.5 1.184,-0.334 7.622,-3.614 10.166,-5.179 0.504,-0.31 1.329,-0.795 1.834,-1.079 0.504,-0.283 1.366,-0.846 1.916,-1.252 0.55,-0.405 1.338,-0.943 1.75,-1.195 0.413,-0.251 1.125,-0.739 1.584,-1.085 0.458,-0.345 1.117,-0.835 1.465,-1.089 0.347,-0.255 0.958,-0.725 1.357,-1.046 0.399,-0.321 1.154,-0.921 1.678,-1.333 3.347,-2.637 9.002,-8.001 11.949,-11.334 2.247,-2.541 3.416,-3.929 3.721,-4.416 0.172,-0.275 0.479,-0.688 0.683,-0.917 0.833,-0.935 1.516,-1.786 1.941,-2.417 0.248,-0.366 0.753,-1.079 1.124,-1.583 0.756,-1.027 1.629,-2.283 2.498,-3.593 0.321,-0.483 0.703,-1.054 0.849,-1.268 0.145,-0.214 0.587,-0.951 0.981,-1.639 0.394,-0.687 0.855,-1.437 1.026,-1.667 0.17,-0.229 0.561,-0.904 0.869,-1.5 0.564,-1.09 1.651,-3.155 2.15,-4.083 0.148,-0.275 0.618,-1.25 1.045,-2.167 0.427,-0.916 0.95,-2.004 1.162,-2.416 0.212,-0.413 0.503,-1.151 0.647,-1.64 0.144,-0.489 0.407,-1.126 0.584,-1.416 0.177,-0.29 0.435,-0.911 0.572,-1.379 0.138,-0.469 0.442,-1.257 0.676,-1.752 0.234,-0.495 0.514,-1.312 0.621,-1.815 0.108,-0.503 0.405,-1.44 0.661,-2.082 0.255,-0.641 0.547,-1.626 0.648,-2.189 0.101,-0.562 0.362,-1.462 0.58,-2 0.217,-0.537 0.516,-1.74 0.664,-2.673 0.147,-0.932 0.41,-2.169 0.583,-2.75 0.436,-1.463 0.465,-1.618 0.758,-4.007 0.143,-1.165 0.371,-2.647 0.507,-3.292 0.819,-3.897 0.821,-18.655 0.003,-23.028 -0.131,-0.7 -0.391,-2.462 -0.578,-3.917 -0.187,-1.454 -0.492,-3.127 -0.679,-3.718 -0.187,-0.591 -0.457,-1.866 -0.601,-2.834 -0.143,-0.967 -0.431,-2.171 -0.64,-2.675 -0.208,-0.504 -0.51,-1.517 -0.669,-2.25 -0.16,-0.733 -0.395,-1.538 -0.523,-1.787 -0.128,-0.25 -0.41,-1.115 -0.626,-1.923 -0.216,-0.808 -0.549,-1.775 -0.74,-2.149 -0.191,-0.374 -0.437,-1.046 -0.546,-1.494 -0.11,-0.447 -0.385,-1.186 -0.612,-1.64 -0.227,-0.455 -0.561,-1.279 -0.743,-1.832 -0.181,-0.553 -0.461,-1.193 -0.622,-1.423 -0.161,-0.23 -0.421,-0.808 -0.577,-1.284 -0.156,-0.476 -0.431,-1.053 -0.61,-1.281 -0.18,-0.228 -0.441,-0.739 -0.58,-1.134 -0.139,-0.396 -0.424,-0.982 -0.634,-1.303 -0.21,-0.321 -0.586,-0.996 -0.836,-1.5 -0.819,-1.653 -1.58,-3.032 -1.827,-3.31 -0.134,-0.15 -0.366,-0.572 -0.517,-0.938 -0.151,-0.365 -0.409,-0.815 -0.573,-1 -0.163,-0.184 -0.501,-0.673 -0.749,-1.085 -0.249,-0.413 -0.632,-1.013 -0.851,-1.334 -2.09,-3.058 -3.013,-4.359 -3.367,-4.747 -0.166,-0.181 -0.507,-0.631 -0.757,-1 -0.251,-0.368 -0.832,-1.119 -1.292,-1.669 -0.46,-0.55 -1.017,-1.263 -1.237,-1.584 -0.22,-0.321 -0.839,-1.045 -1.375,-1.61 -0.536,-0.565 -1.537,-1.647 -2.225,-2.405 -0.687,-0.757 -1.662,-1.772 -2.166,-2.255 -0.505,-0.483 -1.78,-1.707 -2.834,-2.719 -1.054,-1.013 -1.966,-1.842 -2.026,-1.843 -0.06,0 -0.705,-0.507 -1.432,-1.126 -1.581,-1.344 -2.913,-2.427 -3.9,-3.171 -0.399,-0.301 -1.169,-0.882 -1.712,-1.292 -0.544,-0.41 -1.043,-0.745 -1.11,-0.745 -0.067,0 -0.425,-0.244 -0.797,-0.542 -0.371,-0.298 -1.283,-0.917 -2.026,-1.375 -0.744,-0.458 -1.62,-1.04 -1.947,-1.292 -0.328,-0.252 -0.679,-0.458 -0.781,-0.458 -0.102,-0.001 -0.627,-0.301 -1.166,-0.667 -0.54,-0.367 -1.078,-0.666 -1.196,-0.666 -0.118,0 -0.433,-0.184 -0.7,-0.409 -0.266,-0.224 -0.891,-0.567 -1.387,-0.763 -0.497,-0.195 -1.016,-0.451 -1.153,-0.569 -0.138,-0.118 -1.15,-0.641 -2.25,-1.162 -1.1,-0.521 -2.372,-1.14 -2.826,-1.375 -0.455,-0.235 -1.205,-0.538 -1.667,-0.672 -0.462,-0.135 -1.146,-0.422 -1.52,-0.638 -0.375,-0.217 -1.05,-0.484 -1.5,-0.594 -0.451,-0.111 -1.168,-0.375 -1.594,-0.587 -0.425,-0.212 -1.288,-0.512 -1.916,-0.667 -0.629,-0.154 -1.488,-0.453 -1.91,-0.663 -0.421,-0.209 -1.423,-0.504 -2.225,-0.654 -0.803,-0.151 -1.791,-0.416 -2.195,-0.589 -0.404,-0.173 -1.39,-0.434 -2.191,-0.579 -0.801,-0.145 -2.094,-0.442 -2.873,-0.659 -0.779,-0.218 -2.204,-0.483 -3.166,-0.59 -0.963,-0.107 -2.388,-0.304 -3.167,-0.437 -3.678,-0.631 -4.656,-0.73 -8,-0.811 -1.971,-0.048 -4.333,-0.11 -5.25,-0.139 -0.917,-0.028 -3.204,0 -5.083,0.063 M 55.062,134.924 c -1.344,0.147 -2.349,0.357 -3,0.626 -0.538,0.223 -1.204,0.455 -1.479,0.516 -0.275,0.061 -1.025,0.368 -1.666,0.684 -0.642,0.316 -1.43,0.689 -1.75,0.83 -0.321,0.141 -0.846,0.439 -1.167,0.663 -0.321,0.223 -1.102,0.767 -1.737,1.207 -1.734,1.203 -4.518,4.044 -5.521,5.633 -0.174,0.275 -0.516,0.763 -0.762,1.084 -0.245,0.32 -0.499,0.771 -0.563,1 -0.064,0.229 -0.294,0.679 -0.511,1 -0.216,0.32 -0.577,1.108 -0.801,1.75 -0.224,0.641 -0.557,1.579 -0.74,2.083 -1.404,3.862 -1.242,12.166 0.301,15.417 0.261,0.55 0.548,1.279 0.639,1.62 0.091,0.341 0.316,0.832 0.501,1.091 0.184,0.258 0.529,0.879 0.766,1.379 1.268,2.673 5.579,7.162 8.314,8.659 2.26,1.236 4.601,2.31 5.274,2.42 0.408,0.067 1.222,0.302 1.807,0.522 2.088,0.786 8.613,0.964 10.866,0.296 0.504,-0.149 1.578,-0.452 2.386,-0.673 1.6,-0.437 5.711,-2.372 6.524,-3.071 0.279,-0.24 0.844,-0.668 1.257,-0.952 1,-0.688 3.073,-2.719 4.04,-3.958 1.313,-1.683 1.96,-2.58 1.96,-2.719 0,-0.073 0.235,-0.503 0.523,-0.957 0.288,-0.453 0.653,-1.199 0.812,-1.657 0.159,-0.459 0.447,-1.134 0.639,-1.501 0.193,-0.367 0.507,-1.449 0.699,-2.405 0.191,-0.957 0.419,-1.871 0.505,-2.032 0.498,-0.931 0.483,-7.263 -0.02,-8.584 -0.1,-0.263 -0.328,-1.191 -0.507,-2.062 -0.178,-0.871 -0.51,-1.958 -0.737,-2.416 -0.226,-0.459 -0.523,-1.157 -0.66,-1.553 -0.136,-0.396 -0.389,-0.921 -0.562,-1.167 -0.173,-0.246 -0.479,-0.77 -0.678,-1.164 -2.025,-4.001 -8.488,-9.332 -12.572,-10.372 -0.381,-0.097 -1.133,-0.369 -1.672,-0.604 -1.797,-0.785 -6.671,-1.073 -10.708,-0.633"
       inkscape:connector-curvature="0"
       style="fill:#d91f23;fill-rule:evenodd;stroke:none"
       sodipodi:nodetypes="cccsccccscccscccccscccsccsccsccscccccccsccscsccccssccccccccccccccccccsccccccccsccccssscsccssccccccccscccccccccsccsscccscccccccccccccccccccccscccccsccccccccscccccsccccccccsscsccccccccccsccccsscccssccsccccccccssscccccccscccccscccsccccccccssccccccccsccccccsccccsccccccccccscccccccccscccc" />
  </g>
</svg>
