<svg id="svg" version="1.1" width="400" height="206.65148063781322" viewBox="0 0 400 206.65148063781322" xmlns="http://www.w3.org/2000/svg" xmlns:xlink="http://www.w3.org/1999/xlink" ><g id="svgg"><path id="path0" d="M93.121 103.326 L 93.121 206.651 149.977 206.651 L 206.834 206.651 206.834 103.326 L 206.834 0.000 149.977 0.000 L 93.121 0.000 93.121 103.326 M114.635 17.468 C 116.411 18.153,116.425 18.180,115.727 19.428 C 115.396 20.018,115.101 20.530,115.070 20.564 C 115.039 20.599,114.537 20.444,113.953 20.220 C 109.409 18.473,106.426 21.164,107.120 26.386 C 107.588 29.914,109.691 31.350,113.030 30.423 L 113.713 30.233 113.713 28.784 L 113.713 27.335 112.620 27.335 L 111.526 27.335 111.526 26.720 C 111.526 26.382,111.475 25.849,111.412 25.535 L 111.298 24.966 113.964 24.966 L 116.629 24.966 116.629 28.498 L 116.629 32.031 115.399 32.485 C 108.388 35.076,103.698 32.099,103.696 25.057 C 103.695 21.181,105.380 18.338,108.271 17.341 C 109.834 16.802,113.078 16.867,114.635 17.468 M134.821 19.741 L 134.746 22.534 135.371 22.110 C 139.482 19.320,143.811 24.543,141.907 29.997 C 140.799 33.172,136.541 34.507,134.389 32.356 L 133.923 31.889 133.656 32.528 C 133.407 33.123,133.334 33.166,132.572 33.166 L 131.754 33.166 131.754 25.057 L 131.754 16.948 133.325 16.948 L 134.896 16.948 134.821 19.741 M148.519 18.405 L 148.519 19.863 146.970 19.863 L 145.421 19.863 145.421 18.405 L 145.421 16.948 146.970 16.948 L 148.519 16.948 148.519 18.405 M126.589 21.965 C 130.380 23.820,130.479 30.901,126.743 32.851 C 125.043 33.738,121.854 33.435,120.416 32.250 C 117.621 29.947,118.230 23.610,121.406 21.942 C 122.826 21.197,125.039 21.207,126.589 21.965 M157.613 21.517 C 159.734 21.971,160.994 23.771,161.210 26.651 L 161.329 28.246 157.677 28.246 L 154.025 28.246 154.198 29.018 C 154.607 30.834,156.516 31.476,158.907 30.601 C 160.410 30.050,160.395 30.046,160.681 31.155 C 160.988 32.349,160.915 32.435,159.118 32.990 C 154.436 34.436,150.888 31.998,150.888 27.335 C 150.888 23.119,153.708 20.679,157.613 21.517 M170.054 21.649 C 170.121 21.719,170.132 22.310,170.078 22.961 L 169.980 24.146 168.763 24.146 C 167.905 24.146,167.401 24.241,167.053 24.469 L 166.560 24.792 166.560 28.979 L 166.560 33.166 165.011 33.166 L 163.462 33.166 163.462 27.426 L 163.462 21.686 164.536 21.686 C 165.653 21.686,165.831 21.814,165.831 22.612 C 165.831 23.085,165.935 23.055,166.517 22.407 C 167.335 21.497,169.470 21.040,170.054 21.649 M179.610 21.590 C 181.780 22.235,182.111 23.150,182.197 28.747 L 182.265 33.166 180.609 33.166 L 178.952 33.166 178.952 29.334 C 178.952 25.260,178.820 24.471,178.068 24.069 C 177.529 23.781,176.274 23.829,175.563 24.167 L 174.943 24.461 174.943 28.813 L 174.943 33.166 173.394 33.166 L 171.845 33.166 171.845 27.426 L 171.845 21.686 172.916 21.686 C 173.934 21.686,173.999 21.713,174.213 22.230 L 174.438 22.774 175.006 22.370 C 176.353 21.411,178.042 21.125,179.610 21.590 M191.766 21.774 C 196.129 23.601,196.094 31.619,191.717 33.072 C 188.578 34.115,185.383 32.726,184.506 29.939 C 182.797 24.506,187.001 19.778,191.766 21.774 M148.702 27.426 L 148.702 33.166 147.062 33.166 L 145.421 33.166 145.421 28.528 L 145.421 23.889 144.784 23.769 C 144.148 23.650,144.146 23.646,144.146 22.668 L 144.146 21.686 146.424 21.686 L 148.702 21.686 148.702 27.426 M122.996 23.958 C 121.756 24.633,121.453 29.094,122.559 30.408 C 123.982 32.100,125.959 30.880,126.213 28.153 C 126.524 24.800,125.030 22.852,122.996 23.958 M135.626 24.074 L 134.852 24.457 134.852 27.254 L 134.852 30.050 135.494 30.539 C 137.467 32.044,139.111 30.587,139.108 27.335 C 139.106 24.170,137.836 22.980,135.626 24.074 M155.309 23.878 C 154.757 24.100,154.170 25.105,154.169 25.831 L 154.169 26.424 156.173 26.424 L 158.178 26.424 158.177 25.923 C 158.176 24.341,156.726 23.308,155.309 23.878 M188.375 24.058 C 186.971 25.162,187.104 30.040,188.558 30.818 C 190.475 31.844,191.705 30.466,191.707 27.293 C 191.709 24.261,190.101 22.699,188.375 24.058 M114.260 45.931 L 114.260 54.140 113.030 54.086 C 111.828 54.033,111.795 54.019,111.614 53.458 L 111.428 52.883 110.847 53.403 C 108.604 55.407,105.017 54.027,104.024 50.777 C 102.434 45.571,106.439 40.560,110.524 42.642 C 110.917 42.843,111.245 43.007,111.253 43.007 C 111.260 43.007,111.233 41.943,111.193 40.643 C 111.097 37.572,111.014 37.722,112.796 37.722 L 114.260 37.722 114.260 45.931 M143.073 37.982 C 144.525 38.241,146.150 38.856,146.150 39.147 C 146.150 39.316,145.266 41.396,145.138 41.527 C 145.101 41.565,144.678 41.402,144.198 41.166 C 142.811 40.483,139.922 40.525,138.982 41.241 C 136.865 42.855,136.617 48.310,138.563 50.450 C 139.750 51.755,141.917 51.835,144.220 50.660 C 144.812 50.358,145.317 50.132,145.341 50.158 C 145.396 50.217,146.333 52.525,146.333 52.603 C 146.333 52.797,143.943 53.812,142.916 54.053 C 137.576 55.310,133.936 52.011,133.945 45.923 C 133.954 40.021,137.451 36.979,143.073 37.982 M151.398 40.602 L 151.344 43.483 152.125 42.931 C 153.426 42.014,156.115 42.062,157.339 43.025 C 158.535 43.966,158.633 44.455,158.633 49.476 L 158.633 54.032 157.084 54.032 L 155.535 54.032 155.440 50.023 C 155.311 44.631,154.797 43.832,152.210 45.006 L 151.435 45.358 151.435 49.748 L 151.435 54.138 149.932 54.085 L 148.428 54.032 148.381 46.105 C 148.325 36.766,148.142 37.722,149.980 37.722 L 151.452 37.722 151.398 40.602 M165.103 39.180 L 165.103 40.638 163.554 40.638 L 162.005 40.638 162.005 39.180 L 162.005 37.722 163.554 37.722 L 165.103 37.722 165.103 39.180 M171.073 44.540 C 171.125 51.837,171.095 51.646,172.213 51.825 L 172.938 51.941 172.938 52.945 C 172.938 54.174,172.582 54.389,170.775 54.251 C 168.020 54.039,167.940 53.788,167.871 45.215 C 167.805 36.899,167.630 37.694,169.519 37.760 L 171.025 37.813 171.073 44.540 M124.100 42.658 C 125.930 43.487,126.684 44.819,126.798 47.426 L 126.876 49.203 123.287 49.203 L 119.698 49.203 119.827 49.792 C 120.247 51.705,122.339 52.383,124.829 51.415 C 125.380 51.201,125.887 51.025,125.955 51.025 C 126.056 51.025,126.651 52.782,126.651 53.081 C 126.651 53.266,124.862 53.919,123.774 54.132 C 121.558 54.564,119.486 54.052,118.184 52.750 C 115.994 50.560,116.125 45.267,118.417 43.369 C 119.745 42.269,122.487 41.926,124.100 42.658 M181.868 42.658 C 183.698 43.487,184.452 44.819,184.566 47.426 L 184.644 49.203 181.055 49.203 L 177.465 49.203 177.589 49.795 C 177.986 51.701,180.101 52.385,182.597 51.415 C 183.148 51.201,183.655 51.025,183.723 51.025 C 183.824 51.025,184.419 52.782,184.419 53.081 C 184.419 53.266,182.630 53.919,181.542 54.132 C 177.068 55.005,174.237 52.470,174.427 47.759 C 174.599 43.461,178.198 40.994,181.868 42.658 M165.194 48.292 L 165.194 54.032 163.645 54.032 L 162.096 54.032 162.005 49.387 L 161.913 44.741 161.367 44.647 C 160.841 44.557,160.818 44.513,160.765 43.501 L 160.710 42.449 162.952 42.500 L 165.194 42.551 165.194 48.292 M108.042 44.921 C 106.592 45.709,106.362 49.958,107.693 51.383 C 108.341 52.077,109.390 52.136,110.454 51.538 L 111.162 51.140 111.162 48.105 L 111.162 45.069 110.457 44.858 C 109.525 44.579,108.629 44.602,108.042 44.921 M120.774 44.844 C 120.392 45.066,120.000 45.795,119.825 46.606 L 119.698 47.198 121.808 47.198 C 124.111 47.198,124.052 47.233,123.728 46.068 C 123.395 44.868,121.839 44.224,120.774 44.844 M178.542 44.844 C 178.160 45.066,177.768 45.795,177.593 46.606 L 177.465 47.198 179.575 47.198 C 181.879 47.198,181.820 47.233,181.496 46.068 C 181.163 44.868,179.607 44.224,178.542 44.844 M125.558 185.777 L 125.558 187.864 126.333 187.512 C 129.082 186.264,131.210 188.137,131.202 191.800 C 131.195 195.549,127.696 197.717,125.248 195.489 L 124.848 195.125 124.728 195.603 C 124.624 196.017,124.512 196.082,123.898 196.082 L 123.189 196.082 123.189 189.886 L 123.189 183.690 124.374 183.690 L 125.558 183.690 125.558 185.777 M147.790 188.847 C 147.790 194.400,147.798 194.442,148.748 194.442 C 149.255 194.442,149.267 194.464,149.213 195.308 L 149.157 196.173 148.143 196.227 C 145.523 196.365,145.423 196.106,145.422 189.203 L 145.421 183.690 146.606 183.690 L 147.790 183.690 147.790 188.847 M108.849 187.581 C 109.655 187.989,109.702 187.994,109.803 187.673 C 109.887 187.411,110.092 187.335,110.718 187.335 L 111.526 187.335 111.522 192.118 C 111.517 198.865,110.848 199.938,106.810 199.683 C 104.140 199.514,103.618 199.072,104.221 197.489 L 104.414 196.983 105.158 197.363 C 107.211 198.410,109.157 197.793,109.157 196.094 L 109.157 195.535 108.477 195.899 C 106.687 196.859,104.500 195.933,103.788 193.915 C 102.339 189.806,105.480 185.876,108.849 187.581 M118.958 187.436 C 122.320 188.840,122.442 194.602,119.138 195.982 C 116.867 196.931,114.110 195.794,113.506 193.659 C 112.325 189.491,115.420 185.958,118.958 187.436 M143.271 187.567 L 143.945 187.855 143.646 188.643 C 143.482 189.076,143.340 189.447,143.330 189.468 C 143.320 189.488,142.987 189.390,142.590 189.248 C 140.368 188.457,139.180 189.334,139.180 191.766 C 139.180 194.121,140.513 195.051,142.625 194.169 C 143.522 193.794,143.514 193.790,143.729 194.733 L 143.921 195.572 143.259 195.853 C 140.647 196.963,137.617 195.910,136.949 193.660 C 135.619 189.183,139.130 185.800,143.271 187.567 M106.562 189.433 C 105.569 190.426,105.645 193.387,106.685 194.250 C 107.098 194.592,108.134 194.557,108.706 194.182 C 109.420 193.715,109.409 189.512,108.693 189.186 C 107.910 188.829,107.068 188.927,106.562 189.433 M116.287 189.443 C 115.189 190.839,115.733 194.251,117.079 194.411 C 118.722 194.605,119.616 192.261,118.796 189.909 C 118.430 188.860,116.960 188.587,116.287 189.443 M126.059 189.257 L 125.558 189.533 125.558 191.610 C 125.558 194.048,125.841 194.512,127.261 194.405 C 128.412 194.318,128.747 193.710,128.747 191.708 C 128.747 189.297,127.706 188.348,126.059 189.257 M135.179 194.852 L 135.233 196.082 133.949 196.082 L 132.665 196.082 132.665 194.798 L 132.665 193.514 133.895 193.568 L 135.125 193.622 135.179 194.852 " stroke="none" fill="#ec3c44" fill-rule="evenodd"></path><path id="path1" d="M0.000 103.326 L 0.000 206.651 46.560 206.651 L 93.121 206.651 93.121 103.326 L 93.121 0.000 46.560 0.000 L 0.000 0.000 0.000 103.326 M49.962 11.237 C 50.791 11.722,51.360 12.628,51.501 13.689 C 51.592 14.379,51.692 14.579,51.946 14.579 C 52.126 14.579,52.515 14.782,52.810 15.031 C 53.341 15.477,53.360 15.479,54.205 15.191 C 57.880 13.939,60.577 18.060,58.188 21.277 C 57.199 22.609,54.255 23.200,52.731 22.372 L 52.159 22.062 51.948 22.900 C 51.524 24.583,50.504 26.156,49.477 26.709 C 48.842 27.051,48.822 27.127,49.141 27.978 C 49.335 28.497,48.763 28.785,47.927 28.588 C 47.222 28.421,45.325 28.451,44.462 28.642 C 44.261 28.686,44.188 28.522,44.179 28.003 C 44.168 27.405,44.083 27.264,43.593 27.027 C 43.213 26.843,42.863 26.433,42.555 25.812 C 42.299 25.296,41.798 24.629,41.442 24.328 C 41.019 23.971,40.682 23.450,40.471 22.825 L 40.147 21.868 39.800 22.258 C 38.376 23.856,34.568 23.192,33.550 21.167 C 31.850 17.784,34.838 14.450,38.559 15.579 C 39.714 15.929,39.726 15.928,39.728 15.444 C 39.733 13.280,41.518 11.675,43.927 11.667 C 44.584 11.665,45.209 11.575,45.317 11.467 C 46.079 10.705,48.818 10.570,49.962 11.237 M65.421 18.679 C 65.421 19.139,65.670 19.288,65.877 18.952 C 66.080 18.623,66.515 18.761,66.515 19.154 C 66.515 19.476,66.591 19.519,66.986 19.420 C 67.361 19.326,67.476 19.377,67.553 19.674 C 67.662 20.087,67.757 20.119,68.150 19.870 C 68.771 19.478,68.654 21.338,68.002 22.232 C 67.752 22.575,67.706 22.823,67.817 23.232 C 67.977 23.824,67.729 25.005,67.323 25.585 C 67.104 25.897,67.117 25.973,67.425 26.188 C 67.923 26.537,68.166 27.552,67.945 28.354 C 67.714 29.191,67.736 29.205,68.857 28.947 C 69.867 28.714,69.899 28.673,69.593 28.002 C 69.426 27.635,69.477 27.369,69.887 26.454 C 70.316 25.498,70.356 25.269,70.180 24.765 C 69.533 22.908,70.893 21.478,72.510 22.314 C 76.443 24.348,78.303 37.849,76.165 48.838 C 75.429 52.620,74.839 54.305,74.251 54.305 C 73.692 54.305,73.383 52.861,72.455 45.907 C 71.540 39.049,70.905 36.597,70.432 38.088 C 70.217 38.768,69.418 39.544,68.935 39.544 C 68.290 39.544,68.417 40.212,69.892 44.585 C 71.178 48.397,71.241 48.734,70.718 49.014 C 70.122 49.333,67.747 49.236,66.485 48.841 C 65.850 48.641,65.310 48.477,65.285 48.476 C 65.260 48.475,65.239 48.593,65.239 48.738 C 65.239 49.579,64.819 50.836,64.505 50.936 C 63.464 51.266,65.013 52.707,68.257 54.423 L 70.139 55.420 70.423 54.871 C 71.037 53.684,70.400 51.936,69.354 51.936 C 68.765 51.936,68.648 52.138,69.067 52.431 C 69.878 52.999,69.138 54.016,68.219 53.597 C 66.651 52.883,67.827 50.814,69.628 51.119 C 71.091 51.366,71.953 52.649,71.716 54.228 L 71.595 55.034 72.517 55.034 C 73.903 55.034,74.509 55.743,73.885 56.634 C 73.427 57.287,72.164 56.962,72.164 56.190 C 72.164 55.869,71.906 55.881,71.224 56.233 L 70.667 56.522 71.074 56.806 C 74.419 59.150,81.287 57.598,79.807 54.833 C 79.616 54.476,79.612 54.476,79.306 54.829 C 78.783 55.433,78.241 55.479,77.725 54.963 C 77.150 54.387,77.147 54.044,77.714 53.477 C 78.884 52.307,81.043 53.507,80.878 55.237 L 80.810 55.945 81.561 55.945 C 82.780 55.945,83.294 56.894,82.453 57.591 C 82.245 57.764,82.069 57.763,81.643 57.587 C 81.140 57.378,81.049 57.404,80.456 57.925 C 77.637 60.400,72.893 59.875,69.054 56.663 C 68.309 56.039,67.408 55.335,67.052 55.099 L 66.405 54.669 65.300 55.042 L 64.195 55.416 64.100 56.465 C 64.040 57.123,63.794 57.932,63.440 58.632 L 62.876 59.750 63.353 60.126 C 63.923 60.574,64.465 60.604,65.016 60.217 C 65.644 59.778,65.523 58.497,64.854 58.497 C 64.561 58.497,64.540 58.549,64.720 58.837 C 65.021 59.320,64.785 59.811,64.285 59.739 C 63.438 59.619,63.667 58.237,64.599 57.848 C 66.354 57.115,67.390 59.416,65.952 60.854 C 64.954 61.851,63.151 62.043,62.415 61.231 C 62.096 60.878,62.087 60.879,61.558 61.324 C 59.881 62.735,55.980 62.627,53.528 61.102 L 52.842 60.675 52.671 61.124 C 52.174 62.430,49.932 62.022,49.932 60.625 C 49.932 59.203,51.571 58.794,53.404 59.760 L 54.415 60.293 54.003 59.076 C 53.647 58.027,53.533 57.863,53.173 57.888 C 52.944 57.905,51.629 57.978,50.251 58.052 C 47.497 58.200,47.569 58.159,47.921 59.388 C 48.018 59.726,48.264 60.120,48.468 60.263 C 48.945 60.596,48.939 61.082,48.454 61.521 C 48.243 61.712,47.914 62.175,47.722 62.551 C 47.308 63.362,45.745 63.562,45.739 62.805 C 45.738 62.691,45.451 62.237,45.101 61.797 C 44.342 60.842,44.336 60.786,44.920 60.244 C 45.220 59.966,45.414 59.542,45.488 59.005 L 45.600 58.190 43.078 58.063 C 41.692 57.994,40.379 57.892,40.162 57.837 C 39.812 57.749,39.727 57.869,39.414 58.892 C 38.981 60.304,38.947 60.261,40.067 59.693 C 41.340 59.048,42.480 59.053,42.994 59.706 C 43.743 60.658,43.165 61.959,41.991 61.959 C 41.323 61.959,40.638 61.443,40.638 60.939 C 40.638 60.707,40.437 60.762,39.633 61.216 C 37.101 62.645,33.374 62.694,31.741 61.321 C 31.220 60.882,31.205 60.880,30.894 61.224 C 29.408 62.866,26.005 60.653,26.861 58.602 C 27.216 57.754,27.854 57.493,28.704 57.848 C 29.636 58.237,29.865 59.619,29.018 59.739 C 28.518 59.811,28.282 59.320,28.583 58.837 C 28.834 58.436,28.471 58.344,28.100 58.715 C 27.101 59.715,28.805 61.027,29.941 60.133 L 30.410 59.764 29.863 58.595 C 29.562 57.951,29.269 56.976,29.212 56.428 L 29.109 55.430 28.041 55.040 L 26.972 54.651 26.197 55.186 C 25.770 55.481,24.854 56.188,24.160 56.758 C 20.468 59.791,16.063 60.326,13.120 58.098 C 12.276 57.459,12.102 57.394,11.717 57.569 C 10.843 57.967,10.043 56.992,10.672 56.297 C 10.889 56.057,11.231 55.945,11.746 55.945 C 12.496 55.945,12.500 55.941,12.429 55.332 C 12.223 53.565,14.633 52.206,15.659 53.510 C 16.627 54.740,15.014 56.004,13.988 54.819 C 13.594 54.363,13.209 55.101,13.396 55.954 C 13.864 58.083,19.433 58.673,22.120 56.877 L 22.645 56.526 22.083 56.236 C 21.416 55.891,21.139 55.868,21.139 56.159 C 21.139 56.534,20.550 57.039,20.113 57.039 C 19.048 57.039,18.906 55.372,19.948 55.111 C 20.519 54.967,20.524 54.834,19.981 54.183 C 19.710 53.856,19.505 53.305,19.424 52.679 C 19.353 52.135,19.095 50.864,18.851 49.854 C 18.237 47.322,18.239 47.310,19.408 46.239 C 20.716 45.041,20.638 44.168,19.086 42.678 L 18.459 42.076 17.793 42.394 C 17.020 42.762,16.359 42.443,15.882 41.472 C 15.415 40.518,16.071 39.048,16.888 39.217 C 17.226 39.286,17.237 39.402,17.012 40.592 C 16.911 41.126,16.942 41.184,17.334 41.182 C 17.995 41.177,18.150 40.995,18.404 39.926 C 18.750 38.468,21.898 35.371,27.289 31.186 C 28.312 30.391,28.284 30.113,26.981 28.185 C 26.385 27.304,25.806 26.305,25.694 25.966 C 25.582 25.626,25.331 25.297,25.136 25.235 C 24.941 25.173,24.534 24.914,24.230 24.659 C 23.734 24.241,23.608 24.214,22.956 24.379 C 22.316 24.541,22.232 24.525,22.232 24.240 C 22.232 23.818,22.586 23.537,23.298 23.395 C 23.931 23.269,24.066 22.865,23.532 22.696 C 22.979 22.520,22.498 21.894,22.734 21.658 C 22.881 21.511,23.068 21.561,23.428 21.844 C 23.700 22.058,24.054 22.229,24.216 22.225 C 24.406 22.220,24.341 22.126,24.031 21.957 C 23.767 21.814,23.502 21.568,23.442 21.411 C 23.262 20.943,23.805 20.896,24.389 21.328 C 25.157 21.895,25.447 21.641,24.965 20.823 C 24.702 20.378,24.641 20.115,24.770 19.987 C 24.989 19.767,25.695 20.320,25.695 20.712 C 25.695 20.846,25.774 20.957,25.871 20.957 C 26.074 20.957,25.935 20.510,25.545 19.900 C 25.334 19.570,25.324 19.433,25.498 19.262 C 25.745 19.019,26.424 19.676,26.424 20.157 C 26.424 20.315,26.623 20.410,26.958 20.410 C 27.324 20.410,27.527 20.520,27.603 20.757 C 27.909 21.721,29.884 23.138,30.928 23.142 C 31.908 23.147,31.462 24.505,30.384 24.798 C 29.960 24.913,29.510 25.037,29.385 25.072 C 28.918 25.204,29.186 25.482,30.164 25.879 C 31.352 26.361,32.448 27.503,32.777 28.600 C 32.899 29.007,33.040 29.339,33.092 29.339 C 33.531 29.339,34.323 28.635,34.734 27.879 C 35.292 26.854,35.678 26.672,36.867 26.871 C 37.287 26.942,38.340 27.054,39.207 27.122 C 40.256 27.203,40.895 27.342,41.120 27.539 C 41.306 27.702,41.768 27.979,42.148 28.155 C 43.211 28.649,43.360 29.104,42.566 29.436 C 41.634 29.826,40.871 29.785,40.729 29.339 C 40.653 29.102,40.453 28.975,40.153 28.975 C 39.900 28.975,39.485 28.811,39.230 28.610 C 38.869 28.327,38.490 28.246,37.519 28.246 C 36.119 28.246,35.922 28.401,35.555 29.798 C 35.449 30.200,35.114 30.921,34.811 31.399 C 34.036 32.620,34.083 32.716,35.905 33.675 C 37.591 34.561,38.062 35.979,37.371 38.087 L 37.043 39.089 36.745 38.411 C 36.581 38.039,36.446 37.518,36.446 37.254 C 36.446 36.718,35.506 35.713,35.015 35.725 C 33.346 35.768,32.099 36.365,31.356 37.479 C 30.455 38.827,29.473 39.742,28.277 40.349 C 27.295 40.846,27.330 40.752,27.041 43.736 C 26.864 45.555,28.906 47.745,30.777 47.745 C 31.287 47.745,31.993 47.939,32.703 48.275 C 33.703 48.747,33.920 48.787,34.706 48.640 C 36.158 48.368,38.627 48.907,40.647 49.935 C 41.619 50.430,44.028 52.037,44.190 52.298 C 44.379 52.605,45.054 52.507,45.475 52.111 C 46.131 51.495,47.029 51.453,47.690 52.009 C 48.463 52.660,48.618 52.626,50.239 51.454 C 53.701 48.951,56.947 48.036,59.616 48.810 C 61.575 49.378,62.481 49.567,63.237 49.567 L 63.964 49.567 63.964 48.565 C 63.964 48.014,63.886 47.563,63.792 47.563 C 63.453 47.563,61.368 45.470,60.536 44.295 C 60.070 43.637,59.610 43.066,59.516 43.026 C 59.421 42.987,58.989 42.628,58.556 42.229 L 57.768 41.503 57.768 42.136 C 57.768 42.485,57.666 43.049,57.542 43.390 L 57.317 44.009 57.212 42.823 C 57.137 41.969,56.895 41.177,56.348 39.998 C 55.325 37.791,56.207 37.577,57.635 39.685 C 57.912 40.095,58.480 40.700,58.895 41.029 L 59.650 41.627 59.544 40.971 C 59.404 40.111,59.703 38.822,60.152 38.344 C 60.507 37.966,60.506 37.956,59.975 36.339 C 59.622 35.265,59.400 34.818,59.320 35.017 C 58.940 35.969,57.280 35.792,56.319 34.698 C 55.611 33.892,55.617 33.813,56.492 32.459 C 57.408 31.042,57.441 31.201,55.991 30.084 C 54.684 29.077,54.694 29.078,53.182 29.616 C 52.475 29.868,52.171 29.885,51.360 29.715 C 49.836 29.397,49.821 29.364,50.647 28.128 C 53.333 24.106,58.375 22.489,57.313 25.990 C 56.769 27.780,56.987 28.941,57.940 29.335 C 59.069 29.803,60.697 28.967,60.411 28.066 C 60.091 27.060,61.282 26.005,62.961 25.807 C 63.362 25.759,63.731 25.715,63.781 25.707 C 63.831 25.700,63.611 25.534,63.292 25.339 C 62.829 25.057,62.699 24.845,62.654 24.296 C 62.589 23.515,61.743 22.973,61.415 23.503 C 61.287 23.711,61.206 23.715,60.978 23.525 C 60.251 22.922,60.494 22.019,61.471 21.697 C 61.805 21.586,62.259 21.252,62.480 20.953 C 62.737 20.605,63.043 20.410,63.331 20.410 C 63.639 20.410,63.781 20.309,63.781 20.089 C 63.781 19.769,65.026 18.225,65.285 18.224 C 65.360 18.223,65.421 18.428,65.421 18.679 M48.565 29.440 C 48.966 29.568,49.786 29.883,50.387 30.140 C 51.751 30.722,52.270 30.729,53.355 30.181 L 54.214 29.746 55.171 30.361 C 56.213 31.031,56.302 31.254,55.788 31.912 C 54.116 34.049,53.848 37.064,55.102 39.611 C 57.059 43.582,55.092 47.012,50.855 47.017 C 48.999 47.019,47.841 47.635,47.033 49.050 L 46.515 49.957 46.099 49.261 C 45.141 47.659,43.994 47.016,42.096 47.016 C 38.286 47.016,36.043 43.880,37.470 40.547 C 38.627 37.842,38.679 37.657,38.666 36.247 C 38.651 34.679,38.279 33.504,37.386 32.206 C 36.708 31.219,36.746 31.047,37.789 30.387 C 38.738 29.786,38.727 29.787,39.820 30.270 C 40.847 30.725,41.469 30.665,42.968 29.972 C 45.021 29.021,46.742 28.858,48.565 29.440 M45.480 33.773 L 44.775 36.072 42.246 36.123 L 39.717 36.173 41.726 37.611 C 42.831 38.402,43.736 39.103,43.736 39.169 C 43.736 39.234,43.408 40.262,43.009 41.453 C 42.609 42.643,42.304 43.640,42.331 43.668 C 42.359 43.695,43.166 43.120,44.124 42.388 C 45.083 41.657,45.956 41.003,46.065 40.936 C 46.174 40.868,47.130 41.476,48.189 42.286 C 49.247 43.096,50.114 43.688,50.114 43.602 C 50.114 43.516,49.786 42.469,49.385 41.276 C 48.984 40.083,48.718 39.053,48.793 38.988 C 48.868 38.923,49.788 38.263,50.838 37.521 L 52.746 36.173 50.197 36.123 L 47.649 36.073 47.135 34.300 C 46.208 31.105,46.290 31.131,45.480 33.773 M24.186 44.526 C 23.769 45.539,22.598 46.719,21.525 47.206 C 21.062 47.416,20.560 47.655,20.410 47.736 C 19.835 48.046,20.341 53.212,20.947 53.212 C 21.036 53.212,21.239 53.262,21.397 53.322 C 21.616 53.407,21.686 53.315,21.686 52.940 C 21.686 51.803,23.615 50.728,24.828 51.189 C 25.921 51.605,26.155 52.902,25.245 53.498 C 24.356 54.081,23.400 53.124,24.214 52.465 C 24.716 52.058,24.703 51.936,24.156 51.936 C 22.987 51.936,22.231 53.617,22.857 54.827 L 23.157 55.407 24.927 54.496 C 29.090 52.353,33.116 48.855,30.732 49.453 C 30.388 49.540,29.859 49.255,28.223 48.102 C 25.775 46.377,25.513 46.097,25.513 45.214 C 25.513 43.761,24.678 43.328,24.186 44.526 M34.092 50.596 C 32.718 51.077,30.979 52.430,30.979 53.020 C 30.979 53.470,33.575 53.871,33.907 53.471 C 34.297 53.001,35.811 52.316,37.128 52.013 C 39.260 51.523,39.803 50.861,38.370 50.500 C 37.231 50.213,35.045 50.262,34.092 50.596 M54.806 50.505 C 53.531 50.863,54.160 51.543,56.203 52.017 C 57.446 52.305,58.565 52.800,59.441 53.447 C 60.000 53.860,62.323 53.453,62.323 52.941 C 62.323 51.347,57.446 49.766,54.806 50.505 M40.644 51.742 C 40.438 52.127,40.018 54.840,40.145 54.966 C 40.252 55.073,44.893 55.395,44.986 55.302 C 45.272 55.016,41.732 51.390,41.167 51.390 C 40.983 51.390,40.748 51.548,40.644 51.742 M50.566 52.617 C 49.207 53.927,48.292 54.985,48.292 55.243 C 48.292 55.390,49.140 55.358,52.092 55.102 L 53.251 55.001 53.122 53.788 C 52.833 51.059,52.390 50.856,50.566 52.617 M35.809 53.229 C 35.508 53.320,35.067 53.546,34.829 53.732 L 34.395 54.069 36.104 54.381 C 37.044 54.553,37.998 54.731,38.223 54.776 C 38.688 54.870,38.728 54.712,38.416 54.027 C 38.024 53.168,37.020 52.860,35.809 53.229 M55.289 53.649 C 54.560 54.379,54.462 54.903,55.080 54.772 C 55.305 54.725,56.105 54.590,56.856 54.472 C 58.875 54.156,59.048 54.072,58.464 53.689 C 57.205 52.864,56.088 52.850,55.289 53.649 M30.251 56.080 C 30.251 56.574,30.835 58.497,30.985 58.497 C 31.108 58.497,31.605 56.855,31.614 56.419 C 31.616 56.329,31.310 56.149,30.934 56.019 C 30.327 55.809,30.251 55.815,30.251 56.080 M62.148 56.148 C 61.543 56.389,61.559 56.319,61.893 57.327 C 62.321 58.621,62.444 58.656,62.765 57.575 C 63.245 55.960,63.152 55.747,62.148 56.148 M32.617 56.954 C 31.514 59.856,32.515 61.012,35.973 60.831 C 38.018 60.724,38.000 60.743,38.549 58.024 C 38.620 57.674,38.497 57.624,37.035 57.407 C 36.160 57.277,34.844 57.028,34.110 56.853 L 32.776 56.536 32.617 56.954 M57.859 57.136 C 56.756 57.366,55.617 57.561,55.328 57.570 L 54.802 57.585 54.921 58.603 C 55.156 60.597,55.516 60.866,57.952 60.866 C 60.586 60.866,61.521 59.918,60.954 57.823 C 60.591 56.481,60.787 56.525,57.859 57.136 " stroke="none" fill="#0c6cb4" fill-rule="evenodd"></path><path id="path2" d="M46.219 11.008 C 45.830 11.153,45.424 11.359,45.317 11.467 C 45.209 11.575,44.584 11.665,43.927 11.667 C 41.518 11.675,39.733 13.280,39.728 15.444 C 39.726 15.928,39.714 15.929,38.559 15.579 C 34.838 14.450,31.850 17.784,33.550 21.167 C 34.568 23.192,38.376 23.856,39.800 22.258 L 40.147 21.868 40.471 22.825 C 40.682 23.450,41.019 23.971,41.442 24.328 C 41.798 24.629,42.299 25.296,42.555 25.812 C 42.863 26.433,43.213 26.843,43.593 27.027 C 44.083 27.264,44.168 27.405,44.179 28.003 C 44.188 28.522,44.261 28.686,44.462 28.642 C 45.325 28.451,47.222 28.421,47.927 28.588 C 48.763 28.785,49.335 28.497,49.141 27.978 C 48.822 27.127,48.842 27.051,49.477 26.709 C 50.504 26.156,51.524 24.583,51.948 22.900 L 52.159 22.062 52.731 22.372 C 54.255 23.200,57.199 22.609,58.188 21.277 C 60.577 18.060,57.880 13.939,54.205 15.191 C 53.360 15.479,53.341 15.477,52.810 15.031 C 52.515 14.782,52.126 14.579,51.946 14.579 C 51.692 14.579,51.592 14.379,51.501 13.689 C 51.197 11.401,48.644 10.105,46.219 11.008 M108.929 17.145 C 105.202 18.024,103.215 21.779,103.842 26.757 C 104.581 32.621,109.170 34.890,115.399 32.472 L 116.629 31.994 116.629 28.480 L 116.629 24.966 114.032 24.965 L 111.435 24.965 111.496 26.150 L 111.557 27.335 112.635 27.335 L 113.713 27.335 113.713 28.779 L 113.713 30.222 113.121 30.406 C 109.214 31.617,107.063 29.716,107.067 25.057 C 107.072 20.505,109.452 18.731,113.659 20.143 C 114.416 20.398,115.053 20.582,115.074 20.553 C 115.736 19.634,116.277 18.341,116.061 18.193 C 114.533 17.142,111.090 16.636,108.929 17.145 M131.754 25.057 L 131.754 33.166 132.572 33.166 C 133.339 33.166,133.406 33.126,133.666 32.504 L 133.942 31.842 134.443 32.348 C 137.142 35.073,141.801 32.611,142.246 28.224 C 142.782 22.954,138.394 19.394,135.011 22.354 C 134.738 22.593,134.721 22.388,134.809 19.780 L 134.904 16.948 133.329 16.948 L 131.754 16.948 131.754 25.057 M145.421 18.314 L 145.421 19.681 146.970 19.681 L 148.519 19.681 148.519 18.314 L 148.519 16.948 146.970 16.948 L 145.421 16.948 145.421 18.314 M64.465 18.996 C 64.089 19.421,63.781 19.913,63.781 20.089 C 63.781 20.309,63.639 20.410,63.331 20.410 C 63.043 20.410,62.737 20.605,62.480 20.953 C 62.259 21.252,61.805 21.586,61.471 21.697 C 60.494 22.019,60.251 22.922,60.978 23.525 C 61.206 23.715,61.287 23.711,61.415 23.503 C 61.743 22.973,62.589 23.515,62.654 24.296 C 62.699 24.845,62.829 25.057,63.292 25.339 C 63.611 25.534,63.831 25.700,63.781 25.707 C 63.731 25.715,63.362 25.759,62.961 25.807 C 61.282 26.005,60.091 27.060,60.411 28.066 C 60.697 28.967,59.069 29.803,57.940 29.335 C 56.987 28.941,56.769 27.780,57.313 25.990 C 58.375 22.489,53.333 24.106,50.647 28.128 C 49.821 29.364,49.836 29.397,51.360 29.715 C 52.171 29.885,52.475 29.868,53.182 29.616 C 54.694 29.078,54.684 29.077,55.991 30.084 C 57.441 31.201,57.408 31.042,56.492 32.459 C 55.617 33.813,55.611 33.892,56.319 34.698 C 57.280 35.792,58.940 35.969,59.320 35.017 C 59.400 34.818,59.622 35.265,59.975 36.339 C 60.506 37.956,60.507 37.966,60.152 38.344 C 59.703 38.822,59.404 40.111,59.544 40.971 L 59.650 41.627 58.895 41.029 C 58.480 40.700,57.912 40.095,57.635 39.685 C 56.207 37.577,55.325 37.791,56.348 39.998 C 56.895 41.177,57.137 41.969,57.212 42.823 L 57.317 44.009 57.542 43.390 C 57.666 43.049,57.768 42.485,57.768 42.136 L 57.768 41.503 58.556 42.229 C 58.989 42.628,59.421 42.987,59.516 43.026 C 59.610 43.066,60.070 43.637,60.536 44.295 C 61.368 45.470,63.453 47.563,63.792 47.563 C 63.886 47.563,63.964 48.014,63.964 48.565 L 63.964 49.567 63.237 49.567 C 62.481 49.567,61.575 49.378,59.616 48.810 C 56.947 48.036,53.701 48.951,50.239 51.454 C 48.618 52.626,48.463 52.660,47.690 52.009 C 47.029 51.453,46.131 51.495,45.475 52.111 C 45.054 52.507,44.379 52.605,44.190 52.298 C 44.028 52.037,41.619 50.430,40.647 49.935 C 38.627 48.907,36.158 48.368,34.706 48.640 C 33.920 48.787,33.703 48.747,32.703 48.275 C 31.993 47.939,31.287 47.745,30.777 47.745 C 28.906 47.745,26.864 45.555,27.041 43.736 C 27.330 40.752,27.295 40.846,28.277 40.349 C 29.473 39.742,30.455 38.827,31.356 37.479 C 32.099 36.365,33.346 35.768,35.015 35.725 C 35.506 35.713,36.446 36.718,36.446 37.254 C 36.446 37.518,36.581 38.039,36.745 38.411 L 37.043 39.089 37.371 38.087 C 38.062 35.979,37.591 34.561,35.905 33.675 C 34.083 32.716,34.036 32.620,34.811 31.399 C 35.114 30.921,35.449 30.200,35.555 29.798 C 35.922 28.401,36.119 28.246,37.519 28.246 C 38.490 28.246,38.869 28.327,39.230 28.610 C 39.485 28.811,39.900 28.975,40.153 28.975 C 40.453 28.975,40.653 29.102,40.729 29.339 C 40.871 29.785,41.634 29.826,42.566 29.436 C 43.360 29.104,43.211 28.649,42.148 28.155 C 41.768 27.979,41.306 27.702,41.120 27.539 C 40.895 27.342,40.256 27.203,39.207 27.122 C 38.340 27.054,37.287 26.942,36.867 26.871 C 35.678 26.672,35.292 26.854,34.734 27.879 C 34.323 28.635,33.531 29.339,33.092 29.339 C 33.040 29.339,32.899 29.007,32.777 28.600 C 32.448 27.503,31.352 26.361,30.164 25.879 C 29.186 25.482,28.918 25.204,29.385 25.072 C 29.510 25.037,29.960 24.913,30.384 24.798 C 31.462 24.505,31.908 23.147,30.928 23.142 C 29.884 23.138,27.909 21.721,27.603 20.757 C 27.527 20.520,27.324 20.410,26.958 20.410 C 26.623 20.410,26.424 20.315,26.424 20.157 C 26.424 19.676,25.745 19.019,25.498 19.262 C 25.324 19.433,25.334 19.570,25.545 19.900 C 25.935 20.510,26.074 20.957,25.871 20.957 C 25.774 20.957,25.695 20.846,25.695 20.712 C 25.695 20.320,24.989 19.767,24.770 19.987 C 24.641 20.115,24.702 20.378,24.965 20.823 C 25.447 21.641,25.157 21.895,24.389 21.328 C 23.805 20.896,23.262 20.943,23.442 21.411 C 23.502 21.568,23.767 21.814,24.031 21.957 C 24.341 22.126,24.406 22.220,24.216 22.225 C 24.054 22.229,23.700 22.058,23.428 21.844 C 23.068 21.561,22.881 21.511,22.734 21.658 C 22.498 21.894,22.979 22.520,23.532 22.696 C 24.066 22.865,23.931 23.269,23.298 23.395 C 22.586 23.537,22.232 23.818,22.232 24.240 C 22.232 24.525,22.316 24.541,22.956 24.379 C 23.608 24.214,23.734 24.241,24.230 24.659 C 24.534 24.914,24.941 25.173,25.136 25.235 C 25.331 25.297,25.582 25.626,25.694 25.966 C 25.806 26.305,26.385 27.304,26.981 28.185 C 28.284 30.113,28.312 30.391,27.289 31.186 C 21.898 35.371,18.750 38.468,18.404 39.926 C 18.150 40.995,17.995 41.177,17.334 41.182 C 16.942 41.184,16.911 41.126,17.012 40.592 C 17.237 39.402,17.226 39.286,16.888 39.217 C 16.071 39.048,15.415 40.518,15.882 41.472 C 16.359 42.443,17.020 42.762,17.793 42.394 L 18.459 42.076 19.086 42.678 C 20.638 44.168,20.716 45.041,19.408 46.239 C 18.239 47.310,18.237 47.322,18.851 49.854 C 19.095 50.864,19.353 52.135,19.424 52.679 C 19.505 53.305,19.710 53.856,19.981 54.183 C 20.524 54.834,20.519 54.967,19.948 55.111 C 18.906 55.372,19.048 57.039,20.113 57.039 C 20.550 57.039,21.139 56.534,21.139 56.159 C 21.139 55.868,21.416 55.891,22.083 56.236 L 22.645 56.526 22.120 56.877 C 19.433 58.673,13.864 58.083,13.396 55.954 C 13.209 55.101,13.594 54.363,13.988 54.819 C 15.014 56.004,16.627 54.740,15.659 53.510 C 14.633 52.206,12.223 53.565,12.429 55.332 C 12.500 55.941,12.496 55.945,11.746 55.945 C 11.231 55.945,10.889 56.057,10.672 56.297 C 10.043 56.992,10.843 57.967,11.717 57.569 C 12.102 57.394,12.276 57.459,13.120 58.098 C 16.063 60.326,20.468 59.791,24.160 56.758 C 24.854 56.188,25.770 55.481,26.197 55.186 L 26.972 54.651 28.041 55.040 L 29.109 55.430 29.212 56.428 C 29.269 56.976,29.562 57.951,29.863 58.595 L 30.410 59.764 29.941 60.133 C 28.805 61.027,27.101 59.715,28.100 58.715 C 28.471 58.344,28.834 58.436,28.583 58.837 C 28.282 59.320,28.518 59.811,29.018 59.739 C 29.865 59.619,29.636 58.237,28.704 57.848 C 27.854 57.493,27.216 57.754,26.861 58.602 C 26.005 60.653,29.408 62.866,30.894 61.224 C 31.205 60.880,31.220 60.882,31.741 61.321 C 33.374 62.694,37.101 62.645,39.633 61.216 C 40.437 60.762,40.638 60.707,40.638 60.939 C 40.638 61.930,42.333 62.318,42.994 61.479 C 44.300 59.819,42.267 58.579,40.067 59.693 C 38.947 60.261,38.981 60.304,39.414 58.892 C 39.727 57.869,39.812 57.749,40.162 57.837 C 40.379 57.892,41.692 57.994,43.078 58.063 L 45.600 58.190 45.488 59.005 C 45.414 59.542,45.220 59.966,44.920 60.244 C 44.336 60.786,44.342 60.842,45.101 61.797 C 45.451 62.237,45.738 62.691,45.739 62.805 C 45.745 63.562,47.308 63.362,47.722 62.551 C 47.914 62.175,48.243 61.712,48.454 61.521 C 48.939 61.082,48.945 60.596,48.468 60.263 C 48.264 60.120,48.018 59.726,47.921 59.388 C 47.569 58.159,47.497 58.200,50.251 58.052 C 51.629 57.978,52.944 57.905,53.173 57.888 C 53.533 57.863,53.647 58.027,54.003 59.076 L 54.415 60.293 53.404 59.760 C 51.571 58.794,49.932 59.203,49.932 60.625 C 49.932 62.022,52.174 62.430,52.671 61.124 L 52.842 60.675 53.528 61.102 C 55.980 62.627,59.881 62.735,61.558 61.324 C 62.087 60.879,62.096 60.878,62.415 61.231 C 63.151 62.043,64.954 61.851,65.952 60.854 C 67.390 59.416,66.354 57.115,64.599 57.848 C 63.667 58.237,63.438 59.619,64.285 59.739 C 64.785 59.811,65.021 59.320,64.720 58.837 C 64.540 58.549,64.561 58.497,64.854 58.497 C 65.523 58.497,65.644 59.778,65.016 60.217 C 64.465 60.604,63.923 60.574,63.353 60.126 L 62.876 59.750 63.440 58.632 C 63.794 57.932,64.040 57.123,64.100 56.465 L 64.195 55.416 65.300 55.042 L 66.405 54.669 67.052 55.099 C 67.408 55.335,68.309 56.039,69.054 56.663 C 72.893 59.875,77.637 60.400,80.456 57.925 C 81.049 57.404,81.140 57.378,81.643 57.587 C 82.069 57.763,82.245 57.764,82.453 57.591 C 83.294 56.894,82.780 55.945,81.561 55.945 L 80.810 55.945 80.878 55.237 C 81.043 53.507,78.884 52.307,77.714 53.477 C 77.147 54.044,77.150 54.387,77.725 54.963 C 78.241 55.479,78.783 55.433,79.306 54.829 C 79.612 54.476,79.616 54.476,79.807 54.833 C 81.287 57.598,74.419 59.150,71.074 56.806 L 70.667 56.522 71.224 56.233 C 71.906 55.881,72.164 55.869,72.164 56.190 C 72.164 56.962,73.427 57.287,73.885 56.634 C 74.509 55.743,73.903 55.034,72.517 55.034 L 71.595 55.034 71.716 54.228 C 71.953 52.649,71.091 51.366,69.628 51.119 C 67.827 50.814,66.651 52.883,68.219 53.597 C 69.138 54.016,69.878 52.999,69.067 52.431 C 68.648 52.138,68.765 51.936,69.354 51.936 C 70.400 51.936,71.037 53.684,70.423 54.871 L 70.139 55.420 68.257 54.423 C 65.013 52.707,63.464 51.266,64.505 50.936 C 64.819 50.836,65.239 49.579,65.239 48.738 C 65.239 48.593,65.260 48.475,65.285 48.476 C 65.310 48.477,65.850 48.641,66.485 48.841 C 67.747 49.236,70.122 49.333,70.718 49.014 C 71.241 48.734,71.178 48.397,69.892 44.585 C 68.417 40.212,68.290 39.544,68.935 39.544 C 69.418 39.544,70.217 38.768,70.432 38.088 C 70.905 36.597,71.540 39.049,72.455 45.907 C 73.864 56.469,74.571 57.028,76.165 48.838 C 78.303 37.849,76.443 24.348,72.510 22.314 C 70.893 21.478,69.533 22.908,70.180 24.765 C 70.356 25.269,70.316 25.498,69.887 26.454 C 69.477 27.369,69.426 27.635,69.593 28.002 C 69.899 28.673,69.867 28.714,68.857 28.947 C 67.736 29.205,67.714 29.191,67.945 28.354 C 68.166 27.552,67.923 26.537,67.425 26.188 C 67.117 25.973,67.104 25.897,67.323 25.585 C 67.729 25.005,67.977 23.824,67.817 23.232 C 67.706 22.823,67.752 22.575,68.002 22.232 C 68.654 21.338,68.771 19.478,68.150 19.870 C 67.757 20.119,67.662 20.087,67.553 19.674 C 67.476 19.377,67.361 19.326,66.986 19.420 C 66.591 19.519,66.515 19.476,66.515 19.154 C 66.515 18.761,66.080 18.623,65.877 18.952 C 65.670 19.288,65.421 19.139,65.421 18.679 C 65.421 18.049,65.254 18.104,64.465 18.996 M123.007 21.507 C 117.747 22.426,116.895 31.568,121.930 33.063 C 126.377 34.384,129.294 32.151,129.294 27.426 C 129.294 23.120,126.865 20.833,123.007 21.507 M155.131 21.504 C 152.375 21.912,151.027 23.819,150.996 27.353 C 150.955 32.071,154.386 34.452,159.118 32.990 C 160.941 32.427,161.002 32.352,160.644 31.119 L 160.345 30.092 159.166 30.536 C 156.520 31.532,154.502 30.858,154.081 28.838 L 153.957 28.246 157.525 28.246 L 161.093 28.246 161.092 26.834 C 161.090 22.946,158.859 20.952,155.131 21.504 M176.954 21.521 C 176.506 21.608,175.743 21.927,175.258 22.228 L 174.376 22.776 174.186 22.231 C 174.004 21.708,173.951 21.686,172.921 21.686 L 171.845 21.686 171.845 27.426 L 171.845 33.166 173.391 33.166 L 174.937 33.166 174.985 28.747 L 175.034 24.328 176.049 23.978 C 177.050 23.634,177.074 23.634,177.779 23.978 C 178.894 24.524,178.946 24.756,178.949 29.203 L 178.952 33.166 180.512 33.166 L 182.073 33.166 182.016 28.460 L 181.959 23.754 181.458 22.997 C 180.623 21.736,178.839 21.151,176.954 21.521 M188.378 21.511 C 183.609 22.312,182.517 30.580,186.879 32.850 C 189.452 34.188,193.082 33.125,194.286 30.681 C 196.673 25.832,193.350 20.675,188.378 21.511 M167.198 21.864 C 166.897 22.060,166.479 22.436,166.267 22.699 L 165.883 23.176 165.764 22.431 L 165.645 21.686 164.554 21.686 L 163.462 21.686 163.462 27.426 L 163.462 33.166 165.011 33.166 L 166.560 33.166 166.560 28.979 L 166.560 24.792 167.053 24.469 C 167.403 24.240,167.906 24.146,168.785 24.146 L 170.023 24.146 170.023 22.825 L 170.023 21.503 168.884 21.505 C 168.061 21.505,167.593 21.605,167.198 21.864 M144.146 22.656 C 144.146 23.625,144.146 23.626,144.829 23.795 L 145.513 23.964 145.561 28.565 L 145.610 33.166 147.065 33.166 L 148.519 33.166 148.519 27.426 L 148.519 21.686 146.333 21.686 L 144.146 21.686 144.146 22.656 M125.154 23.975 C 126.612 24.996,126.674 29.812,125.242 30.751 C 122.817 32.340,120.738 28.302,122.239 24.918 C 122.764 23.734,124.164 23.281,125.154 23.975 M137.934 23.956 C 139.127 24.572,139.628 28.075,138.769 29.795 C 138.078 31.181,136.580 31.490,135.394 30.492 L 134.852 30.036 134.852 27.219 L 134.852 24.401 135.626 24.050 C 136.557 23.627,137.245 23.599,137.934 23.956 M157.245 23.987 C 157.728 24.325,158.178 25.278,158.178 25.962 L 158.178 26.424 156.068 26.424 L 153.957 26.424 154.085 25.831 C 154.484 23.980,155.985 23.104,157.245 23.987 M190.522 23.872 C 191.933 24.408,192.300 28.939,191.052 30.421 C 189.552 32.205,187.586 30.853,187.384 27.897 C 187.166 24.722,188.445 23.082,190.522 23.872 M45.103 29.245 C 44.501 29.379,43.540 29.706,42.968 29.972 C 41.469 30.665,40.847 30.725,39.820 30.270 C 38.727 29.787,38.738 29.786,37.789 30.387 C 36.746 31.047,36.708 31.219,37.386 32.206 C 38.279 33.504,38.651 34.679,38.666 36.247 C 38.679 37.657,38.627 37.842,37.470 40.547 C 36.043 43.880,38.286 47.016,42.096 47.016 C 43.994 47.016,45.141 47.659,46.099 49.261 L 46.515 49.957 47.033 49.050 C 47.841 47.635,48.999 47.019,50.855 47.017 C 55.092 47.012,57.059 43.582,55.102 39.611 C 53.848 37.064,54.116 34.049,55.788 31.912 C 56.302 31.254,56.213 31.031,55.171 30.361 L 54.214 29.746 53.355 30.181 C 52.270 30.729,51.751 30.722,50.387 30.140 C 47.948 29.099,46.699 28.887,45.103 29.245 M47.135 34.300 L 47.649 36.073 50.197 36.123 L 52.746 36.173 50.838 37.521 C 49.788 38.263,48.868 38.923,48.793 38.988 C 48.718 39.053,48.984 40.083,49.385 41.276 C 49.786 42.469,50.114 43.516,50.114 43.602 C 50.114 43.688,49.247 43.096,48.189 42.286 C 47.130 41.476,46.174 40.868,46.065 40.936 C 45.956 41.003,45.083 41.657,44.124 42.388 C 43.166 43.120,42.359 43.695,42.331 43.668 C 42.304 43.640,42.609 42.643,43.009 41.453 C 43.408 40.262,43.736 39.234,43.736 39.169 C 43.736 39.103,42.831 38.402,41.726 37.611 L 39.717 36.173 42.246 36.123 L 44.775 36.072 45.480 33.773 C 46.290 31.131,46.208 31.105,47.135 34.300 M111.208 40.558 C 111.299 43.012,111.284 43.192,111.007 42.953 C 109.003 41.226,105.118 42.733,104.106 45.629 C 102.180 51.147,106.850 56.533,110.829 53.383 L 111.498 52.853 111.618 53.397 C 111.736 53.937,111.747 53.941,112.999 53.941 L 114.260 53.941 114.260 45.923 L 114.260 37.904 112.684 37.904 L 111.108 37.904 111.208 40.558 M138.679 38.066 C 134.633 39.380,132.760 45.060,134.681 50.192 C 136.122 54.045,140.617 55.400,144.986 53.299 L 146.324 52.656 145.941 51.704 C 145.731 51.180,145.518 50.608,145.469 50.433 C 145.357 50.037,145.374 50.036,144.651 50.481 C 140.512 53.031,137.312 51.083,137.312 46.014 C 137.312 41.178,140.019 39.306,144.288 41.189 L 145.068 41.533 145.647 40.359 C 146.319 38.997,146.284 38.929,144.601 38.344 C 143.599 37.995,139.490 37.802,138.679 38.066 M148.337 45.923 L 148.337 53.941 149.883 53.941 L 151.428 53.941 151.477 49.614 L 151.526 45.288 152.164 44.976 C 154.775 43.700,155.624 45.083,155.625 50.615 L 155.626 53.941 157.192 53.941 L 158.757 53.941 158.693 49.522 C 158.623 44.769,158.479 44.006,157.487 43.126 C 156.228 42.009,153.379 41.994,151.891 43.098 L 151.344 43.503 151.402 40.704 L 151.461 37.904 149.899 37.904 L 148.337 37.904 148.337 45.923 M162.005 39.271 L 162.005 40.638 163.554 40.638 L 165.103 40.638 165.103 39.271 L 165.103 37.904 163.554 37.904 L 162.005 37.904 162.005 39.271 M168.018 45.017 C 168.018 52.656,168.057 53.017,168.956 53.648 C 169.637 54.127,170.740 54.349,171.789 54.218 L 172.756 54.097 172.756 53.054 L 172.756 52.012 171.959 51.799 C 170.900 51.515,170.939 51.800,170.936 44.328 L 170.934 37.904 169.476 37.904 L 168.018 37.904 168.018 45.017 M120.070 42.519 C 115.377 44.272,115.393 52.422,120.091 53.908 C 122.260 54.593,126.861 53.857,126.576 52.870 C 126.529 52.707,126.401 52.226,126.291 51.800 C 126.181 51.374,126.055 51.025,126.010 51.025 C 125.966 51.025,125.294 51.239,124.517 51.500 C 121.939 52.365,120.109 51.668,119.789 49.700 L 119.679 49.021 123.256 49.021 L 126.834 49.021 126.834 47.774 C 126.834 43.715,123.598 41.200,120.070 42.519 M177.837 42.519 C 173.145 44.272,173.160 52.422,177.859 53.908 C 180.027 54.593,184.628 53.857,184.344 52.870 C 184.297 52.707,184.169 52.226,184.058 51.800 C 183.948 51.374,183.822 51.025,183.778 51.025 C 183.734 51.025,183.061 51.239,182.282 51.501 C 179.649 52.384,177.882 51.703,177.553 49.678 L 177.447 49.021 181.024 49.021 L 184.601 49.021 184.601 47.774 C 184.601 43.715,181.365 41.200,177.837 42.519 M160.729 43.455 L 160.729 44.451 161.458 44.647 L 162.187 44.843 162.187 49.392 L 162.187 53.941 163.645 53.941 L 165.103 53.941 165.103 48.200 L 165.103 42.460 162.916 42.460 L 160.729 42.460 160.729 43.455 M25.229 44.141 C 25.385 44.364,25.513 44.846,25.513 45.214 C 25.513 46.097,25.775 46.377,28.223 48.102 C 29.859 49.255,30.388 49.540,30.732 49.453 C 33.116 48.855,29.090 52.353,24.927 54.496 L 23.157 55.407 22.857 54.827 C 22.231 53.617,22.987 51.936,24.156 51.936 C 24.703 51.936,24.716 52.058,24.214 52.465 C 23.400 53.124,24.356 54.081,25.245 53.498 C 26.155 52.902,25.921 51.605,24.828 51.189 C 23.615 50.728,21.686 51.803,21.686 52.940 C 21.686 53.315,21.616 53.407,21.397 53.322 C 21.239 53.262,21.036 53.212,20.947 53.212 C 20.341 53.212,19.835 48.046,20.410 47.736 C 20.560 47.655,21.062 47.416,21.525 47.206 C 22.598 46.719,23.769 45.539,24.186 44.526 C 24.549 43.642,24.812 43.545,25.229 44.141 M123.078 44.986 C 123.479 45.335,123.918 46.296,123.918 46.828 C 123.918 47.179,123.808 47.198,121.822 47.198 C 119.446 47.198,119.445 47.198,120.089 45.780 C 120.652 44.540,122.115 44.151,123.078 44.986 M180.845 44.986 C 181.247 45.335,181.686 46.296,181.686 46.828 C 181.686 47.179,181.575 47.198,179.590 47.198 C 177.214 47.198,177.213 47.198,177.857 45.780 C 178.419 44.540,179.883 44.151,180.845 44.986 M110.588 44.847 L 111.162 45.047 111.162 48.106 L 111.162 51.165 110.661 51.494 C 108.588 52.853,106.788 51.365,106.788 48.292 C 106.788 45.306,108.209 44.018,110.588 44.847 M38.370 50.500 C 39.803 50.861,39.260 51.523,37.128 52.013 C 35.811 52.316,34.297 53.001,33.907 53.471 C 33.575 53.871,30.979 53.470,30.979 53.020 C 30.979 51.344,35.543 49.788,38.370 50.500 M59.804 50.791 C 60.727 51.207,62.323 52.569,62.323 52.941 C 62.323 53.453,60.000 53.860,59.441 53.447 C 58.565 52.800,57.446 52.305,56.203 52.017 C 54.906 51.716,54.123 51.308,54.123 50.931 C 54.123 50.227,58.321 50.123,59.804 50.791 M42.953 52.802 C 44.341 54.151,45.146 55.142,44.986 55.302 C 44.893 55.395,40.252 55.073,40.145 54.966 C 40.018 54.840,40.438 52.127,40.644 51.742 C 40.973 51.127,41.462 51.352,42.953 52.802 M52.747 51.982 C 52.883 52.308,53.051 53.120,53.122 53.788 L 53.251 55.001 52.092 55.102 C 49.140 55.358,48.292 55.390,48.292 55.243 C 48.292 54.742,51.666 51.390,52.169 51.390 C 52.372 51.390,52.597 51.620,52.747 51.982 M37.696 53.289 C 38.515 53.713,38.944 54.922,38.223 54.776 C 37.998 54.731,37.044 54.553,36.104 54.381 L 34.395 54.069 34.829 53.732 C 35.688 53.063,36.898 52.877,37.696 53.289 M57.381 53.206 C 59.308 53.758,59.162 54.111,56.856 54.472 C 56.105 54.590,55.305 54.725,55.080 54.772 C 54.462 54.903,54.560 54.379,55.289 53.649 C 55.941 52.997,56.352 52.910,57.381 53.206 M31.614 56.419 C 31.605 56.855,31.108 58.497,30.985 58.497 C 30.835 58.497,30.251 56.574,30.251 56.080 C 30.251 55.815,30.327 55.809,30.934 56.019 C 31.310 56.149,31.616 56.329,31.614 56.419 M63.052 56.277 C 63.052 56.873,62.482 58.546,62.334 58.383 C 62.167 58.198,61.570 56.456,61.647 56.379 C 61.753 56.273,62.605 55.968,62.825 55.957 C 62.950 55.951,63.052 56.094,63.052 56.277 M37.035 57.407 C 38.497 57.624,38.620 57.674,38.549 58.024 C 38.000 60.743,38.018 60.724,35.973 60.831 C 32.515 61.012,31.514 59.856,32.617 56.954 L 32.776 56.536 34.110 56.853 C 34.844 57.028,36.160 57.277,37.035 57.407 M60.954 57.823 C 61.521 59.918,60.586 60.866,57.952 60.866 C 55.516 60.866,55.156 60.597,54.921 58.603 L 54.802 57.585 55.328 57.570 C 55.617 57.561,56.756 57.366,57.859 57.136 C 60.787 56.525,60.591 56.481,60.954 57.823 M123.189 189.977 L 123.189 196.082 123.831 196.082 C 124.340 196.082,124.516 195.987,124.681 195.623 C 124.889 195.167,124.892 195.167,125.270 195.520 C 126.976 197.118,130.078 196.139,130.926 193.735 C 132.340 189.727,129.439 185.892,126.269 187.579 L 125.467 188.006 125.528 185.939 L 125.589 183.872 124.389 183.872 L 123.189 183.872 123.189 189.977 M145.421 189.163 C 145.421 195.959,145.575 196.361,148.117 196.228 L 149.157 196.173 149.213 195.308 C 149.267 194.464,149.255 194.442,148.748 194.442 C 147.799 194.442,147.790 194.394,147.790 188.938 L 147.790 183.872 146.606 183.872 L 145.421 183.872 145.421 189.163 M105.878 187.443 C 103.029 188.678,102.599 193.860,105.186 195.776 C 105.944 196.338,107.450 196.399,108.414 195.907 C 109.351 195.429,109.419 195.474,109.170 196.399 C 108.776 197.861,107.007 198.307,105.183 197.405 C 104.636 197.134,104.378 197.082,104.332 197.233 C 103.920 198.557,103.845 198.848,103.900 198.900 C 105.421 200.326,109.767 199.813,110.921 198.071 L 111.435 197.294 111.489 192.314 L 111.543 187.335 110.736 187.335 C 110.093 187.335,109.910 187.406,109.837 187.685 C 109.749 188.022,109.713 188.019,108.874 187.594 C 107.874 187.088,106.819 187.035,105.878 187.443 M116.025 187.338 C 112.597 188.367,112.326 194.811,115.660 196.000 C 118.865 197.143,121.439 195.277,121.453 191.800 C 121.466 188.470,119.002 186.444,116.025 187.338 M139.387 187.392 C 135.771 188.750,135.736 194.900,139.337 196.089 C 140.178 196.366,142.364 196.225,143.262 195.835 L 143.927 195.546 143.736 194.766 C 143.631 194.337,143.529 193.965,143.509 193.939 C 143.490 193.913,143.123 194.015,142.693 194.167 C 140.792 194.838,139.601 194.365,139.223 192.790 C 138.549 189.984,140.215 188.241,142.614 189.244 L 143.257 189.512 143.519 188.885 C 143.663 188.540,143.781 188.140,143.781 187.996 C 143.781 187.374,140.600 186.936,139.387 187.392 M118.754 189.762 C 119.869 191.917,118.532 195.202,116.863 194.409 C 115.231 193.634,115.346 189.380,117.010 188.965 C 117.685 188.797,118.431 189.137,118.754 189.762 M108.695 189.155 L 109.168 189.335 109.117 191.660 L 109.066 193.986 108.358 194.332 C 107.034 194.978,106.049 194.145,105.913 192.264 C 105.719 189.586,106.763 188.420,108.695 189.155 M128.305 189.445 C 129.709 190.938,128.507 195.064,126.825 194.530 C 125.710 194.176,125.558 193.827,125.558 191.610 L 125.558 189.533 126.059 189.261 C 126.865 188.824,127.793 188.900,128.305 189.445 M132.665 194.806 L 132.665 196.082 133.850 196.082 L 135.034 196.082 135.034 194.806 L 135.034 193.531 133.850 193.531 L 132.665 193.531 132.665 194.806 " stroke="none" fill="#f9f9fa" fill-rule="evenodd"></path><path id="path3" d="M146.201 19.815 C 146.681 19.853,147.419 19.852,147.841 19.814 C 148.264 19.776,147.872 19.745,146.970 19.746 C 146.068 19.746,145.722 19.778,146.201 19.815 M148.601 27.426 C 148.601 30.633,148.626 31.920,148.656 30.285 C 148.686 28.650,148.686 26.025,148.656 24.453 C 148.625 22.881,148.601 24.219,148.601 27.426 M145.501 28.610 C 145.501 31.166,145.526 32.212,145.558 30.934 C 145.589 29.656,145.589 27.565,145.558 26.287 C 145.526 25.009,145.501 26.055,145.501 28.610 M182.128 29.157 C 182.128 31.412,182.154 32.335,182.186 31.207 C 182.218 30.080,182.218 28.235,182.186 27.107 C 182.154 25.979,182.128 26.902,182.128 29.157 M161.150 27.244 C 161.151 27.845,161.185 28.069,161.225 27.742 C 161.266 27.414,161.265 26.922,161.224 26.648 C 161.182 26.374,161.149 26.642,161.150 27.244 M191.761 27.426 C 191.762 27.927,191.797 28.110,191.839 27.833 C 191.881 27.556,191.880 27.146,191.837 26.922 C 191.793 26.698,191.759 26.925,191.761 27.426 M121.773 27.335 C 121.773 27.686,121.811 27.829,121.857 27.654 C 121.903 27.478,121.903 27.191,121.857 27.016 C 121.811 26.841,121.773 26.984,121.773 27.335 M184.097 27.335 C 184.097 27.686,184.134 27.829,184.180 27.654 C 184.226 27.478,184.226 27.191,184.180 27.016 C 184.134 26.841,184.097 26.984,184.097 27.335 M110.754 30.744 C 110.981 30.788,111.309 30.786,111.483 30.740 C 111.657 30.695,111.472 30.659,111.071 30.661 C 110.670 30.663,110.527 30.700,110.754 30.744 M112.027 37.856 C 112.453 37.894,113.150 37.894,113.576 37.856 C 114.002 37.817,113.654 37.786,112.802 37.786 C 111.950 37.786,111.601 37.817,112.027 37.856 M140.459 37.854 C 140.786 37.895,141.278 37.894,141.552 37.852 C 141.826 37.811,141.558 37.778,140.957 37.779 C 140.355 37.780,140.131 37.814,140.459 37.854 M149.203 37.856 C 149.629 37.894,150.326 37.894,150.752 37.856 C 151.178 37.817,150.829 37.786,149.977 37.786 C 149.125 37.786,148.777 37.817,149.203 37.856 M162.785 37.856 C 163.264 37.894,164.002 37.893,164.425 37.855 C 164.848 37.817,164.456 37.786,163.554 37.787 C 162.651 37.787,162.305 37.819,162.785 37.856 M167.922 37.943 C 167.872 38.073,167.854 41.213,167.882 44.921 L 167.932 51.663 167.975 44.784 L 168.018 37.904 169.474 37.904 L 170.929 37.904 170.981 44.419 L 171.032 50.934 171.028 44.374 L 171.025 37.813 169.519 37.760 C 168.415 37.721,167.988 37.770,167.922 37.943 M140.911 40.581 C 141.087 40.627,141.374 40.627,141.549 40.581 C 141.724 40.535,141.581 40.498,141.230 40.498 C 140.879 40.498,140.736 40.535,140.911 40.581 M165.145 48.246 L 165.103 53.941 163.648 53.941 L 162.193 53.941 162.140 49.431 L 162.086 44.920 162.091 49.476 L 162.096 54.032 163.602 54.085 C 165.472 54.151,165.300 54.776,165.239 48.107 L 165.188 42.551 165.145 48.246 M155.529 50.478 L 155.535 54.032 156.993 54.043 L 158.451 54.054 157.043 53.990 L 155.634 53.926 155.579 50.425 L 155.523 46.925 155.529 50.478 M121.513 49.157 C 122.546 49.189,124.186 49.189,125.158 49.156 C 126.130 49.124,125.285 49.097,123.280 49.097 C 121.276 49.097,120.480 49.124,121.513 49.157 M179.281 49.157 C 180.313 49.189,181.954 49.189,182.925 49.156 C 183.897 49.124,183.052 49.097,181.048 49.097 C 179.043 49.097,178.248 49.124,179.281 49.157 M238.815 50.973 C 230.961 52.059,226.876 60.702,229.451 70.786 C 231.372 78.312,238.856 81.473,247.107 78.244 C 248.205 77.815,250.387 76.610,250.387 76.434 C 250.387 76.346,248.713 72.105,248.642 72.012 C 248.616 71.979,248.036 72.289,247.352 72.701 C 243.444 75.058,238.958 75.063,236.835 72.713 C 233.663 69.202,233.889 60.152,237.222 57.218 C 239.289 55.399,243.726 55.360,247.078 57.132 L 248.233 57.743 249.219 55.645 C 250.437 53.054,250.446 53.205,249.027 52.513 C 246.393 51.229,241.884 50.549,238.815 50.973 M363.280 51.113 C 357.319 52.220,354.290 56.844,354.266 64.875 C 354.239 74.039,358.039 79.053,365.276 79.402 C 373.868 79.815,378.283 74.367,377.896 63.827 C 377.543 54.179,372.129 49.470,363.280 51.113 M253.303 65.148 L 253.303 79.089 256.128 79.089 L 258.952 79.089 258.952 73.349 L 258.952 67.608 263.964 67.608 L 268.975 67.608 268.975 73.349 L 268.975 79.089 271.708 79.089 L 274.442 79.089 274.442 65.148 L 274.442 51.207 271.708 51.207 L 268.975 51.207 268.975 56.856 L 268.975 62.506 263.964 62.506 L 258.952 62.506 258.952 56.856 L 258.952 51.207 256.128 51.207 L 253.303 51.207 253.303 65.148 M279.544 65.148 L 279.544 79.089 282.278 79.089 L 285.011 79.089 285.011 65.148 L 285.011 51.207 282.278 51.207 L 279.544 51.207 279.544 65.148 M290.296 65.148 L 290.296 79.089 298.861 79.089 L 307.426 79.089 307.426 76.720 L 307.426 74.351 301.595 74.351 L 295.763 74.351 295.763 62.779 L 295.763 51.207 293.030 51.207 L 290.296 51.207 290.296 65.148 M309.431 65.148 L 309.431 79.089 317.995 79.089 L 326.560 79.089 326.560 76.720 L 326.560 74.351 320.820 74.351 L 315.080 74.351 315.080 70.979 L 315.080 67.608 319.251 67.608 L 323.422 67.608 323.524 67.016 C 323.580 66.690,323.682 65.583,323.750 64.556 L 323.874 62.688 319.477 62.688 L 315.080 62.688 315.080 59.317 L 315.080 55.945 320.820 55.945 L 326.560 55.945 326.560 53.576 L 326.560 51.207 317.995 51.207 L 309.431 51.207 309.431 65.148 M338.405 65.148 L 338.405 79.089 346.970 79.089 L 355.535 79.089 355.535 76.720 L 355.535 74.351 349.704 74.351 L 343.872 74.351 343.872 62.779 L 343.872 51.207 341.139 51.207 L 338.405 51.207 338.405 65.148 M172.813 52.938 C 172.814 53.540,172.848 53.764,172.888 53.436 C 172.929 53.109,172.928 52.617,172.886 52.343 C 172.845 52.069,172.812 52.337,172.813 52.938 M112.388 54.072 C 112.711 54.113,113.285 54.113,113.663 54.074 C 114.041 54.034,113.777 54.001,113.075 54.001 C 112.374 54.000,112.064 54.032,112.388 54.072 M149.203 54.074 C 149.629 54.113,150.326 54.113,150.752 54.074 C 151.178 54.036,150.829 54.004,149.977 54.004 C 149.125 54.004,148.777 54.036,149.203 54.074 M368.753 56.320 C 372.640 58.322,373.443 68.977,370.014 73.053 C 368.162 75.254,364.198 75.277,362.230 73.099 C 359.060 69.590,359.456 59.073,362.850 56.656 C 364.318 55.611,367.070 55.454,368.753 56.320 M286.900 89.116 C 281.371 90.115,278.171 94.213,277.526 101.119 C 276.873 108.105,279.289 114.161,283.554 116.230 C 287.835 118.308,295.035 117.617,298.739 114.773 C 299.026 114.552,297.886 110.858,297.297 110.097 C 297.270 110.063,296.689 110.366,296.005 110.770 C 292.271 112.976,288.122 113.140,285.885 111.171 C 282.594 108.274,282.322 98.950,285.434 95.706 C 287.686 93.357,292.636 93.233,296.178 95.437 L 296.865 95.864 297.863 93.741 C 299.054 91.207,299.046 91.287,298.141 90.778 C 295.669 89.389,290.014 88.553,286.900 89.116 M364.556 89.170 C 358.120 90.510,355.159 95.818,355.731 104.993 C 356.250 113.325,360.134 117.441,367.472 117.433 C 374.680 117.425,378.481 113.468,379.237 105.186 C 379.892 98.001,377.711 92.255,373.560 90.235 C 371.230 89.101,367.186 88.622,364.556 89.170 M389.157 89.048 C 384.108 89.857,381.684 92.362,381.688 96.765 C 381.692 101.003,383.169 102.702,388.646 104.769 C 393.192 106.485,394.211 107.322,394.211 109.339 C 394.211 113.199,388.225 113.976,383.839 110.686 C 383.006 110.060,383.023 110.045,381.910 112.392 L 380.895 114.533 381.979 115.224 C 389.934 120.297,399.914 116.768,399.907 108.884 C 399.903 104.708,398.330 102.898,392.764 100.665 C 387.608 98.596,386.429 97.383,387.568 95.317 C 388.439 93.738,392.579 93.356,395.900 94.546 C 396.802 94.870,397.611 95.153,397.698 95.175 C 397.833 95.210,399.636 91.250,399.636 90.919 C 399.636 89.955,392.002 88.591,389.157 89.048 M229.613 103.235 L 229.613 117.175 232.437 117.175 L 235.262 117.175 235.262 111.435 L 235.262 105.695 240.273 105.695 L 245.285 105.695 245.285 111.435 L 245.285 117.175 248.109 117.175 L 250.934 117.175 250.934 103.235 L 250.934 89.294 248.109 89.294 L 245.285 89.294 245.285 94.943 L 245.285 100.592 240.273 100.592 L 235.262 100.592 235.262 94.943 L 235.262 89.294 232.437 89.294 L 229.613 89.294 229.613 103.235 M260.523 89.613 C 260.372 90.123,253.342 116.121,253.205 116.674 L 253.081 117.175 255.801 117.175 L 258.521 117.175 259.241 114.123 L 259.962 111.071 264.634 111.022 L 269.307 110.973 269.886 113.482 C 270.205 114.862,270.525 116.237,270.597 116.538 L 270.729 117.084 273.875 117.134 C 276.816 117.181,277.014 117.163,276.919 116.861 C 276.801 116.487,269.704 89.419,269.704 89.344 C 269.704 89.067,260.605 89.334,260.523 89.613 M301.959 103.235 L 301.959 117.175 310.524 117.175 L 319.089 117.175 319.089 114.806 L 319.089 112.437 313.257 112.437 L 307.426 112.437 307.426 108.975 L 307.426 105.513 311.685 105.513 L 315.944 105.513 316.063 104.009 C 316.129 103.182,316.231 102.075,316.290 101.549 L 316.397 100.592 311.912 100.592 L 307.426 100.592 307.426 97.312 L 307.426 94.032 313.257 94.032 L 319.089 94.032 319.089 91.663 L 319.089 89.294 310.524 89.294 L 301.959 89.294 301.959 103.235 M322.913 90.433 C 322.912 91.059,322.708 96.697,322.460 102.961 C 322.212 109.226,322.008 114.986,322.007 115.763 L 322.005 117.175 324.449 117.175 L 326.893 117.175 326.993 116.492 C 327.048 116.116,327.149 110.888,327.218 104.875 L 327.344 93.941 327.958 96.856 C 328.296 98.460,329.456 103.667,330.536 108.428 L 332.500 117.084 336.546 117.133 C 338.771 117.160,340.592 117.139,340.592 117.086 C 340.592 117.032,341.500 113.156,342.610 108.472 C 343.720 103.787,344.903 98.642,345.239 97.039 L 345.849 94.123 345.867 95.763 C 345.881 96.998,346.395 116.887,346.419 117.130 C 346.422 117.155,347.828 117.175,349.545 117.175 L 352.666 117.175 352.550 114.852 C 352.486 113.574,352.270 108.059,352.072 102.597 C 351.873 97.134,351.661 91.905,351.601 90.976 L 351.492 89.288 346.919 89.336 L 342.346 89.385 341.924 91.025 C 341.025 94.510,338.401 105.388,337.736 108.382 C 337.353 110.111,336.998 111.525,336.948 111.525 C 336.897 111.526,336.585 110.070,336.253 108.291 C 335.768 105.690,333.550 94.834,332.567 90.251 L 332.362 89.294 327.639 89.294 L 322.916 89.294 322.913 90.433 M369.791 94.254 C 374.738 96.355,374.784 109.777,369.853 112.296 C 366.336 114.092,362.789 111.862,361.819 107.244 C 359.952 98.358,363.984 91.788,369.791 94.254 M265.602 94.624 C 266.092 96.712,268.246 106.237,268.246 106.319 C 268.246 106.376,266.619 106.424,264.630 106.424 L 261.014 106.424 262.451 100.547 C 263.241 97.314,263.922 94.567,263.965 94.442 C 264.115 94.005,265.492 94.158,265.602 94.624 M254.637 127.216 C 248.580 128.227,245.735 132.716,245.756 141.230 C 245.780 150.988,249.503 155.516,257.494 155.505 C 264.923 155.494,268.866 151.056,269.286 142.232 C 269.805 131.313,264.244 125.612,254.637 127.216 M306.804 127.288 C 299.756 128.756,296.257 137.562,298.875 147.244 C 300.609 153.658,306.697 156.983,313.440 155.201 C 320.253 153.400,323.607 144.691,321.179 135.105 C 319.641 129.031,313.769 125.838,306.804 127.288 M330.661 127.305 C 325.934 128.361,323.416 131.841,324.184 136.254 C 324.752 139.516,326.298 140.949,331.357 142.905 C 335.859 144.645,336.674 145.324,336.674 147.334 C 336.674 151.331,331.174 152.064,326.306 148.715 L 325.514 148.170 324.469 150.380 L 323.424 152.589 323.853 152.920 C 331.060 158.486,342.597 154.862,342.597 147.032 C 342.597 142.889,340.636 140.825,334.336 138.332 C 330.753 136.915,329.786 136.085,329.808 134.447 C 329.845 131.744,335.392 130.935,339.502 133.031 C 340.444 133.512,340.066 134.070,342.165 129.095 C 342.277 128.829,340.416 128.009,338.648 127.545 C 336.689 127.032,332.456 126.904,330.661 127.305 M227.608 129.749 L 227.608 132.118 230.888 132.118 L 234.169 132.118 234.169 143.599 L 234.169 155.080 237.084 155.080 L 240.000 155.080 240.000 143.599 L 240.000 132.118 243.462 132.118 L 246.925 132.118 246.925 129.749 L 246.925 127.380 237.267 127.380 L 227.608 127.380 227.608 129.749 M272.802 140.759 L 272.802 154.137 274.761 154.597 C 288.475 157.818,295.126 153.358,295.104 140.957 C 295.094 134.850,293.740 131.507,290.403 129.351 C 287.972 127.780,285.475 127.382,278.041 127.381 L 272.802 127.380 272.802 140.759 M259.992 132.403 C 264.815 134.760,264.677 147.886,259.802 150.373 C 257.182 151.709,253.763 150.429,252.513 147.642 C 251.053 144.388,251.134 137.694,252.671 134.658 C 253.982 132.070,257.250 131.063,259.992 132.403 M312.352 132.320 C 317.241 134.424,317.324 147.820,312.463 150.284 C 307.601 152.748,304.101 149.011,304.068 141.321 C 304.035 133.715,307.314 130.153,312.352 132.320 M285.325 132.433 C 288.262 133.591,289.280 135.814,289.274 141.048 C 289.266 147.569,287.467 150.560,283.383 150.840 C 282.133 150.925,279.210 150.664,278.538 150.406 C 278.305 150.317,278.269 149.047,278.269 141.098 L 278.269 131.894 281.321 131.976 C 283.841 132.044,284.540 132.123,285.325 132.433 M123.686 183.822 C 124.010 183.862,124.584 183.863,124.962 183.823 C 125.340 183.784,125.075 183.751,124.374 183.750 C 123.672 183.749,123.363 183.781,123.686 183.822 M145.918 183.822 C 146.242 183.862,146.816 183.863,147.194 183.823 C 147.572 183.784,147.308 183.751,146.606 183.750 C 145.904 183.749,145.595 183.781,145.918 183.822 M135.094 194.897 C 135.095 195.599,135.128 195.864,135.167 195.486 C 135.207 195.108,135.206 194.534,135.166 194.210 C 135.125 193.887,135.093 194.196,135.094 194.897 " stroke="none" fill="#6c6c6c" fill-rule="evenodd"></path></g></svg>