<?xml version="1.0" encoding="UTF-8" standalone="no"?>
<!-- Generator: Adobe Illustrator 19.1.0, SVG Export Plug-In . SVG Version: 6.00 Build 0)  -->

<svg
   xmlns:dc="http://purl.org/dc/elements/1.1/"
   xmlns:cc="http://creativecommons.org/ns#"
   xmlns:rdf="http://www.w3.org/1999/02/22-rdf-syntax-ns#"
   xmlns:svg="http://www.w3.org/2000/svg"
   xmlns="http://www.w3.org/2000/svg"
   xmlns:xlink="http://www.w3.org/1999/xlink"
   xmlns:sodipodi="http://sodipodi.sourceforge.net/DTD/sodipodi-0.dtd"
   xmlns:inkscape="http://www.inkscape.org/namespaces/inkscape"
   version="1.1"
   id="Слой_1"
   x="0px"
   y="0px"
   viewBox="-281 373 43 44"
   enable-background="new -281 373 48 48"
   xml:space="preserve"
   sodipodi:docname="gpatents-mono.svg"
   width="43"
   height="44"
   inkscape:version="0.92.1 r15371"><metadata
     id="metadata13"><rdf:RDF><cc:Work
         rdf:about=""><dc:format>image/svg+xml</dc:format><dc:type
           rdf:resource="http://purl.org/dc/dcmitype/StillImage" /><dc:title></dc:title></cc:Work></rdf:RDF></metadata><defs
     id="defs11" /><sodipodi:namedview
     pagecolor="#ffffff"
     bordercolor="#666666"
     borderopacity="1"
     objecttolerance="10"
     gridtolerance="10"
     guidetolerance="10"
     inkscape:pageopacity="0"
     inkscape:pageshadow="2"
     inkscape:window-width="690"
     inkscape:window-height="480"
     id="namedview9"
     showgrid="false"
     fit-margin-top="0"
     fit-margin-left="0"
     fit-margin-right="0"
     fit-margin-bottom="0"
     inkscape:zoom="4.9166667"
     inkscape:cx="21.5"
     inkscape:cy="22"
     inkscape:window-x="0"
     inkscape:window-y="0"
     inkscape:window-maximized="0"
     inkscape:current-layer="Слой_1" /><g
     id="Слой_2"
     transform="translate(-2.5,-2)" /><image
     sodipodi:absref="D:\Documents\Visual Studio 2017\Projects\BiblioMit\BiblioMit\wwwroot\images\ico\86FAB12CC8CCAC61.png"
     xlink:href="86FAB12CC8CCAC61.png"
     y="295.25"
     x="-392.5"
     style="display:none;overflow:visible"
     id="image3"
     height="199.4976"
     width="265.9968"
     enable-background="new    "
     overflow="visible"
     display="none" /><g
     id="Слой_3"
     transform="translate(-2.5,-2)" /><path
     d="m -238.5,391 h -2.5 -8.2 -9.8 v 8.5 h 11.8 c -1.1,5.4 -5.7,8.5 -11.8,8.5 -7.2,0 -13,-5.8 -13,-13 0,-7.2 5.8,-13 13,-13 3.1,0 5.9,1.1 8.1,2.9 l 6.4,-6.4 c -3.9,-3.4 -8.9,-5.5 -14.5,-5.5 -12.2,0 -22,9.8 -22,22 0,12.2 9.8,22 22,22 11,0 21,-8 21,-22 0,-1.3 -0.2,-2.7 -0.5,-4 z"
     id="path6"
     inkscape:connector-curvature="0"
     style="fill:#2f2f36" /></svg>