<?xml version="1.0" encoding="UTF-8" standalone="no"?>
<svg
   xmlns:dc="http://purl.org/dc/elements/1.1/"
   xmlns:cc="http://creativecommons.org/ns#"
   xmlns:rdf="http://www.w3.org/1999/02/22-rdf-syntax-ns#"
   xmlns:svg="http://www.w3.org/2000/svg"
   xmlns="http://www.w3.org/2000/svg"
   xmlns:sodipodi="http://sodipodi.sourceforge.net/DTD/sodipodi-0.dtd"
   xmlns:inkscape="http://www.inkscape.org/namespaces/inkscape"
   id="svg"
   version="1.1"
   width="274.76828"
   height="280.73996"
   style="display:block"
   sodipodi:docname="gpatents.svg"
   inkscape:version="0.92.1 r15371">
  <metadata
     id="metadata12">
    <rdf:RDF>
      <cc:Work
         rdf:about="">
        <dc:format>image/svg+xml</dc:format>
        <dc:type
           rdf:resource="http://purl.org/dc/dcmitype/StillImage" />
        <dc:title></dc:title>
      </cc:Work>
    </rdf:RDF>
  </metadata>
  <defs
     id="defs10" />
  <sodipodi:namedview
     pagecolor="#ffffff"
     bordercolor="#666666"
     borderopacity="1"
     objecttolerance="10"
     gridtolerance="10"
     guidetolerance="10"
     inkscape:pageopacity="0"
     inkscape:pageshadow="2"
     inkscape:window-width="690"
     inkscape:window-height="480"
     id="namedview8"
     showgrid="false"
     fit-margin-top="0"
     fit-margin-left="0"
     fit-margin-right="0"
     fit-margin-bottom="0"
     inkscape:zoom="0.118"
     inkscape:cx="937.4"
     inkscape:cy="-659.62573"
     inkscape:window-x="0"
     inkscape:window-y="0"
     inkscape:window-maximized="0"
     inkscape:current-layer="svg" />
  <g
     id="svgg"
     transform="translate(-62.6,-59.634309)">
    <path
       id="path0"
       d="m 187.467,59.8 c -0.238,0.096 -0.508,0.309 -0.6,0.474 -0.135,0.241 -0.758,0.312 -3.168,0.363 -2.98,0.063 -2.999,0.066 -2.936,0.513 0.061,0.444 0.032,0.45 -2.236,0.45 -2.277,0 -2.927,0.181 -2.927,0.814 0,0.102 -0.664,0.186 -1.476,0.186 -1.087,0 -1.543,0.081 -1.732,0.309 -0.188,0.227 -0.296,0.247 -0.402,0.074 -0.097,-0.157 -0.192,-0.093 -0.282,0.191 -0.122,0.384 -3.48,0.691 -4.795,0.437 -0.456,-0.088 -1.097,0.224 -1.213,0.589 -0.101,0.318 -0.303,0.4 -0.984,0.4 -0.633,0 -0.996,0.128 -1.387,0.49 -0.291,0.27 -0.529,0.41 -0.529,0.312 0,-0.099 0.203,-0.327 0.45,-0.507 0.415,-0.302 0.419,-0.322 0.05,-0.26 -0.22,0.037 -0.485,0.26 -0.588,0.495 -0.151,0.342 -0.407,0.445 -1.283,0.518 -0.808,0.067 -1.187,0.203 -1.444,0.521 -0.251,0.309 -0.572,0.431 -1.136,0.431 -0.767,0 -1.924,0.436 -2.157,0.813 -0.064,0.103 -0.583,0.188 -1.154,0.19 -1.421,0.003 -1.938,0.169 -1.938,0.62 0,0.208 -0.14,0.377 -0.312,0.377 -0.171,0 -0.256,-0.09 -0.188,-0.2 0.068,-0.11 0.028,-0.2 -0.088,-0.2 -0.117,0 -0.212,0.084 -0.212,0.187 0,0.102 -0.247,0.215 -0.55,0.25 -0.389,0.045 -0.568,0.191 -0.613,0.503 -0.052,0.37 -0.209,0.449 -1,0.5 -0.797,0.051 -0.947,0.127 -1.001,0.51 -0.059,0.413 -1.718,0.68 -2.907,0.467 -0.393,-0.071 -0.917,0.23 -1.032,0.593 -0.068,0.215 -0.293,0.39 -0.499,0.39 -0.206,0 -0.43,0.09 -0.498,0.2 -0.068,0.11 -0.276,0.194 -0.462,0.186 -0.278,-0.012 -0.267,-0.047 0.062,-0.198 l 0.4,-0.185 -0.4,0.051 c -0.22,0.029 -0.411,0.163 -0.425,0.299 -0.014,0.136 -0.036,0.337 -0.05,0.447 -0.014,0.11 -0.295,0.2 -0.625,0.2 -0.507,0 -0.6,0.078 -0.6,0.5 0,0.306 -0.114,0.5 -0.294,0.5 -0.188,0 -0.254,-0.126 -0.183,-0.35 0.104,-0.333 0.096,-0.333 -0.179,0 -0.158,0.192 -0.508,0.368 -0.776,0.39 -0.322,0.027 -0.499,0.171 -0.518,0.423 -0.039,0.524 0.005,0.508 -1.556,0.576 -1.3,0.057 -1.393,0.091 -1.378,0.511 0.014,0.39 -0.085,0.45 -0.736,0.45 -0.707,0 -1.38,0.397 -1.38,0.814 0,0.102 -0.225,0.186 -0.5,0.186 -0.397,0 -0.5,0.101 -0.5,0.489 0,0.442 -0.092,0.495 -0.95,0.55 -0.811,0.052 -0.959,0.127 -1.014,0.511 -0.035,0.248 -0.19,0.45 -0.344,0.45 -0.176,0 -0.238,-0.13 -0.167,-0.35 0.088,-0.275 0.033,-0.258 -0.256,0.077 -0.203,0.235 -0.519,0.402 -0.702,0.37 -0.211,-0.036 -0.378,0.12 -0.454,0.423 -0.081,0.321 -0.264,0.48 -0.551,0.48 -0.237,0 -0.595,0.149 -0.796,0.331 -0.293,0.265 -0.369,0.275 -0.382,0.05 -0.009,-0.155 -0.122,-0.056 -0.25,0.219 -0.135,0.289 -0.403,0.5 -0.634,0.5 -0.286,0 -0.395,0.128 -0.384,0.45 0.013,0.368 -0.096,0.454 -0.6,0.471 -1.328,0.046 -1.416,0.076 -1.416,0.479 0,0.266 -0.167,0.434 -0.5,0.501 -0.326,0.066 -0.522,0.258 -0.564,0.55 -0.046,0.325 -0.199,0.449 -0.55,0.449 -0.385,0 -0.486,0.104 -0.486,0.5 0,0.426 -0.097,0.504 -0.65,0.526 -1.332,0.052 -1.633,0.133 -1.949,0.523 -0.178,0.22 -0.533,0.466 -0.789,0.547 -0.304,0.097 -0.383,0.198 -0.229,0.294 0.307,0.189 -0.08,0.526 -0.819,0.712 -0.387,0.097 -0.514,0.239 -0.461,0.516 0.059,0.306 -0.043,0.382 -0.514,0.382 -0.491,0 -0.589,0.081 -0.589,0.489 0,0.431 -0.099,0.495 -0.845,0.55 -0.669,0.048 -0.898,0.165 -1.095,0.561 -0.174,0.348 -0.381,0.48 -0.682,0.433 -0.357,-0.056 -0.414,0.009 -0.322,0.361 0.086,0.327 -0.006,0.473 -0.391,0.619 -0.277,0.106 -0.55,0.371 -0.608,0.589 -0.057,0.219 -0.161,0.406 -0.23,0.415 -0.07,0.009 -0.344,0.04 -0.61,0.069 -0.266,0.028 -0.631,0.234 -0.811,0.457 -0.181,0.223 -0.521,0.467 -0.757,0.541 -0.236,0.075 -0.484,0.312 -0.552,0.526 -0.068,0.215 -0.201,0.39 -0.296,0.39 -0.391,0 -0.801,0.673 -0.801,1.314 0,0.634 -0.049,0.688 -0.65,0.716 -1.224,0.058 -1.251,0.07 -1.202,0.526 0.045,0.423 -0.134,0.524 -0.89,0.499 -0.133,-0.004 -0.235,0.049 -0.226,0.119 0.091,0.728 -0.065,1.047 -0.482,0.989 -0.362,-0.051 -0.451,0.034 -0.454,0.433 -0.003,0.393 -0.107,0.497 -0.5,0.5 -0.385,0.003 -0.492,0.105 -0.48,0.454 0.01,0.278 -0.105,0.456 -0.3,0.465 -1.33,0.065 -1.687,0.442 -1.799,1.901 -0.009,0.119 -0.219,0.209 -0.467,0.2 -0.342,-0.012 -0.446,0.092 -0.434,0.434 0.009,0.248 -0.081,0.458 -0.2,0.467 -1.583,0.122 -1.864,0.453 -1.901,2.233 -0.013,0.663 -0.073,0.75 -0.515,0.75 -0.4,0 -0.5,0.1 -0.5,0.5 0,0.407 -0.102,0.504 -0.55,0.521 -1.296,0.05 -1.35,0.072 -1.334,0.529 0.009,0.247 -0.097,0.45 -0.236,0.45 -0.463,0 -0.88,0.622 -0.88,1.314 0,0.655 -0.202,0.82 -0.865,0.705 -0.091,-0.016 -0.113,0.055 -0.049,0.158 0.218,0.353 -0.129,0.823 -0.607,0.823 -0.364,0 -0.479,0.109 -0.479,0.453 0,0.277 -0.174,0.529 -0.449,0.65 -0.247,0.108 -0.482,0.375 -0.523,0.592 -0.041,0.217 -0.222,0.517 -0.401,0.666 -0.3,0.249 -0.298,0.262 0.023,0.162 0.224,-0.071 0.35,-0.005 0.35,0.183 0,0.18 -0.194,0.294 -0.5,0.294 -0.396,0 -0.5,0.101 -0.5,0.486 0,0.351 -0.124,0.504 -0.448,0.55 -0.259,0.037 -0.48,0.233 -0.523,0.464 -0.084,0.449 -0.423,0.734 -0.737,0.62 -0.115,-0.041 -0.228,0.155 -0.251,0.436 -0.05,0.606 -0.091,0.658 -0.573,0.727 -0.276,0.04 -0.383,0.256 -0.428,0.864 -0.047,0.618 -0.158,0.837 -0.465,0.918 -0.223,0.058 -0.451,0.284 -0.508,0.502 -0.057,0.218 -0.282,0.443 -0.5,0.5 -0.218,0.057 -0.446,0.29 -0.505,0.518 -0.06,0.228 -0.182,0.415 -0.271,0.415 -0.312,0 -0.813,0.654 -0.709,0.926 0.059,0.152 -0.02,0.274 -0.177,0.274 -0.49,0 -0.905,0.846 -0.905,1.845 0,0.94 -0.096,1.059 -0.777,0.964 -0.164,-0.023 -0.233,0.077 -0.169,0.244 0.131,0.34 -0.018,0.572 -0.554,0.867 -0.27,0.149 -0.421,0.472 -0.465,0.998 -0.064,0.765 -0.343,1.147 -0.735,1.005 -0.11,-0.039 -0.227,0.338 -0.26,0.838 -0.075,1.127 -0.136,1.229 -0.657,1.092 -0.322,-0.084 -0.408,-0.022 -0.377,0.269 0.131,1.227 -0.002,1.678 -0.493,1.678 -0.382,0 -0.5,0.118 -0.55,0.55 -0.051,0.447 -0.15,0.538 -0.528,0.485 -0.351,-0.049 -0.456,0.025 -0.427,0.3 0.135,1.288 -0.008,1.86 -0.45,1.813 -0.415,-0.045 -0.447,0.043 -0.514,1.402 -0.069,1.424 -0.061,1.45 0.418,1.45 0.269,0 0.6,0.134 0.736,0.298 0.136,0.164 0.888,0.771 1.671,1.35 0.784,0.579 1.57,1.187 1.748,1.352 0.178,0.165 0.924,0.75 1.659,1.3 0.734,0.55 1.909,1.45 2.61,2 0.702,0.55 1.919,1.495 2.705,2.1 0.786,0.605 2.234,1.73 3.218,2.5 3.005,2.351 3.782,2.952 5.468,4.231 0.893,0.677 1.848,1.42 2.123,1.651 0.275,0.232 1.265,1.009 2.2,1.727 2.798,2.15 4.402,3.392 6.3,4.878 0.99,0.775 2.655,2.06 3.7,2.857 1.045,0.796 2.44,1.882 3.1,2.412 0.66,0.531 1.407,1.118 1.66,1.305 0.253,0.186 0.748,0.571 1.1,0.855 0.352,0.284 1.135,0.888 1.74,1.341 0.605,0.454 1.91,1.457 2.9,2.229 0.99,0.772 1.909,1.406 2.043,1.409 0.344,0.007 0.657,0.671 0.657,1.392 0,1.441 0.926,0.398 0.975,-1.099 0.044,-1.363 0.101,-1.483 0.634,-1.344 0.224,0.059 0.394,0.028 0.376,-0.068 -0.192,-1.045 0.044,-2.068 0.465,-2.024 0.327,0.035 0.456,-0.061 0.47,-0.352 0.012,-0.22 0.034,-0.626 0.05,-0.903 0.019,-0.31 0.201,-0.578 0.479,-0.7 0.247,-0.108 0.479,-0.377 0.516,-0.597 0.062,-0.369 0.042,-0.365 -0.26,0.05 -0.18,0.248 -0.408,0.45 -0.507,0.45 -0.098,0 0.042,-0.238 0.312,-0.529 0.364,-0.393 0.49,-0.753 0.49,-1.4 0,-0.479 0.084,-0.871 0.186,-0.871 0.403,0 0.814,-0.664 0.814,-1.314 0,-0.598 0.064,-0.686 0.5,-0.686 0.466,0 0.5,-0.068 0.5,-0.986 0,-0.87 0.053,-0.994 0.45,-1.05 0.382,-0.054 0.459,-0.204 0.51,-0.993 0.048,-0.734 0.145,-0.952 0.462,-1.035 0.331,-0.086 0.359,-0.054 0.161,0.185 -0.132,0.159 -0.189,0.339 -0.128,0.401 0.185,0.185 0.553,-0.669 0.428,-0.995 -0.069,-0.179 0.093,-0.483 0.398,-0.748 0.282,-0.245 0.569,-0.74 0.636,-1.099 0.12,-0.641 0.537,-0.994 0.906,-0.766 0.103,0.064 0.174,0.042 0.158,-0.049 -0.131,-0.754 0.056,-1.865 0.313,-1.865 0.192,0 0.249,0.115 0.166,0.333 -0.084,0.218 -0.05,0.285 0.098,0.193 0.125,-0.077 0.285,-0.452 0.357,-0.833 0.071,-0.381 0.203,-0.693 0.293,-0.693 0.383,0 0.792,-0.679 0.792,-1.314 0,-0.598 0.064,-0.686 0.5,-0.686 0.4,0 0.5,-0.1 0.5,-0.5 0,-0.275 0.113,-0.507 0.25,-0.515 1.25,-0.077 1.75,-0.65 1.75,-2.007 0,-0.915 0.033,-0.978 0.51,-0.978 0.767,0 2.49,-1.791 2.49,-2.588 0,-0.511 0.072,-0.6 0.45,-0.56 0.332,0.036 0.434,-0.044 0.391,-0.305 -0.059,-0.347 0.689,-0.8 1.009,-0.612 0.083,0.049 0.15,-0.142 0.15,-0.423 0,-0.413 0.097,-0.512 0.5,-0.512 0.422,0 0.5,-0.093 0.5,-0.598 0,-0.5 0.073,-0.59 0.45,-0.55 0.358,0.038 0.45,-0.053 0.45,-0.447 0,-0.394 0.103,-0.497 0.5,-0.5 0.389,-0.004 0.496,-0.105 0.484,-0.455 -0.01,-0.278 0.105,-0.456 0.3,-0.465 1.127,-0.055 1.56,-0.381 1.733,-1.305 0.122,-0.651 0.267,-0.77 0.844,-0.692 0.144,0.019 0.246,-0.083 0.227,-0.227 -0.076,-0.561 0.032,-0.72 0.562,-0.822 0.303,-0.059 0.73,-0.145 0.95,-0.191 0.221,-0.047 0.429,-0.277 0.464,-0.516 0.035,-0.238 0.195,-0.432 0.355,-0.432 0.16,0 0.379,-0.231 0.486,-0.513 0.143,-0.375 0.315,-0.495 0.645,-0.45 0.355,0.05 0.447,-0.032 0.434,-0.387 -0.013,-0.366 0.092,-0.45 0.559,-0.45 0.359,0 0.779,-0.204 1.116,-0.542 0.298,-0.298 0.721,-0.546 0.941,-0.55 0.264,-0.005 0.4,-0.144 0.4,-0.408 0,-0.266 0.167,-0.434 0.5,-0.501 0.326,-0.066 0.522,-0.258 0.564,-0.55 0.045,-0.317 0.199,-0.449 0.525,-0.449 0.254,0 0.578,-0.139 0.719,-0.309 0.188,-0.227 0.296,-0.247 0.402,-0.074 0.097,0.157 0.192,0.093 0.282,-0.191 0.074,-0.234 0.296,-0.426 0.492,-0.426 0.197,0 0.596,-0.221 0.887,-0.49 0.291,-0.27 0.529,-0.41 0.529,-0.312 0,0.099 -0.202,0.327 -0.45,0.507 -0.415,0.302 -0.419,0.322 -0.05,0.26 0.22,-0.037 0.489,-0.269 0.597,-0.516 0.109,-0.247 0.289,-0.456 0.4,-0.464 0.667,-0.051 1.041,-0.211 1.335,-0.575 0.183,-0.225 0.498,-0.416 0.7,-0.424 0.301,-0.012 0.312,-0.039 0.06,-0.15 -0.271,-0.12 -0.266,-0.176 0.038,-0.474 0.324,-0.317 0.351,-0.317 0.435,0 0.08,0.307 0.091,0.306 0.112,-0.012 0.017,-0.261 0.198,-0.35 0.709,-0.35 0.643,0 1.314,-0.41 1.314,-0.803 0,-0.096 0.428,-0.203 0.95,-0.236 0.811,-0.052 0.959,-0.127 1.014,-0.511 0.035,-0.247 0.19,-0.45 0.344,-0.45 0.175,0 0.238,0.131 0.169,0.35 -0.104,0.333 -0.096,0.333 0.179,0 0.158,-0.192 0.526,-0.35 0.816,-0.35 0.43,0 0.528,-0.093 0.528,-0.5 0,-0.473 0.591,-0.648 1.808,-0.538 0.06,0.006 0.123,-0.174 0.14,-0.398 0.042,-0.567 -0.023,-0.547 1.925,-0.601 0.964,-0.027 1.589,-0.113 1.39,-0.192 -0.311,-0.123 -0.298,-0.145 0.093,-0.157 0.251,-0.008 0.508,-0.149 0.572,-0.314 0.063,-0.165 0.245,-0.3 0.405,-0.3 0.16,0 0.235,0.09 0.167,0.2 -0.068,0.11 -0.036,0.2 0.072,0.2 0.107,0 0.225,-0.088 0.261,-0.196 0.037,-0.108 0.517,-0.22 1.067,-0.25 0.893,-0.048 0.998,-0.102 0.984,-0.504 -0.014,-0.405 0.078,-0.45 0.921,-0.45 0.717,0 1.061,-0.115 1.466,-0.49 0.291,-0.27 0.529,-0.41 0.529,-0.312 0,0.099 -0.202,0.327 -0.45,0.507 -0.415,0.302 -0.419,0.322 -0.05,0.26 0.22,-0.037 0.489,-0.269 0.597,-0.516 0.189,-0.429 0.963,-0.566 2.845,-0.504 0.133,0.004 0.235,-0.049 0.226,-0.119 -0.106,-0.848 -0.234,-0.826 4.919,-0.826 4.884,0 5.913,-0.121 5.913,-0.695 0,-0.573 8.325,-0.442 8.795,0.138 0.417,0.516 0.04,0.485 6.508,0.526 4.982,0.031 5.003,0.033 5.2,0.481 0.172,0.392 0.369,0.458 1.534,0.509 1.06,0.047 1.356,0.129 1.427,0.4 0.084,0.32 0.091,0.32 0.113,0.001 0.019,-0.288 0.105,-0.265 0.552,0.15 0.384,0.355 0.756,0.49 1.353,0.49 0.661,0 0.862,0.088 1.021,0.449 0.108,0.247 0.377,0.479 0.597,0.516 0.369,0.062 0.365,0.042 -0.05,-0.26 -0.247,-0.18 -0.45,-0.408 -0.45,-0.507 0,-0.098 0.238,0.042 0.529,0.312 0.397,0.367 0.752,0.49 1.418,0.49 0.679,0 0.974,0.106 1.251,0.448 0.31,0.383 0.597,0.458 1.982,0.521 1.555,0.07 1.62,0.093 1.62,0.552 0,0.441 0.078,0.479 1,0.479 0.977,0 1.101,0.097 1.038,0.808 -0.005,0.059 0.203,0.125 0.464,0.146 0.26,0.022 0.7,0.266 0.977,0.543 0.448,0.448 0.666,0.503 2.012,0.503 1.476,0 1.509,0.011 1.509,0.5 0,0.4 0.1,0.5 0.5,0.5 0.4,0 0.5,0.1 0.5,0.5 0,0.417 0.095,0.5 0.576,0.5 0.591,0 1.354,0.586 0.798,0.614 -0.15,0.007 -0.049,0.119 0.226,0.248 0.275,0.129 0.641,0.405 0.812,0.612 0.306,0.368 0.616,0.449 1.938,0.5 0.553,0.022 0.65,0.1 0.65,0.526 0,0.416 0.096,0.5 0.566,0.5 0.458,0 0.563,0.086 0.55,0.45 -0.012,0.342 0.092,0.446 0.434,0.434 0.289,-0.01 0.45,0.101 0.45,0.31 0,0.388 0.379,0.806 0.731,0.806 0.138,0 0.476,0.225 0.751,0.5 0.313,0.314 0.726,0.5 1.107,0.5 0.51,0 0.599,0.072 0.559,0.45 -0.038,0.358 0.053,0.45 0.447,0.45 0.394,0 0.497,0.103 0.5,0.5 0.004,0.381 0.111,0.501 0.451,0.506 0.245,0.003 0.59,0.183 0.766,0.4 0.269,0.331 0.303,0.338 0.211,0.044 -0.071,-0.224 -0.005,-0.35 0.183,-0.35 0.18,0 0.294,0.194 0.294,0.5 0,0.396 0.101,0.5 0.486,0.5 0.352,0 0.504,0.124 0.55,0.45 0.041,0.289 0.225,0.473 0.514,0.514 0.328,0.047 0.45,0.198 0.45,0.559 0,0.715 2.659,0.664 2.761,-0.053 0.034,-0.236 0.242,-0.476 0.462,-0.534 0.327,-0.086 0.357,-0.053 0.164,0.18 -0.142,0.171 -0.155,0.284 -0.033,0.284 0.267,0 0.462,-0.526 0.326,-0.88 -0.127,-0.33 0.051,-0.463 0.801,-0.599 0.661,-0.12 1.119,-0.466 1.119,-0.845 0,-0.152 0.124,-0.276 0.276,-0.276 0.379,0 0.725,-0.458 0.845,-1.119 0.138,-0.762 0.269,-0.928 0.627,-0.79 0.376,0.144 1.252,-0.396 1.252,-0.772 0,-0.15 0.187,-0.321 0.415,-0.381 0.228,-0.059 0.464,-0.295 0.523,-0.523 0.06,-0.228 0.222,-0.415 0.361,-0.415 0.364,0 0.725,-0.501 0.791,-1.097 0.07,-0.637 0.088,-0.655 0.782,-0.781 0.669,-0.121 1.128,-0.466 1.128,-0.846 0,-0.152 0.135,-0.276 0.3,-0.276 0.165,0 0.3,-0.095 0.3,-0.212 0,-0.116 -0.09,-0.156 -0.2,-0.088 -0.11,0.068 -0.2,-0.01 -0.2,-0.174 0,-0.164 0.203,-0.327 0.45,-0.362 0.321,-0.046 0.468,-0.22 0.513,-0.609 0.049,-0.426 0.159,-0.536 0.5,-0.5 0.345,0.035 0.427,-0.05 0.389,-0.405 -0.04,-0.377 0.05,-0.45 0.55,-0.45 0.505,0 0.598,-0.078 0.598,-0.5 0,-0.306 0.114,-0.5 0.294,-0.5 0.192,0 0.249,0.115 0.166,0.333 -0.086,0.224 -0.051,0.285 0.106,0.188 0.129,-0.08 0.234,-0.274 0.234,-0.433 0,-0.158 0.124,-0.288 0.276,-0.288 0.38,0 0.725,-0.459 0.846,-1.128 0.124,-0.683 0.067,-0.626 0.75,-0.75 0.669,-0.121 1.128,-0.466 1.128,-0.846 0,-0.152 0.13,-0.276 0.288,-0.276 0.159,0 0.353,-0.105 0.433,-0.234 0.097,-0.157 0.036,-0.192 -0.188,-0.106 -0.218,0.083 -0.333,0.026 -0.333,-0.166 0,-0.18 0.194,-0.294 0.5,-0.294 0.422,0 0.5,-0.093 0.5,-0.598 0,-0.498 0.074,-0.589 0.444,-0.55 0.323,0.035 0.446,-0.059 0.45,-0.342 0.004,-0.25 0.187,-0.433 0.506,-0.509 0.316,-0.074 0.524,-0.28 0.564,-0.559 0.035,-0.243 0.19,-0.442 0.344,-0.442 0.178,0 0.233,0.12 0.152,0.333 -0.086,0.224 -0.051,0.285 0.106,0.188 0.129,-0.08 0.234,-0.274 0.234,-0.433 0,-0.158 0.13,-0.288 0.288,-0.288 0.159,0 0.353,-0.105 0.433,-0.234 0.097,-0.157 0.036,-0.192 -0.188,-0.106 -0.213,0.081 -0.333,0.026 -0.333,-0.152 0,-0.154 0.203,-0.309 0.45,-0.344 0.289,-0.041 0.473,-0.225 0.514,-0.514 0.035,-0.247 0.125,-0.461 0.2,-0.476 0.075,-0.014 0.337,-0.046 0.582,-0.072 0.547,-0.058 1.054,-0.455 1.054,-0.826 0,-0.152 0.13,-0.276 0.288,-0.276 0.159,0 0.353,-0.105 0.433,-0.234 0.097,-0.157 0.036,-0.192 -0.188,-0.106 -0.218,0.083 -0.333,0.026 -0.333,-0.166 0,-0.18 0.194,-0.294 0.5,-0.294 0.393,0 0.5,-0.102 0.5,-0.477 0,-0.313 0.141,-0.513 0.411,-0.584 0.338,-0.088 0.37,-0.057 0.176,0.177 -0.142,0.171 -0.155,0.284 -0.033,0.284 0.267,0 0.462,-0.526 0.326,-0.88 -0.127,-0.33 0.051,-0.463 0.801,-0.599 0.661,-0.12 1.119,-0.466 1.119,-0.845 0,-0.152 0.124,-0.276 0.276,-0.276 0.379,0 0.725,-0.458 0.845,-1.119 0.138,-0.762 0.269,-0.928 0.627,-0.79 0.376,0.144 1.252,-0.396 1.252,-0.772 0,-0.15 0.187,-0.321 0.415,-0.381 0.228,-0.059 0.464,-0.295 0.523,-0.523 0.06,-0.228 0.222,-0.415 0.361,-0.415 0.364,0 0.725,-0.501 0.791,-1.097 0.07,-0.637 0.088,-0.655 0.782,-0.781 0.669,-0.121 1.128,-0.466 1.128,-0.846 0,-0.152 0.135,-0.276 0.3,-0.276 0.165,0 0.3,-0.095 0.3,-0.212 0,-0.116 -0.09,-0.156 -0.2,-0.088 -0.11,0.068 -0.2,-0.01 -0.2,-0.174 0,-0.164 0.203,-0.327 0.45,-0.362 0.321,-0.046 0.468,-0.22 0.513,-0.609 0.049,-0.426 0.159,-0.536 0.5,-0.5 0.345,0.035 0.427,-0.05 0.389,-0.405 -0.04,-0.377 0.05,-0.45 0.55,-0.45 0.505,0 0.598,-0.078 0.598,-0.5 0,-0.306 0.114,-0.5 0.294,-0.5 0.192,0 0.249,0.115 0.166,0.333 -0.086,0.224 -0.051,0.285 0.106,0.188 0.129,-0.08 0.234,-0.274 0.234,-0.433 0,-0.158 0.133,-0.288 0.295,-0.288 0.876,0 1.191,-3.131 0.353,-3.498 -0.248,-0.109 -0.5,-0.352 -0.56,-0.54 -0.06,-0.188 -0.284,-0.397 -0.498,-0.465 -0.215,-0.068 -0.39,-0.201 -0.39,-0.296 0,-0.391 -0.673,-0.801 -1.314,-0.801 -0.598,0 -0.686,-0.064 -0.686,-0.5 0,-0.4 -0.1,-0.5 -0.5,-0.5 -0.306,0 -0.5,-0.114 -0.5,-0.294 0,-0.192 0.115,-0.249 0.333,-0.166 0.218,0.084 0.285,0.05 0.193,-0.098 -0.077,-0.125 -0.452,-0.285 -0.833,-0.357 -0.668,-0.125 -0.785,-0.268 -0.702,-0.862 0.023,-0.164 -0.077,-0.233 -0.244,-0.169 -0.431,0.166 -0.769,-0.135 -0.836,-0.742 -0.08,-0.726 -0.591,-1.206 -1.318,-1.237 -0.326,-0.014 -0.812,-0.036 -1.079,-0.05 -0.342,-0.018 -0.505,-0.158 -0.55,-0.475 -0.041,-0.289 -0.225,-0.473 -0.514,-0.514 -0.322,-0.046 -0.45,-0.199 -0.45,-0.537 0,-0.367 -0.123,-0.487 -0.55,-0.536 -0.452,-0.052 -0.538,-0.148 -0.483,-0.541 0.057,-0.399 -0.001,-0.46 -0.352,-0.368 -0.297,0.078 -0.487,-0.017 -0.648,-0.322 -0.305,-0.581 -0.556,-0.725 -1.27,-0.729 -0.427,-0.002 -0.659,-0.132 -0.8,-0.446 -0.108,-0.244 -0.377,-0.492 -0.597,-0.55 -0.231,-0.062 -0.4,-0.276 -0.4,-0.507 0,-0.332 -0.15,-0.408 -0.883,-0.449 -1.012,-0.057 -1.028,-0.066 -1.069,-0.615 -0.017,-0.224 -0.08,-0.404 -0.14,-0.398 -1.217,0.11 -1.808,-0.065 -1.808,-0.538 0,-0.416 -0.096,-0.5 -0.566,-0.5 -0.458,0 -0.563,-0.086 -0.55,-0.45 0.012,-0.342 -0.092,-0.446 -0.434,-0.434 -0.289,0.01 -0.45,-0.101 -0.45,-0.31 0,-0.54 -0.434,-0.806 -1.317,-0.806 -0.656,0 -0.858,-0.083 -0.937,-0.384 -0.069,-0.264 -0.371,-0.438 -0.973,-0.558 -0.726,-0.145 -0.863,-0.245 -0.815,-0.591 0.052,-0.368 -0.049,-0.418 -0.876,-0.435 -1.055,-0.021 -1.092,-0.04 -1.132,-0.57 -0.017,-0.226 -0.19,-0.395 -0.422,-0.412 -0.36,-0.028 -0.624,-0.273 -0.785,-0.73 -0.068,-0.194 -0.571,-0.277 -1.846,-0.303 -0.631,-0.013 -0.844,-0.113 -1,-0.467 -0.152,-0.347 -0.391,-0.464 -1.047,-0.511 -0.751,-0.055 -0.85,-0.119 -0.85,-0.55 0,-0.269 -0.068,-0.478 -0.15,-0.465 -1.066,0.168 -1.85,-0.054 -1.85,-0.524 0,-0.396 -0.101,-0.5 -0.487,-0.5 -0.306,0 -0.532,-0.144 -0.61,-0.39 -0.115,-0.363 -0.639,-0.664 -1.032,-0.593 -0.897,0.16 -1.856,-0.054 -1.979,-0.443 -0.09,-0.284 -0.185,-0.348 -0.282,-0.191 -0.106,0.173 -0.214,0.153 -0.402,-0.074 -0.168,-0.201 -0.596,-0.309 -1.232,-0.309 -0.958,0 -1.113,-0.132 -1,-0.85 0.013,-0.082 -0.044,-0.139 -0.126,-0.126 -0.908,0.143 -1.774,-0.067 -1.953,-0.474 -0.17,-0.389 -0.371,-0.458 -1.493,-0.511 -0.713,-0.033 -1.433,-0.168 -1.6,-0.3 -0.673,-0.529 -1.236,-0.739 -1.988,-0.739 -0.613,0 -0.817,-0.089 -0.916,-0.4 -0.07,-0.22 -0.233,-0.414 -0.363,-0.43 -0.131,-0.017 -0.327,-0.052 -0.437,-0.077 -0.11,-0.026 -0.606,-0.057 -1.103,-0.07 -0.732,-0.019 -0.939,-0.108 -1.1,-0.473 -0.171,-0.391 -0.37,-0.458 -1.503,-0.508 -1.125,-0.05 -1.333,-0.12 -1.5,-0.499 -0.107,-0.242 -0.374,-0.471 -0.594,-0.508 -0.369,-0.062 -0.365,-0.042 0.05,0.26 0.248,0.18 0.443,0.435 0.434,0.566 -0.011,0.169 -0.046,0.164 -0.118,-0.015 -0.245,-0.608 -1.234,-0.846 -3.522,-0.846 -2.231,0 -2.275,-0.009 -2.26,-0.45 0.018,-0.502 0.043,-0.496 -2.319,-0.529 -1.284,-0.018 -1.551,-0.078 -1.627,-0.371 -0.084,-0.319 -0.094,-0.32 -0.115,-0.01 -0.019,0.288 -0.105,0.265 -0.552,-0.15 -0.486,-0.45 -0.688,-0.49 -2.466,-0.49 -1.88,0 -1.936,-0.013 -1.921,-0.45 0.016,-0.445 -0.02,-0.451 -2.974,-0.513 -2.616,-0.055 -3.023,-0.109 -3.244,-0.425 -0.14,-0.199 -0.456,-0.415 -0.704,-0.48 -0.394,-0.103 -0.376,-0.057 0.144,0.368 0.504,0.412 0.535,0.487 0.207,0.493 -0.213,0.004 -0.602,-0.195 -0.864,-0.441 l -0.477,-0.448 -14.136,-0.046 c -9.191,-0.03 -14.031,0.021 -13.836,0.147 0.215,0.139 0.128,0.162 -0.305,0.079 -0.456,-0.087 -0.697,-0.014 -0.981,0.3 -0.207,0.229 -0.565,0.413 -0.795,0.409 -0.378,-0.007 -0.36,-0.055 0.181,-0.499 0.644,-0.528 0.64,-0.565 -0.033,-0.294 M 160.6,66.3 c 0,0.165 -0.146,0.3 -0.324,0.3 -0.266,0 -0.28,-0.054 -0.076,-0.3 0.137,-0.165 0.283,-0.3 0.324,-0.3 0.042,0 0.076,0.135 0.076,0.3 m -4.312,0.594 c -0.489,0.369 -0.386,0.371 0.612,0.012 0.663,-0.239 0.712,-0.29 0.288,-0.297 -0.281,-0.005 -0.686,0.123 -0.9,0.285 m 92.812,0.012 c 0.998,0.359 1.101,0.357 0.612,-0.012 -0.214,-0.162 -0.619,-0.29 -0.9,-0.285 -0.424,0.007 -0.375,0.058 0.288,0.297 M 121.658,85.2 c -0.058,0.22 -0.243,0.4 -0.412,0.4 -0.259,0 -0.25,-0.064 0.054,-0.4 0.199,-0.22 0.385,-0.4 0.412,-0.4 0.028,0 0.003,0.18 -0.054,0.4 m 168.13,4.087 c 0.41,0.437 0.418,0.477 0.075,0.387 -0.388,-0.101 -1.006,-0.874 -0.7,-0.874 0.092,0 0.373,0.219 0.625,0.487 M 112.658,92.2 c -0.058,0.22 -0.243,0.4 -0.412,0.4 -0.259,0 -0.25,-0.064 0.054,-0.4 0.199,-0.22 0.385,-0.4 0.412,-0.4 0.028,0 0.003,0.18 -0.054,0.4 m 184.181,6.45 c -0.289,0.289 -0.439,0.346 -0.439,0.166 0,-0.287 0.636,-0.847 0.789,-0.694 0.049,0.049 -0.109,0.287 -0.35,0.528 m -193.176,1.532 c -0.055,0.209 -0.282,0.429 -0.504,0.487 -0.382,0.1 -0.379,0.078 0.053,-0.382 0.551,-0.586 0.578,-0.593 0.451,-0.105 m -3,3 c -0.055,0.209 -0.282,0.429 -0.504,0.487 -0.382,0.1 -0.379,0.078 0.053,-0.382 0.551,-0.586 0.578,-0.593 0.451,-0.105 M 292,103.476 c 0,0.041 -0.135,0.187 -0.3,0.324 -0.246,0.204 -0.3,0.19 -0.3,-0.076 0,-0.178 0.135,-0.324 0.3,-0.324 0.165,0 0.3,0.034 0.3,0.076 m -1.8,1.793 c 0,0.038 -0.18,0.232 -0.4,0.431 -0.345,0.313 -0.4,0.319 -0.4,0.046 0,-0.174 0.158,-0.358 0.35,-0.408 0.193,-0.05 0.373,-0.102 0.4,-0.115 0.028,-0.013 0.05,0.008 0.05,0.046 m -1.2,1.207 c 0,0.041 -0.135,0.187 -0.3,0.324 -0.246,0.204 -0.3,0.19 -0.3,-0.076 0,-0.178 0.135,-0.324 0.3,-0.324 0.165,0 0.3,0.034 0.3,0.076 m -1,0.993 c 0,0.038 -0.174,0.226 -0.386,0.418 -0.371,0.336 -0.382,0.333 -0.277,-0.069 0.087,-0.33 0.663,-0.634 0.663,-0.349 m -2,2.007 c 0,0.041 -0.135,0.187 -0.3,0.324 -0.246,0.204 -0.3,0.19 -0.3,-0.076 0,-0.178 0.135,-0.324 0.3,-0.324 0.165,0 0.3,0.034 0.3,0.076 m -1,1 c 0,0.041 -0.135,0.187 -0.3,0.324 -0.246,0.204 -0.3,0.19 -0.3,-0.076 0,-0.178 0.135,-0.324 0.3,-0.324 0.165,0 0.3,0.034 0.3,0.076 m -4,3.993 c 0,0.038 -0.174,0.226 -0.386,0.418 -0.371,0.336 -0.382,0.333 -0.277,-0.069 0.087,-0.33 0.663,-0.634 0.663,-0.349 m -73.246,3.331 c 0.137,0.22 0.173,0.4 0.079,0.4 -0.094,0 -0.334,-0.18 -0.533,-0.4 -0.278,-0.308 -0.297,-0.4 -0.079,-0.4 0.155,0 0.395,0.18 0.533,0.4 M 274,121.469 c 0,0.038 -0.174,0.226 -0.386,0.418 -0.371,0.336 -0.382,0.333 -0.277,-0.069 0.087,-0.33 0.663,-0.634 0.663,-0.349 m -188.653,1.293 c -0.162,0.186 -0.344,0.473 -0.405,0.638 -0.078,0.213 -0.115,0.182 -0.126,-0.105 -0.02,-0.505 0.624,-1.476 0.742,-1.121 0.046,0.137 -0.049,0.401 -0.211,0.588 m 186.853,0.507 c 0,0.038 -0.18,0.232 -0.4,0.431 -0.345,0.313 -0.4,0.319 -0.4,0.046 0,-0.174 0.158,-0.358 0.35,-0.408 0.193,-0.05 0.373,-0.102 0.4,-0.115 0.028,-0.013 0.05,0.008 0.05,0.046 m -36.6,1.455 c 0,0.266 -0.054,0.28 -0.3,0.076 -0.165,-0.137 -0.3,-0.283 -0.3,-0.324 0,-0.042 0.135,-0.076 0.3,-0.076 0.165,0 0.3,0.146 0.3,0.324 m -70.6,2.752 c 0,0.041 -0.135,0.187 -0.3,0.324 -0.246,0.204 -0.3,0.19 -0.3,-0.076 0,-0.178 0.135,-0.324 0.3,-0.324 0.165,0 0.3,0.034 0.3,0.076 m 77.658,1.324 c 0.057,0.22 0.082,0.4 0.054,0.4 -0.027,0 -0.213,-0.18 -0.412,-0.4 -0.304,-0.336 -0.313,-0.4 -0.054,-0.4 0.169,0 0.354,0.18 0.412,0.4 M 267,128.476 c 0,0.041 -0.135,0.187 -0.3,0.324 -0.246,0.204 -0.3,0.19 -0.3,-0.076 0,-0.178 0.135,-0.324 0.3,-0.324 0.165,0 0.3,0.034 0.3,0.076 m -1.8,1.793 c 0,0.038 -0.18,0.232 -0.4,0.431 -0.345,0.313 -0.4,0.319 -0.4,0.046 0,-0.174 0.158,-0.358 0.35,-0.408 0.193,-0.05 0.373,-0.102 0.4,-0.115 0.028,-0.013 0.05,0.008 0.05,0.046 m -1.2,1.207 c 0,0.041 -0.135,0.187 -0.3,0.324 -0.246,0.204 -0.3,0.19 -0.3,-0.076 0,-0.178 0.135,-0.324 0.3,-0.324 0.165,0 0.3,0.034 0.3,0.076 m -107,1 c 0,0.041 -0.135,0.187 -0.3,0.324 -0.246,0.204 -0.3,0.19 -0.3,-0.076 0,-0.178 0.135,-0.324 0.3,-0.324 0.165,0 0.3,0.034 0.3,0.076 m 91.709,0.138 c 0.072,0.118 0.325,0.292 0.561,0.387 l 0.43,0.174 -0.428,0.012 c -0.235,0.007 -0.64,-0.164 -0.9,-0.38 -0.383,-0.319 -0.408,-0.395 -0.134,-0.4 0.186,-0.004 0.398,0.089 0.471,0.207 M 263,132.469 c 0,0.038 -0.174,0.226 -0.386,0.418 -0.371,0.336 -0.382,0.333 -0.277,-0.069 0.087,-0.33 0.663,-0.634 0.663,-0.349 m -2,2.007 c 0,0.041 -0.135,0.187 -0.3,0.324 -0.246,0.204 -0.3,0.19 -0.3,-0.076 0,-0.178 0.135,-0.324 0.3,-0.324 0.165,0 0.3,0.034 0.3,0.076 m -1,1 c 0,0.041 -0.135,0.187 -0.3,0.324 -0.246,0.204 -0.3,0.19 -0.3,-0.076 0,-0.178 0.135,-0.324 0.3,-0.324 0.165,0 0.3,0.034 0.3,0.076 m -110,3 c 0,0.041 -0.135,0.187 -0.3,0.324 -0.246,0.204 -0.3,0.19 -0.3,-0.076 0,-0.178 0.135,-0.324 0.3,-0.324 0.165,0 0.3,0.034 0.3,0.076 m -7,7 c 0,0.041 -0.135,0.187 -0.3,0.324 -0.246,0.204 -0.3,0.19 -0.3,-0.076 0,-0.178 0.135,-0.324 0.3,-0.324 0.165,0 0.3,0.034 0.3,0.076 m -1,1 c 0,0.041 -0.135,0.187 -0.3,0.324 -0.246,0.204 -0.3,0.19 -0.3,-0.076 0,-0.178 0.135,-0.324 0.3,-0.324 0.165,0 0.3,0.034 0.3,0.076 m -2.118,3.08 c -0.223,0.34 -0.383,0.442 -0.437,0.278 -0.047,-0.141 0.058,-0.417 0.234,-0.611 0.177,-0.195 0.331,-0.482 0.344,-0.639 0.014,-0.17 0.061,-0.14 0.117,0.076 0.051,0.198 -0.065,0.601 -0.258,0.896 m -5.882,7.92 c 0,0.041 -0.135,0.187 -0.3,0.324 -0.246,0.204 -0.3,0.19 -0.3,-0.076 0,-0.178 0.135,-0.324 0.3,-0.324 0.165,0 0.3,0.034 0.3,0.076 m -10.299,25.323 c -0.2,0.22 -0.27,0.401 -0.156,0.401 0.251,0 0.75,-0.572 0.616,-0.706 -0.053,-0.053 -0.26,0.084 -0.46,0.305 m 0,34.402 c 0.2,0.221 0.407,0.358 0.46,0.305 0.134,-0.134 -0.365,-0.706 -0.616,-0.706 -0.114,0 -0.044,0.181 0.156,0.401 M 66.8,237.545 c 0,0.251 0.572,0.75 0.706,0.616 0.053,-0.053 -0.084,-0.26 -0.305,-0.46 -0.22,-0.2 -0.401,-0.27 -0.401,-0.156"
       inkscape:connector-curvature="0"
       style="fill:#e74133;fill-rule:evenodd;stroke:none" />
    <path
       id="path1"
       d="m 192.752,59.741 c 0.249,0.048 0.609,0.046 0.8,-0.004 0.192,-0.05 -0.012,-0.089 -0.452,-0.087 -0.44,0.003 -0.596,0.044 -0.348,0.091 m 19.498,0.006 c 0.523,0.041 1.378,0.041 1.9,0 0.523,-0.041 0.095,-0.075 -0.95,-0.075 -1.045,0 -1.472,0.034 -0.95,0.075 m -25.086,0.596 c -0.161,0.195 -0.116,0.257 0.187,0.257 0.22,0 0.508,-0.13 0.64,-0.289 0.196,-0.237 0.163,-0.283 -0.187,-0.256 -0.235,0.017 -0.523,0.147 -0.64,0.288 m 30.834,-0.046 c 0.138,0.167 0.438,0.303 0.666,0.303 0.541,0 0.139,-0.444 -0.488,-0.54 -0.363,-0.056 -0.391,-0.019 -0.178,0.237 m 11.602,1.737 c 0.501,0.489 0.755,0.579 0.509,0.18 -0.072,-0.116 -0.329,-0.314 -0.57,-0.44 -0.398,-0.206 -0.392,-0.182 0.061,0.26 m -66.428,2.949 c -0.26,0.21 -0.427,0.418 -0.372,0.461 0.055,0.043 0.317,-0.13 0.582,-0.383 0.583,-0.558 0.445,-0.609 -0.21,-0.078 M 160.2,66.3 c -0.204,0.246 -0.19,0.3 0.076,0.3 0.178,0 0.324,-0.135 0.324,-0.3 0,-0.165 -0.034,-0.3 -0.076,-0.3 -0.041,0 -0.187,0.135 -0.324,0.3 m -3.129,0.518 c -0.345,0.1 -0.68,0.317 -0.743,0.482 -0.149,0.387 0.151,0.387 0.472,0 0.137,-0.165 0.368,-0.3 0.513,-0.3 0.145,0 0.319,-0.09 0.387,-0.2 0.068,-0.11 0.096,-0.192 0.062,-0.182 -0.034,0.01 -0.345,0.1 -0.691,0.2 m 91.237,-0.005 c 0.064,0.103 0.216,0.187 0.338,0.187 0.122,0 0.388,0.149 0.589,0.332 0.4,0.361 0.636,0.306 0.39,-0.091 -0.084,-0.137 -0.441,-0.331 -0.793,-0.432 -0.396,-0.113 -0.596,-0.112 -0.524,0.004 M 121.4,85.1 c -0.389,0.414 -0.412,0.5 -0.135,0.5 0.184,0 0.335,-0.131 0.335,-0.29 0,-0.16 0.158,-0.382 0.35,-0.494 0.192,-0.112 0.253,-0.207 0.135,-0.21 -0.118,-0.003 -0.427,0.219 -0.685,0.494 m 167.838,4.087 c 0.133,0.213 0.414,0.432 0.625,0.487 0.343,0.09 0.335,0.05 -0.075,-0.387 -0.547,-0.582 -0.89,-0.644 -0.55,-0.1 M 112.3,92.2 c -0.304,0.336 -0.313,0.4 -0.054,0.4 0.169,0 0.354,-0.18 0.412,-0.4 0.057,-0.22 0.082,-0.4 0.054,-0.4 -0.027,0 -0.213,0.18 -0.412,0.4 m 184.45,6.088 c -0.193,0.141 -0.35,0.379 -0.35,0.528 0,0.18 0.15,0.123 0.439,-0.166 0.499,-0.499 0.438,-0.747 -0.089,-0.362 m -193.439,1.9 c -0.444,0.464 -0.484,0.567 -0.187,0.49 0.207,-0.054 0.48,-0.319 0.607,-0.588 0.294,-0.622 0.264,-0.615 -0.42,0.098 m -3.209,3.21 -0.573,0.598 0.525,-0.248 c 0.289,-0.136 0.567,-0.405 0.617,-0.598 0.12,-0.46 0.101,-0.451 -0.569,0.248 m 191.298,0.326 c 0,0.266 0.054,0.28 0.3,0.076 0.165,-0.137 0.3,-0.283 0.3,-0.324 0,-0.042 -0.135,-0.076 -0.3,-0.076 -0.165,0 -0.3,0.146 -0.3,0.324 m -1.269,1.367 c -0.065,0.17 -0.256,0.309 -0.425,0.309 -0.168,0 -0.306,0.155 -0.306,0.345 0,0.28 0.103,0.243 0.539,-0.193 0.297,-0.297 0.488,-0.591 0.425,-0.655 -0.063,-0.063 -0.168,0.025 -0.233,0.194 m -1.731,1.633 c 0,0.266 0.054,0.28 0.3,0.076 0.165,-0.137 0.3,-0.283 0.3,-0.324 0,-0.042 -0.135,-0.076 -0.3,-0.076 -0.165,0 -0.3,0.146 -0.3,0.324 m -1.063,1.094 c -0.105,0.402 -0.094,0.405 0.277,0.069 0.459,-0.415 0.475,-0.487 0.109,-0.487 -0.152,0 -0.326,0.188 -0.386,0.418 m -1.937,1.906 c 0,0.266 0.054,0.28 0.3,0.076 0.165,-0.137 0.3,-0.283 0.3,-0.324 0,-0.042 -0.135,-0.076 -0.3,-0.076 -0.165,0 -0.3,0.146 -0.3,0.324 m -1,1 c 0,0.266 0.054,0.28 0.3,0.076 0.165,-0.137 0.3,-0.283 0.3,-0.324 0,-0.042 -0.135,-0.076 -0.3,-0.076 -0.165,0 -0.3,0.146 -0.3,0.324 m -4,3.966 c 0,0.16 -0.157,0.382 -0.35,0.494 -0.192,0.112 -0.253,0.207 -0.135,0.21 0.118,0.003 0.427,-0.219 0.685,-0.494 0.389,-0.414 0.412,-0.5 0.135,-0.5 -0.184,0 -0.335,0.131 -0.335,0.29 m -73.1,3.11 c 0.199,0.22 0.439,0.4 0.533,0.4 0.094,0 0.058,-0.18 -0.079,-0.4 -0.138,-0.22 -0.378,-0.4 -0.533,-0.4 -0.218,0 -0.199,0.092 0.079,0.4 m -23.7,2.166 c -0.453,0.442 -0.459,0.466 -0.061,0.26 0.241,-0.126 0.498,-0.324 0.57,-0.44 0.246,-0.399 -0.008,-0.309 -0.509,0.18 m 38.238,-0.383 c 0.046,0.155 0.304,0.42 0.573,0.588 0.379,0.236 0.422,0.24 0.189,0.017 -0.165,-0.159 -0.423,-0.423 -0.573,-0.588 -0.22,-0.242 -0.257,-0.245 -0.189,-0.017 m 3,1 c 0.046,0.155 0.304,0.42 0.573,0.588 0.379,0.236 0.422,0.24 0.189,0.017 -0.165,-0.159 -0.423,-0.423 -0.573,-0.588 -0.22,-0.242 -0.257,-0.245 -0.189,-0.017 m 48.416,1.349 -0.246,0.53 0.496,-0.466 c 0.566,-0.532 0.593,-0.597 0.246,-0.594 -0.137,0 -0.361,0.239 -0.496,0.53 m -188.116,0.475 c -0.186,0.265 -0.331,0.664 -0.322,0.888 0.011,0.287 0.048,0.318 0.126,0.105 0.061,-0.165 0.243,-0.452 0.405,-0.638 0.162,-0.187 0.257,-0.451 0.211,-0.588 -0.052,-0.157 -0.208,-0.071 -0.42,0.233 m 186.712,0.865 c -0.247,0.123 -0.45,0.352 -0.45,0.51 0,0.202 0.15,0.147 0.5,-0.182 0.425,-0.399 0.633,-0.665 0.45,-0.575 -0.028,0.013 -0.252,0.124 -0.5,0.247 M 235,124.476 c 0,0.041 0.135,0.187 0.3,0.324 0.246,0.204 0.3,0.19 0.3,-0.076 0,-0.178 -0.135,-0.324 -0.3,-0.324 -0.165,0 -0.3,0.034 -0.3,0.076 m -70.6,3.248 c 0,0.266 0.054,0.28 0.3,0.076 0.165,-0.137 0.3,-0.283 0.3,-0.324 0,-0.042 -0.135,-0.076 -0.3,-0.076 -0.165,0 -0.3,0.146 -0.3,0.324 m -1.8,1.242 c -0.453,0.442 -0.459,0.466 -0.061,0.26 0.241,-0.126 0.498,-0.324 0.57,-0.44 0.246,-0.399 -0.008,-0.309 -0.509,0.18 m 79.7,-0.166 c 0.199,0.22 0.385,0.4 0.412,0.4 0.028,0 0.003,-0.18 -0.054,-0.4 -0.058,-0.22 -0.243,-0.4 -0.412,-0.4 -0.259,0 -0.25,0.064 0.054,0.4 m 24.1,-0.076 c 0,0.266 0.054,0.28 0.3,0.076 0.165,-0.137 0.3,-0.283 0.3,-0.324 0,-0.042 -0.135,-0.076 -0.3,-0.076 -0.165,0 -0.3,0.146 -0.3,0.324 m -1.269,1.367 c -0.065,0.17 -0.256,0.309 -0.425,0.309 -0.168,0 -0.306,0.155 -0.306,0.345 0,0.28 0.103,0.243 0.539,-0.193 0.297,-0.297 0.488,-0.591 0.425,-0.655 -0.063,-0.063 -0.168,0.025 -0.233,0.194 m -1.731,1.633 c 0,0.266 0.054,0.28 0.3,0.076 0.165,-0.137 0.3,-0.283 0.3,-0.324 0,-0.042 -0.135,-0.076 -0.3,-0.076 -0.165,0 -0.3,0.146 -0.3,0.324 m -107,1 c 0,0.266 0.054,0.28 0.3,0.076 0.165,-0.137 0.3,-0.283 0.3,-0.324 0,-0.042 -0.135,-0.076 -0.3,-0.076 -0.165,0 -0.3,0.146 -0.3,0.324 m 91.972,0.083 c 0.26,0.216 0.665,0.387 0.9,0.38 l 0.428,-0.012 -0.43,-0.174 c -0.236,-0.095 -0.489,-0.269 -0.561,-0.387 -0.073,-0.118 -0.285,-0.211 -0.471,-0.207 -0.274,0.005 -0.249,0.081 0.134,0.4 m 13.965,0.011 c -0.105,0.402 -0.094,0.405 0.277,0.069 0.459,-0.415 0.475,-0.487 0.109,-0.487 -0.152,0 -0.326,0.188 -0.386,0.418 m -1.937,1.906 c 0,0.266 0.054,0.28 0.3,0.076 0.165,-0.137 0.3,-0.283 0.3,-0.324 0,-0.042 -0.135,-0.076 -0.3,-0.076 -0.165,0 -0.3,0.146 -0.3,0.324 m -1,1 c 0,0.266 0.054,0.28 0.3,0.076 0.165,-0.137 0.3,-0.283 0.3,-0.324 0,-0.042 -0.135,-0.076 -0.3,-0.076 -0.165,0 -0.3,0.146 -0.3,0.324 m -182.8,2.329 c 0,0.277 -0.174,0.529 -0.45,0.65 -0.346,0.151 -0.464,0.391 -0.511,1.035 -0.05,0.687 -0.14,0.848 -0.5,0.9 -0.397,0.056 -0.445,0.195 -0.499,1.441 -0.051,1.187 -0.128,1.433 -0.55,1.764 -0.337,0.266 -0.49,0.585 -0.49,1.024 0,0.47 -0.119,0.69 -0.45,0.836 -0.341,0.149 -0.464,0.392 -0.509,1.004 -0.045,0.606 -0.169,0.854 -0.5,1 -0.327,0.143 -0.458,0.397 -0.505,0.983 -0.043,0.523 -0.23,0.944 -0.55,1.241 -0.433,0.401 -0.486,0.617 -0.486,1.987 0,1.382 -0.05,1.583 -0.5,2 -0.418,0.387 -0.5,0.646 -0.5,1.572 0,1.051 -0.027,1.11 -0.5,1.11 -0.465,0 -0.5,0.068 -0.5,0.976 0,0.778 -0.087,1.033 -0.433,1.263 -0.365,0.242 -0.446,0.522 -0.512,1.774 -0.058,1.077 -0.171,1.557 -0.41,1.74 -0.23,0.176 -0.312,0.494 -0.272,1.05 0.034,0.471 -0.03,0.797 -0.158,0.797 -0.136,0 -0.215,0.606 -0.215,1.653 0,1.522 -0.036,1.668 -0.45,1.85 -0.413,0.181 -0.455,0.348 -0.508,2.047 -0.031,1.018 -0.137,1.85 -0.235,1.85 -0.563,0 -0.807,0.677 -0.807,2.241 0,1.464 -0.046,1.656 -0.5,2.077 l -0.5,0.463 v 6.306 6.305 l -0.5,0.126 -0.5,0.125 v 10.449 10.45 l 0.5,0.539 0.5,0.54 v 6.199 6.199 l 0.5,0.463 c 0.436,0.404 0.5,0.633 0.5,1.778 0,1.488 0.25,2.34 0.688,2.34 0.239,0 0.309,0.382 0.355,1.95 0.053,1.803 0.091,1.965 0.507,2.147 0.391,0.172 0.45,0.347 0.45,1.341 0,0.629 0.103,1.37 0.229,1.647 0.175,0.382 0.173,0.572 -0.008,0.79 -0.302,0.364 -0.102,1.189 0.397,1.641 0.275,0.249 0.382,0.615 0.382,1.306 0,0.694 0.138,1.164 0.5,1.697 0.364,0.537 0.5,1.002 0.5,1.713 0,0.941 0.018,0.971 0.5,0.85 0.493,-0.124 0.5,-0.108 0.5,1.106 0,1.056 0.071,1.297 0.5,1.694 0.45,0.417 0.5,0.618 0.5,2 0,1.383 0.05,1.584 0.5,2 0.294,0.273 0.5,0.685 0.5,1 0,0.316 0.206,0.728 0.5,1 0.294,0.273 0.5,0.685 0.5,1 0,0.312 0.204,0.726 0.487,0.988 0.345,0.32 0.505,0.709 0.55,1.34 0.052,0.742 0.137,0.9 0.504,0.953 0.398,0.056 0.447,0.195 0.5,1.4 0.051,1.165 0.117,1.362 0.509,1.534 0.313,0.138 0.45,0.369 0.45,0.76 0,0.335 0.192,0.74 0.476,1.003 0.261,0.243 0.51,0.621 0.552,0.841 0.044,0.23 0.266,0.426 0.524,0.463 0.246,0.035 0.448,0.148 0.448,0.25 0,0.338 0.778,0.193 1.243,-0.231 0.251,-0.23 1.267,-1.041 2.257,-1.802 6.976,-5.368 9.796,-7.557 11.575,-8.987 0.894,-0.719 1.875,-1.465 2.182,-1.659 0.306,-0.194 1.532,-1.136 2.724,-2.094 1.193,-0.957 2.77,-2.191 3.504,-2.741 0.735,-0.55 1.616,-1.225 1.959,-1.5 1.217,-0.977 3.883,-3.038 5.756,-4.451 1.045,-0.788 2.08,-1.589 2.3,-1.781 0.48,-0.419 4.066,-3.213 6.7,-5.22 1.044,-0.796 2.89,-2.22 4.1,-3.165 1.211,-0.944 2.426,-1.835 2.701,-1.979 0.763,-0.403 0.793,-0.524 0.796,-3.239 0.003,-2.468 -0.01,-2.546 -0.497,-2.929 -0.445,-0.35 -0.5,-0.542 -0.5,-1.736 0,-1.188 -0.057,-1.387 -0.492,-1.729 -0.441,-0.347 -0.498,-0.559 -0.55,-2.029 -0.054,-1.53 -0.089,-1.646 -0.508,-1.706 l -0.45,-0.064 -0.007,-4.536 c -0.035,-24.292 -0.069,-22.597 0.457,-22.672 0.419,-0.06 0.454,-0.176 0.508,-1.706 0.052,-1.47 0.109,-1.682 0.55,-2.029 0.444,-0.349 0.492,-0.531 0.492,-1.884 0,-1.289 0.052,-1.512 0.37,-1.595 0.917,-0.24 0.891,-5.735 -0.027,-5.755 -0.134,-0.003 -1.053,-0.637 -2.043,-1.409 -0.99,-0.772 -2.295,-1.775 -2.9,-2.229 -0.605,-0.453 -1.388,-1.057 -1.74,-1.341 -0.352,-0.284 -0.847,-0.669 -1.1,-0.855 -0.253,-0.187 -1,-0.774 -1.66,-1.305 -0.66,-0.53 -2.055,-1.616 -3.1,-2.412 -1.045,-0.797 -2.71,-2.082 -3.7,-2.857 -1.898,-1.486 -3.502,-2.728 -6.3,-4.878 -0.935,-0.718 -1.925,-1.495 -2.2,-1.727 -0.275,-0.231 -1.23,-0.974 -2.123,-1.651 -1.686,-1.279 -2.463,-1.88 -5.468,-4.231 -0.984,-0.77 -2.432,-1.895 -3.218,-2.5 -0.786,-0.605 -2.003,-1.55 -2.705,-2.1 -0.701,-0.55 -1.876,-1.45 -2.61,-2 -0.735,-0.55 -1.481,-1.135 -1.659,-1.3 -0.178,-0.165 -0.964,-0.773 -1.748,-1.352 -0.783,-0.579 -1.535,-1.186 -1.671,-1.35 -0.438,-0.528 -2.198,-0.404 -2.198,0.155 m 72.8,0.671 c 0,0.266 0.054,0.28 0.3,0.076 0.165,-0.137 0.3,-0.283 0.3,-0.324 0,-0.042 -0.135,-0.076 -0.3,-0.076 -0.165,0 -0.3,0.146 -0.3,0.324 m -7,7 c 0,0.266 0.054,0.28 0.3,0.076 0.165,-0.137 0.3,-0.283 0.3,-0.324 0,-0.042 -0.135,-0.076 -0.3,-0.076 -0.165,0 -0.3,0.146 -0.3,0.324 m -1,1 c 0,0.266 0.054,0.28 0.3,0.076 0.165,-0.137 0.3,-0.283 0.3,-0.324 0,-0.042 -0.135,-0.076 -0.3,-0.076 -0.165,0 -0.3,0.146 -0.3,0.324 m -1.377,1.86 c -0.013,0.157 -0.167,0.444 -0.344,0.639 -0.176,0.194 -0.281,0.47 -0.234,0.611 0.13,0.392 0.805,-0.748 0.695,-1.174 -0.056,-0.216 -0.103,-0.246 -0.117,-0.076 m -6.623,9.14 c 0,0.266 0.054,0.28 0.3,0.076 0.165,-0.137 0.3,-0.283 0.3,-0.324 0,-0.042 -0.135,-0.076 -0.3,-0.076 -0.165,0 -0.3,0.146 -0.3,0.324 m -4.55,9.996 c -0.247,0.282 -0.345,0.478 -0.217,0.436 0.216,-0.072 0.907,-0.96 0.741,-0.952 -0.041,0.002 -0.276,0.234 -0.524,0.516"
       inkscape:connector-curvature="0"
       style="fill:#f9bb00;fill-rule:evenodd;stroke:none" />
    <path
       id="path2"
       d="m 66.794,163.01 c -0.12,0.226 -0.191,0.606 -0.157,0.844 0.045,0.308 0.127,0.19 0.285,-0.41 0.245,-0.929 0.207,-1.059 -0.128,-0.434 M 62.6,210.586 c 0,0.24 0.574,0.814 0.814,0.814 0.102,0 0.186,-0.105 0.186,-0.233 0,-0.129 -0.059,-0.174 -0.132,-0.102 -0.18,0.181 -0.69,-0.267 -0.554,-0.488 0.06,-0.097 0.014,-0.177 -0.102,-0.177 -0.117,0 -0.212,0.084 -0.212,0.186 m 62.797,14.87 c -0.004,0.976 -0.112,1.187 -0.796,1.548 -0.275,0.144 -1.49,1.035 -2.701,1.979 -1.21,0.945 -3.056,2.369 -4.1,3.165 -2.634,2.007 -6.22,4.801 -6.7,5.22 -0.22,0.192 -1.255,0.993 -2.3,1.781 -1.873,1.413 -4.539,3.474 -5.756,4.451 -0.343,0.275 -1.224,0.95 -1.959,1.5 -0.734,0.55 -2.311,1.784 -3.504,2.741 -1.192,0.958 -2.418,1.9 -2.724,2.094 -0.307,0.194 -1.288,0.94 -2.182,1.659 -1.779,1.43 -4.599,3.619 -11.575,8.987 -0.99,0.761 -2.006,1.572 -2.257,1.802 -0.251,0.229 -0.639,0.417 -0.861,0.417 -0.637,0 -0.481,2.47 0.162,2.563 0.365,0.052 0.445,0.212 0.496,1 0.051,0.797 0.127,0.947 0.51,1.001 0.326,0.046 0.45,0.198 0.45,0.55 0,0.382 0.104,0.486 0.489,0.486 0.442,0 0.495,0.092 0.55,0.95 0.052,0.811 0.127,0.959 0.511,1.014 0.397,0.056 0.45,0.18 0.45,1.05 0,0.918 0.034,0.986 0.5,0.986 0.436,0 0.5,0.088 0.5,0.686 0,0.641 0.41,1.314 0.8,1.314 0.095,0 0.201,0.203 0.236,0.45 0.041,0.289 0.225,0.473 0.514,0.514 0.38,0.054 0.45,0.187 0.45,0.859 0,0.582 0.134,0.93 0.5,1.295 0.275,0.275 0.5,0.628 0.5,0.784 0,0.156 0.27,0.56 0.6,0.898 0.33,0.338 0.6,0.695 0.6,0.793 0,0.099 0.174,0.235 0.387,0.303 0.213,0.068 0.416,0.321 0.45,0.563 0.04,0.28 0.227,0.464 0.513,0.505 0.328,0.047 0.45,0.198 0.45,0.559 0,0.272 0.218,0.714 0.485,0.981 0.267,0.266 0.515,0.69 0.55,0.94 0.042,0.291 0.224,0.479 0.503,0.518 0.272,0.039 0.461,0.228 0.5,0.5 0.039,0.277 0.227,0.461 0.512,0.502 0.31,0.044 0.45,0.2 0.45,0.502 0,0.264 0.18,0.518 0.45,0.637 0.327,0.143 0.477,0.415 0.55,0.997 0.08,0.64 0.19,0.813 0.55,0.864 0.326,0.046 0.45,0.198 0.45,0.55 0,0.381 0.105,0.486 0.486,0.486 0.352,0 0.504,0.124 0.55,0.45 0.041,0.289 0.225,0.473 0.514,0.514 0.35,0.05 0.45,0.194 0.45,0.65 0,0.342 0.187,0.772 0.45,1.032 0.248,0.246 0.543,0.628 0.656,0.85 0.211,0.415 0.269,0.436 1.294,0.479 0.5,0.021 0.6,0.108 0.6,0.525 0,0.4 0.1,0.5 0.5,0.5 0.465,0 0.5,0.068 0.5,0.977 0,0.82 0.066,0.994 0.415,1.085 0.228,0.059 0.464,0.295 0.523,0.523 0.07,0.266 0.271,0.415 0.562,0.415 0.291,0 0.492,0.149 0.562,0.415 0.059,0.228 0.295,0.464 0.523,0.523 0.266,0.07 0.415,0.271 0.415,0.562 0,0.291 0.149,0.492 0.415,0.562 0.228,0.059 0.462,0.29 0.52,0.512 0.066,0.252 0.304,0.426 0.635,0.465 0.311,0.036 0.53,0.185 0.53,0.361 0,0.165 0.197,0.386 0.438,0.492 0.24,0.106 0.481,0.36 0.535,0.565 0.053,0.205 0.279,0.42 0.501,0.478 0.222,0.058 0.431,0.299 0.465,0.535 0.037,0.265 0.229,0.454 0.499,0.492 0.272,0.039 0.461,0.228 0.5,0.5 0.052,0.37 0.21,0.447 1.012,0.499 0.898,0.058 0.95,0.092 0.95,0.634 0,0.695 1.156,1.976 2.255,2.497 0.41,0.194 0.745,0.472 0.745,0.618 0,0.145 0.247,0.292 0.55,0.327 0.396,0.045 0.55,0.175 0.55,0.463 0,0.259 0.154,0.422 0.438,0.462 0.272,0.039 0.461,0.228 0.5,0.5 0.039,0.274 0.227,0.461 0.503,0.501 0.242,0.034 0.491,0.222 0.552,0.416 0.062,0.195 0.224,0.368 0.36,0.384 1.248,0.152 1.547,0.298 1.547,0.76 0,0.372 0.107,0.477 0.486,0.477 0.351,0 0.504,0.124 0.55,0.448 0.037,0.258 0.233,0.48 0.463,0.524 0.22,0.042 0.598,0.291 0.841,0.552 0.242,0.262 0.61,0.476 0.817,0.476 0.206,0 0.496,0.225 0.643,0.5 0.229,0.427 0.408,0.5 1.234,0.5 0.897,0 0.966,0.036 0.966,0.5 0,0.4 0.1,0.5 0.5,0.5 0.4,0 0.5,0.1 0.5,0.5 0,0.396 0.101,0.5 0.486,0.5 0.352,0 0.504,0.124 0.55,0.45 0.055,0.385 0.203,0.459 1.023,0.511 0.805,0.052 0.989,0.14 1.145,0.55 0.102,0.269 0.291,0.489 0.418,0.489 0.128,0 0.441,0.225 0.696,0.5 0.294,0.318 0.68,0.5 1.059,0.5 0.465,0 0.609,0.098 0.659,0.45 0.051,0.36 0.224,0.47 0.864,0.55 0.582,0.073 0.854,0.223 0.997,0.55 0.165,0.376 0.354,0.45 1.15,0.45 0.883,0 0.953,0.037 0.953,0.5 0,0.377 0.105,0.5 0.427,0.5 0.235,0 0.636,0.225 0.891,0.5 0.294,0.318 0.68,0.5 1.059,0.5 0.465,0 0.609,0.098 0.659,0.45 0.059,0.413 0.183,0.455 1.514,0.509 1.381,0.056 1.45,0.081 1.45,0.538 0,0.422 0.103,0.487 0.85,0.542 0.656,0.047 0.895,0.164 1.047,0.511 0.138,0.314 0.369,0.45 0.762,0.45 0.311,0 0.513,0.083 0.451,0.184 -0.295,0.477 0.984,0.989 2.116,0.848 0.07,-0.009 0.295,0.183 0.5,0.426 l 0.374,0.442 -0.45,-0.381 c -0.247,-0.21 -0.45,-0.282 -0.45,-0.162 0,0.462 0.466,0.575 2.55,0.617 1.193,0.025 1.25,0.049 1.25,0.526 0,0.467 0.067,0.5 1,0.5 0.933,0 1,0.033 1,0.5 0,0.45 0.08,0.5 0.795,0.5 0.628,0 0.865,0.105 1.123,0.5 0.288,0.439 0.471,0.5 1.494,0.5 0.937,0 1.22,0.078 1.445,0.399 0.153,0.219 0.338,0.339 0.411,0.266 0.073,-0.072 0.132,-0.027 0.132,0.102 0,0.155 0.482,0.235 1.45,0.239 1.422,0.007 2.15,0.266 2.15,0.766 0,0.14 0.382,0.228 0.987,0.228 0.78,0 1.01,0.076 1.102,0.367 0.129,0.406 0.13,0.406 1.775,0.561 0.744,0.071 1.203,0.214 1.273,0.397 0.061,0.157 0.302,0.388 0.537,0.513 0.399,0.213 0.407,0.203 0.129,-0.155 -0.286,-0.37 -0.282,-0.371 0.116,-0.033 0.34,0.288 0.811,0.35 2.674,0.35 2.155,0 2.283,0.023 2.725,0.5 0.42,0.454 0.612,0.5 2.079,0.5 1.265,0 1.641,0.066 1.733,0.306 0.064,0.168 0.309,0.407 0.544,0.532 0.399,0.213 0.407,0.203 0.129,-0.155 -0.285,-0.368 -0.281,-0.37 0.107,-0.041 0.306,0.259 0.864,0.356 2.297,0.4 1.087,0.033 1.894,0.143 1.896,0.258 0.01,0.628 0.354,0.7 3.359,0.706 2.858,0.006 4.045,0.22 3.614,0.651 -0.303,0.304 2.277,0.351 16.37,0.299 l 15.146,-0.056 0.316,-0.45 c 0.303,-0.433 0.428,-0.45 3.379,-0.45 2.937,0 3.864,-0.182 3.383,-0.664 -0.233,-0.232 0.411,-0.322 2.73,-0.379 1.66,-0.041 2.307,-0.127 2.325,-0.307 0.014,-0.137 0.036,-0.337 0.05,-0.443 0.014,-0.106 0.903,-0.218 1.975,-0.25 1.85,-0.054 1.953,-0.08 2.014,-0.507 0.063,-0.444 0.105,-0.45 3.063,-0.45 2.855,0 3.773,-0.151 3.773,-0.619 0,-0.112 -0.104,-0.14 -0.231,-0.062 -0.128,0.079 -0.177,0.056 -0.11,-0.052 0.066,-0.107 0.57,-0.215 1.12,-0.24 1.648,-0.075 2.221,-0.248 2.221,-0.67 0,-0.12 -0.202,-0.048 -0.45,0.162 l -0.45,0.381 0.374,-0.442 c 0.205,-0.243 0.43,-0.435 0.5,-0.426 1.26,0.157 2.226,-0.065 2.226,-0.513 0,-0.469 0.045,-0.482 1.918,-0.55 1.687,-0.061 1.961,-0.122 2.273,-0.508 0.28,-0.346 0.607,-0.452 1.532,-0.5 1.046,-0.054 1.184,-0.111 1.241,-0.511 0.054,-0.38 0.187,-0.45 0.859,-0.45 0.576,0 0.929,-0.134 1.282,-0.487 0.268,-0.268 0.782,-0.515 1.141,-0.55 0.502,-0.048 0.669,-0.167 0.718,-0.513 0.055,-0.387 2.423,-0.729 2.886,-0.416 0.14,0.094 0.95,-0.479 0.95,-0.672 0,-0.123 -0.203,-0.053 -0.45,0.157 -0.449,0.38 -0.449,0.38 -0.103,-0.031 0.245,-0.292 0.625,-0.427 1.293,-0.462 0.985,-0.051 1.46,-0.291 1.46,-0.737 0,-0.143 0.203,-0.29 0.45,-0.325 0.289,-0.041 0.473,-0.225 0.514,-0.514 0.056,-0.397 0.18,-0.45 1.05,-0.45 0.914,0 0.986,-0.036 0.986,-0.491 0,-0.467 0.066,-0.494 1.35,-0.55 1.179,-0.051 1.375,-0.116 1.547,-0.509 0.138,-0.313 0.369,-0.45 0.76,-0.45 0.335,0 0.74,-0.192 1.003,-0.476 0.243,-0.261 0.621,-0.51 0.841,-0.552 0.226,-0.043 0.426,-0.265 0.462,-0.514 0.052,-0.368 0.21,-0.447 1,-0.498 0.79,-0.051 0.947,-0.129 1,-0.5 0.052,-0.37 0.209,-0.449 1,-0.5 0.797,-0.051 0.947,-0.127 1.001,-0.51 0.046,-0.326 0.198,-0.45 0.55,-0.45 0.271,0 0.486,-0.118 0.486,-0.266 0,-0.147 0.225,-0.387 0.5,-0.534 0.314,-0.168 0.5,-0.441 0.5,-0.734 0,-0.427 0.085,-0.466 1.013,-0.466 1.042,0 1.787,-0.258 1.787,-0.619 0,-0.112 -0.112,-0.14 -0.25,-0.061 -0.145,0.084 -0.18,0.068 -0.083,-0.038 0.091,-0.1 0.249,-0.193 0.35,-0.207 0.101,-0.014 0.228,-0.047 0.283,-0.075 0.055,-0.027 0.213,-0.061 0.35,-0.075 0.138,-0.014 0.337,-0.224 0.444,-0.467 0.107,-0.243 0.377,-0.468 0.6,-0.5 0.246,-0.035 0.431,-0.236 0.47,-0.508 0.05,-0.352 0.194,-0.45 0.659,-0.45 0.371,0 0.763,-0.18 1.037,-0.476 0.243,-0.261 0.621,-0.51 0.841,-0.552 0.23,-0.044 0.426,-0.266 0.463,-0.524 0.046,-0.324 0.199,-0.448 0.55,-0.448 0.385,0 0.486,-0.104 0.486,-0.5 0,-0.386 0.103,-0.5 0.453,-0.5 0.277,0 0.529,-0.174 0.65,-0.45 0.128,-0.293 0.407,-0.474 0.797,-0.518 0.688,-0.077 1.149,-0.391 0.98,-0.665 -0.064,-0.103 0.162,-0.293 0.502,-0.421 0.359,-0.136 0.618,-0.377 0.618,-0.576 0,-0.203 0.184,-0.368 0.45,-0.406 0.289,-0.041 0.473,-0.225 0.514,-0.514 0.045,-0.319 0.199,-0.45 0.527,-0.45 0.3,0 0.5,-0.146 0.571,-0.415 0.059,-0.228 0.273,-0.458 0.473,-0.51 0.376,-0.098 0.967,-1.075 0.65,-1.075 -0.098,0 -0.234,-0.225 -0.303,-0.5 -0.069,-0.275 -0.208,-0.5 -0.309,-0.5 -0.102,0 -0.474,-0.275 -0.829,-0.611 -0.354,-0.336 -1.229,-1.059 -1.944,-1.607 -1.567,-1.2 -3.639,-2.824 -5.857,-4.59 -0.904,-0.719 -2.138,-1.663 -2.743,-2.097 -0.605,-0.434 -1.83,-1.376 -2.723,-2.092 -0.892,-0.717 -2.276,-1.798 -3.075,-2.403 -1.436,-1.087 -2.929,-2.249 -5.143,-4 -0.625,-0.495 -1.817,-1.413 -2.648,-2.04 -1.505,-1.135 -2.456,-1.88 -2.885,-2.26 -0.124,-0.11 -0.766,-0.603 -1.426,-1.096 -0.66,-0.492 -1.65,-1.268 -2.2,-1.722 -0.55,-0.455 -1.99,-1.573 -3.2,-2.485 -1.21,-0.913 -2.695,-2.053 -3.3,-2.535 -3.492,-2.78 -4.86,-3.846 -5.855,-4.562 -0.611,-0.44 -1.167,-1.007 -1.235,-1.26 -0.182,-0.683 -2.175,-0.586 -2.274,0.11 -0.063,0.445 -0.138,0.471 -1.536,0.537 -0.254,0.012 -0.423,0.182 -0.464,0.466 -0.052,0.361 -0.193,0.447 -0.736,0.447 -0.639,0 -1.3,0.414 -1.3,0.814 0,0.102 -0.204,0.186 -0.453,0.186 -0.277,0 -0.529,0.174 -0.65,0.45 -0.134,0.306 -0.421,0.482 -0.897,0.55 -0.476,0.068 -0.763,0.244 -0.897,0.55 -0.172,0.391 -0.348,0.45 -1.336,0.45 -1.072,0 -1.599,0.228 -1.799,0.78 -0.037,0.103 -0.428,0.22 -0.868,0.26 -0.585,0.054 -0.852,0.191 -0.993,0.508 -0.144,0.323 -0.4,0.448 -1,0.493 -0.612,0.045 -0.855,0.168 -1.004,0.509 -0.179,0.408 -0.335,0.45 -1.664,0.45 -1.469,0 -2.239,0.219 -2.239,0.638 0,0.123 0.203,0.053 0.45,-0.157 l 0.45,-0.381 -0.354,0.42 c -0.291,0.345 -0.608,0.427 -1.793,0.462 -1.449,0.042 -1.953,0.234 -1.953,0.742 0,0.198 -0.311,0.283 -1.1,0.301 -1.591,0.036 -1.582,0.033 -1.797,0.525 -0.179,0.407 -0.336,0.45 -1.65,0.45 -1.417,0 -1.453,0.013 -1.453,0.5 v 0.5 l -6.15,0.003 c -5.587,0.003 -6.719,0.083 -6.667,0.469 0.009,0.071 0.017,0.218 0.017,0.328 0,0.489 -9.286,0.244 -9.503,-0.25 -0.196,-0.448 -0.215,-0.45 -5.534,-0.503 l -5.336,-0.053 -0.064,-0.447 c -0.058,-0.413 -0.182,-0.451 -1.62,-0.506 -0.856,-0.032 -1.514,-0.126 -1.463,-0.209 0.264,-0.426 -0.344,-0.738 -1.622,-0.832 -0.747,-0.055 -1.359,-0.19 -1.361,-0.3 -0.008,-0.495 -0.381,-0.7 -1.271,-0.7 -0.7,0 -1.074,-0.115 -1.418,-0.436 -0.524,-0.487 -0.707,-0.524 -2.758,-0.547 -1.409,-0.017 -1.45,-0.031 -1.45,-0.517 0,-0.467 -0.067,-0.5 -1,-0.5 -0.927,0 -1,-0.036 -1,-0.489 0,-0.431 -0.099,-0.495 -0.85,-0.55 -0.656,-0.047 -0.895,-0.164 -1.047,-0.511 -0.162,-0.369 -0.357,-0.45 -1.077,-0.45 -0.682,0 -0.985,-0.113 -1.344,-0.5 -0.298,-0.323 -0.679,-0.5 -1.072,-0.5 -0.336,0 -0.61,-0.084 -0.61,-0.186 0,-0.343 -0.625,-0.814 -1.08,-0.814 -0.278,0 -0.556,-0.193 -0.72,-0.5 -0.168,-0.314 -0.441,-0.5 -0.734,-0.5 -0.256,0 -0.466,-0.084 -0.466,-0.186 0,-0.4 -0.661,-0.814 -1.301,-0.814 -0.496,0 -0.705,-0.105 -0.799,-0.4 -0.07,-0.22 -0.211,-0.411 -0.313,-0.425 -0.103,-0.014 -0.277,-0.047 -0.387,-0.075 -0.11,-0.027 -0.425,-0.061 -0.7,-0.075 -0.393,-0.02 -0.5,-0.132 -0.5,-0.525 0,-0.396 -0.101,-0.5 -0.486,-0.5 -0.352,0 -0.504,-0.124 -0.55,-0.45 -0.051,-0.358 -0.212,-0.462 -0.786,-0.51 -0.525,-0.044 -0.793,-0.194 -0.984,-0.55 -0.15,-0.281 -0.441,-0.49 -0.68,-0.49 -0.243,0 -0.502,-0.189 -0.617,-0.45 -0.108,-0.247 -0.302,-0.45 -0.43,-0.45 -0.299,0 -0.567,-0.268 -0.567,-0.567 0,-0.128 -0.203,-0.322 -0.45,-0.43 -0.247,-0.109 -0.45,-0.26 -0.45,-0.336 0,-0.353 -0.692,-0.767 -1.282,-0.767 -0.503,0 -0.706,-0.115 -0.882,-0.5 -0.125,-0.275 -0.364,-0.5 -0.532,-0.5 -0.185,0 -0.304,-0.182 -0.304,-0.466 0,-0.293 -0.186,-0.566 -0.5,-0.734 -0.275,-0.147 -0.5,-0.381 -0.5,-0.521 0,-0.139 -0.247,-0.281 -0.55,-0.316 -0.327,-0.037 -0.55,-0.184 -0.55,-0.363 0,-0.165 -0.199,-0.387 -0.442,-0.494 -0.243,-0.107 -0.468,-0.377 -0.5,-0.6 -0.035,-0.246 -0.236,-0.431 -0.508,-0.47 -0.326,-0.046 -0.45,-0.198 -0.45,-0.55 0,-0.381 -0.105,-0.486 -0.486,-0.486 -0.352,0 -0.504,-0.124 -0.55,-0.45 -0.041,-0.285 -0.225,-0.473 -0.502,-0.512 -0.272,-0.039 -0.461,-0.228 -0.5,-0.5 -0.039,-0.277 -0.227,-0.461 -0.512,-0.502 -0.315,-0.045 -0.45,-0.199 -0.45,-0.516 0,-0.278 -0.193,-0.556 -0.5,-0.72 -0.275,-0.147 -0.5,-0.387 -0.5,-0.534 0,-0.146 -0.12,-0.266 -0.266,-0.266 -0.147,0 -0.387,-0.225 -0.534,-0.5 -0.168,-0.314 -0.441,-0.5 -0.734,-0.5 -0.41,0 -0.466,-0.095 -0.466,-0.8 0,-0.476 -0.094,-0.8 -0.233,-0.8 -0.129,0 -0.186,-0.048 -0.127,-0.107 0.173,-0.173 -0.971,-1.293 -1.32,-1.293 -0.208,0 -0.32,-0.175 -0.32,-0.5 0,-0.4 -0.1,-0.5 -0.5,-0.5 -0.424,0 -0.5,-0.093 -0.5,-0.61 0,-0.393 -0.177,-0.774 -0.5,-1.072 -0.275,-0.255 -0.5,-0.656 -0.5,-0.891 0,-0.235 -0.12,-0.427 -0.266,-0.427 -0.312,0 -0.693,-0.688 -0.776,-1.4 -0.04,-0.344 -0.199,-0.52 -0.508,-0.564 -0.326,-0.046 -0.45,-0.198 -0.45,-0.55 0,-0.279 -0.117,-0.486 -0.276,-0.486 -0.414,0 -0.678,-0.42 -0.755,-1.2 -0.044,-0.451 -0.211,-0.773 -0.469,-0.905 -0.286,-0.146 -0.418,-0.446 -0.461,-1.05 -0.054,-0.74 -0.121,-0.845 -0.54,-0.845 -0.427,0 -0.483,-0.099 -0.538,-0.95 -0.052,-0.811 -0.127,-0.959 -0.511,-1.014 -0.352,-0.05 -0.45,-0.194 -0.45,-0.659 0,-0.379 -0.182,-0.765 -0.5,-1.059 -0.418,-0.388 -0.5,-0.647 -0.5,-1.577 0,-1.09 -0.394,-1.892 -0.805,-1.638 -0.096,0.059 -0.201,-0.367 -0.234,-0.948 -0.055,-0.952 -0.104,-1.051 -0.501,-1.009 -0.396,0.041 -0.445,-0.058 -0.5,-1 -0.052,-0.911 -0.118,-1.054 -0.51,-1.11 -0.398,-0.056 -0.45,-0.179 -0.45,-1.063 0,-1.085 -0.217,-1.66 -0.694,-1.843 -0.245,-0.094 -0.307,0.052 -0.309,0.726 M 67.6,240.34 c 0,0.267 0.55,0.977 0.666,0.86 0.055,-0.055 -0.073,-0.312 -0.283,-0.572 -0.211,-0.26 -0.383,-0.39 -0.383,-0.288 m 192.206,19.553 c -0.134,0.162 -0.197,0.409 -0.141,0.55 0.064,0.159 0.109,0.121 0.119,-0.099 0.009,-0.196 0.218,-0.438 0.466,-0.538 0.305,-0.122 0.345,-0.185 0.124,-0.193 -0.179,-0.007 -0.435,0.119 -0.568,0.28"
       inkscape:connector-curvature="0"
       style="fill:#32a753;fill-rule:evenodd;stroke:none" />
    <path
       id="path3"
       d="m 201.733,173.733 c -0.073,0.074 -0.133,12.629 -0.133,27.9 V 229.4 h 37 37 v 1.364 c 0,1.206 -0.058,1.414 -0.5,1.799 -0.479,0.416 -0.5,0.53 -0.5,2.736 v 2.301 h -0.5 c -0.446,0 -0.5,0.082 -0.5,0.764 0,0.566 -0.13,0.877 -0.5,1.199 -0.375,0.326 -0.5,0.631 -0.5,1.222 0,0.664 -0.07,0.797 -0.45,0.851 -0.354,0.05 -0.464,0.214 -0.513,0.764 -0.036,0.402 -0.254,0.88 -0.511,1.122 -0.326,0.307 -0.462,0.69 -0.498,1.4 -0.028,0.538 -0.149,1.068 -0.269,1.178 -0.152,0.14 -0.174,0.11 -0.073,-0.1 0.079,-0.165 -0.042,-0.088 -0.271,0.172 -0.228,0.26 -0.415,0.681 -0.415,0.936 0,0.329 -0.131,0.483 -0.45,0.528 -0.306,0.044 -0.471,0.224 -0.517,0.564 -0.037,0.275 -0.268,0.725 -0.513,1 -0.565,0.634 -1.52,2.521 -1.52,3.005 0,0.229 -0.17,0.391 -0.45,0.431 -0.282,0.04 -0.473,0.225 -0.511,0.494 -0.034,0.236 -0.236,0.475 -0.449,0.531 -0.213,0.055 -0.449,0.267 -0.524,0.47 -0.075,0.203 -0.345,0.567 -0.601,0.809 -0.284,0.269 -0.465,0.673 -0.465,1.037 0,0.465 -0.098,0.609 -0.45,0.659 -0.285,0.041 -0.473,0.225 -0.512,0.502 -0.039,0.272 -0.228,0.461 -0.5,0.5 -0.273,0.039 -0.461,0.227 -0.5,0.5 -0.039,0.272 -0.228,0.461 -0.5,0.5 -0.305,0.043 -0.457,0.223 -0.499,0.592 -0.038,0.323 -0.213,0.569 -0.45,0.631 -0.214,0.056 -0.389,0.225 -0.389,0.376 0,0.152 -0.27,0.377 -0.6,0.502 -0.33,0.124 -0.6,0.363 -0.6,0.53 0,0.167 -0.203,0.332 -0.45,0.367 -0.282,0.04 -0.473,0.225 -0.511,0.494 -0.034,0.236 -0.243,0.477 -0.465,0.535 -0.222,0.058 -0.45,0.284 -0.507,0.502 -0.057,0.218 -0.282,0.443 -0.5,0.5 -0.218,0.057 -0.446,0.29 -0.505,0.518 -0.07,0.266 -0.271,0.415 -0.562,0.415 -0.284,0 -0.492,0.148 -0.557,0.398 -0.058,0.218 -0.316,0.48 -0.574,0.581 -0.258,0.101 -0.87,0.597 -1.361,1.103 -0.588,0.606 -1.06,0.918 -1.389,0.918 -1.985,0 -2.024,2.277 -0.064,3.7 0.987,0.717 2.411,1.828 5.845,4.562 0.605,0.482 2.09,1.622 3.3,2.535 1.21,0.912 2.65,2.03 3.2,2.485 0.55,0.454 1.54,1.23 2.2,1.722 0.66,0.493 1.302,0.986 1.426,1.096 0.429,0.38 1.38,1.125 2.885,2.26 0.831,0.627 2.023,1.545 2.648,2.04 2.214,1.751 3.707,2.913 5.143,4 0.799,0.605 2.183,1.686 3.075,2.403 0.893,0.716 2.118,1.658 2.723,2.092 0.605,0.434 1.839,1.378 2.743,2.097 2.218,1.766 4.29,3.39 5.857,4.59 0.715,0.548 1.59,1.271 1.944,1.607 0.355,0.336 0.727,0.611 0.829,0.611 0.101,0 0.24,0.225 0.309,0.5 0.255,1.014 2.118,0.081 2.118,-1.061 0,-0.324 0.12,-0.439 0.457,-0.439 0.592,0 2.543,-1.951 2.543,-2.542 0,-0.294 0.143,-0.45 0.45,-0.494 0.289,-0.041 0.473,-0.225 0.514,-0.514 0.044,-0.314 0.199,-0.45 0.512,-0.45 0.465,0 1.524,-0.943 1.524,-1.356 0,-0.129 0.225,-0.382 0.5,-0.562 0.302,-0.198 0.5,-0.517 0.5,-0.805 0,-0.262 0.068,-0.466 0.15,-0.453 0.41,0.064 0.634,-0.059 0.746,-0.411 0.068,-0.213 0.321,-0.416 0.563,-0.45 0.264,-0.038 0.464,-0.227 0.499,-0.469 0.032,-0.223 0.257,-0.493 0.5,-0.6 0.298,-0.131 0.475,-0.423 0.542,-0.894 0.068,-0.476 0.244,-0.763 0.55,-0.897 0.27,-0.119 0.45,-0.373 0.45,-0.637 0,-0.302 0.14,-0.458 0.45,-0.502 0.285,-0.041 0.473,-0.225 0.512,-0.502 0.039,-0.272 0.228,-0.461 0.498,-0.5 0.247,-0.035 0.469,-0.235 0.512,-0.461 0.042,-0.22 0.291,-0.598 0.552,-0.841 0.296,-0.274 0.476,-0.666 0.476,-1.037 0,-0.465 0.098,-0.609 0.45,-0.659 0.3,-0.043 0.473,-0.225 0.518,-0.547 0.038,-0.265 0.263,-0.654 0.5,-0.865 0.238,-0.21 0.297,-0.324 0.132,-0.252 -0.267,0.115 -0.267,0.099 0,-0.144 0.165,-0.151 0.426,-0.405 0.579,-0.565 0.244,-0.254 0.258,-0.253 0.112,0.009 -0.143,0.256 -0.12,0.261 0.163,0.032 0.182,-0.147 0.389,-0.462 0.461,-0.7 0.072,-0.238 0.293,-0.612 0.492,-0.832 0.198,-0.22 0.44,-0.715 0.536,-1.1 0.105,-0.417 0.355,-0.78 0.617,-0.897 0.244,-0.11 0.44,-0.379 0.44,-0.603 0,-0.228 0.196,-0.491 0.45,-0.603 0.248,-0.108 0.477,-0.388 0.511,-0.622 0.033,-0.234 0.281,-0.632 0.55,-0.885 0.386,-0.363 0.489,-0.66 0.489,-1.411 0,-0.834 0.055,-0.959 0.45,-1.015 0.384,-0.055 0.459,-0.203 0.511,-1.014 0.055,-0.858 0.108,-0.95 0.55,-0.95 0.298,0 0.489,-0.115 0.489,-0.295 0,-0.163 0.225,-0.443 0.5,-0.623 0.361,-0.237 0.5,-0.506 0.5,-0.969 0,-0.434 0.161,-0.781 0.5,-1.076 0.378,-0.328 0.5,-0.63 0.5,-1.236 0,-0.44 0.084,-0.801 0.186,-0.801 0.392,0 0.814,-0.656 0.814,-1.267 0,-0.47 0.119,-0.69 0.45,-0.836 0.308,-0.135 0.47,-0.401 0.512,-0.844 0.038,-0.389 0.238,-0.77 0.5,-0.954 0.362,-0.253 0.455,-0.557 0.538,-1.752 0.055,-0.797 0.19,-1.433 0.3,-1.416 0.427,0.066 0.7,-0.436 0.7,-1.284 0,-0.381 0.14,-0.613 0.45,-0.75 0.337,-0.148 0.466,-0.395 0.514,-0.987 0.043,-0.523 0.23,-0.944 0.55,-1.241 0.317,-0.293 0.486,-0.67 0.486,-1.081 0,-0.381 0.198,-0.866 0.5,-1.224 0.43,-0.511 0.5,-0.793 0.5,-2 0,-1.208 0.07,-1.49 0.5,-2 0.354,-0.421 0.5,-0.832 0.5,-1.406 0,-0.609 0.125,-0.928 0.5,-1.276 0.409,-0.379 0.5,-0.651 0.5,-1.5 0,-0.848 0.091,-1.12 0.5,-1.5 0.436,-0.403 0.5,-0.632 0.5,-1.781 0,-1.03 0.093,-1.443 0.426,-1.893 0.358,-0.484 0.442,-0.943 0.528,-2.892 0.076,-1.738 0.168,-2.316 0.367,-2.316 0.457,0 0.679,-0.723 0.679,-2.214 0,-1.279 0.056,-1.492 0.5,-1.904 0.47,-0.435 0.5,-0.584 0.5,-2.5 0,-1.915 0.03,-2.064 0.5,-2.5 l 0.5,-0.463 v -6.721 c 0,-4.037 0.073,-6.676 0.184,-6.608 0.787,0.487 0.821,-0.046 0.768,-12.056 L 337.3,191.7 l -0.45,-0.064 -0.45,-0.064 -0.026,-6.136 c -0.032,-7.652 -0.003,-7.24 -0.534,-7.592 -0.397,-0.264 -0.44,-0.462 -0.44,-2.028 0,-1.084 -0.09,-1.826 -0.24,-1.976 -0.262,-0.262 -133.165,-0.368 -133.427,-0.107"
       inkscape:connector-curvature="0"
       style="fill:#3e82f1;fill-rule:evenodd;stroke:none" />
  </g>
</svg>
