<svg id="svg" version="1.1" width="400" height="400" xmlns="http://www.w3.org/2000/svg" xmlns:xlink="http://www.w3.org/1999/xlink" style="display: block;"><g id="svgg"><path id="path0" d="M179.000 0.615 C 48.312 16.333,-32.041 144.997,11.702 268.500 C 17.272 284.227,35.233 317.118,40.918 322.000 C 41.238 322.275,43.266 324.750,45.424 327.500 C 50.479 333.940,66.060 349.521,72.500 354.576 C 75.250 356.734,77.725 358.762,78.000 359.082 C 78.275 359.402,82.100 362.163,86.500 365.216 C 152.577 411.075,244.882 411.601,311.564 366.498 C 395.500 309.725,424.146 200.351,378.803 109.768 C 352.155 56.533,298.044 14.522,243.000 4.333 C 241.625 4.079,237.125 3.182,233.000 2.341 C 225.730 0.859,187.212 -0.372,179.000 0.615 M268.793 84.946 C 307.192 85.824,306.731 85.767,301.531 88.981 C 292.775 94.392,289.359 105.902,293.879 114.763 C 297.742 122.336,296.578 200.643,292.559 203.581 C 289.386 205.900,283.288 205.378,280.455 202.545 L 278.000 200.091 278.000 171.968 C 278.000 142.194,279.351 121.177,281.537 116.936 C 283.795 112.557,284.623 101.725,282.668 102.150 C 281.781 102.342,273.888 108.214,265.128 115.197 L 249.201 127.894 251.136 135.197 C 257.020 157.410,252.401 171.112,232.997 189.003 C 216.641 204.083,216.814 205.420,237.784 226.000 C 257.531 245.380,260.788 252.151,259.765 271.695 C 258.885 288.522,250.511 300.061,232.867 308.762 C 211.273 319.410,176.193 318.684,151.424 307.077 C 104.915 285.283,131.617 232.986,190.710 230.137 L 203.920 229.500 201.017 225.184 C 196.428 218.362,195.372 211.767,197.745 204.750 L 199.690 199.000 194.528 199.000 C 167.664 199.000,145.000 178.312,145.000 153.790 L 145.000 150.000 121.750 149.930 C 92.829 149.842,93.114 149.938,101.753 143.258 C 105.464 140.388,123.125 125.659,141.000 110.527 L 173.500 83.013 203.500 83.576 C 220.000 83.886,249.382 84.502,268.793 84.946 M186.585 115.242 C 165.367 120.851,163.470 162.988,183.553 182.595 C 200.502 199.143,220.482 196.357,227.535 176.464 C 238.564 145.357,213.637 108.090,186.585 115.242 M189.840 238.013 C 140.065 245.859,141.788 299.670,192.000 305.447 C 221.839 308.880,244.000 294.872,244.000 272.577 C 244.000 255.912,224.223 238.831,203.500 237.597 C 199.100 237.336,192.953 237.523,189.840 238.013 " stroke="none" fill="#000000" fill-rule="evenodd"></path></g></svg>