<?xml version="1.0" encoding="UTF-8" standalone="no"?>
<svg
   xmlns:dc="http://purl.org/dc/elements/1.1/"
   xmlns:cc="http://creativecommons.org/ns#"
   xmlns:rdf="http://www.w3.org/1999/02/22-rdf-syntax-ns#"
   xmlns:svg="http://www.w3.org/2000/svg"
   xmlns="http://www.w3.org/2000/svg"
   xmlns:sodipodi="http://sodipodi.sourceforge.net/DTD/sodipodi-0.dtd"
   xmlns:inkscape="http://www.inkscape.org/namespaces/inkscape"
   id="svg"
   version="1.1"
   width="395.35934"
   height="382.25964"
   style="display:block"
   inkscape:version="0.91 r13725"
   sodipodi:docname="ifop.svg">
  <metadata
     id="metadata10">
    <rdf:RDF>
      <cc:Work
         rdf:about="">
        <dc:format>image/svg+xml</dc:format>
        <dc:type
           rdf:resource="http://purl.org/dc/dcmitype/StillImage" />
        <dc:title></dc:title>
      </cc:Work>
    </rdf:RDF>
  </metadata>
  <defs
     id="defs8" />
  <sodipodi:namedview
     pagecolor="#ffffff"
     bordercolor="#666666"
     borderopacity="1"
     objecttolerance="10"
     gridtolerance="10"
     guidetolerance="10"
     inkscape:pageopacity="0"
     inkscape:pageshadow="2"
     inkscape:window-width="640"
     inkscape:window-height="480"
     id="namedview6"
     showgrid="false"
     fit-margin-top="0"
     fit-margin-left="0"
     fit-margin-right="0"
     fit-margin-bottom="0"
     inkscape:zoom="0.118"
     inkscape:cx="1023.333"
     inkscape:cy="-612.48613"
     inkscape:window-x="0"
     inkscape:window-y="0"
     inkscape:window-maximized="0"
     inkscape:current-layer="svg" />
  <g
     id="svgg"
     transform="translate(-4.667,-5.2542226)">
    <path
       id="path0"
       d="m 183.755,5.384 c -0.535,0.033 -4.344,0.154 -8.463,0.27 -4.12,0.116 -8.716,0.285 -10.214,0.375 -1.498,0.091 -4.312,0.255 -6.252,0.366 -1.94,0.111 -3.735,0.25 -3.988,0.31 -0.253,0.061 -1.642,0.206 -3.087,0.323 -5.717,0.464 -10.147,0.896 -10.506,1.027 -0.16,0.058 -1.167,0.201 -2.237,0.317 -1.07,0.116 -2.602,0.296 -3.405,0.4 -0.802,0.104 -2.028,0.263 -2.724,0.353 -2.484,0.32 -4.386,0.63 -4.975,0.809 -0.328,0.101 -0.935,0.183 -1.348,0.183 -0.412,0 -1.019,0.081 -1.348,0.18 -0.328,0.099 -1.473,0.325 -2.543,0.502 -1.07,0.178 -2.295,0.399 -2.723,0.492 -0.428,0.093 -1.085,0.22 -1.46,0.283 -1.188,0.199 -2.388,0.437 -3.891,0.774 -0.802,0.179 -1.853,0.402 -2.334,0.494 -0.482,0.093 -1.226,0.254 -1.654,0.358 -1.861,0.452 -3.558,0.852 -4.28,1.008 -1.866,0.403 -2.374,0.525 -3.016,0.727 -0.374,0.117 -1.031,0.3 -1.459,0.405 -1.542,0.38 -2.542,0.665 -3.262,0.928 -0.404,0.148 -0.908,0.269 -1.122,0.269 -0.213,0 -0.54,0.079 -0.725,0.176 -0.186,0.096 -0.732,0.281 -1.214,0.411 -1.066,0.288 -2.681,0.777 -3.21,0.971 -0.214,0.079 -1.44,0.471 -2.724,0.872 -1.284,0.4 -2.509,0.806 -2.723,0.902 -0.214,0.096 -1.352,0.516 -2.529,0.933 -3.373,1.196 -3.457,1.227 -4.327,1.604 -0.454,0.196 -0.878,0.357 -0.944,0.357 -0.065,0 -0.438,0.14 -0.828,0.311 -0.391,0.172 -0.886,0.382 -1.1,0.467 -0.214,0.085 -0.739,0.301 -1.167,0.48 -0.428,0.178 -0.954,0.397 -1.168,0.486 -1.494,0.623 -7.146,3.24 -9.046,4.189 -1.697,0.848 -4.985,2.605 -7.141,3.817 -0.39,0.219 -1.177,0.697 -1.749,1.063 -0.572,0.366 -1.077,0.665 -1.123,0.665 -0.602,0 -10.303,6.736 -13.988,9.712 -1.269,1.025 -2.539,2.036 -2.821,2.246 -0.282,0.21 -0.994,0.831 -1.583,1.379 -0.588,0.549 -1.508,1.379 -2.043,1.846 -1.134,0.991 -7.793,7.679 -8.365,8.403 -0.214,0.271 -0.844,1.006 -1.4,1.634 -0.863,0.975 -2.933,3.436 -3.414,4.06 -0.083,0.107 -0.597,0.764 -1.144,1.46 -1.149,1.462 -5.813,8.102 -5.813,8.275 0,0.064 -0.219,0.403 -0.486,0.754 -0.268,0.351 -0.487,0.739 -0.487,0.862 0,0.124 -0.087,0.225 -0.194,0.225 -0.107,0 -0.195,0.094 -0.195,0.208 0,0.114 -0.219,0.494 -0.486,0.845 -0.268,0.351 -0.487,0.697 -0.487,0.769 0,0.072 -0.223,0.486 -0.496,0.919 -0.581,0.92 -1.032,1.712 -2.037,3.582 -0.402,0.749 -0.928,1.727 -1.169,2.172 -0.77,1.426 -0.958,1.379 5.878,1.481 3.351,0.05 11.418,0.202 17.926,0.338 10.085,0.21 11.871,0.207 12.085,-0.024 0.138,-0.149 0.624,-0.971 1.08,-1.827 0.456,-0.856 0.993,-1.788 1.194,-2.073 0.2,-0.284 0.364,-0.576 0.364,-0.65 0,-0.125 2.283,-3.384 2.522,-3.6 0.059,-0.053 0.365,-0.447 0.679,-0.875 0.315,-0.428 0.622,-0.822 0.681,-0.876 0.06,-0.053 0.586,-0.666 1.17,-1.361 1.765,-2.104 6.112,-6.363 8.373,-8.203 0.481,-0.391 1.232,-1.004 1.667,-1.362 0.436,-0.357 1.038,-0.825 1.338,-1.039 0.3,-0.214 0.788,-0.586 1.085,-0.827 0.581,-0.473 6.02,-4.134 6.141,-4.134 0.04,0 0.551,-0.306 1.137,-0.681 0.585,-0.374 1.121,-0.681 1.189,-0.681 0.069,0 0.358,-0.164 0.642,-0.365 0.425,-0.301 2.447,-1.419 3.887,-2.149 1.211,-0.615 2.511,-1.272 2.758,-1.395 0.773,-0.385 3.548,-1.621 5.01,-2.232 1.765,-0.738 2.018,-0.84 3.842,-1.547 0.749,-0.291 1.537,-0.599 1.751,-0.684 1.263,-0.508 3.156,-1.161 3.363,-1.161 0.133,0 0.393,-0.078 0.579,-0.174 0.449,-0.231 5.295,-1.747 7.002,-2.191 0.347,-0.09 0.96,-0.257 1.361,-0.371 0.402,-0.114 1.036,-0.278 1.411,-0.365 0.374,-0.086 1.358,-0.343 2.185,-0.57 0.827,-0.228 1.726,-0.414 1.997,-0.414 0.271,0 0.644,-0.08 0.83,-0.177 0.186,-0.098 1.082,-0.323 1.992,-0.501 0.909,-0.179 1.96,-0.402 2.334,-0.496 0.375,-0.095 0.988,-0.219 1.362,-0.277 1.955,-0.3 3.173,-0.507 4.67,-0.795 0.909,-0.175 2.266,-0.395 3.015,-0.488 0.749,-0.094 2.106,-0.263 3.016,-0.376 0.909,-0.114 1.787,-0.248 1.951,-0.299 0.271,-0.084 1.358,-0.198 6.512,-0.684 0.963,-0.091 3.239,-0.255 5.058,-0.364 1.819,-0.11 4.402,-0.3 5.739,-0.424 3.242,-0.299 23.549,-0.297 26.946,0.002 1.391,0.123 4.324,0.316 6.517,0.428 6.023,0.31 13.653,0.872 14.198,1.045 0.183,0.058 1.332,0.192 2.552,0.298 3.592,0.311 9.053,0.921 9.515,1.063 0.161,0.05 1.036,0.186 1.946,0.303 3.403,0.438 4.138,0.549 9.144,1.382 0.588,0.098 1.551,0.253 2.14,0.344 1.044,0.162 1.558,0.259 4.766,0.9 2.209,0.441 3.146,0.623 4.457,0.864 0.632,0.117 1.217,0.254 1.3,0.306 0.162,0.1 1.483,0.401 2.901,0.661 0.481,0.089 1.751,0.396 2.821,0.683 1.07,0.288 2.295,0.601 2.723,0.697 0.428,0.096 1.26,0.314 1.849,0.485 1.973,0.573 2.428,0.698 3.113,0.855 0.621,0.143 1.22,0.327 4.474,1.379 0.589,0.19 1.596,0.5 2.238,0.687 0.642,0.188 1.25,0.416 1.352,0.506 0.101,0.09 0.381,0.164 0.621,0.164 0.239,0 0.49,0.088 0.556,0.195 0.066,0.107 0.268,0.195 0.449,0.195 0.181,0.001 0.58,0.132 0.886,0.292 0.307,0.16 0.705,0.291 0.885,0.291 0.181,0 0.412,0.069 0.513,0.155 0.102,0.085 0.535,0.27 0.963,0.411 0.428,0.141 1.085,0.387 1.459,0.546 0.753,0.32 0.864,0.365 2.821,1.141 0.749,0.297 1.445,0.612 1.547,0.7 0.102,0.088 0.297,0.16 0.433,0.16 0.543,0 8.681,4.002 12.772,6.281 0.233,0.13 0.467,0.281 0.521,0.335 0.053,0.055 0.425,0.272 0.827,0.482 0.401,0.211 0.729,0.451 0.729,0.533 0,0.083 0.097,0.151 0.215,0.151 0.471,0 6.455,4.191 9.026,6.323 2.477,2.052 5.421,4.915 7.103,6.906 0.588,0.696 1.118,1.309 1.178,1.362 0.41,0.365 2.738,3.876 3.418,5.156 l 0.827,1.556 28.173,0.055 c 15.495,0.031 28.454,0.005 28.798,-0.056 0.808,-0.144 1.026,-0.87 1.028,-3.426 0,-1.028 0.082,-2.298 0.18,-2.821 0.099,-0.522 0.28,-2.045 0.402,-3.382 0.122,-1.338 0.346,-2.826 0.496,-3.308 0.151,-0.481 0.327,-1.269 0.392,-1.751 0.186,-1.37 2.147,-7.903 2.423,-8.074 0.083,-0.051 0.21,-0.335 0.282,-0.63 0.073,-0.295 0.339,-0.975 0.592,-1.51 0.254,-0.535 0.515,-1.104 0.582,-1.264 0.067,-0.161 0.357,-0.705 0.645,-1.21 0.288,-0.504 0.841,-1.471 1.228,-2.149 3.273,-5.724 9.422,-11.242 15.541,-13.947 0.803,-0.354 1.81,-0.802 2.238,-0.995 2.598,-1.172 6.92,-2.177 11.381,-2.646 0.589,-0.062 1.18,-0.2 1.313,-0.307 0.317,-0.253 0.36,-31.764 0.044,-31.959 -0.189,-0.117 -2.821,0.304 -4.275,0.684 -0.375,0.098 -0.944,0.218 -1.265,0.267 -0.845,0.127 -4.73,1.104 -5.934,1.491 -0.267,0.086 -1.011,0.305 -1.653,0.487 -1.392,0.396 -5.092,1.595 -5.642,1.83 -0.214,0.091 -0.696,0.275 -1.07,0.409 -0.375,0.134 -0.988,0.37 -1.362,0.526 -0.375,0.155 -0.9,0.37 -1.168,0.477 -0.267,0.108 -0.749,0.314 -1.07,0.459 -0.321,0.145 -1.196,0.534 -1.945,0.866 -0.749,0.331 -1.975,0.913 -2.724,1.294 -1.226,0.623 -1.982,1.032 -4.183,2.259 -2.106,1.175 -7.736,5.151 -9.764,6.896 -2.496,2.148 -5.248,4.852 -6.967,6.844 -0.589,0.682 -1.169,1.343 -1.29,1.468 -1.045,1.083 -5.909,8.031 -5.909,8.441 0,0.125 -0.087,0.227 -0.194,0.227 -0.107,0 -0.195,0.092 -0.195,0.204 0,0.112 -0.286,0.659 -0.636,1.216 -0.653,1.038 -2.896,5.501 -3.639,7.238 -0.228,0.535 -0.51,1.191 -0.625,1.459 -0.249,0.575 -0.543,1.307 -0.744,1.848 -0.079,0.214 -0.251,0.652 -0.381,0.973 -0.131,0.321 -0.365,0.977 -0.521,1.459 -0.155,0.481 -0.357,1.05 -0.447,1.264 -0.224,0.532 -0.688,1.957 -0.981,3.016 -0.133,0.481 -0.313,1.094 -0.399,1.362 -0.166,0.519 -0.683,2.378 -0.974,3.502 -0.096,0.374 -0.317,1.337 -0.491,2.14 -0.174,0.802 -0.395,1.713 -0.492,2.023 -0.096,0.31 -0.176,0.807 -0.176,1.105 0,1.697 -0.528,1.451 -2.857,-1.332 -6.523,-7.795 -16.041,-16.534 -23.407,-21.49 -0.268,-0.18 -1.267,-0.857 -2.22,-1.503 -0.953,-0.647 -1.773,-1.177 -1.822,-1.177 -0.049,0 -0.506,-0.306 -1.017,-0.681 -0.51,-0.374 -0.966,-0.681 -1.013,-0.681 -0.047,0 -1.13,-0.625 -2.406,-1.389 -4.946,-2.963 -8.789,-4.952 -14.966,-7.748 -0.535,-0.242 -1.435,-0.649 -1.999,-0.904 -0.565,-0.256 -1.113,-0.464 -1.219,-0.464 -0.105,0 -0.344,-0.081 -0.53,-0.179 -0.381,-0.201 -1.369,-0.612 -2.38,-0.991 -0.375,-0.14 -0.764,-0.328 -0.866,-0.418 -0.102,-0.09 -0.329,-0.163 -0.505,-0.163 -0.294,0 -1.145,-0.34 -1.983,-0.791 -0.185,-0.1 -0.496,-0.182 -0.69,-0.182 -0.194,0 -0.436,-0.072 -0.538,-0.159 -0.102,-0.087 -0.929,-0.401 -1.838,-0.698 -0.91,-0.297 -1.829,-0.608 -2.043,-0.69 -1.085,-0.419 -2.975,-1.04 -3.405,-1.118 -0.267,-0.048 -0.661,-0.16 -0.875,-0.247 -0.763,-0.313 -3.725,-1.174 -4.037,-1.174 -0.175,0 -0.372,-0.087 -0.438,-0.194 -0.066,-0.107 -0.306,-0.195 -0.533,-0.195 -0.227,0 -0.681,-0.085 -1.01,-0.188 -0.574,-0.181 -2.183,-0.62 -3.613,-0.986 -0.374,-0.096 -1.644,-0.4 -2.821,-0.676 -1.177,-0.277 -2.446,-0.579 -2.821,-0.673 -1.257,-0.315 -4.725,-1.042 -6.42,-1.347 -0.589,-0.105 -1.814,-0.334 -2.724,-0.507 -2.669,-0.51 -3.557,-0.667 -4.28,-0.76 -0.374,-0.049 -0.9,-0.132 -1.167,-0.185 -0.268,-0.053 -1.537,-0.242 -2.821,-0.419 -1.284,-0.177 -2.651,-0.402 -3.038,-0.5 -0.387,-0.099 -1.147,-0.179 -1.688,-0.179 -0.541,0 -1.406,-0.084 -1.923,-0.186 -0.516,-0.103 -2.164,-0.318 -3.663,-0.479 -1.498,-0.162 -3.205,-0.347 -3.793,-0.413 -1.242,-0.138 -4.393,-0.386 -8.269,-0.649 -6.623,-0.45 -5.934,0.266 -5.934,-6.158 0,-4.494 -0.02,-4.758 -0.376,-4.949 -0.341,-0.182 -10.794,-0.237 -13.534,-0.07 m -69.844,71.614 c -1.242,0.226 -3.617,1.657 -4.999,3.011 -1.453,1.425 -1.965,2.254 -2.728,4.427 l -0.445,1.264 0,14.259 c 0,12.462 0.037,14.281 0.292,14.442 0.447,0.282 7.068,0.243 7.354,-0.043 0.174,-0.173 0.234,-2.125 0.234,-7.576 0,-5.661 0.055,-7.379 0.243,-7.5 0.134,-0.087 6.459,-0.201 14.056,-0.255 l 13.814,-0.097 0.048,-2.918 c 0.064,-3.85 0.553,-3.493 -4.856,-3.551 -2.492,-0.027 -6.545,-0.136 -9.006,-0.244 -2.461,-0.107 -6.58,-0.194 -9.153,-0.194 -5.519,0 -5.146,0.167 -5.146,-2.298 0,-2.279 0.456,-3.281 1.963,-4.31 1.644,-1.121 2.177,-1.157 17.225,-1.166 12.255,-0.007 13.473,-0.036 13.716,-0.329 0.46,-0.553 0.491,-5.906 0.037,-6.433 -0.326,-0.379 -30.757,-0.835 -32.649,-0.489 M 76.508,77.95 c -0.192,0.077 -0.243,3.973 -0.243,18.561 l 0,18.462 0.437,0.108 c 0.241,0.059 2.233,0.082 4.426,0.052 l 3.989,-0.055 0.049,-18.471 C 85.206,81.96 85.165,78.105 84.972,77.982 84.71,77.816 76.914,77.786 76.508,77.95 m 150.655,1.475 c -0.059,0.883 -0.133,9.048 -0.163,18.143 l -0.054,16.537 4.085,0.055 c 2.247,0.03 4.283,0.007 4.523,-0.052 l 0.438,-0.108 0,-5.139 c 0,-2.868 0.084,-5.36 0.19,-5.638 l 0.19,-0.499 15.055,0 15.056,0 1.27,-0.576 c 1.337,-0.606 2.365,-1.601 2.994,-2.898 0.482,-0.994 0.758,-11.809 0.374,-14.627 -0.375,-2.74 -1.544,-4.577 -3.709,-5.826 -1.047,-0.604 -4.164,-0.714 -24.447,-0.863 l -15.693,-0.115 -0.109,1.606 m -62.444,-0.78 c -0.124,0.078 -0.507,0.144 -0.852,0.146 -1.991,0.009 -4.663,2.257 -5.563,4.679 -0.473,1.273 -0.496,25.855 -0.025,27.206 0.54,1.552 1.828,3.108 3.2,3.866 1.948,1.076 1.078,1.036 21.222,0.978 l 18.564,-0.053 1.159,-0.568 c 2.154,-1.056 3.593,-2.791 4.11,-4.955 0.318,-1.326 0.396,-23.848 0.089,-25.467 -0.55,-2.9 -2.989,-5.286 -5.845,-5.719 -1.329,-0.202 -35.75,-0.31 -36.059,-0.113 m 96.421,6.423 c 1.428,1.089 1.569,1.466 1.664,4.442 0.142,4.461 -0.269,5.736 -2.172,6.737 -1.076,0.566 -23.091,0.632 -23.652,0.071 -0.462,-0.462 -0.64,-10.69 -0.2,-11.512 0.201,-0.374 0.447,-0.381 11.932,-0.327 l 11.727,0.054 0.701,0.535 m -66.366,0.195 c 0.995,0.302 2.396,1.509 2.9,2.496 0.639,1.254 0.578,16.07 -0.071,17.205 -0.586,1.025 -1.132,1.651 -1.44,1.651 -0.137,0 -0.249,0.07 -0.249,0.156 0,0.746 -1.508,0.83 -14.018,0.774 l -12.149,-0.055 -0.778,-0.456 c -1.107,-0.65 -1.539,-1.093 -2.066,-2.118 l -0.463,-0.901 0,-7.893 0,-7.892 0.615,-0.886 c 0.65,-0.937 1.914,-1.935 2.448,-1.935 0.175,0 0.373,-0.088 0.439,-0.195 0.19,-0.308 23.813,-0.261 24.832,0.049 M 38.327,108.18 c -1.659,0.074 -5.73,0.144 -9.047,0.156 -7,0.026 -19.885,0.393 -20.372,0.582 -0.308,0.119 -0.31,0.179 -0.025,0.81 0.826,1.827 2.692,5.452 4.058,7.879 0.301,0.535 0.71,1.264 0.909,1.62 0.774,1.382 4.714,7.427 5.475,8.399 0.126,0.161 0.576,0.774 1,1.362 0.424,0.589 0.822,1.114 0.885,1.168 0.063,0.053 0.372,0.447 0.687,0.875 0.316,0.428 0.661,0.879 0.768,1.003 0.107,0.123 0.895,1.08 1.751,2.126 1.724,2.106 10.907,11.5 11.733,12.003 0.288,0.175 0.831,0.609 1.205,0.964 0.375,0.355 1.119,0.993 1.654,1.419 0.535,0.425 1.016,0.824 1.07,0.885 0.883,1.021 13.359,9.713 13.941,9.713 0.057,0 0.379,0.197 0.715,0.438 0.336,0.24 0.787,0.531 1.003,0.646 0.454,0.241 1.915,1.064 3.31,1.864 2.66,1.527 11.109,5.57 15.369,7.355 1.437,0.602 1.978,0.818 3.891,1.554 1.177,0.453 2.491,0.957 2.919,1.121 0.428,0.164 0.953,0.372 1.167,0.463 0.214,0.09 2.446,0.834 4.961,1.653 2.515,0.818 4.747,1.555 4.961,1.638 0.214,0.082 0.783,0.258 1.265,0.39 0.481,0.133 1.269,0.357 1.751,0.499 0.481,0.142 1.401,0.4 2.043,0.573 0.642,0.173 1.473,0.4 1.848,0.505 0.374,0.106 1.162,0.309 1.751,0.452 1.018,0.249 1.687,0.419 5.063,1.285 0.804,0.207 1.899,0.469 2.431,0.583 0.533,0.113 1.319,0.29 1.747,0.392 0.428,0.102 1.304,0.277 1.946,0.388 0.642,0.112 1.429,0.281 1.751,0.377 0.321,0.096 1.065,0.261 1.653,0.367 0.589,0.105 1.727,0.329 2.529,0.496 0.803,0.167 2.247,0.432 3.211,0.589 0.963,0.158 2.845,0.464 4.182,0.682 1.338,0.218 2.914,0.482 3.502,0.586 0.589,0.104 1.858,0.286 2.821,0.405 0.963,0.118 2.539,0.341 3.502,0.495 0.963,0.154 3.064,0.418 4.67,0.588 1.605,0.169 3.531,0.386 4.28,0.481 0.749,0.096 2.456,0.257 3.793,0.359 1.338,0.102 3.22,0.271 4.183,0.377 2.706,0.297 11.55,0.904 17.51,1.203 6.16,0.308 27.003,0.466 27.485,0.208 0.43,-0.23 0.433,-0.269 0.433,-4.979 0,-6.2 -0.286,-5.67 3.148,-5.829 1.533,-0.071 4.581,-0.297 6.775,-0.503 2.193,-0.206 4.995,-0.469 6.225,-0.584 1.231,-0.115 2.719,-0.292 3.308,-0.392 0.588,-0.101 2.033,-0.275 3.21,-0.388 1.177,-0.113 2.578,-0.28 3.113,-0.37 0.535,-0.091 1.717,-0.265 2.626,-0.387 0.91,-0.122 2.529,-0.387 3.599,-0.589 1.07,-0.201 2.777,-0.506 3.794,-0.676 3.323,-0.557 4.162,-0.717 5.739,-1.096 0.856,-0.205 1.951,-0.428 2.432,-0.494 0.482,-0.067 1.349,-0.253 1.928,-0.415 0.579,-0.161 1.76,-0.453 2.626,-0.647 3.127,-0.703 3.981,-0.924 5.152,-1.329 0.655,-0.226 1.431,-0.414 1.725,-0.416 0.294,-0.002 0.884,-0.163 1.312,-0.357 0.428,-0.194 1.16,-0.414 1.626,-0.488 0.466,-0.074 1.096,-0.264 1.401,-0.421 0.304,-0.157 1.017,-0.384 1.584,-0.504 0.567,-0.119 1.121,-0.288 1.23,-0.376 0.11,-0.087 0.81,-0.333 1.557,-0.547 1.706,-0.487 3.056,-0.932 4.178,-1.378 0.482,-0.19 1.182,-0.456 1.557,-0.59 0.374,-0.134 1.206,-0.446 1.848,-0.694 0.642,-0.248 1.736,-0.661 2.432,-0.919 1.173,-0.435 3.502,-1.431 5.35,-2.287 0.428,-0.199 1.391,-0.639 2.14,-0.979 2.861,-1.298 7.105,-3.445 9.587,-4.85 1.421,-0.804 2.822,-1.594 3.113,-1.755 1.608,-0.89 5.977,-3.703 8.993,-5.791 7.583,-5.248 18.746,-15.47 22.995,-21.056 2.104,-2.766 2.918,-3.28 3.171,-2.002 0.589,2.976 1.205,5.607 1.743,7.45 0.14,0.481 0.366,1.269 0.501,1.75 0.326,1.157 2.045,6.382 2.34,7.112 0.128,0.315 0.297,0.748 0.376,0.962 0.21,0.567 0.49,1.22 1.057,2.469 0.276,0.609 0.502,1.161 0.502,1.227 0,0.174 2.783,5.819 2.926,5.935 0.066,0.053 0.375,0.579 0.687,1.167 0.311,0.589 0.612,1.114 0.667,1.167 0.187,0.181 1.167,1.742 1.167,1.859 0,0.123 2.967,4.34 3.608,5.126 3.154,3.876 7.609,8.458 10.011,10.296 0.374,0.286 0.775,0.608 0.89,0.716 0.115,0.107 0.465,0.39 0.778,0.631 0.313,0.24 0.917,0.705 1.343,1.035 3.727,2.884 10.751,6.81 15.958,8.918 1.391,0.564 2.704,1.098 2.918,1.187 0.544,0.227 2.975,1.091 3.794,1.348 0.374,0.118 1.37,0.432 2.213,0.697 0.843,0.266 1.692,0.483 1.886,0.483 0.194,0 0.401,0.078 0.459,0.173 0.059,0.095 0.393,0.218 0.741,0.272 0.349,0.055 1.16,0.245 1.802,0.423 2.839,0.788 8.248,1.785 8.714,1.607 0.433,-0.167 0.524,-31.711 0.092,-31.978 -0.132,-0.082 -0.942,-0.265 -1.799,-0.408 -5.568,-0.927 -9.222,-2.056 -13.914,-4.296 -0.802,-0.383 -1.92,-0.986 -2.484,-1.338 -0.564,-0.353 -1.067,-0.642 -1.118,-0.642 -0.162,0 -2.083,-1.399 -3.577,-2.606 -3.388,-2.736 -6.793,-6.846 -8.925,-10.769 -0.131,-0.241 -0.322,-0.591 -0.425,-0.778 -0.103,-0.188 -0.459,-0.954 -0.792,-1.703 -0.332,-0.749 -0.721,-1.624 -0.864,-1.945 -0.349,-0.786 -0.843,-2.261 -1.271,-3.794 -0.194,-0.696 -0.45,-1.516 -0.569,-1.823 -0.119,-0.307 -0.304,-1.182 -0.41,-1.945 -0.107,-0.763 -0.32,-1.782 -0.474,-2.263 -0.155,-0.482 -0.368,-1.795 -0.475,-2.918 -0.107,-1.124 -0.281,-2.831 -0.386,-3.794 -0.106,-0.963 -0.237,-2.669 -0.292,-3.79 -0.08,-1.634 -0.167,-2.088 -0.437,-2.286 -0.377,-0.276 -56.98,-0.372 -57.377,-0.098 -0.114,0.078 -0.53,0.799 -0.925,1.602 -1.215,2.469 -3.621,6.295 -4.405,7.004 -0.059,0.053 -0.583,0.666 -1.164,1.362 -3.901,4.67 -12.172,11.504 -17.326,14.317 -0.375,0.204 -0.725,0.415 -0.778,0.469 -0.102,0.102 -0.485,0.319 -2.783,1.58 -1.441,0.792 -6.02,3.056 -7.918,3.915 -1.165,0.528 -5.413,2.252 -7.782,3.159 -0.481,0.184 -1.027,0.414 -1.213,0.51 -0.186,0.096 -0.497,0.174 -0.691,0.174 -0.194,0 -0.436,0.073 -0.538,0.162 -0.101,0.09 -1.235,0.497 -2.519,0.906 -1.284,0.409 -2.954,0.949 -3.711,1.2 -0.757,0.251 -1.562,0.456 -1.788,0.456 -0.227,0 -0.46,0.077 -0.518,0.172 -0.059,0.095 -0.349,0.215 -0.644,0.268 -0.296,0.053 -1.413,0.334 -2.483,0.624 -1.07,0.291 -2.252,0.597 -2.626,0.681 -1.339,0.3 -2.634,0.64 -3.074,0.808 -0.246,0.094 -0.706,0.171 -1.024,0.171 -0.317,0 -0.729,0.081 -0.915,0.18 -0.316,0.169 -1.307,0.392 -3.645,0.821 -0.535,0.098 -1.367,0.257 -1.848,0.353 -3.887,0.774 -5.498,1.065 -7.588,1.369 -0.588,0.086 -1.989,0.303 -3.113,0.483 -2.695,0.433 -6.238,0.887 -9.727,1.248 -1.124,0.116 -2.348,0.263 -2.72,0.327 -0.92,0.159 -4.441,0.471 -7.397,0.656 -5.921,0.371 -9.866,0.611 -12.986,0.79 -4.348,0.25 -25.907,0.251 -29.816,0.002 -12.235,-0.78 -17.593,-1.194 -18.677,-1.444 -0.267,-0.062 -1.362,-0.211 -2.432,-0.33 -4.084,-0.458 -6.299,-0.762 -9.144,-1.257 -0.963,-0.168 -2.276,-0.386 -2.918,-0.486 -1.512,-0.235 -2.747,-0.463 -4.669,-0.861 -0.856,-0.178 -1.95,-0.398 -2.432,-0.491 -1.204,-0.23 -2.397,-0.5 -3.891,-0.878 -0.696,-0.177 -1.615,-0.396 -2.043,-0.488 -0.428,-0.092 -1.128,-0.256 -1.556,-0.364 -0.428,-0.107 -1.231,-0.309 -1.784,-0.448 -0.553,-0.139 -1.071,-0.318 -1.151,-0.399 -0.08,-0.08 -0.346,-0.145 -0.59,-0.145 -0.245,0 -0.646,-0.077 -0.892,-0.17 -0.246,-0.093 -0.972,-0.322 -1.614,-0.509 -0.642,-0.186 -1.343,-0.407 -1.557,-0.489 -0.214,-0.082 -0.783,-0.259 -1.264,-0.392 -1.297,-0.358 -2.582,-0.786 -2.965,-0.987 -0.186,-0.097 -0.471,-0.177 -0.635,-0.177 -0.163,0 -0.449,-0.08 -0.635,-0.177 -0.185,-0.098 -0.775,-0.324 -1.31,-0.502 -0.535,-0.178 -1.148,-0.396 -1.362,-0.484 -0.214,-0.089 -0.914,-0.357 -1.556,-0.598 -1.455,-0.544 -2.429,-0.942 -2.867,-1.174 -0.186,-0.098 -0.425,-0.178 -0.53,-0.178 -0.106,0 -0.698,-0.228 -1.316,-0.506 -0.618,-0.279 -1.299,-0.578 -1.513,-0.666 -3.226,-1.316 -14.45,-7.298 -14.656,-7.811 -0.036,-0.088 -0.136,-0.161 -0.223,-0.161 -0.141,0 -3.306,-2.072 -3.803,-2.49 -0.11,-0.092 -0.46,-0.336 -0.778,-0.541 -0.657,-0.424 -0.586,-0.37 -2.836,-2.157 -2.942,-2.338 -3.913,-3.204 -6.605,-5.894 -2.633,-2.63 -4.241,-4.414 -5.338,-5.921 -0.319,-0.439 -0.734,-0.967 -0.922,-1.173 -0.187,-0.206 -0.391,-0.535 -0.453,-0.73 -0.062,-0.195 -0.194,-0.355 -0.294,-0.355 -0.1,0 -0.182,-0.097 -0.182,-0.217 0,-0.119 -0.288,-0.622 -0.641,-1.118 -0.352,-0.496 -0.891,-1.383 -1.196,-1.972 -0.305,-0.588 -0.641,-1.179 -0.745,-1.313 -0.206,-0.265 -1.515,-0.273 -6.756,-0.04"
       inkscape:connector-curvature="0"
       style="fill:#3c5da9;fill-rule:evenodd;stroke:none" />
    <path
       id="path1"
       d="m 197.323,5.479 c 0.303,0.233 0.345,0.771 0.395,5.124 l 0.055,4.864 -0.005,-5.056 C 197.763,5.51 197.751,5.353 197.374,5.287 197.011,5.223 197.008,5.236 197.323,5.479 M 394.55,5.36 c -0.001,0.102 0,7.31 0.003,16.018 0.003,12.246 -0.05,15.899 -0.235,16.122 -0.199,0.24 -0.175,0.276 0.143,0.214 C 394.9,37.63 395.182,5.805 394.748,5.371 394.632,5.255 394.552,5.25 394.55,5.36 m -23.927,41.771 c -0.482,0.434 -0.736,0.71 -0.564,0.613 0.478,-0.27 1.594,-1.253 1.512,-1.332 -0.04,-0.038 -0.467,0.285 -0.948,0.719 m -2.9,3.015 c -1.408,1.575 -2.45,2.967 -2.221,2.967 0.092,0 0.296,-0.208 0.455,-0.462 0.431,-0.69 1.35,-1.839 2.309,-2.886 0.469,-0.513 0.803,-0.932 0.742,-0.932 -0.062,0 -0.64,0.591 -1.285,1.313 m -2.787,3.502 c -0.514,0.585 -1.62,2.697 -1.26,2.408 0.182,-0.147 0.332,-0.342 0.332,-0.434 0,-0.092 0.309,-0.65 0.687,-1.241 0.697,-1.09 0.782,-1.349 0.241,-0.733 m -1.978,3.192 c -0.338,0.482 -0.397,0.748 -0.166,0.746 0.169,-0.002 0.665,-1.003 0.553,-1.116 -0.042,-0.041 -0.216,0.125 -0.387,0.37 m -0.708,1.389 c -0.294,0.443 -0.602,1.304 -0.467,1.304 0.118,0 0.899,-1.585 0.82,-1.664 -0.038,-0.038 -0.197,0.124 -0.353,0.36 m -1.004,2.098 c -0.53,1.145 -0.579,1.687 -0.061,0.673 0.271,-0.531 0.465,-1.05 0.431,-1.152 -0.034,-0.102 -0.201,0.113 -0.37,0.479 m -1.04,2.404 c -0.167,0.401 -0.266,0.831 -0.219,0.954 0.046,0.124 0.146,0.05 0.222,-0.164 0.076,-0.214 0.232,-0.586 0.347,-0.826 0.115,-0.241 0.152,-0.495 0.082,-0.565 -0.07,-0.07 -0.264,0.201 -0.432,0.601 m -0.71,2.186 c -0.471,1.383 -0.599,2.064 -0.36,1.917 0.111,-0.069 0.203,-0.294 0.203,-0.499 0,-0.206 0.139,-0.723 0.31,-1.149 0.17,-0.427 0.278,-0.873 0.238,-0.992 -0.04,-0.118 -0.216,0.207 -0.391,0.723 m -0.97,3.371 c -0.178,0.588 -0.368,1.464 -0.421,1.945 l -0.097,0.876 0.261,-0.778 c 0.144,-0.428 0.268,-1.002 0.276,-1.275 0.009,-0.272 0.11,-0.591 0.226,-0.707 0.116,-0.116 0.182,-0.418 0.146,-0.671 -0.049,-0.342 -0.15,-0.185 -0.391,0.61 m -0.876,3.794 c -0.272,0.926 -0.528,4.142 -0.271,3.404 0.093,-0.267 0.178,-0.908 0.189,-1.423 0.011,-0.515 0.112,-1.111 0.226,-1.323 0.114,-0.212 0.179,-0.622 0.146,-0.911 -0.055,-0.48 -0.08,-0.458 -0.29,0.253 m -0.795,6.128 c -0.135,1.017 -0.245,2.593 -0.244,3.502 0.002,1.924 -0.258,3.05 -0.731,3.174 -0.208,0.055 -0.14,0.097 0.179,0.111 0.646,0.028 0.75,-0.241 0.75,-1.931 0,-0.736 0.094,-2.201 0.209,-3.255 0.295,-2.715 0.161,-4.036 -0.163,-1.601 m -210.29,5.551 c -0.126,0.269 -0.144,0.48 -0.043,0.48 0.217,0 0.43,-0.488 0.335,-0.765 -0.037,-0.107 -0.168,0.021 -0.292,0.285 m 124.687,7.095 c -0.028,3.478 -0.091,6.673 -0.141,7.101 -0.079,0.69 -0.07,0.712 0.08,0.195 0.199,-0.682 0.396,-11.933 0.227,-12.938 -0.063,-0.375 -0.138,2.164 -0.166,5.642 m -34.59,-0.389 c 0,3.05 0.026,4.297 0.059,2.772 0.033,-1.525 0.033,-4.02 0,-5.544 -0.033,-1.525 -0.059,-0.278 -0.059,2.772 m -29.808,6.517 c -0.028,6.528 -0.095,12.087 -0.15,12.355 l -0.1,0.486 0.201,-0.459 c 0.134,-0.304 0.184,-4.462 0.15,-12.354 l -0.051,-11.895 -0.05,11.867 M 42.758,85.746 c 0.458,0.041 1.158,0.04 1.556,-10e-4 0.399,-0.042 0.025,-0.076 -0.832,-0.075 -0.856,0.001 -1.182,0.035 -0.724,0.076 m 227.103,14.817 c -0.366,0.493 -0.515,0.773 -0.332,0.622 0.399,-0.329 1.165,-1.378 1.066,-1.46 -0.038,-0.031 -0.369,0.346 -0.734,0.838 m 86.559,9.205 c 0.081,0.459 0.16,1.448 0.175,2.197 0.033,1.64 0.397,5.211 0.545,5.349 0.058,0.054 0.038,-0.689 -0.045,-1.653 -0.083,-0.963 -0.203,-2.838 -0.267,-4.167 -0.073,-1.526 -0.197,-2.443 -0.336,-2.489 -0.155,-0.051 -0.176,0.173 -0.072,0.763 m 0.878,9.872 c 0.078,0.797 0.265,1.76 0.414,2.14 0.15,0.38 0.225,0.472 0.167,0.204 -0.058,-0.267 -0.189,-1.177 -0.291,-2.021 -0.236,-1.968 -0.479,-2.237 -0.29,-0.323 m -31.613,4.339 c -0.114,0.133 -0.43,0.505 -0.703,0.826 -0.273,0.321 -0.729,0.891 -1.014,1.265 -3.609,4.745 -12.858,13.483 -19.739,18.649 -1.47,1.104 -2.673,2.051 -2.673,2.104 0,0.183 6.894,-5.009 7.393,-5.569 0.054,-0.06 0.667,-0.589 1.362,-1.176 0.696,-0.587 1.309,-1.113 1.362,-1.169 0.054,-0.056 0.823,-0.75 1.709,-1.543 2.092,-1.87 5.044,-4.816 7.189,-7.173 0.938,-1.031 1.888,-2.063 2.111,-2.294 0.223,-0.232 0.748,-0.846 1.167,-1.366 0.419,-0.52 0.923,-1.121 1.119,-1.336 0.518,-0.567 1.146,-1.462 1.026,-1.462 -0.057,0 -0.196,0.11 -0.309,0.244 m 32.506,0.256 c -0.025,0.512 0.556,2.491 0.692,2.355 0.056,-0.056 0.011,-0.393 -0.099,-0.749 -0.111,-0.355 -0.285,-0.953 -0.387,-1.327 -0.116,-0.424 -0.194,-0.529 -0.206,-0.279 m 0.846,3.416 c 0.271,0.974 0.736,2.135 0.82,2.051 0.048,-0.048 -0.048,-0.415 -0.215,-0.814 -0.167,-0.399 -0.303,-0.885 -0.303,-1.079 0,-0.195 -0.097,-0.414 -0.216,-0.487 -0.146,-0.091 -0.174,0.015 -0.086,0.329 m 1.004,3.023 c 0.147,0.606 0.659,1.454 0.659,1.093 0,-0.125 -0.087,-0.281 -0.194,-0.347 -0.107,-0.066 -0.195,-0.329 -0.195,-0.583 0,-0.255 -0.091,-0.52 -0.202,-0.589 -0.133,-0.082 -0.156,0.064 -0.068,0.426 m -59.982,17.106 -0.545,0.505 0.632,-0.42 c 0.579,-0.385 0.768,-0.589 0.546,-0.589 -0.048,0 -0.332,0.227 -0.633,0.504 m -1.663,1.092 c -0.507,0.337 -0.885,0.65 -0.838,0.696 0.08,0.08 1.858,-1.12 1.858,-1.255 0,-0.109 -0.069,-0.071 -1.02,0.559 m -3.074,2.001 c -0.905,0.587 -1.574,1.069 -1.488,1.07 0.181,0.003 3.248,-1.941 3.248,-2.059 0,-0.144 -0.104,-0.085 -1.76,0.989 m -3.602,2.136 c -0.208,0.157 -0.29,0.286 -0.183,0.286 0.107,0 0.364,-0.129 0.572,-0.286 0.208,-0.157 0.29,-0.285 0.183,-0.285 -0.107,0 -0.364,0.128 -0.572,0.285 m 102.785,19.013 -0.05,16.013 -0.681,0.12 c -0.64,0.114 -0.626,0.122 0.244,0.146 l 0.924,0.026 0,-16.039 c 0,-10.42 -0.068,-16.081 -0.194,-16.159 -0.127,-0.079 -0.21,5.343 -0.243,15.893 m -110.75,-14.64 c -0.428,0.203 -0.682,0.376 -0.565,0.384 0.238,0.018 1.44,-0.549 1.44,-0.679 0,-0.117 -0.011,-0.114 -0.875,0.295 m -2.237,1.081 c -0.283,0.161 -0.364,0.278 -0.195,0.279 0.16,0 0.462,-0.128 0.669,-0.285 0.481,-0.364 0.165,-0.359 -0.474,0.006 m -6.032,2.724 c -0.648,0.37 -0.197,0.371 0.513,10e-4 0.307,-0.16 0.426,-0.288 0.266,-0.285 -0.161,0.003 -0.511,0.131 -0.779,0.284 m -14.883,5.545 c -0.375,0.161 -0.374,0.167 0.037,0.18 0.235,0.008 0.481,-0.073 0.547,-0.18 0.142,-0.231 -0.048,-0.231 -0.584,0 m -2.724,0.882 c -0.486,0.234 -0.502,0.261 -0.097,0.162 0.551,-0.135 1.171,-0.45 0.876,-0.446 -0.107,10e-4 -0.458,0.129 -0.779,0.284 m -6.517,1.841 c -0.237,0.154 -0.212,0.189 0.134,0.192 0.235,0.001 0.481,-0.085 0.547,-0.192 0.153,-0.247 -0.298,-0.247 -0.681,0 m -11.381,2.724 -0.39,0.167 0.39,0.011 c 0.214,0.006 0.52,-0.074 0.68,-0.178 0.387,-0.25 -0.099,-0.25 -0.68,0 m -9.436,1.751 c -0.391,0.125 -0.41,0.157 -0.098,0.161 0.214,0.004 0.565,-0.069 0.779,-0.161 0.495,-0.213 -0.016,-0.213 -0.681,0 m -3.843,0.718 c 0.188,0.049 0.494,0.049 0.681,0 0.188,-0.049 0.034,-0.089 -0.34,-0.089 -0.375,0 -0.528,0.04 -0.341,0.089 m -9.581,1.227 c -0.657,0.139 -0.66,0.144 -0.098,0.146 0.321,0.002 0.847,-0.064 1.168,-0.146 0.807,-0.205 -0.094,-0.205 -1.07,0 m -8.315,0.918 c 0.296,0.045 0.734,0.044 0.973,-0.002 0.239,-0.047 -0.003,-0.083 -0.538,-0.082 -0.535,0.002 -0.731,0.04 -0.435,0.084 m -7.497,0.585 c 0.345,0.043 0.958,0.043 1.362,0.001 0.403,-0.042 0.121,-0.077 -0.628,-0.078 -0.749,-10e-4 -1.079,0.034 -0.734,0.077 m -3.644,5.686 c 0,4.418 -0.03,4.872 -0.34,5.053 -0.304,0.177 -0.294,0.199 0.097,0.204 l 0.438,0.006 0,-5.059 c 0,-2.782 -0.044,-5.058 -0.097,-5.058 -0.054,0 -0.098,2.184 -0.098,4.854 m -58.511,2.479 c 0.187,0.049 0.493,0.049 0.681,0 0.187,-0.049 0.034,-0.089 -0.341,-0.089 -0.374,0 -0.528,0.04 -0.34,0.089 m 2.869,0.246 c 0.161,0.108 0.46,0.199 0.665,0.2 0.498,0.004 0.343,-0.107 -0.373,-0.267 -0.426,-0.095 -0.505,-0.077 -0.292,0.067 m 6.664,0.726 c 0.187,0.049 0.493,0.049 0.681,0 0.187,-0.049 0.034,-0.089 -0.341,-0.089 -0.374,0 -0.527,0.04 -0.34,0.089 m 3.502,0.39 c 0.187,0.048 0.493,0.048 0.681,0 0.187,-0.049 0.034,-0.089 -0.341,-0.089 -0.374,0 -0.528,0.04 -0.34,0.089 m 9.338,0.583 c 0.187,0.049 0.494,0.049 0.681,0 0.187,-0.049 0.034,-0.089 -0.34,-0.089 -0.375,0 -0.528,0.04 -0.341,0.089 m 1.946,0.2 c 0.294,0.045 0.776,0.045 1.07,0 0.294,-0.045 0.053,-0.081 -0.535,-0.081 -0.589,0 -0.829,0.036 -0.535,0.081 m 12.751,0.589 c 0.673,0.038 1.723,0.037 2.334,-10e-4 0.611,-0.039 0.061,-0.07 -1.223,-0.069 -1.284,0 -1.784,0.031 -1.111,0.07 M 72.86,227.426 c -0.214,0.095 -0.649,0.179 -0.966,0.187 -0.504,0.012 -1.33,0.25 -2.731,0.788 -3.183,1.221 -6.712,4.825 -6.712,6.856 0,0.204 -0.095,0.551 -0.213,0.77 -0.275,0.514 -0.269,4.814 0.008,5.09 0.113,0.113 0.205,0.404 0.205,0.647 0,0.536 0.757,1.946 1.786,3.329 1.402,1.883 3.682,3.352 6.872,4.426 0.535,0.18 1.148,0.399 1.362,0.487 0.214,0.088 0.652,0.213 0.973,0.279 1.701,0.351 2.277,0.501 2.616,0.682 0.205,0.11 0.637,0.2 0.959,0.2 0.321,0 0.639,0.088 0.705,0.195 0.066,0.107 0.416,0.194 0.778,0.194 0.362,0 0.712,0.088 0.778,0.195 0.066,0.107 0.323,0.195 0.572,0.195 0.477,0 1.703,0.443 3.325,1.203 0.733,0.343 2.037,1.692 2.037,2.107 0,0.2 0.088,0.417 0.195,0.483 0.107,0.066 0.194,0.592 0.194,1.168 0,0.576 -0.087,1.101 -0.194,1.167 -0.107,0.066 -0.195,0.327 -0.195,0.579 0,1.076 -2.69,3.262 -4.572,3.716 -1.016,0.245 -5.581,0.318 -5.806,0.094 -0.113,-0.114 -0.399,-0.206 -0.635,-0.206 -0.708,0 -2.45,-1.007 -3.384,-1.956 -1.019,-1.035 -1.597,-2.122 -2.376,-4.464 l -0.291,-0.876 -1.341,0.06 c -0.738,0.033 -1.818,0.143 -2.399,0.243 -0.582,0.101 -1.692,0.183 -2.467,0.183 l -1.409,0 0.11,1.119 c 0.06,0.615 0.185,1.266 0.277,1.447 0.093,0.18 0.168,0.547 0.168,0.815 0,0.268 0.088,0.542 0.195,0.608 0.107,0.066 0.195,0.317 0.195,0.558 0,0.24 0.128,0.607 0.285,0.815 0.157,0.208 0.289,0.486 0.292,0.617 0.02,0.764 2.172,3.52 3.703,4.741 1.111,0.886 2.335,1.547 3.696,1.996 0.589,0.194 1.245,0.426 1.459,0.516 1.563,0.655 12.333,0.638 13.026,-0.021 0.101,-0.096 0.351,-0.176 0.554,-0.176 0.333,0 0.695,-0.133 2.276,-0.84 1.499,-0.67 4.475,-3.096 4.475,-3.647 0,-0.085 0.113,-0.27 0.25,-0.411 0.214,-0.22 0.936,-1.65 1.505,-2.981 0.631,-1.474 0.606,-6.505 -0.039,-8.074 -1.377,-3.346 -3,-5.079 -6.093,-6.505 -0.856,-0.394 -1.709,-0.799 -1.895,-0.9 -0.185,-0.1 -0.471,-0.182 -0.634,-0.182 -0.164,0 -0.45,-0.077 -0.635,-0.171 -0.616,-0.312 -2.277,-0.804 -2.71,-0.803 -0.234,0 -0.475,-0.077 -0.534,-0.173 -0.059,-0.096 -0.436,-0.221 -0.838,-0.279 -1.542,-0.222 -4.208,-0.916 -4.45,-1.159 -0.077,-0.076 -0.345,-0.139 -0.596,-0.139 -0.251,0 -0.609,-0.08 -0.795,-0.177 -0.185,-0.098 -0.863,-0.426 -1.505,-0.729 -3.365,-1.589 -3.749,-4.381 -0.871,-6.335 0.586,-0.398 1.301,-0.727 1.589,-0.73 0.288,-0.003 0.578,-0.093 0.644,-0.2 0.072,-0.116 1.295,-0.195 3.016,-0.195 1.72,0 2.944,0.079 3.015,0.195 0.066,0.107 0.289,0.194 0.495,0.194 1.163,0 3.688,2.517 3.688,3.676 0,0.213 0.088,0.441 0.195,0.507 0.107,0.066 0.194,0.391 0.194,0.721 l 0,0.602 1.703,-0.13 c 0.936,-0.071 2.731,-0.185 3.988,-0.253 l 2.286,-0.124 0,-1.223 c 0,-0.673 -0.088,-1.278 -0.195,-1.344 -0.107,-0.066 -0.194,-0.335 -0.194,-0.598 0,-0.262 -0.082,-0.629 -0.182,-0.815 -0.101,-0.186 -0.427,-0.863 -0.726,-1.505 -1.392,-2.99 -4.799,-5.297 -9.112,-6.171 -1.263,-0.256 -8.443,-0.383 -8.949,-0.158 m 206.446,-0.052 c -0.075,0.075 -0.593,0.198 -1.151,0.274 -1.348,0.183 -2.722,0.541 -2.951,0.768 -0.101,0.101 -0.334,0.183 -0.516,0.183 -1.349,0 -5.934,3.655 -7.567,6.031 -0.257,0.375 -0.522,0.725 -0.589,0.779 -0.066,0.053 -0.453,0.797 -0.859,1.653 -0.407,0.856 -0.816,1.709 -0.91,1.895 -0.094,0.185 -0.172,0.478 -0.172,0.651 0,0.173 -0.124,0.59 -0.275,0.927 -0.814,1.812 -1.223,12.908 -0.503,13.629 0.107,0.107 0.195,0.403 0.195,0.657 0,2.073 2.53,6.872 4.852,9.203 3.754,3.768 7.481,5.097 14.311,5.101 4.607,0.002 6.469,-0.306 8.704,-1.443 0.186,-0.095 0.435,-0.172 0.554,-0.172 0.118,0 0.933,-0.468 1.811,-1.04 3.743,-2.44 6.406,-6.062 7.604,-10.342 0.18,-0.642 0.401,-1.386 0.491,-1.653 0.635,-1.879 0.634,-9.792 -10e-4,-12.257 -0.612,-2.376 -0.906,-3.212 -1.709,-4.864 -0.495,-1.016 -0.949,-1.892 -1.01,-1.945 -0.061,-0.054 -0.274,-0.355 -0.474,-0.669 -0.745,-1.167 -3.799,-4.194 -4.234,-4.195 -0.073,0 -0.249,-0.11 -0.393,-0.243 -0.393,-0.367 -1.606,-1.025 -2.782,-1.508 -0.321,-0.132 -0.727,-0.312 -0.901,-0.399 -0.174,-0.087 -0.634,-0.218 -1.023,-0.291 -0.389,-0.073 -0.755,-0.21 -0.814,-0.305 -0.058,-0.095 -0.534,-0.173 -1.056,-0.173 -0.523,0 -1.004,-0.087 -1.07,-0.194 -0.137,-0.221 -7.343,-0.277 -7.562,-0.058 m -52.395,0.74 c -0.212,0.155 -0.257,0.828 -0.214,3.21 l 0.054,3.015 5.864,0.051 c 4.595,0.04 5.91,0.107 6.078,0.31 0.153,0.184 0.23,5.127 0.265,16.972 l 0.05,16.713 3.939,0.053 3.94,0.053 0,-16.809 c 0,-13.774 0.047,-16.848 0.26,-17.025 0.173,-0.144 2.156,-0.232 5.982,-0.267 l 5.723,-0.051 0.054,-3.16 0.053,-3.159 -15.89,-0.051 c -10.437,-0.033 -15.982,0.016 -16.158,0.145 m 141.96,-0.131 c -0.127,0.043 -0.194,6.992 -0.194,20.262 l 0,20.197 0.73,0.069 c 0.401,0.038 7.363,0.046 15.471,0.018 l 14.743,-0.051 -0.054,-3.159 -0.053,-3.159 -11.169,-0.051 c -7.931,-0.035 -11.246,-0.114 -11.433,-0.269 -0.213,-0.177 -0.254,-1.271 -0.213,-5.689 l 0.052,-5.47 10.267,-0.05 10.268,-0.051 -0.054,-3.257 -0.053,-3.257 -10.106,-0.05 c -7.789,-0.039 -10.142,-0.106 -10.26,-0.292 -0.286,-0.45 -0.192,-8.824 0.102,-9.068 0.183,-0.152 3.499,-0.232 11.138,-0.267 l 10.877,-0.05 0,-3.113 0,-3.113 -14.932,-0.097 c -8.213,-0.054 -15.02,-0.069 -15.127,-0.033 m -364.202,20.266 0,20.233 3.454,0.024 c 3.329,0.022 3.97,0.004 4.095,-0.116 0.031,-0.031 0.053,-8.986 0.048,-19.901 -0.005,-10.914 -0.009,-19.986 -0.009,-20.159 0,-0.279 -0.43,-0.314 -3.794,-0.314 l -3.794,0 0,20.233 m 16.343,0 0,20.233 3.599,0 3.599,0 0,-12.915 c 0,-12.879 10e-4,-12.915 0.401,-13.019 0.265,-0.07 0.442,0.005 0.521,0.22 0.066,0.179 0.323,0.596 0.572,0.927 0.248,0.332 0.452,0.657 0.452,0.725 0,0.067 0.612,1.084 1.362,2.259 0.749,1.175 1.361,2.221 1.361,2.324 0,0.102 0.066,0.216 0.146,0.251 0.158,0.07 1.216,1.646 1.216,1.81 0,0.055 0.394,0.714 0.876,1.465 0.481,0.751 0.875,1.445 0.875,1.542 0,0.097 0.069,0.206 0.153,0.242 0.209,0.089 1.793,2.634 1.793,2.881 0,0.109 0.087,0.199 0.194,0.199 0.107,0 0.195,0.101 0.195,0.225 0,0.123 0.219,0.512 0.486,0.862 0.268,0.351 0.487,0.687 0.487,0.746 0,0.06 0.394,0.723 0.875,1.474 0.482,0.752 0.876,1.446 0.876,1.543 0,0.097 0.065,0.205 0.145,0.241 0.176,0.078 1.216,1.654 1.216,1.842 0,0.072 0.219,0.418 0.487,0.769 0.267,0.351 0.486,0.731 0.486,0.845 0,0.114 0.088,0.208 0.195,0.208 0.107,0 0.194,0.084 0.194,0.188 0,0.103 0.266,0.606 0.59,1.118 l 0.59,0.931 3.35,0.097 c 1.842,0.054 3.678,0.071 4.079,0.037 l 0.73,-0.06 0,-20.222 0,-20.221 -3.599,0 -3.6,0 0,13.315 c 0,7.323 -0.074,13.361 -0.165,13.418 -0.3,0.185 -2.169,-2.157 -2.169,-2.718 0,-0.056 -0.09,-0.208 -0.2,-0.337 -0.192,-0.226 -1.97,-3.132 -2.408,-3.934 -0.117,-0.216 -0.41,-0.667 -0.651,-1.003 -0.241,-0.336 -0.438,-0.707 -0.438,-0.824 0,-0.117 -0.087,-0.213 -0.194,-0.213 -0.107,0 -0.195,-0.092 -0.195,-0.204 0,-0.112 -0.306,-0.683 -0.681,-1.268 -0.374,-0.586 -0.681,-1.113 -0.681,-1.171 0,-0.059 -0.219,-0.394 -0.486,-0.745 -0.268,-0.35 -0.486,-0.738 -0.486,-0.862 0,-0.124 -0.088,-0.225 -0.195,-0.225 -0.107,0 -0.195,-0.101 -0.195,-0.225 0,-0.123 -0.218,-0.511 -0.486,-0.862 -0.267,-0.351 -0.486,-0.686 -0.486,-0.744 0,-0.059 -0.307,-0.586 -0.681,-1.171 -0.375,-0.586 -0.681,-1.157 -0.681,-1.269 0,-0.112 -0.088,-0.204 -0.195,-0.204 -0.107,0 -0.194,-0.093 -0.194,-0.207 0,-0.114 -0.219,-0.495 -0.487,-0.845 -0.267,-0.351 -0.486,-0.694 -0.486,-0.764 0,-0.069 -0.394,-0.74 -0.876,-1.491 -0.481,-0.751 -0.875,-1.445 -0.875,-1.542 0,-0.097 -0.074,-0.206 -0.165,-0.241 -0.091,-0.036 -0.385,-0.459 -0.653,-0.941 -0.269,-0.481 -0.741,-1.291 -1.05,-1.799 l -0.561,-0.924 -3.941,0 -3.941,0 0,20.233 m 77.281,-17.073 0.053,3.163 5.723,0.051 c 3.826,0.035 5.809,0.123 5.983,0.267 0.212,0.177 0.259,3.246 0.259,16.999 l 0,16.784 0.633,0.07 c 0.347,0.038 2.12,0.026 3.939,-0.028 l 3.308,-0.097 0.049,-16.713 c 0.036,-11.845 0.113,-16.788 0.265,-16.972 0.169,-0.203 1.484,-0.27 6.079,-0.31 l 5.863,-0.051 0,-3.113 0,-3.113 -16.104,-0.05 -16.104,-0.05 0.054,3.163 m 37.894,17.073 0,20.233 3.988,0 3.988,0 0,-20.233 0,-20.233 -3.988,0 -3.988,0 0,20.233 m 13.618,-17.023 0,3.21 5.813,0 c 4.634,0 5.857,0.053 6.03,0.262 0.156,0.187 0.232,5.02 0.267,16.974 l 0.05,16.713 3.891,0 3.891,0 0.05,-16.713 c 0.035,-11.954 0.111,-16.787 0.267,-16.974 0.173,-0.209 1.397,-0.262 6.03,-0.262 l 5.813,0 0,-3.21 0,-3.21 -16.051,0 -16.051,0 0,3.21 m 38.262,-3.081 c -0.197,0.198 -0.13,25.164 0.074,27.497 0.324,3.703 0.426,4.48 0.599,4.587 0.094,0.058 0.171,0.274 0.171,0.48 0,0.645 1.676,3.566 2.626,4.576 0.975,1.037 4.718,3.197 5.539,3.197 0.204,0 0.419,0.077 0.477,0.171 0.405,0.655 12.741,0.66 13.429,0.005 0.102,-0.096 0.308,-0.176 0.457,-0.176 0.322,0 2.536,-0.936 2.763,-1.168 0.054,-0.055 0.477,-0.345 0.94,-0.646 2.038,-1.321 3.573,-3.438 4.258,-5.87 0.706,-2.51 0.717,-2.763 0.789,-17.855 l 0.07,-14.936 -3.855,0.053 -3.855,0.053 -0.122,14.202 c -0.074,8.588 -0.199,14.472 -0.318,14.883 -1.121,3.889 -3.212,5.33 -7.732,5.33 -4.016,0 -7.879,-2.322 -7.879,-4.737 0,-0.176 -0.109,-0.43 -0.243,-0.563 -0.189,-0.189 -0.256,-3.46 -0.299,-14.728 l -0.056,-14.484 -3.851,0 c -2.119,0 -3.91,0.058 -3.982,0.129 m 138.781,20.104 0,20.233 8.901,0.026 c 9.855,0.027 10.424,0.015 11.819,-0.254 0.535,-0.103 1.302,-0.235 1.704,-0.292 0.402,-0.057 0.779,-0.183 0.838,-0.278 0.059,-0.096 0.254,-0.174 0.433,-0.174 0.293,0 2.328,-0.925 2.57,-1.168 0.053,-0.054 0.342,-0.224 0.64,-0.378 0.9,-0.464 3.695,-3.529 4.313,-4.729 0.317,-0.615 0.646,-1.118 0.73,-1.118 0.084,0 0.154,-0.11 0.154,-0.243 0.001,-0.134 0.277,-0.944 0.615,-1.8 1.941,-4.924 1.94,-15.23 -0.003,-19.65 -0.662,-1.507 -1.683,-3.513 -1.815,-3.567 -0.088,-0.035 -0.159,-0.189 -0.159,-0.341 0,-0.671 -3.754,-4.068 -5.351,-4.842 -1.888,-0.915 -2.147,-1.015 -3.015,-1.167 -2.295,-0.402 -4.162,-0.472 -12.792,-0.481 l -9.582,-0.01 0,20.233 M 285.7,234.146 c 0.838,0.128 0.972,0.178 2.685,0.982 2.014,0.946 4.806,4.004 4.806,5.264 0,0.148 0.069,0.269 0.154,0.269 0.155,0 0.504,1.09 0.873,2.724 0.307,1.362 0.401,7.698 0.133,8.95 -1.092,5.088 -3.473,8.109 -7.678,9.744 -1.572,0.611 -5.824,0.579 -7.296,-0.056 -1.259,-0.543 -1.853,-0.848 -1.913,-0.982 -0.035,-0.08 -0.182,-0.146 -0.325,-0.146 -0.998,0 -4.068,-4.115 -4.79,-6.42 -0.887,-2.836 -0.88,-9.802 0.013,-12.697 0.905,-2.933 3.187,-5.56 5.945,-6.843 0.428,-0.199 0.931,-0.437 1.116,-0.528 0.186,-0.091 0.624,-0.167 0.973,-0.169 0.349,-0.001 0.766,-0.092 0.927,-0.201 0.288,-0.197 2.794,-0.134 4.377,0.109 m 60.125,0.775 c 0.906,0.293 1.359,0.471 2.345,0.919 0.615,0.28 2.058,1.706 2.615,2.584 0.433,0.682 0.642,1.13 1.364,2.918 0.726,1.799 0.647,12.061 -0.111,14.404 -1.079,3.335 -2.275,4.643 -5.345,5.843 -1.103,0.432 -10.732,0.679 -11.45,0.294 l -0.418,-0.224 0,-13.407 c 0,-12.558 0.021,-13.421 0.34,-13.623 0.551,-0.348 9.439,-0.105 10.66,0.292 M 74.027,284.814 c -0.321,0.088 -1.038,0.17 -1.593,0.182 -0.556,0.013 -1.064,0.111 -1.13,0.218 -0.067,0.107 -0.324,0.195 -0.572,0.195 -0.986,0 -4.324,1.562 -5.849,2.737 -2.03,1.565 -4.296,4.194 -4.978,5.774 -0.15,0.348 -0.339,0.633 -0.419,0.633 -0.081,0 -0.147,0.096 -0.147,0.213 0,0.209 -0.439,1.298 -0.795,1.973 -0.098,0.185 -0.178,0.515 -0.178,0.732 0,0.217 -0.079,0.546 -0.174,0.732 -1.011,1.963 -1.195,10.51 -0.302,14.054 0.175,0.695 0.363,1.549 0.418,1.897 0.055,0.347 0.178,0.632 0.274,0.632 0.095,0 0.173,0.129 0.173,0.287 0,0.593 1.781,3.974 2.189,4.155 0.08,0.036 0.145,0.148 0.145,0.249 0,0.754 3.946,4.175 5.934,5.144 0.428,0.208 0.808,0.445 0.843,0.525 0.036,0.08 0.277,0.146 0.535,0.146 0.259,0 0.471,0.087 0.471,0.194 0,0.107 0.164,0.195 0.365,0.195 0.201,0 0.68,0.131 1.064,0.292 0.384,0.16 0.946,0.292 1.249,0.292 0.303,0 0.653,0.102 0.778,0.226 0.296,0.297 8.685,0.325 9.499,0.032 0.311,-0.112 1.091,-0.357 1.733,-0.545 4.282,-1.254 8.145,-4.131 10.148,-7.558 0.549,-0.939 1.615,-3.247 1.739,-3.764 0.073,-0.303 0.196,-0.638 0.275,-0.745 0.244,-0.331 0.649,-2.717 1.001,-5.886 0.244,-2.203 0.123,-4.356 -0.436,-7.733 -0.106,-0.642 -0.243,-1.496 -0.303,-1.898 -0.061,-0.402 -0.189,-0.779 -0.285,-0.839 -0.095,-0.059 -0.174,-0.228 -0.174,-0.376 0,-1.774 -4.802,-8.436 -6.459,-8.962 -0.193,-0.061 -0.35,-0.193 -0.35,-0.292 0,-0.1 -0.131,-0.182 -0.292,-0.182 -0.16,0 -0.292,-0.087 -0.292,-0.194 0,-0.107 -0.12,-0.195 -0.268,-0.195 -0.147,0 -0.377,-0.131 -0.51,-0.292 -0.133,-0.16 -0.406,-0.292 -0.607,-0.292 -0.201,0 -0.366,-0.087 -0.366,-0.194 0,-0.107 -0.16,-0.195 -0.356,-0.195 -0.197,0 -0.414,-0.056 -0.483,-0.126 -0.201,-0.201 -2.138,-0.833 -2.575,-0.84 -0.219,-0.004 -0.482,-0.086 -0.584,-0.184 -0.372,-0.357 -7.305,-0.703 -8.356,-0.417 m 303.502,0 c -0.321,0.088 -1.038,0.17 -1.593,0.182 -0.556,0.013 -1.064,0.111 -1.131,0.218 -0.066,0.107 -0.374,0.195 -0.685,0.195 -0.503,0 -1.366,0.291 -2.376,0.802 -0.186,0.093 -0.47,0.17 -0.632,0.17 -0.162,0 -0.295,0.088 -0.295,0.195 0,0.107 -0.116,0.194 -0.257,0.194 -0.48,0 -3.142,1.975 -4.383,3.252 -1.802,1.854 -4.309,6.054 -4.309,7.218 0,0.221 -0.088,0.457 -0.195,0.523 -0.107,0.066 -0.194,0.372 -0.194,0.679 0,0.308 -0.087,0.789 -0.194,1.068 -0.802,2.111 -0.806,10.325 -0.006,12.62 0.11,0.316 0.2,0.818 0.2,1.117 0,0.299 0.087,0.597 0.194,0.664 0.107,0.066 0.195,0.273 0.195,0.461 0,0.584 1.785,4.214 2.457,4.996 0.259,0.301 0.745,0.904 1.079,1.339 1.112,1.444 3.606,3.297 5.802,4.31 1.458,0.673 3.261,1.25 3.901,1.249 0.273,-0.001 0.598,0.101 0.723,0.225 0.323,0.324 8.908,0.328 9.231,0.005 0.127,-0.127 0.454,-0.231 0.727,-0.23 3.86,0.007 10.064,-4.873 12.243,-9.632 0.245,-0.535 0.57,-1.22 0.721,-1.523 0.151,-0.303 0.275,-0.758 0.275,-1.01 0,-0.253 0.076,-0.506 0.169,-0.564 0.093,-0.057 0.216,-0.519 0.273,-1.026 0.057,-0.507 0.2,-0.954 0.317,-0.994 0.367,-0.122 0.292,-11.272 -0.078,-11.642 -0.16,-0.161 -0.292,-0.631 -0.292,-1.045 0,-0.414 -0.087,-0.807 -0.194,-0.873 -0.107,-0.066 -0.195,-0.291 -0.195,-0.5 0,-0.209 -0.083,-0.533 -0.185,-0.718 -0.102,-0.186 -0.33,-0.688 -0.506,-1.116 -0.601,-1.457 -0.767,-1.751 -1.898,-3.36 -1.573,-2.237 -5.291,-5.47 -6.312,-5.488 -0.133,-0.003 -0.243,-0.092 -0.243,-0.199 0,-0.107 -0.176,-0.195 -0.391,-0.195 -0.216,0 -0.544,-0.077 -0.73,-0.17 -0.942,-0.477 -1.856,-0.802 -2.251,-0.802 -0.243,0 -0.524,-0.08 -0.626,-0.178 -0.372,-0.357 -7.305,-0.703 -8.356,-0.417 m -372.86,21.027 0,20.432 3.94,-0.053 3.94,-0.053 0.05,-8.552 c 0.033,-5.587 0.121,-8.623 0.253,-8.755 0.131,-0.131 3.18,-0.237 8.607,-0.3 l 8.405,-0.097 0,-3.113 0,-3.113 -8.349,-0.05 c -5.832,-0.036 -8.427,-0.117 -8.612,-0.27 -0.212,-0.176 -0.253,-1.165 -0.212,-5.008 l 0.052,-4.788 9.971,-0.051 9.971,-0.05 0,-3.306 0,-3.305 -14.008,0 -14.008,0 0,20.432 m 117.899,-0.004 0,20.428 3.697,0 3.696,0 0.003,-15.321 c 0.001,-8.427 0.056,-15.522 0.122,-15.767 0.138,-0.518 0.529,-0.472 0.615,0.073 0.032,0.205 0.135,0.548 0.23,0.762 0.094,0.214 0.214,0.651 0.268,0.972 0.053,0.321 0.241,1.109 0.418,1.751 0.177,0.642 0.398,1.518 0.49,1.946 0.221,1.027 0.485,2.078 0.881,3.502 0.178,0.642 0.367,1.496 0.42,1.898 0.053,0.402 0.174,0.779 0.27,0.838 0.096,0.059 0.174,0.332 0.174,0.605 0,0.274 0.141,0.947 0.313,1.497 0.57,1.823 0.66,2.189 0.66,2.703 0,0.28 0.087,0.564 0.194,0.63 0.107,0.066 0.195,0.344 0.195,0.618 0,0.273 0.141,0.947 0.313,1.496 0.57,1.823 0.66,2.19 0.66,2.704 0,0.28 0.087,0.563 0.194,0.63 0.107,0.066 0.195,0.344 0.195,0.617 0,0.274 0.141,0.947 0.313,1.497 0.57,1.823 0.66,2.189 0.66,2.703 0,0.28 0.087,0.564 0.194,0.63 0.107,0.066 0.195,0.344 0.195,0.618 0,0.273 0.152,0.925 0.337,1.447 l 0.338,0.951 3.602,-0.003 c 4.415,-0.004 4.064,0.193 4.676,-2.624 0.093,-0.428 0.258,-1.128 0.365,-1.556 0.108,-0.428 0.31,-1.231 0.449,-1.784 0.139,-0.553 0.318,-1.071 0.398,-1.151 0.08,-0.08 0.146,-0.476 0.146,-0.88 0,-0.404 0.078,-0.782 0.173,-0.841 0.095,-0.059 0.214,-0.393 0.263,-0.741 0.124,-0.873 0.547,-2.509 0.754,-2.918 0.095,-0.186 0.172,-0.64 0.172,-1.01 0,-0.369 0.078,-0.72 0.174,-0.779 0.096,-0.059 0.219,-0.437 0.274,-0.839 0.121,-0.889 0.508,-2.359 0.742,-2.819 0.095,-0.186 0.172,-0.53 0.172,-0.765 0,-0.234 0.079,-0.695 0.176,-1.024 0.488,-1.65 1.12,-4.056 1.282,-4.877 0.301,-1.532 0.493,-2.274 0.676,-2.617 0.11,-0.205 0.2,-0.637 0.2,-0.958 0,-0.322 0.088,-0.639 0.195,-0.705 0.107,-0.067 0.194,-0.383 0.194,-0.703 0,-0.486 0.408,-1.578 0.717,-1.918 0.376,-0.415 0.445,2.07 0.448,16 l 0.003,15.52 3.55,-0.053 3.551,-0.053 0,-20.33 0,-20.331 -6.08,-0.052 -6.08,-0.051 0,0.478 c 0,0.262 -0.078,0.526 -0.174,0.585 -0.095,0.059 -0.219,0.436 -0.275,0.838 -0.141,1.017 -0.591,2.712 -0.767,2.887 -0.08,0.081 -0.145,0.433 -0.145,0.783 0,0.351 -0.088,0.691 -0.195,0.758 -0.107,0.066 -0.195,0.304 -0.195,0.529 0,0.457 -0.531,2.399 -0.799,2.921 -0.095,0.186 -0.173,0.597 -0.173,0.913 0,0.316 -0.079,0.623 -0.174,0.682 -0.096,0.059 -0.219,0.437 -0.274,0.839 -0.122,0.889 -0.509,2.359 -0.742,2.819 -0.095,0.186 -0.172,0.597 -0.172,0.913 0,0.316 -0.078,0.623 -0.174,0.682 -0.096,0.059 -0.22,0.436 -0.275,0.838 -0.055,0.402 -0.251,1.213 -0.435,1.801 -0.184,0.589 -0.376,1.399 -0.427,1.801 -0.051,0.402 -0.17,0.779 -0.266,0.838 -0.096,0.06 -0.174,0.292 -0.174,0.517 0,0.457 -0.532,2.399 -0.799,2.921 -0.096,0.186 -0.174,0.643 -0.174,1.015 0,0.851 -0.637,1.318 -0.964,0.706 -0.112,-0.209 -0.203,-0.599 -0.203,-0.867 0,-0.268 -0.079,-0.536 -0.174,-0.595 -0.096,-0.059 -0.217,-0.436 -0.27,-0.838 -0.052,-0.402 -0.245,-1.213 -0.428,-1.801 -0.183,-0.589 -0.374,-1.333 -0.425,-1.654 -0.05,-0.321 -0.167,-0.759 -0.258,-0.973 -0.092,-0.214 -0.213,-0.608 -0.269,-0.875 -0.262,-1.25 -0.622,-2.511 -0.754,-2.643 -0.08,-0.08 -0.146,-0.432 -0.146,-0.783 0,-0.35 -0.087,-0.691 -0.194,-0.757 -0.107,-0.066 -0.195,-0.404 -0.195,-0.751 0,-0.347 -0.078,-0.714 -0.174,-0.815 -0.096,-0.102 -0.276,-0.623 -0.4,-1.158 -0.125,-0.535 -0.305,-1.279 -0.401,-1.653 -0.096,-0.375 -0.262,-1.032 -0.368,-1.46 -0.106,-0.428 -0.339,-1.259 -0.517,-1.848 -0.178,-0.588 -0.363,-1.333 -0.412,-1.654 -0.049,-0.321 -0.164,-0.758 -0.256,-0.972 -0.091,-0.214 -0.212,-0.608 -0.269,-0.876 -0.262,-1.25 -0.622,-2.51 -0.754,-2.643 -0.08,-0.08 -0.146,-0.437 -0.146,-0.794 l 0,-0.648 -6.225,0 -6.226,0 0,20.428 m 67.315,0.001 0,20.429 15.419,-0.05 15.418,-0.05 0.053,-3.257 0.054,-3.257 -11.435,-0.05 -11.435,-0.05 0,-5.74 0,-5.739 10.166,-0.05 10.165,-0.051 0,-3.304 0,-3.304 -10.165,-0.05 -10.166,-0.05 0,-4.572 0,-4.572 11.041,-0.051 11.041,-0.05 0,-3.306 0,-3.305 -15.078,0 -15.078,0 0,20.429 m 57.677,-20.186 c -0.05,0.134 -0.07,9.304 -0.042,20.379 l 0.05,20.136 3.545,0.053 3.546,0.053 0.054,-13.12 c 0.029,-7.217 0.128,-13.194 0.218,-13.283 0.207,-0.203 1.121,0.871 1.608,1.888 0.202,0.422 0.433,0.768 0.514,0.769 0.08,0.001 0.145,0.096 0.145,0.21 0,0.114 0.219,0.494 0.487,0.845 0.267,0.351 0.486,0.705 0.486,0.788 0,0.082 0.307,0.567 0.681,1.077 0.375,0.511 0.681,0.981 0.681,1.046 0,0.065 0.394,0.732 0.876,1.484 0.481,0.751 0.875,1.414 0.875,1.474 0,0.059 0.219,0.395 0.486,0.746 0.268,0.35 0.487,0.739 0.487,0.862 0,0.124 0.087,0.225 0.194,0.225 0.107,0 0.195,0.083 0.195,0.184 0,0.102 0.525,1.019 1.167,2.038 0.642,1.019 1.168,1.935 1.168,2.036 0,0.102 0.065,0.214 0.145,0.249 0.176,0.078 1.216,1.655 1.216,1.842 0,0.073 0.219,0.419 0.487,0.77 0.267,0.35 0.486,0.731 0.486,0.845 0,0.114 0.088,0.207 0.195,0.207 0.107,0 0.194,0.086 0.194,0.191 0,0.105 0.701,1.294 1.557,2.642 0.856,1.349 1.556,2.494 1.556,2.546 0,0.052 0.231,0.397 0.513,0.767 l 0.512,0.671 3.914,-0.052 3.913,-0.053 0.05,-20.383 0.049,-20.384 -3.746,0.053 -3.746,0.053 -0.046,10.798 c -0.025,5.938 -0.047,11.957 -0.048,13.375 -0.003,2.16 -0.05,2.578 -0.295,2.578 -0.16,0 -0.292,-0.094 -0.292,-0.208 0,-0.114 -0.219,-0.494 -0.486,-0.845 -0.268,-0.351 -0.486,-0.693 -0.486,-0.761 0,-0.068 -0.307,-0.603 -0.681,-1.189 -0.375,-0.585 -0.681,-1.149 -0.681,-1.252 0,-0.103 -0.066,-0.217 -0.146,-0.252 -0.158,-0.07 -1.216,-1.646 -1.216,-1.81 0,-0.055 -0.394,-0.714 -0.876,-1.465 -0.481,-0.752 -0.875,-1.415 -0.875,-1.474 0,-0.06 -0.219,-0.396 -0.487,-0.746 -0.267,-0.351 -0.486,-0.693 -0.486,-0.76 0,-0.068 -0.613,-1.084 -1.362,-2.26 -0.749,-1.175 -1.362,-2.228 -1.362,-2.34 0,-0.111 -0.087,-0.202 -0.194,-0.202 -0.107,0 -0.195,-0.094 -0.195,-0.208 0,-0.114 -0.219,-0.494 -0.486,-0.845 -0.268,-0.351 -0.487,-0.692 -0.487,-0.757 0,-0.066 -0.612,-1.09 -1.361,-2.276 -0.749,-1.186 -1.362,-2.21 -1.362,-2.276 0,-0.065 -0.219,-0.406 -0.487,-0.757 -0.267,-0.351 -0.486,-0.686 -0.486,-0.746 0,-0.059 -0.378,-0.7 -0.839,-1.423 -0.462,-0.724 -0.897,-1.469 -0.967,-1.656 -0.164,-0.438 -7.861,-0.531 -8.027,-0.097 m 57.498,3.061 0,3.305 6.08,0.051 6.08,0.052 0.05,17.076 0.049,17.076 3.939,-0.053 3.939,-0.053 0.097,-17.023 0.097,-17.023 6.08,-0.052 6.08,-0.051 0,-3.305 0,-3.304 -16.245,0 -16.246,0 0,3.304 M 77.724,291.44 c 0.066,0.107 0.568,0.194 1.116,0.194 1.476,0 3.743,0.858 4.903,1.855 0.295,0.253 0.593,0.486 0.663,0.519 0.119,0.055 1.639,1.773 1.945,2.198 0.297,0.415 1.198,2.457 1.198,2.718 0,0.151 0.078,0.323 0.174,0.382 0.173,0.107 0.269,0.606 0.583,3.029 0.228,1.758 0.113,7.573 -0.155,7.841 -0.117,0.117 -0.213,0.541 -0.213,0.941 0,0.4 -0.088,0.782 -0.195,0.848 -0.107,0.066 -0.194,0.244 -0.194,0.395 0,0.357 -0.982,2.447 -1.307,2.78 -0.137,0.142 -0.25,0.333 -0.25,0.426 0,0.476 -2.621,2.711 -3.931,3.352 -4.032,1.973 -9.365,1.263 -12.411,-1.654 -1.472,-1.409 -1.748,-1.773 -2.62,-3.451 -0.64,-1.23 -0.688,-1.352 -0.688,-1.751 0,-0.217 -0.08,-0.546 -0.178,-0.732 -0.794,-1.501 -1,-6.66 -0.383,-9.579 0.215,-1.017 0.439,-2.134 0.498,-2.482 0.058,-0.349 0.184,-0.683 0.279,-0.741 0.096,-0.059 0.174,-0.238 0.174,-0.397 0,-0.792 3.182,-4.746 3.82,-4.746 0.128,0 0.262,-0.065 0.298,-0.146 0.115,-0.26 2.051,-1.216 2.463,-1.216 0.219,0 0.454,-0.087 0.52,-0.194 0.066,-0.107 0.618,-0.196 1.227,-0.198 0.609,-10e-4 1.239,-0.088 1.399,-0.191 0.382,-0.247 1.112,-0.247 1.265,0 m 304.572,0.137 c 0.695,0.054 1.347,0.176 1.449,0.272 0.102,0.096 0.353,0.174 0.557,0.174 2.03,0 6.749,5.004 6.749,7.158 0,0.193 0.078,0.435 0.174,0.537 0.879,0.931 0.879,10.918 0,11.848 -0.096,0.102 -0.174,0.344 -0.174,0.538 0,1.46 -3.035,5.523 -4.767,6.381 -0.321,0.159 -0.627,0.334 -0.681,0.39 -0.777,0.812 -7.023,1.612 -7.653,0.981 -0.114,-0.113 -0.405,-0.206 -0.648,-0.206 -0.471,0 -1.87,-0.585 -1.978,-0.827 -0.035,-0.08 -0.188,-0.146 -0.338,-0.146 -0.944,0 -4.753,-4.274 -4.753,-5.334 0,-0.157 -0.087,-0.339 -0.194,-0.405 -0.107,-0.066 -0.195,-0.329 -0.195,-0.584 0,-0.255 -0.078,-0.512 -0.174,-0.571 -0.095,-0.059 -0.215,-0.436 -0.266,-0.838 -0.051,-0.402 -0.2,-1.256 -0.333,-1.898 -0.31,-1.509 -0.199,-7.374 0.147,-7.72 0.13,-0.131 0.237,-0.565 0.237,-0.965 0,-0.401 0.088,-0.782 0.195,-0.848 0.107,-0.067 0.194,-0.284 0.194,-0.484 0,-2.087 4.795,-7.007 6.828,-7.007 0.191,0 0.402,-0.087 0.468,-0.194 0.066,-0.107 0.619,-0.201 1.228,-0.208 0.608,-0.008 1.282,-0.091 1.496,-0.186 0.214,-0.094 0.564,-0.123 0.778,-0.064 0.214,0.059 0.958,0.151 1.654,0.206 m -268.483,50.844 c -0.588,0.096 -1.464,0.23 -1.945,0.297 -0.482,0.068 -0.959,0.202 -1.061,0.298 -0.101,0.096 -0.299,0.175 -0.44,0.175 -0.14,0 -0.932,0.325 -1.76,0.722 -2.495,1.198 -4.189,3.104 -5.497,6.184 -0.446,1.05 -0.737,4.689 -0.402,5.024 0.116,0.115 0.21,0.51 0.21,0.876 0,1.642 3.133,6.064 4.632,6.54 0.235,0.074 0.427,0.217 0.427,0.317 0,0.099 0.175,0.181 0.389,0.181 0.214,0 0.389,0.088 0.389,0.195 0,0.107 0.124,0.194 0.276,0.194 0.152,0 0.524,0.123 0.827,0.274 1.302,0.647 4.305,1.672 4.901,1.672 0.216,0 0.447,0.087 0.513,0.194 0.067,0.107 0.423,0.195 0.793,0.195 0.369,0 0.824,0.077 1.01,0.171 0.408,0.208 1.851,0.601 2.723,0.742 0.348,0.056 0.682,0.18 0.741,0.276 0.058,0.095 0.298,0.173 0.533,0.173 2.565,0.001 5.393,2.84 5.122,5.142 -0.198,1.683 -1.955,4.196 -2.934,4.196 -0.166,0 -0.303,0.066 -0.304,0.146 -0.001,0.237 -1.569,0.779 -2.723,0.941 -4.882,0.686 -8.537,-0.868 -10.222,-4.346 -0.297,-0.615 -0.614,-1.27 -0.704,-1.456 -0.09,-0.186 -0.163,-0.597 -0.163,-0.913 0,-0.316 -0.109,-0.643 -0.243,-0.727 -0.256,-0.16 -3.602,-0.106 -4.308,0.07 -0.42,0.104 -2.729,0.421 -3.203,0.439 -0.546,0.02 0.616,4.936 1.358,5.739 0.094,0.102 0.17,0.295 0.17,0.429 0,0.297 1.276,2.141 2.17,3.137 1.121,1.248 4.048,3.156 4.841,3.156 0.198,0 0.413,0.087 0.48,0.194 0.066,0.107 0.3,0.195 0.52,0.195 0.22,0 0.806,0.128 1.302,0.285 3.217,1.017 12.38,0.656 13.57,-0.535 0.077,-0.076 0.286,-0.139 0.466,-0.139 0.605,0 3.066,-1.444 4.193,-2.459 1.406,-1.267 2.784,-3.649 3.361,-5.81 0.55,-2.056 0.357,-5.847 -0.391,-7.684 -0.69,-1.697 -1.112,-2.315 -2.593,-3.794 -1.3,-1.3 -3.705,-2.821 -4.46,-2.821 -0.169,0 -0.307,-0.088 -0.307,-0.195 0,-0.107 -0.15,-0.194 -0.334,-0.194 -0.302,0 -1.476,-0.37 -2.487,-0.784 -0.214,-0.088 -0.652,-0.214 -0.973,-0.28 -0.321,-0.067 -0.934,-0.209 -1.362,-0.316 -0.428,-0.107 -1.216,-0.285 -1.751,-0.395 -0.535,-0.111 -1.056,-0.282 -1.157,-0.38 -0.102,-0.099 -0.431,-0.18 -0.732,-0.18 -0.301,0 -0.7,-0.079 -0.886,-0.175 -0.185,-0.097 -0.731,-0.287 -1.213,-0.423 -0.481,-0.137 -1.094,-0.356 -1.362,-0.488 -0.267,-0.133 -0.832,-0.393 -1.255,-0.578 -0.832,-0.365 -2.052,-1.533 -2.052,-1.965 0,-0.147 -0.107,-0.438 -0.237,-0.646 -0.186,-0.298 -0.186,-0.57 -0.002,-1.258 1.231,-4.603 11.718,-4.895 13.832,-0.385 0.146,0.313 0.337,0.71 0.424,0.884 0.087,0.175 0.218,0.634 0.291,1.022 0.073,0.388 0.232,0.709 0.354,0.714 0.607,0.025 5.952,-0.072 6.544,-0.12 0.375,-0.029 0.803,-0.061 0.952,-0.069 0.498,-0.027 0.094,-3.011 -0.634,-4.684 -0.79,-1.817 -3.57,-5.058 -4.337,-5.058 -0.126,0 -0.258,-0.07 -0.294,-0.154 -0.098,-0.235 -2.262,-1.208 -2.685,-1.208 -0.204,0 -0.426,-0.088 -0.492,-0.195 -0.066,-0.107 -0.404,-0.194 -0.751,-0.194 -0.347,0 -0.725,-0.095 -0.841,-0.211 -0.272,-0.272 -7.355,-0.408 -8.817,-0.17 m 53.113,0.004 c -2.478,0.347 -2.932,0.437 -3.031,0.597 -0.058,0.093 -0.268,0.169 -0.468,0.169 -1.624,0 -8.562,4.778 -8.563,5.898 0,0.087 -0.217,0.443 -0.482,0.791 -0.612,0.801 -1.853,3.172 -1.853,3.539 0,0.153 -0.077,0.277 -0.172,0.277 -0.095,0 -0.219,0.241 -0.274,0.536 -0.056,0.294 -0.248,1.06 -0.427,1.702 -1.049,3.772 -1.05,11.157 -0.002,14.689 0.175,0.588 0.363,1.245 0.418,1.459 0.173,0.671 0.904,2.262 1.699,3.699 0.697,1.258 4.034,4.949 4.482,4.956 0.099,10e-4 0.318,0.125 0.487,0.275 0.364,0.323 1.843,1.157 3.368,1.898 0.186,0.09 0.472,0.164 0.635,0.164 0.164,0 0.449,0.077 0.635,0.172 2.263,1.149 9.643,1.445 12.887,0.516 0.481,-0.138 1.269,-0.365 1.751,-0.503 0.481,-0.139 0.958,-0.325 1.06,-0.413 0.38,-0.331 0.968,-0.136 2.16,0.714 0.675,0.482 1.273,0.876 1.328,0.876 0.056,0 0.654,0.385 1.327,0.855 0.674,0.471 1.751,1.091 2.393,1.379 0.642,0.288 1.319,0.603 1.505,0.701 0.812,0.427 1.876,-0.157 1.893,-1.038 0.004,-0.188 0.094,-0.341 0.201,-0.341 0.107,0 0.195,-0.157 0.195,-0.35 0,-0.193 0.082,-0.433 0.183,-0.535 0.332,-0.336 1.544,-2.887 1.446,-3.045 -0.053,-0.086 -0.26,-0.155 -0.462,-0.155 -0.201,0 -0.42,-0.088 -0.486,-0.195 -0.066,-0.107 -0.248,-0.194 -0.405,-0.194 -0.156,0 -0.631,-0.219 -1.054,-0.487 -0.424,-0.267 -0.862,-0.486 -0.973,-0.486 -0.192,0 -1.737,-0.937 -1.946,-1.18 -0.053,-0.062 -0.25,-0.17 -0.437,-0.239 -0.618,-0.228 0.046,-2.094 0.867,-2.44 0.085,-0.036 0.154,-0.189 0.154,-0.34 0,-0.152 0.077,-0.276 0.172,-0.276 0.094,0 0.22,-0.153 0.279,-0.34 0.059,-0.188 0.277,-0.647 0.484,-1.022 1.827,-3.301 2.524,-7.534 2.267,-13.766 -0.072,-1.739 -0.209,-3.211 -0.305,-3.27 -0.095,-0.059 -0.173,-0.372 -0.173,-0.696 0,-0.691 -0.86,-3.381 -1.545,-4.836 -0.25,-0.531 -0.885,-1.652 -0.992,-1.751 -0.058,-0.053 -0.276,-0.37 -0.486,-0.703 -0.685,-1.087 -2.286,-2.807 -3.29,-3.534 -0.541,-0.391 -1.027,-0.766 -1.08,-0.833 -0.259,-0.326 -4.083,-2.128 -4.514,-2.128 -0.15,0 -0.355,-0.079 -0.457,-0.175 -0.18,-0.17 -0.478,-0.224 -3.298,-0.595 -1.606,-0.211 -5.581,-0.209 -7.101,0.004 m 209.533,0.01 c -0.588,0.088 -1.443,0.216 -1.898,0.284 -0.455,0.068 -0.876,0.202 -0.936,0.298 -0.059,0.095 -0.314,0.174 -0.566,0.174 -0.253,0 -0.707,0.123 -1.01,0.273 -0.303,0.151 -0.814,0.39 -1.135,0.532 -0.561,0.248 -2.036,1.127 -2.237,1.334 -0.053,0.055 -0.404,0.33 -0.778,0.61 -1.001,0.75 -2.363,2.126 -2.918,2.948 -0.268,0.396 -0.552,0.721 -0.633,0.722 -0.08,0 -0.146,0.121 -0.146,0.269 0,0.147 -0.124,0.371 -0.277,0.498 -0.437,0.363 -1.858,3.432 -2.211,4.779 -0.526,2.003 -0.612,2.398 -0.714,3.307 -0.061,0.535 -0.171,1.367 -0.244,1.848 -0.329,2.153 -0.008,7.833 0.523,9.227 0.11,0.289 0.2,0.778 0.2,1.086 0,0.307 0.087,0.613 0.194,0.68 0.107,0.066 0.197,0.312 0.201,0.546 0.003,0.234 0.221,0.864 0.484,1.399 0.264,0.535 0.48,1.039 0.481,1.12 0.008,0.712 3.237,4.744 4.79,5.982 1.335,1.064 4.047,2.495 5.523,2.912 0.481,0.136 1.269,0.361 1.751,0.499 3.243,0.929 11.649,0.568 12.766,-0.549 0.076,-0.076 0.293,-0.139 0.48,-0.139 1.559,0 6.171,-3.342 7.919,-5.739 0.39,-0.535 0.756,-1.017 0.813,-1.07 0.163,-0.153 0.554,-0.822 0.853,-1.46 0.949,-2.022 1.293,-2.875 1.293,-3.204 0,-0.204 0.088,-0.426 0.195,-0.492 0.107,-0.066 0.194,-0.405 0.194,-0.753 0,-0.347 0.129,-0.802 0.286,-1.009 0.423,-0.56 0.423,-11.48 0,-12.04 -0.157,-0.208 -0.286,-0.625 -0.286,-0.927 0,-0.302 -0.075,-0.701 -0.168,-0.887 -0.093,-0.185 -0.274,-0.644 -0.404,-1.018 -0.559,-1.621 -0.897,-2.437 -1.033,-2.497 -0.08,-0.036 -0.146,-0.147 -0.146,-0.248 0,-0.736 -4.688,-6.205 -5.318,-6.205 -0.067,0 -0.583,-0.287 -1.147,-0.638 -0.564,-0.351 -1.244,-0.736 -1.511,-0.856 -1.545,-0.69 -1.934,-0.84 -2.179,-0.84 -0.15,0 -0.356,-0.079 -0.457,-0.175 -0.102,-0.096 -0.535,-0.224 -0.964,-0.284 -0.428,-0.061 -1.391,-0.197 -2.14,-0.302 -1.604,-0.226 -5.964,-0.223 -7.49,0.005 m -371.742,20.736 0.05,20.389 3.891,0 3.891,0 0.097,-7.685 0.097,-7.684 5.739,-0.11 c 5.389,-0.103 8.612,-0.383 9.037,-0.786 0.102,-0.096 0.34,-0.174 0.53,-0.174 0.189,0 0.631,-0.161 0.982,-0.357 0.351,-0.197 1.042,-0.582 1.535,-0.857 3.391,-1.888 5.1,-5.425 5.1,-10.557 0,-4.691 -0.786,-6.728 -3.662,-9.497 -2.762,-2.658 -3.961,-2.864 -17.365,-2.983 l -9.972,-0.088 0.05,20.389 m 49.174,0.06 0,20.429 15.516,-0.05 15.515,-0.05 0.054,-3.258 0.053,-3.259 -11.143,-0.003 c -6.129,-0.001 -11.34,-0.055 -11.581,-0.12 l -0.437,-0.117 0,-5.501 c 0,-4.837 0.037,-5.516 0.307,-5.62 0.17,-0.065 4.854,-0.118 10.409,-0.118 l 10.101,0 0,-3.307 0,-3.308 -10.101,0 c -5.555,0 -10.239,-0.053 -10.409,-0.118 -0.4,-0.153 -0.47,-8.785 -0.074,-9.181 0.176,-0.176 2.905,-0.234 11.09,-0.234 l 10.856,0 0,-3.307 0,-3.307 -15.078,0 -15.078,0 0,20.429 m 154.357,-6.081 c 0.09,14.166 0.172,16.895 0.523,17.257 0.098,0.101 0.178,0.427 0.178,0.724 0,2.966 4.323,7.217 8.593,8.451 3.912,1.13 13.21,0.91 14.647,-0.346 0.101,-0.089 0.386,-0.162 0.632,-0.162 0.246,0 0.447,-0.068 0.447,-0.152 0,-0.084 0.241,-0.252 0.536,-0.375 1.725,-0.721 4.183,-3.099 4.986,-4.823 0.3,-0.642 0.624,-1.32 0.721,-1.505 0.098,-0.186 0.178,-0.554 0.178,-0.818 0,-0.264 0.087,-0.681 0.193,-0.927 0.466,-1.074 0.651,-5.848 0.716,-18.492 l 0.069,-13.18 -3.991,0 -3.991,0 0,12.998 c 0,18.403 -0.164,19.233 -4.179,21.122 -1.924,0.905 -8.467,0.661 -8.467,-0.317 0,-0.08 -0.129,-0.146 -0.287,-0.146 -0.475,0 -2.168,-1.78 -2.685,-2.821 -0.975,-1.966 -0.969,-1.856 -1.058,-16.78 l -0.085,-14.056 -3.883,0 -3.884,0 0.091,14.348 m 52.5,6.031 0.05,20.379 15.369,0 15.37,0 0.053,-3.258 0.054,-3.259 -11.205,0 c -7.351,0 -11.333,-0.069 -11.58,-0.202 -0.524,-0.28 -0.59,-10.452 -0.071,-10.971 0.27,-0.27 1.484,-0.306 10.409,-0.306 l 10.103,0 0,-3.307 0,-3.308 -10.208,0 c -9.892,0 -10.213,-0.011 -10.408,-0.376 -0.259,-0.483 -0.269,-7.982 -0.012,-8.658 l 0.19,-0.499 10.9,0 10.899,0 0,-3.307 0,-3.307 -14.981,0 -14.981,0 0.049,20.379 m 49.222,-0.009 0.049,20.388 3.94,0.053 3.94,0.053 0,-8.444 c 0,-7.23 0.041,-8.477 0.289,-8.683 0.383,-0.318 5.435,0.048 5.659,0.411 0.058,0.094 0.254,0.172 0.435,0.174 0.181,10e-4 0.6,0.242 0.932,0.535 0.332,0.292 0.835,0.706 1.119,0.918 0.283,0.213 0.515,0.454 0.515,0.535 0,0.081 0.307,0.473 0.681,0.87 0.375,0.397 0.681,0.795 0.681,0.884 0,0.09 0.219,0.399 0.486,0.687 0.268,0.289 0.487,0.635 0.487,0.77 0,0.135 0.087,0.245 0.194,0.245 0.107,0 0.195,0.091 0.195,0.203 0,0.111 0.09,0.308 0.2,0.438 0.481,0.563 3.496,5.042 3.496,5.192 0,0.091 0.066,0.195 0.146,0.231 0.143,0.063 2.403,3.38 2.561,3.758 0.044,0.105 0.175,0.299 0.292,0.431 0.116,0.131 0.324,0.374 0.462,0.538 0.272,0.324 9.253,0.466 9.449,0.15 0.05,-0.082 -0.645,-1.309 -1.545,-2.728 -0.9,-1.419 -1.637,-2.658 -1.637,-2.753 0,-0.096 -0.066,-0.204 -0.146,-0.239 -0.175,-0.078 -1.216,-1.655 -1.216,-1.842 0,-0.073 -0.219,-0.419 -0.486,-0.77 -0.268,-0.35 -0.487,-0.731 -0.487,-0.845 0,-0.114 -0.087,-0.207 -0.194,-0.207 -0.107,0 -0.195,-0.091 -0.195,-0.202 0,-0.596 -3.665,-5.189 -4.82,-6.041 -0.35,-0.258 -0.875,-0.666 -1.167,-0.907 -0.292,-0.241 -0.592,-0.438 -0.668,-0.438 -0.245,0 -0.922,-0.832 -0.817,-1.002 0.056,-0.091 0.338,-0.168 0.626,-0.172 0.531,-0.006 2.469,-0.61 2.7,-0.84 0.069,-0.069 0.33,-0.126 0.58,-0.126 0.249,0 0.454,-0.088 0.454,-0.195 0,-0.107 0.135,-0.194 0.3,-0.194 1.286,0 5.147,-4.426 5.147,-5.9 0,-0.137 0.101,-0.349 0.225,-0.473 0.152,-0.152 0.225,-1.245 0.225,-3.355 0,-2.11 -0.073,-3.203 -0.225,-3.354 -0.124,-0.124 -0.225,-0.39 -0.225,-0.591 0,-1.562 -3.922,-6.172 -5.251,-6.172 -0.111,0 -0.354,-0.077 -0.54,-0.171 -1.708,-0.868 -3.979,-1.03 -15.757,-1.122 l -11.139,-0.086 0.05,20.388 m 73.334,-13.924 c 0.181,0.093 0.483,0.168 0.672,0.168 0.45,0 2.6,0.994 2.6,1.202 0,0.088 0.121,0.16 0.268,0.16 0.874,0 4.207,4.686 4.207,5.915 0,0.235 0.078,0.511 0.174,0.612 0.096,0.102 0.224,0.535 0.284,0.963 0.061,0.428 0.194,1.304 0.296,1.946 0.238,1.498 0.242,4.366 0.007,5.739 -0.1,0.589 -0.237,1.488 -0.303,1.999 -0.066,0.51 -0.196,0.975 -0.289,1.032 -0.093,0.058 -0.169,0.28 -0.169,0.495 0,1.877 -4.158,6.98 -5.687,6.98 -0.147,0 -0.35,0.073 -0.452,0.163 -1.276,1.121 -9.022,1.107 -9.035,-0.017 -0.001,-0.08 -0.139,-0.146 -0.307,-0.146 -0.75,0 -4.364,-3.155 -4.364,-3.811 0,-0.133 -0.065,-0.271 -0.146,-0.307 -0.22,-0.098 -1.144,-2.1 -1.376,-2.983 -0.112,-0.428 -0.319,-1.216 -0.46,-1.751 -0.554,-2.111 -0.257,-9.121 0.443,-10.455 0.098,-0.185 0.177,-0.5 0.177,-0.699 0,-1.216 3.322,-5.675 4.227,-5.675 0.136,0 0.248,-0.072 0.248,-0.16 0,-0.188 1.975,-1.1 2.821,-1.303 1.6,-0.384 5.465,-0.426 6.164,-0.067 m -209.471,0.06 c 0.865,0.217 2.821,1.125 2.821,1.31 0,0.088 0.092,0.16 0.206,0.16 0.32,0 1.907,1.549 2.691,2.627 0.65,0.893 0.829,1.214 1.378,2.48 1.728,3.978 1.417,12.221 -0.598,15.851 -1.293,2.328 -1.558,2.444 -3.068,1.34 -1.688,-1.235 -5.27,-3.042 -6.013,-3.033 -0.273,0.003 -1.595,2.319 -2.34,4.098 -0.032,0.077 0.45,0.375 1.07,0.662 0.621,0.287 1.26,0.6 1.421,0.695 0.16,0.095 0.568,0.312 0.906,0.483 3.626,1.835 -2.874,2.558 -6.666,0.742 -1.296,-0.621 -3.773,-2.598 -3.773,-3.012 0,-0.103 -0.154,-0.352 -0.341,-0.554 -0.732,-0.792 -1.717,-3.251 -2.184,-5.453 -0.474,-2.239 -0.037,-10.333 0.594,-10.982 0.099,-0.102 0.18,-0.34 0.18,-0.528 0,-0.705 1.684,-3.371 2.76,-4.369 0.838,-0.778 2.777,-2.02 3.153,-2.02 0.159,0 0.344,-0.087 0.41,-0.194 0.066,-0.107 0.372,-0.195 0.681,-0.195 0.308,0 0.617,-0.092 0.687,-0.204 0.141,-0.229 5.039,-0.15 6.025,0.096 M 22.86,349.751 c 4.567,0.853 6.303,6.495 3.012,9.786 -1.548,1.548 -2.87,1.828 -8.654,1.837 l -4.475,0.007 -0.051,-5.737 c -0.029,-3.155 -0.007,-5.853 0.047,-5.995 0.116,-0.302 8.408,-0.218 10.121,0.102 m 308.268,-0.045 c 3.51,0.808 4.994,4.956 2.923,8.168 -1.317,2.043 -2.341,2.27 -9.926,2.201 l -6.129,-0.056 -0.055,-4.863 c -0.03,-2.675 -0.006,-5.064 0.054,-5.307 l 0.108,-0.443 6.172,0.072 c 3.395,0.039 6.479,0.142 6.853,0.228"
       inkscape:connector-curvature="0"
       style="fill:#6f6c6e;fill-rule:evenodd;stroke:none" />
  </g>
</svg>
