<?xml version="1.0" encoding="UTF-8" standalone="no"?>
<svg
   xmlns:dc="http://purl.org/dc/elements/1.1/"
   xmlns:cc="http://creativecommons.org/ns#"
   xmlns:rdf="http://www.w3.org/1999/02/22-rdf-syntax-ns#"
   xmlns:svg="http://www.w3.org/2000/svg"
   xmlns="http://www.w3.org/2000/svg"
   xmlns:sodipodi="http://sodipodi.sourceforge.net/DTD/sodipodi-0.dtd"
   xmlns:inkscape="http://www.inkscape.org/namespaces/inkscape"
   id="svg"
   version="1.1"
   width="362.07513"
   height="123.18916"
   viewBox="0 0 362.07513 123.18917"
   sodipodi:docname="mejillondechile.svg"
   inkscape:version="0.92.3 (2405546, 2018-03-11)"
   inkscape:export-filename="E:\WebProjects\BiblioMit\BiblioMit\wwwroot\images\ico\mejillondechileHQ.png"
   inkscape:export-xdpi="479.88"
   inkscape:export-ydpi="479.88">
  <metadata
     id="metadata10">
    <rdf:RDF>
      <cc:Work
         rdf:about="">
        <dc:format>image/svg+xml</dc:format>
        <dc:type
           rdf:resource="http://purl.org/dc/dcmitype/StillImage" />
        <dc:title></dc:title>
      </cc:Work>
    </rdf:RDF>
  </metadata>
  <defs
     id="defs8" />
  <sodipodi:namedview
     pagecolor="#ffffff"
     bordercolor="#666666"
     borderopacity="1"
     objecttolerance="10"
     gridtolerance="10"
     guidetolerance="10"
     inkscape:pageopacity="0"
     inkscape:pageshadow="2"
     inkscape:window-width="1366"
     inkscape:window-height="745"
     id="namedview6"
     showgrid="false"
     fit-margin-top="0"
     fit-margin-left="0"
     fit-margin-right="0"
     fit-margin-bottom="0"
     inkscape:zoom="0.71"
     inkscape:cx="181.83814"
     inkscape:cy="52.852663"
     inkscape:window-x="-8"
     inkscape:window-y="-8"
     inkscape:window-maximized="1"
     inkscape:current-layer="svg" />
  <g
     id="svgg"
     transform="translate(-18.161863,-62.996827)">
    <path
       id="path0"
       d="m 373.43,63.512 c -1.199,0.581 -1.419,2.06 -0.77,5.172 0.313,1.498 0.343,2.565 0.148,5.2 -0.313,4.227 -0.74,9.525 -0.934,11.583 -0.083,0.88 -0.263,3.1 -0.4,4.933 -0.137,1.833 -0.442,5.253 -0.677,7.6 -0.235,2.347 -0.527,5.407 -0.647,6.8 -0.121,1.393 -0.297,2.953 -0.392,3.467 -0.094,0.513 -0.298,2.013 -0.453,3.333 -0.598,5.109 -0.717,5.937 -1.165,8.133 -0.254,1.247 -0.517,2.627 -0.584,3.067 -0.067,0.44 -0.3,1.909 -0.517,3.264 -0.458,2.848 -0.521,8.924 -0.114,10.869 0.154,0.734 0.348,1.694 0.431,2.134 0.083,0.44 0.254,1.04 0.381,1.333 2.01,4.66 1.11,8.059 -2.936,11.091 -1.256,0.941 -1.276,2.256 -0.062,4.148 0.987,1.538 1.09,2.71 0.466,5.294 -0.947,3.923 -0.131,10.615 1.852,15.2 1.004,2.321 1.365,3.033 2.195,4.33 3.192,4.99 8.413,7.174 10.228,4.277 0.488,-0.778 0.539,-1.222 0.465,-4.073 -0.133,-5.128 -1.227,-6.839 -4.878,-7.63 -3.544,-0.767 -6.082,-5.116 -4.763,-8.161 0.972,-2.246 1.32,-3.355 1.74,-5.543 0.586,-3.054 0.7,-6.742 0.555,-17.934 -0.157,-12.186 -0.103,-13.112 0.992,-16.999 0.202,-0.716 0.456,-1.923 1.348,-6.4 0.851,-4.276 0.83,-11.487 -0.043,-14.749 -0.366,-1.369 -0.154,-2.506 1.433,-7.651 1.384,-4.488 2.316,-7.532 2.613,-8.533 1.643,-5.531 1.277,-11.354 -1.053,-16.756 -0.306,-0.709 -0.556,-1.541 -0.556,-1.849 0,-3.507 -1.901,-5.919 -3.903,-4.95 M 104.8,65.414 c -3.562,1.103 -6.213,2.787 -9.6,6.097 -12.401,12.121 -7.014,23.03 7.867,15.931 8.07,-3.851 15.6,-11.88 15.6,-16.636 0,-4.227 -7.815,-7.266 -13.867,-5.392 m -12.267,1.498 c -7.659,2.798 -14.793,8.295 -19.758,15.221 -0.473,0.66 -0.936,1.26 -1.029,1.334 -0.43,0.34 -2.675,4.151 -3.856,6.544 -1.617,3.279 -1.604,3.245 -2.867,7.582 -1.187,4.074 -0.018,10.001 2.402,12.18 6.978,6.285 20.196,1.819 33.248,-11.233 3.785,-3.785 3.992,-4.027 7.743,-9.048 1.617,-2.163 1.432,-2.589 -0.416,-0.957 -14.191,12.535 -28.143,8.973 -23.511,-6.002 1.36,-4.394 5.027,-10.164 9.263,-14.574 2.057,-2.143 1.975,-2.214 -1.219,-1.047 M 73.6,73.067 c 0,0.146 -0.129,0.266 -0.287,0.266 -0.251,0 -0.877,0.411 -3.968,2.602 -17.437,12.362 -30.029,37.069 -24.836,48.732 0.131,0.293 0.477,1.073 0.769,1.733 5.417,12.241 25.304,13.317 37.337,2.02 6.093,-5.72 10.168,-11.196 14.358,-19.294 2.306,-4.456 2.255,-4.7 -0.473,-2.292 -2.993,2.643 -3.279,2.886 -4.5,3.827 -0.66,0.509 -1.26,0.99 -1.333,1.069 -0.978,1.052 -8.051,5.227 -11.2,6.611 -13.096,5.755 -22.705,1.052 -22.705,-11.113 0,-3.515 0.953,-8.147 2.345,-11.402 0.198,-0.462 0.36,-0.919 0.36,-1.017 0,-1.241 6.809,-13.025 8.249,-14.276 0.085,-0.073 0.687,-0.853 1.339,-1.733 0.653,-0.88 2.173,-2.59 3.38,-3.8 1.588,-1.592 2.052,-2.2 1.679,-2.2 -0.283,0 -0.514,0.12 -0.514,0.267 m 219.2,21.631 c -3.615,0.342 -5.058,1.47 -6.329,4.948 -0.608,1.663 -0.737,35.528 -0.138,36.127 0.184,0.184 0.334,0.58 0.335,0.88 0.009,4.5 10.392,6.554 14.146,2.799 1.562,-1.562 2.658,-7.561 2.012,-11.01 l -0.184,-0.975 h -2.654 -2.655 v 2.653 c 0,4.725 -0.863,6.68 -2.948,6.68 -2.753,0 -2.918,-1.066 -2.918,-18.8 0,-16.643 0.17,-18.196 2.065,-18.822 2.551,-0.842 3.801,1.241 3.801,6.333 v 1.956 h 2.667 2.667 l -0.003,-3.534 c -0.006,-7.647 -2.453,-9.938 -9.864,-9.235 m -184.356,0.68 c -0.097,0.098 -0.177,10.302 -0.177,22.677 v 22.499 l 2.333,-0.077 2.333,-0.077 v -19.978 c 0,-14.902 0.079,-20.004 0.309,-20.081 0.527,-0.175 0.736,0.504 0.924,2.992 0.319,4.213 0.759,8.437 0.903,8.671 0.077,0.125 0.261,1.525 0.408,3.111 0.147,1.587 0.382,4.123 0.523,5.636 0.142,1.513 0.329,2.868 0.418,3.011 0.088,0.142 0.267,1.484 0.398,2.982 0.527,6.026 0.757,8.11 1.025,9.256 0.153,0.66 0.282,1.95 0.286,2.867 l 0.006,1.666 h 3.287 3.286 l 0.335,-3 c 0.185,-1.65 0.496,-4.32 0.693,-5.933 0.197,-1.613 0.484,-4.013 0.637,-5.333 0.282,-2.428 0.909,-7.67 1.354,-11.334 0.134,-1.1 0.442,-3.8 0.686,-6 1.439,-13.016 1.566,-12.181 1.722,11.4 l 0.134,20.067 2.335,0.077 2.334,0.077 -0.068,-22.61 -0.068,-22.611 -3.979,-0.074 c -2.189,-0.04 -4.082,0.029 -4.208,0.155 -0.21,0.21 -0.647,3.448 -1.285,9.519 -0.139,1.32 -0.438,3.9 -0.665,5.734 -0.227,1.833 -0.524,4.353 -0.66,5.6 -0.136,1.246 -0.437,3.826 -0.669,5.733 -0.231,1.907 -0.528,4.547 -0.659,5.867 -0.219,2.219 -0.366,3.237 -0.707,4.905 -0.26,1.272 -0.581,0.089 -1.005,-3.705 -0.238,-2.127 -0.547,-4.767 -0.687,-5.867 -0.139,-1.1 -0.444,-3.86 -0.676,-6.133 -0.232,-2.274 -0.533,-4.914 -0.669,-5.867 -0.135,-0.953 -0.434,-3.593 -0.663,-5.867 -0.228,-2.273 -0.533,-4.867 -0.675,-5.764 -0.143,-0.897 -0.26,-2.057 -0.26,-2.578 0,-1.838 0.119,-1.791 -4.517,-1.791 -2.307,0 -4.274,0.08 -4.372,0.178 m 52.809,-0.009 c -0.102,0.103 -0.186,1.307 -0.186,2.675 v 2.489 h 2.809 2.81 l -0.076,-2.6 -0.077,-2.6 -2.546,-0.075 c -1.401,-0.042 -2.631,0.008 -2.734,0.111 m 10.391,0.009 c -0.097,0.098 -0.177,1.298 -0.177,2.666 v 2.489 h 2.781 2.781 l 0.085,-2.414 c 0.047,-1.328 -0.028,-2.528 -0.167,-2.667 -0.285,-0.284 -5.027,-0.35 -5.303,-0.074 m 10.4,0 c -0.097,0.098 -0.177,10.302 -0.177,22.676 v 22.498 l 2.733,-0.076 2.733,-0.076 0.074,-22 c 0.04,-12.1 0.008,-22.27 -0.072,-22.6 -0.145,-0.599 -4.746,-0.966 -5.291,-0.422 m 10.41,-0.01 c -0.103,0.103 -0.187,10.308 -0.187,22.676 v 22.489 h 2.668 2.668 l -0.068,-22.6 -0.068,-22.6 -2.413,-0.076 c -1.327,-0.041 -2.497,0.009 -2.6,0.111 m 114.339,0.155 c -0.072,0.189 -0.1,10.364 -0.062,22.61 l 0.069,22.267 2.6,0.076 2.6,0.077 v -12.312 c 0,-14.796 0.155,-15.708 2.667,-15.708 2.511,0 2.666,0.913 2.666,15.698 v 12.302 h 2.682 2.682 l -0.102,-14.066 c -0.109,-15.116 -0.161,-15.71 -1.488,-16.939 -1.96,-1.816 -5.043,-1.657 -7.356,0.379 -1.739,1.53 -1.734,1.549 -1.813,-6.983 l -0.071,-7.591 -2.472,-0.076 c -1.827,-0.057 -2.505,0.012 -2.602,0.266 m 20.674,2.344 v 2.666 h 2.782 c 2.43,0 2.796,-0.059 2.891,-0.466 0.095,-0.406 0.07,-3.587 -0.036,-4.534 -0.027,-0.243 -0.795,-0.333 -2.837,-0.333 h -2.8 v 2.667 M 338.132,95.4 c 0,0.11 -0.005,10.28 -0.011,22.6 l -0.01,22.4 2.545,0.076 2.544,0.077 0.002,-0.677 c 0,-0.372 10e-4,-10.456 10e-4,-22.409 0,-11.954 -10e-4,-21.854 -10e-4,-22 -10e-4,-0.159 -1.025,-0.267 -2.535,-0.267 -1.394,0 -2.534,0.09 -2.535,0.2 M 44.561,96.736 c -6.127,7.45 -12.066,18.536 -14.106,26.331 -0.154,0.586 -0.43,1.606 -0.615,2.266 -3.897,13.945 2.128,28.116 13.835,32.544 5.875,2.221 16.274,1.738 21.827,-1.014 0.274,-0.135 0.738,-0.366 1.031,-0.512 5.144,-2.562 11.527,-8.234 15.849,-14.084 0.65,-0.88 1.257,-1.66 1.348,-1.734 0.09,-0.073 0.44,-0.586 0.777,-1.14 0.336,-0.554 0.755,-1.154 0.929,-1.333 0.395,-0.407 3.897,-5.991 3.897,-6.214 0,-0.09 0.24,-0.5 0.532,-0.91 1.226,-1.723 5.63,-10.408 5.436,-10.722 -0.088,-0.142 -0.371,0.082 -0.629,0.497 -2.743,4.417 -10.918,13.523 -15.205,16.936 -1.1,0.876 -2.207,1.76 -2.46,1.965 -2.026,1.637 -6.519,3.927 -8.869,4.521 -11.484,2.901 -20.465,1.083 -26.542,-5.371 -1.297,-1.377 -2.929,-3.578 -2.929,-3.949 0,-0.072 -0.299,-0.765 -0.664,-1.539 -4.204,-8.921 -1.391,-23.685 6.914,-36.282 C 45.57,96 45.316,95.818 44.561,96.736 m 166.712,0.813 c -0.18,0.114 -0.562,0.923 -0.849,1.796 -0.288,0.874 -0.771,2.247 -1.074,3.051 -0.796,2.117 -0.786,2.137 1.047,2.137 1.564,0 1.609,-0.02 2.2,-1.01 0.331,-0.555 0.749,-1.245 0.927,-1.533 1.236,-1.997 2.416,-4.272 2.307,-4.448 -0.167,-0.271 -4.13,-0.265 -4.558,0.007 M 145.6,108.573 c -2.957,0.698 -4.392,2.636 -4.968,6.709 -0.689,4.872 -0.383,19.625 0.449,21.651 0.12,0.294 0.293,0.8 0.385,1.126 0.973,3.481 9.44,4.466 12.625,1.469 1.6,-1.506 2.649,-5.095 2.396,-8.195 l -0.087,-1.066 -2.36,-0.078 c -3.036,-0.099 -3.01,-0.127 -3.163,3.326 -0.138,3.102 -0.669,4.085 -2.208,4.085 -2.281,0 -2.669,-0.969 -2.669,-6.667 v -4.4 l 5.055,-0.072 c 6.019,-0.087 5.47,0.401 5.472,-4.861 0.006,-10.296 -1.517,-12.995 -7.46,-13.223 -1.247,-0.048 -2.807,0.041 -3.467,0.196 m 61.951,0.057 c -4.539,1.156 -5.018,2.713 -5.018,16.303 0,11.537 0.175,12.712 2.183,14.662 3.246,3.153 11.181,2.09 12.78,-1.712 1.585,-3.769 1.62,-22.186 0.049,-25.798 -1.377,-3.165 -5.515,-4.596 -9.994,-3.455 m 24.823,-0.076 c -0.454,0.132 -1.391,0.738 -2.083,1.347 -1.299,1.143 -1.645,1.137 -1.802,-0.034 -0.087,-0.65 -0.15,-0.669 -2.556,-0.744 l -2.466,-0.076 v 15.743 15.743 h 2.533 2.533 l 0.012,-12.066 c 0.014,-14.489 0.177,-15.643 2.247,-15.888 2.72,-0.322 2.654,-0.666 2.808,14.621 l 0.133,13.2 2.734,0.076 2.733,0.076 -0.009,-13.276 c -0.011,-14.375 -0.126,-15.821 -1.4,-17.491 -1.02,-1.337 -3.28,-1.851 -5.417,-1.231 m 120.959,-0.004 c -1.991,0.574 -4,2.038 -4,2.916 0,0.235 -0.103,0.541 -0.23,0.681 -0.861,0.946 -1.15,4.793 -1.03,13.72 0.12,8.989 0.187,9.665 1.214,12.297 1.411,3.613 9.534,4.356 12.731,1.164 1.484,-1.482 1.982,-3.12 1.982,-6.521 v -2.693 l -2.6,0.076 -2.6,0.077 -0.133,2.814 c -0.181,3.818 -0.868,4.816 -3.034,4.41 -1.546,-0.291 -1.863,-1.264 -1.988,-6.092 -0.141,-5.443 -0.625,-4.999 5.454,-4.999 H 364 v -5.871 c 0,-8.13 -0.725,-10.346 -3.794,-11.597 -1.347,-0.55 -5.492,-0.78 -6.873,-0.382 m -191.858,0.84 c -0.064,0.189 -0.16,8.803 -0.213,19.143 -0.106,20.822 -0.032,19.996 -1.844,20.569 l -1.151,0.365 -0.081,1.555 c -0.108,2.087 0.123,2.311 2.372,2.311 2.263,0 4.424,-0.865 5.07,-2.029 0.997,-1.797 1.065,-3.393 0.984,-23.037 l -0.079,-19.067 -2.471,-0.077 c -1.832,-0.057 -2.501,0.012 -2.587,0.267 m 10.169,-0.146 c -0.097,0.098 -0.177,7.178 -0.177,15.734 v 15.555 h 2.8 2.8 v -15.571 c 0,-13.953 -0.044,-15.588 -0.422,-15.733 -0.573,-0.22 -4.778,-0.207 -5.001,0.015 m 156.152,0.133 c -0.254,0.254 -0.329,3.864 -0.329,15.743 v 15.413 h 2.668 2.669 l -0.069,-15.666 -0.068,-15.667 -2.271,-0.076 c -1.538,-0.052 -2.377,0.03 -2.6,0.253 m -296.329,2.207 c 0,0.229 -0.101,0.416 -0.224,0.416 -0.123,0 -0.359,0.27 -0.525,0.6 -0.165,0.33 -0.785,1.44 -1.378,2.467 -1.946,3.369 -5.873,11.526 -5.873,12.196 0,0.2 -0.107,0.478 -0.238,0.617 -0.275,0.293 -2.142,5.668 -2.45,7.053 -0.114,0.514 -0.442,1.894 -0.728,3.067 -1.614,6.614 -2.054,17.635 -0.834,20.846 0.138,0.36 0.25,0.939 0.25,1.286 0,1.767 2.749,8.56 4.696,11.606 3.802,5.945 10.058,10.719 16.37,12.492 0.514,0.144 1.654,0.468 2.534,0.72 2.19,0.626 10.543,0.632 12.533,0.007 0.733,-0.23 1.656,-0.419 2.051,-0.421 0.395,-0.001 0.792,-0.123 0.882,-0.269 0.091,-0.147 0.394,-0.267 0.674,-0.267 0.279,0 0.962,-0.197 1.517,-0.437 0.555,-0.24 1.249,-0.526 1.543,-0.635 0.633,-0.235 4.518,-2.144 5.46,-2.684 2.905,-1.662 6.952,-5.187 9.345,-8.139 1.694,-2.089 4.261,-5.615 4.261,-5.852 0,-0.08 0.415,-0.794 0.922,-1.586 1.382,-2.16 3.93,-7.312 5.473,-11.067 1.828,-4.446 3.11,-8.088 4.272,-12.133 0.126,-0.44 0.543,-1.88 0.926,-3.2 1.132,-3.905 3.074,-12.079 3.074,-12.938 0,-0.438 0.12,-0.796 0.267,-0.796 0.146,0 0.248,-0.39 0.226,-0.866 -0.035,-0.778 -0.051,-0.794 -0.149,-0.153 -0.06,0.392 -0.282,0.857 -0.493,1.032 -0.211,0.176 -0.384,0.481 -0.384,0.678 0,0.363 -0.205,0.879 -1.444,3.65 -0.379,0.847 -0.69,1.637 -0.69,1.756 0,0.657 -5.47,11.381 -6.704,13.144 -0.273,0.39 -0.496,0.788 -0.496,0.885 0,0.097 -0.3,0.57 -0.666,1.051 -0.367,0.48 -0.667,0.952 -0.667,1.048 0,0.619 -4.996,7.037 -7.584,9.744 -3.871,4.048 -9.616,7.438 -16.016,9.451 -15.188,4.778 -28.768,0.257 -34.371,-11.444 -1.442,-3.012 -1.529,-3.272 -2.536,-7.646 -0.374,-1.621 -0.382,-10.904 -0.012,-12.776 0.154,-0.781 0.459,-2.32 0.676,-3.42 0.497,-2.512 1.344,-5.642 1.985,-7.334 0.111,-0.293 0.406,-1.133 0.655,-1.866 0.249,-0.734 0.63,-1.754 0.846,-2.267 0.216,-0.513 0.489,-1.173 0.607,-1.467 0.303,-0.754 1.557,-3.502 2.282,-5.001 0.338,-0.697 0.506,-1.334 0.374,-1.415 -0.132,-0.082 -0.239,0.039 -0.239,0.267 m 118.687,1.104 c 0.624,0.665 0.649,0.845 0.739,5.344 l 0.093,4.655 -2.493,-0.077 -2.493,-0.077 v -4 c 0,-2.2 0.091,-4.326 0.203,-4.726 0.509,-1.816 2.71,-2.439 3.951,-1.119 m 61.506,-0.162 c 1.248,0.761 1.273,1.009 1.273,12.541 0,9.96 -0.028,10.58 -0.518,11.39 -0.989,1.634 -3.102,1.475 -3.905,-0.293 -0.727,-1.601 -0.753,-21.082 -0.031,-22.557 0.751,-1.531 1.837,-1.9 3.181,-1.081 m 146.398,0.513 c 0.572,0.852 0.609,1.169 0.609,5.277 v 4.371 l -2.467,-0.077 -2.467,-0.077 v -4 c 10e-4,-2.2 0.094,-4.333 0.207,-4.74 0.567,-2.03 2.966,-2.469 4.118,-0.754"
       inkscape:connector-curvature="0"
       style="fill:#004389;fill-rule:evenodd;stroke:none" />
    <path
       id="path1"
       d="m 373.448,63.178 c -1.239,0.529 -1.987,3.557 -1.19,4.817 0.162,0.257 0.195,-0.134 0.093,-1.124 -0.455,-4.404 3.465,-5.156 4.542,-0.871 0.221,0.88 0.409,1.3 0.417,0.933 0.059,-2.576 -1.98,-4.559 -3.862,-3.755 M 105.92,64.782 c -0.484,0.123 -0.964,0.311 -1.067,0.418 -0.102,0.108 0.234,0.092 0.747,-0.036 1.157,-0.286 5.099,-0.302 6.533,-0.025 0.907,0.174 0.987,0.156 0.534,-0.124 -0.632,-0.391 -5.464,-0.557 -6.747,-0.233 m -2.587,0.818 c -0.195,0.315 0.066,0.315 0.8,0 0.515,-0.221 0.513,-0.23 -0.051,-0.248 -0.321,-0.01 -0.658,0.101 -0.749,0.248 m 10.782,0.176 c 1.526,0.665 3.177,1.925 3.883,2.964 0.368,0.541 0.669,0.858 0.669,0.703 0,-0.972 -3.929,-4.14 -5.067,-4.085 -0.22,0.01 0.012,0.198 0.515,0.418 M 93.6,66.267 c -0.802,0.458 -0.304,0.527 0.655,0.09 1.209,-0.551 1.047,-0.013 -0.469,1.566 -3.108,3.236 -8.676,11.035 -6.719,9.41 0.22,-0.182 0.4,-0.456 0.4,-0.608 0,-0.771 3.81,-5.817 6.58,-8.715 0.906,-0.948 1.589,-1.818 1.518,-1.933 -0.203,-0.329 -1.232,-0.23 -1.965,0.19 m 7.543,0.278 c -3.089,1.714 -7.848,6.088 -9.854,9.055 -1.233,1.823 -2.584,4.394 -2.404,4.574 0.066,0.066 0.395,-0.456 0.73,-1.16 2.235,-4.691 7.031,-9.675 11.771,-12.229 0.924,-0.499 1.501,-0.897 1.281,-0.885 -0.22,0.012 -0.906,0.302 -1.524,0.645 M 91,67.208 c -0.623,0.277 -1.133,0.564 -1.133,0.638 0,0.074 0.51,-0.082 1.133,-0.347 0.623,-0.266 1.313,-0.552 1.533,-0.637 0.356,-0.136 0.356,-0.153 0,-0.155 -0.22,-0.002 -0.91,0.224 -1.533,0.501 m -3.4,1.549 c -1.68,0.894 -1.575,0.826 -1.444,0.942 0.061,0.055 0.891,-0.301 1.844,-0.79 0.953,-0.49 1.553,-0.884 1.333,-0.876 -0.22,0.008 -1,0.333 -1.733,0.724 m 289.733,-0.17 c 0,0.467 1.098,3.205 1.231,3.071 0.087,-0.087 -0.945,-3.154 -1.133,-3.369 -0.054,-0.061 -0.098,0.073 -0.098,0.298 m -4.703,3.815 -0.022,3.998 0.209,-2.904 c 0.115,-1.597 0.125,-3.396 0.022,-3.998 -0.115,-0.674 -0.195,0.441 -0.209,2.904 M 84.734,70.358 c -0.403,0.243 -0.733,0.54 -0.734,0.66 0,0.171 0.99,-0.401 1.844,-1.065 0.357,-0.277 -0.495,0.033 -1.11,0.405 m 33.995,0.575 c 0,0.514 0.054,0.724 0.121,0.467 0.068,-0.257 0.068,-0.677 0,-0.933 -0.067,-0.257 -0.121,-0.047 -0.121,0.466 m -37.305,1.753 c -1.892,1.448 -5.533,5.094 -7.246,7.258 -1.556,1.964 -0.735,1.211 1.582,-1.452 1.891,-2.174 4.904,-4.916 7.488,-6.813 0.34,-0.251 0.499,-0.455 0.352,-0.454 -0.147,0 -1.126,0.658 -2.176,1.461 m -7.246,-0.291 c -0.871,0.48 -1.31,0.938 -0.898,0.938 0.176,0 0.32,-0.12 0.32,-0.266 0,-0.147 0.225,-0.267 0.501,-0.267 0.351,0 -0.224,0.74 -1.934,2.488 -1.338,1.369 -2.837,3.079 -3.33,3.8 -0.981,1.438 -0.144,0.625 1.296,-1.259 0.367,-0.479 1.717,-1.903 3,-3.164 1.284,-1.262 2.334,-2.377 2.334,-2.479 0,-0.275 -0.583,-0.18 -1.289,0.209 m 304.637,0.138 c 0.091,0.367 0.386,1.627 0.655,2.8 0.269,1.174 0.498,1.805 0.51,1.404 0.026,-0.934 -0.467,-3.04 -0.953,-4.07 -0.309,-0.655 -0.347,-0.68 -0.212,-0.134 M 118.431,72.445 c -0.017,0.171 -0.109,0.531 -0.204,0.8 -0.133,0.379 -0.098,0.42 0.159,0.183 0.182,-0.167 0.273,-0.527 0.203,-0.8 -0.07,-0.272 -0.141,-0.354 -0.158,-0.183 m -47.498,1.992 c -0.806,0.594 -1.699,1.246 -1.984,1.449 -0.284,0.202 -0.455,0.43 -0.38,0.505 0.075,0.075 0.37,-0.072 0.655,-0.327 0.285,-0.255 1.206,-0.929 2.047,-1.496 C 72.112,74 72.8,73.49 72.8,73.434 c 0,-0.267 -0.524,0.014 -1.867,1.003 m 45.916,1.308 c -1.112,1.795 -4.293,5.249 -6.716,7.293 -0.927,0.782 -0.988,0.874 -0.266,0.402 1.358,-0.889 4.959,-4.426 6.082,-5.973 0.531,-0.734 1.031,-1.394 1.109,-1.467 0.279,-0.262 1.125,-1.905 1.03,-2.001 -0.053,-0.053 -0.611,0.733 -1.239,1.746 m -49.382,1.346 c -1.523,1.232 -2.175,1.842 -1.961,1.832 0.125,-0.006 0.827,-0.543 1.561,-1.194 1.353,-1.203 1.617,-1.624 0.4,-0.638 m 304.715,0.645 c -0.097,0.585 -0.161,1.844 -0.142,2.797 0.031,1.629 0.047,1.581 0.261,-0.8 0.24,-2.682 0.175,-3.779 -0.119,-1.997 M 85.848,79.048 c -0.321,0.681 -0.528,1.294 -0.46,1.362 0.067,0.067 0.276,-0.207 0.465,-0.61 0.188,-0.404 0.457,-0.955 0.597,-1.226 0.139,-0.271 0.192,-0.554 0.117,-0.629 -0.075,-0.075 -0.399,0.421 -0.719,1.103 m -23.892,3.023 c -2.941,2.921 -5.15,5.364 -7.115,7.868 -0.602,0.767 -1.162,1.454 -1.245,1.528 -0.29,0.256 -4.193,6.273 -4.499,6.933 -0.374,0.809 -0.404,0.853 2.42,-3.427 2.629,-3.985 6.05,-8.095 10.299,-12.373 1.857,-1.87 3.298,-3.4 3.203,-3.4 -0.096,0 -1.474,1.292 -3.063,2.871 m 5.217,-0.929 c -2.229,3.088 -6.026,9.427 -5.789,9.664 0.066,0.066 0.361,-0.328 0.654,-0.876 1.762,-3.291 2.957,-5.216 4.878,-7.863 0.612,-0.844 1.017,-1.53 0.899,-1.525 -0.118,0.004 -0.407,0.274 -0.642,0.6 m 21.261,0.191 c -0.598,2.766 -0.341,5.2 0.63,5.954 0.333,0.259 0.353,0.244 0.116,-0.087 -0.808,-1.128 -1.117,-3.604 -0.625,-5.015 0.159,-0.455 0.242,-1.043 0.185,-1.306 -0.066,-0.304 -0.178,-0.138 -0.306,0.454 m -3.579,0.2 c -0.582,1.546 -0.854,2.567 -0.828,3.107 0.028,0.571 0.054,0.5 0.725,-1.973 0.139,-0.514 0.34,-1.144 0.446,-1.4 0.106,-0.257 0.134,-0.467 0.063,-0.467 -0.071,0 -0.254,0.33 -0.406,0.733 M 72.8,81.581 c 0,0.136 -0.15,0.407 -0.333,0.601 -0.709,0.751 -1.056,1.284 -0.833,1.279 0.341,-0.008 1.785,-2.128 1.45,-2.128 -0.156,0 -0.284,0.112 -0.284,0.248 M 379.775,82.8 c -0.027,0.44 -0.116,1.1 -0.197,1.467 -0.127,0.573 -0.106,0.6 0.153,0.195 0.165,-0.259 0.254,-0.919 0.196,-1.467 -0.09,-0.859 -0.111,-0.886 -0.152,-0.195 m -8.141,2.62 c -0.119,1.147 -0.155,2.148 -0.081,2.222 0.198,0.198 0.511,-2.585 0.396,-3.517 -0.056,-0.453 -0.191,0.101 -0.315,1.295 M 70.23,85.267 c -1.192,1.854 -3.632,6.486 -3.491,6.628 0.056,0.056 0.538,-0.768 1.07,-1.83 0.916,-1.826 2.148,-3.958 3.234,-5.598 0.267,-0.404 0.415,-0.734 0.329,-0.734 -0.085,0 -0.599,0.69 -1.142,1.534 m 37.637,-0.577 -0.8,0.687 0.866,-0.573 c 0.477,-0.316 0.867,-0.625 0.867,-0.689 0,-0.199 -0.113,-0.13 -0.933,0.575 m -1.934,1.207 c -0.476,0.306 -0.866,0.607 -0.866,0.669 0,0.19 1.553,-0.675 1.732,-0.964 0.231,-0.375 0.123,-0.338 -0.866,0.295 M 379.143,86 c -0.536,2.415 -0.539,2.482 -0.077,1.474 0.234,-0.509 0.386,-1.229 0.34,-1.6 -0.082,-0.651 -0.092,-0.646 -0.263,0.126 M 83.65,86.867 c -0.084,0.696 -0.053,1.746 0.068,2.333 0.185,0.897 0.226,0.695 0.251,-1.267 0.034,-2.587 -0.087,-2.994 -0.319,-1.066 m 19.721,0.378 c -0.566,0.286 -0.967,0.581 -0.892,0.656 0.145,0.146 2.321,-0.891 2.321,-1.106 0,-0.208 -0.338,-0.102 -1.429,0.45 m 5.457,0.236 c -3.845,3.511 -9.994,7.277 -12.828,7.856 -1.133,0.232 -1.968,0.642 -1.332,0.655 2.176,0.044 9.438,-4.018 13.332,-7.457 1.314,-1.161 1.676,-1.315 1.408,-0.602 -0.153,0.409 -0.119,0.422 0.275,0.101 0.453,-0.368 0.63,-1.367 0.243,-1.367 -0.114,0 -0.608,0.366 -1.098,0.814 m -18.705,1.034 c 0.508,0.45 1.048,0.815 1.2,0.81 0.152,-0.005 0.037,-0.181 -0.256,-0.391 -0.294,-0.21 -0.654,-0.482 -0.8,-0.603 -0.802,-0.665 -0.924,-0.508 -0.144,0.184 m 10.277,0.07 c -0.733,0.292 -2.113,0.689 -3.067,0.881 -1.372,0.278 -1.534,0.356 -0.777,0.376 0.973,0.025 3.835,-0.802 5.044,-1.459 0.954,-0.518 0.356,-0.417 -1.2,0.202 m 8.133,0.748 c -0.313,0.44 -0.509,0.8 -0.436,0.8 0.073,0 0.39,-0.36 0.703,-0.8 0.313,-0.44 0.51,-0.8 0.436,-0.8 -0.073,0 -0.389,0.36 -0.703,0.8 M 371.096,91 c -0.092,1.357 -0.214,3.487 -0.272,4.733 l -0.105,2.267 0.225,-1.867 c 0.326,-2.708 0.622,-7.6 0.459,-7.6 -0.077,0 -0.215,1.11 -0.307,2.467 m 6.785,-0.452 c -0.555,1.718 -0.628,2.772 -0.087,1.261 0.64,-1.791 0.912,-2.791 0.792,-2.912 -0.071,-0.071 -0.388,0.672 -0.705,1.651 M 92.133,89.586 c 0.507,0.231 2.479,0.39 2.245,0.182 -0.061,-0.055 -0.711,-0.173 -1.445,-0.262 -0.897,-0.109 -1.159,-0.083 -0.8,0.08 M 84.024,90.8 c -0.066,1.874 3.488,5.28 5.409,5.185 C 89.598,95.977 89.201,95.754 88.55,95.49 86.383,94.612 85.006,93.092 84.179,90.667 84.084,90.389 84.036,90.43 84.024,90.8 m 23.275,0.2 c -0.291,0.33 -0.878,1.08 -1.306,1.667 -3.247,4.447 -9.819,10.528 -15.453,14.296 -1.924,1.287 -2.641,1.929 -1.432,1.282 4.702,-2.517 13.984,-11.035 17.919,-16.445 1.056,-1.452 1.189,-1.843 0.272,-0.8 m -47.047,1.966 c -0.445,0.971 -0.747,1.828 -0.671,1.904 0.075,0.075 0.249,-0.149 0.386,-0.5 0.137,-0.35 0.496,-1.207 0.798,-1.903 0.836,-1.929 0.407,-1.511 -0.513,0.499 m 5.917,0.092 c -0.166,0.445 -0.438,1.173 -0.605,1.617 -0.166,0.445 -0.238,0.873 -0.16,0.951 0.079,0.079 0.283,-0.315 0.455,-0.875 0.171,-0.56 0.443,-1.287 0.604,-1.617 0.162,-0.33 0.229,-0.664 0.151,-0.742 -0.078,-0.078 -0.278,0.221 -0.445,0.666 m -20.3,1.667 c -2.752,3.149 -8.778,11.788 -8.451,12.115 0.055,0.056 0.56,-0.65 1.12,-1.569 1.163,-1.906 5.063,-7.407 6.101,-8.604 0.861,-0.993 0.908,-0.578 0.076,0.671 -0.883,1.328 -2.633,4.529 -2.474,4.529 0.12,0 1.771,-2.737 2.422,-4.017 0.145,-0.284 0.355,-0.517 0.467,-0.517 0.112,0 0.203,-0.165 0.203,-0.367 0,-0.202 0.161,-0.5 0.356,-0.663 0.434,-0.36 1.642,-2.661 1.481,-2.821 -0.063,-0.064 -0.649,0.496 -1.301,1.243 m 246.664,-0.331 c -0.415,0.129 0.338,0.207 2,0.207 1.663,0 2.416,-0.078 2,-0.207 -0.366,-0.114 -1.266,-0.208 -2,-0.208 -0.733,0 -1.633,0.094 -2,0.208 m 83.947,0.539 c -0.094,0.367 -0.251,0.967 -0.35,1.334 -0.159,0.591 -0.13,0.577 0.257,-0.12 0.24,-0.432 0.397,-1.032 0.35,-1.333 -0.077,-0.487 -0.105,-0.474 -0.257,0.119 m -86.213,0 c -0.195,0.316 0.066,0.316 0.8,0 0.514,-0.221 0.512,-0.23 -0.051,-0.248 -0.322,-0.01 -0.659,0.102 -0.749,0.248 m 7.929,-0.001 c 1.24,0.374 2.592,1.345 3.28,2.357 0.361,0.533 0.657,0.848 0.657,0.7 0,-0.981 -3.015,-3.356 -4.189,-3.299 -0.291,0.014 -0.193,0.108 0.252,0.242 M 108.125,95.26 c -0.071,0.187 -0.098,10.48 -0.061,22.873 l 0.069,22.534 h 2.534 2.533 l 0.066,-19.2 c 0.062,-17.944 0.228,-22.823 0.612,-18 l 0.159,2 0.048,-1.916 c 0.052,-2.064 -0.287,-3.395 -0.82,-3.217 -0.261,0.087 -0.332,4.396 -0.332,20.088 V 140.4 l -2.335,0.077 -2.334,0.077 0.068,-22.61 0.068,-22.611 4.247,-0.073 c 3.209,-0.056 4.305,0.009 4.487,0.266 0.182,0.258 0.214,0.244 0.131,-0.059 -0.149,-0.548 -8.934,-0.747 -9.14,-0.207 m 18.342,-0.15 c -0.184,0.074 -0.322,0.454 -0.307,0.846 l 0.026,0.711 0.186,-0.667 0.185,-0.667 h 4.122 4.121 l 0.068,22.619 0.068,22.619 -2.402,-0.085 c -1.321,-0.047 -2.402,0.004 -2.401,0.114 10e-4,0.343 4.662,0.231 5.014,-0.12 0.463,-0.464 0.463,-44.763 0,-45.227 -0.319,-0.319 -7.934,-0.444 -8.68,-0.143 m 34.451,0.168 c -0.077,0.199 -0.104,1.493 -0.062,2.875 l 0.077,2.514 h 2.934 2.933 v -2.8 -2.8 l -2.872,-0.076 c -2.227,-0.059 -2.902,0.005 -3.01,0.287 m 10.4,0 c -0.077,0.199 -0.104,1.493 -0.062,2.875 l 0.077,2.514 3,0.075 3,0.075 -0.055,-2.475 -0.054,-2.475 -0.089,2.333 -0.089,2.333 h -2.799 -2.8 l 0.077,-2.6 0.076,-2.6 2.494,-0.077 c 1.74,-0.053 2.619,0.027 2.91,0.267 0.347,0.286 0.394,0.277 0.284,-0.056 -0.185,-0.562 -5.759,-0.739 -5.97,-0.189 m 10.587,0.009 c -0.229,0.276 -0.291,6.145 -0.24,22.875 l 0.068,22.505 2.867,0.075 c 1.577,0.042 2.867,-0.018 2.867,-0.133 10e-4,-0.115 -1.26,-0.171 -2.801,-0.125 l -2.802,0.084 0.068,-22.617 0.068,-22.618 2.511,-0.077 c 1.82,-0.056 2.578,0.017 2.754,0.267 0.186,0.264 0.217,0.251 0.134,-0.056 -0.155,-0.568 -5.039,-0.728 -5.494,-0.18 m 10.218,-0.02 c -0.07,0.183 -0.096,10.473 -0.059,22.866 l 0.069,22.534 h 2.934 2.933 l 0.07,-22.503 c 0.051,-16.473 -0.012,-22.6 -0.233,-22.866 -0.411,-0.495 -5.527,-0.523 -5.714,-0.031 m 114.723,-0.143 c -0.071,0.115 1.029,0.209 2.446,0.209 h 2.575 l 0.071,7.591 c 0.077,8.305 0.127,8.553 1.461,7.302 0.477,-0.446 1.164,-1.01 1.527,-1.252 0.422,-0.282 0.513,-0.441 0.255,-0.441 -0.223,0 -0.939,0.499 -1.593,1.109 l -1.188,1.108 -0.133,-7.842 -0.134,-7.841 -2.578,-0.076 c -1.418,-0.042 -2.637,0.018 -2.709,0.133 m 20.472,0.154 c -0.077,0.199 -0.104,1.493 -0.062,2.875 l 0.077,2.514 3,0.075 c 2.735,0.069 2.998,0.033 2.979,-0.4 -0.012,-0.279 -0.076,-0.338 -0.155,-0.142 -0.096,0.237 -0.94,0.333 -2.913,0.333 h -2.777 V 97.867 95.2 h 2.777 c 1.632,0 2.834,0.113 2.914,0.273 0.074,0.151 0.105,0.121 0.067,-0.066 -0.102,-0.509 -5.715,-0.631 -5.907,-0.129 m 10.585,0.012 c -0.233,0.28 -0.293,6.037 -0.24,22.876 l 0.07,22.501 2.867,0.075 2.867,0.076 -0.04,-0.876 c -0.038,-0.82 -0.047,-0.828 -0.152,-0.133 l -0.112,0.743 -2.526,-0.076 -2.526,-0.076 0.01,-22.4 c 0.006,-12.32 0.011,-22.49 0.011,-22.6 0.002,-0.311 5.004,-0.24 5.159,0.073 0.075,0.151 0.105,0.121 0.067,-0.066 -0.103,-0.516 -5.036,-0.622 -5.455,-0.117 M 59,95.929 c -0.183,0.391 -0.329,0.897 -0.323,1.124 0.006,0.228 0.189,0.003 0.407,-0.5 C 59.556,95.466 59.48,94.904 59,95.929 m 107.61,2.004 0.076,2.6 h -2.81 -2.809 v -2.489 c 0,-3.04 -0.17,-2.878 2.92,-2.786 l 2.546,0.075 0.077,2.6 m 30.925,20 0.068,22.6 h -2.668 -2.668 v -22.489 c 0,-12.368 0.084,-22.573 0.187,-22.676 0.103,-0.102 1.273,-0.152 2.6,-0.111 l 2.413,0.076 0.068,22.6 M 254.32,95.369 c -0.103,0.103 -0.187,3.507 -0.187,7.564 0,8.195 0.022,8.076 -1.243,6.81 -2.773,-2.772 -7.196,-1.906 -8.509,1.668 -1.124,3.059 -0.801,25.136 0.405,27.626 1.492,3.083 6.643,3.331 8.58,0.414 0.445,-0.67 1.034,-0.519 1.034,0.265 0,0.897 0.64,1.109 3.107,1.028 l 2.36,-0.077 V 118 95.333 l -2.68,-0.075 c -1.475,-0.042 -2.765,0.008 -2.867,0.111 m 33.631,1.163 c -0.706,0.733 -1.279,1.543 -1.273,1.8 0.007,0.279 0.227,0.061 0.543,-0.537 0.291,-0.552 1.024,-1.362 1.628,-1.8 0.604,-0.437 0.938,-0.795 0.742,-0.795 -0.196,0 -0.934,0.6 -1.64,1.332 M 65.099,96.267 c -0.022,0.22 -0.106,0.7 -0.188,1.066 -0.128,0.577 -0.107,0.603 0.155,0.193 0.166,-0.261 0.251,-0.741 0.188,-1.067 -0.063,-0.326 -0.133,-0.412 -0.155,-0.192 m 25.775,-0.071 c 0.627,0.056 1.587,0.055 2.133,-0.002 0.546,-0.057 0.033,-0.104 -1.14,-0.103 -1.174,0.001 -1.62,0.048 -0.993,0.105 m 252.453,21.271 c 0,11.88 0.033,16.779 0.073,10.886 0.04,-5.892 0.04,-15.612 0,-21.6 -0.04,-5.987 -0.073,-1.166 -0.073,10.714 M 117.517,98.133 c 0.391,4.209 0.578,5.384 0.466,2.934 -0.058,-1.247 -0.222,-2.807 -0.366,-3.467 -0.236,-1.08 -0.246,-1.027 -0.1,0.533 m 8.141,1.4 c -0.357,3.002 -0.383,4.406 -0.052,2.734 0.263,-1.326 0.629,-5.467 0.483,-5.467 -0.059,0 -0.253,1.23 -0.431,2.733 m 250.106,-2.288 c -0.017,0.171 -0.108,0.531 -0.203,0.8 -0.134,0.379 -0.099,0.42 0.158,0.183 0.182,-0.167 0.274,-0.527 0.204,-0.8 -0.07,-0.272 -0.142,-0.354 -0.159,-0.183 m -159.973,0.214 c 0.104,0.116 0.07,0.435 -0.076,0.709 -0.154,0.287 -0.163,0.499 -0.022,0.499 0.38,0 0.561,-1.045 0.215,-1.243 -0.169,-0.097 -0.222,-0.081 -0.117,0.035 m -151.399,2.672 c -0.212,2.259 0.004,4.52 0.569,5.959 0.211,0.537 0.317,0.677 0.237,0.31 -0.604,-2.763 -0.705,-3.85 -0.551,-5.933 0.21,-2.846 0.005,-3.117 -0.255,-0.336 m 145.674,-0.467 c -0.229,0.698 -0.497,1.509 -0.595,1.803 -0.145,0.434 -0.127,0.455 0.096,0.112 0.376,-0.575 1.164,-2.937 1.027,-3.074 -0.061,-0.061 -0.299,0.46 -0.528,1.159 m 92.09,-0.997 c 0.008,0.22 0.118,0.64 0.244,0.933 l 0.229,0.533 0.015,-0.533 c 0.008,-0.293 -0.102,-0.713 -0.244,-0.933 -0.23,-0.356 -0.257,-0.356 -0.244,0 m 72.933,1.066 c -0.299,1.568 -0.286,2.995 0.043,4.8 0.258,1.411 0.269,1.427 0.301,0.399 0.019,-0.588 -0.09,-1.488 -0.241,-2 -0.194,-0.656 -0.187,-1.256 0.023,-2.026 0.165,-0.602 0.255,-1.382 0.201,-1.733 -0.073,-0.471 -0.159,-0.323 -0.327,0.56 M 57.806,99.6 c -0.339,1.562 -0.473,2.394 -0.321,2 0.085,-0.22 0.276,-0.652 0.425,-0.96 0.149,-0.308 0.226,-0.848 0.17,-1.2 -0.093,-0.595 -0.112,-0.584 -0.274,0.16 m 156.891,0.403 c -0.329,0.585 -0.542,1.064 -0.474,1.064 0.181,0 1.283,-1.916 1.169,-2.031 -0.054,-0.053 -0.366,0.382 -0.695,0.967 m 71.57,-0.536 c -0.1,0.315 -0.122,0.633 -0.049,0.707 0.073,0.073 0.215,-0.125 0.315,-0.441 0.1,-0.315 0.122,-0.633 0.049,-0.707 -0.073,-0.073 -0.215,0.125 -0.315,0.441 m 7.2,-0.272 c -0.383,0.178 -0.218,0.205 0.583,0.095 2.063,-0.282 2.75,1.041 2.75,5.294 0,3.418 -0.002,3.416 3.2,3.416 3.142,0 3.214,-0.065 3.174,-2.849 -0.058,-3.976 -0.43,-4.942 -0.47,-1.218 l -0.037,3.534 H 300 297.333 l -0.011,-2.067 c -0.028,-4.948 -1.493,-7.306 -3.855,-6.205 m -245.855,1.884 c -0.547,1.041 -0.943,1.946 -0.879,2.009 0.063,0.064 0.552,-0.748 1.085,-1.803 0.534,-1.056 0.929,-1.96 0.88,-2.01 -0.05,-0.049 -0.539,0.762 -1.086,1.804 m 322.666,-0.329 c -0.111,0.925 -0.138,1.745 -0.061,1.822 0.187,0.187 0.539,-2.707 0.384,-3.153 -0.068,-0.194 -0.213,0.405 -0.323,1.331 m -77.955,-0.741 c -0.178,0.284 -0.318,0.669 -0.312,0.854 0.006,0.185 0.195,-0.004 0.421,-0.42 0.468,-0.865 0.38,-1.217 -0.109,-0.434 m -162.879,0.355 c -0.084,0.218 -0.1,0.676 -0.035,1.017 0.102,0.532 0.128,0.506 0.19,-0.181 l 0.071,-0.8 0.197,0.933 0.196,0.934 0.035,-0.985 c 0.037,-1.02 -0.387,-1.615 -0.654,-0.918 m 156.261,2.369 c -0.32,2.951 -0.29,28.041 0.036,30.734 0.186,1.534 0.259,-2.788 0.259,-15.4 0,-9.644 -0.013,-17.534 -0.028,-17.534 -0.016,0 -0.136,0.99 -0.267,2.2 m -72.056,-1.075 c -0.174,0.173 -0.316,0.414 -0.316,0.534 0,1.249 -1.384,2.341 -2.967,2.341 -1.794,0 -1.684,0.175 -1.177,-1.866 0.092,-0.367 -0.031,-0.217 -0.273,0.333 -0.68,1.547 -0.42,1.84 1.547,1.746 l 1.67,-0.079 1.03,-1.548 c 0.962,-1.446 1.207,-2.182 0.486,-1.461 m 77.991,1.742 c -0.236,2.503 -0.166,27.871 0.082,29.667 0.112,0.806 0.22,-5.944 0.24,-15 0.021,-9.057 -0.005,-16.467 -0.057,-16.467 -0.052,0 -0.171,0.81 -0.265,1.8 m -162.712,0.692 c -0.102,0.954 -0.13,1.894 -0.062,2.088 0.067,0.194 0.213,-0.524 0.324,-1.596 0.11,-1.072 0.138,-2.011 0.062,-2.087 -0.076,-0.077 -0.222,0.641 -0.324,1.595 M 56.945,103.95 c -0.11,0.78 -0.136,1.481 -0.059,1.558 0.19,0.19 0.535,-2.184 0.381,-2.625 -0.067,-0.192 -0.212,0.288 -0.322,1.067 m 312.864,1.117 c -0.475,5.027 -0.487,5.623 -0.063,3.066 0.219,-1.32 0.365,-3 0.325,-3.733 -0.067,-1.224 -0.088,-1.17 -0.262,0.667 m -323.87,-0.332 c -0.732,1.67 -1.942,5.514 -1.927,6.119 0.007,0.264 0.406,-0.781 0.887,-2.321 0.482,-1.54 1.078,-3.268 1.325,-3.841 0.247,-0.572 0.409,-1.081 0.359,-1.131 -0.049,-0.049 -0.339,0.479 -0.644,1.174 m -5.387,0.089 c -0.304,0.629 -0.546,1.27 -0.538,1.426 0.008,0.156 0.307,-0.307 0.665,-1.029 0.358,-0.723 0.6,-1.364 0.538,-1.426 -0.062,-0.062 -0.361,0.401 -0.665,1.029 m 77.76,0.643 c 0.084,1.026 0.199,1.916 0.254,1.977 0.199,0.22 0.043,-2.525 -0.18,-3.177 -0.144,-0.421 -0.171,0.021 -0.074,1.2 m 6.691,-0.534 c -0.108,0.587 -0.186,1.547 -0.173,2.134 l 0.024,1.066 0.25,-1.066 c 0.138,-0.587 0.216,-1.547 0.174,-2.134 l -0.078,-1.066 -0.197,1.066 m -27.711,0.831 c -0.977,0.863 -1.848,1.733 -1.937,1.932 -0.088,0.2 0.51,-0.25 1.33,-1 1.519,-1.388 1.975,-1.624 1.99,-1.029 0.004,0.183 0.132,0.119 0.284,-0.142 0.806,-1.383 0.044,-1.274 -1.667,0.239 m 17.024,1.703 c 0.085,1.1 0.198,2.05 0.252,2.111 0.197,0.221 0.04,-2.796 -0.179,-3.445 -0.139,-0.41 -0.167,0.103 -0.073,1.334 m 261.259,2.8 c 0.002,2.346 0.083,3.906 0.182,3.466 0.243,-1.081 0.249,-5.052 0.01,-6.533 -0.122,-0.756 -0.193,0.377 -0.192,3.067 M 128.29,109.945 c -0.196,1.729 -0.299,3.201 -0.23,3.271 0.182,0.182 0.824,-5.255 0.695,-5.887 -0.059,-0.291 -0.269,0.886 -0.465,2.616 M 36.987,107.4 c -0.061,0.11 -0.448,0.8 -0.859,1.533 -0.412,0.734 -0.625,1.214 -0.474,1.067 0.386,-0.374 1.761,-2.8 1.587,-2.8 -0.079,0 -0.193,0.09 -0.254,0.2 m 28.353,0 c 0.034,1.032 4.008,4.605 5.114,4.598 0.19,-0.001 -0.217,-0.331 -0.905,-0.734 C 67.953,110.333 66.528,109.021 66,108 c -0.398,-0.769 -0.674,-1.02 -0.66,-0.6 m 32.126,0.79 c -0.258,0.556 -0.521,1.1 -0.584,1.21 -0.062,0.11 -0.049,0.2 0.03,0.2 0.208,0 1.281,-2.163 1.142,-2.302 -0.065,-0.064 -0.329,0.337 -0.588,0.892 m -58.752,1.19 c -0.324,0.899 -0.529,1.694 -0.457,1.765 0.072,0.072 0.18,-0.036 0.241,-0.24 0.06,-0.204 0.316,-0.949 0.568,-1.655 0.251,-0.705 0.407,-1.332 0.346,-1.393 -0.06,-0.061 -0.375,0.625 -0.698,1.523 m 55.414,-0.772 c -0.369,0.326 -1.018,0.864 -1.441,1.196 -0.422,0.332 -0.715,0.657 -0.65,0.722 0.065,0.065 0.773,-0.473 1.574,-1.195 0.801,-0.722 1.396,-1.313 1.322,-1.314 -0.073,0 -0.435,0.266 -0.805,0.591 m 51.002,-0.198 c -1.815,0.572 -3.767,2.144 -3.788,3.052 -0.005,0.217 0.285,-0.037 0.644,-0.566 1.283,-1.887 4.121,-2.831 7.695,-2.558 1.138,0.088 1.702,0.056 1.386,-0.077 -0.825,-0.346 -4.669,-0.25 -5.937,0.149 m 62.203,-0.037 c -2.611,0.742 -4.725,3.161 -4.645,5.316 0.012,0.318 0.213,-0.072 0.446,-0.866 0.937,-3.183 3.08,-4.409 7.723,-4.418 1.498,-0.003 2.518,-0.087 2.267,-0.186 -0.718,-0.285 -4.611,-0.181 -5.791,0.154 m 25.2,-0.104 c -0.274,0.179 -0.002,0.208 0.863,0.093 1.963,-0.26 3.573,0.308 4.5,1.588 0.424,0.585 0.771,0.889 0.771,0.676 0,-1.611 -4.579,-3.371 -6.134,-2.357 M 270,108.387 c -5.095,1.253 -5.538,2.667 -5.397,17.213 0.141,14.563 0.762,15.777 8.055,15.758 5.604,-0.016 8.357,-3.184 8.087,-9.309 l -0.078,-1.782 -2.509,-0.134 c -3.214,-0.17 -3.158,-0.226 -3.274,3.246 -0.117,3.488 -0.435,4.025 -2.31,3.9 -2.086,-0.139 -2.307,-0.716 -2.307,-6.031 V 126.8 l 4.913,-0.073 c 6.148,-0.091 5.62,0.406 5.62,-5.288 0,-8.256 -1.382,-12.162 -4.526,-12.794 -0.371,-0.075 -1.108,-0.25 -1.638,-0.39 -1.246,-0.329 -2.961,-0.28 -4.636,0.132 m 46,-0.123 c -0.269,0.172 0.047,0.203 0.963,0.096 2.178,-0.254 4.859,0.993 4.925,2.29 0.015,0.305 0.059,0.322 0.162,0.062 0.584,-1.462 -4.424,-3.488 -6.05,-2.448 m 36.815,0.16 c -1.184,0.372 -2.022,0.909 -1.417,0.909 0.167,0 0.367,-0.103 0.445,-0.228 0.292,-0.473 3.396,-0.913 5.431,-0.77 1.194,0.084 1.835,0.051 1.526,-0.077 -0.843,-0.349 -4.682,-0.242 -5.985,0.166 M 124.324,111 c -0.356,3.002 -0.383,4.406 -0.051,2.733 0.262,-1.325 0.628,-5.466 0.483,-5.466 -0.059,0 -0.253,1.23 -0.432,2.733 M 86,109.624 c -1.027,0.564 -1.773,1.03 -1.659,1.034 0.221,0.009 2.99,-1.385 3.659,-1.843 0.903,-0.618 -0.256,-0.149 -2,0.809 M 118.843,110 c 0.381,3.986 0.588,5.268 0.472,2.933 -0.059,-1.173 -0.223,-2.673 -0.366,-3.333 -0.245,-1.133 -0.251,-1.111 -0.106,0.4 m 33.688,-1.042 c 1.33,0.577 2.115,1.382 2.835,2.909 0.68,1.442 0.881,1.306 0.248,-0.168 -0.667,-1.554 -2.488,-3.178 -3.538,-3.155 -0.27,0.006 -0.074,0.185 0.455,0.414 m 62.347,0.169 c 1.346,0.689 2.238,1.772 2.814,3.417 0.297,0.85 0.413,0.999 0.407,0.523 -0.02,-1.535 -2.621,-4.541 -3.92,-4.53 -0.245,0.002 0.069,0.267 0.699,0.59 m 16.048,-0.144 c -0.363,0.248 -0.924,0.728 -1.247,1.067 -0.762,0.8 -0.829,0.782 -0.929,-0.25 l -0.083,-0.867 -2.529,-0.077 c -1.921,-0.059 -2.595,0.011 -2.8,0.293 -0.179,0.243 -0.247,5.726 -0.2,16.011 l 0.07,15.64 h 2.796 2.796 l -0.064,-12.467 -0.064,-12.466 -0.072,12.333 -0.072,12.333 h -2.531 -2.53 V 124.79 109.047 l 2.466,0.076 c 2.406,0.075 2.469,0.094 2.556,0.744 0.153,1.138 0.516,1.229 1.444,0.359 0.477,-0.446 1.164,-1.01 1.526,-1.252 0.363,-0.243 0.54,-0.441 0.393,-0.441 -0.147,0 -0.563,0.203 -0.926,0.45 m 129.474,0.054 c 1.183,0.546 2.02,1.356 2.647,2.563 0.229,0.44 0.417,0.632 0.418,0.426 0.005,-1.037 -2.601,-3.501 -3.687,-3.487 -0.244,0.003 0.035,0.228 0.622,0.498 m -327.892,0.371 c -1.06,1.472 -3.199,5.057 -3.085,5.17 0.069,0.069 0.467,-0.482 0.884,-1.226 0.418,-0.743 0.858,-1.352 0.978,-1.352 0.252,0 -0.031,1.078 -0.382,1.453 -0.13,0.14 -0.23,0.44 -0.222,0.667 0.007,0.227 0.307,-0.179 0.666,-0.903 0.733,-1.478 0.763,-1.583 0.386,-1.35 -0.146,0.09 -0.266,-0.019 -0.266,-0.243 0,-0.244 0.153,-0.349 0.383,-0.26 0.344,0.132 1.483,-1.671 1.483,-2.347 0,-0.395 -0.394,-0.208 -0.825,0.391 m 128.593,-0.25 c -0.21,0.253 -0.317,5.318 -0.366,17.267 l -0.068,16.908 -32.276,0.068 -32.276,0.068 -1.019,3.132 c -1.175,3.61 -4.131,10.923 -5.363,13.266 -2.077,3.95 -3.188,5.928 -3.771,6.715 -0.346,0.467 -0.629,0.926 -0.629,1.019 0,0.094 -0.536,0.921 -1.191,1.84 -0.909,1.273 -1.118,1.743 -0.88,1.981 0.361,0.361 278.745,0.465 278.968,0.104 0.071,-0.114 -0.062,-1.666 -0.295,-3.447 -0.397,-3.035 -0.394,-3.405 0.052,-5.859 0.842,-4.642 0.843,-4.621 -0.23,-6.299 -1.676,-2.62 -1.316,-4.127 1.42,-5.938 1.804,-1.193 3.131,-4.942 2.163,-6.109 -0.297,-0.357 -11.39,-0.403 -99.289,-0.406 -78.69,-0.003 -98.997,-0.072 -99.165,-0.336 -0.116,-0.183 -0.217,0.808 -0.225,2.201 -0.032,6.017 -1.545,8 -6.103,8 -2.249,0 -2.48,-0.224 -2.372,-2.311 l 0.081,-1.555 1.151,-0.365 c 1.807,-0.571 1.731,0.258 1.898,-20.835 l 0.151,-19.067 h 2.6 c 1.43,0 2.6,-0.09 2.6,-0.2 -0.001,-0.379 -5.244,-0.23 -5.566,0.158 m 10.233,0.233 c -0.082,0.335 -0.115,7.509 -0.074,15.942 l 0.073,15.334 h 2.934 2.933 V 124.8 108.933 l -2.859,-0.075 c -2.786,-0.074 -2.863,-0.06 -3.007,0.533 m 156.034,0.009 c -0.262,0.976 -0.184,1.18 0.177,0.467 0.322,-0.637 0.446,-0.667 2.73,-0.667 h 2.392 l 0.068,15.657 0.069,15.658 -2.735,0.091 -2.736,0.091 2.934,-0.015 2.933,-0.015 0.069,-15.57 c 0.05,-11.278 -0.014,-15.671 -0.233,-15.934 -0.583,-0.702 -5.471,-0.498 -5.668,0.237 m -270.51,0.2 c 0.003,0.367 0.097,1.027 0.209,1.467 l 0.203,0.8 0.005,-0.8 c 0.003,-0.44 -0.091,-1.1 -0.208,-1.467 l -0.214,-0.667 0.005,0.667 m 119.787,-0.371 c 0.378,0.145 0.422,1.78 0.422,15.733 v 15.571 h -2.8 -2.8 v -15.555 c 0,-8.556 0.08,-15.636 0.177,-15.734 0.223,-0.222 4.428,-0.235 5.001,-0.015 m 173.338,0.971 -0.783,0.867 0.867,-0.784 c 0.808,-0.73 0.989,-0.95 0.783,-0.95 -0.046,0 -0.436,0.39 -0.867,0.867 m -254.124,1.065 c -0.419,0.771 -1.582,2.722 -2.585,4.335 -1.003,1.613 -1.576,2.645 -1.273,2.293 1.088,-1.267 4.922,-7.726 4.71,-7.937 -0.05,-0.051 -0.434,0.539 -0.852,1.309 m -60.888,-0.294 c -0.188,0.301 -0.283,0.606 -0.211,0.678 0.072,0.071 0.27,-0.131 0.44,-0.449 0.403,-0.753 0.216,-0.94 -0.229,-0.229 m 79.868,0.896 c 0.086,0.88 0.244,2.38 0.35,3.333 l 0.194,1.733 0.025,-1.466 c 0.014,-0.807 -0.143,-2.307 -0.35,-3.334 l -0.376,-1.866 0.157,1.6 m -32.825,-0.571 c -0.873,0.313 -1.4,0.605 -1.173,0.648 0.228,0.044 1.062,-0.216 1.853,-0.577 1.761,-0.803 1.451,-0.836 -0.68,-0.071 m 8.786,10e-4 c -1.653,1.289 -5.676,3.877 -7.733,4.974 -2.225,1.187 -3.246,1.881 -1.867,1.27 2.336,-1.036 8.44,-4.866 9.997,-6.274 0.868,-0.784 0.623,-0.766 -0.397,0.03 m 148.049,0.57 c 0.095,0.44 0.218,7.074 0.273,14.742 l 0.1,13.943 -2.744,-0.076 -2.745,-0.076 -0.138,-12.8 -0.139,-12.8 0.005,12.933 0.006,12.934 h 2.933 2.933 l 0.069,-13.6 c 0.059,-11.477 0.007,-13.788 -0.329,-14.8 -0.218,-0.66 -0.32,-0.84 -0.224,-0.4 m 83.457,0.533 c 0.093,0.733 0.212,1.383 0.265,1.444 0.228,0.265 0.062,-2.016 -0.173,-2.377 -0.178,-0.273 -0.207,0.023 -0.092,0.933 m 26.635,-0.745 c -0.386,0.968 -0.94,3.322 -0.915,3.891 0.014,0.323 0.231,-0.253 0.482,-1.279 0.252,-1.027 0.555,-2.082 0.674,-2.345 0.12,-0.263 0.157,-0.538 0.084,-0.612 -0.073,-0.073 -0.219,0.082 -0.325,0.345 m -311.306,0.866 c -0.186,0.622 -0.282,1.187 -0.213,1.256 0.179,0.179 0.774,-1.721 0.653,-2.085 -0.055,-0.166 -0.253,0.206 -0.44,0.829 m 6.015,-0.514 c -0.097,0.363 -0.165,1.02 -0.15,1.46 0.02,0.638 0.073,0.557 0.261,-0.4 0.258,-1.311 0.173,-2.122 -0.111,-1.06 m 325.315,0.617 c -0.113,0.711 -0.144,1.353 -0.069,1.428 0.195,0.194 0.507,-1.636 0.38,-2.225 -0.058,-0.272 -0.198,0.087 -0.311,0.797 m -335.307,1.031 c -1.143,2.369 -1.749,3.943 -1.582,4.109 0.078,0.079 0.227,-0.136 0.331,-0.477 0.199,-0.649 0.907,-2.29 1.756,-4.067 0.275,-0.575 0.456,-1.09 0.402,-1.144 -0.054,-0.054 -0.463,0.657 -0.907,1.579 m 23.686,-1.486 c -0.006,0.167 0.165,0.707 0.379,1.2 0.214,0.494 0.394,0.761 0.4,0.595 0.006,-0.167 -0.165,-0.707 -0.379,-1.2 -0.214,-0.494 -0.394,-0.761 -0.4,-0.595 m 14.123,0.121 c 0.366,0.168 1.806,0.338 3.2,0.377 l 2.533,0.073 -2.267,-0.2 c -1.246,-0.11 -2.686,-0.279 -3.2,-0.377 -0.85,-0.162 -0.874,-0.15 -0.266,0.127 m 6.8,-0.023 -0.8,0.203 0.933,0.013 c 0.513,0.007 1.173,-0.09 1.467,-0.216 0.709,-0.305 -0.403,-0.305 -1.6,0 m 68.91,0.075 c -0.515,0.395 -1.052,1.362 -1.022,1.84 0.012,0.193 0.162,0.039 0.333,-0.343 0.902,-2.01 2.872,-2.199 3.871,-0.372 0.22,0.402 0.293,0.43 0.3,0.113 0.023,-1.2 -2.407,-2.064 -3.482,-1.238 m 62.423,0.003 c -1.514,0.764 -1.574,1.236 -1.581,12.455 -0.008,10.752 0.183,12.533 1.343,12.533 0.224,0 0.203,-0.141 -0.069,-0.466 -0.971,-1.163 -1.026,-1.806 -1.026,-11.906 0,-11.853 0.106,-12.428 2.307,-12.428 1.038,0 1.95,0.852 1.98,1.851 0.012,0.375 0.084,0.528 0.16,0.338 0.594,-1.482 -1.588,-3.148 -3.114,-2.377 m 64.452,0.298 0.748,0.644 v 4.623 4.623 h -2.267 -2.266 l -0.081,-3.733 c -0.128,-5.926 1.366,-8.306 3.866,-6.157 m 80.945,-0.472 c -0.185,0.078 -0.471,0.402 -0.636,0.719 -0.298,0.573 -0.296,0.573 0.353,-0.023 0.817,-0.75 2.165,-0.788 2.871,-0.082 0.5,0.5 0.704,1.228 0.903,3.215 0.06,0.599 0.109,0.399 0.136,-0.561 0.073,-2.547 -1.652,-4.101 -3.627,-3.268 m -125.289,0.962 c -0.507,0.6 -0.507,0.6 0.046,0.134 1.105,-0.93 2.898,-0.472 3.39,0.866 0.127,0.345 0.15,0.343 0.168,-0.016 0.073,-1.434 -2.604,-2.165 -3.604,-0.984 m 23.646,0.18 0.779,0.779 v 10.667 10.667 l -0.69,0.82 c -1.145,1.361 -2.885,1.041 -3.627,-0.668 -0.448,-1.032 -0.617,-19.216 -0.193,-20.745 0.619,-2.228 2.327,-2.924 3.731,-1.52 m 59.804,-0.18 c -1.078,1.21 -1.158,2.259 -1.158,15.116 v 12.32 l -2.667,-0.085 c -1.467,-0.046 -2.667,0.01 -2.667,0.125 0,0.115 1.231,0.175 2.734,0.134 l 2.733,-0.076 0.158,-12.667 c 0.159,-12.723 0.236,-13.873 0.985,-14.733 0.856,-0.983 2.845,-0.466 3.335,0.866 0.126,0.343 0.15,0.34 0.168,-0.02 0.069,-1.385 -2.613,-2.111 -3.621,-0.98 m 50.331,-0.333 c 0.009,0.22 0.118,0.64 0.244,0.933 l 0.23,0.534 0.014,-0.534 c 0.008,-0.293 -0.101,-0.713 -0.244,-0.933 -0.229,-0.356 -0.257,-0.356 -0.244,0 m -223.085,1.652 c -0.427,2.595 -0.444,17.856 -0.023,20.081 0.222,1.174 0.341,1.534 0.264,0.8 -0.348,-3.336 -0.423,-16.628 -0.108,-19.146 0.325,-2.605 0.225,-3.916 -0.133,-1.735 m 15.739,-0.319 c 0.237,1.616 0.467,10.858 0.288,11.573 l -0.172,0.683 -5.129,0.072 -5.13,0.072 -0.011,4.067 -0.011,4.067 0.085,-4 0.084,-4 h 5.188 5.188 l 0.17,-0.675 c 0.264,-1.052 -0.067,-11.096 -0.395,-11.992 l -0.293,-0.8 0.138,0.933 m 197.595,1.134 c -0.281,2.73 -0.065,7.203 0.355,7.342 0.294,0.098 0.299,0.008 0.028,-0.499 -0.242,-0.452 -0.29,-1.68 -0.179,-4.564 0.16,-4.168 0.081,-5.05 -0.204,-2.279 m -226.113,0.415 c -0.119,1.072 -0.153,2.013 -0.076,2.09 0.196,0.196 0.523,-2.604 0.396,-3.391 -0.058,-0.356 -0.202,0.229 -0.32,1.301 M 218.18,114.4 c -0.004,0.367 0.089,1.207 0.206,1.867 l 0.214,1.2 0.007,-1.2 c 0.003,-0.66 -0.09,-1.5 -0.207,-1.867 l -0.214,-0.667 -0.006,0.667 m 10.753,0 c -0.1,0.315 -0.122,0.634 -0.048,0.707 0.073,0.073 0.215,-0.125 0.315,-0.44 0.1,-0.316 0.122,-0.634 0.049,-0.707 -0.074,-0.074 -0.216,0.125 -0.316,0.44 m -191.985,0.752 c -0.109,0.488 -0.133,0.952 -0.053,1.032 0.201,0.201 0.519,-1.147 0.371,-1.573 -0.066,-0.189 -0.209,0.054 -0.318,0.541 m 21.765,0.34 c 1.03,1.833 5.119,5.032 5.695,4.455 0.067,-0.066 -0.476,-0.39 -1.205,-0.72 -1.502,-0.679 -3.705,-2.678 -4.371,-3.966 -0.245,-0.473 -0.51,-0.861 -0.589,-0.861 -0.079,0 0.132,0.492 0.47,1.092 m 91.9,3.042 c -0.044,2.273 0.01,4.133 0.12,4.133 0.11,0 0.2,-1.86 0.2,-4.134 0,-5.348 -0.217,-5.347 -0.32,0.001 M 29.834,115.877 c -0.313,0.666 -0.511,1.268 -0.44,1.34 0.071,0.071 0.38,-0.474 0.686,-1.211 0.694,-1.67 0.521,-1.761 -0.246,-0.129 m 13.468,1.856 c 0,1.76 0.043,2.446 0.096,1.523 0.052,-0.922 0.052,-2.362 -0.001,-3.2 -0.053,-0.837 -0.096,-0.083 -0.095,1.677 m 273.707,9.676 c 0.041,6.998 0.127,12.874 0.191,13.058 0.085,0.242 0.863,0.318 2.858,0.277 l 2.742,-0.056 -2.733,-0.087 -2.734,-0.086 -0.018,-12.458 c -0.011,-6.851 -0.101,-12.663 -0.2,-12.915 -0.1,-0.252 -0.148,5.268 -0.106,12.267 M 364.041,120.467 364,126.4 h -4.88 c -3.44,0 -4.974,0.094 -5.2,0.32 -0.376,0.376 -0.423,6.654 -0.062,8.347 0.144,0.676 0.174,-0.208 0.081,-2.42 -0.081,-1.917 -0.063,-4.047 0.04,-4.733 l 0.187,-1.247 h 4.864 c 3.427,0 4.958,-0.095 5.183,-0.32 0.359,-0.359 0.401,-7.078 0.063,-10.08 -0.134,-1.197 -0.207,0.103 -0.235,4.2 m 4.391,-4.4 c -0.093,0.77 -0.222,1.94 -0.287,2.6 l -0.118,1.2 0.265,-1.067 c 0.322,-1.292 0.624,-4.133 0.44,-4.133 -0.073,0 -0.208,0.63 -0.3,1.4 M 28.556,115.889 c -0.318,0.538 -0.528,1.028 -0.467,1.089 0.062,0.061 0.371,-0.329 0.689,-0.867 0.317,-0.538 0.527,-1.028 0.466,-1.089 -0.061,-0.061 -0.371,0.329 -0.688,0.867 m 117.36,2.695 c -0.027,2.082 0.041,3.841 0.151,3.909 0.11,0.068 0.168,-1.034 0.129,-2.451 -0.131,-4.752 -0.23,-5.27 -0.28,-1.458 m 56.387,-2.413 c -0.223,1.626 -0.182,16.151 0.05,17.696 0.099,0.66 0.18,-3.33 0.18,-8.867 0,-5.537 -0.013,-10.067 -0.03,-10.067 -0.017,0 -0.107,0.557 -0.2,1.238 m 172.84,0.229 c -0.105,0.88 -0.256,2.02 -0.335,2.533 -0.114,0.732 -0.055,0.656 0.271,-0.353 0.228,-0.707 0.379,-1.847 0.335,-2.533 l -0.081,-1.247 -0.19,1.6 m -162.222,8.4 c 0,5.353 0.035,7.543 0.079,4.867 0.043,-2.677 0.043,-7.057 0,-9.734 -0.044,-2.676 -0.079,-0.486 -0.079,4.867 M 322.729,116 c 0,0.513 0.054,0.723 0.121,0.467 0.068,-0.257 0.068,-0.677 0,-0.934 -0.067,-0.256 -0.121,-0.046 -0.121,0.467 m -203.216,0.133 c -0.004,0.44 0.089,1.34 0.207,2 l 0.213,1.2 0.007,-1.333 c 0.004,-0.733 -0.089,-1.633 -0.207,-2 -0.208,-0.65 -0.213,-0.646 -0.22,0.133 m 4.094,0.98 c -0.109,0.979 -0.141,1.939 -0.072,2.134 0.069,0.194 0.216,-0.448 0.325,-1.427 0.109,-0.979 0.141,-1.939 0.072,-2.133 -0.07,-0.195 -0.216,0.447 -0.325,1.426 m -87.283,1.502 c -0.426,2.706 -0.392,6.955 0.074,9.118 0.289,1.342 0.347,1.463 0.26,0.534 -0.411,-4.381 -0.439,-6.428 -0.12,-8.838 0.415,-3.13 0.249,-3.758 -0.214,-0.814 m -9.791,1.118 c -0.678,1.351 -1.188,2.501 -1.132,2.557 0.055,0.055 0.655,-1.005 1.332,-2.357 0.678,-1.351 1.187,-2.502 1.133,-2.556 -0.055,-0.055 -0.654,1.006 -1.333,2.356 M 115.65,119.2 c 0.084,1.1 0.197,2.05 0.251,2.111 0.197,0.222 0.04,-2.795 -0.179,-3.444 -0.139,-0.411 -0.166,0.102 -0.072,1.333 m -36.983,-0.88 c -1.323,0.594 -1.861,0.8 -3.018,1.155 -0.56,0.171 -0.959,0.37 -0.887,0.443 0.144,0.144 3.893,-1.137 4.966,-1.697 0.941,-0.492 0.072,-0.41 -1.061,0.099 M 96,118.322 c -0.22,0.263 -0.61,0.808 -0.867,1.211 -0.256,0.404 -0.66,1.034 -0.897,1.4 -0.237,0.367 -0.355,0.667 -0.263,0.667 0.093,0 0.393,-0.37 0.668,-0.822 0.57,-0.936 0.968,-0.678 0.474,0.308 -0.625,1.247 -0.969,2.114 -0.84,2.114 0.267,0 2.299,-4.526 2.214,-4.932 -0.078,-0.373 -0.138,-0.366 -0.489,0.054 m -64.497,0.603 c -0.167,0.444 -0.439,1.172 -0.606,1.617 -0.166,0.445 -0.249,0.862 -0.183,0.928 0.066,0.065 0.376,-0.624 0.69,-1.533 0.577,-1.668 0.658,-2.508 0.099,-1.012 m 95.453,2.35 c -0.199,1.655 -0.3,3.07 -0.224,3.146 0.191,0.191 0.827,-4.963 0.694,-5.621 -0.06,-0.293 -0.271,0.82 -0.47,2.475 m -98.66,-1.779 c -0.195,0.441 -0.297,0.858 -0.228,0.928 0.07,0.069 0.279,-0.241 0.465,-0.691 0.442,-1.065 0.226,-1.282 -0.237,-0.237 m 62.362,0.022 -0.599,0.882 0.731,-0.751 c 0.402,-0.413 0.672,-0.81 0.599,-0.882 -0.072,-0.072 -0.401,0.266 -0.731,0.751 m 257.186,4.082 c 0,2.64 0.04,3.684 0.088,2.32 0.049,-1.364 0.048,-3.524 0,-4.8 -0.049,-1.276 -0.089,-0.16 -0.088,2.48 m -224.853,-1.133 c -0.356,3.002 -0.383,4.405 -0.052,2.733 0.263,-1.326 0.629,-5.467 0.484,-5.467 -0.059,0 -0.253,1.23 -0.432,2.734 M 66,120.396 c 0.74,0.219 2.223,0.376 3.333,0.353 l 2,-0.041 -2.266,-0.181 c -1.247,-0.1 -2.747,-0.259 -3.334,-0.353 -0.937,-0.151 -0.905,-0.124 0.267,0.222 m 5.867,-0.129 c -0.71,0.304 0.402,0.304 1.6,0 l 0.8,-0.204 -0.934,-0.013 c -0.513,-0.007 -1.173,0.091 -1.466,0.217 m 48.308,1.6 c 0.093,0.953 0.253,2.513 0.355,3.466 l 0.186,1.734 0.021,-1.6 c 0.011,-0.88 -0.148,-2.44 -0.355,-3.467 l -0.376,-1.867 0.169,1.734 m 247.425,-0.8 c -0.101,0.461 -0.124,0.898 -0.051,0.971 0.074,0.073 0.216,-0.244 0.318,-0.705 0.101,-0.461 0.124,-0.898 0.05,-0.971 -0.073,-0.073 -0.216,0.244 -0.317,0.705 m 6.836,-0.534 c -0.024,0.22 -0.118,0.7 -0.209,1.067 -0.128,0.515 -0.092,0.598 0.158,0.366 0.178,-0.166 0.272,-0.646 0.209,-1.067 -0.063,-0.421 -0.134,-0.586 -0.158,-0.366 M 88.904,121.8 c -0.564,0.697 -1.149,1.399 -1.298,1.561 -1.556,1.683 -3.278,3.44 -4.615,4.706 -0.89,0.843 -1.52,1.533 -1.401,1.533 0.471,0 6.258,-5.965 7.825,-8.067 1.061,-1.422 0.71,-1.239 -0.511,0.267 m -45.433,-0.044 c 0.002,0.427 0.126,0.957 0.276,1.177 0.196,0.287 0.222,0.098 0.094,-0.666 -0.221,-1.323 -0.376,-1.536 -0.37,-0.511 m 52.985,0.088 C 96.205,122.268 96,122.847 96,123.13 c 0,0.283 -0.086,0.6 -0.19,0.704 -0.24,0.241 -1.146,2.61 -1.134,2.966 0.015,0.429 0.771,-1.023 0.781,-1.501 0.005,-0.238 0.183,-0.577 0.394,-0.753 0.211,-0.175 0.433,-0.64 0.493,-1.032 0.098,-0.641 0.114,-0.625 0.149,0.153 0.022,0.476 -0.08,0.866 -0.226,0.866 -0.147,0 -0.259,0.45 -0.249,1 l 0.018,1 0.378,-1.2 c 0.208,-0.66 0.38,-1.538 0.382,-1.951 0.002,-0.413 0.135,-0.995 0.295,-1.295 0.472,-0.882 -0.123,-1.11 -0.635,-0.243 m -66.303,1.282 c -0.176,0.701 -0.452,1.725 -0.613,2.275 -0.161,0.551 -0.23,1.064 -0.153,1.141 0.077,0.077 0.284,-0.433 0.46,-1.134 0.176,-0.701 0.452,-1.725 0.613,-2.276 0.161,-0.551 0.23,-1.064 0.153,-1.141 -0.077,-0.077 -0.284,0.434 -0.46,1.135 m 62.453,0.024 c -0.473,0.699 -1.075,1.505 -1.338,1.793 -0.262,0.288 -0.747,0.872 -1.077,1.299 -2.069,2.671 -8.286,9.173 -10.596,11.082 -1.811,1.496 -5.516,3.974 -7.173,4.798 -0.975,0.485 -1.721,0.934 -1.658,0.998 0.231,0.231 4.777,-2.328 6.262,-3.525 0.242,-0.195 1.341,-1.072 2.441,-1.948 2.03,-1.617 7.01,-6.601 9.503,-9.514 2.463,-2.877 5.016,-6.269 4.71,-6.259 -0.117,0.003 -0.601,0.578 -1.074,1.276 M 358.4,122.114 c 0,0.136 -0.21,0.302 -0.467,0.369 -0.351,0.092 -0.318,0.129 0.134,0.153 0.369,0.019 0.6,-0.123 0.6,-0.369 0,-0.22 -0.06,-0.4 -0.134,-0.4 -0.073,0 -0.133,0.111 -0.133,0.247 m -331.169,0.47 c -0.017,0.322 -0.151,0.659 -0.298,0.749 -0.146,0.091 -0.262,0.368 -0.256,0.616 0.007,0.302 0.146,0.203 0.417,-0.298 0.223,-0.412 0.352,-0.952 0.287,-1.2 -0.087,-0.33 -0.127,-0.294 -0.15,0.133 m 88.938,1.016 c 0.088,0.88 0.247,2.38 0.354,3.333 l 0.193,1.734 0.026,-1.6 c 0.014,-0.88 -0.146,-2.38 -0.355,-3.334 l -0.379,-1.733 0.161,1.6 m 250.945,0 c -0.436,2.934 -0.456,4.412 -0.028,2.133 0.221,-1.173 0.362,-2.433 0.314,-2.8 -0.057,-0.434 -0.157,-0.203 -0.286,0.667 m -342.581,0.267 c -0.34,0.661 -0.559,1.262 -0.487,1.334 0.072,0.072 0.285,-0.198 0.474,-0.601 0.188,-0.404 0.457,-0.955 0.596,-1.226 0.14,-0.271 0.205,-0.542 0.145,-0.602 -0.06,-0.06 -0.387,0.433 -0.728,1.095 M 373.785,123.4 c -0.432,2.026 -0.448,2.578 -0.039,1.31 0.23,-0.71 0.374,-1.49 0.32,-1.734 -0.055,-0.255 -0.175,-0.076 -0.281,0.424 m -329.764,0.457 c -0.108,2.682 4.706,8.382 8.756,10.366 1.46,0.716 1.213,0.347 -0.315,-0.469 -4.056,-2.167 -6.789,-5.472 -8.288,-10.021 -0.092,-0.279 -0.138,-0.242 -0.153,0.124 m 49.617,0.181 c -0.188,0.301 -0.283,0.606 -0.211,0.677 0.071,0.072 0.269,-0.13 0.44,-0.448 0.17,-0.319 0.265,-0.624 0.211,-0.678 -0.054,-0.054 -0.252,0.148 -0.44,0.449 m -67.489,1.744 c -0.167,0.56 -0.439,1.469 -0.603,2.019 -0.164,0.551 -0.239,1.062 -0.166,1.135 0.074,0.073 0.281,-0.377 0.462,-1.001 0.18,-0.624 0.45,-1.534 0.601,-2.022 0.15,-0.487 0.214,-0.945 0.141,-1.017 -0.072,-0.073 -0.268,0.326 -0.435,0.886 m 66.629,-0.138 c -0.182,0.342 -0.558,1.027 -0.835,1.521 -0.276,0.494 -0.446,0.954 -0.378,1.023 0.069,0.068 0.274,-0.156 0.457,-0.498 0.182,-0.343 0.558,-1.027 0.835,-1.521 0.276,-0.494 0.446,-0.955 0.378,-1.023 -0.069,-0.069 -0.274,0.155 -0.457,0.498 m 33.511,1.368 c -0.121,1.143 -0.156,2.143 -0.077,2.222 0.206,0.206 0.521,-2.565 0.399,-3.509 -0.06,-0.47 -0.191,0.053 -0.322,1.287 m -103.098,0.077 c -0.289,0.672 -0.517,1.362 -0.507,1.533 0.017,0.322 0.363,-0.383 0.928,-1.889 0.489,-1.304 0.177,-1.041 -0.421,0.356 m 349.641,0.737 c -0.232,1.038 -0.298,5.319 -0.242,15.668 0.048,8.958 0.15,13.3 0.275,11.706 0.287,-3.658 0.295,-5.448 0.068,-16.096 -0.16,-7.479 -0.129,-9.876 0.141,-11.002 0.19,-0.791 0.285,-1.498 0.212,-1.572 -0.074,-0.073 -0.278,0.51 -0.454,1.296 m -277.591,1.377 c -0.336,1.42 -0.559,2.635 -0.496,2.698 0.063,0.063 0.251,-0.429 0.418,-1.093 0.167,-0.665 0.437,-1.739 0.599,-2.388 0.163,-0.649 0.249,-1.319 0.192,-1.49 -0.057,-0.171 -0.378,0.852 -0.713,2.273 m 27.048,-0.591 c -0.121,1.143 -0.156,2.143 -0.077,2.222 0.206,0.206 0.521,-2.565 0.399,-3.509 -0.06,-0.47 -0.191,0.053 -0.322,1.287 m 174.787,-0.896 c -0.152,0.283 -0.268,1.873 -0.257,3.533 0.012,1.934 0.101,2.826 0.248,2.484 0.126,-0.293 0.237,-1.823 0.248,-3.4 l 0.018,-2.866 h 2.655 2.654 l 0.183,0.971 c 0.1,0.535 0.117,2.485 0.037,4.334 -0.093,2.141 -0.065,2.926 0.077,2.161 0.353,-1.91 0.312,-7.042 -0.059,-7.413 -0.59,-0.59 -5.472,-0.425 -5.804,0.196 M 28.945,128.75 c -0.11,0.78 -0.136,1.481 -0.059,1.558 0.19,0.19 0.535,-2.184 0.381,-2.625 -0.067,-0.192 -0.212,0.288 -0.322,1.067 m 92.033,0.45 c 0.085,1.027 0.2,1.917 0.255,1.978 0.198,0.219 0.042,-2.526 -0.181,-3.178 -0.144,-0.421 -0.171,0.021 -0.074,1.2 m -30.589,0.874 c -1.148,1.89 -1.257,2.154 -0.699,1.693 0.244,-0.201 0.443,-0.473 0.443,-0.605 0,-0.132 0.309,-0.728 0.686,-1.326 0.378,-0.597 0.643,-1.13 0.589,-1.183 -0.053,-0.054 -0.512,0.586 -1.019,1.421 m 3.254,-0.863 c -0.446,0.981 -0.361,1.19 0.122,0.299 0.225,-0.417 0.36,-0.807 0.299,-0.868 -0.061,-0.061 -0.25,0.195 -0.421,0.569 m 272.618,1.287 c -0.101,1.08 -0.07,2.73 0.07,3.666 0.234,1.575 0.255,1.428 0.282,-1.964 0.033,-4.096 -0.077,-4.63 -0.352,-1.702 m -249.268,0.435 c 0.081,1.1 0.191,2.05 0.244,2.111 0.191,0.22 0.038,-2.793 -0.174,-3.444 -0.129,-0.395 -0.158,0.149 -0.07,1.333 m 230.813,-0.8 c 0,0.66 0.052,0.93 0.116,0.6 0.063,-0.33 0.063,-0.87 0,-1.2 -0.064,-0.33 -0.116,-0.06 -0.116,0.6 M 25.099,129.867 c -0.022,0.22 -0.106,0.7 -0.188,1.066 -0.128,0.577 -0.107,0.603 0.155,0.193 0.166,-0.261 0.251,-0.741 0.188,-1.067 -0.063,-0.326 -0.133,-0.412 -0.155,-0.192 m 11.724,0 c 0.008,0.22 0.118,0.64 0.244,0.933 l 0.229,0.533 0.015,-0.533 c 0.008,-0.293 -0.102,-0.713 -0.244,-0.933 -0.23,-0.356 -0.257,-0.356 -0.244,0 m 88.8,2.608 c -0.199,1.655 -0.3,3.07 -0.224,3.146 0.191,0.191 0.827,-4.963 0.693,-5.621 -0.059,-0.293 -0.27,0.82 -0.469,2.475 m -46.947,-1.001 c -2.671,1.849 -4.449,2.758 -7.343,3.754 -1.173,0.404 -1.962,0.743 -1.753,0.754 1.647,0.08 7.958,-3.088 11.189,-5.618 1.372,-1.073 0.045,-0.37 -2.093,1.11 m 72.311,-1.287 c -0.211,0.21 -0.302,1.144 -0.265,2.733 l 0.054,2.413 0.089,-2.309 c 0.111,-2.889 0.161,-2.934 3.175,-2.835 l 2.36,0.078 V 132 c 0,0.953 -0.087,2.393 -0.192,3.2 -0.152,1.157 -0.132,1.326 0.094,0.8 0.46,-1.072 0.632,-5.25 0.235,-5.728 -0.427,-0.515 -5.05,-0.586 -5.55,-0.085 m 207.853,-0.12 c -0.068,0.11 1.065,0.162 2.518,0.115 l 2.642,-0.084 0.041,2.751 0.041,2.751 0.262,-2.462 c 0.345,-3.247 0.324,-3.271 -2.894,-3.271 -1.367,0 -2.541,0.09 -2.61,0.2 m -337.18,1.2 c -0.454,1.255 -0.391,1.595 0.09,0.486 0.218,-0.502 0.361,-1.02 0.317,-1.152 -0.044,-0.131 -0.227,0.168 -0.407,0.666 m 70.878,0.535 c -0.342,0.769 -0.902,1.989 -1.245,2.711 -0.342,0.722 -0.58,1.356 -0.527,1.409 0.087,0.087 0.408,-0.544 2.097,-4.132 0.296,-0.629 0.484,-1.198 0.418,-1.265 -0.067,-0.066 -0.401,0.508 -0.743,1.277 m -63.899,2.465 c 0,2.053 0.042,2.858 0.093,1.788 0.05,-1.07 0.05,-2.75 -10e-4,-3.733 -0.051,-0.984 -0.093,-0.109 -0.092,1.945 m 93.255,-2.4 c -0.028,0.62 -0.094,0.71 -0.294,0.4 -0.21,-0.326 -0.259,-0.291 -0.263,0.184 -0.002,0.321 0.113,0.656 0.255,0.744 0.313,0.194 0.638,-0.96 0.463,-1.641 -0.079,-0.302 -0.14,-0.183 -0.161,0.313 m -84.55,-0.25 c -0.006,0.156 0.289,0.905 0.656,1.665 0.367,0.76 0.667,1.445 0.667,1.522 0,1.978 9.757,10.194 10.831,9.121 0.054,-0.054 -0.531,-0.377 -1.3,-0.717 -4.322,-1.911 -7.583,-5.126 -9.749,-9.608 -0.602,-1.247 -1.1,-2.139 -1.105,-1.983 M 24.428,133 c -0.088,0.697 -0.207,2.407 -0.266,3.8 l -0.106,2.533 0.207,-2.133 c 0.114,-1.173 0.298,-2.883 0.409,-3.8 0.111,-0.917 0.137,-1.667 0.059,-1.667 -0.079,0 -0.216,0.57 -0.303,1.267 m 70.005,-0.467 c -0.022,0.22 -0.107,0.7 -0.188,1.067 -0.128,0.576 -0.107,0.602 0.154,0.192 0.167,-0.261 0.251,-0.741 0.188,-1.066 -0.063,-0.326 -0.132,-0.413 -0.154,-0.193 m 123.86,1.562 c -0.106,0.932 -0.135,1.752 -0.065,1.822 0.177,0.177 0.523,-2.731 0.377,-3.165 -0.065,-0.194 -0.205,0.411 -0.312,1.343 m 140.155,-0.153 c -0.065,1.729 -0.659,3.073 -1.43,3.238 -0.34,0.073 -0.858,0.183 -1.151,0.245 -0.343,0.073 -0.245,0.124 0.274,0.144 1.657,0.064 2.63,-1.361 2.457,-3.597 l -0.102,-1.305 -0.048,1.275 m -271.247,1.472 c -0.798,1.276 -1.635,2.521 -1.859,2.767 -0.498,0.545 -1.42,2.086 -1.249,2.086 0.317,0 4.842,-6.887 4.651,-7.079 -0.051,-0.051 -0.746,0.951 -1.543,2.226 m 260.835,-1.166 c -0.038,0.834 0.325,2.183 0.939,3.485 0.208,0.44 0.302,0.56 0.21,0.267 -0.284,-0.901 -0.863,-3.163 -0.991,-3.867 -0.112,-0.617 -0.124,-0.609 -0.158,0.115 m -230.534,1.085 c 0.088,0.88 0.248,2.38 0.354,3.334 l 0.193,1.733 0.026,-1.6 c 0.014,-0.88 -0.145,-2.38 -0.354,-3.333 l -0.38,-1.734 0.161,1.6 m -96.938,-0.349 c -0.017,0.395 -0.151,0.792 -0.297,0.883 -0.147,0.09 -0.261,0.487 -0.254,0.882 0.01,0.6 0.078,0.529 0.416,-0.434 0.222,-0.633 0.35,-1.353 0.285,-1.6 -0.069,-0.261 -0.132,-0.148 -0.15,0.269 m 73.094,0.608 c -0.188,0.704 -0.29,1.332 -0.226,1.395 0.185,0.185 0.75,-1.739 0.655,-2.229 -0.048,-0.246 -0.241,0.129 -0.429,0.834 m 202.906,-0.813 c -0.017,0.282 -0.23,0.733 -0.473,1.002 -0.244,0.269 -0.374,0.559 -0.288,0.644 0.264,0.264 1.048,-1.172 0.917,-1.679 -0.113,-0.435 -0.128,-0.432 -0.156,0.033 M 54.133,134.746 c 0,0.224 3.38,1.256 4.056,1.238 0.336,-0.009 -0.169,-0.239 -1.122,-0.513 -0.954,-0.273 -2.004,-0.579 -2.334,-0.681 -0.33,-0.102 -0.6,-0.122 -0.6,-0.044 m 158.421,0.546 c -0.011,0.271 -0.269,0.841 -0.572,1.267 -0.303,0.426 -0.442,0.774 -0.309,0.774 0.375,0 1.22,-1.731 1.052,-2.156 -0.106,-0.268 -0.156,-0.235 -0.171,0.115 m 79.45,-0.067 c -0.002,0.234 0.253,0.654 0.568,0.934 0.565,0.501 0.568,0.501 0.276,-0.026 -0.649,-1.167 -0.839,-1.372 -0.844,-0.908 m -145.849,0.188 c -0.033,0.528 0.753,1.92 1.084,1.92 0.183,0 0.155,-0.165 -0.073,-0.438 -0.201,-0.242 -0.506,-0.752 -0.678,-1.134 -0.171,-0.382 -0.321,-0.538 -0.333,-0.348 m 4.266,0.539 c -0.036,0.598 -0.83,1.199 -1.848,1.397 l -0.973,0.19 0.852,0.03 c 0.99,0.036 2.376,-0.992 2.14,-1.588 -0.112,-0.286 -0.155,-0.293 -0.171,-0.029 M 202.692,136 c -0.024,0.566 0.627,2.359 0.988,2.72 0.166,0.166 0.083,-0.287 -0.186,-1.009 -0.269,-0.721 -0.556,-1.491 -0.637,-1.711 -0.132,-0.356 -0.15,-0.356 -0.165,0 m 83.46,-0.082 c 0.06,0.692 0.477,1.279 0.496,0.698 0.01,-0.322 -0.101,-0.659 -0.248,-0.749 -0.147,-0.091 -0.258,-0.068 -0.248,0.051 m -226.019,0.364 c 0.587,0.121 1.667,0.211 2.4,0.198 l 1.334,-0.022 -1.467,-0.203 c -0.807,-0.111 -1.887,-0.2 -2.4,-0.198 l -0.933,0.004 1.066,0.221 m 5.6,-0.015 -1.333,0.183 1.467,0.01 c 0.806,0.006 1.826,-0.081 2.266,-0.193 l 0.8,-0.204 -0.933,0.01 c -0.513,0.006 -1.533,0.093 -2.267,0.194 m 297.867,0.266 c -0.1,0.316 -0.122,0.634 -0.049,0.707 0.074,0.074 0.216,-0.125 0.316,-0.44 0.1,-0.315 0.122,-0.634 0.048,-0.707 -0.073,-0.073 -0.215,0.125 -0.315,0.44 m -274.132,1.65 c -0.543,1.072 -1.095,2.064 -1.227,2.204 -0.133,0.139 -0.241,0.373 -0.241,0.52 0,0.168 0.089,0.173 0.241,0.013 0.388,-0.408 2.443,-4.458 2.323,-4.579 -0.061,-0.06 -0.554,0.769 -1.096,1.842 M 217.821,136.8 c -0.084,0.367 -0.235,0.907 -0.337,1.2 -0.102,0.293 0.01,0.196 0.249,-0.215 0.238,-0.412 0.39,-0.952 0.337,-1.2 -0.069,-0.322 -0.14,-0.261 -0.249,0.215 m 84.446,0 c -0.1,0.315 -0.122,0.634 -0.049,0.707 0.073,0.073 0.215,-0.125 0.315,-0.44 0.1,-0.316 0.122,-0.634 0.049,-0.707 -0.073,-0.074 -0.215,0.125 -0.315,0.44 m 64.523,0.4 c 0.053,0.587 0.225,1.487 0.382,2 l 0.285,0.933 -0.13,-0.933 c -0.072,-0.513 -0.244,-1.413 -0.382,-2 l -0.251,-1.067 0.096,1.067 m -241.821,1.021 c -0.119,1.002 -0.154,1.883 -0.079,1.958 0.203,0.203 0.503,-2.09 0.392,-2.995 -0.062,-0.501 -0.175,-0.127 -0.313,1.037 M 293.8,136.722 c 0.33,0.063 0.87,0.063 1.2,0 0.33,-0.064 0.06,-0.116 -0.6,-0.116 -0.66,0 -0.93,0.052 -0.6,0.116 m -200.697,0.923 c -0.02,0.245 -0.114,0.665 -0.209,0.933 -0.133,0.377 -0.098,0.42 0.156,0.186 0.181,-0.166 0.275,-0.586 0.209,-0.933 -0.066,-0.347 -0.136,-0.431 -0.156,-0.186 m 193.565,-0.24 c -0.002,0.305 1.203,2.157 1.629,2.504 0.741,0.603 2.397,1.424 2.844,1.409 0.253,-0.008 -0.025,-0.218 -0.616,-0.466 -1.549,-0.652 -2.232,-1.204 -3.093,-2.502 -0.42,-0.633 -0.764,-1.058 -0.764,-0.945 m 76.177,0.991 c -0.616,1.043 -1.888,1.983 -3.378,2.498 -0.66,0.227 -0.953,0.42 -0.65,0.427 1.295,0.03 4.65,-2.497 4.65,-3.502 0,-0.373 -0.135,-0.248 -0.622,0.577 m -343.226,0.156 c -0.098,0.391 -0.127,0.762 -0.064,0.825 0.063,0.063 0.195,-0.205 0.293,-0.596 0.098,-0.391 0.127,-0.762 0.064,-0.825 -0.063,-0.063 -0.195,0.206 -0.293,0.596 m 281.893,0.11 c -0.578,0.979 -1.573,1.691 -3.112,2.227 -0.759,0.265 -0.982,0.424 -0.607,0.432 1.216,0.026 4.849,-2.768 4.305,-3.312 -0.069,-0.069 -0.333,0.225 -0.586,0.653 m -272.659,0.005 c 0,0.366 0.096,0.966 0.214,1.333 l 0.213,0.667 V 140 c 0,-0.367 -0.096,-0.967 -0.213,-1.333 L 28.853,138 v 0.667 m 112.482,-0.288 c 0.006,0.815 3.179,2.971 4.321,2.936 0.371,-0.012 0.112,-0.172 -0.661,-0.41 -0.781,-0.24 -1.734,-0.833 -2.467,-1.536 -0.657,-0.629 -1.194,-1.075 -1.193,-0.99 m 12.872,0.998 c -0.72,0.726 -1.586,1.277 -2.4,1.528 -0.916,0.281 -1.083,0.396 -0.593,0.41 0.768,0.021 2.724,-1.148 3.698,-2.21 1.071,-1.166 0.504,-0.948 -0.705,0.272 m 62.306,-0.007 c -0.355,0.386 -1.246,0.979 -1.98,1.318 -0.733,0.338 -1.121,0.622 -0.863,0.63 0.775,0.025 2.666,-1.184 3.327,-2.128 0.517,-0.738 0.279,-0.65 -0.484,0.18 m 133.228,-0.118 c 0.601,0.822 2.754,2.092 3.495,2.06 0.274,-0.011 0.004,-0.196 -0.6,-0.41 -0.603,-0.214 -1.62,-0.834 -2.259,-1.379 -0.955,-0.813 -1.068,-0.861 -0.636,-0.271 m -257.408,0.987 c -0.453,1.478 -0.402,1.968 0.089,0.837 0.22,-0.508 0.365,-1.148 0.322,-1.423 -0.048,-0.313 -0.202,-0.095 -0.411,0.586 m 111.816,-0.746 c 0.328,0.53 2.611,1.841 3.17,1.819 0.329,-0.012 0.1,-0.179 -0.576,-0.419 -0.618,-0.219 -1.398,-0.687 -1.733,-1.041 -0.621,-0.654 -1.19,-0.892 -0.861,-0.359 m -185.056,1.493 c -0.093,0.558 -0.219,1.734 -0.28,2.614 -0.061,0.88 -0.059,1.3 0.004,0.933 0.063,-0.366 0.254,-1.477 0.425,-2.468 0.171,-0.991 0.245,-1.867 0.165,-1.947 -0.08,-0.08 -0.221,0.311 -0.314,0.868 m 63.311,1.222 c -3.483,4.833 -9.924,10.868 -14.042,13.157 -1.319,0.733 -1.536,0.845 -2.828,1.449 -0.403,0.188 -0.685,0.39 -0.626,0.449 0.059,0.059 0.328,-0.008 0.599,-0.148 0.271,-0.14 1.153,-0.588 1.96,-0.995 4.241,-2.138 10.189,-7.334 13.875,-12.12 0.509,-0.66 0.991,-1.26 1.072,-1.333 0.477,-0.431 1.611,-2.132 1.418,-2.126 -0.128,0.004 -0.77,0.754 -1.428,1.667 m 37.407,-1.477 c 0.996,0.052 2.556,0.051 3.467,-0.001 0.91,-0.051 0.095,-0.094 -1.811,-0.093 -1.907,0 -2.652,0.043 -1.656,0.094 m -90.461,1.053 c -0.009,0.322 0.103,0.659 0.25,0.749 0.147,0.091 0.271,0.428 0.276,0.749 0.005,0.322 0.194,0.885 0.419,1.251 0.274,0.447 0.348,0.491 0.226,0.134 -0.1,-0.294 -0.275,-0.894 -0.388,-1.334 -0.382,-1.485 -0.763,-2.238 -0.783,-1.549 m 58.315,-0.268 c -0.067,0.119 -0.451,0.787 -0.852,1.484 -0.402,0.697 -0.669,1.267 -0.595,1.267 0.216,0 1.826,-2.712 1.691,-2.847 -0.067,-0.067 -0.177,-0.024 -0.244,0.096 m 59.742,0.013 c 0.627,0.056 1.587,0.055 2.133,-0.002 0.547,-0.057 0.033,-0.103 -1.14,-0.102 -1.173,10e-4 -1.62,0.048 -0.993,0.104 m 61.726,0 c 0.697,0.055 1.837,0.055 2.534,0 0.696,-0.055 0.126,-0.1 -1.267,-0.1 -1.393,0 -1.963,0.045 -1.267,0.1 m 84,0 c 0.697,0.055 1.837,0.055 2.534,0 0.696,-0.055 0.126,-0.1 -1.267,-0.1 -1.393,0 -1.963,0.045 -1.267,0.1 m 62.007,0 c 0.628,0.056 1.588,0.055 2.134,-0.002 0.546,-0.057 0.033,-0.103 -1.141,-0.102 -1.173,10e-4 -1.62,0.048 -0.993,0.104 m 13.006,0.871 c 0.409,2.527 0.426,3.083 0.129,4.101 -0.514,1.756 -1.13,2.842 -1.962,3.458 -1.88,1.392 -2.846,2.509 -2.846,3.291 0,0.693 1.366,3.283 1.731,3.283 0.079,0 -0.186,-0.497 -0.588,-1.104 -1.085,-1.64 -1.018,-3.033 0.191,-3.938 3.507,-2.628 4.687,-5.528 3.592,-8.824 -0.34,-1.025 -0.376,-1.064 -0.247,-0.267 m -343.999,1.867 c 0.048,1.246 0.209,2.806 0.357,3.466 l 0.269,1.2 -0.143,-1.466 C 24.551,146.66 24.39,145.1 24.272,144 l -0.214,-2 0.089,2.267 m 67.512,-1.779 c -0.297,0.756 -0.249,1.142 0.099,0.794 0.161,-0.161 0.247,-0.515 0.192,-0.787 -0.096,-0.477 -0.106,-0.478 -0.291,-0.007 m -22.726,1.102 c -0.619,0.284 -0.679,0.369 -0.266,0.379 0.293,0.007 0.833,-0.159 1.2,-0.369 0.856,-0.489 0.13,-0.497 -0.934,-0.01 m 22.221,0.677 c -0.083,0.366 -0.235,0.906 -0.337,1.2 -0.101,0.293 0.011,0.196 0.249,-0.216 0.239,-0.412 0.39,-0.952 0.337,-1.2 -0.068,-0.322 -0.14,-0.26 -0.249,0.216 m -41.283,-0.189 c 0.269,0.299 4.267,1.255 5.124,1.225 0.542,-0.018 0.016,-0.205 -1.395,-0.493 -1.247,-0.255 -2.627,-0.559 -3.067,-0.675 -0.44,-0.115 -0.738,-0.141 -0.662,-0.057 m 16.662,0.189 -0.533,0.229 h 0.533 c 0.294,0 0.774,-0.103 1.067,-0.229 l 0.533,-0.23 H 67.6 c -0.293,0 -0.773,0.104 -1.067,0.23 m -3.866,0.666 c -1.512,0.292 -1.597,0.338 -0.667,0.356 0.587,0.012 1.727,-0.143 2.533,-0.344 1.888,-0.471 0.555,-0.479 -1.866,-0.012 m -31.99,0.591 c -0.029,0.882 2.825,5.303 4.579,7.094 2.05,2.093 6.156,4.992 6.534,4.614 0.071,-0.071 -0.336,-0.352 -0.902,-0.626 -3.611,-1.745 -7.228,-5.539 -9.439,-9.905 -0.419,-0.825 -0.766,-1.355 -0.772,-1.177 m 26.99,0 c 0.403,0.061 1.063,0.061 1.466,0 0.404,-0.061 0.074,-0.111 -0.733,-0.111 -0.807,0 -1.137,0.05 -0.733,0.111 m -39.362,1.982 c -0.211,2.014 -0.186,4.981 0.057,6.761 0.11,0.81 0.191,-0.574 0.206,-3.534 0.026,-5.305 -0.006,-5.692 -0.263,-3.227 m 71.628,0.282 c -0.694,2.025 -0.764,2.534 -0.198,1.448 0.219,-0.42 0.398,-0.966 0.398,-1.213 0,-0.247 0.132,-0.581 0.292,-0.741 0.16,-0.161 0.25,-0.506 0.2,-0.767 -0.05,-0.262 -0.362,0.311 -0.692,1.273 m -5.666,-0.721 c -0.189,0.227 -0.283,0.473 -0.21,0.546 0.074,0.073 0.288,-0.053 0.476,-0.28 0.189,-0.227 0.283,-0.473 0.21,-0.546 -0.074,-0.073 -0.288,0.053 -0.476,0.28 m -1.101,1.8 c -0.331,0.476 -0.91,1.28 -1.284,1.786 -0.375,0.506 -0.554,0.843 -0.397,0.748 0.337,-0.204 2.609,-3.401 2.417,-3.401 -0.073,0 -0.404,0.39 -0.736,0.867 m -58.347,0.384 c 0.06,0.692 0.477,1.279 0.496,0.698 0.01,-0.321 -0.102,-0.658 -0.248,-0.749 -0.147,-0.091 -0.259,-0.068 -0.248,0.051 m 63.852,2.005 c -0.663,1.638 -0.761,2.02 -0.363,1.411 0.406,-0.622 1.042,-2.34 0.913,-2.468 -0.048,-0.048 -0.296,0.427 -0.55,1.057 m -63.328,-0.153 c -0.005,0.166 0.17,0.646 0.389,1.067 0.219,0.42 0.395,0.583 0.39,0.363 -0.009,-0.478 -0.766,-1.866 -0.779,-1.43 m 54.484,2.161 c -2.322,2.747 -4.346,4.776 -5.821,5.832 -0.796,0.571 -1.453,1.135 -1.46,1.254 -0.027,0.453 2.432,-1.566 4.444,-3.648 2.128,-2.202 4.501,-4.969 4.262,-4.969 -0.072,0 -0.713,0.689 -1.425,1.531 m 100.424,-0.872 c 0.694,0.359 1.349,1.547 1.349,2.448 0,0.55 -1.065,0.445 -1.075,-0.107 -0.017,-0.907 -0.739,-1.507 -1.778,-1.477 -2.116,0.06 -2.247,2.198 -0.266,4.316 3.176,3.395 2.488,6.973 -1.338,6.955 -1.813,-0.008 -3.73,-2.047 -2.799,-2.977 0.416,-0.416 1.067,-0.078 1.169,0.607 0.118,0.796 1.34,1.68 2.023,1.463 2.047,-0.649 2.289,-2.717 0.539,-4.585 -1.749,-1.866 -2.072,-2.487 -2.064,-3.968 0.013,-2.441 2.121,-3.771 4.24,-2.675 m 88.034,0.061 c 0.707,0.418 1.315,1.521 1.315,2.387 0,0.656 -0.999,0.399 -1.175,-0.303 -0.403,-1.605 -2.49,-1.826 -3.255,-0.345 -0.534,1.033 -0.248,1.745 1.482,3.682 2.156,2.415 2.347,4.254 0.621,5.981 -1.657,1.656 -5.14,0.36 -5.14,-1.913 0,-1.012 1.152,-0.734 1.334,0.322 0.258,1.499 2.361,1.786 3.369,0.459 0.803,-1.056 0.454,-2.257 -1.215,-4.187 -1.63,-1.886 -2.055,-2.948 -1.727,-4.32 0.449,-1.877 2.681,-2.773 4.391,-1.763 m 26.657,-0.048 c 0.794,0.41 1.591,1.613 1.591,2.4 0,0.722 -1.152,0.372 -1.333,-0.405 -0.204,-0.874 -1.326,-1.424 -2.216,-1.086 -1.459,0.555 -1.463,2.199 -0.011,3.904 1.973,2.314 2.227,2.786 2.227,4.136 0,3.735 -5.354,4.608 -6.011,0.979 -0.163,-0.897 -0.124,-1 0.381,-1 0.371,0 0.563,0.169 0.563,0.495 0,1.709 2.178,2.315 3.4,0.947 1.063,-1.189 0.761,-2.212 -1.377,-4.663 -2.914,-3.342 -0.844,-7.585 2.786,-5.707 m 20.854,0.373 c 1.473,1.317 1.228,5.705 -0.52,9.299 -2.016,4.146 -5.943,3.213 -5.943,-1.413 0,-5.845 3.698,-10.356 6.463,-7.886 m 20.184,-0.088 c 0.714,0.601 0.82,0.863 0.82,2.02 0,1.767 -0.748,1.74 -1.178,-0.043 -0.609,-2.532 -2.913,-1.552 -4.004,1.703 -1.646,4.912 -0.818,8.186 1.727,6.824 1.209,-0.647 1.819,-2.853 0.887,-3.207 -1.07,-0.407 -0.723,-1.172 0.57,-1.257 1.479,-0.096 1.77,0.154 1.491,1.282 -0.126,0.507 -0.382,1.641 -0.57,2.521 -0.388,1.815 -0.648,2.248 -1.087,1.81 -0.219,-0.219 -0.579,-0.198 -1.361,0.078 -2.37,0.836 -3.675,-0.45 -3.675,-3.62 0,-6.169 3.46,-10.568 6.38,-8.111 m -148.113,5.71 c 0,5.822 -0.016,6 -0.534,6 -0.465,0 -0.55,-0.222 -0.666,-1.733 l -0.134,-1.734 h -1.333 -1.333 l -0.882,1.8 c -0.835,1.706 -1.652,2.362 -1.652,1.326 0,-0.408 0.867,-2.629 2.286,-5.859 0.21,-0.477 0.544,-1.257 0.743,-1.733 1.644,-3.931 1.838,-4.23 2.691,-4.147 l 0.814,0.08 v 6 m 5,-4.924 c -0.036,0.582 -0.238,1.717 -0.448,2.524 -0.21,0.807 -0.518,2.187 -0.686,3.067 -0.167,0.88 -0.415,2.034 -0.552,2.564 -0.398,1.549 -0.407,1.542 1.952,1.625 1.997,0.07 2.2,0.127 2.2,0.611 0,0.495 -0.203,0.538 -2.845,0.608 -3.269,0.087 -3.283,0.076 -2.728,-2.208 0.178,-0.734 0.446,-1.934 0.596,-2.667 1.347,-6.585 1.582,-7.386 2.126,-7.274 0.347,0.071 0.436,0.338 0.385,1.15 m 6.6,-0.285 c 0,0.508 -0.167,1.438 -0.372,2.066 -0.204,0.629 -0.44,1.623 -0.525,2.21 -0.086,0.586 -0.326,1.906 -0.535,2.933 -0.402,1.981 -0.281,2.578 0.62,3.061 0.825,0.441 2.678,-0.486 2.678,-1.339 0,-0.175 0.175,-0.873 0.389,-1.553 0.214,-0.68 0.522,-1.956 0.685,-2.836 0.164,-0.88 0.409,-2.034 0.545,-2.564 0.136,-0.53 0.248,-1.256 0.248,-1.613 0,-0.723 0.445,-1.289 1.014,-1.289 0.476,0 0.175,2.555 -0.708,6 -0.15,0.586 -0.428,1.828 -0.617,2.759 -0.528,2.6 -1.502,3.584 -3.548,3.584 -2.577,0 -3.212,-1.199 -2.513,-4.743 1.422,-7.208 1.538,-7.6 2.254,-7.6 0.261,0 0.385,0.297 0.385,0.924 m 11.069,-0.657 c 1.914,0.728 2.532,3.288 1.623,6.72 -1.123,4.238 -2.284,5.279 -5.886,5.279 h -1.531 l 0.149,-0.866 c 0.373,-2.162 0.727,-3.933 1.105,-5.534 0.226,-0.953 0.519,-2.333 0.652,-3.066 0.517,-2.853 1.449,-3.46 3.888,-2.533 m 8.131,5.866 c 0,3.373 -0.106,6.133 -0.234,6.133 -0.499,0 -0.804,-0.741 -0.884,-2.141 l -0.082,-1.459 -1.161,-0.083 c -1.122,-0.081 -2.173,0.438 -2.173,1.073 0,0.619 -1.124,2.61 -1.473,2.61 -0.544,0 -0.492,-0.851 0.14,-2.269 1.317,-2.957 1.612,-3.641 2.817,-6.531 1.353,-3.246 1.502,-3.456 2.45,-3.462 l 0.6,-0.004 v 6.133 m 8.864,-5.387 c 1.006,1.007 0.841,3.244 -0.328,4.45 l -0.902,0.931 0.618,0.657 c 2.143,2.281 -0.734,5.64 -4.652,5.434 l -1.6,-0.085 0.059,-1.333 c 0.033,-0.734 0.171,-1.754 0.308,-2.267 0.136,-0.513 0.45,-1.893 0.697,-3.067 0.498,-2.371 0.925,-4.278 1.124,-5.027 0.207,-0.778 3.83,-0.54 4.676,0.307 m 4.469,0.368 c 0,0.613 -0.112,1.483 -0.25,1.933 -0.295,0.97 -0.765,3.013 -1.076,4.686 -0.123,0.66 -0.31,1.65 -0.417,2.2 l -0.193,1 1.968,0.004 c 2.265,0.005 2.926,0.257 2.385,0.909 -0.275,0.331 -0.91,0.42 -2.983,0.42 H 228.8 v -0.969 c 0,-0.533 0.111,-1.403 0.247,-1.933 0.135,-0.53 0.445,-1.924 0.688,-3.098 0.243,-1.173 0.552,-2.502 0.687,-2.952 0.134,-0.45 0.245,-1.148 0.245,-1.551 0,-0.937 0.442,-1.763 0.942,-1.763 0.281,0 0.391,0.313 0.391,1.114 m 11.333,-0.581 c 0,0.311 -0.471,0.43 -2.105,0.533 -2.349,0.149 -2.32,0.125 -2.832,2.364 -0.387,1.69 -0.222,1.893 1.537,1.899 1.969,0.007 1.611,1.019 -0.397,1.124 -1.786,0.093 -2.034,0.405 -2.344,2.947 l -0.187,1.533 h 2.015 c 2.058,0 2.439,0.161 2.152,0.909 -0.134,0.351 -0.649,0.424 -2.969,0.424 h -2.807 l 0.189,-1.133 c 0.295,-1.778 0.61,-3.378 1.061,-5.4 0.229,-1.027 0.53,-2.491 0.669,-3.254 0.455,-2.498 0.472,-2.509 3.433,-2.422 2.086,0.061 2.585,0.153 2.585,0.476 m 9.055,-0.156 c 2,0.836 2.471,4.25 1.103,7.995 -1.076,2.947 -2.355,3.894 -5.257,3.894 h -1.567 v -0.828 c 0,-0.455 0.164,-1.505 0.365,-2.333 0.201,-0.828 0.512,-2.225 0.69,-3.105 0.508,-2.507 1.112,-5.301 1.225,-5.667 0.141,-0.457 2.308,-0.429 3.441,0.044 m 10.279,0.145 c 0,0.47 -0.219,0.531 -2.181,0.6 l -2.18,0.078 -0.302,1.343 c -0.166,0.738 -0.395,1.493 -0.509,1.678 -0.385,0.622 0.381,1.112 1.738,1.112 1.123,0 1.3,0.073 1.3,0.533 0,0.474 -0.177,0.534 -1.59,0.534 -1.801,0 -1.961,0.151 -2.236,2.133 -0.091,0.66 -0.242,1.47 -0.334,1.8 -0.165,0.586 -0.12,0.6 1.98,0.6 2.187,0 2.576,0.155 2.286,0.909 -0.134,0.35 -0.644,0.424 -2.906,0.424 -2.736,0 -3.432,-0.258 -2.922,-1.085 0.157,-0.254 0.817,-3.258 1.196,-5.448 1.025,-5.918 0.895,-5.733 4.025,-5.733 2.439,0 2.635,0.039 2.635,0.522 m 13.973,0.528 c 0.801,0.802 0.826,0.898 0.811,3.155 -0.037,5.327 -2.212,8.226 -6.01,8.01 L 270,164.4 l 0.055,-1.178 c 0.03,-0.648 0.307,-2.328 0.615,-3.733 0.308,-1.406 0.755,-3.456 0.993,-4.556 0.583,-2.69 0.653,-2.76 2.569,-2.586 1.31,0.118 1.723,0.285 2.408,0.97 m 9.227,-0.517 c 0,0.485 -0.178,0.533 -1.968,0.533 -2.261,0 -2.336,0.057 -2.823,2.169 -0.433,1.879 -0.294,2.098 1.34,2.098 1.14,0 1.317,0.072 1.317,0.533 0,0.474 -0.177,0.534 -1.584,0.534 -1.752,0 -1.891,0.11 -2.17,1.723 -0.103,0.592 -0.274,1.462 -0.38,1.932 l -0.194,0.855 2.231,0.078 c 2.027,0.071 2.231,0.127 2.231,0.612 0,0.495 -0.203,0.538 -2.867,0.609 l -2.867,0.075 v -0.856 c 0,-0.472 0.112,-1.226 0.25,-1.676 0.277,-0.911 0.77,-3.122 1.104,-4.952 0.938,-5.138 0.665,-4.8 3.879,-4.8 2.323,0 2.501,0.038 2.501,0.533 M 300,153.147 c 0,0.484 -0.246,1.954 -0.546,3.267 -0.931,4.07 -1.183,6.176 -0.794,6.644 0.456,0.55 1.948,0.518 2.648,-0.058 0.614,-0.504 0.956,-1.752 2.463,-8.96 0.321,-1.535 0.804,-2.105 1.334,-1.575 0.18,0.18 0.182,0.611 0.004,1.302 -0.146,0.568 -0.463,1.993 -0.704,3.166 -1.229,5.982 -1.741,7.089 -3.508,7.576 -3.59,0.991 -4.362,-0.922 -2.897,-7.176 0.223,-0.953 0.522,-2.384 0.663,-3.18 0.344,-1.931 1.337,-2.679 1.337,-1.006 m 24.565,0.134 c 1.273,1.426 0.802,3.785 -0.984,4.919 -0.861,0.547 -0.93,0.682 -0.784,1.533 0.715,4.163 0.701,4.897 -0.092,4.744 -0.322,-0.062 -0.511,-0.663 -0.763,-2.423 -0.374,-2.62 -0.681,-3.389 -1.351,-3.383 -0.795,0.007 -1.046,0.356 -1.342,1.862 -0.803,4.095 -0.831,4.167 -1.533,3.897 -0.486,-0.186 -0.462,-0.514 0.274,-3.763 0.232,-1.027 0.534,-2.467 0.67,-3.2 1.038,-5.581 0.85,-5.288 3.293,-5.15 1.679,0.095 1.911,0.18 2.612,0.964 m 4.347,-0.783 c 0.168,0.273 -0.57,4.07 -2.176,11.191 -0.161,0.713 -0.775,1.045 -1.183,0.638 -0.19,-0.191 -0.192,-0.558 -0.006,-1.169 0.149,-0.49 0.471,-1.851 0.715,-3.025 0.8,-3.834 0.891,-4.246 1.347,-6.066 0.415,-1.658 0.892,-2.233 1.303,-1.569 M 345.2,152.8 c 0,0.311 -0.473,0.43 -2.12,0.533 l -2.12,0.134 -0.498,1.694 c -0.647,2.204 -0.538,2.439 1.13,2.439 1.164,0 1.341,0.071 1.341,0.533 0,0.465 -0.179,0.534 -1.4,0.538 -1.793,0.005 -1.915,0.104 -2.304,1.862 -0.594,2.689 -0.705,2.516 1.704,2.667 1.911,0.119 2.134,0.189 2.134,0.667 0,0.493 -0.203,0.539 -2.738,0.609 -3.547,0.099 -3.414,0.498 -1.924,-5.809 0.634,-2.681 1.062,-4.799 1.062,-5.252 0,-0.988 0.532,-1.17 3.195,-1.091 2.045,0.061 2.538,0.154 2.538,0.476 m 4.175,0.8 c 0.878,6.023 0.961,6.4 1.414,6.4 0.25,0 0.434,-0.428 0.544,-1.267 0.091,-0.696 0.279,-1.542 0.416,-1.879 0.138,-0.337 0.251,-0.914 0.251,-1.282 0,-1.159 0.592,-3.078 0.998,-3.234 0.568,-0.218 0.833,0.396 0.585,1.357 -0.119,0.461 -0.415,1.798 -0.656,2.972 -0.242,1.173 -0.549,2.481 -0.683,2.906 -0.134,0.425 -0.244,1.067 -0.244,1.426 0,2.641 -1.646,4.718 -2.008,2.534 -0.092,-0.55 -0.277,-1.348 -0.413,-1.773 -0.135,-0.425 -0.246,-1.191 -0.246,-1.702 0,-0.511 -0.115,-1.363 -0.257,-1.894 -0.141,-0.53 -0.33,-1.656 -0.419,-2.501 -0.251,-2.373 -0.69,-1.583 -1.597,2.87 -0.238,1.174 -0.54,2.614 -0.67,3.2 -0.13,0.587 -0.31,1.457 -0.401,1.934 -0.262,1.379 -1.312,1.249 -1.078,-0.134 0.582,-3.429 1.053,-5.667 1.506,-7.152 0.137,-0.45 0.25,-1.144 0.25,-1.542 0,-2.644 2.347,-3.718 2.708,-1.239 m -141.055,0.053 c -0.176,0.176 -0.32,0.638 -0.32,1.027 0,0.389 -0.109,1.055 -0.241,1.48 -0.357,1.143 -1.041,4.323 -1.243,5.773 l -0.177,1.267 h 1.061 c 1.841,0 2.617,-0.893 3.426,-3.946 1.019,-3.847 -0.613,-7.494 -2.506,-5.601 m 15.473,0.401 c -0.542,1.434 -0.62,3.212 -0.149,3.393 1.275,0.489 3.118,-0.539 3.468,-1.934 0.457,-1.818 -2.664,-3.19 -3.319,-1.459 m 25.97,0.679 c -0.218,0.77 -0.534,2.12 -0.702,3 -0.167,0.88 -0.428,2.08 -0.579,2.667 -0.586,2.276 -0.481,2.657 0.754,2.747 2.072,0.151 3.532,-2.435 3.619,-6.41 0.075,-3.466 -2.249,-4.973 -3.092,-2.004 M 273.21,153.8 c -0.099,0.257 -0.287,1.007 -0.418,1.667 -0.13,0.66 -0.532,2.577 -0.892,4.261 -0.749,3.495 -0.753,3.472 0.629,3.472 2.718,0 5.012,-6.711 3.079,-9.009 -0.823,-0.977 -2.091,-1.184 -2.398,-0.391 m 39.532,0 c -1.684,1.93 -2.758,8.167 -1.588,9.225 1.806,1.634 3.863,-1.469 4.226,-6.375 0.226,-3.054 -1.156,-4.548 -2.638,-2.85 m 7.791,0.8 c -0.807,3.293 -0.657,3.595 1.489,2.994 2.765,-0.774 2.693,-4.261 -0.088,-4.261 -1.08,0 -1.094,0.013 -1.401,1.267 M 26.667,154.257 c 0,0.627 2.634,4.509 4.174,6.153 1.735,1.851 6.539,5.233 6.908,4.863 0.065,-0.065 -0.554,-0.468 -1.375,-0.895 -3.134,-1.634 -7.12,-5.619 -8.752,-8.752 -0.707,-1.358 -0.955,-1.713 -0.955,-1.369 m 159.466,0.383 c 0,0.19 -0.168,0.724 -0.375,1.186 -1.482,3.325 -1.504,4.26 -0.093,4.124 l 0.868,-0.083 0.078,-2.51 c 0.045,-1.488 -0.036,-2.622 -0.2,-2.786 -0.192,-0.192 -0.278,-0.171 -0.278,0.069 m -99.143,0.676 c -0.447,0.98 -0.404,1.185 0.097,0.47 0.231,-0.33 0.376,-0.73 0.323,-0.89 -0.053,-0.159 -0.242,0.029 -0.42,0.42 m 130.143,-0.473 c -0.183,0.074 -0.333,0.29 -0.333,0.479 0,0.19 -0.3,1.023 -0.667,1.852 -1.059,2.395 -0.519,3.68 1.1,2.622 0.299,-0.196 0.67,-5.149 0.382,-5.108 -0.081,0.011 -0.298,0.081 -0.482,0.155 M 18.792,157.6 c 0.046,0.807 0.214,1.887 0.373,2.4 0.335,1.074 0.223,-0.21 -0.233,-2.667 l -0.223,-1.2 0.083,1.467 m 346.624,0.667 c 10e-4,0.88 0.051,1.208 0.111,0.728 0.059,-0.479 0.058,-1.199 -0.003,-1.6 -0.061,-0.4 -0.11,-0.008 -0.108,0.872 m -323.228,-0.79 c 0.264,0.264 2.975,1.182 3.106,1.051 0.07,-0.07 0.077,-0.128 0.013,-0.128 -0.063,0 -0.771,-0.24 -1.574,-0.533 -1.539,-0.563 -1.778,-0.623 -1.545,-0.39 m 20.745,0.273 c -0.513,0.194 -0.737,0.36 -0.497,0.368 0.24,0.009 0.84,-0.16 1.333,-0.374 1.111,-0.482 0.442,-0.477 -0.836,0.006 m 21.77,2.471 c -0.713,1.419 -1.172,2.459 -1.021,2.312 0.394,-0.383 2.473,-4.472 2.389,-4.7 -0.039,-0.105 -0.654,0.97 -1.368,2.388 m 287.463,-1.944 c -0.091,0.238 -0.154,0.753 -0.139,1.145 0.021,0.572 0.074,0.508 0.271,-0.329 0.25,-1.067 0.166,-1.591 -0.132,-0.816 m -325.348,0.745 c 1.438,0.477 6.119,0.716 8.782,0.447 2.131,-0.214 2.13,-0.215 -0.667,-0.131 -2.56,0.076 -5.9,-0.136 -8.266,-0.524 -0.895,-0.146 -0.889,-0.138 0.151,0.208 M 58.4,158.933 c -0.509,0.329 0.039,0.329 1.067,0 l 0.666,-0.213 -0.666,-0.023 C 59.1,158.685 58.62,158.791 58.4,158.933 M 222.815,159 c -0.056,0.183 -0.232,0.741 -0.392,1.24 -0.159,0.498 -0.29,1.368 -0.29,1.933 v 1.027 h 1.31 c 2.264,0 3.624,-2.576 2.107,-3.99 -0.661,-0.615 -2.567,-0.762 -2.735,-0.21 m 142.151,1.677 c -0.091,0.238 -0.155,0.693 -0.142,1.011 0.017,0.41 0.099,0.318 0.282,-0.317 0.266,-0.923 0.156,-1.466 -0.14,-0.694 m -293.699,0.42 c -0.477,0.306 -0.867,0.607 -0.867,0.669 0,0.19 1.554,-0.675 1.732,-0.964 0.232,-0.375 0.123,-0.338 -0.865,0.295 m 300.333,-0.03 c -0.1,0.315 -0.122,0.633 -0.049,0.707 0.074,0.073 0.216,-0.125 0.316,-0.441 0.1,-0.315 0.122,-0.633 0.048,-0.707 -0.073,-0.073 -0.215,0.125 -0.315,0.441 m -352.096,0.266 c 0,0.22 0.103,0.64 0.229,0.934 0.145,0.336 0.23,0.385 0.23,0.133 0,-0.22 -0.104,-0.64 -0.23,-0.933 -0.144,-0.337 -0.229,-0.386 -0.229,-0.134 m 48.425,1.539 c -0.992,0.518 -1.754,0.992 -1.693,1.052 0.106,0.107 2.815,-1.218 3.631,-1.776 0.831,-0.568 -0.201,-0.183 -1.938,0.724 m 303.302,-0.288 c -0.017,0.322 -0.151,0.659 -0.298,0.749 -0.146,0.091 -0.266,0.368 -0.265,0.616 10e-4,0.28 0.156,0.155 0.41,-0.332 0.225,-0.431 0.358,-0.971 0.296,-1.2 -0.071,-0.263 -0.124,-0.201 -0.143,0.167 m -6.6,2.616 c 0,1.467 0.045,2.033 0.099,1.258 0.054,-0.775 0.054,-1.975 -0.001,-2.667 -0.055,-0.692 -0.099,-0.058 -0.098,1.409 M 20,163.256 c 0,0.227 0.162,0.817 0.361,1.311 0.198,0.495 0.441,1.127 0.539,1.405 0.099,0.277 0.233,0.45 0.299,0.384 0.109,-0.109 -0.872,-3.139 -1.102,-3.4 -0.053,-0.062 -0.097,0.074 -0.097,0.3 m 62.324,1.289 c -1.07,1.712 -1.217,2.108 -0.591,1.588 0.22,-0.182 0.4,-0.44 0.4,-0.571 0,-0.132 0.318,-0.72 0.706,-1.306 0.388,-0.587 0.654,-1.118 0.591,-1.182 -0.063,-0.063 -0.561,0.599 -1.106,1.471 M 63.4,164.874 c -1.137,0.448 -2.031,0.851 -1.987,0.895 0.142,0.142 2.149,-0.539 3.387,-1.149 1.671,-0.824 1.052,-0.712 -1.4,0.254 m 306.534,1.659 c 0.003,0.587 0.057,0.796 0.121,0.464 0.064,-0.332 0.062,-0.812 -0.005,-1.067 -0.067,-0.255 -0.119,0.017 -0.116,0.603 M 39.867,166.21 c 0.974,0.454 3.581,1.098 3.752,0.926 0.107,-0.106 -1.472,-0.57 -3.886,-1.141 -0.551,-0.13 -0.528,-0.093 0.134,0.215 m 19.333,0.057 c -1.26,0.485 -0.412,0.492 0.933,0.007 0.587,-0.211 0.827,-0.38 0.534,-0.375 -0.294,0.004 -0.954,0.17 -1.467,0.368 m -37.849,0.666 c 0,0.22 0.175,0.633 0.391,0.918 0.498,0.659 0.492,0.225 -0.009,-0.651 -0.221,-0.387 -0.381,-0.499 -0.382,-0.267 m 34.916,0 -0.667,0.214 h 0.667 c 0.366,0 0.966,-0.096 1.333,-0.214 l 0.667,-0.213 H 57.6 c -0.367,0 -0.967,0.096 -1.333,0.213 m 23.967,1 c -2.865,4.227 -6.61,8.203 -10.034,10.654 -1.69,1.21 -2.275,1.811 -0.933,0.96 2.537,-1.61 6.761,-5.585 8.87,-8.347 0.504,-0.66 0.979,-1.26 1.057,-1.333 0.293,-0.277 2.139,-3.2 2.022,-3.2 -0.068,0 -0.51,0.57 -0.982,1.266 M 45.867,167.65 c 2.509,0.397 4.574,0.396 7.466,-0.003 2.164,-0.299 2.002,-0.314 -3.6,-0.314 -5.473,0 -5.732,0.022 -3.866,0.317 m 324.278,0.286 c -0.061,1.807 2.658,4.603 4.974,5.115 1.564,0.346 3.014,1.022 3.014,1.406 0,0.116 0.135,0.21 0.3,0.21 1.292,0 -1.821,-1.694 -3.659,-1.99 -1.525,-0.247 -2.903,-1.48 -3.835,-3.434 -0.431,-0.904 -0.788,-1.492 -0.794,-1.307 m -5.295,1.131 c -0.007,0.513 0.091,1.173 0.217,1.466 0.304,0.71 0.304,-0.402 0,-1.6 l -0.204,-0.8 -0.013,0.934 M 22.149,168.591 c -0.16,1.949 10.329,13.686 11.334,12.682 0.064,-0.064 -0.454,-0.519 -1.15,-1.011 -3.505,-2.474 -6.408,-5.6 -8.553,-9.209 -1.455,-2.45 -1.612,-2.687 -1.631,-2.462 m 343.202,3.045 c -0.01,0.313 0.158,0.973 0.372,1.467 0.499,1.149 0.512,0.711 0.024,-0.836 -0.212,-0.675 -0.386,-0.951 -0.396,-0.631 m 0.8,2.685 c -0.032,0.574 1.552,4.198 1.749,4.001 0.075,-0.075 0.019,-0.358 -0.126,-0.629 -0.144,-0.271 -0.432,-0.913 -0.64,-1.426 -0.719,-1.779 -0.965,-2.265 -0.983,-1.946 m 12.524,0.78 c 0.017,0.473 0.792,1.304 0.792,0.849 0,-0.23 -0.18,-0.567 -0.4,-0.75 -0.22,-0.183 -0.397,-0.227 -0.392,-0.099 m 0.952,2.143 c 0.245,1.022 0.373,1.119 0.373,0.283 0,-0.383 -0.125,-0.773 -0.277,-0.867 -0.182,-0.112 -0.215,0.089 -0.096,0.584 m -11.621,1.52 c -0.029,1.164 5.195,7.057 5.757,6.495 0.082,-0.082 -0.131,-0.293 -0.473,-0.47 -0.967,-0.497 -3.031,-2.747 -4.21,-4.588 -0.588,-0.917 -1.071,-1.564 -1.074,-1.437 m 12.087,2.303 c 0,1.246 0.046,1.756 0.102,1.133 0.056,-0.623 0.056,-1.643 0,-2.267 -0.056,-0.623 -0.102,-0.113 -0.102,1.134 M 67.629,180.219 c -0.074,0.121 -1.051,0.672 -2.169,1.225 -1.118,0.553 -1.978,1.06 -1.91,1.128 0.134,0.134 4.154,-1.908 4.57,-2.321 0.16,-0.158 0.141,-0.251 -0.051,-0.251 -0.167,0 -0.365,0.099 -0.44,0.219 m -33.684,1.292 c 0.08,0.129 0.965,0.639 1.967,1.133 2.717,1.339 3.008,1.459 3.163,1.303 0.078,-0.078 -0.252,-0.289 -0.733,-0.47 -0.481,-0.18 -1.701,-0.749 -2.709,-1.265 -1.009,-0.515 -1.768,-0.831 -1.688,-0.701 m 28.188,1.416 c -0.22,0.126 -0.794,0.375 -1.275,0.554 -0.481,0.178 -0.811,0.388 -0.733,0.466 0.078,0.079 0.412,0.019 0.742,-0.132 0.33,-0.152 1.02,-0.464 1.533,-0.695 0.513,-0.231 0.753,-0.42 0.533,-0.421 -0.22,0 -0.58,0.102 -0.8,0.228 m -22.347,1.327 c 0.417,0.267 1.514,0.558 3.547,0.94 1.238,0.233 -0.201,-0.36 -1.6,-0.659 -0.586,-0.125 -1.366,-0.305 -1.733,-0.4 -0.549,-0.141 -0.587,-0.12 -0.214,0.119 m 18.747,0.013 c -0.195,0.315 0.066,0.315 0.8,0 0.515,-0.221 0.513,-0.23 -0.051,-0.248 -0.321,-0.011 -0.658,0.101 -0.749,0.248 m 320.878,0.541 c -0.789,1.379 -1.542,1.484 -4.744,0.66 -0.517,-0.133 -0.572,-0.11 -0.243,0.103 2.034,1.317 6.095,0.351 5.526,-1.315 -0.046,-0.134 -0.288,0.114 -0.539,0.552 M 55.6,184.961 c -1.178,0.411 -0.433,0.356 1.6,-0.118 0.935,-0.218 0.968,-0.249 0.267,-0.251 -0.44,-0.002 -1.28,0.165 -1.867,0.369 m -8.6,0.73 c 1.383,0.142 3.284,0.142 4.667,0 2.158,-0.222 1.983,-0.24 -2.334,-0.24 -4.316,0 -4.491,0.018 -2.333,0.24"
       inkscape:connector-curvature="0"
       style="fill:#f69601;fill-rule:evenodd;stroke:none" />
  </g>
</svg>
