<?xml version="1.0" encoding="UTF-8" standalone="no"?>
<svg
   xmlns:dc="http://purl.org/dc/elements/1.1/"
   xmlns:cc="http://creativecommons.org/ns#"
   xmlns:rdf="http://www.w3.org/1999/02/22-rdf-syntax-ns#"
   xmlns:svg="http://www.w3.org/2000/svg"
   xmlns="http://www.w3.org/2000/svg"
   xmlns:sodipodi="http://sodipodi.sourceforge.net/DTD/sodipodi-0.dtd"
   xmlns:inkscape="http://www.inkscape.org/namespaces/inkscape"
   id="svg"
   version="1.1"
   width="297.80121"
   height="392.18771"
   style="display:block"
   sodipodi:docname="puc-mono.svg"
   inkscape:version="0.92.1 r15371">
  <metadata
     id="metadata9">
    <rdf:RDF>
      <cc:Work
         rdf:about="">
        <dc:format>image/svg+xml</dc:format>
        <dc:type
           rdf:resource="http://purl.org/dc/dcmitype/StillImage" />
        <dc:title></dc:title>
      </cc:Work>
    </rdf:RDF>
  </metadata>
  <defs
     id="defs7" />
  <sodipodi:namedview
     pagecolor="#ffffff"
     bordercolor="#666666"
     borderopacity="1"
     objecttolerance="10"
     gridtolerance="10"
     guidetolerance="10"
     inkscape:pageopacity="0"
     inkscape:pageshadow="2"
     inkscape:window-width="742"
     inkscape:window-height="480"
     id="namedview5"
     showgrid="false"
     fit-margin-top="0"
     fit-margin-left="0"
     fit-margin-right="0"
     fit-margin-bottom="0"
     inkscape:zoom="0.236"
     inkscape:cx="448.86565"
     inkscape:cy="-103.41229"
     inkscape:window-x="0"
     inkscape:window-y="0"
     inkscape:window-maximized="0"
     inkscape:current-layer="svg" />
  <g
     id="svgg"
     transform="translate(-51.134347,-4.4)">
    <path
       id="path0"
       d="m 195.462,5.131 c -0.417,0.461 -0.662,1.423 -0.662,2.6 V 9.6 H 193 c -2.741,0 -3.4,0.88 -3.4,4.538 0,3.581 0.533,4.262 3.331,4.262 h 1.869 v 1.8 c 0,1.238 -0.167,1.8 -0.536,1.8 -2.531,0 -7.097,3.714 -8.871,7.215 l -1.006,1.985 h -2.714 c -3.483,0 -3.673,0.217 -3.673,4.2 0,3.45 0.332,4.2 1.861,4.2 0.691,0 1.098,0.444 1.74,1.896 0.462,1.043 1.37,2.724 2.019,3.735 0.649,1.012 1.179,1.913 1.178,2.004 0,0.091 -1.665,0.17 -3.7,0.177 -7.046,0.022 -11.757,4.156 -12.531,10.996 l -0.265,2.346 -3.739,-3.377 c -4.9,-4.426 -2.848,-5.447 -14.685,7.304 -5.815,6.264 -6.678,6.949 -6.678,5.302 0,-3.065 -4.286,-4.229 -11,-2.989 -6.653,1.228 -6.762,1.229 -7.547,0.031 -3.463,-5.285 -11.502,-1.823 -9.907,4.266 0.511,1.953 0.801,1.593 -5.505,6.829 -4.917,4.081 -5.691,5.845 -4.013,9.135 1.036,2.031 2.3,1.732 -10.267,2.425 -5.961,0.328 -11.073,0.742 -11.359,0.918 -0.62,0.384 -0.239,13.411 0.429,14.661 0.272,0.507 0.844,0.741 1.815,0.741 1.401,0 1.414,0.015 1.086,1.3 -0.183,0.715 -0.301,2.785 -0.262,4.6 0.049,2.299 -0.073,3.301 -0.4,3.304 -5.839,0.048 -11.838,9.501 -10.278,16.196 0.349,1.498 0.297,1.659 -0.818,2.535 -4.201,3.301 -2.553,9.175 2.82,10.051 1.614,0.263 1.644,0.58 0.558,5.81 -1.328,6.388 -3.25,8.689 -6.55,7.843 -3.576,-0.916 -6.802,0.764 -6.802,3.542 0,3.805 4.303,5.517 9.196,3.657 2.344,-0.89 2.347,-0.886 0.865,1.29 -30.356,44.552 -32.242,107.435 -4.664,155.472 52.446,91.354 180.076,101.143 246.027,18.869 29.439,-36.726 39.609,-86.697 27,-132.669 -3.733,-13.609 -10.289,-28.207 -18.258,-40.651 l -1.697,-2.65 1.865,0.577 c 3.262,1.009 6.325,0.545 7.924,-1.2 2.52,-2.75 1.388,-5.256 -2.921,-6.464 -0.474,-0.133 -1.701,-0.031 -2.725,0.227 -3.315,0.834 -5.271,-1.498 -6.945,-8.282 -1.446,-5.858 -1.478,-5.551 0.586,-5.596 5.496,-0.119 7.68,-7.026 3.189,-10.083 l -1.355,-0.921 0.593,-2.27 c 1.814,-6.946 -4.106,-14.262 -12.747,-15.752 -1.393,-0.241 -2.58,-0.477 -2.638,-0.525 -0.058,-0.048 0.351,-1.12 0.909,-2.382 2.168,-4.9 1.554,-8.74 -1.576,-9.872 -1.814,-0.656 -2.007,-2.315 -0.399,-3.437 0.566,-0.396 1.472,-1.079 2.015,-1.519 l 0.985,-0.8 -0.974,-2.85 c -1.492,-4.369 -1.606,-4.513 -3.559,-4.508 -0.933,0.002 -2.528,-0.113 -3.546,-0.256 -1.33,-0.186 -2.198,-0.078 -3.091,0.383 -1.205,0.624 -1.246,0.616 -1.408,-0.263 -1.205,-6.522 -1.846,-7.867 -3.764,-7.893 -1.699,-0.024 -3.479,-1.081 -5.687,-3.378 -1.21,-1.259 -2.786,-2.652 -3.502,-3.096 l -1.303,-0.807 0.803,-1.02 c 3.126,-3.975 -2.43,-10.014 -7.33,-7.966 -1.222,0.51 -3.202,2.455 -3.543,3.48 -0.11,0.328 -0.761,0.275 -2.311,-0.185 -1.188,-0.352 -3.034,-0.641 -4.103,-0.641 -2.087,0 -4.416,-0.968 -5.673,-2.357 -0.94,-1.04 -1.495,-1.049 -4.072,-0.069 l -2.034,0.773 -1.766,-1.172 c -2.282,-1.515 -3.858,-1.798 -5.705,-1.026 -1.45,0.605 -1.463,0.602 -1.019,-0.227 0.607,-1.134 -0.179,-3.785 -1.221,-4.115 -0.418,-0.133 -1.386,-0.666 -2.15,-1.184 -0.763,-0.519 -1.812,-1.076 -2.33,-1.238 -0.517,-0.162 -1.37,-0.63 -1.895,-1.04 -1.314,-1.027 -1.423,-0.993 -3.77,1.159 -4.107,3.768 -3.722,3.684 -4.209,0.92 -1.16,-6.588 -5.607,-10.203 -12.565,-10.217 -1.925,-0.004 -3.5,-0.066 -3.5,-0.137 -0.001,-0.072 0.706,-1.343 1.571,-2.824 0.866,-1.482 1.695,-3.178 1.844,-3.77 0.194,-0.773 0.526,-1.076 1.177,-1.076 1.535,0 1.847,-0.845 1.722,-4.66 l -0.116,-3.54 -2.913,-0.118 -2.913,-0.118 -0.93,-2.103 C 212.997,25.336 208.97,22 206.121,22 205.296,22 205.2,21.812 205.2,20.2 v -1.8 h 1.92 c 2.64,0 2.88,-0.367 2.88,-4.4 0,-4.033 -0.24,-4.4 -2.88,-4.4 H 205.2 V 7.662 c 0,-2.885 -0.609,-3.262 -5.27,-3.262 -3.179,0 -3.915,0.12 -4.468,0.731 m 6.857,4.769 0.119,2.5 h 2.381 2.381 v 1.58 1.58 l -2.3,0.12 -2.3,0.12 v 4.165 4.165 l 2.54,0.518 c 3.707,0.756 7.027,3.716 7.347,6.552 l 0.113,1 H 200 187.4 l 0.112,-0.996 c 0.305,-2.702 3.848,-5.682 7.802,-6.559 L 197.4,24.181 V 19.991 15.8 l -2.3,-0.12 -2.3,-0.12 V 14 12.44 l 2.3,-0.12 2.3,-0.12 0.12,-2.519 0.119,-2.52 2.281,0.12 2.28,0.119 0.119,2.5 M 219.2,35.2 v 1.6 h -19.4 -19.4 v -1.6 -1.6 h 19.4 19.4 v 1.6 m -32.639,5.5 c 1.775,5.777 7.584,11.009 12.886,11.607 4.92,0.554 12.081,-5.386 13.992,-11.607 0.679,-2.208 0.761,-2.3 2.061,-2.3 1.218,0 1.327,0.09 1.082,0.9 -0.689,2.275 -2.981,5.849 -5.632,8.781 -1.593,1.763 -3.404,4.176 -4.024,5.361 l -1.126,2.156 -5.9,10e-4 c -4.487,0.001 -5.9,-0.12 -5.9,-0.504 0,-0.846 -2.775,-4.687 -5.074,-7.023 -2.381,-2.419 -3.801,-4.616 -4.964,-7.674 L 183.203,38.4 h 1.326 c 1.264,0 1.357,0.105 2.032,2.3 m 25.66,-0.504 c -1.641,5.452 -7.676,10.772 -12.221,10.772 -4.545,0 -10.58,-5.32 -12.221,-10.772 L 187.238,38.4 H 200 212.762 l -0.541,1.796 m -25.18,10.635 c 1.232,0.611 2.425,1.634 3.23,2.769 2.746,3.869 1.998,3.601 10.015,3.594 7.847,-0.007 7.772,0.011 8.624,-2.036 1.561,-3.748 5.617,-5.829 10.66,-5.467 6.053,0.435 9.041,3.771 9.569,10.685 0.314,4.106 0.801,4.425 3.447,2.257 1.908,-1.563 2.428,-1.768 2.061,-0.811 -0.165,0.429 0.102,0.747 0.857,1.021 1.766,0.643 3.783,5.351 2.985,6.968 -0.598,1.213 -3.819,4.127 -7.205,6.52 -2.718,1.921 -3.662,2.875 -4.54,4.586 -0.427,0.834 -1.141,1.88 -1.585,2.324 -1.057,1.057 -0.902,2.959 0.241,2.959 1.448,0 2.361,3.604 1.378,5.442 -0.355,0.662 -0.107,1.188 1.542,3.273 2.898,3.666 3.383,4.871 2.512,6.246 -0.905,1.43 -12.349,-1.639 -23.572,-6.322 l -2.939,-1.226 -1.819,1.066 -1.819,1.065 -2.043,-1.069 -2.043,-1.07 -3.703,1.597 c -7.273,3.135 -18.891,6.367 -22.995,6.396 -0.166,0.001 0.412,-0.642 1.283,-1.429 5.516,-4.984 3.739,-18.051 -2.992,-21.996 -5.322,-3.119 -11.583,0.627 -13.15,7.868 -0.202,0.934 -7.787,2.145 -8.564,1.368 -0.07,-0.069 -0.377,-1.077 -0.684,-2.239 l -0.557,-2.112 1.45,-1.629 c 0.797,-0.896 2.687,-2.943 4.201,-4.55 l 2.751,-2.92 2.025,1.82 c 2.451,2.204 2.745,2.227 4.309,0.33 1.458,-1.769 1.47,-1.853 0.395,-2.855 -0.995,-0.926 -0.749,-1.564 1.397,-3.628 l 1.428,-1.374 1.015,0.954 1.015,0.953 2.989,-2.969 2.99,-2.97 0.009,-3.61 c 0.022,-9.103 7.674,-13.829 15.832,-9.779 m -7.433,3.47 c -3.042,1.528 -4.072,5.238 -2.377,8.56 l 0.832,1.63 -0.959,1.054 c -0.527,0.58 -2.543,2.834 -4.48,5.009 l -3.522,3.954 1.98,1.846 c 1.089,1.015 2.555,2.695 3.259,3.732 1.539,2.271 4.05,1.907 5.339,-0.775 0.891,-1.853 2.869,-2.112 4.448,-0.581 l 1.295,1.256 1.389,-0.695 c 0.781,-0.392 1.347,-0.957 1.294,-1.293 -0.681,-4.308 -1.181,-5.715 -2.315,-6.505 -0.655,-0.456 -1.687,-1.284 -2.294,-1.839 -0.686,-0.628 -1.242,-0.866 -1.473,-0.631 -0.461,0.47 0.075,1.185 2.164,2.882 1.336,1.085 1.661,1.655 2.051,3.592 0.557,2.771 0.132,3.286 -1.546,1.874 -1.936,-1.628 -5.593,-0.906 -6.124,1.21 -0.406,1.618 -2.409,2.05 -3.243,0.699 -0.367,-0.594 -1.48,-1.931 -2.473,-2.972 l -1.807,-1.892 0.794,-0.908 c 0.437,-0.499 2.139,-2.438 3.783,-4.308 4.366,-4.967 4.095,-4.355 2.933,-6.623 -2.081,-4.058 -0.155,-7.58 4.111,-7.518 4.001,0.057 4.655,1.781 2.102,5.54 -1.894,2.787 -1.893,4.058 0.003,5.956 2.424,2.428 6.948,1.571 8.257,-1.564 l 0.582,-1.391 h 6.314 6.314 l 0.517,1.428 c 1.323,3.66 6.951,4.008 8.99,0.556 0.974,-1.648 0.803,-2.872 -0.675,-4.826 -2.412,-3.192 -2.258,-4.808 0.531,-5.559 4.918,-1.324 7.85,2.763 5.42,7.557 l -0.978,1.93 2.827,3.157 c 1.554,1.736 3.463,3.931 4.242,4.876 l 1.415,1.72 -1.602,1.68 c -0.881,0.925 -2.001,2.265 -2.489,2.978 -0.995,1.454 -2.875,1.073 -3.437,-0.697 -0.632,-1.991 -4.409,-2.627 -6.022,-1.014 -1.341,1.341 -2.227,0.979 -1.742,-0.712 0.2,-0.698 0.364,-1.743 0.364,-2.323 0,-0.811 0.51,-1.44 2.2,-2.716 2.102,-1.587 2.828,-2.835 1.649,-2.835 -0.303,0 -0.788,0.285 -1.077,0.634 -0.289,0.348 -1.301,1.167 -2.249,1.819 -1.336,0.919 -1.723,1.436 -1.723,2.303 0,0.614 -0.25,1.946 -0.554,2.959 -0.621,2.063 -0.592,2.127 1.334,2.933 1.349,0.565 1.401,0.551 2.329,-0.635 1.4,-1.789 3.71,-1.466 4.507,0.63 0.226,0.593 1.065,1.31 2.081,1.777 l 1.703,0.783 1,-1.276 c 0.55,-0.701 2.046,-2.394 3.325,-3.761 l 2.325,-2.486 -4.46,-5.056 c -3.61,-4.092 -4.371,-5.164 -3.992,-5.622 3.531,-4.255 0.074,-10.572 -5.531,-10.108 -4.247,0.353 -5.588,3.387 -3.097,7.008 2.013,2.927 1.966,4.394 -0.178,5.502 -2.366,1.224 -4.866,0.168 -5.513,-2.329 l -0.33,-1.275 h -7.549 -7.549 l -0.33,1.275 c -0.645,2.487 -3.146,3.553 -5.492,2.34 -2.087,-1.079 -2.153,-2.672 -0.229,-5.47 3.31,-4.811 -1.155,-9.176 -6.592,-6.444 m -13.1,8.002 2.307,2.168 -1.645,1.965 -1.645,1.965 -1.124,-0.801 c -1.549,-1.102 -1.519,-1.115 -4.101,1.772 -2.623,2.934 -2.597,2.86 -1.421,4.112 l 0.879,0.936 -0.861,0.861 -0.862,0.861 -2,-1.871 c -2.572,-2.405 -2.117,-2.574 -6.903,2.567 L 145,81.275 144.536,79.738 c -0.255,-0.846 -0.59,-2.297 -0.743,-3.225 l -0.28,-1.687 8.486,-9.025 8.486,-9.025 1.857,1.68 c 1.022,0.924 2.896,2.655 4.166,3.847 m 73.197,-3.841 c 0.492,0.254 1.165,0.612 1.495,0.796 0.33,0.183 1.281,0.702 2.114,1.153 1.698,0.919 1.67,1.372 -0.106,1.727 -1.683,0.337 -1.542,1.277 0.472,3.136 1.972,1.82 3.041,2.171 4.773,1.568 3.754,-1.309 7.366,1.449 6.665,5.088 -0.248,1.29 -0.917,0.256 -0.785,-1.215 0.145,-1.623 -1.243,-3.515 -2.58,-3.515 -1.753,0 -4.153,1.982 -4.153,3.43 0,0.768 -0.272,2.048 -0.605,2.844 -0.742,1.775 -0.605,1.926 1.741,1.926 1.683,0 1.878,0.097 2.005,0.999 0.137,0.97 0.118,0.978 -0.648,0.285 -1.367,-1.237 -5.678,0.444 -7.5,2.925 -0.763,1.04 -2.392,2.649 -3.62,3.576 -1.73,1.306 -2.158,1.835 -1.906,2.35 0.18,0.366 0.328,1.983 0.33,3.594 0.003,3.084 0.416,3.792 3.237,5.547 0.421,0.263 0.557,0.488 0.302,0.5 -0.759,0.039 -4.619,-3.208 -4.846,-4.075 -1.042,-3.984 -3.095,-5.167 -3.94,-2.27 -0.294,1.007 -0.897,2.159 -1.342,2.562 -0.798,0.722 -1.056,1.826 -0.546,2.336 0.144,0.144 0.603,1.022 1.019,1.952 0.416,0.929 0.682,1.606 0.59,1.504 -3.174,-3.544 -3.902,-4.843 -3.435,-6.134 0.554,-1.531 -0.37,-4.985 -1.684,-6.299 -0.414,-0.414 -0.58,-0.752 -0.371,-0.752 0.21,0 0.727,-0.78 1.149,-1.734 0.421,-0.954 1.527,-2.349 2.457,-3.1 11.182,-9.037 11.282,-9.192 8.974,-13.886 -0.833,-1.694 -1.725,-3.26 -1.982,-3.48 -1.054,-0.902 -0.948,-1.766 0.339,-2.781 1.506,-1.187 1.273,-1.133 2.387,-0.557 M 239.4,60 c -0.136,0.22 0.123,0.4 0.576,0.4 0.453,0 0.824,-0.18 0.824,-0.4 0,-0.22 -0.259,-0.4 -0.576,-0.4 -0.317,0 -0.688,0.18 -0.824,0.4 m -118.27,6.435 c 0.696,0.243 1.622,1.04 2.092,1.801 0.904,1.463 2.127,1.98 3.883,1.643 6.552,-1.256 8.183,-1.511 9.986,-1.561 2.48,-0.07 3.501,0.648 3.893,2.737 0.145,0.771 0.353,1.636 0.463,1.922 0.145,0.379 -0.864,0.709 -3.724,1.218 -2.158,0.383 -5.257,1.116 -6.887,1.629 -2.632,0.827 -3.056,0.867 -3.789,0.354 -2.212,-1.55 -5.959,0.079 -6.472,2.813 -0.205,1.097 -0.68,1.607 -2.589,2.786 -1.286,0.793 -3.794,2.632 -5.573,4.085 -3.616,2.954 -3.958,2.948 -5.403,-0.098 -0.963,-2.028 -0.093,-3.484 4.071,-6.815 6.048,-4.839 5.852,-4.573 5.535,-7.536 -0.367,-3.433 0.075,-4.174 3.224,-5.397 0.022,-0.009 0.603,0.18 1.29,0.419 m 140.696,0.612 c 1.861,1.419 3.963,2.114 6.459,2.135 1.147,0.01 3.089,0.394 4.317,0.853 2.299,0.86 3.398,0.645 3.398,-0.665 0,-3.831 6.276,-4.597 7.557,-0.922 0.62,1.779 0.578,2.042 -0.609,3.791 l -1.053,1.551 1.331,1.005 c 0.732,0.553 2.601,2.198 4.153,3.656 2.939,2.761 4.363,3.668 6.475,4.123 1.131,0.243 2.806,3.411 2.101,3.973 -0.085,0.068 -0.994,0.521 -2.019,1.007 -1.952,0.924 -4.804,3.415 -6.218,5.43 -0.963,1.373 -3.051,1.011 -2.666,-0.462 0.146,-0.559 -0.765,-1.342 -4.031,-3.462 L 276.8,86.322 v -5.161 c 0,-6.169 0.222,-6.069 -4.652,-2.108 l -3.757,3.053 -4.857,-1.713 c -4.444,-1.567 -4.899,-1.656 -5.345,-1.046 -0.286,0.391 -0.756,0.564 -1.138,0.417 -0.793,-0.304 -0.793,-0.153 -0.003,-2.871 0.638,-2.192 0.607,-6.599 -0.061,-8.775 -0.224,-0.731 -0.041,-0.982 1.071,-1.467 1.883,-0.822 2.218,-0.786 3.768,0.396 m -67.105,1.815 c -0.865,0.875 -2.161,1.679 -3.12,1.938 -2.069,0.557 -2.183,0.89 -1.425,4.161 1.343,5.79 8.533,14.372 10.956,13.076 3.697,-1.979 9.208,-10.462 9.375,-14.433 l 0.093,-2.196 -1.667,-0.532 c -0.917,-0.292 -2.342,-1.187 -3.167,-1.988 l -1.5,-1.457 -4.033,-0.032 -4.033,-0.033 -1.479,1.496 m 10.353,1.217 c 0.619,0.593 1.801,1.361 2.626,1.705 3.16,1.32 -0.467,9.899 -5.955,14.085 l -1.327,1.012 -1.602,-1.269 c -3.729,-2.953 -7.041,-8.056 -7.489,-11.539 -0.186,-1.442 -0.143,-1.497 2.059,-2.631 1.236,-0.637 2.416,-1.471 2.621,-1.855 0.683,-1.277 7.613,-0.901 9.067,0.492 m 47.708,-0.512 c 0.226,0.422 0.316,1.277 0.199,1.9 -0.458,2.448 1.757,4.538 2.79,2.633 0.773,-1.424 0.776,-0.833 0.012,2.102 -0.34,1.304 -0.952,2.682 -1.36,3.062 -0.408,0.38 -0.825,0.926 -0.927,1.214 -0.323,0.906 -0.636,0.183 -1.059,-2.442 -0.465,-2.889 -1.275,-4.036 -2.85,-4.036 -1.06,0 -1.084,-0.05 -0.891,-1.9 0.294,-2.827 3.024,-4.518 4.086,-2.533 M 142.005,75.1 c 0.003,0.165 0.107,0.678 0.231,1.14 0.207,0.769 0.017,0.861 -2.249,1.098 -9.458,0.989 -18.575,5.08 -25.915,11.629 -2.75,2.454 -2.928,2.53 -3.717,1.579 -0.694,-0.837 2.044,-3.387 7.645,-7.12 3.23,-2.153 3.809,-2.703 3.863,-3.668 0.131,-2.355 2.644,-3.542 4.669,-2.206 1.114,0.734 1.177,0.732 3.801,-0.156 2.287,-0.774 6.426,-1.729 10.067,-2.324 0.55,-0.09 1.135,-0.188 1.3,-0.218 0.165,-0.029 0.302,0.081 0.305,0.246 m 107.685,5.896 0.289,3.195 -1.57,1.605 c -0.864,0.882 -1.961,2.504 -2.438,3.604 -0.477,1.1 -1.237,2.405 -1.689,2.9 -1.97,2.158 -6.304,0.167 -5.528,-2.539 0.19,-0.663 0.232,-1.901 0.094,-2.753 -0.247,-1.515 -0.183,-1.616 3.096,-4.895 5.639,-5.639 7.314,-5.881 7.746,-1.117 M 143.031,79.5 c 0.136,0.605 0.404,1.72 0.597,2.478 0.439,1.725 0.744,1.528 -3.81,2.458 -2.128,0.435 -4.587,1.078 -5.464,1.429 -1.479,0.592 -1.708,0.587 -3.15,-0.063 -2.593,-1.17 -6.004,0.543 -6.004,3.016 0,0.876 -0.438,1.339 -2.434,2.57 -1.338,0.827 -3.49,2.382 -4.782,3.457 -2.942,2.448 -3.255,2.343 -5.724,-1.919 -0.335,-0.577 5.153,-5.269 9.14,-7.815 4.941,-3.155 9.914,-4.989 16.6,-6.121 4.555,-0.771 4.749,-0.752 5.031,0.51 m 23.888,-0.56 c 7.15,2.988 8.458,17.869 1.876,21.35 -4.552,2.407 -8.892,0.793 -11.415,-4.247 l -1.08,-2.158 -4.323,0.228 -4.323,0.229 -0.427,-1.991 c -0.77,-3.589 -0.795,-3.551 2.317,-3.551 4.891,0 6.434,-0.358 6.702,-1.555 0.724,-3.234 1.096,-4.168 2.265,-5.687 2.241,-2.914 5.368,-3.888 8.408,-2.618 m 84.613,2.86 0.012,0.8 -0.344,-0.8 c -0.189,-0.44 -0.338,-1.25 -0.332,-1.8 l 0.012,-1 0.32,1 c 0.176,0.55 0.326,1.36 0.332,1.8 m 20.953,1.515 c -1.091,2.079 -2.072,4.028 -2.179,4.332 -0.324,0.913 -0.592,0.276 -0.861,-2.047 l -0.256,-2.2 2.506,-2.056 c 3.164,-2.596 3.174,-2.571 0.79,1.971 M 276,83.3 l -10e-4,3.3 -1.89,0.876 c -2.464,1.141 -2.456,1.251 -0.231,-3.425 C 276.185,79.203 276,79.268 276,83.3 m -18.65,-1.639 c 1.576,0.765 1.886,1.153 2.811,3.509 1.389,3.541 1.431,3.36 -1.761,7.518 -3.675,4.788 -3.798,4.563 2.473,4.488 l 5.273,-0.064 0.809,1.144 c 5.793,8.187 5.362,8.081 7.172,1.759 l 1.291,-4.51 3.191,-0.939 3.191,-0.939 1.919,0.887 c 1.556,0.718 1.878,1.037 1.701,1.686 -0.12,0.44 -0.403,2.51 -0.629,4.6 -1.026,9.492 -4.779,12.066 -13.285,9.114 -3.162,-1.098 -4.274,-1.289 -7.58,-1.3 l -3.873,-0.014 -0.598,-1.253 c -0.997,-2.092 -2.932,-3.991 -6.206,-6.091 -8.327,-5.342 -8.767,-9.283 -1.849,-16.579 4.142,-4.368 3.665,-4.126 5.95,-3.016 m -48.087,0.821 c -0.585,0.704 -2.188,2.473 -3.563,3.931 -3.047,3.231 -3.046,3.201 -0.2,4.912 5.548,3.336 9.028,4.57 13.925,4.94 l 3.226,0.243 0.051,-4.154 c 0.028,-2.285 0.106,-4.686 0.174,-5.336 0.218,-2.076 -2.64,-2.581 -4.33,-0.765 -2.354,2.528 -5.093,1.661 -4.88,-1.546 l 0.134,-2.028 -1.737,-0.738 -1.737,-0.739 -1.063,1.28 m -22.318,-0.305 c -1.199,0.522 -1.246,0.63 -1.049,2.382 0.254,2.247 -0.307,3.041 -2.145,3.041 -1.268,0 -1.757,-0.323 -3.243,-2.146 -1.289,-1.58 -4.301,0.511 -3.685,2.558 0.23,0.763 0.364,2.918 0.298,4.788 l -0.121,3.4 1.834,0.119 c 4.012,0.261 10.526,-1.896 15.666,-5.186 2.343,-1.5 2.347,-1.731 0.07,-3.95 -1.006,-0.981 -2.461,-2.638 -3.234,-3.683 -1.517,-2.053 -2.224,-2.265 -4.391,-1.323 m 81.036,1.816 c 0.17,0.334 0.43,1.395 0.577,2.359 l 0.268,1.751 -3.113,-2.898 c -1.712,-1.594 -3.169,-3.045 -3.237,-3.223 -0.224,-0.588 5.188,1.39 5.505,2.011 m -2.802,2.298 2.621,2.491 -1.474,0.009 c -3.037,0.018 -3.192,-0.15 -5.355,-5.791 l -0.307,-0.8 0.947,0.8 c 0.521,0.44 2.127,1.921 3.568,3.291 m -73.067,0.156 2.625,3.047 -2.958,1.692 c -3.375,1.931 -7.749,3.41 -11.019,3.727 l -2.24,0.217 0.04,-2.665 c 0.022,-1.466 -0.099,-3.318 -0.269,-4.116 -0.424,-1.99 0.767,-2.359 2.334,-0.723 2.794,2.916 7.592,0.892 6.768,-2.856 -0.252,-1.149 1.144,-2.378 1.85,-1.628 0.134,0.142 1.425,1.629 2.869,3.305 m 19.89,-3.247 c 0.185,0 0.306,0.825 0.267,1.833 -0.076,2.017 1.652,4.167 3.35,4.167 1.301,0 3.482,-1.067 3.944,-1.93 0.839,-1.569 2.138,-0.644 1.803,1.283 -0.158,0.906 -0.26,2.763 -0.227,4.128 l 0.06,2.481 -2.099,-0.212 c -4.219,-0.426 -12.709,-3.746 -13.706,-5.359 -0.337,-0.545 5.114,-6.788 5.739,-6.574 0.293,0.101 0.684,0.183 0.869,0.183 m -50.151,2.812 c -2.619,3.112 -1.299,8.871 2.235,9.752 1.81,0.451 3.097,-0.277 4.054,-2.294 2.481,-5.228 -2.848,-11.547 -6.289,-7.458 m -17.314,0.071 c 0.127,0.485 0.193,0.903 0.147,0.929 -0.046,0.026 -2.034,0.448 -4.418,0.938 -8.277,1.699 -13.993,4.422 -20.135,9.59 l -2.869,2.414 -0.607,-0.927 c -0.696,-1.062 1.592,-3.214 7.045,-6.627 2.32,-1.452 2.7,-1.852 2.7,-2.845 0,-2.367 2.807,-3.555 5.002,-2.117 0.891,0.584 1.118,0.584 2.686,-0.004 5.676,-2.128 10.097,-2.699 10.449,-1.351 m 20.845,0.165 c 1.951,0.749 2.518,5.888 0.836,7.57 -1.192,1.193 -1.425,1.206 -2.754,0.161 -3.22,-2.533 -1.595,-9.079 1.918,-7.731 m 112.872,2.829 c 3.196,1.87 3.065,1.954 -2.047,1.324 -4.707,-0.581 -4.813,-0.654 -2.706,-1.858 1.994,-1.139 1.868,-1.154 4.753,0.534 M 145.557,91.12 c 0.649,3.105 0.629,3.161 -1.257,3.448 -0.935,0.143 -2.881,0.674 -4.324,1.18 -2.599,0.913 -2.637,0.914 -4,0.169 -2.461,-1.346 -5.672,0.258 -6.205,3.099 -0.177,0.942 -0.643,1.502 -1.781,2.142 -0.848,0.476 -2.493,1.581 -3.655,2.454 -2.609,1.96 -2.325,1.988 -4.35,-0.43 l -1.69,-2.019 0.952,-1.039 c 4.777,-5.211 16.069,-10.551 24.153,-11.421 1.56,-0.168 1.635,-0.084 2.157,2.417 m 150.998,-1.447 c 0.311,1.558 -0.037,3.567 -1.015,5.86 -1.131,2.65 -0.136,3.466 2.106,1.727 0.525,-0.407 1.545,-0.737 2.267,-0.733 2.34,0.011 2.731,-2.624 0.477,-3.214 -0.978,-0.255 -1.019,-0.743 -0.09,-1.055 0.385,-0.129 1.008,-0.459 1.383,-0.734 0.568,-0.415 0.887,-0.349 1.884,0.389 0.66,0.488 1.548,0.887 1.973,0.887 1.045,0 1.505,1.813 0.672,2.645 -0.337,0.337 -0.612,0.797 -0.612,1.023 0,0.226 -0.551,0.925 -1.223,1.554 -1.057,0.987 -1.162,1.259 -0.766,1.998 0.38,0.71 0.314,1.009 -0.39,1.757 -1.934,2.059 -0.294,3.437 2.787,2.343 2.177,-0.774 2.958,-0.457 3.301,1.338 0.873,4.569 -4.995,13.245 -12.649,18.701 -3.97,2.829 -4.733,2.417 -3.26,-1.759 0.33,-0.935 0.6,-1.948 0.6,-2.25 0,-0.952 -1.173,-0.596 -1.432,0.434 -0.629,2.507 -2.287,2.133 -2.727,-0.615 l -0.258,-1.615 -1.691,0.234 c -2.847,0.395 -3.1,-0.216 -1.042,-2.506 1.736,-1.931 2.964,-4.613 2.474,-5.405 -0.133,-0.215 -0.35,-1.393 -0.483,-2.617 -0.211,-1.952 -0.364,-2.255 -1.241,-2.468 -1.179,-0.286 -1.277,-5.739 -0.16,-8.905 1.8,-5.101 8.47,-10.235 9.115,-7.014 M 234.4,90.45 c 0,2.001 5.363,6.719 6.778,5.962 1.515,-0.811 4.838,0.312 6.505,2.198 0.816,0.923 2.742,2.439 4.281,3.368 3.038,1.836 5.666,4.42 6.7,6.587 l 0.654,1.372 3.841,-0.066 c 3.423,-0.06 4.244,0.076 7.544,1.25 2.978,1.059 4.191,1.294 6.2,1.198 1.912,-0.091 2.653,0.037 3.163,0.547 0.48,0.48 1.096,0.61 2.2,0.463 1.283,-0.17 1.693,-0.033 2.508,0.839 l 0.974,1.041 -1.225,1.296 c -0.674,0.712 -1.14,1.525 -1.037,1.806 0.29,0.788 3.098,2.071 4.012,1.832 1.239,-0.325 2.123,2.452 1.042,3.271 -0.959,0.727 -1.391,0.719 -3.336,-0.059 -1.187,-0.475 -1.753,-0.53 -2.141,-0.207 -0.401,0.333 -1.355,-0.082 -3.979,-1.729 -12.413,-7.794 -31.835,-16.133 -41.984,-18.028 -1.095,-0.204 -1.5,-0.481 -1.5,-1.024 0,-0.681 -0.83,-2.57 -3.369,-7.669 -0.52,-1.047 -0.783,-2.004 -0.583,-2.128 0.2,-0.123 0.728,-0.938 1.173,-1.811 0.824,-1.615 1.579,-1.762 1.579,-0.309 m 32.588,-0.501 c 1.096,0.235 0.871,0.401 -2.947,2.173 -4.865,2.259 -4.852,2.261 -2.799,-0.431 1.697,-2.226 2.438,-2.45 5.746,-1.742 m 9.894,1.463 c 4.967,0.746 4.95,0.732 1.793,1.525 -1.404,0.353 -2.819,0.743 -3.144,0.868 -0.352,0.135 -1.309,-0.421 -2.361,-1.372 -2.07,-1.871 -2.028,-1.883 3.712,-1.021 m -165.98,2.145 1.83,2.357 -1.216,0.243 c -0.669,0.134 -2.588,0.261 -4.266,0.283 -4.98,0.065 -5.042,0.106 -5.094,3.379 -0.054,3.334 -1.741,4.503 -2.462,1.706 -0.615,-2.386 -7.777,-2.077 -8.016,0.345 -0.133,1.352 -1.024,1.73 -4.077,1.73 h -1.498 l -0.29,-5.229 c -0.159,-2.876 -0.17,-5.347 -0.026,-5.492 0.145,-0.144 5.157,-0.556 11.138,-0.914 5.981,-0.358 11.161,-0.677 11.511,-0.708 0.35,-0.031 1.459,1.004 2.466,2.3 m 156.33,-0.02 c -0.791,1.551 -0.889,1.605 -3.366,1.871 -4.374,0.468 -4.384,0.135 -0.066,-2.085 4.332,-2.227 4.667,-2.206 3.432,0.214 m 7.152,1.063 c -0.001,0.22 -0.328,1.66 -0.726,3.2 -0.813,3.141 -0.87,3.074 -1.838,-2.144 -0.816,-4.404 -0.854,-4.296 0.973,-2.779 0.876,0.728 1.592,1.503 1.591,1.723 m -4.007,1.775 c 0.821,4.573 0.707,4.696 -1.549,1.666 l -1.608,-2.159 1.079,-1.919 c 1.322,-2.351 1.196,-2.497 2.078,2.412 M 244.945,94.6 c 0.155,0.404 -0.019,0.6 -0.534,0.6 -0.92,0 -1.417,-0.651 -0.713,-0.934 0.835,-0.337 1.007,-0.291 1.247,0.334 m -88.733,2.227 c 1.081,2.396 3.393,4.57 5.829,5.479 l 2.128,0.793 -1.384,0.295 c -9.999,2.126 -27.942,9.597 -38.785,16.148 -5.131,3.1 -5.069,3.085 -4.392,1.035 0.581,-1.761 0.29,-4.388 -0.745,-6.727 l -0.742,-1.678 1.903,-2.158 1.903,-2.159 2.076,2.273 c 2.524,2.761 2.509,2.761 5.821,0.254 4.329,-3.277 11.694,-6.535 16.636,-7.36 2.175,-0.363 2.417,-0.866 1.954,-4.07 -0.219,-1.514 -0.402,-2.879 -0.406,-3.034 -0.004,-0.155 1.207,-0.344 2.692,-0.421 1.485,-0.077 3.168,-0.176 3.739,-0.219 0.859,-0.064 1.167,0.204 1.773,1.549 m 42.536,-0.539 1.948,1.087 1.643,-1.087 c 0.904,-0.599 1.756,-1.088 1.892,-1.088 0.199,0 9.39,3.58 9.636,3.753 0.036,0.026 -5.974,0.047 -13.356,0.047 -11.547,0 -13.228,-0.074 -12.036,-0.528 0.762,-0.29 2.722,-1.126 4.355,-1.857 3.685,-1.65 3.561,-1.643 5.918,-0.327 M 146.61,96.43 c 0.357,1.125 0.377,1.114 -4.08,2.21 -6.632,1.629 -11.335,3.868 -15.85,7.547 -2.522,2.054 -2.702,2.11 -3.372,1.037 -0.56,-0.896 0.437,-1.818 5.192,-4.801 2.327,-1.461 2.7,-1.856 2.7,-2.859 0,-2.36 2.475,-3.473 4.744,-2.133 1.002,0.591 1.313,0.556 5.062,-0.578 4.81,-1.454 5.265,-1.489 5.604,-0.423 m -31.199,3.189 1.345,1.819 -2.205,2.475 -2.205,2.476 -1.473,-0.74 c -11.865,-5.961 -19.234,6.702 -9.781,16.808 2.708,2.895 7.261,5.143 10.417,5.143 0.11,0 -0.581,0.599 -1.534,1.331 -2.075,1.593 -3.948,1.466 -8.344,-0.566 -2.871,-1.327 -3.405,-1.167 -2.827,0.848 0.984,3.43 0.041,7.33 -2.149,8.892 -1.318,0.94 -3.708,1.095 -10.262,0.666 -2.499,-0.164 -2.691,-0.109 -4.653,1.329 -3.149,2.307 -6.54,1.605 -6.54,-1.355 0,-3.839 3.279,-4.689 12.674,-3.287 5.03,0.751 6.112,0.475 6.975,-1.779 0.476,-1.246 -0.09,-3.683 -1.04,-4.472 -0.516,-0.428 -0.512,-0.635 0.037,-1.696 1.73,-3.346 -1.657,-7.331 -5.38,-6.329 -1.771,0.477 -3.559,2.207 -3.739,3.618 -0.19,1.491 0.584,1.494 1.307,0.005 1.03,-2.122 3.342,-2.972 5.292,-1.945 1.987,1.046 2.148,3.993 0.277,5.059 -1.541,0.876 -1.512,1.064 0.297,1.948 1.222,0.597 1.524,0.979 1.627,2.059 0.25,2.6 -1.235,2.981 -7.327,1.88 -1.76,-0.318 -4.124,-0.584 -5.253,-0.592 -2.355,-0.016 -2.377,-0.052 -2.787,-4.414 -0.475,-5.065 2.972,-9.512 8.695,-11.216 l 2.826,-0.842 -0.23,-1.471 c -0.963,-6.166 -0.29,-10.117 1.773,-10.409 1.52,-0.216 2.043,-0.847 1.762,-2.126 -0.247,-1.125 -0.231,-1.136 1.682,-1.141 1.063,-0.003 2.337,-0.114 2.832,-0.247 0.787,-0.211 0.9,-0.09 0.9,0.956 0,1.785 0.858,2.296 3.118,1.86 l 1.882,-0.364 -0.025,-2.882 -0.024,-2.881 2.024,-0.152 c 1.114,-0.083 3.525,-0.136 5.357,-0.118 l 3.333,0.033 1.346,1.819 M 234,101.844 c 0,0.086 -0.36,0.156 -0.8,0.156 -0.689,0 -0.799,-0.264 -0.791,-1.9 l 0.009,-1.9 0.791,1.744 c 0.435,0.959 0.791,1.814 0.791,1.9 m -86.8,-1.508 c 0,1.058 -0.16,1.172 -2.3,1.648 -5.599,1.244 -13.601,5.04 -16.522,7.837 -1.235,1.183 -1.641,1.214 -2.561,0.198 -0.68,-0.752 -0.665,-0.818 0.438,-1.804 6.405,-5.724 20.945,-11.194 20.945,-7.879 m -27.604,4.459 1.67,1.995 -2.299,2.41 -2.298,2.41 0.505,1.495 c 1.949,5.768 1.839,7.37 -0.696,10.179 -3.601,3.991 -8.585,3.634 -13.505,-0.969 -9.54,-8.924 -3.689,-21.112 7.392,-15.399 l 2.164,1.116 2.404,-2.616 c 2.876,-3.13 2.594,-3.092 4.663,-0.621 M 211.4,103.221 C 325.882,113.072 384.618,244.546 315.203,335.572 248.908,422.506 112.877,406.934 67.822,307.254 22.717,207.462 102.656,93.864 211.4,103.221 m 75.433,3.579 c 0.202,0 0.367,0.552 0.367,1.226 0,0.675 0.201,1.601 0.446,2.059 0.33,0.617 0.322,1.243 -0.029,2.417 l -0.475,1.583 -0.971,-0.912 c -1.031,-0.969 -1.273,-2.661 -0.568,-3.978 0.303,-0.567 0.25,-0.838 -0.217,-1.099 -0.785,-0.439 -0.327,-1.836 0.498,-1.519 0.32,0.123 0.747,0.223 0.949,0.223 m -3.233,3.8 c 0,0.703 -0.218,1 -0.733,1 -1.174,0 -1.3,-0.444 -0.35,-1.236 1.121,-0.936 1.083,-0.945 1.083,0.236 m -179.581,1.304 c -2.937,2.379 0.147,8.415 4.663,9.127 2.988,0.471 5.113,-2.747 3.669,-5.557 -1.819,-3.542 -6.101,-5.376 -8.332,-3.57 m 5.047,1.576 c 1.036,0.679 1.908,1.948 2.242,3.263 0.812,3.195 -2.627,4.032 -5.355,1.304 -3.532,-3.532 -0.992,-7.257 3.113,-4.567 m 84.534,2.12 c -5.299,0.171 -6.018,0.267 -4.945,0.663 l 1.255,0.464 0.297,7.914 c 0.332,8.854 0.11,10.584 -1.407,11.003 -0.55,0.152 1.829,0.294 5.286,0.316 7.009,0.045 7.116,0.002 7.113,-2.834 l -0.002,-1.326 -0.793,1.3 c -0.763,1.251 -0.889,1.3 -3.384,1.3 -3.238,0 -3.42,-0.275 -3.42,-5.174 V 125.6 h 2.124 c 2.277,0 3.312,0.522 3.57,1.8 0.088,0.44 0.302,-0.157 0.474,-1.326 0.332,-2.247 0.125,-2.927 -0.655,-2.147 -0.264,0.264 -1.586,0.473 -2.993,0.473 h -2.52 v -3.576 c 0,-4.12 0.069,-4.207 3.033,-3.837 1.798,0.224 2.267,0.452 2.723,1.323 0.545,1.04 0.552,1.031 0.703,-0.864 0.084,-1.054 0.06,-1.945 -0.053,-1.981 -0.113,-0.036 -2.996,0.025 -6.406,0.135 m 13.8,-0.087 c 0.22,0.225 0.76,0.478 1.2,0.561 1.024,0.195 0.958,4.2 -0.208,12.479 -0.815,5.788 -1.128,6.614 -2.541,6.697 -1.205,0.072 4.855,1.098 6.549,1.109 l 1.4,0.01 -1.3,-0.565 c -1.435,-0.624 -1.565,-1.338 -1.041,-5.704 0.222,-1.845 0.363,-2.1 1.164,-2.1 1.647,0 2.201,0.471 3.439,2.923 2.763,5.474 3.736,6.366 7.497,6.876 1.187,0.161 3.077,0.72 4.2,1.243 4.094,1.906 8.144,0.984 9.54,-2.172 1.314,-2.97 0.745,-4.84 -3.106,-10.214 -2.124,-2.963 -1.528,-5.46 1.322,-5.541 2.371,-0.068 3.679,1.146 4.189,3.885 0.1,0.536 0.352,0.139 0.762,-1.2 0.733,-2.396 0.509,-2.693 -2.745,-3.64 -7.462,-2.17 -10.026,3.759 -4.844,11.203 2.26,3.247 2.501,4.896 0.941,6.455 -2.252,2.252 -6.4,0.343 -6.4,-2.944 0,-2.019 -0.482,-1.77 -1.066,0.55 -0.801,3.182 -2.502,2.23 -6.201,-3.469 -3.032,-4.674 -2.951,-4.037 -0.782,-6.145 4.744,-4.612 2.239,-8.863 -5.769,-9.791 -2.09,-0.242 -4.43,-0.547 -5.2,-0.678 -0.952,-0.162 -1.272,-0.107 -1,0.172 m -26.8,1.079 c -1.449,0.305 -1.964,0.526 -1.3,0.557 0.665,0.031 1.1,0.278 1.1,0.625 0,0.811 -2.813,14.372 -3.025,14.584 -0.258,0.258 -0.203,0.341 -4.161,-6.309 -3.539,-5.946 -3.999,-7.249 -2.56,-7.249 0.374,0 0.574,-0.105 0.445,-0.234 -0.232,-0.233 -7.946,0.952 -8.266,1.269 -0.091,0.091 0.304,0.165 0.878,0.165 1.623,0 2.611,1.211 8.091,9.915 2.81,4.463 5.309,8.048 5.554,7.968 0.244,-0.081 1.614,-4.811 3.044,-10.511 2.361,-9.413 2.692,-10.41 3.6,-10.862 l 1,-0.498 -1,0.037 c -0.55,0.021 -2.08,0.265 -3.4,0.543 m 133.432,1.361 c 5.962,2.28 8.813,7.573 7.193,13.358 -0.52,1.857 -0.557,1.889 -2.177,1.903 -0.906,0.008 -3.088,0.274 -4.848,0.592 -5.979,1.08 -7.4,0.761 -7.4,-1.663 0,-1.377 1.141,-2.543 2.489,-2.543 1.105,0 0.834,-0.927 -0.492,-1.681 -0.981,-0.559 -1.197,-0.941 -1.197,-2.119 0,-3.746 5.161,-4.706 6.613,-1.23 0.678,1.621 1.302,2.116 1.622,1.283 0.363,-0.947 -0.931,-3.219 -2.292,-4.023 -4.036,-2.384 -8.556,1.026 -7.034,5.306 0.578,1.625 0.571,1.784 -0.123,2.478 -1.116,1.116 -1.415,3.377 -0.61,4.606 1.185,1.808 2.114,1.961 7.219,1.189 8.061,-1.218 11.805,-0.382 11.805,2.638 0,3.159 -3.223,4.136 -6.309,1.914 -1.771,-1.274 -2.057,-1.351 -4.491,-1.208 -11.433,0.671 -14.243,-1.446 -12.41,-9.353 0.508,-2.193 0.047,-2.435 -2.338,-1.226 -4.508,2.284 -9.413,2.552 -8.614,0.47 0.102,-0.264 -0.27,-0.876 -0.827,-1.359 -1.246,-1.084 -1.281,-1.851 -0.122,-2.662 1.299,-0.91 1.7,-0.772 1.798,0.622 0.103,1.46 0.743,2.355 1.684,2.355 1.728,0 8.442,-5.149 11.061,-8.482 l 1.897,-2.415 2.836,0.198 c 1.559,0.109 3.839,0.583 5.067,1.052 m -98.671,-0.195 c 4.204,1.757 3.431,9.03 -0.961,9.03 -2.406,0 -2.474,-0.163 -1.937,-4.617 0.617,-5.109 0.749,-5.311 2.898,-4.413 m -59.961,4.817 c -2.681,0.912 -3.327,1.257 -2.529,1.349 1.545,0.178 1.615,0.321 4.291,8.782 2.635,8.329 2.776,9.079 1.781,9.461 -2.284,0.876 0.392,0.434 3.479,-0.574 4.032,-1.318 5.026,-1.823 2.752,-1.398 -1.929,0.36 -1.877,0.454 -4.959,-8.988 l -2.674,-8.192 0.886,-0.718 c 1.354,-1.096 0.88,-1.052 -3.027,0.278 m 93.3,1.913 c 1.303,0.629 1.188,1.19 -1.873,9.155 -3.254,8.467 -3.718,9.303 -4.949,8.932 -1.905,-0.575 0.045,0.527 2.722,1.538 4.446,1.679 4.54,1.696 3.208,0.577 l -1.191,-1.001 2.552,-6.744 c 3.885,-10.266 3.825,-10.145 5.097,-10.145 1.568,0 0.785,-0.51 -2.666,-1.737 -3.019,-1.073 -4.572,-1.381 -2.9,-0.575 m 37.938,1.574 0.762,0.862 -1.1,-0.708 c -1.134,-0.73 -1.349,-1.016 -0.762,-1.016 0.186,0 0.681,0.388 1.1,0.862 M 141.6,127.629 c -2.027,1.073 -2.603,1.516 -1.776,1.365 0.881,-0.161 1.398,-0.024 1.844,0.491 0.764,0.882 6.439,11.341 6.254,11.526 -0.074,0.074 -4.681,-1.408 -10.24,-3.293 -5.558,-1.885 -10.194,-3.339 -10.303,-3.231 -0.108,0.109 1.696,4.049 4.009,8.755 4.641,9.445 4.579,9.256 3.323,10.135 -1.592,1.115 -0.178,0.619 2.889,-1.013 1.65,-0.879 2.534,-1.504 1.965,-1.389 -1.526,0.306 -2.003,-0.255 -5.172,-6.094 -3.173,-5.845 -3.209,-6.1 -0.71,-5.082 2.364,0.963 17.2,5.789 17.817,5.796 0.696,0.007 0.896,0.499 -3.346,-8.256 -4.943,-10.2 -4.718,-9.555 -3.667,-10.534 1.272,-1.185 0.478,-0.959 -2.887,0.824 m -37.497,3.123 c 2.745,0.754 2.811,0.484 -0.906,3.672 -4.828,4.143 -4.65,4.041 -3.654,2.089 0.622,-1.22 0.857,-2.411 0.857,-4.34 0,-2.381 0.073,-2.627 0.7,-2.356 0.385,0.167 1.736,0.588 3.003,0.935 M 263.5,130.27 c 1.27,0.886 1.168,1.314 -1.27,5.316 -5.725,9.398 -7.142,11.288 -8.326,11.115 -0.607,-0.09 -1.095,-0.059 -1.084,0.068 0.042,0.49 9.471,6.433 11.13,7.016 10.755,3.777 19.063,-10.035 10.312,-17.144 -2.16,-1.754 -10.606,-7.047 -11.202,-7.02 -0.253,0.012 -0.055,0.303 0.44,0.649 m 36.5,1.743 c 0,5.276 3.349,8.787 8.383,8.787 0.966,0 1.028,0.109 0.889,1.562 -0.167,1.748 0.901,3.238 2.32,3.238 0.542,0 0.867,0.349 1.026,1.1 0.129,0.605 0.573,2.076 0.987,3.27 l 0.754,2.17 -1.861,-2.17 c -3.417,-3.984 -10.253,-10.811 -14.498,-14.479 -4.661,-4.026 -4.871,-4.283 -3.533,-4.309 0.513,-0.009 1.833,-0.345 2.933,-0.746 1.1,-0.401 2.135,-0.753 2.3,-0.783 0.165,-0.029 0.3,1.033 0.3,2.36 m -30.158,3.287 c 6.478,4.358 5.675,14.016 -1.413,16.994 -3.333,1.4 -10.41,-2.069 -9.436,-4.625 0.458,-1.199 8.326,-13.669 8.626,-13.669 0.16,0 1.16,0.585 2.223,1.3 M 190.8,137.663 C 95.762,146.515 55.136,262.389 124.128,327.827 185.848,386.367 288.59,355.329 307.605,272.4 324.224,199.919 264.317,130.815 190.8,137.663 M 93.558,143.5 c -2.53,2.585 -5.376,5.6 -6.325,6.7 -0.949,1.1 -1.584,1.64 -1.412,1.2 0.172,-0.44 0.598,-1.924 0.946,-3.298 0.521,-2.057 0.78,-2.498 1.463,-2.5 1.466,-0.004 2.709,-1.75 2.479,-3.486 l -0.2,-1.516 2.331,-0.055 c 1.568,-0.037 2.762,-0.321 3.646,-0.867 0.723,-0.446 1.394,-0.827 1.493,-0.845 0.098,-0.018 -1.891,2.082 -4.421,4.667 m 24.358,-2.177 c -1.465,1.142 -2.675,2.248 -2.69,2.457 -0.014,0.209 0.19,0.164 0.454,-0.1 1.359,-1.359 6.603,3.839 10.178,10.09 3.129,5.47 -3.559,10.547 -8.135,6.175 -4.471,-4.272 -8.689,-10.819 -7.643,-11.865 1.169,-1.169 -0.307,-0.296 -2.974,1.759 -2.659,2.049 -4.442,3.942 -2.298,2.44 1.283,-0.898 1.862,-0.481 5.015,3.615 6.131,7.962 8.972,9.577 13.097,7.444 6.979,-3.609 7.297,-8.233 1.11,-16.138 -4.634,-5.921 -4.631,-5.915 -3.808,-6.824 1.391,-1.537 0.312,-1.094 -2.306,0.947 M 196,140.419 c 0.33,0.169 1.05,0.789 1.6,1.376 l 1,1.069 0.119,49.668 c 0.132,55.269 0.321,51.313 -2.534,53.077 -2.033,1.257 -99.647,1.238 -101.709,-0.019 -2.428,-1.48 -2.704,-2.877 -1.936,-9.79 5.468,-49.218 43.886,-88.676 92.66,-95.168 7.363,-0.98 9.234,-1.017 10.8,-0.213 m 18.6,0.226 c 41.533,5.221 76.915,35.6 89.162,76.555 2.827,9.455 4.817,23.447 3.71,26.091 -1.412,3.374 3.144,3.106 -52.792,3.108 -54.683,0.001 -51.054,0.175 -52.696,-2.518 -1.141,-1.871 -1.239,-99.842 -0.102,-101.492 1.954,-2.835 2.95,-2.972 12.718,-1.744 M 88.261,140.588 c 1.78,1.246 1.397,3.5 -0.647,3.812 -1.253,0.192 -1.34,0.323 -2.045,3.108 -2.574,10.158 -12.409,18.768 -17.331,15.17 -2.143,-1.568 0.292,-3.276 3.612,-2.535 4.368,0.976 7.344,-2.286 8.998,-9.864 1.315,-6.028 2.313,-9.251 3.028,-9.779 0.92,-0.68 3.359,-0.631 4.385,0.088 m 227.728,-0.194 c 0.529,0.283 0.869,1.212 1.207,3.3 2.018,12.46 5.701,17.884 11.095,16.337 2.685,-0.77 4.95,0.777 3.494,2.386 -0.673,0.744 -1.118,0.842 -3.195,0.71 -6.832,-0.435 -12.734,-7.472 -14.783,-17.627 -0.178,-0.883 -0.442,-1.1 -1.335,-1.1 -2.216,0 -2.828,-2.147 -1.018,-3.571 1.125,-0.885 3.304,-1.094 4.535,-0.435 M 282.2,153.992 c -8.735,4.742 -10.003,5.245 -10.913,4.335 -0.261,-0.261 -0.601,-0.347 -0.756,-0.191 -0.156,0.155 0.156,0.59 0.693,0.965 0.537,0.376 1.628,1.272 2.424,1.991 1.485,1.34 2.44,1.778 1.556,0.713 -0.769,-0.927 -0.252,-1.61 2.237,-2.958 2.889,-1.566 2.743,-1.585 5.296,0.703 l 2.137,1.915 -1.089,3.067 c -0.599,1.688 -1.26,3.068 -1.47,3.068 -0.719,0 -0.112,0.709 2.385,2.788 2.418,2.013 3.104,2.244 1.887,0.636 -0.891,-1.179 -0.809,-1.568 2.413,-11.45 3.133,-9.611 3.319,-10.379 2.5,-10.366 -0.275,0.004 -4.46,2.157 -9.3,4.784 m 4.416,2.598 c -1.276,3.501 -1.198,3.467 -3.432,1.484 l -1.72,-1.525 2.968,-1.636 c 3.603,-1.985 3.538,-2.034 2.184,1.677 m -121.938,-2.735 c -0.153,0.153 -0.278,4.658 -0.278,10.012 v 9.733 h -9.157 c -10.69,0 -9.643,-0.628 -9.643,5.784 0,5.799 -0.753,5.378 9.831,5.508 l 8.769,0.108 0.2,27.8 0.2,27.8 h 5.2 5.2 l 0.103,-27.893 0.102,-27.892 9.298,-0.108 9.297,-0.107 v -5.4 -5.4 l -9.293,-0.107 -9.293,-0.108 -0.107,-9.892 -0.107,-9.893 -5.022,-0.111 c -2.762,-0.062 -5.147,0.013 -5.3,0.166 m 9.415,11.045 0.107,9.7 9.2,0.2 9.2,0.2 v 4.2 4.2 l -9.3,0.107 -9.3,0.108 v 27.792 27.793 h -4.197 -4.198 l -0.102,-27.7 -0.103,-27.7 -9,-0.2 -9,-0.2 v -4.2 -4.2 l 9,-0.2 9,-0.2 0.107,-9.7 0.107,-9.7 h 4.186 4.186 l 0.107,9.7 m 71.596,-3.912 c -4.294,1.341 -6.769,5.15 -6.311,9.711 0.464,4.611 0.397,4.968 -1.883,10.101 -1.222,2.75 -2.499,5.675 -2.838,6.5 l -0.616,1.5 h -10.233 c -11.588,0 -11.618,0.009 -9.4,2.811 0.709,0.894 1.222,1.672 1.14,1.728 -0.081,0.056 -1.149,0.406 -2.372,0.778 -11.55,3.51 -9.111,22.283 2.895,22.283 h 1.129 v 5.582 5.582 l -1.65,3.718 c -2.403,5.414 -3.95,9.175 -3.95,9.602 0,1.117 1.444,-0.283 3.388,-3.284 l 2.202,-3.4 0.005,2.82 c 0.007,4.145 -2.928,3.78 30.405,3.78 33.332,0 30.397,0.365 30.407,-3.78 l 0.007,-2.82 2.105,3.571 c 3.885,6.59 4.062,5.042 0.481,-4.201 l -2.6,-6.71 v -5.23 -5.23 l 1.7,-0.004 c 3.606,-0.008 7.777,-3.056 9.572,-6.996 3.208,-7.04 -1.167,-14.729 -8.964,-15.752 l -1.893,-0.248 1.403,-1.769 c 2.093,-2.64 2.153,-2.618 -7.695,-2.739 l -8.811,-0.107 -2.973,-7.699 c -2.188,-5.666 -2.899,-7.961 -2.695,-8.692 1.966,-7.063 -4.896,-13.61 -11.955,-11.406 m 57.093,-0.01 c 1.094,1.319 0.262,2.368 -5.782,7.298 -7.128,5.814 -7.547,6.074 -8.664,5.377 -1.305,-0.815 -1.231,-0.31 0.2,1.378 0.732,0.863 2.258,2.851 3.392,4.417 5.118,7.073 11.766,8.572 17.239,3.887 4.327,-3.704 4.664,-8.813 0.923,-14.001 -2.547,-3.532 -7.033,-8.934 -7.42,-8.934 -0.202,0 -0.152,0.26 0.112,0.578 m -50.345,1.953 c 6.739,3.559 4.703,14.046 -2.834,14.591 -3.343,0.242 -4.872,-0.407 -7.097,-3.011 -5.674,-6.642 2.105,-15.713 9.931,-11.58 m -5.534,0.316 c -2.949,0.851 -5.253,4.681 -4.674,7.768 1.2,6.396 9.793,7.905 12.903,2.267 3.109,-5.636 -1.979,-11.84 -8.229,-10.035 m 5.329,1.907 c 3.267,1.993 3.317,7.338 0.087,9.385 -4.928,3.123 -10.776,-2.202 -8.1,-7.377 1.339,-2.589 5.394,-3.605 8.013,-2.008 m 56.033,4.327 c 5.559,9.45 -7.764,19.233 -14.226,10.446 -2.213,-3.01 -2.246,-2.959 6.347,-9.886 l 4.985,-4.02 0.953,0.89 c 0.524,0.489 1.397,1.646 1.941,2.57 M 87.6,170.807 c 0,0.224 2.405,4.229 5.343,8.9 6.219,9.885 6.082,9.553 4.937,11.893 -1.235,2.525 -1.262,2.518 -9.698,-2.337 -7.557,-4.35 -7.582,-4.369 -7.523,-5.714 0.042,-0.974 -0.044,-1.182 -0.31,-0.749 -3.145,5.124 -4.424,7.818 -2.757,5.81 0.811,-0.977 1.248,-0.807 8.244,3.205 8.7,4.988 8.627,4.934 8.383,6.285 -0.11,0.605 -0.14,1.1 -0.067,1.1 0.186,0 4.246,-7.162 4.258,-7.512 0.006,-0.159 0.893,-1.456 1.971,-2.884 1.93,-2.555 2.329,-3.57 0.891,-2.269 -0.85,0.769 -1.45,0.281 -3.458,-2.811 l -1.089,-1.676 1.849,-2.59 1.848,-2.59 2.889,0.801 c 1.589,0.441 3.094,1.063 3.345,1.383 0.375,0.478 0.819,0.082 2.5,-2.23 2.313,-3.179 2.497,-3.637 0.99,-2.451 -1.464,1.152 -1.693,1.123 -12.48,-1.571 C 86.946,170.123 87.6,170.253 87.6,170.807 m 9.016,5.015 c 1.503,0.437 2.096,0.786 1.887,1.113 -2.619,4.11 -2.38,4.045 -4.315,1.165 -0.85,-1.265 -1.735,-2.555 -1.967,-2.867 -0.486,-0.655 0.63,-0.506 4.395,0.589 M 257.34,176.9 c 0.582,1.611 1.035,2.798 3.779,9.9 2.297,5.946 16.582,43.023 16.952,44 0.912,2.405 -1.476,-1.715 -28.303,-48.833 -0.309,-0.542 1.949,-3.185 3.247,-3.801 0.775,-0.368 1.809,-1.176 2.297,-1.795 1.177,-1.493 1.309,-1.459 2.028,0.529 m -14.308,0.104 c 1.565,1.433 3.467,2.19 5.514,2.194 1.126,0.002 1.135,0.019 0.5,0.988 -0.355,0.542 -0.646,1.201 -0.646,1.465 0,0.523 -0.864,1.929 -11.39,18.549 -3.901,6.16 -9.186,14.53 -11.743,18.6 -5.708,9.083 -8.065,12.685 -8.066,12.326 -0.001,-0.15 1.547,-3.84 3.439,-8.2 1.892,-4.359 5.785,-13.326 8.65,-19.926 2.866,-6.6 6.339,-14.61 7.719,-17.8 4.057,-9.382 4.155,-9.6 4.327,-9.6 0.09,0 0.853,0.632 1.696,1.404 m 7.703,9.396 1.319,2.4 h -3.027 c -3.522,0 -3.416,0.17 -1.632,-2.619 1.73,-2.705 1.732,-2.705 3.34,0.219 m -130.16,1.552 c -9.808,4.655 -11.681,18.82 -3.521,26.638 2.7,2.587 10.626,6.396 15.009,7.213 l 1.462,0.272 -0.962,1.418 c -1.17,1.724 -1.192,2.289 -0.163,4.307 0.44,0.863 0.8,1.88 0.8,2.261 0,0.38 0.18,0.803 0.4,0.939 0.909,0.562 0.258,1.727 -2.184,3.91 -2.735,2.447 -3.804,4.745 -2.569,5.528 0.721,0.456 17.185,0.456 17.906,0 1.24,-0.786 0.167,-3.08 -2.569,-5.497 -2.967,-2.621 -3.343,-3.946 -1.584,-5.576 1.033,-0.958 1.312,-2.653 0.616,-3.753 -0.256,-0.405 -0.116,-1.003 0.448,-1.915 1.018,-1.648 0.757,-3.535 -0.734,-5.307 -1.447,-1.72 -1.017,-2.417 3.578,-5.79 5.312,-3.901 7.084,-6.765 7.09,-11.463 l 0.002,-1.862 -3.7,-0.261 c -2.035,-0.143 -9.1,-0.205 -15.7,-0.137 l -12,0.123 -0.136,1.6 c -0.379,4.48 1.674,8.29 6.129,11.369 4.379,3.027 4.455,3.34 0.448,1.832 -8.388,-3.157 -10.992,-7.196 -9.406,-14.59 1.159,-5.406 7.531,-7.571 13.339,-4.532 3.549,1.856 6.171,1.954 9.653,0.36 1.248,-0.571 2.678,-1.039 3.177,-1.039 0.499,0 1.321,-0.335 1.826,-0.744 l 0.918,-0.743 -1.82,-0.273 c -1.48,-0.222 -2.059,-0.569 -3.095,-1.859 -2.35,-2.924 -3.465,-3.23 -12.41,-3.403 l -7.874,-0.153 -2.374,1.127 M 133.6,188.5 c 5.201,-0.152 9.6,1.729 9.6,4.105 0,2.213 -6.698,2.768 -10.143,0.842 -4.967,-2.778 -12.088,-1.302 -14.248,2.953 -4.284,8.44 -0.179,15.586 11.025,19.189 3.815,1.227 4.151,1.526 4.16,3.711 0.007,1.805 0.03,1.803 -4.419,0.313 -11.809,-3.956 -16.174,-8.554 -16.152,-17.013 0.024,-9.042 5.715,-15.037 13.577,-14.301 1.76,0.165 4.73,0.255 6.6,0.201 m 4.464,2.023 c -0.544,0.656 -0.218,1.077 0.832,1.077 0.497,0 0.718,-0.232 0.633,-0.667 -0.172,-0.888 -0.9,-1.091 -1.465,-0.41 m 94.919,-0.15 c 0.127,0.204 -0.076,1.014 -0.45,1.8 l -0.681,1.427 -7.226,-0.015 -7.226,-0.015 -1.07,-1.548 c -0.589,-0.852 -0.964,-1.655 -0.833,-1.785 0.397,-0.398 17.237,-0.267 17.486,0.136 m 19.998,0.265 c 0.351,0.351 0.908,1.161 1.239,1.8 l 0.601,1.162 h -6.034 c -6.553,0 -6.303,0.128 -4.508,-2.3 1.145,-1.548 7.345,-2.019 8.702,-0.662 m 25.819,-0.217 c 0,0.232 -0.495,1.042 -1.1,1.8 l -1.1,1.379 h -5.695 -5.694 l -0.606,-1.449 c -0.333,-0.797 -0.605,-1.607 -0.605,-1.8 0,-0.193 3.33,-0.351 7.4,-0.351 4.917,0 7.4,0.141 7.4,0.421 M 72.713,197.7 c -4.835,8.32 -3.606,15.152 3.287,18.269 6.226,2.815 12.571,-0.856 15.172,-8.778 1.13,-3.443 1.071,-3.81 -0.832,-5.188 -2.132,-1.545 -2.689,-1.534 -1.376,0.028 2.14,2.542 0.54,7.526 -3.134,9.767 -6.24,3.806 -15.81,-1.415 -14.42,-7.867 0.8,-3.716 3.168,-6.323 5.768,-6.35 L 79,197.562 76.8,196.4 c -1.21,-0.639 -2.298,-1.171 -2.417,-1.181 -0.119,-0.011 -0.871,1.106 -1.67,2.481 m 157.936,-1.2 c -0.308,0.715 -1.409,3.28 -2.446,5.7 -2.037,4.755 -2.603,5.682 -2.603,4.267 0,-5.268 -8.327,-8.084 -10.921,-3.694 -1.201,2.034 -0.521,5.041 1.368,6.052 1.548,0.829 1.832,-0.243 0.415,-1.567 -3.305,-3.087 0.896,-6.852 5.176,-4.639 3.848,1.991 3.539,8.061 -0.553,10.838 -8.45,5.733 -18.794,-7.11 -12.062,-14.976 2.605,-3.042 3.583,-3.28 13.482,-3.281 h 8.706 l -0.562,1.3 m 28.473,4.506 c 1.803,3.193 3.278,5.893 3.278,6 0,0.322 -27.539,0.218 -27.726,-0.106 -0.096,-0.165 1.461,-2.865 3.459,-6 l 3.633,-5.7 h 7.038 7.039 l 3.279,5.806 M 283.4,195.96 c 10.743,4.985 3.606,22.781 -7.307,18.221 -5.299,-2.214 -6.548,-9.182 -2.059,-11.48 4.26,-2.182 8.363,1.371 5.289,4.58 -1.406,1.467 -0.769,2.342 0.804,1.105 1.874,-1.474 2.079,-4.611 0.42,-6.445 -2.432,-2.687 -8.039,-1.23 -10.022,2.604 -0.596,1.152 -0.672,1.187 -0.972,0.452 -0.709,-1.735 -3.074,-8.049 -3.332,-8.897 l -0.275,-0.9 7.927,0.009 c 6.868,0.007 8.141,0.108 9.527,0.751 m 34.2,0.014 c -6.831,2.085 -9.499,7.879 -7.005,15.212 1.508,4.434 2.658,5.741 4.747,5.397 2.552,-0.42 2.977,-0.83 1.163,-1.12 -5.267,-0.842 -6.406,-9.211 -1.842,-13.542 2.915,-2.765 8.809,-3.861 11.208,-2.084 3.576,2.65 4.787,8.45 2.254,10.797 -1.236,1.146 -1.061,1.176 1.73,0.296 2.404,-0.758 2.352,-0.456 0.921,-5.33 -2.187,-7.451 -7.525,-11.351 -13.176,-9.626 M 152.196,202.5 c -0.475,3.571 -1.939,5.7 -5.996,8.715 -4.677,3.476 -5.374,4.28 -5.942,6.848 -0.463,2.092 -0.514,2.151 -2.465,2.786 -2.429,0.792 -2.465,0.761 -2.675,-2.344 -0.202,-2.997 -0.572,-3.465 -5.81,-7.357 -4.121,-3.062 -5.39,-4.932 -5.866,-8.648 l -0.27,-2.1 h 14.652 14.651 l -0.279,2.1 m 111.318,6.4 c 0.226,0.275 1.508,2.434 2.849,4.797 l 2.437,4.298 v 10.602 c 0,10.336 -0.02,10.603 -0.8,10.603 -0.779,0 -0.8,-0.267 -0.8,-10.174 0,-12.152 -0.643,-14.155 -4.253,-13.248 -2.52,0.632 -2.547,0.768 -2.547,12.622 0,6.933 -0.143,10.8 -0.4,10.8 -0.257,0 -0.4,-3.793 -0.4,-10.578 0,-10.399 -0.015,-10.595 -0.9,-11.6 -1.452,-1.65 -3.221,-1.763 -4.684,-0.3 l -1.216,1.216 v 10.631 c 0,10.364 -0.02,10.631 -0.8,10.631 -0.779,0 -0.8,-0.267 -0.8,-10.22 0,-8.333 -0.112,-10.435 -0.604,-11.388 -1.182,-2.286 -3.205,-2.61 -4.76,-0.761 l -1.036,1.23 v 10.598 10.597 L 243.9,239.128 243,239 242.8,228.2 c -0.11,-5.94 -0.331,-11.002 -0.491,-11.248 -0.648,-0.995 -2.644,-1.476 -3.924,-0.946 -2.075,0.86 -2.168,1.357 -2.401,12.794 l -0.215,10.6 -0.085,-10.678 c -0.082,-10.444 -0.104,-10.7 -0.984,-11.7 -1.378,-1.566 -3.083,-1.721 -4.627,-0.422 l -1.273,1.071 v 10.765 c 0,9.197 -0.085,10.764 -0.587,10.764 -0.499,0 -0.604,-1.603 -0.7,-10.643 l -0.113,-10.643 2.539,-4.057 c 1.396,-2.231 2.819,-4.372 3.162,-4.757 0.805,-0.905 29.676,-1.095 30.413,-0.2 m -42.502,9.783 c -1.038,2.375 -1.96,4.392 -2.05,4.484 -0.089,0.091 -0.162,-1.465 -0.162,-3.458 v -3.624 l 1.9,-0.951 c 2.494,-1.249 2.48,-1.406 0.312,3.549 m 54.088,-3.518 1.3,0.513 -0.033,3.261 c -0.032,3.25 -0.034,3.256 -0.63,1.889 -1.209,-2.773 -2.516,-6.486 -2.231,-6.333 0.162,0.086 0.879,0.388 1.594,0.67 m -25.593,13.384 0.106,10.651 H 247.807 246 v -10.4 c 0,-11.595 0.301,-12.96 2.529,-11.481 0.854,0.567 0.873,0.791 0.978,11.23 M 233.52,217.68 c 0.349,0.349 0.48,3.351 0.48,11 v 10.52 h -2 -2 v -10.226 c 0,-6.285 0.16,-10.525 0.414,-11 0.469,-0.877 2.345,-1.055 3.106,-0.294 m 7.666,0.294 c 0.254,0.475 0.414,4.715 0.414,11 V 239.2 h -2 -2 v -10.52 c 0,-7.649 0.131,-10.651 0.48,-11 0.761,-0.761 2.637,-0.583 3.106,0.294 m 16.612,0.167 c 0.521,0.795 0.6,2.477 0.509,10.9 L 258.2,239 l -1.9,0.122 -1.9,0.122 v -10.542 c 0,-7.666 0.131,-10.673 0.48,-11.022 0.786,-0.786 2.253,-0.554 2.918,0.461 m 7.322,-0.461 c 0.349,0.349 0.48,3.351 0.48,11 v 10.52 h -2 -2 v -10.52 c 0,-11.245 0.041,-11.48 2,-11.48 0.572,0 1.256,0.216 1.52,0.48 m 48.277,1.62 c 0.117,0.495 0.463,2.07 0.768,3.5 0.305,1.43 0.573,2.189 0.595,1.687 0.056,-1.279 0.909,-1.474 4.024,-0.918 l 2.708,0.484 0.454,2.751 c 0.25,1.512 0.454,2.915 0.454,3.116 0,0.564 -4.878,3.444 -5.725,3.381 -0.579,-0.044 -0.703,0.143 -0.542,0.821 0.115,0.483 0.335,1.778 0.488,2.878 0.349,2.509 0.949,3.732 0.967,1.97 0.016,-1.669 0.584,-2.126 9.412,-7.575 4.18,-2.579 7.936,-5.01 8.347,-5.401 0.944,-0.898 1.729,-0.656 -10.313,-3.183 -9.306,-1.952 -11.034,-2.559 -11.034,-3.873 0,-0.296 -0.183,-0.538 -0.408,-0.538 -0.224,0 -0.312,0.405 -0.195,0.9 m -247.885,0.3 c -0.428,1.072 -1.513,5.945 -1.487,6.682 0.02,0.567 0.103,0.527 0.391,-0.191 0.582,-1.45 1.049,-1.427 9.31,0.467 8.692,1.992 9.474,2.284 9.474,3.536 0,0.508 0.141,0.709 0.341,0.486 0.466,-0.52 1.796,-6.976 1.498,-7.274 -0.131,-0.132 -0.239,0.039 -0.239,0.378 0,1.27 -1.069,1.654 -3.306,1.188 -13.063,-2.724 -15.408,-3.444 -15.594,-4.795 -0.099,-0.721 -0.227,-0.879 -0.388,-0.477 m 77.088,2.021 c 0,1.915 -1.905,3.541 -4.2,3.585 -0.55,0.01 -1.852,0.437 -2.893,0.947 -2.106,1.032 -2.307,0.983 -2.307,-0.558 0,-1.443 0.887,-2.124 4.171,-3.2 1.525,-0.499 3.145,-1.312 3.6,-1.806 1.175,-1.274 1.629,-0.987 1.629,1.032 M 226,229.8 v 9.4 h -2.2 -2.2 v -6.075 -6.076 l 2.094,-3.324 c 1.152,-1.829 2.142,-3.325 2.2,-3.325 0.058,0 0.106,4.23 0.106,9.4 m 46.159,-5.933 1.441,2.468 v 6.432 6.433 h -1.6 -1.6 v -9.067 c 0,-4.986 0.072,-8.991 0.159,-8.9 0.088,0.092 0.808,1.277 1.6,2.634 m 55.206,1.321 c 3.087,0.534 3.096,0.442 -0.208,2.355 -3.529,2.043 -3.394,2.05 -3.703,-0.199 -0.389,-2.844 -0.357,-2.982 0.646,-2.762 0.495,0.108 1.964,0.381 3.265,0.606 M 142.4,227.2 c 0,0.997 -0.735,1.468 -2.8,1.793 -0.99,0.155 -2.413,0.636 -3.162,1.068 -1.512,0.872 -2.225,0.449 -1.788,-1.061 0.338,-1.171 1.204,-1.713 3.503,-2.193 1.126,-0.236 2.311,-0.593 2.634,-0.795 0.724,-0.452 1.613,0.203 1.613,1.188 m 77.827,11.474 c -0.111,0.289 -0.478,0.526 -0.814,0.526 -0.956,0 -0.882,-7.442 0.087,-8.811 0.698,-0.986 1.366,6.621 0.727,8.285 m 55.616,-8.374 c 0.894,1.177 0.767,8.999 -0.143,8.824 -0.611,-0.117 -0.714,-0.728 -0.813,-4.829 -0.114,-4.76 0.003,-5.25 0.956,-3.995 m -135.697,1.65 c 0.176,1.105 0.622,1.842 1.551,2.565 5.779,4.503 5.618,4.685 -4.11,4.685 h -8.013 l 0.527,-1.006 c 0.29,-0.553 1.338,-1.678 2.329,-2.5 0.991,-0.822 2.48,-2.248 3.31,-3.169 1.336,-1.484 2.02,-1.866 3.709,-2.071 0.247,-0.029 0.56,0.644 0.697,1.496 m -77.898,6.172 c -0.148,2.463 -0.364,5.468 -0.479,6.678 l -0.209,2.2 0.613,-1.331 0.614,-1.33 3.707,0.252 c 14.749,1.006 15.782,1.191 14.87,2.668 -0.116,0.188 -0.021,0.341 0.212,0.341 0.233,0 0.424,-0.513 0.424,-1.14 0,-0.626 0.096,-2.561 0.212,-4.3 0.195,-2.9 0.171,-3.045 -0.3,-1.76 -0.615,1.682 -1.082,1.787 -6.217,1.402 l -3.712,-0.278 0.262,-2.062 c 0.336,-2.645 0.77,-3.455 1.869,-3.49 0.851,-0.027 0.854,-0.042 0.086,-0.372 -1.44,-0.619 -3.517,-0.483 -3.25,0.213 0.129,0.337 0.122,1.694 -0.016,3.015 l -0.251,2.401 -3.442,-0.114 L 63.8,241 63.681,239.176 c -0.149,-2.295 0.445,-3.896 1.613,-4.347 1.002,-0.386 0.675,-0.594 -1.535,-0.973 l -1.241,-0.212 -0.27,4.478 m 272.861,-0.43 c 1.063,0.512 1.293,1.251 1.407,4.508 l 0.084,2.4 -8.2,0.113 c -9.229,0.128 -9.874,0.05 -10.118,-1.214 -0.095,-0.494 -0.171,1.081 -0.168,3.501 0.003,2.42 0.08,3.918 0.17,3.329 0.298,-1.95 0.771,-2.057 9.942,-2.252 l 8.574,-0.183 v 2.227 c 0,2.622 -0.538,4.279 -1.39,4.279 -0.336,0 -0.61,0.18 -0.61,0.4 0,0.22 0.793,0.4 1.762,0.4 h 1.762 l -0.062,-8.7 c -0.067,-9.45 -0.027,-9.299 -2.462,-9.267 -1.451,0.019 -1.516,0.062 -0.691,0.459 m -138.972,12.03 c 2.879,1.886 2.66,-2.441 2.66,52.678 0,55.414 0.238,51.031 -2.855,52.63 -1.941,1.004 -8.555,0.462 -17.942,-1.471 -46.038,-9.48 -80.93,-48.208 -85.625,-95.038 -0.626,-6.242 0.143,-8.304 3.473,-9.31 2.568,-0.777 99.075,-0.285 100.289,0.511 m 109.334,0.106 c 1.976,1.45 2.608,3.181 2.327,6.372 -4.503,50.996 -42.207,91.217 -92.398,98.563 -6.905,1.011 -10.283,1.001 -11.794,-0.033 -2.556,-1.749 -2.408,1.649 -2.303,-52.804 l 0.097,-49.874 1.185,-1.236 c 1.899,-1.982 1.105,-1.954 52.686,-1.883 48.949,0.067 49.073,0.069 50.2,0.895 m -224.004,2.039 c -0.147,0.146 -0.267,0.691 -0.267,1.21 0,1.437 -1.03,1.617 -10.188,1.777 l -8.379,0.146 -0.51,-1 c -0.479,-0.937 -0.512,-0.871 -0.517,1.044 -0.009,3.08 0.482,6.211 0.781,4.982 0.327,-1.345 1.045,-1.47 10.225,-1.78 8.215,-0.278 8.755,-0.209 9.095,1.154 0.11,0.44 0.221,-1.135 0.247,-3.5 0.046,-4.29 0.016,-4.537 -0.487,-4.033 m 39.167,2.878 c -0.143,0.232 0.448,1.824 1.313,3.538 l 1.574,3.117 -2.861,1.438 -2.86,1.438 -3.095,-3.023 c -4.184,-4.088 -5.066,-3.463 -1.134,0.804 l 2.775,3.012 -2.368,2.489 -2.368,2.488 -3.41,-2.423 c -3.553,-2.525 -4.2,-2.809 -4.2,-1.845 0,0.318 1.603,1.676 3.563,3.019 l 3.563,2.44 -0.8,2.282 c -0.44,1.254 -0.843,2.326 -0.897,2.382 -0.054,0.056 -1.872,-0.879 -4.039,-2.077 -3.681,-2.033 -4.59,-2.314 -4.59,-1.415 0,0.2 1.98,1.471 4.4,2.827 4.254,2.382 4.4,2.509 4.4,3.824 0,6.551 7.649,13.994 16.56,16.115 3.878,0.923 5.649,3.256 3.843,5.062 -0.345,0.345 -1.08,6.239 -1.869,14.981 -0.369,4.093 2.631,6.438 6.683,5.224 2.567,-0.769 3.318,-2.115 3.034,-5.442 -0.642,-7.532 -1.469,-13.978 -1.839,-14.348 -0.227,-0.227 -0.412,-1.648 -0.412,-3.158 0,-2.864 -0.422,-4.135 -1.663,-5.017 -1.639,-1.163 -0.937,-2.277 1.435,-2.277 2.444,0 3.817,-0.775 5.342,-3.016 0.777,-1.142 8.608,-5.984 9.678,-5.984 1.03,0 -0.289,3.409 -1.392,3.598 -1.135,0.195 -1.207,0.321 -1.321,2.304 l -0.121,2.098 h 7.397 c 4.069,0 7.476,0.135 7.572,0.3 0.096,0.165 0.303,3.508 0.461,7.43 l 0.287,7.13 -1.265,-0.655 c -0.696,-0.36 -2.108,-1.844 -3.137,-3.299 -5.862,-8.282 -12.297,-10.899 -16.198,-6.589 -0.404,0.446 -1.508,0.917 -2.499,1.066 -2.618,0.392 -1.525,1.817 1.394,1.817 0.623,0 1.379,0.298 1.681,0.662 1.115,1.344 3.065,1.833 5.163,1.296 2.615,-0.671 3.452,-0.061 5.78,4.21 1.014,1.86 2.467,3.929 3.229,4.598 l 1.385,1.217 -1.379,1.806 c -2.558,3.352 -2.33,7.218 0.615,10.412 l 1.588,1.723 -1.007,1.087 c -2.055,2.217 -1.684,6.01 0.835,8.529 0.964,0.964 1.253,1.507 0.96,1.8 -0.465,0.465 -0.552,1.85 -0.178,2.825 0.133,0.347 1.123,1.11 2.2,1.696 1.483,0.808 1.958,1.293 1.958,2.003 0,3.041 3.202,2.884 3.623,-0.179 0.156,-1.139 0.612,-1.984 1.536,-2.847 1.151,-1.075 1.298,-1.438 1.184,-2.933 -0.099,-1.283 0.13,-2.151 0.924,-3.505 1.864,-3.181 1.837,-6.174 -0.075,-8.209 l -0.841,-0.895 1.396,-0.863 c 3.266,-2.019 4.085,-7.618 1.572,-10.745 l -1.232,-1.533 1.676,-1.631 c 0.922,-0.897 2.253,-2.714 2.959,-4.038 2.259,-4.238 3.157,-4.928 6.024,-4.629 2.102,0.22 2.713,0.116 4.541,-0.772 1.162,-0.565 2.819,-1.175 3.683,-1.356 2.063,-0.432 2.189,-1.038 0.354,-1.702 -0.941,-0.34 -1.536,-0.39 -1.621,-0.136 -0.074,0.221 -0.673,-0.103 -1.332,-0.718 -4.422,-4.131 -12.269,-1.074 -16.624,6.477 -2.7,4.682 -2.841,4.535 -2.66,-2.788 0.222,-9.029 -0.645,-8.022 7.018,-8.152 L 183,289 l 0.127,-1.785 c 0.089,-1.25 -0.055,-1.919 -0.48,-2.23 -0.509,-0.372 -1.846,-5.327 -1.847,-6.846 0,-0.253 0.54,-0.649 1.199,-0.879 0.659,-0.23 1.401,-0.862 1.649,-1.405 0.247,-0.543 0.783,-1.074 1.191,-1.181 0.89,-0.233 1.762,-1.974 1.426,-2.848 -0.201,-0.526 -1.122,-0.626 -5.752,-0.627 -4.745,-0.002 -5.69,-0.11 -6.782,-0.776 -4.227,-2.577 -11.206,-2.594 -15.399,-0.038 -1.297,0.79 -3.537,1.117 -3.527,0.515 0.003,-0.165 1.353,-1.177 3,-2.248 2.675,-1.741 3.776,-3.052 2.562,-3.052 -0.239,0 -2.174,1.212 -4.3,2.692 l -3.867,2.693 -3.6,0.207 -3.6,0.208 0.089,1.197 c 0.048,0.658 0.377,1.408 0.731,1.667 0.714,0.522 -4.903,4.898 -6.32,4.923 -0.754,0.014 -0.945,-0.588 -0.312,-0.98 0.214,-0.132 0.503,-1.101 0.643,-2.154 0.24,-1.808 0.637,-2.327 7.235,-9.439 5.143,-5.543 6.864,-7.643 6.533,-7.97 -0.33,-0.327 -1.681,0.876 -5.115,4.556 -6.972,7.471 -10.603,11.105 -10.117,10.126 0.238,-0.48 0.433,-1.867 0.433,-3.081 0,-4.019 1.254,-4.968 3.674,-2.778 0.647,0.586 1.526,0.446 1.526,-0.242 0,-0.181 -0.729,-1.079 -1.619,-1.997 l -1.619,-1.668 1.981,-4.351 c 1.09,-2.393 1.879,-4.454 1.753,-4.58 -0.598,-0.597 -1.089,0.072 -2.914,3.971 -1.082,2.31 -2.037,4.2 -2.123,4.2 -0.087,0 -1.035,-0.405 -2.108,-0.9 -1.698,-0.782 -2.651,-0.904 -7.346,-0.94 l -5.395,-0.042 -1.229,-2.669 c -1.35,-2.931 -2.329,-4.18 -2.747,-3.504 m 125.049,0.852 c -2.397,1.088 -3.625,3.744 -2.931,6.34 0.577,2.156 0.388,2.421 -2.71,3.812 -6.02,2.702 -21.504,4.392 -22.597,2.466 -1.811,-3.191 -4.568,-3.953 -6.676,-1.846 -2.495,2.495 -0.817,6.831 2.643,6.831 1.018,0 1.412,0.155 1.276,0.5 -0.366,0.927 -6.597,15.682 -7.413,17.556 -0.445,1.021 -1.004,1.976 -1.242,2.124 -1.194,0.738 -0.173,4.014 1.831,5.874 5.213,4.84 13.929,2.836 15.901,-3.655 l 0.667,-2.199 -4.362,-10.1 -4.362,-10.1 h 13.146 c 10.254,0 13.144,0.11 13.139,0.5 -0.005,0.275 0.296,5.016 0.667,10.535 0.372,5.519 0.561,10.334 0.42,10.7 -0.541,1.409 -9.592,0.45 -12.456,-1.32 -0.725,-0.448 -1.499,-0.815 -1.72,-0.815 -0.221,0 -3.62,4.939 -7.553,10.975 -9.345,14.343 -8.547,12.872 -7.411,13.668 0.849,0.595 0.923,0.9 0.798,3.306 l -0.138,2.651 2,0.457 c 1.1,0.251 4.79,0.938 8.2,1.526 5.061,0.872 6.348,1.231 7.003,1.952 2.185,2.405 4.548,2.902 6.919,1.456 1.24,-0.756 1.49,-0.773 4,-0.265 l 2.676,0.541 0.403,3.766 c 0.452,4.226 0.672,4.77 1.923,4.761 1.672,-0.012 2.04,-0.615 2.298,-3.773 0.315,-3.843 0.065,-3.71 4.765,-2.539 l 4.006,0.997 0.81,-1.374 c 0.446,-0.756 4.225,-6.213 8.398,-12.127 l 7.587,-10.753 -0.844,-1.431 c -0.625,-1.059 -0.789,-1.841 -0.632,-3.012 0.27,-2.013 0.068,-2.123 -4.103,-2.224 -3.694,-0.089 -6.834,-0.951 -10.857,-2.982 -1.657,-0.837 -2.91,-1.176 -4.341,-1.176 H 252.8 v -1.7 c 0,-1.708 0.962,-15.132 1.419,-19.8 l 0.245,-2.5 h 13.411 c 10.57,0 13.368,0.106 13.208,0.5 -3.153,7.797 -8.152,19.103 -8.719,19.72 -1.174,1.278 0.1,4.801 2.327,6.441 5.331,3.922 13.143,2.037 15.285,-3.688 l 0.827,-2.212 -4.334,-10.28 -4.335,-10.281 1.364,-0.242 c 4.572,-0.812 3.945,-7.958 -0.698,-7.958 -1.287,0 -3.616,1.831 -4.07,3.2 -0.666,2.008 -17.808,-0.264 -23.2,-3.075 l -2.671,-1.393 0.545,-1.543 c 1.004,-2.845 -0.828,-6.369 -3.73,-7.175 -1.924,-0.535 -1.982,-0.529 -3.991,0.383 m 4.659,1.373 c 1.927,0.996 2.602,3.618 1.487,5.774 -0.653,1.263 -0.523,1.55 1.274,2.804 3.642,2.544 11.309,4.401 19.566,4.739 6.485,0.265 7.133,0.126 7.719,-1.651 0.992,-3.005 4.812,-2.512 4.812,0.621 0,2.767 0.143,2.743 -16.698,2.743 h -14.919 l -0.356,0.9 c -0.329,0.832 -0.642,4.729 -2.228,27.7 -0.319,4.62 -0.86,12.27 -1.202,17 -1.465,20.262 -1.336,19.132 -2.113,18.652 -0.203,-0.126 -0.49,-2.439 -0.637,-5.14 -0.271,-4.968 -1.616,-25.732 -3.032,-46.816 -0.425,-6.328 -0.883,-11.683 -1.018,-11.9 -0.154,-0.25 -5.849,-0.396 -15.421,-0.396 -14.643,0 -15.204,-0.028 -15.976,-0.8 -2.372,-2.372 1.126,-6.039 3.613,-3.788 0.433,0.392 0.787,1.038 0.787,1.436 0,1.401 1.419,1.669 7.571,1.427 11.692,-0.46 22.328,-4.145 20.915,-7.245 -1.934,-4.245 1.831,-8.141 5.856,-6.06 m 72.527,1.768 c -9.197,3.28 -9.172,17.636 0.037,20.698 7.332,2.438 13.232,-1.441 14.111,-9.278 0.902,-8.053 -6.602,-14.11 -14.148,-11.42 M 136.2,262.985 c 3.091,1.072 2.97,1.365 -0.465,1.129 -20.194,-1.384 -25.562,20.322 -6.813,27.548 5.061,1.951 5.478,2.395 5.478,5.827 V 300 h -1.2 c -1.071,0 -1.2,-0.131 -1.2,-1.22 0,-2.688 -0.813,-3.4 -5.696,-4.989 -10.281,-3.346 -15.269,-8.503 -15.269,-15.791 0,-10.687 13.837,-18.943 25.165,-15.015 m 194.275,-0.332 c 4.307,1.209 6.221,4.802 4.698,8.821 -2.672,7.054 -17.196,5.955 -17.861,-1.351 -0.541,-5.934 5.804,-9.535 13.163,-7.47 M 137.719,267 c -0.367,0.77 -0.813,1.4 -0.992,1.4 -0.179,0 -1.045,0.651 -1.926,1.447 l -1.601,1.446 -0.006,-1.546 c -0.003,-0.851 -0.163,-1.795 -0.355,-2.098 -0.581,-0.918 -1.239,-0.098 -1.239,1.544 v 1.546 l -1.052,-0.869 c -4.267,-3.529 -3.69,-4.148 3.946,-4.229 l 3.893,-0.041 -0.668,1.4 m -74.458,-0.708 c -1.157,0.142 -1.306,0.283 -1.092,1.036 0.569,2.001 2.631,13.961 2.631,15.261 V 284 h 2 c 2.207,0 2.503,-0.229 1.024,-0.791 -0.986,-0.375 -1.548,-1.694 -2.072,-4.868 -0.293,-1.776 -0.854,-1.563 8.248,-3.133 8.427,-1.453 8.909,-1.468 9.771,-0.308 l 0.669,0.9 -0.221,-1 c -0.121,-0.55 -0.426,-2.26 -0.676,-3.8 -0.251,-1.54 -0.631,-2.98 -0.844,-3.2 -0.254,-0.261 -0.303,-0.114 -0.142,0.421 0.518,1.724 -0.389,2.09 -9.044,3.647 -4.558,0.82 -8.403,1.376 -8.544,1.234 -0.871,-0.871 -0.667,-5.625 0.272,-6.347 1.06,-0.815 1.001,-0.828 -1.98,-0.463 m 63.204,3.607 c -0.074,1.332 0.067,2.8 0.314,3.262 0.814,1.522 -0.195,0.875 -2.126,-1.361 -2.036,-2.359 -2.045,-2.651 -0.109,-3.831 1.797,-1.095 2.074,-0.817 1.921,1.93 m 4.155,2.141 c 1.088,2.103 0.803,3.296 -0.613,2.564 -1.699,-0.879 -3.05,-3.827 -2.161,-4.717 0.405,-0.405 2.153,0.951 2.774,2.153 m 40.307,-1.384 c 1.55,0.504 1.866,0.755 1.617,1.285 -0.595,1.267 -0.403,5.059 0.256,5.059 0.436,0 0.655,-0.6 0.8,-2.2 l 0.2,-2.2 4.777,-0.113 c 7.557,-0.18 8.326,0.78 0.892,1.113 -5.319,0.238 -5.806,0.91 -0.869,1.2 4.475,0.263 4.603,0.965 0.202,1.118 -4.456,0.154 -5.804,1.658 -1.502,1.676 0.825,0.003 1.5,0.186 1.5,0.406 0,0.227 -1.171,0.403 -2.7,0.406 -2.872,0.007 -3.996,0.391 -3.498,1.197 0.216,0.35 1.271,0.441 3.652,0.316 l 3.348,-0.176 0.397,1.429 c 0.218,0.785 0.398,1.923 0.399,2.528 l 0.002,1.1 h -14.445 -14.446 l 0.278,-1.851 c 0.446,-2.974 0.417,-2.949 3.389,-2.949 2.894,0 3.47,-0.221 2.772,-1.063 -0.28,-0.337 -1.314,-0.537 -2.773,-0.537 -1.28,0 -2.439,-0.18 -2.575,-0.4 -0.146,-0.236 0.297,-0.403 1.076,-0.406 3.684,-0.017 2.813,-1.505 -0.98,-1.674 -3.774,-0.168 -3.613,-0.893 0.232,-1.037 4.758,-0.179 3.876,-1.031 -1.328,-1.283 -6.097,-0.295 -6.046,-1.202 0.067,-1.194 5.371,0.007 5.446,0.042 5.607,2.602 0.21,3.324 1.342,2.73 1.267,-0.666 l -0.059,-2.657 1.459,-0.652 c 3.348,-1.495 7.146,-1.626 10.986,-0.377 M 137.6,270.84 c 0,1.382 -1.138,3.351 -2.35,4.067 -1.507,0.89 -1.699,0.585 -1.032,-1.644 0.796,-2.662 3.382,-4.515 3.382,-2.423 m -13.713,2.046 c 1.162,1.148 2.113,2.414 2.113,2.813 0,0.4 0.256,1.34 0.57,2.09 0.919,2.201 -0.545,2.068 -4.117,-0.374 -3.43,-2.345 -3.531,-2.509 -2.632,-4.279 1.464,-2.88 1.407,-2.877 4.066,-0.25 m 6.605,3.942 c 1.069,1.142 1.818,2.995 1.386,3.427 -0.763,0.763 -4.061,-2.008 -4.381,-3.681 -0.345,-1.804 1.189,-1.674 2.995,0.254 m 7.908,-0.581 c 0,1.182 -2.685,4.153 -3.753,4.153 -1.683,0 0.229,-3.966 2.32,-4.812 1.295,-0.524 1.433,-0.461 1.433,0.659 m 11.134,0.953 c 0.473,0 1.556,1.877 1.231,2.133 -0.091,0.071 -2.356,1.318 -5.034,2.769 -5.475,2.968 -7.094,3.241 -5.703,0.959 0.423,-0.694 0.775,-1.621 0.783,-2.061 0.028,-1.548 6.402,-5.453 7.415,-4.542 0.454,0.408 1.043,0.742 1.308,0.742 m 135.763,7.099 c 1.742,4.126 3.263,7.816 3.381,8.201 0.194,0.631 -0.143,0.7 -3.431,0.7 H 281.6 v -8.467 c 0,-4.656 0.12,-8.347 0.266,-8.201 0.146,0.147 1.69,3.642 3.431,7.767 m -163.264,-5.53 c 2.021,1.419 3.059,2.473 3.718,3.774 l 0.914,1.804 -0.928,0.233 c -0.9,0.226 -4.554,-1.478 -6.237,-2.909 -0.656,-0.557 -1.085,-4.871 -0.485,-4.871 0.118,0 1.476,0.886 3.018,1.969 m 96.968,5.431 c 1.489,3.52 2.955,6.985 3.258,7.7 l 0.552,1.3 H 219.405 216 v -7.867 c 0,-4.326 0.066,-7.791 0.147,-7.7 0.08,0.092 1.365,3.047 2.854,6.567 m -4.201,1.4 v 7.6 h -3.443 c -2.596,0 -3.393,-0.123 -3.24,-0.5 0.628,-1.546 5.192,-12.303 5.685,-13.4 0.937,-2.082 0.998,-1.698 0.998,6.3 m 65.6,0.6 v 7 h -3 c -1.65,0 -3,-0.064 -3,-0.142 0,-0.079 1.145,-2.824 2.543,-6.1 1.399,-3.277 2.671,-6.363 2.827,-6.858 0.542,-1.718 0.63,-0.863 0.63,6.1 m -150.254,-4.415 c 1.053,0.976 2.054,2.948 1.684,3.319 -0.763,0.762 -4.738,-1.945 -5.146,-3.505 -0.32,-1.225 2.078,-1.096 3.462,0.186 m 9.054,-0.226 c 0,1.399 -4.23,4.344 -5.055,3.519 -0.426,-0.425 0.384,-2.078 1.553,-3.17 1.432,-1.337 3.502,-1.544 3.502,-0.349 m 175.066,0.741 c -0.1,0.165 -0.459,1.2 -0.798,2.3 -0.339,1.1 -1.25,3.74 -2.024,5.866 -1.523,4.182 -1.54,4.078 0.836,5.284 1.846,0.937 2.021,0.808 0.729,-0.541 -1.101,-1.149 -1.123,-1.25 -0.631,-2.9 1.369,-4.59 1.241,-4.562 8.884,-1.944 10.39,3.559 9.535,3.15 9.559,4.573 0.016,0.963 0.349,0.37 1.405,-2.5 1.301,-3.539 1.591,-5.138 0.592,-3.272 -0.646,1.207 -1.52,1.07 -8.489,-1.337 -9.258,-3.197 -10.073,-3.6 -9.765,-4.826 0.241,-0.962 0.083,-1.334 -0.298,-0.703 m -191.684,2.752 c 1.036,0.579 1.985,1.344 2.11,1.7 0.125,0.357 0.592,1.053 1.037,1.548 1.345,1.494 0.038,1.013 -2.172,-0.8 -1.853,-1.519 -3.582,-3.5 -3.056,-3.5 0.109,0 1.046,0.474 2.081,1.052 m -45.333,4.053 -8.95,3.457 -0.75,-0.925 c -1.032,-1.275 -0.938,-0.466 0.288,2.475 1.224,2.935 1.694,3.561 1.455,1.936 -0.13,-0.887 0.03,-1.285 0.649,-1.616 1.754,-0.939 11.817,-5.208 11.954,-5.071 0.079,0.08 -1.776,4.494 -4.124,9.81 -2.347,5.317 -4.159,9.774 -4.027,9.907 0.132,0.132 4.069,-1.23 8.748,-3.027 9.102,-3.495 10.103,-3.726 10.518,-2.421 0.144,0.457 0.365,0.728 0.491,0.603 0.248,-0.249 -1.792,-5.793 -2.363,-6.42 -0.207,-0.228 -0.252,0.116 -0.109,0.83 0.198,0.99 0.068,1.33 -0.693,1.816 -0.941,0.602 -11.289,5.141 -11.719,5.141 -0.127,0 0.203,-0.855 0.732,-1.9 1.329,-2.623 7.451,-17.142 7.451,-17.67 0,-0.625 0.181,-0.684 -9.551,3.075 m 52.354,-2.704 c 0.863,0.441 1.76,1.157 1.992,1.59 0.927,1.731 -2.732,1.351 -4.695,-0.487 -1.991,-1.866 -0.214,-2.59 2.703,-1.103 m 10.195,-0.404 c 0.729,1.18 -4.457,3.904 -5.481,2.88 -0.344,-0.344 -0.266,-0.673 0.312,-1.322 1.38,-1.547 4.58,-2.512 5.169,-1.558 M 181.6,287 v 1 h -16.4 c -15.636,0 -16.4,-0.034 -16.4,-0.733 0,-1.256 0.145,-1.267 16.667,-1.267 H 181.6 v 1 m -13.427,10.5 c -0.324,9.644 -0.084,8.663 -1.929,7.893 -1.863,-0.779 -1.751,-0.274 -1.963,-8.893 l -0.179,-7.3 h 2.174 2.175 l -0.278,8.3 m -17.111,-3.47 c 2.236,1.082 3.86,2.734 6.658,6.77 l 2.08,3 5.675,2.806 c 6.354,3.143 7.552,4.065 8.147,6.274 1.141,4.24 -2.226,8.916 -5.353,7.435 l -1.259,-0.596 1.26,-0.652 c 5.808,-3.003 3.607,-7.513 -5.22,-10.698 -4.306,-1.554 -5.804,-2.803 -7.712,-6.435 -2.534,-4.822 -3.171,-5.285 -6.846,-4.975 -2.86,0.241 -3.18,0.189 -4.259,-0.685 -3.237,-2.623 2.294,-4.439 6.829,-2.244 m 36.038,-0.034 c 2.55,1.554 -0.283,3.441 -4.491,2.99 -3.072,-0.329 -3.791,0.248 -6.815,5.475 -2.105,3.64 -4.332,5.707 -5.482,5.092 -1.377,-0.737 -1.257,-1.513 0.542,-3.502 0.96,-1.063 2.376,-3.066 3.146,-4.452 2.844,-5.12 9.338,-7.897 13.1,-5.603 m -41.831,0.268 c 0.169,0.875 1.331,0.999 1.331,0.141 0,-0.327 -0.331,-0.658 -0.736,-0.736 -0.535,-0.103 -0.698,0.06 -0.595,0.595 m 38.407,0.036 c 0.074,0.385 0.4,0.7 0.724,0.7 0.324,0 0.65,-0.315 0.724,-0.7 0.094,-0.491 -0.122,-0.7 -0.724,-0.7 -0.602,0 -0.818,0.209 -0.724,0.7 m 47.774,1.169 c 1.98,0.902 3.105,1.106 7.15,1.3 l 4.8,0.231 0.352,5.265 0.352,5.266 -3.924,6.534 c -5.143,8.567 -4.727,8.128 -6.303,6.65 -2.133,-2.002 -3.349,-2.315 -8.996,-2.315 -5.124,0 -10.054,-1.161 -9.804,-2.308 0.042,-0.194 2.54,-4.119 5.55,-8.723 3.01,-4.603 6.125,-9.404 6.922,-10.669 0.797,-1.265 1.472,-2.3 1.5,-2.3 0.028,0 1.109,0.481 2.401,1.069 m -9.05,0.1 c 0,0.423 -0.473,1.331 -1.05,2.018 -3.888,4.62 -12.663,3.464 -14.324,-1.887 l -0.28,-0.9 h 7.827 c 7.456,0 7.827,0.036 7.827,0.769 m 66.4,0 c 0,5.226 -11.468,6.531 -14.697,1.672 -1.639,-2.467 -1.712,-2.441 6.897,-2.441 7.43,0 7.8,0.037 7.8,0.769 m 18.262,4.452 c -0.626,1.418 -1.396,3.209 -1.711,3.979 l -0.574,1.4 0.969,-1.154 c 1.156,-1.375 0.561,-1.531 9.654,2.536 7.98,3.568 8.342,3.796 8.028,5.05 -0.468,1.864 0.192,0.938 1.775,-2.488 1.873,-4.054 1.897,-4.165 0.631,-2.976 l -0.967,0.908 -6.533,-2.847 c -8.679,-3.782 -9.681,-4.369 -9.932,-5.82 -0.19,-1.094 -0.275,-1.004 -1.34,1.412 m -48.097,-0.276 c 2.423,1.401 6.734,2.709 9.881,2.999 l 2.778,0.256 -2.941,4.2 c -13.066,18.659 -11.861,17.276 -15.077,17.306 -3.207,0.031 -3.045,1.097 -2,-13.1 l 0.927,-12.606 h 2.399 c 1.792,0 2.81,0.239 4.033,0.945 m -123.028,9.755 0.88,7.9 -1.031,0.9 c -2.465,2.152 -6.944,0.47 -6.448,-2.422 0.121,-0.703 0.529,-4.203 0.908,-7.778 l 0.689,-6.5 h 2.061 2.061 l 0.88,7.9 m 137.326,-2.86 0.662,1.414 -7.603,10.773 c -7.725,10.946 -8.166,11.464 -8.397,9.873 -0.37,-2.541 -0.103,-3.005 9.875,-17.197 4.984,-7.089 4.586,-6.734 5.463,-4.863 m -111.237,2.974 c 1.043,0.558 0.974,1.433 -0.226,2.859 -2.819,3.35 -1.11,5.9 6.493,9.69 2.766,1.379 3.462,2.479 3.213,5.073 -0.31,3.231 -2.05,5.025 -3.701,3.817 -0.755,-0.552 -0.74,-0.606 0.508,-1.772 2.438,-2.277 1.465,-3.884 -3.874,-6.395 -4.736,-2.228 -5.875,-3.008 -6.691,-4.587 -2.051,-3.965 1.11,-10.381 4.278,-8.685 m 82.878,8.446 0.202,3.46 -1.419,-0.593 c -0.849,-0.355 -2.279,-0.54 -3.554,-0.46 -2.613,0.163 -2.717,0.74 0.967,-5.361 l 3.1,-5.134 0.251,2.314 c 0.138,1.273 0.342,3.871 0.453,5.774 m -77.388,-3.292 c 0.114,3.173 0.095,3.248 -0.933,3.639 -1.616,0.614 -1.783,0.239 -1.783,-4.011 v -3.957 l 1.3,0.545 c 1.299,0.545 1.3,0.549 1.416,3.784 M 87.8,311.756 c -7.05,3.343 -8.201,11.04 -2.571,17.2 8.141,8.907 22.707,-0.904 17.243,-11.614 -2.983,-5.848 -9.16,-8.199 -14.672,-5.586 m 215.2,0.793 c -2.525,1.189 -5.069,3.755 -6.83,6.889 -1.756,3.126 -1.732,3.808 0.188,5.328 1.722,1.365 2.53,1.636 1.509,0.508 -2.201,-2.432 -0.066,-7.513 3.916,-9.322 5.619,-2.552 13.846,2.057 13.808,7.735 -0.028,4.218 -5.123,9.048 -7.949,7.536 -1.568,-0.84 -0.881,0.312 0.93,1.558 2.393,1.646 2.944,1.317 6.286,-3.762 6.367,-9.677 -1.899,-21.157 -11.858,-16.47 m -204.981,1.552 c 4.529,3.052 3.874,9.371 -1.387,13.392 -5.278,4.033 -10.75,2.811 -12.243,-2.734 -1.691,-6.28 8.408,-14.177 13.63,-10.658 m 65.581,1.332 c 0,2.438 -0.531,2.735 -1.576,0.881 -0.512,-0.907 -0.5,-1.139 0.109,-2.068 1.049,-1.601 1.467,-1.263 1.467,1.187 m 6.157,-1.6 c 0.409,1.065 0.273,2.044 -0.357,2.567 -0.519,0.43 -0.6,0.247 -0.6,-1.351 0,-1.827 0.486,-2.444 0.957,-1.216 m 55.055,5.954 c 5.875,0.042 7.557,0.573 9.054,2.858 0.703,1.072 2.181,1.263 2.916,0.377 1.015,-1.223 4.494,-1.603 6.511,-0.71 1.824,0.806 1.829,0.814 1.968,3.049 0.076,1.232 0.049,2.237 -0.061,2.233 -0.11,-0.005 -1.45,-0.273 -2.979,-0.597 -2.633,-0.557 -2.822,-0.548 -3.6,0.178 -1.823,1.7 -4.516,1.361 -5.584,-0.703 -0.457,-0.884 -0.963,-1.214 -2.119,-1.382 -1.543,-0.223 -12.407,-2.168 -13.979,-2.502 -0.748,-0.16 -0.852,-0.436 -0.8,-2.132 l 0.061,-1.949 1.6,0.621 c 1.141,0.443 3.152,0.632 7.012,0.659 m -62.007,3.816 c 0.72,0.385 0.71,0.445 -0.21,1.365 -2.475,2.476 -1.6,4.297 3.21,6.68 3.749,1.858 4.508,2.901 3.18,4.368 -1.019,1.127 -1.321,0.979 -1.461,-0.716 -0.124,-1.496 -0.132,-1.502 -3.266,-2.51 -4.073,-1.31 -5.458,-2.716 -5.458,-5.542 0,-3.137 1.835,-4.807 4.005,-3.645 m 127.665,3.035 c -1.855,1.953 -2.642,3.467 -1.166,2.242 0.765,-0.635 1.252,-0.161 2.615,2.551 l 1.223,2.432 -2.181,2.324 -2.18,2.325 -2.691,-1.116 c -1.479,-0.614 -2.919,-1.398 -3.198,-1.743 -0.445,-0.55 -0.79,-0.346 -2.781,1.645 -1.25,1.25 -2.144,2.403 -1.985,2.561 0.158,0.158 0.5,0.075 0.761,-0.186 0.928,-0.928 2.782,-0.427 11.545,3.122 9.786,3.963 10.215,4.098 10.066,3.171 -0.057,-0.348 -1.902,-4.611 -4.1,-9.472 -4.023,-8.895 -4.342,-9.903 -3.584,-11.32 0.745,-1.392 -0.178,-0.815 -2.344,1.464 m -124.044,-1.424 c 1.476,0.79 0.732,4.303 -0.926,4.373 -0.165,0.007 -0.3,-1.067 -0.3,-2.387 0,-2.562 0.037,-2.622 1.226,-1.986 M 164,327.449 c 0,1.598 -0.081,1.781 -0.6,1.351 -0.721,-0.598 -0.785,-2.055 -0.12,-2.72 0.698,-0.698 0.72,-0.657 0.72,1.369 M 256.508,328 c 0.234,2.684 0.419,2.508 -1.94,1.84 -1.082,-0.306 -2.463,-0.669 -3.068,-0.806 -0.929,-0.21 -1.1,-0.456 -1.1,-1.575 0,-1.72 -0.115,-1.659 3.124,-1.659 h 2.792 l 0.192,2.2 m -142.77,4.331 c 1.161,1.283 0.782,1.831 -5.529,8.009 -6.777,6.634 -6.593,6.516 -7.78,5.006 -2.716,-3.453 3.216,-9.941 6.284,-6.873 0.261,0.261 0.579,0.369 0.707,0.241 1.12,-1.12 -3.931,-3.047 -6.202,-2.367 -5.694,1.706 -5.804,5.271 -0.344,11.162 3.606,3.891 4.978,5.057 3.757,3.194 -0.933,-1.423 -0.761,-1.662 5.453,-7.558 6.979,-6.622 6.907,-6.569 8.187,-5.985 0.682,0.31 0.131,-0.498 -1.736,-2.545 -1.504,-1.65 -2.898,-3.004 -3.097,-3.008 -0.199,-0.004 -0.064,0.322 0.3,0.724 m 49.862,3.299 c 0,1.3 -0.111,1.505 -0.7,1.295 -1.753,-0.624 -2.154,-1.613 -1.088,-2.679 0.98,-0.981 1.788,-0.356 1.788,1.384 m 2.948,1.999 c 0.265,2.855 0.107,3.776 -0.576,3.354 -0.467,-0.289 -0.496,-6.183 -0.029,-6.183 0.188,0 0.46,1.273 0.605,2.829 m 128.764,0.978 c 0.819,1.653 1.488,3.089 1.488,3.19 0,0.219 -1.007,-0.157 -4.151,-1.554 l -2.352,-1.044 1.552,-1.762 c 1.978,-2.246 1.732,-2.329 3.463,1.17 m -160.527,11.977 0.925,0.985 -3.704,6.715 c -4.522,8.199 -5.315,9.317 -6.399,9.034 -1.354,-0.354 -0.903,0.217 0.893,1.13 0.935,0.476 2.77,1.59 4.079,2.477 9.15,6.201 18.977,2.532 19.012,-7.099 0.018,-4.77 -2.139,-7.165 -10.56,-11.726 -5.129,-2.778 -5.585,-2.941 -4.246,-1.516 m 128.956,0.39 c -1.132,0.687 -3.605,2.053 -5.495,3.037 -3.102,1.615 -4.921,3.044 -2.429,1.908 1.42,-0.647 1.778,-0.191 6.331,8.064 4.016,7.281 4.307,8.095 3.152,8.812 -2.233,1.386 1.199,-0.127 5.432,-2.395 5.075,-2.719 5.216,-2.883 4.429,-5.14 -0.523,-1.501 -1.131,-1.683 -0.858,-0.258 0.311,1.63 -2.78,4.017 -4.818,3.722 -0.798,-0.116 -4.236,-5.388 -4.272,-6.55 -0.041,-1.321 4.31,-2.631 5.195,-1.564 0.857,1.032 0.841,0.403 -0.038,-1.585 l -0.84,-1.899 -0.865,0.795 c -1.123,1.032 -3.533,2.476 -4.137,2.478 -0.39,10e-4 -3.728,-5.455 -3.728,-6.094 0,-0.863 4.912,-2.328 5.629,-1.679 0.995,0.901 1.022,0.088 0.054,-1.663 l -0.683,-1.238 -2.059,1.249 m -122.93,3.686 c 9.408,6.283 4.214,21.355 -5.902,17.128 -4.785,-2 -4.868,-2.597 -1.282,-9.191 5.166,-9.498 5.045,-9.365 7.184,-7.937 m 103.295,5.915 c -3.397,1.32 -4.502,1.967 -3.106,1.818 1.949,-0.207 1.57,-0.845 5.364,9.007 3.024,7.852 3.056,8 1.949,8.776 -0.49,0.343 -0.745,0.624 -0.567,0.624 0.258,0 8.24,-2.909 11.588,-4.224 0.601,-0.235 0.685,-0.549 0.464,-1.732 -0.375,-2 -0.97,-2.978 -0.986,-1.62 -0.018,1.561 -0.842,2.373 -3.232,3.187 -3.148,1.072 -3.315,0.885 -6.462,-7.258 -2.982,-7.718 -3.112,-8.381 -1.818,-9.283 1.307,-0.912 0.522,-0.739 -3.194,0.705 m -88.906,0.263 c 0,0.199 0.264,0.362 0.586,0.362 1.588,0 1.407,1.377 -1.157,8.836 -3.19,9.282 -3.29,9.491 -4.583,9.649 -0.95,0.116 -0.9,0.177 0.554,0.664 0.88,0.295 3.257,1.147 5.283,1.894 4.484,1.653 4.96,1.669 5.831,0.195 1.008,-1.707 0.849,-2.33 -0.317,-1.236 -0.999,0.939 -1.009,0.94 -3.156,0.263 -3.508,-1.105 -3.579,-1.704 -1.006,-8.546 0.598,-1.591 5.01,0.24 5.241,2.174 0.107,0.892 0.245,0.745 1.005,-1.064 0.741,-1.768 0.778,-2.061 0.236,-1.853 -0.353,0.136 -1.763,-0.126 -3.133,-0.581 l -2.49,-0.829 0.718,-2.283 c 1.397,-4.445 1.489,-4.595 2.643,-4.305 2.554,0.641 3.945,1.609 3.929,2.732 -0.008,0.599 0.099,1.09 0.24,1.09 0.246,0 1.666,-3.281 1.472,-3.401 -0.872,-0.534 -11.896,-4.02 -11.896,-3.761 m 76.501,3.715 c -2.904,0.848 -3.676,1.338 -2.015,1.279 1.174,-0.042 1.514,0.724 3.705,8.36 2.386,8.311 2.549,9.364 1.57,10.108 -0.705,0.536 -0.673,0.559 0.439,0.326 1.965,-0.412 7.304,-2.246 5.981,-2.055 -2.052,0.297 -2.485,-0.683 -5.987,-13.551 l -1.083,-3.98 0.889,-0.72 c 1.184,-0.959 0.403,-0.907 -3.499,0.233 m -12.201,2.771 c -3.255,0.37 -4.798,0.976 -2.483,0.976 0.559,0 1.135,0.119 1.281,0.264 0.286,0.286 1.358,7.113 1.15,7.321 -0.356,0.357 -9.977,1.346 -10.262,1.055 -0.969,-0.986 -0.92,-7.315 0.06,-7.731 0.689,-0.293 -0.045,-0.337 -2.646,-0.16 -3.602,0.245 -6.113,0.914 -3.524,0.939 1.72,0.016 1.61,-0.354 2.807,9.451 l 1.059,8.679 -0.971,0.797 -0.971,0.798 1.4,-0.246 c 0.77,-0.134 2.615,-0.365 4.1,-0.511 1.485,-0.147 2.7,-0.397 2.7,-0.556 0,-0.159 -0.416,-0.21 -0.924,-0.112 -1.4,0.267 -1.823,-0.595 -2.494,-5.082 -0.735,-4.916 -1.228,-4.34 4.361,-5.091 5.922,-0.795 5.607,-0.99 6.172,3.826 0.522,4.449 0.427,5.076 -0.825,5.404 -2.759,0.721 3.646,0.3 6.91,-0.454 0.919,-0.213 0.886,-0.25 -0.4,-0.461 -1.743,-0.286 -2.004,-1.205 -3.129,-11.017 -0.847,-7.376 -0.839,-7.511 0.452,-8.135 1.011,-0.489 0.869,-0.487 -3.823,0.046 m -33.512,1.263 c -7.197,2.327 -9.34,12.485 -3.681,17.453 2.434,2.138 4.618,2.872 9.151,3.077 4.578,0.208 4.953,-0.011 5.515,-3.217 0.315,-1.792 0.061,-1.914 -0.744,-0.356 -1.27,2.456 -6.321,2.81 -9.422,0.661 -7.721,-5.351 -3.564,-18.52 5.25,-16.63 3.721,0.798 5.143,1.981 5.143,4.279 0,2.086 0.727,0.386 0.865,-2.022 l 0.135,-2.367 -2,-0.539 c -3.171,-0.853 -8.114,-1.017 -10.212,-0.339"
       inkscape:connector-curvature="0"
       style="fill:#000000;fill-rule:evenodd;stroke:none" />
  </g>
</svg>
