<svg id="svg" version="1.1" width="400" height="476" xmlns="http://www.w3.org/2000/svg" xmlns:xlink="http://www.w3.org/1999/xlink" style="display: block;"><g id="svgg"><path id="path0" d="M198.604 1.548 C 196.908 2.787,196.798 3.863,197.407 13.207 C 198.646 32.234,199.093 35.000,200.934 35.000 C 202.681 35.000,205.990 5.411,204.511 3.018 C 203.165 0.840,200.484 0.173,198.604 1.548 M189.071 7.935 C 186.861 9.334,192.732 35.998,195.250 35.999 C 197.416 36.000,197.412 35.681,195.105 24.000 C 194.073 18.775,192.931 12.813,192.569 10.750 C 191.878 6.821,191.417 6.450,189.071 7.935 M209.913 7.250 C 207.560 14.033,204.663 36.000,206.121 36.000 C 208.144 36.000,208.121 36.063,211.461 21.105 C 213.375 12.530,213.726 9.375,212.880 8.355 C 211.897 7.171,210.165 6.526,209.913 7.250 M179.750 12.689 C 178.787 12.941,178.000 13.478,178.000 13.882 C 178.000 15.566,187.937 37.479,188.837 37.779 C 190.576 38.359,191.168 36.045,190.128 32.730 C 189.570 30.954,187.936 25.563,186.497 20.750 C 185.033 15.858,183.354 12.051,182.689 12.116 C 182.035 12.180,180.713 12.438,179.750 12.689 M217.449 13.272 C 213.566 23.392,210.381 36.932,211.759 37.461 C 212.599 37.783,213.395 37.924,213.528 37.774 C 214.204 37.011,224.035 13.702,223.786 13.453 C 222.453 12.120,217.941 11.991,217.449 13.272 M166.567 17.750 C 182.634 42.343,192.579 49.125,179.245 26.395 L 172.561 15.000 168.665 15.000 L 164.770 15.000 166.567 17.750 M227.653 17.250 C 221.028 27.946,215.018 39.220,215.513 40.022 C 216.813 42.124,218.710 40.605,224.000 33.226 C 227.025 29.006,231.212 23.179,233.305 20.277 L 237.110 15.000 233.078 15.000 C 229.976 15.000,228.725 15.519,227.653 17.250 M151.000 19.392 C 151.000 22.414,151.902 23.544,159.250 29.726 C 178.666 46.062,179.079 46.349,180.768 44.661 C 182.441 42.987,183.672 44.517,163.536 23.250 C 155.356 14.610,151.000 13.270,151.000 19.392 M240.879 19.956 C 239.021 22.131,233.487 28.227,228.583 33.503 C 220.594 42.097,219.825 43.254,221.191 44.619 C 223.719 47.148,251.000 23.976,251.000 19.300 C 251.000 14.147,245.540 14.500,240.879 19.956 M149.388 30.432 C 147.804 34.559,149.448 36.212,162.000 43.119 C 168.875 46.903,175.138 49.886,175.917 49.749 C 180.042 49.024,177.005 46.466,155.742 32.754 C 151.257 29.862,149.809 29.333,149.388 30.432 M237.978 38.087 C 222.102 48.789,223.620 47.509,224.658 49.311 C 225.625 50.988,252.260 37.166,252.787 34.712 C 254.187 28.195,251.870 28.723,237.978 38.087 M144.816 44.504 C 143.350 47.723,142.275 47.149,158.875 52.007 C 170.479 55.403,173.410 55.954,174.083 54.865 C 175.316 52.871,174.553 52.432,160.440 47.002 C 145.281 41.170,146.264 41.327,144.816 44.504 M240.250 47.318 C 230.143 51.229,227.000 52.867,227.000 54.223 C 227.000 56.591,226.893 56.606,243.245 51.879 C 259.939 47.054,258.363 47.892,256.877 44.629 C 255.371 41.323,256.008 41.220,240.250 47.318 M198.000 51.500 C 198.000 54.981,197.976 55.000,193.500 55.000 C 189.167 55.000,189.000 55.111,189.000 58.000 C 189.000 60.889,189.167 61.000,193.500 61.000 L 198.000 61.000 198.000 68.000 C 198.000 74.800,198.071 75.000,200.500 75.000 C 202.929 75.000,203.000 74.800,203.000 68.000 L 203.000 61.000 207.000 61.000 C 210.778 61.000,211.000 60.833,211.000 58.000 C 211.000 55.167,210.778 55.000,207.000 55.000 C 203.095 55.000,203.000 54.917,203.000 51.500 C 203.000 48.433,202.690 48.000,200.500 48.000 C 198.310 48.000,198.000 48.433,198.000 51.500 M138.001 54.998 C 136.016 57.786,135.993 58.002,137.682 58.030 C 138.682 58.046,145.800 58.712,153.500 59.509 C 171.055 61.327,173.000 61.342,173.000 59.659 C 173.000 58.246,169.059 57.204,153.500 54.500 C 148.550 53.640,143.519 52.725,142.319 52.466 C 140.731 52.124,139.558 52.812,138.001 54.998 M244.027 55.168 C 227.403 58.331,227.048 58.448,228.777 60.177 C 229.804 61.204,263.620 58.714,264.810 57.523 C 265.490 56.844,261.754 52.002,260.635 52.111 C 260.011 52.173,252.537 53.548,244.027 55.168 M129.955 64.555 C 128.877 65.853,129.010 66.455,130.762 68.206 L 132.859 70.304 152.180 68.634 C 162.806 67.716,171.838 66.973,172.250 66.982 C 172.662 66.992,173.000 66.100,173.000 65.000 C 173.000 62.263,132.207 61.841,129.955 64.555 M229.000 64.871 C 229.000 66.963,229.437 67.035,254.887 69.112 L 269.275 70.287 271.107 67.893 C 274.435 63.546,272.005 63.000,249.309 63.000 C 230.134 63.000,229.000 63.104,229.000 64.871 M166.500 70.521 C 165.950 70.720,158.750 71.626,150.500 72.532 C 142.250 73.439,135.315 74.363,135.089 74.585 C 133.873 75.779,138.610 79.033,140.939 78.604 C 142.348 78.344,150.137 77.135,158.250 75.917 C 171.139 73.981,173.000 73.468,173.000 71.851 C 173.000 70.094,169.596 69.398,166.500 70.521 M228.345 71.543 C 227.533 73.661,226.579 73.395,245.500 76.317 L 262.500 78.942 264.977 76.471 C 266.712 74.741,267.011 74.000,265.976 74.000 C 265.163 74.000,256.624 73.100,247.000 72.000 C 237.376 70.900,229.375 70.000,229.220 70.000 C 229.064 70.000,228.671 70.694,228.345 71.543 M159.000 78.658 C 21.268 108.408,-44.321 268.901,33.569 385.581 C 112.993 504.559,284.888 506.114,365.500 388.585 C 438.345 282.382,392.940 134.684,272.999 87.683 C 259.912 82.555,230.355 75.266,227.339 76.423 C 225.069 77.294,225.709 81.000,228.130 81.000 C 250.801 81.000,298.324 102.285,324.500 124.163 C 440.703 221.284,409.085 405.550,267.137 458.475 C 136.223 507.286,-3.803 401.517,6.035 261.250 C 12.356 171.143,83.832 92.849,170.250 81.373 C 174.404 80.822,175.000 80.445,175.000 78.371 C 175.000 75.391,174.048 75.408,159.000 78.658 M179.250 91.805 C 176.076 92.119,174.885 93.462,177.119 94.206 C 177.933 94.478,177.889 96.203,176.959 100.540 C 174.916 110.065,174.602 110.146,170.594 102.186 C 168.509 98.046,167.475 95.000,168.154 95.000 C 168.803 95.000,169.075 94.741,168.758 94.425 C 168.442 94.109,166.090 94.164,163.532 94.547 L 158.881 95.245 160.820 97.372 C 161.886 98.543,164.592 102.875,166.834 107.000 C 174.674 121.427,175.429 121.302,178.982 105.000 C 180.240 99.225,181.723 93.927,182.277 93.226 C 183.572 91.589,183.198 91.414,179.250 91.805 M188.345 92.829 C 190.452 95.157,190.798 113.511,188.750 114.338 C 188.063 114.615,191.438 114.878,196.250 114.921 L 205.000 115.000 205.000 112.000 C 205.000 108.612,203.505 107.960,202.710 111.000 C 201.497 115.641,196.000 113.593,196.000 108.500 C 196.000 103.757,198.777 102.177,201.800 105.200 C 202.733 106.133,203.000 105.551,203.000 102.578 C 203.000 99.665,202.703 98.988,201.750 99.733 C 197.526 103.038,195.000 101.033,195.000 94.375 C 195.000 92.438,199.934 92.631,202.171 94.655 C 203.899 96.219,204.000 96.164,204.000 93.655 L 204.000 91.000 195.345 91.000 C 187.024 91.000,186.754 91.070,188.345 92.829 M212.847 92.316 C 214.344 94.120,212.241 112.081,210.353 113.618 C 209.269 114.500,209.773 114.866,212.740 115.357 C 218.809 116.360,219.184 116.268,217.834 114.105 C 216.990 112.754,216.935 111.248,217.642 108.855 L 218.635 105.500 220.859 109.791 C 223.915 115.688,226.475 118.000,229.949 118.000 L 232.899 118.000 228.778 112.029 L 224.658 106.057 227.329 103.956 C 233.413 99.170,229.817 93.399,219.853 91.959 C 211.617 90.768,211.565 90.771,212.847 92.316 M222.800 95.200 C 225.664 98.064,223.568 104.000,219.693 104.000 C 218.365 104.000,217.970 103.520,218.393 102.418 C 218.727 101.548,219.000 99.298,219.000 97.418 C 219.000 93.866,220.557 92.957,222.800 95.200 M149.000 98.180 C 144.556 99.449,144.291 99.747,146.258 101.260 C 148.646 103.097,153.280 119.958,151.865 121.663 C 150.522 123.281,150.766 123.300,155.101 121.912 C 156.970 121.313,159.132 120.626,159.903 120.384 C 161.061 120.022,161.030 119.731,159.727 118.722 C 157.205 116.771,152.569 100.225,154.045 98.445 C 155.482 96.715,154.340 96.655,149.000 98.180 M241.571 98.571 C 238.939 101.203,239.611 106.487,243.079 110.437 C 247.053 114.964,246.672 117.500,242.016 117.500 C 239.405 117.500,238.278 116.936,237.409 115.192 C 236.437 113.244,236.160 113.140,235.629 114.524 C 234.444 117.612,235.003 118.805,238.149 119.902 C 249.266 123.777,255.581 115.982,248.167 107.537 C 244.035 102.831,243.951 100.000,247.943 100.000 C 249.775 100.000,251.428 100.773,252.319 102.045 C 253.718 104.042,255.000 103.071,255.000 100.016 C 255.000 97.353,243.976 96.167,241.571 98.571 M135.000 102.718 C 132.917 103.644,132.047 104.467,132.850 104.753 C 134.226 105.242,139.254 115.080,138.509 115.824 C 138.284 116.049,135.940 114.937,133.300 113.352 C 123.984 107.760,123.874 107.730,119.481 109.635 C 116.719 110.833,116.031 111.481,117.235 111.751 C 119.576 112.277,127.245 128.653,126.399 131.320 C 125.879 132.955,126.096 133.169,127.635 132.538 C 128.661 132.117,130.287 131.547,131.250 131.270 C 133.530 130.614,133.486 129.360,131.160 128.752 C 129.613 128.348,123.562 116.168,124.444 115.236 C 124.582 115.091,129.109 117.472,134.505 120.528 C 146.486 127.313,147.092 126.863,141.948 115.002 C 139.297 108.891,138.081 104.814,138.458 103.310 C 138.777 102.039,138.917 101.037,138.769 101.082 C 138.621 101.126,136.925 101.863,135.000 102.718 M262.656 103.547 C 263.409 105.509,257.081 122.032,255.318 122.708 C 252.916 123.630,253.946 124.794,258.554 126.364 C 262.902 127.845,263.081 127.832,262.521 126.066 C 261.767 123.691,267.493 109.008,270.006 106.871 C 271.850 105.304,271.762 105.181,267.678 103.621 C 262.427 101.616,261.912 101.608,262.656 103.547 M278.356 109.485 C 279.212 111.716,270.498 128.000,268.448 128.000 C 265.474 128.000,267.184 129.761,273.140 132.833 C 284.212 138.543,292.770 136.072,294.537 126.657 C 295.873 119.532,293.576 115.988,284.500 111.167 C 277.619 107.513,277.597 107.506,278.356 109.485 M106.289 116.464 C 102.808 118.671,102.132 120.000,104.492 120.000 C 106.947 120.000,115.348 133.479,114.643 136.287 C 113.906 139.224,109.373 141.555,107.470 139.975 C 104.904 137.846,98.000 126.320,98.000 124.166 C 98.000 121.982,97.981 121.984,94.000 124.619 C 90.255 127.097,88.675 129.314,91.055 128.750 C 91.636 128.612,94.454 131.875,97.317 136.000 C 103.524 144.942,106.439 145.961,113.135 141.530 C 120.029 136.967,120.122 133.920,113.675 123.840 C 111.758 120.845,110.035 117.502,109.845 116.411 C 109.502 114.441,109.478 114.441,106.289 116.464 M287.959 116.457 C 292.306 121.084,287.067 133.000,280.686 133.000 C 274.135 133.000,274.270 131.082,281.722 118.250 C 284.601 113.292,284.904 113.205,287.959 116.457 M300.180 135.046 C 294.505 138.339,289.330 140.727,288.680 140.355 C 288.031 139.982,288.591 140.875,289.924 142.339 C 292.642 145.322,294.000 145.717,294.000 143.526 C 294.000 140.617,299.506 138.780,302.050 140.839 C 304.353 142.704,303.276 150.907,300.919 149.450 C 298.597 148.015,300.327 150.866,302.960 152.812 C 306.261 155.252,308.187 155.650,307.454 153.740 C 307.188 153.048,308.552 147.784,310.485 142.044 C 315.802 126.255,315.588 126.110,300.180 135.046 M176.000 132.049 C 117.386 142.539,72.285 186.105,59.584 244.500 C 58.324 250.291,56.000 268.101,56.000 271.961 C 56.000 272.666,71.915 273.000,105.500 273.000 L 155.000 273.000 155.000 252.500 L 155.000 232.000 167.750 232.007 C 175.562 232.011,183.889 231.364,189.250 230.337 L 198.000 228.660 198.000 179.330 L 198.000 130.000 192.250 130.085 C 189.088 130.132,181.775 131.016,176.000 132.049 M202.241 179.185 L 202.500 228.370 207.500 229.785 C 210.430 230.614,219.433 231.413,229.250 231.715 L 246.000 232.231 246.000 252.615 L 246.000 273.000 295.500 273.000 L 345.000 273.000 344.994 269.750 C 344.867 199.951,275.741 130.000,206.891 130.000 L 201.981 130.000 202.241 179.185 M306.440 137.382 C 305.711 140.288,304.994 140.594,303.174 138.774 C 302.206 137.806,302.424 137.189,304.209 135.842 C 306.956 133.771,307.289 134.001,306.440 137.382 M326.000 142.128 C 326.000 144.476,312.271 157.318,310.490 156.635 C 307.807 155.605,308.915 157.507,314.273 163.128 C 325.716 175.133,343.943 166.205,336.580 152.200 C 334.558 148.353,326.000 140.206,326.000 142.128 M68.415 146.360 C 68.128 147.108,69.943 152.341,72.447 157.989 C 74.951 163.637,77.000 169.100,77.000 170.129 C 77.000 172.631,77.819 172.487,80.588 169.500 C 82.208 167.751,82.476 167.000,81.478 167.000 C 78.313 167.000,76.607 161.048,79.031 158.467 C 81.649 155.680,88.395 157.669,87.263 160.894 C 86.953 161.777,88.342 160.949,90.350 159.054 C 93.676 155.914,95.368 153.037,93.043 154.473 C 92.517 154.799,87.129 152.800,81.071 150.032 C 68.703 144.382,69.127 144.505,68.415 146.360 M333.974 154.000 C 334.031 158.654,325.011 166.773,321.147 165.547 C 315.236 163.671,315.577 161.736,323.098 154.476 L 330.202 147.617 332.079 150.058 C 333.111 151.401,333.964 153.175,333.974 154.000 M216.251 156.500 C 215.747 164.602,215.821 169.588,216.496 173.118 C 216.983 175.664,216.692 177.695,215.513 179.976 C 214.537 181.862,214.088 184.215,214.438 185.608 C 214.917 187.519,214.645 188.000,213.086 188.000 C 210.031 188.000,209.606 184.507,212.064 179.586 C 214.242 175.225,214.246 175.126,212.455 170.144 C 210.873 165.745,210.810 164.607,211.955 161.138 C 212.675 158.954,213.038 155.981,212.761 154.531 C 212.333 152.292,212.577 151.940,214.379 152.197 C 216.187 152.455,216.463 153.090,216.251 156.500 M225.526 154.250 C 225.836 155.488,225.418 158.402,224.597 160.726 C 223.260 164.514,223.272 165.441,224.706 169.651 C 225.926 173.231,226.058 175.009,225.259 177.125 C 224.255 179.783,224.367 179.744,227.855 176.201 C 231.460 172.540,231.485 172.459,230.106 168.770 C 228.876 165.478,228.913 164.517,230.419 160.572 C 231.761 157.058,231.882 155.648,230.985 153.972 C 229.960 152.056,230.080 151.874,232.172 152.170 C 234.651 152.521,234.984 155.422,233.531 164.000 C 232.716 168.814,233.931 170.444,237.219 168.946 C 238.901 168.180,239.604 167.201,239.302 166.047 C 239.051 165.088,239.539 162.646,240.386 160.619 C 241.503 157.944,241.661 156.239,240.961 154.397 C 240.092 152.112,240.219 151.892,242.248 152.180 C 244.659 152.523,245.060 156.302,243.472 163.711 L 242.784 166.922 246.136 165.961 C 259.945 162.000,281.298 167.298,291.123 177.123 C 302.819 188.819,301.174 207.328,288.000 212.278 C 287.175 212.588,291.563 212.878,297.750 212.921 C 308.307 212.995,309.000 213.123,309.000 215.000 C 309.000 216.972,308.333 217.000,261.000 217.000 C 214.052 217.000,213.000 216.957,213.000 215.047 C 213.000 211.447,215.165 208.292,218.847 206.524 L 222.500 204.771 220.000 203.155 C 206.265 194.279,207.899 192.000,228.000 192.000 C 248.071 192.000,249.752 194.331,236.023 203.127 L 233.546 204.714 236.763 206.378 C 238.533 207.293,240.712 209.157,241.606 210.521 C 243.220 212.985,243.325 213.000,258.865 212.998 C 274.391 212.997,274.476 212.985,271.071 211.248 C 263.098 207.183,260.773 196.919,266.210 189.791 C 268.774 186.430,268.826 186.152,267.174 184.657 C 258.959 177.223,235.702 179.302,243.200 186.800 C 244.133 187.733,243.890 188.000,242.106 188.000 C 240.654 188.000,239.621 187.267,239.290 186.000 C 239.002 184.900,238.385 184.000,237.919 184.000 C 237.452 184.000,236.589 184.900,236.000 186.000 C 234.925 188.008,231.000 188.831,231.000 187.048 C 231.000 186.525,232.649 184.495,234.664 182.538 C 243.837 173.629,261.945 173.945,271.177 183.177 L 275.069 187.069 271.535 190.403 C 263.233 198.232,268.913 209.231,281.257 209.231 C 301.436 209.231,298.191 181.440,276.920 172.097 C 257.656 163.635,229.034 171.065,225.419 185.466 C 224.883 187.602,224.252 188.051,222.128 187.805 C 218.670 187.404,218.258 184.375,220.945 179.108 C 222.907 175.263,222.929 174.863,221.395 171.030 C 220.303 168.301,220.005 165.785,220.473 163.248 C 220.853 161.187,221.217 157.813,221.283 155.750 C 221.421 151.414,224.539 150.312,225.526 154.250 M78.225 154.887 C 78.624 155.252,78.119 156.069,77.103 156.704 C 75.540 157.680,75.081 157.473,74.117 155.358 C 72.996 152.896,75.707 152.586,78.225 154.887 M55.257 161.955 C 52.123 165.930,51.342 168.190,53.372 167.411 C 55.786 166.484,69.996 177.495,70.015 180.306 C 70.028 182.220,70.469 181.990,73.477 178.500 C 77.213 174.166,77.816 172.750,75.558 173.616 C 73.620 174.360,57.769 162.045,58.434 160.311 C 59.283 158.098,57.620 158.958,55.257 161.955 M181.418 163.607 C 186.315 165.486,180.214 166.000,153.000 166.000 C 126.202 166.000,118.362 165.359,124.750 163.689 C 127.422 162.991,179.615 162.915,181.418 163.607 M153.500 169.446 C 160.100 169.451,169.345 169.068,174.045 168.596 C 189.621 167.030,198.006 177.246,189.218 187.083 C 182.976 194.068,170.999 190.832,171.001 182.161 L 171.001 178.500 165.963 178.849 C 156.456 179.508,154.490 177.874,163.000 176.387 C 178.400 173.696,179.779 173.625,182.469 175.387 C 187.204 178.490,185.375 185.000,179.769 185.000 C 176.671 185.000,175.023 182.577,176.867 180.733 C 177.711 179.889,178.000 179.906,178.000 180.800 C 178.000 182.302,180.647 182.379,181.559 180.904 C 182.902 178.731,179.334 176.527,176.537 177.801 C 171.252 180.209,174.499 188.000,180.788 188.000 C 188.885 188.000,191.500 176.995,184.494 172.404 C 182.112 170.843,180.671 170.810,167.032 171.997 C 154.937 173.050,149.835 173.054,139.665 172.017 C 122.559 170.273,118.000 171.857,118.000 179.545 C 118.000 186.573,126.304 190.696,131.000 186.000 C 135.157 181.843,131.860 175.581,126.582 177.607 C 123.690 178.717,124.598 182.318,127.581 181.569 C 129.699 181.038,130.101 181.242,129.822 182.711 C 129.273 185.608,124.438 185.598,122.536 182.695 C 118.144 175.992,124.153 172.923,136.889 175.363 C 141.625 176.271,146.603 177.010,147.950 177.007 C 149.718 177.002,150.097 177.303,149.310 178.090 C 148.667 178.733,145.511 179.041,141.619 178.840 C 135.608 178.530,135.071 178.663,135.600 180.324 C 138.851 190.525,120.573 194.811,115.517 185.033 C 110.063 174.487,117.398 167.427,132.500 168.686 C 137.450 169.099,146.900 169.441,153.500 169.446 M44.542 177.338 C 39.084 186.652,44.553 198.000,54.500 198.000 C 63.393 198.000,72.429 182.400,63.750 182.032 C 62.652 181.985,62.834 183.779,64.000 184.500 C 66.427 186.000,61.162 193.000,57.607 193.000 C 54.234 193.000,46.150 187.448,45.448 184.648 C 44.602 181.278,47.471 176.000,50.148 176.000 C 51.899 176.000,52.039 175.752,51.000 174.500 C 48.939 172.017,47.217 172.774,44.542 177.338 M343.000 178.752 C 338.080 181.210,335.545 186.616,336.933 191.691 C 338.486 197.367,342.089 201.424,344.808 200.561 C 347.522 199.699,347.687 198.000,345.057 198.000 C 338.046 198.000,338.698 188.592,346.018 184.130 C 352.941 179.910,362.739 184.385,359.151 190.129 C 357.688 192.473,360.072 192.823,361.965 190.542 C 362.934 189.375,362.716 188.267,360.876 184.993 C 356.709 177.579,350.022 175.244,343.000 178.752 M157.273 180.000 C 158.671 181.100,160.518 182.000,161.377 182.000 C 163.884 182.000,171.052 186.107,170.396 187.168 C 170.067 187.701,169.168 187.895,168.399 187.600 C 167.629 187.304,167.000 187.409,167.000 187.831 C 167.000 189.352,169.445 191.000,171.700 191.000 C 172.965 191.000,174.000 191.450,174.000 192.000 C 174.000 193.030,172.740 193.352,169.831 193.066 C 168.600 192.945,168.306 193.454,168.711 195.004 C 169.516 198.081,175.364 197.460,175.820 194.250 C 175.995 193.012,176.572 192.000,177.101 192.000 C 178.727 192.000,179.380 195.162,178.158 197.119 C 177.521 198.139,177.000 199.853,177.000 200.930 C 177.000 202.006,176.145 203.486,175.099 204.218 C 174.054 204.950,173.041 206.663,172.849 208.025 C 172.473 210.691,167.086 211.759,166.276 209.329 C 166.033 208.600,166.620 208.349,167.830 208.666 C 170.151 209.273,171.686 207.286,170.113 205.713 C 168.334 203.934,168.811 203.000,171.500 203.000 C 173.056 203.000,174.000 202.433,174.000 201.500 C 174.000 200.667,173.111 200.000,172.000 200.000 C 170.900 200.000,169.694 199.970,169.320 199.933 C 168.946 199.896,167.803 202.110,166.780 204.853 C 160.783 220.931,145.237 220.698,139.464 204.444 C 137.800 199.758,137.463 199.425,134.792 199.817 C 131.278 200.333,131.644 202.380,135.327 202.816 C 138.408 203.181,138.569 203.574,136.491 205.652 C 134.677 207.466,135.395 209.000,138.059 209.000 C 139.127 209.000,140.000 209.479,140.000 210.063 C 140.000 210.661,138.576 210.989,136.750 210.813 C 134.034 210.551,133.500 210.090,133.500 208.000 C 133.500 206.559,132.759 205.196,131.750 204.782 C 130.787 204.387,130.000 203.134,130.000 201.997 C 130.000 200.860,129.315 198.884,128.477 197.606 C 126.814 195.067,127.415 192.000,129.576 192.000 C 130.413 192.000,130.701 192.616,130.323 193.601 C 128.938 197.211,135.224 198.145,138.056 194.750 L 139.933 192.500 139.967 195.167 C 139.988 196.886,140.976 198.562,142.750 199.885 C 145.410 201.869,145.426 201.938,143.250 201.968 C 140.678 202.005,140.577 202.306,142.120 205.316 C 148.138 217.052,160.510 216.449,164.777 204.211 C 165.738 201.453,165.662 201.337,163.142 201.725 C 160.598 202.116,160.572 202.073,162.441 200.566 C 163.509 199.705,164.733 199.000,165.163 199.000 C 170.085 199.000,165.262 186.122,159.709 184.439 C 158.494 184.071,156.457 182.815,155.183 181.648 L 152.866 179.526 151.183 181.638 C 150.257 182.799,148.261 184.040,146.746 184.395 C 145.157 184.767,143.042 186.491,141.746 188.472 C 138.421 193.552,133.000 195.450,133.000 191.535 C 133.000 190.732,133.724 190.377,134.789 190.655 C 135.791 190.917,137.373 190.246,138.381 189.131 C 140.130 187.199,140.121 187.156,138.092 187.686 C 136.722 188.044,136.001 187.762,136.004 186.867 C 136.008 185.476,143.222 182.000,146.106 182.000 C 146.977 182.000,148.505 181.100,149.500 180.000 C 150.495 178.900,152.080 178.000,153.020 178.000 C 153.961 178.000,155.874 178.900,157.273 180.000 M149.418 189.607 C 150.288 189.941,151.000 190.788,151.000 191.490 C 151.000 192.943,146.219 194.164,145.444 192.910 C 145.165 192.457,144.275 192.341,143.468 192.651 C 141.984 193.220,141.376 190.957,142.667 189.667 C 143.499 188.834,147.316 188.800,149.418 189.607 M163.843 191.396 C 164.097 192.734,163.768 193.125,162.723 192.724 C 161.910 192.412,160.790 192.610,160.235 193.165 C 159.556 193.844,159.015 193.833,158.581 193.131 C 158.226 192.557,157.275 192.341,156.468 192.651 C 154.402 193.443,154.633 191.318,156.750 190.056 C 159.434 188.456,163.428 189.211,163.843 191.396 M215.492 195.987 C 215.828 196.530,218.104 198.352,220.551 200.035 C 225.702 203.579,226.076 205.269,222.250 207.704 C 219.389 209.525,218.041 210.971,218.015 212.250 C 218.007 212.662,222.500 213.000,228.000 213.000 C 238.968 213.000,239.759 212.444,234.500 208.432 C 229.945 204.958,230.084 203.726,235.449 200.035 C 242.522 195.169,242.273 195.000,228.000 195.000 C 219.624 195.000,215.102 195.357,215.492 195.987 M33.200 198.750 C 32.653 200.262,31.883 202.293,31.491 203.261 C 30.973 204.538,31.166 204.873,32.192 204.480 C 34.910 203.437,51.982 211.470,52.045 213.823 C 52.070 214.745,53.175 213.475,54.500 211.000 C 57.444 205.501,57.496 205.057,55.121 205.679 C 52.593 206.340,36.000 199.140,36.000 197.381 C 36.000 195.010,34.243 195.869,33.200 198.750 M157.000 202.000 C 157.000 202.550,155.173 203.000,152.941 203.000 C 150.490 203.000,149.127 202.604,149.500 202.000 C 149.840 201.450,151.666 201.000,153.559 201.000 C 155.452 201.000,157.000 201.450,157.000 202.000 M344.274 205.914 C 345.389 208.868,347.000 210.101,347.000 208.000 C 347.000 205.652,354.018 206.946,355.186 209.510 C 356.472 212.332,352.859 217.544,350.298 216.561 C 348.623 215.918,348.661 216.944,350.475 221.285 L 351.950 224.815 355.725 221.142 C 357.801 219.122,362.133 215.106,365.350 212.217 C 373.657 204.758,372.990 204.000,358.113 204.000 C 351.541 204.000,345.476 203.736,344.636 203.414 C 343.323 202.910,343.272 203.260,344.274 205.914 M157.678 206.532 C 157.871 207.114,156.599 207.517,154.761 207.456 C 149.008 207.266,147.870 207.019,148.445 206.089 C 149.209 204.853,157.247 205.239,157.678 206.532 M360.479 209.024 C 359.080 210.569,358.456 210.747,357.839 209.774 C 356.477 207.628,356.889 207.000,359.655 207.000 C 362.257 207.000,362.273 207.040,360.479 209.024 M155.500 210.000 C 155.160 210.550,154.009 211.000,152.941 211.000 C 151.873 211.000,151.000 210.550,151.000 210.000 C 151.000 209.450,152.152 209.000,153.559 209.000 C 155.010 209.000,155.851 209.433,155.500 210.000 M25.768 218.103 C 23.452 225.169,23.350 226.024,24.880 225.538 C 27.414 224.734,43.240 229.688,45.037 231.848 C 46.479 233.581,46.674 233.362,48.156 228.348 C 49.428 224.046,49.113 220.160,47.810 224.071 C 47.491 225.026,38.000 223.453,38.000 222.446 C 38.000 220.458,40.342 216.982,41.725 216.919 C 42.909 216.865,42.501 216.380,40.500 215.464 C 36.387 213.580,34.385 213.554,35.921 215.404 C 38.613 218.648,36.190 221.963,32.162 220.547 C 28.029 219.094,27.678 216.723,31.158 213.758 C 33.111 212.093,33.120 211.985,31.351 211.353 C 30.333 210.989,29.249 210.563,28.943 210.406 C 28.636 210.249,27.207 213.713,25.768 218.103 M106.750 220.506 C 110.761 222.121,111.239 222.121,115.250 220.506 C 122.354 217.646,135.000 217.190,135.000 219.794 C 135.000 221.613,135.440 221.803,138.500 221.306 L 142.000 220.738 142.000 241.350 C 142.000 265.018,143.285 262.504,130.770 263.325 C 127.068 263.568,121.106 264.802,117.520 266.068 L 111.000 268.370 104.480 266.068 C 100.894 264.802,94.932 263.568,91.230 263.325 C 78.716 262.504,80.000 265.014,80.000 241.372 L 80.000 220.781 83.500 221.190 C 86.439 221.533,87.000 221.287,87.000 219.656 C 87.000 217.190,99.890 217.744,106.750 220.506 M372.000 219.923 L 369.500 220.647 371.750 221.391 C 372.988 221.800,374.000 222.518,374.000 222.986 C 374.000 223.454,374.238 224.457,374.529 225.214 C 375.365 227.393,356.560 231.699,354.286 229.850 C 352.849 228.682,352.710 228.726,353.254 230.179 C 353.600 231.102,354.185 233.470,354.555 235.440 C 355.234 239.061,357.000 241.370,357.000 238.637 C 357.000 237.822,358.462 236.699,360.250 236.142 C 363.567 235.108,375.822 232.000,376.581 232.000 C 377.538 232.000,376.907 236.693,375.800 237.800 C 374.867 238.733,375.076 239.000,376.741 239.000 C 377.919 239.000,379.153 238.562,379.484 238.026 C 380.149 236.950,375.931 218.940,375.051 219.100 C 374.748 219.155,373.375 219.525,372.000 219.923 M90.648 220.685 C 90.292 221.042,90.000 228.458,90.000 237.167 L 90.000 253.000 93.290 253.000 C 95.099 253.000,99.171 253.675,102.339 254.500 C 105.506 255.325,108.301 256.000,108.549 256.000 C 108.797 256.000,109.000 248.872,109.000 240.161 L 109.000 224.321 106.467 223.167 C 105.075 222.532,102.037 221.757,99.717 221.444 C 97.398 221.130,94.554 220.686,93.398 220.455 C 92.243 220.225,91.005 220.328,90.648 220.685 M124.403 220.997 C 121.599 221.408,117.999 222.370,116.403 223.134 L 113.500 224.525 113.225 240.262 C 113.073 248.918,113.164 256.000,113.426 256.000 C 113.688 256.000,116.494 255.325,119.661 254.500 C 122.829 253.675,126.901 253.000,128.710 253.000 L 132.000 253.000 132.000 236.500 C 132.000 223.900,131.705 220.029,130.750 220.125 C 130.063 220.193,127.206 220.586,124.403 220.997 M83.000 241.500 L 83.000 259.000 89.250 259.033 C 93.030 259.052,97.673 259.877,101.000 261.120 C 109.625 264.343,112.440 264.487,118.210 262.005 C 121.379 260.642,126.384 259.579,131.185 259.250 L 139.000 258.714 139.000 241.250 C 139.000 225.736,138.823 223.854,137.418 224.393 C 136.548 224.727,135.648 225.000,135.418 225.000 C 135.188 225.000,135.000 231.975,135.000 240.500 L 135.000 256.000 130.718 256.000 C 128.363 256.000,123.975 256.710,120.968 257.578 C 111.846 260.211,109.741 260.271,103.249 258.084 C 99.847 256.938,94.799 256.000,92.032 256.000 L 87.000 256.000 87.000 240.607 C 87.000 225.238,86.733 224.000,83.418 224.000 C 83.188 224.000,83.000 231.875,83.000 241.500 M267.853 225.888 C 268.892 226.547,268.950 227.224,268.103 228.807 C 266.429 231.935,266.756 233.992,269.499 237.587 C 274.923 244.699,274.610 251.438,268.689 255.048 C 263.765 258.050,255.684 257.167,259.453 254.039 C 261.720 252.157,261.343 248.562,258.528 245.216 C 252.382 237.912,253.216 230.375,260.595 226.527 C 263.877 224.816,265.882 224.639,267.853 225.888 M289.660 225.607 C 291.723 226.160,291.754 226.345,290.356 229.691 C 288.924 233.117,288.974 233.316,292.583 238.556 C 298.460 247.090,294.767 257.027,285.734 256.985 C 281.233 256.963,279.427 255.721,281.453 254.039 C 283.455 252.377,283.444 247.613,281.434 245.945 C 275.146 240.727,275.594 231.047,282.314 226.950 C 285.764 224.846,286.395 224.731,289.660 225.607 M312.992 225.974 C 314.180 226.725,314.230 227.170,313.242 228.158 C 311.192 230.208,311.859 234.238,315.018 238.900 C 320.971 247.685,316.900 257.000,307.109 257.000 C 303.396 257.000,302.303 255.428,304.402 253.108 C 306.682 250.589,306.436 249.451,302.500 244.296 C 295.287 234.849,303.724 220.114,312.992 225.974 M259.557 231.223 C 256.904 235.009,257.719 238.402,262.728 244.421 C 264.677 246.764,265.031 248.020,264.515 250.769 C 264.015 253.437,264.164 254.030,265.186 253.446 C 270.570 250.371,271.473 245.925,267.649 241.327 C 264.008 236.951,262.895 234.265,263.584 231.521 C 264.404 228.253,261.773 228.058,259.557 231.223 M283.400 229.765 C 279.263 232.528,279.527 236.992,284.208 243.431 C 286.512 246.600,287.051 248.219,286.646 250.750 C 286.050 254.472,287.127 254.873,290.000 252.000 C 292.963 249.037,292.548 244.480,288.894 239.866 C 286.442 236.770,285.873 235.213,286.193 232.472 C 286.590 229.072,285.712 228.221,283.400 229.765 M304.655 230.829 C 302.230 233.508,302.592 238.362,305.472 241.784 C 308.787 245.723,309.923 249.023,308.905 251.750 C 307.783 254.753,309.431 254.660,312.545 251.545 C 316.158 247.933,315.649 245.040,310.263 238.568 C 308.473 236.417,307.927 234.753,308.211 232.318 C 308.648 228.572,307.234 227.979,304.655 230.829 M21.740 233.643 C 21.460 234.114,20.959 236.525,20.628 239.000 C 20.296 241.475,20.282 242.938,20.596 242.250 C 21.738 239.750,40.646 243.616,42.374 246.703 C 43.170 248.127,43.593 247.418,44.593 242.981 C 45.827 237.508,45.614 235.389,44.079 237.872 C 43.089 239.474,24.245 236.015,23.002 234.003 C 22.588 233.334,22.021 233.172,21.740 233.643 M194.000 249.000 L 194.000 258.000 183.500 258.000 L 173.000 258.000 173.000 265.500 L 173.000 273.000 183.500 273.000 L 194.000 273.000 194.000 292.339 L 194.000 311.679 196.547 312.839 C 199.912 314.373,201.511 314.304,205.050 312.474 L 208.000 310.949 208.000 291.974 L 208.000 273.000 218.000 273.000 L 228.000 273.000 228.000 265.500 L 228.000 258.000 218.000 258.000 L 208.000 258.000 208.000 249.000 L 208.000 240.000 201.000 240.000 L 194.000 240.000 194.000 249.000 M204.000 252.500 L 204.000 262.000 214.500 262.000 L 225.000 262.000 225.000 265.500 L 225.000 269.000 214.521 269.000 L 204.041 269.000 203.771 289.250 L 203.500 309.500 200.500 309.500 L 197.500 309.500 197.229 289.250 L 196.959 269.000 186.979 269.000 L 177.000 269.000 177.000 265.500 L 177.000 262.000 187.000 262.000 L 197.000 262.000 197.000 252.500 L 197.000 243.000 200.500 243.000 L 204.000 243.000 204.000 252.500 M363.217 246.561 C 353.204 253.574,358.401 268.943,370.800 268.985 C 379.520 269.015,383.730 264.172,382.726 255.266 C 381.737 246.487,370.488 241.468,363.217 246.561 M18.662 251.190 C 18.342 253.561,17.785 258.087,17.425 261.250 L 16.770 267.000 19.585 267.000 C 21.774 267.000,22.133 266.733,21.200 265.800 C 17.459 262.059,19.709 259.919,26.750 260.523 C 38.155 261.501,40.000 261.950,40.000 263.745 C 40.000 264.753,40.345 265.028,40.883 264.450 C 42.070 263.172,42.932 253.000,41.853 253.000 C 41.384 253.000,41.000 253.740,41.000 254.645 C 41.000 256.071,40.106 256.205,34.250 255.652 C 30.538 255.301,25.855 255.011,23.844 255.007 C 19.862 254.999,19.335 252.036,22.819 249.250 C 23.679 248.563,23.883 248.000,23.273 248.000 C 22.663 248.000,21.507 247.748,20.704 247.440 C 19.610 247.020,19.099 247.959,18.662 251.190 M379.750 253.687 C 383.950 259.382,374.272 265.042,364.519 262.594 C 361.449 261.824,359.525 257.755,360.962 255.072 C 363.577 250.185,376.467 249.236,379.750 253.687 M384.000 252.480 C 384.000 255.387,387.425 260.892,388.618 259.902 C 390.594 258.262,390.333 256.662,387.686 254.174 C 385.489 252.111,384.000 251.426,384.000 252.480 M16.833 276.042 C 17.141 279.278,17.446 279.797,18.359 278.644 C 19.023 277.807,21.897 277.023,25.232 276.771 C 31.816 276.274,31.802 276.321,23.312 283.330 C 17.741 287.929,17.480 288.347,17.839 292.112 C 18.149 295.362,18.465 295.859,19.612 294.907 C 21.710 293.166,38.596 292.420,40.482 293.985 C 41.799 295.078,42.000 294.679,42.000 290.967 C 42.000 286.843,41.933 286.751,40.118 288.393 C 38.653 289.719,36.741 290.031,31.499 289.798 L 24.762 289.500 32.881 282.655 C 43.970 273.306,43.773 272.652,30.133 273.536 C 22.497 274.031,19.061 273.907,18.574 273.120 C 17.185 270.872,16.456 272.095,16.833 276.042 M359.641 279.311 C 358.370 289.892,358.611 291.000,362.189 291.000 L 365.377 291.000 363.189 288.961 C 360.895 286.824,360.520 285.304,361.793 283.301 C 363.143 281.177,381.148 282.852,381.751 285.157 C 382.778 289.082,384.000 286.714,384.000 280.800 C 384.000 275.978,383.733 274.867,382.800 275.800 C 380.989 277.611,363.557 277.414,361.704 275.561 C 360.451 274.308,360.183 274.795,359.641 279.311 M56.553 283.750 C 63.341 359.044,116.054 412.169,191.250 419.501 L 198.000 420.159 198.000 382.298 L 198.000 344.437 193.499 343.108 C 173.973 337.342,158.031 312.708,155.383 284.207 L 154.713 277.000 105.329 277.000 L 55.944 277.000 56.553 283.750 M245.994 278.250 C 245.857 307.295,222.194 344.000,203.607 344.000 C 202.159 344.000,202.000 347.771,202.000 382.080 L 202.000 420.159 208.750 419.501 C 283.615 412.202,337.815 358.412,344.529 284.750 L 345.235 277.000 295.617 277.000 C 256.593 277.000,245.999 277.267,245.994 278.250 M115.420 286.000 C 115.794 289.300,116.455 292.000,116.889 292.000 C 118.105 292.000,120.000 296.774,120.000 299.837 C 120.000 304.591,127.868 303.527,133.486 298.014 C 139.516 292.096,140.688 294.678,134.771 300.846 C 129.977 305.843,125.417 314.000,127.417 314.000 C 128.059 314.000,130.569 311.977,132.996 309.504 C 135.949 306.495,137.740 305.340,138.412 306.012 C 139.084 306.684,137.693 308.760,134.208 312.289 C 131.344 315.190,129.000 318.195,129.000 318.967 C 129.000 319.739,128.022 321.413,126.826 322.686 C 122.431 327.364,128.300 325.289,132.996 320.504 C 135.944 317.501,137.741 316.341,138.410 317.010 C 139.080 317.680,137.872 319.587,134.771 322.756 C 132.219 325.365,129.822 328.756,129.446 330.292 C 128.127 335.675,122.466 339.752,117.250 339.075 C 113.987 338.651,115.945 344.767,119.271 345.391 C 121.070 345.729,124.783 347.857,127.521 350.121 C 137.170 358.098,142.519 358.164,151.188 350.414 C 158.984 343.445,166.886 343.482,175.139 350.526 C 178.006 352.973,181.847 355.256,183.676 355.599 C 186.138 356.061,187.000 356.746,187.000 358.242 C 187.000 361.112,180.982 360.020,176.281 356.298 C 174.338 354.759,171.670 352.668,170.354 351.652 C 165.801 348.137,161.100 348.374,155.500 352.399 C 152.750 354.376,149.395 356.783,148.044 357.747 C 143.101 361.275,134.253 360.186,127.709 355.245 C 117.592 347.607,113.434 347.289,105.906 353.579 C 99.927 358.574,97.941 359.515,96.888 357.853 C 95.471 355.617,95.171 355.905,107.250 347.864 C 112.337 344.477,114.325 338.638,110.250 339.052 C 109.287 339.150,107.668 339.178,106.650 339.115 C 104.171 338.961,98.000 332.680,98.000 330.312 C 98.000 329.274,95.750 326.209,93.000 323.500 C 85.454 316.068,86.877 313.867,94.616 321.000 C 98.816 324.872,101.000 325.940,101.000 324.122 C 101.000 323.640,100.325 322.685,99.500 322.000 C 98.675 321.315,98.000 320.108,98.000 319.318 C 98.000 318.527,95.708 315.457,92.907 312.495 C 86.267 305.474,87.315 302.915,94.095 309.594 C 102.534 317.906,101.238 309.301,92.706 300.369 C 86.492 293.865,88.101 291.720,94.490 297.990 C 100.469 303.858,107.454 304.535,107.576 299.259 C 107.618 297.446,108.630 294.639,109.826 293.022 C 111.382 290.917,112.000 288.647,112.000 285.040 C 112.000 277.488,114.538 278.200,115.420 286.000 M327.000 291.703 L 327.000 302.406 323.186 298.681 L 319.371 294.957 303.936 306.327 L 288.500 317.697 288.207 310.905 L 287.915 304.113 276.207 311.502 L 264.500 318.892 264.198 313.367 C 263.972 309.249,263.590 308.081,262.698 308.780 C 255.561 314.367,244.000 319.812,244.000 317.586 C 244.000 315.612,245.908 314.097,255.250 308.656 L 266.500 302.104 266.802 307.052 C 267.174 313.142,266.216 313.322,280.000 304.583 L 291.500 297.292 291.796 303.646 C 292.161 311.487,290.816 311.791,306.181 300.404 C 318.689 291.134,319.196 290.867,321.065 292.559 C 322.952 294.267,323.000 294.195,323.000 289.655 L 323.000 285.000 318.933 285.000 C 315.527 285.000,314.950 285.285,315.388 286.750 C 315.784 288.078,313.569 290.124,306.205 295.235 L 296.500 301.970 296.207 295.585 L 295.913 289.201 284.903 295.601 C 278.847 299.120,273.713 302.000,273.494 302.000 C 273.275 302.000,272.961 299.366,272.798 296.147 L 272.500 290.294 262.000 296.122 C 250.098 302.728,249.742 302.837,250.180 299.750 C 250.428 298.007,253.318 295.988,263.000 290.794 L 275.500 284.088 276.000 290.022 L 276.500 295.956 287.500 289.525 L 298.500 283.094 298.796 289.545 L 299.091 295.996 304.796 291.840 C 307.933 289.554,310.693 287.524,310.929 287.329 C 311.165 287.135,310.364 285.631,309.149 283.988 L 306.940 281.000 316.970 281.000 L 327.000 281.000 327.000 291.703 M227.997 285.005 C 226.414 287.964,226.824 289.720,229.250 290.370 C 232.697 291.294,236.000 291.113,236.000 290.000 C 236.000 289.450,235.325 289.000,234.500 289.000 C 233.675 289.000,233.000 288.536,233.000 287.969 C 233.000 287.401,233.675 286.678,234.500 286.362 C 237.237 285.311,236.044 283.503,232.493 283.321 C 229.980 283.192,228.713 283.667,227.997 285.005 M231.104 287.296 C 229.820 288.580,228.519 287.588,229.469 286.050 C 229.837 285.455,230.596 285.251,231.156 285.597 C 231.839 286.019,231.822 286.578,231.104 287.296 M167.750 286.689 C 165.354 287.315,165.537 289.000,168.000 289.000 C 169.111 289.000,170.000 289.667,170.000 290.500 C 170.000 291.325,170.408 292.000,170.906 292.000 C 171.405 292.000,171.577 291.100,171.290 290.000 C 170.997 288.882,171.259 288.000,171.883 288.000 C 172.498 288.000,173.000 289.125,173.000 290.500 C 173.000 291.875,173.450 293.000,174.000 293.000 C 174.550 293.000,175.000 291.425,175.000 289.500 C 175.000 285.865,173.350 285.226,167.750 286.689 M227.200 293.200 C 224.310 296.090,226.528 301.000,230.725 301.000 C 232.675 301.000,235.000 298.013,235.000 295.506 C 235.000 292.868,229.236 291.164,227.200 293.200 M111.027 296.934 C 109.624 300.322,110.422 305.276,112.672 307.143 C 114.895 308.988,117.000 305.761,117.000 300.509 C 117.000 293.929,113.211 291.661,111.027 296.934 M173.500 294.491 C 172.950 294.675,171.197 295.114,169.605 295.468 C 167.833 295.862,167.069 296.469,167.635 297.035 C 168.755 298.155,176.000 296.351,176.000 294.953 C 176.000 293.995,175.349 293.875,173.500 294.491 M232.444 294.910 C 233.292 296.282,231.968 299.000,230.452 299.000 C 228.695 299.000,227.683 297.267,228.380 295.452 C 228.999 293.839,231.570 293.495,232.444 294.910 M357.989 295.095 C 357.983 295.868,357.708 298.135,357.377 300.133 C 356.797 303.638,356.870 303.747,359.447 303.255 C 363.378 302.503,377.222 304.949,379.250 306.753 C 380.682 308.027,381.002 308.055,381.011 306.905 C 381.017 306.132,381.317 303.700,381.677 301.500 C 382.239 298.071,382.124 297.671,380.874 298.700 C 378.974 300.263,362.306 297.548,359.750 295.258 C 358.323 293.979,357.998 293.949,357.989 295.095 M171.750 300.162 C 168.601 301.313,168.337 302.608,170.597 305.834 C 173.617 310.147,178.962 306.970,177.628 301.655 C 176.914 298.810,176.052 298.591,171.750 300.162 M28.000 301.706 C 20.168 304.569,18.762 317.903,25.775 322.804 C 37.334 330.882,50.924 319.423,44.506 307.011 C 41.788 301.755,34.379 299.374,28.000 301.706 M175.664 304.433 C 175.333 305.295,174.585 306.000,174.000 306.000 C 172.281 306.000,171.585 302.875,173.096 301.941 C 174.870 300.844,176.452 302.379,175.664 304.433 M223.179 304.507 C 222.530 305.930,222.000 307.292,222.000 307.534 C 222.000 307.901,228.706 311.000,229.501 311.000 C 230.424 311.000,232.130 304.740,231.394 304.050 C 228.837 301.651,224.367 301.900,223.179 304.507 M101.000 306.864 C 101.000 309.495,105.820 314.000,108.636 314.000 C 111.905 314.000,111.759 310.608,108.354 307.452 C 105.140 304.474,101.000 304.142,101.000 306.864 M118.841 308.005 C 115.529 311.318,115.517 313.332,118.807 313.817 C 121.443 314.205,126.000 309.915,126.000 307.045 C 126.000 303.979,122.383 304.463,118.841 308.005 M229.293 306.989 C 229.007 308.083,228.393 308.743,227.930 308.457 C 226.946 307.848,227.838 305.000,229.013 305.000 C 229.453 305.000,229.579 305.895,229.293 306.989 M41.365 308.073 C 46.312 311.963,43.377 316.839,34.692 319.161 C 28.497 320.817,24.661 319.070,24.199 314.384 C 23.575 308.058,35.686 303.605,41.365 308.073 M322.962 317.750 L 322.925 328.500 319.618 324.638 L 316.312 320.775 295.906 336.983 L 275.500 353.190 275.000 345.223 L 274.500 337.256 263.000 344.588 L 251.500 351.919 251.195 347.460 C 250.835 342.185,250.989 342.230,245.680 345.852 C 243.381 347.421,239.588 349.902,237.250 351.365 L 233.000 354.025 233.000 351.628 C 233.000 349.667,234.913 348.034,243.500 342.663 L 254.000 336.095 254.000 341.041 L 254.000 345.988 265.542 338.494 C 271.890 334.372,277.271 331.000,277.500 331.000 C 277.729 331.000,278.047 334.383,278.208 338.518 L 278.500 346.035 296.000 332.396 C 305.625 324.894,314.071 318.299,314.769 317.740 C 315.666 317.021,316.617 317.249,318.019 318.517 C 319.969 320.282,320.000 320.230,320.000 315.155 L 320.000 310.000 315.378 310.000 C 311.350 310.000,310.918 310.196,312.020 311.524 C 313.567 313.388,315.156 311.925,297.416 324.968 L 282.500 335.935 282.000 328.509 L 281.500 321.083 270.000 328.414 L 258.500 335.745 258.202 330.430 L 257.904 325.114 248.066 331.057 C 237.023 337.728,236.736 337.829,237.180 334.885 C 237.447 333.123,258.178 319.000,260.498 319.000 C 260.774 319.000,261.000 321.250,261.000 324.000 C 261.000 330.169,259.987 330.337,273.069 322.000 C 279.111 318.150,284.267 315.000,284.527 315.000 C 284.787 315.000,285.000 318.397,285.000 322.550 L 285.000 330.099 296.432 321.358 L 307.864 312.618 305.864 309.809 L 303.864 307.000 313.432 307.000 L 323.000 307.000 322.962 317.750 M176.845 310.196 C 173.250 312.250,173.244 312.264,174.870 315.122 C 177.213 319.240,179.175 319.065,176.965 314.934 C 175.674 312.522,176.793 312.404,178.708 314.750 C 180.000 316.333,180.075 316.216,179.493 313.527 C 178.853 310.570,178.861 310.564,180.931 312.438 C 183.690 314.935,184.342 314.070,182.182 310.777 L 180.449 308.136 176.845 310.196 M218.566 311.893 C 217.878 313.007,221.777 320.000,223.087 320.000 C 223.576 320.000,223.869 319.015,223.738 317.812 C 223.582 316.375,224.304 315.212,225.838 314.425 C 227.125 313.766,227.800 313.010,227.338 312.745 C 225.389 311.624,219.110 311.013,218.566 311.893 M357.743 312.084 C 353.803 314.378,349.812 326.330,352.625 327.410 C 355.451 328.494,357.816 328.123,355.750 326.920 C 352.638 325.107,354.440 319.032,358.661 317.109 C 361.744 315.704,368.918 317.343,371.916 320.137 C 375.170 323.168,374.124 331.000,370.465 331.000 C 368.049 331.000,368.813 332.731,371.451 333.235 C 376.423 334.186,378.700 322.819,374.720 316.912 C 371.064 311.488,362.802 309.138,357.743 312.084 M112.529 315.953 C 111.827 317.089,112.963 320.000,114.107 320.000 C 114.598 320.000,115.000 319.812,115.000 319.582 C 115.000 319.352,115.251 318.510,115.557 317.711 C 116.163 316.134,113.406 314.534,112.529 315.953 M101.000 318.319 C 101.000 321.336,105.187 325.000,108.635 325.000 C 113.756 325.000,109.719 317.947,103.750 316.466 C 101.294 315.856,101.000 316.054,101.000 318.319 M182.513 316.979 C 182.180 317.518,182.378 318.838,182.954 319.914 C 184.423 322.660,184.255 323.456,182.511 322.009 C 181.692 321.329,181.269 320.374,181.570 319.887 C 181.871 319.399,181.416 319.000,180.559 319.000 C 178.426 319.000,178.603 320.603,181.000 323.000 C 184.299 326.299,187.902 323.997,184.969 320.463 C 184.279 319.632,183.974 318.692,184.291 318.376 C 185.138 317.529,187.124 318.990,186.500 320.000 C 186.207 320.474,186.394 321.125,186.915 321.447 C 188.758 322.587,189.171 319.846,187.443 317.937 C 185.538 315.832,183.470 315.430,182.513 316.979 M118.073 319.635 C 115.277 323.188,115.437 325.000,118.545 325.000 C 121.352 325.000,126.000 320.975,126.000 318.545 C 126.000 315.856,120.444 316.620,118.073 319.635 M211.641 319.772 C 210.180 322.136,216.850 326.446,218.983 324.516 C 221.620 322.129,221.573 320.623,218.906 322.050 C 217.181 322.973,216.405 322.790,214.511 321.010 C 213.246 319.822,211.955 319.265,211.641 319.772 M193.000 326.500 C 193.000 330.976,193.019 331.000,196.500 331.000 C 198.425 331.000,200.000 330.550,200.000 330.000 C 200.000 329.450,198.875 329.000,197.500 329.000 C 196.125 329.000,195.000 328.550,195.000 328.000 C 195.000 327.450,195.900 327.000,197.000 327.000 C 199.728 327.000,199.537 325.243,196.750 324.706 C 194.821 324.334,194.892 324.253,197.250 324.136 C 201.288 323.936,200.608 322.000,196.500 322.000 C 193.019 322.000,193.000 322.024,193.000 326.500 M201.000 323.000 C 201.000 323.550,201.675 324.000,202.500 324.000 C 203.548 324.000,204.000 325.056,204.000 327.500 C 204.000 329.425,204.450 331.000,205.000 331.000 C 205.550 331.000,206.000 329.425,206.000 327.500 C 206.000 325.056,206.452 324.000,207.500 324.000 C 208.325 324.000,209.000 323.550,209.000 323.000 C 209.000 322.450,207.200 322.000,205.000 322.000 C 202.800 322.000,201.000 322.450,201.000 323.000 M101.359 328.508 C 100.016 332.006,107.665 338.735,110.154 336.246 C 112.079 334.321,110.227 330.336,106.610 328.619 C 102.417 326.629,102.082 326.622,101.359 328.508 M112.203 327.854 C 111.173 328.507,111.240 328.955,112.529 330.024 C 113.893 331.156,114.290 331.150,115.010 329.983 C 116.509 327.558,114.760 326.231,112.203 327.854 M121.030 328.279 C 117.576 330.027,115.131 334.531,116.755 336.155 C 119.765 339.165,127.813 331.743,125.535 328.057 C 124.704 326.712,124.066 326.743,121.030 328.279 M349.117 331.094 C 347.728 335.079,347.726 335.042,349.298 334.439 C 352.134 333.351,355.400 338.619,353.995 342.013 C 353.158 344.032,352.215 344.913,351.275 344.552 C 350.484 344.248,348.722 344.000,347.359 344.000 C 345.962 344.000,345.152 343.564,345.500 343.000 C 345.840 342.450,345.725 342.000,345.244 342.000 C 344.764 342.000,343.612 343.590,342.685 345.534 C 340.649 349.804,340.479 351.650,342.250 350.272 C 343.018 349.675,346.395 349.604,351.000 350.088 C 370.697 352.159,371.338 351.506,360.677 340.239 C 356.649 335.983,352.652 331.463,351.794 330.195 L 350.234 327.889 349.117 331.094 M31.108 332.637 C 29.122 334.028,28.847 334.893,29.279 338.387 C 29.896 343.386,34.238 353.250,34.757 350.832 C 35.204 348.749,52.420 341.681,55.029 342.509 C 56.782 343.065,56.777 342.915,54.931 339.094 C 53.869 336.895,53.000 334.625,53.000 334.048 C 53.000 333.472,52.600 333.000,52.111 333.000 C 51.622 333.000,51.285 333.733,51.361 334.629 C 51.449 335.655,49.928 336.934,47.250 338.088 C 43.139 339.858,43.000 339.858,43.000 338.094 C 43.000 332.468,35.961 329.238,31.108 332.637 M40.800 337.200 C 42.898 339.298,42.119 340.473,37.531 342.123 C 32.751 343.842,32.000 343.674,32.000 340.890 C 32.000 337.349,38.305 334.705,40.800 337.200 M359.810 343.297 L 361.968 345.595 358.506 345.190 C 355.463 344.835,355.167 344.557,356.057 342.893 C 357.316 340.540,357.208 340.529,359.810 343.297 M265.345 358.444 C 267.176 362.340,267.219 362.363,268.849 360.311 C 271.940 356.422,274.467 355.804,276.862 358.353 C 279.541 361.205,279.571 363.429,276.964 366.036 C 274.744 368.256,275.128 370.000,277.837 370.000 C 285.480 370.000,285.389 379.308,277.740 379.804 L 273.053 380.107 273.659 384.528 C 274.621 391.550,266.994 393.716,264.000 387.272 C 262.603 384.266,260.000 382.771,260.000 384.974 C 260.000 388.324,254.141 388.957,251.558 385.886 C 249.984 384.017,248.378 383.025,247.481 383.369 C 245.337 384.192,245.663 386.679,247.995 387.288 C 250.753 388.010,251.461 390.473,249.955 394.108 C 248.644 397.274,246.626 397.613,241.668 395.503 C 239.997 394.792,239.895 395.119,240.512 399.231 C 241.173 403.639,241.116 403.764,237.945 404.869 C 233.322 406.481,233.059 406.385,231.436 402.500 C 229.789 398.558,228.438 398.044,227.500 401.001 C 225.764 406.471,216.116 404.718,217.430 399.172 C 218.756 393.574,218.754 393.570,214.371 393.861 C 210.503 394.118,210.170 393.926,209.082 390.818 C 207.862 387.333,210.076 384.000,213.611 384.000 C 214.375 384.000,215.000 383.325,215.000 382.500 C 215.000 381.675,214.395 381.000,213.655 381.000 C 210.345 381.000,208.734 377.414,210.506 373.989 C 212.170 370.770,213.168 370.548,219.000 372.101 C 220.192 372.418,220.433 371.648,220.174 368.353 C 219.860 364.351,219.979 364.162,223.591 362.970 C 227.663 361.626,230.000 363.165,230.000 367.191 C 230.000 369.859,232.502 369.389,233.831 366.472 C 236.016 361.676,245.050 363.405,243.516 368.326 C 241.660 374.283,241.646 375.350,243.434 374.664 C 244.385 374.299,245.632 374.000,246.204 374.000 C 246.890 374.000,246.913 373.574,246.270 372.750 C 243.731 369.496,246.771 365.000,251.509 365.000 L 255.962 365.000 255.347 360.517 C 254.315 352.988,262.030 351.388,265.345 358.444 M259.250 357.718 C 257.529 358.336,257.685 359.995,259.671 362.188 C 261.936 364.692,256.939 370.573,253.920 368.957 C 251.336 367.574,249.000 367.781,249.000 369.393 C 249.000 370.895,251.092 372.000,253.937 372.000 C 257.261 372.000,258.028 378.069,255.033 380.665 C 253.048 382.386,252.761 383.126,253.708 384.088 C 255.127 385.531,258.000 383.717,258.000 381.378 C 258.000 379.866,259.232 379.696,263.708 380.592 C 266.172 381.084,266.667 381.669,266.667 384.092 C 266.667 387.595,267.194 388.247,269.357 387.417 C 271.450 386.613,271.442 385.146,269.329 382.812 C 267.064 380.308,272.061 374.427,275.080 376.043 C 277.955 377.582,280.187 377.207,279.805 375.250 C 279.576 374.075,278.508 373.487,276.558 373.461 C 272.174 373.403,270.226 367.397,273.703 364.662 C 275.585 363.181,275.833 362.504,274.905 361.385 C 273.562 359.768,271.000 361.236,271.000 363.622 C 271.000 365.148,269.774 365.305,265.125 364.375 C 262.513 363.853,262.000 363.288,262.000 360.934 C 262.000 357.905,261.232 357.007,259.250 357.718 M123.131 361.266 C 125.128 362.495,128.683 364.962,131.031 366.750 C 136.491 370.907,142.085 371.178,147.102 367.528 C 156.244 360.879,157.970 359.879,161.221 359.352 C 165.387 358.676,171.353 361.240,177.828 366.491 C 180.208 368.421,183.245 370.000,184.578 370.000 C 186.383 370.000,187.000 370.543,187.000 372.131 C 187.000 374.756,180.994 374.224,177.354 371.276 C 176.148 370.299,173.566 368.222,171.618 366.660 C 166.690 362.710,161.429 362.162,157.240 365.164 C 155.447 366.449,152.111 368.850,149.826 370.500 C 144.759 374.158,135.218 374.789,130.956 371.747 C 129.605 370.783,126.250 368.376,123.500 366.399 C 117.792 362.296,113.408 362.149,108.159 365.887 C 104.170 368.727,101.762 366.512,105.263 363.223 C 110.205 358.580,117.471 357.785,123.131 361.266 M223.000 367.300 C 223.000 368.015,223.510 369.110,224.133 369.733 C 227.129 372.729,220.199 378.395,217.037 375.534 C 215.023 373.711,213.000 374.185,213.000 376.480 C 213.000 377.228,214.248 378.115,215.774 378.450 C 219.706 379.314,219.338 387.000,215.364 387.000 C 214.029 387.000,212.671 387.694,212.345 388.543 C 211.451 390.872,212.689 391.463,215.643 390.117 C 218.013 389.037,218.594 389.194,221.105 391.601 L 223.915 394.293 221.929 396.818 C 220.658 398.434,220.289 399.689,220.904 400.304 C 222.373 401.773,225.000 400.316,225.000 398.031 C 225.000 396.290,225.643 396.000,229.500 396.000 C 233.833 396.000,234.000 396.111,234.000 399.000 C 234.000 401.333,234.444 402.000,236.000 402.000 C 238.340 402.000,238.365 401.895,236.831 398.528 C 234.972 394.448,240.231 389.205,243.307 392.072 C 245.820 394.413,246.602 394.479,247.393 392.418 C 248.257 390.167,248.307 390.226,244.895 389.477 C 242.067 388.856,241.845 388.526,242.395 385.773 C 242.728 384.110,243.000 382.392,243.000 381.954 C 243.000 381.517,244.350 380.862,246.000 380.500 C 247.650 380.138,249.000 379.413,249.000 378.889 C 249.000 377.338,246.303 376.768,244.224 377.880 C 241.071 379.567,235.979 373.786,238.329 371.188 C 240.408 368.891,240.455 367.389,238.471 366.627 C 237.368 366.204,236.773 366.884,236.336 369.071 C 235.457 373.463,227.695 373.191,227.184 368.750 C 226.858 365.918,223.000 364.581,223.000 367.300 M124.102 376.472 C 134.725 384.198,135.322 384.500,140.005 384.500 C 143.662 384.500,145.467 383.859,148.454 381.500 C 150.543 379.850,153.330 377.668,154.646 376.652 C 160.363 372.239,167.274 373.155,175.303 379.389 C 178.464 381.844,182.389 384.146,184.025 384.506 C 188.572 385.504,188.319 389.514,183.766 388.603 C 180.757 388.001,179.093 387.011,170.102 380.472 C 165.065 376.807,160.223 377.135,154.828 381.506 C 143.442 390.728,136.124 391.092,126.328 382.922 C 123.673 380.708,120.286 378.643,118.801 378.333 C 117.317 378.024,115.334 376.922,114.396 375.885 C 111.576 372.769,119.686 373.259,124.102 376.472 M251.188 376.063 C 251.428 376.784,252.216 377.572,252.938 377.813 C 253.688 378.063,254.063 377.688,253.813 376.938 C 253.572 376.216,252.784 375.428,252.063 375.188 C 251.313 374.938,250.938 375.313,251.188 376.063 M80.415 380.853 C 81.438 382.520,67.181 397.283,65.260 396.546 C 61.506 395.106,71.104 405.545,75.684 407.884 C 87.985 414.167,97.880 399.027,88.750 387.892 C 84.733 382.994,78.498 377.727,80.415 380.853 M318.000 383.704 C 308.714 387.083,306.592 398.689,314.031 405.409 C 319.752 410.578,324.748 410.487,330.118 405.118 C 339.398 395.837,330.050 379.319,318.000 383.704 M88.526 392.082 C 89.748 395.933,82.260 405.000,77.858 405.000 C 70.443 405.000,70.539 401.348,78.164 393.407 C 84.672 386.630,86.713 386.369,88.526 392.082 M321.047 388.000 C 325.173 388.000,331.921 398.411,330.055 401.897 C 326.558 408.431,313.000 400.713,313.000 392.189 C 313.000 389.811,316.828 386.720,318.824 387.486 C 319.561 387.769,320.561 388.000,321.047 388.000 M170.802 390.398 C 172.289 391.166,174.403 392.787,175.500 394.000 C 177.982 396.743,182.248 399.000,184.950 399.000 C 186.333 399.000,187.000 399.651,187.000 401.000 C 187.000 405.314,181.745 403.651,171.986 396.250 C 165.806 391.563,157.496 392.083,153.055 397.434 C 151.563 399.232,151.045 399.314,149.075 398.067 C 147.613 397.142,151.286 393.239,156.398 390.285 C 159.267 388.628,167.504 388.692,170.802 390.398 M100.000 400.327 C 100.000 404.011,88.727 418.567,86.798 417.375 C 86.359 417.104,86.005 417.246,86.012 417.691 C 86.021 418.350,94.062 424.471,98.437 427.151 C 99.022 427.509,100.345 426.673,101.378 425.293 C 103.246 422.798,103.244 422.788,101.079 423.475 C 97.902 424.483,93.631 421.507,94.966 419.216 C 98.343 413.421,102.948 412.890,103.036 418.285 C 103.070 420.366,103.220 420.319,105.531 417.500 C 108.585 413.774,108.611 413.161,105.689 413.719 C 101.756 414.471,100.445 411.669,103.069 408.120 C 105.537 404.782,109.899 406.206,109.969 410.372 C 109.995 411.923,110.258 412.031,111.500 411.000 C 113.970 408.950,113.224 407.726,106.459 402.726 C 100.334 398.200,100.000 398.076,100.000 400.327 M297.734 400.837 C 288.809 406.722,290.411 415.000,300.475 415.000 C 307.312 415.000,309.000 415.681,309.000 418.438 C 309.000 421.178,305.084 423.479,302.056 422.518 C 300.052 421.882,299.980 421.996,301.177 423.913 C 302.963 426.771,304.894 426.536,309.272 422.927 C 316.756 416.759,313.166 408.554,303.249 409.162 C 298.775 409.436,297.529 409.159,296.620 407.687 C 295.154 405.315,298.934 401.908,302.110 402.739 C 304.008 403.235,304.108 403.070,303.078 401.146 C 301.684 398.541,301.254 398.516,297.734 400.837 M278.175 408.250 C 276.886 413.003,277.716 413.393,281.047 409.599 C 284.637 405.510,284.691 405.000,281.529 405.000 C 279.588 405.000,278.868 405.698,278.175 408.250 M280.500 412.578 C 278.248 413.923,277.236 414.974,278.183 414.984 C 280.688 415.008,290.334 431.373,289.462 434.120 C 288.814 436.161,288.949 436.144,293.135 433.647 C 295.526 432.222,297.657 430.530,297.870 429.889 C 298.084 429.247,297.778 429.019,297.190 429.383 C 295.051 430.704,284.539 413.319,286.226 411.250 C 287.876 409.226,284.991 409.896,280.500 412.578 M123.487 419.750 C 123.479 422.363,123.095 428.209,122.633 432.742 C 121.503 443.832,122.778 444.341,131.245 436.184 C 138.715 428.988,142.430 426.000,143.908 426.000 C 145.893 426.000,145.043 424.341,142.453 423.161 C 139.156 421.658,137.944 421.691,138.549 423.267 C 138.816 423.964,136.521 427.001,133.449 430.017 L 127.863 435.500 128.561 428.000 C 129.321 419.828,129.663 418.674,131.069 419.543 C 131.581 419.859,132.000 419.725,132.000 419.244 C 132.000 418.415,125.736 415.000,124.216 415.000 C 123.822 415.000,123.494 417.137,123.487 419.750 M264.510 421.250 C 264.159 422.275,263.281 448.006,263.596 448.001 C 265.325 447.976,270.079 444.477,268.750 444.208 C 265.475 443.545,266.391 436.668,269.932 435.332 C 273.386 434.028,277.798 437.479,276.615 440.560 C 276.121 441.848,276.374 442.062,277.739 441.509 C 278.707 441.117,280.738 440.347,282.250 439.800 C 284.813 438.872,286.076 437.000,284.140 437.000 C 283.666 437.000,279.527 433.175,274.942 428.500 C 266.467 419.860,265.270 419.028,264.510 421.250 M146.000 435.148 C 142.425 439.576,138.427 444.055,137.115 445.100 C 135.803 446.145,134.906 447.000,135.122 447.000 C 135.337 447.000,137.013 447.430,138.847 447.956 C 141.595 448.744,142.083 448.659,141.627 447.469 C 140.634 444.883,145.158 440.750,148.157 441.503 C 151.528 442.349,152.997 447.798,150.371 449.718 C 149.016 450.709,148.963 451.030,150.097 451.384 C 150.868 451.626,153.030 452.313,154.899 452.912 C 159.215 454.293,159.678 454.278,158.200 452.800 C 157.540 452.140,156.997 449.102,156.993 446.050 C 156.966 424.953,155.446 423.446,146.000 435.148 M269.761 433.169 C 267.697 434.479,267.249 434.151,266.785 430.987 L 266.342 427.973 268.682 430.171 C 270.432 431.815,270.704 432.570,269.761 433.169 M235.500 430.158 C 233.850 430.708,231.868 431.360,231.097 431.607 C 229.967 431.967,230.025 432.298,231.393 433.298 C 233.760 435.029,238.152 452.428,236.626 454.030 C 235.765 454.932,236.325 455.050,239.000 454.531 C 245.879 453.194,246.329 452.962,244.565 451.661 C 242.938 450.459,240.617 443.993,241.820 444.010 C 242.194 444.015,244.476 445.590,246.891 447.510 C 251.578 451.236,253.254 451.614,257.658 449.940 L 260.447 448.880 256.473 447.006 C 249.679 443.803,247.581 441.652,248.881 439.222 C 253.059 431.415,246.023 426.649,235.500 430.158 M167.771 432.209 C 169.417 434.212,166.635 451.907,164.403 453.633 C 162.807 454.867,164.163 455.255,174.750 456.594 C 179.985 457.256,180.000 457.250,180.000 454.474 C 180.000 451.864,179.888 451.791,178.213 453.307 C 176.058 455.257,171.997 454.489,172.008 452.133 C 172.017 450.013,173.920 438.016,174.605 435.750 C 174.897 434.788,175.779 434.000,176.567 434.000 C 177.355 434.000,178.000 433.550,178.000 433.000 C 178.000 432.450,176.931 432.000,175.625 432.000 C 174.319 432.000,171.731 431.699,169.875 431.331 C 166.910 430.744,166.655 430.851,167.771 432.209 M243.812 434.340 C 245.358 437.511,244.603 440.733,242.203 441.209 C 240.142 441.618,237.651 433.042,239.460 431.766 C 241.072 430.629,242.381 431.404,243.812 434.340 M212.587 442.863 C 211.058 448.338,209.168 454.050,208.386 455.558 C 206.662 458.880,206.671 458.889,210.851 458.253 C 212.790 457.958,213.710 457.439,213.034 457.021 C 210.488 455.448,213.297 449.531,216.751 449.191 C 220.452 448.826,224.551 454.402,221.844 456.117 C 220.261 457.121,226.918 457.352,229.448 456.382 C 230.834 455.850,230.859 455.606,229.620 454.632 C 228.829 454.009,226.137 449.000,223.638 443.500 C 217.435 429.850,216.241 429.781,212.587 442.863 M150.650 439.683 C 148.785 441.549,147.119 438.277,148.756 435.964 L 150.500 433.500 150.825 436.341 C 151.004 437.904,150.925 439.408,150.650 439.683 M187.266 435.023 C 189.228 436.239,188.796 454.149,186.742 456.750 C 185.976 457.721,187.067 457.993,191.628 457.970 C 196.104 457.946,197.084 457.697,195.750 456.920 C 193.009 455.324,193.127 436.000,195.878 436.000 C 200.398 436.000,201.501 443.622,197.250 445.487 C 194.150 446.847,194.432 448.000,197.865 448.000 C 201.900 448.000,206.000 444.514,206.000 441.082 C 206.000 436.284,202.869 434.544,193.648 434.217 C 187.427 433.996,185.918 434.187,187.266 435.023 M217.615 445.561 C 216.872 447.497,213.926 447.438,214.531 445.500 C 216.201 440.156,216.047 440.344,217.151 442.311 C 217.710 443.307,217.919 444.769,217.615 445.561 " stroke="none" fill="#000000" fill-rule="evenodd"></path></g></svg>