<?xml version="1.0" encoding="UTF-8" standalone="no"?>
<svg
   xmlns:dc="http://purl.org/dc/elements/1.1/"
   xmlns:cc="http://creativecommons.org/ns#"
   xmlns:rdf="http://www.w3.org/1999/02/22-rdf-syntax-ns#"
   xmlns:svg="http://www.w3.org/2000/svg"
   xmlns="http://www.w3.org/2000/svg"
   xmlns:sodipodi="http://sodipodi.sourceforge.net/DTD/sodipodi-0.dtd"
   xmlns:inkscape="http://www.inkscape.org/namespaces/inkscape"
   id="svg"
   version="1.1"
   width="380.54559"
   height="105.5771"
   style="display:block"
   sodipodi:docname="sernapesca.svg"
   inkscape:version="0.92.1 r15371">
  <metadata
     id="metadata12">
    <rdf:RDF>
      <cc:Work
         rdf:about="">
        <dc:format>image/svg+xml</dc:format>
        <dc:type
           rdf:resource="http://purl.org/dc/dcmitype/StillImage" />
        <dc:title></dc:title>
      </cc:Work>
    </rdf:RDF>
  </metadata>
  <defs
     id="defs10" />
  <sodipodi:namedview
     pagecolor="#ffffff"
     bordercolor="#666666"
     borderopacity="1"
     objecttolerance="10"
     gridtolerance="10"
     guidetolerance="10"
     inkscape:pageopacity="0"
     inkscape:pageshadow="2"
     inkscape:window-width="690"
     inkscape:window-height="480"
     id="namedview8"
     showgrid="false"
     fit-margin-top="0"
     fit-margin-left="0"
     fit-margin-right="0"
     fit-margin-bottom="0"
     inkscape:zoom="0.11833333"
     inkscape:cx="1188.8846"
     inkscape:cy="-292.05568"
     inkscape:window-x="0"
     inkscape:window-y="0"
     inkscape:window-maximized="0"
     inkscape:current-layer="svg" />
  <g
     id="svgg"
     transform="translate(-11.115414,-11.36721)">
    <path
       id="path0"
       d="m 351.25,85.446 c -5.714,0.716 -11.963,3.812 -16.375,8.112 -1.492,1.455 -1.454,1.797 0.099,0.887 12.991,-7.614 25.843,-5.89 33.17,4.447 7.464,10.532 15.845,15.565 22.564,13.552 1.325,-0.396 1.28,-0.583 -0.208,-0.862 -5.676,-1.065 -9.1,-3.983 -14.963,-12.749 -2.976,-4.449 -3.056,-4.56 -4.551,-6.321 -4.572,-5.385 -11.982,-8.038 -19.736,-7.066"
       inkscape:connector-curvature="0"
       style="fill:#c31940;fill-rule:evenodd;stroke:none" />
    <path
       id="path1"
       d="m 195,82.521 c -18.608,1.366 -34.387,6.537 -48.5,15.897 -20.463,13.57 -46.545,19.083 -72.491,15.323 -2.651,-0.385 -3.079,-0.399 -2.748,-0.091 0.286,0.267 6.386,1.515 10.156,2.08 24.258,3.63 50.391,-1.001 69.128,-12.251 36.345,-21.821 92.215,-18.279 122.277,7.753 2.444,2.117 2.711,1.958 0.728,-0.434 -3.449,-4.159 -8.315,-8.572 -13.217,-11.985 -2.168,-1.51 -5.111,-3.313 -5.406,-3.313 -0.134,0 -0.304,-0.104 -0.377,-0.231 -0.303,-0.525 -7.011,-3.85 -11.1,-5.502 C 229.162,83.995 211.304,81.324 195,82.521"
       inkscape:connector-curvature="0"
       style="fill:#ecc034;fill-rule:evenodd;stroke:none" />
    <path
       id="path2"
       d="m 80.25,11.444 c -38.093,1.807 -60.855,29.043 -43.575,52.139 15.266,20.405 55.364,25.746 80.783,10.759 1.005,-0.592 0.987,-0.632 0.616,1.323 -2.908,15.33 -25.908,25.853 -49.157,22.491 C 62.249,97.191 57.792,95.717 50.75,92.148 44.715,89.09 42.137,87.891 38.443,86.425 27.703,82.163 16.439,81.21 11.775,84.168 c -1.06,0.672 -0.894,0.806 0.875,0.706 5.116,-0.292 11.839,1.996 17.258,5.873 6.697,4.79 11.312,11.147 14.828,20.42 1.459,3.85 1.601,4.161 2.024,4.438 1.259,0.825 1.551,-1.04 0.83,-5.302 -1.667,-9.836 -0.648,-11.369 5.162,-7.774 32.725,20.247 86.084,4.391 87.032,-25.862 C 140.758,45.594 87.762,28.435 53.238,48.645 l -0.846,0.495 0.14,-1.028 c 2.786,-20.521 40.299,-31.1 65.446,-18.457 3.35,1.685 6.349,0.266 6.354,-3.005 0.003,-1.476 -0.577,-2.338 -2.565,-3.812 C 111.33,15.096 95.402,10.725 80.25,11.444 m 71.917,22.503 c -6.878,0.707 -10.345,6.712 -6.144,10.642 1.475,1.379 2.185,1.589 7.894,2.331 5.936,0.772 7.321,1.617 6.256,3.818 C 158.355,54.492 148,53.217 148,49.239 v -0.406 h -2.19 -2.19 l 0.092,0.875 c 0.522,4.981 6.619,7.72 14.235,6.396 5.482,-0.954 8.606,-5.306 6.593,-9.187 -1.186,-2.288 -2.801,-2.914 -10.079,-3.905 -4.862,-0.663 -5.711,-1.058 -5.711,-2.662 0,-4.215 10.387,-3.98 11.181,0.253 l 0.106,0.564 h 2.148 c 2.451,0 2.33,0.099 1.899,-1.554 -1.085,-4.165 -5.608,-6.315 -11.917,-5.666 m 24.943,0.063 c -6.987,0.969 -11.105,7.195 -9.391,14.197 2.374,9.694 17.472,11.264 22.179,2.307 0.84,-1.598 0.935,-1.514 -1.705,-1.514 -2.298,0 -2.307,0.002 -2.496,0.416 -2.439,5.354 -12.682,3.607 -13.645,-2.327 L 171.956,46.5 h 9.548 9.547 l -0.105,-1.792 c -0.441,-7.52 -5.963,-11.79 -13.836,-10.698 m 27.241,-0.008 c -1.778,0.377 -3.453,1.462 -4.713,3.055 L 199,37.863 v -1.598 -1.598 h -2.167 -2.166 v 10.5 10.5 h 2.157 2.158 l 0.052,-6.292 c 0.051,-6.196 0.058,-6.307 0.453,-7.29 1.151,-2.87 4.186,-4.183 8.138,-3.522 l 0.875,0.147 v -2.262 c 0,-1.383 -0.067,-2.303 -0.173,-2.369 -0.297,-0.183 -3.207,-0.239 -3.976,-0.077 m 16.738,0.005 c -2.121,0.334 -3.866,1.149 -5.166,2.412 l -0.756,0.735 V 35.91 34.667 H 213 210.833 v 10.5 10.5 h 2.16 2.16 l 0.048,-6.875 0.049,-6.875 0.462,-0.941 c 2.154,-4.387 10.474,-4.629 11.759,-0.342 0.137,0.458 0.196,2.816 0.196,7.844 v 7.189 h 2.166 2.167 v -7.799 c 0,-9.476 -0.088,-9.992 -2.019,-11.848 -1.726,-1.658 -5.588,-2.532 -8.892,-2.013 m 23.006,0.021 c -4.497,0.513 -7.578,3.291 -7.593,6.847 l -0.002,0.458 h 1.968 1.969 l 0.218,-0.851 c 0.516,-2.011 2.28,-2.975 5.678,-3.104 4.169,-0.158 6.167,0.868 6.167,3.166 0,1.647 -0.789,1.998 -5.73,2.549 -5.316,0.592 -6.495,0.841 -8.27,1.744 -3.758,1.913 -4.044,7.575 -0.508,10.038 3.295,2.294 10.759,1.83 14.183,-0.881 l 0.638,-0.506 0.322,0.73 c 0.63,1.423 2.877,2.001 5.975,1.537 l 0.723,-0.109 v -1.551 -1.55 l -1.125,0.08 c -0.955,0.068 -1.187,0.029 -1.541,-0.258 l -0.417,-0.337 -0.083,-6.807 c -0.094,-7.667 -0.054,-7.416 -1.402,-8.857 -1.888,-2.018 -6.152,-2.911 -11.17,-2.338 m 53.998,-0.004 c -7.39,0.947 -11.505,7.88 -9.071,15.28 2.837,8.623 16.991,9.622 21.686,1.531 C 311.759,49.023 311.739,49 309.121,49 h -2.212 l -0.317,0.589 c -2.755,5.116 -12.601,3.375 -13.523,-2.391 L 292.957,46.5 h 9.547 9.546 l -0.107,-1.635 c -0.509,-7.771 -5.757,-11.879 -13.85,-10.841 m 24.379,-0.017 c -4.684,0.653 -7.2,3.011 -7.199,6.743 10e-4,3.867 1.906,5.171 8.894,6.087 6.551,0.859 7.87,1.606 6.861,3.888 -1.66,3.754 -12.195,2.495 -12.195,-1.459 v -0.433 h -2.166 -2.167 l 0.004,0.459 c 0.04,4.482 3.864,6.958 10.746,6.958 7.238,0 10.477,-2.16 10.494,-7 0.014,-4.016 -1.727,-5.056 -10.449,-6.24 -4.867,-0.661 -5.712,-1.055 -5.712,-2.665 0,-4.124 10.019,-4.041 11.124,0.092 l 0.195,0.73 h 2.133 2.132 v -0.399 c 0,-4.56 -5.911,-7.707 -12.695,-6.761 m 24.862,0.01 c -5.658,0.868 -9.028,5.024 -9.042,11.15 -0.015,7.249 3.981,11.085 11.541,11.078 5.637,-0.005 8.586,-1.93 10.346,-6.752 0.693,-1.899 0.75,-1.845 -1.866,-1.79 l -2.193,0.047 -0.199,0.667 c -1.892,6.337 -11.499,5.555 -12.9,-1.05 -0.429,-2.019 -0.165,-4.609 0.638,-6.268 2.319,-4.79 10.748,-4.76 12.187,0.043 l 0.207,0.691 h 2.223 c 2.573,0 2.512,0.057 1.89,-1.752 -1.528,-4.441 -6.89,-6.975 -12.832,-6.064 m 24.916,-0.081 c -4.926,0.516 -7.504,2.629 -8.164,6.689 l -0.115,0.708 h 2.076 2.076 l 0.089,-0.662 c 0.564,-4.21 11.259,-4.727 11.882,-0.574 0.296,1.975 -0.571,2.43 -5.69,2.987 -6.121,0.666 -8.034,1.183 -9.66,2.61 -2.099,1.844 -2.122,6.212 -0.043,8.41 2.915,3.082 11.209,2.968 15.083,-0.207 0.549,-0.449 0.716,-0.521 0.716,-0.306 0,1.751 3.065,2.788 6.318,2.137 l 0.527,-0.105 -0.047,-1.52 -0.048,-1.52 -1.09,0.055 c -0.893,0.045 -1.164,-0.004 -1.5,-0.276 l -0.41,-0.332 -0.083,-6.807 c -0.094,-7.638 -0.057,-7.398 -1.363,-8.824 -1.655,-1.807 -6.353,-2.904 -10.554,-2.463 M 271.371,34.42 c -1.325,0.288 -3.245,1.209 -4.163,1.997 l -0.708,0.609 v -1.18 -1.179 h -2.167 -2.166 v 14.5 14.5 h 2.166 2.167 v -5.103 -5.103 l 0.687,0.621 c 4.904,4.43 14.681,2.284 17.49,-3.84 4.094,-8.924 -3.499,-17.952 -13.306,-15.822 m -90.349,3.32 c 2.658,0.563 4.668,2.406 5.238,4.802 L 186.369,43 h -7.119 -7.119 l 0.111,-0.458 c 0.82,-3.382 4.914,-5.621 8.78,-4.802 m 121.025,0.005 c 2.547,0.54 4.663,2.487 5.213,4.797 L 307.369,43 h -7.101 c -8.131,0 -7.487,0.158 -6.598,-1.62 1.426,-2.855 4.915,-4.368 8.377,-3.635 m -25.901,0.402 c 6.833,2.127 6.645,12.472 -0.259,14.27 -6.275,1.635 -11.295,-3.774 -9.197,-9.908 1.258,-3.676 5.448,-5.609 9.456,-4.362 m -23.99,10.841 c -2.14,4.974 -13.07,5.264 -12.236,0.324 0.295,-1.747 1.577,-2.298 6.976,-2.999 2.097,-0.273 4.197,-0.624 4.666,-0.779 l 0.855,-0.284 0.048,1.455 c 0.039,1.189 -0.018,1.606 -0.309,2.283 m 127.982,-2.196 c -0.058,1.41 -0.131,1.743 -0.555,2.518 -2.485,4.541 -12.083,4.92 -12.083,0.477 0,-2.188 1.17,-2.754 7.302,-3.533 1.862,-0.237 3.774,-0.568 4.25,-0.737 0.476,-0.168 0.93,-0.316 1.009,-0.328 0.079,-0.012 0.114,0.709 0.077,1.603 M 84.917,46.569 c 17.997,2.259 31.763,11.989 33.33,23.559 l 0.118,0.877 -1.724,0.816 c -24.291,11.49 -59.2,1.868 -63.822,-17.592 -0.556,-2.342 -0.571,-2.314 1.71,-3.334 5.018,-2.244 11.124,-3.845 16.726,-4.387 1.005,-0.097 2.091,-0.207 2.412,-0.244 1.305,-0.15 9.366,0.069 11.25,0.305 m 17.666,14.624 c -5.25,1.954 -4.147,9.704 1.438,10.103 5.717,0.409 7.759,-7.221 2.646,-9.888 -0.699,-0.365 -3.312,-0.502 -4.084,-0.215 M 270.75,86.257 c -5.42,0.997 -10.941,3.83 -14.875,7.632 -1.49,1.44 -1.587,1.857 -0.265,1.145 9.327,-5.029 17.27,-5.732 24.709,-2.188 3.443,1.64 5.018,2.945 10.014,8.298 1.054,1.13 2.404,2.46 3,2.956 0.596,0.496 1.196,1.002 1.334,1.126 6.17,5.545 17.751,9.004 26.5,7.917 3.102,-0.386 3.102,-0.579 0.002,-0.904 -7.426,-0.78 -12.971,-2.703 -18.086,-6.272 -1.225,-0.855 -4.785,-4.351 -6.249,-6.136 -0.412,-0.503 -0.825,-0.995 -0.917,-1.093 -0.092,-0.099 -0.354,-0.423 -0.584,-0.721 -3.275,-4.262 -5.992,-7.191 -7.701,-8.302 -0.394,-0.255 -0.798,-0.542 -0.899,-0.636 -0.179,-0.168 -2.374,-1.275 -3.59,-1.81 -2.476,-1.091 -9.05,-1.627 -12.393,-1.012"
       inkscape:connector-curvature="0"
       style="fill:#2b3482;fill-rule:evenodd;stroke:none" />
    <path
       id="path3"
       d="m 147.823,63.718 c -3.665,1.034 -3.367,5.557 0.458,6.941 1.842,0.667 2.001,0.759 2.301,1.338 0.361,0.698 0.311,1.239 -0.165,1.805 -1.092,1.298 -2.917,0.541 -2.917,-1.21 V 72 h -1.19 -1.19 l 0.091,1 c 0.204,2.245 1.339,3.169 3.883,3.163 2.824,-0.007 3.906,-1.022 3.906,-3.666 0,-1.964 -0.537,-2.589 -3.066,-3.569 -2.145,-0.831 -2.836,-1.875 -2.017,-3.044 0.775,-1.106 2.583,-0.378 2.583,1.041 0,0.395 0.039,0.408 1.179,0.408 h 1.178 l -0.116,-0.958 c -0.283,-2.323 -2.28,-3.402 -4.918,-2.657 m 25.01,1.032 v 1.083 H 173.917 175 V 64.75 63.667 h -1.083 -1.084 v 1.083 m 10.334,0 v 1.083 h 1.083 1.083 V 64.75 63.667 h -1.083 -1.083 v 1.083 m 37.5,0 v 1.083 h 1.083 1.083 V 64.75 63.667 h -1.083 -1.083 v 1.083 m 123,-0.008 v 1.091 h 1.091 1.091 l -0.049,-1.041 -0.05,-1.042 -1.042,-0.05 -1.041,-0.049 v 1.091 M 197.333,69.91 V 76 h 1.081 1.08 l 0.045,-4.002 0.044,-4.002 1.501,3.961 1.501,3.96 1.374,0.048 1.374,0.048 v -6.09 -6.09 h -1.08 -1.08 l -0.045,3.959 -0.045,3.958 -1.519,-3.917 -1.518,-3.916 -1.357,-0.049 -1.356,-0.048 v 6.09 m 48.834,0.007 V 76 h 1.083 1.083 v -6.083 -6.084 h -1.083 -1.083 v 6.084 M 257.5,65.595 c 0,1.64 -0.019,1.743 -0.276,1.486 -1.106,-1.106 -3.308,-0.682 -4.092,0.787 -0.581,1.087 -0.577,5.652 0.005,6.834 0.671,1.363 2.741,1.989 3.952,1.195 0.252,-0.165 0.411,-0.197 0.411,-0.083 0,0.116 0.376,0.186 1,0.186 h 1 v -6.083 -6.084 h -1 -1 v 1.762 m 14,4.322 V 76 h 1.167 1.166 v -2.417 -2.416 h 0.825 c 2.913,0 4.175,-1.15 4.175,-3.802 0,-2.86 -0.908,-3.532 -4.776,-3.532 H 271.5 v 6.084 m 51.615,-5.965 c -0.043,0.072 -0.81,2.719 -1.704,5.881 -0.895,3.163 -1.662,5.848 -1.706,5.966 -0.062,0.168 0.197,0.205 1.149,0.167 l 1.229,-0.049 0.347,-1.334 0.346,-1.333 1.604,-0.048 1.604,-0.047 0.166,0.631 c 0.091,0.347 0.254,0.987 0.361,1.422 L 326.706,76 h 1.147 c 0.706,0 1.147,-0.069 1.147,-0.179 0,-0.173 -0.562,-2.372 -1.678,-6.571 -0.292,-1.1 -0.728,-2.75 -0.969,-3.667 l -0.436,-1.666 -1.361,-0.049 c -0.749,-0.026 -1.397,0.011 -1.441,0.084 M 361.5,69.917 V 76 h 1.083 1.084 v -6.083 -6.084 h -1.084 -1.083 v 6.084 m 3.667,-4.5 v 1.25 h -0.667 -0.667 v 0.833 0.833 h 0.667 0.667 v 3.395 c 0,4.337 0.193,4.661 2.6,4.36 l 0.9,-0.112 v -0.821 -0.822 h -0.588 c -0.819,0 -0.912,-0.35 -0.912,-3.427 v -2.573 h 0.75 0.75 V 67.5 66.667 h -0.75 -0.75 v -1.25 -1.25 h -1 -1 v 1.25 m -89.222,0.503 c 1.498,0.981 0.585,3.413 -1.281,3.413 h -0.831 v -1.94 -1.939 l 0.855,0.101 c 0.47,0.055 1.036,0.22 1.257,0.365 m 49.549,5.122 c 0.005,0.248 -0.154,0.291 -1.077,0.291 -1.286,0 -1.239,0.239 -0.543,-2.722 l 0.543,-2.306 0.535,2.223 c 0.294,1.222 0.538,2.353 0.542,2.514 M 155.386,66.824 c -1.807,0.821 -2.6,5.303 -1.375,7.775 1.351,2.723 5.873,1.978 6.12,-1.009 l 0.077,-0.923 h -1.021 -1.02 v 0.497 c 0,0.805 -0.835,1.624 -1.442,1.414 -0.597,-0.207 -1.058,-1.093 -1.058,-2.036 v -0.709 h 2.357 2.358 l -0.094,-1.541 c -0.202,-3.315 -2.171,-4.708 -4.902,-3.468 m 8.398,0.08 c -0.583,0.396 -0.617,0.401 -0.617,0.091 0,-0.293 -0.117,-0.328 -1.084,-0.328 H 161 V 71.333 76 h 1.083 1.084 v -3.008 c 0,-3.848 0.201,-4.325 1.822,-4.325 0.424,0 0.682,-0.078 0.69,-0.209 0.007,-0.114 0.482,1.517 1.055,3.625 l 1.044,3.834 1.236,0.046 1.236,0.047 1.167,-4.445 c 0.641,-2.444 1.191,-4.547 1.22,-4.672 0.042,-0.174 -0.213,-0.226 -1.113,-0.226 h -1.167 l -0.179,0.875 c -0.099,0.481 -0.388,1.921 -0.643,3.199 l -0.464,2.325 -0.701,-3.143 c -0.385,-1.729 -0.72,-3.158 -0.744,-3.178 -0.405,-0.329 -3.298,-0.21 -3.842,0.159 m 13.705,-0.018 c -1.287,0.681 -1.572,1.501 -1.572,4.526 0,3.763 0.591,4.631 3.22,4.721 2.155,0.074 3.01,-0.646 3.292,-2.775 l 0.114,-0.858 h -1.014 -1.014 l -0.109,0.625 c -0.217,1.235 -0.857,1.681 -1.737,1.21 -0.96,-0.514 -1.068,-4.795 -0.145,-5.777 0.704,-0.749 1.564,-0.339 1.755,0.838 L 180.377,70 h 1.085 1.084 l -0.1,-0.845 c -0.27,-2.279 -2.772,-3.424 -4.957,-2.269 m 10.614,-0.214 c -1.663,0.499 -2.53,3.43 -1.94,6.56 0.762,4.039 5.849,4.141 6.681,0.135 0.974,-4.695 -1.194,-7.757 -4.741,-6.695 m 19.807,0.005 c -0.921,0.268 -1.462,1.023 -1.544,2.156 l -0.073,1 h 1.02 c 1.014,0 1.02,-0.003 1.02,-0.481 0,-1.056 1.369,-1.713 1.941,-0.931 0.653,0.894 0.181,1.513 -1.524,1.994 -2.457,0.693 -3.401,2.371 -2.52,4.479 0.531,1.272 2.561,1.755 3.914,0.93 0.497,-0.303 0.591,-0.314 0.833,-0.096 0.969,0.873 2.356,0.527 2.356,-0.587 0,-0.689 -0.046,-0.825 -0.255,-0.745 -0.449,0.172 -0.578,-0.641 -0.578,-3.644 0,-2.862 -0.005,-2.899 -0.427,-3.401 -0.658,-0.781 -2.671,-1.107 -4.163,-0.674 m 7.332,0.047 c -1.378,0.628 -1.825,1.799 -1.825,4.776 0,3.594 0.661,4.538 3.25,4.639 2.119,0.082 3.077,-0.71 3.284,-2.715 l 0.096,-0.924 h -1.002 -1.002 l -0.101,0.625 c -0.226,1.408 -1.259,1.83 -2.009,0.821 -0.485,-0.654 -0.527,-4.441 -0.056,-5.159 0.635,-0.968 1.688,-0.659 1.938,0.568 0.113,0.558 0.121,0.562 1.15,0.611 l 1.035,0.05 v -0.639 c 0,-2.15 -2.636,-3.62 -4.758,-2.653 m 10.085,0.151 c -2.261,1.14 -2.449,7.251 -0.273,8.86 0.714,0.529 3.302,0.511 4.057,-0.028 1.373,-0.979 1.912,-5.621 0.885,-7.617 -0.788,-1.531 -2.935,-2.089 -4.669,-1.215 m 9.006,-0.255 c -0.137,0.052 -0.456,0.239 -0.708,0.415 -0.456,0.319 -0.458,0.319 -0.458,-0.024 0,-0.31 -0.1,-0.344 -1,-0.344 h -1 V 71.333 76 h 1.083 1.083 v -3.258 c 0,-3.956 0.146,-4.409 1.421,-4.409 0.817,0 0.913,0.442 0.913,4.204 V 76 h 1.094 1.093 l -0.052,-4.125 c -0.058,-4.573 -0.115,-4.828 -1.171,-5.196 -0.536,-0.187 -1.866,-0.221 -2.298,-0.059 m 5.703,0.211 c -0.817,0.371 -1.359,1.315 -1.366,2.377 l -0.003,0.625 h 0.965 0.966 l 0.194,-0.727 c 0.341,-1.276 1.831,-1.418 2.136,-0.203 0.17,0.675 -0.186,1.067 -1.224,1.349 -2.72,0.74 -3.204,1.223 -3.204,3.198 0,2.076 0.604,2.717 2.562,2.717 0.901,0 1.159,-0.067 1.563,-0.407 0.471,-0.397 0.491,-0.4 0.753,-0.093 0.337,0.393 1.289,0.583 1.905,0.379 0.657,-0.219 0.809,-1.653 0.184,-1.742 -0.382,-0.054 -0.384,-0.071 -0.467,-3.221 -0.058,-2.194 -0.151,-3.286 -0.305,-3.556 -0.558,-0.979 -3.173,-1.37 -4.659,-0.696 m 22.206,-0.107 c -1.815,0.827 -2.667,5.646 -1.402,7.936 1.523,2.76 6.138,1.734 6.156,-1.368 L 267,72.667 h -0.978 -0.978 l -0.099,0.607 c -0.335,2.064 -2.257,1.711 -2.413,-0.443 l -0.072,-0.998 h 2.378 2.379 l -0.11,-1.538 c -0.122,-1.72 -0.543,-2.8 -1.308,-3.355 -0.587,-0.426 -2.801,-0.56 -3.557,-0.216 m 18.823,0.015 c -2.539,1.105 -2.792,7.991 -0.337,9.156 2.212,1.05 4.789,-0.167 5.052,-2.384 l 0.1,-0.844 h -1.004 -1.003 l -0.188,0.747 c -0.505,2.005 -2.202,1.484 -2.467,-0.756 l -0.098,-0.825 h 2.372 2.373 l -0.058,-1.625 c -0.109,-3.095 -2.158,-4.594 -4.742,-3.469 m 6.821,-0.034 c -0.94,0.302 -1.438,0.995 -1.519,2.111 -0.139,1.922 0.413,2.613 2.675,3.346 1.605,0.521 2.04,1.271 1.216,2.096 -0.821,0.82 -2.091,0.245 -2.091,-0.947 0,-0.474 -0.008,-0.478 -1.024,-0.478 h -1.023 l 0.094,0.912 c 0.231,2.232 2.959,3.303 5.203,2.041 2.207,-1.241 1.596,-4.473 -1,-5.288 -1.727,-0.543 -2.447,-1.276 -1.901,-1.934 0.671,-0.808 1.716,-0.525 1.911,0.518 l 0.11,0.585 h 1.002 1.002 l -0.076,-0.918 c -0.154,-1.858 -2.25,-2.793 -4.579,-2.044 m 6.769,0.181 c -1.287,0.681 -1.572,1.501 -1.572,4.526 0,3.763 0.592,4.631 3.221,4.721 2.155,0.074 3.009,-0.646 3.292,-2.775 L 299.71,72.5 h -1.003 -1.003 l -0.114,0.625 c -0.225,1.231 -0.876,1.68 -1.754,1.21 -0.885,-0.474 -1.07,-4.355 -0.265,-5.555 0.676,-1.005 1.929,-0.523 1.929,0.742 V 70 h 1.107 1.106 l -0.1,-0.845 c -0.27,-2.279 -2.773,-3.424 -4.958,-2.269 m 6.839,-0.011 c -0.876,0.442 -1.327,1.206 -1.327,2.25 v 0.708 h 0.968 0.968 l 0.157,-0.708 c 0.268,-1.21 1.665,-1.449 2.081,-0.355 0.175,0.461 -0.126,1.171 -0.559,1.313 -0.109,0.036 -0.739,0.222 -1.4,0.413 -2.126,0.615 -2.829,1.769 -2.383,3.915 0.358,1.725 2.464,2.428 4.048,1.353 0.447,-0.303 0.615,-0.349 0.679,-0.184 0.127,0.333 1.223,0.633 1.868,0.512 0.709,-0.133 0.908,-1.632 0.239,-1.807 -0.317,-0.083 -0.333,-0.227 -0.333,-3.036 0,-3.464 -0.13,-3.93 -1.237,-4.433 -1.002,-0.455 -2.806,-0.427 -3.769,0.059 m 29.081,-0.141 c -1.391,0.606 -1.981,2.205 -1.879,5.087 0.118,3.29 0.83,4.221 3.304,4.318 2.105,0.082 3.032,-0.706 3.279,-2.784 L 335.38,72.5 h -1.002 -1.002 l -0.101,0.625 c -0.303,1.886 -2.084,1.848 -2.368,-0.051 -0.218,-1.453 -0.021,-3.843 0.359,-4.354 0.692,-0.929 1.901,-0.418 1.901,0.802 0,0.477 0.002,0.478 1.083,0.478 h 1.083 v -0.631 c 0,-2.141 -2.594,-3.577 -4.758,-2.635 m 17.833,0 c -1.37,0.598 -1.826,1.788 -1.822,4.766 0.005,3.596 0.664,4.538 3.247,4.639 2.12,0.082 3.099,-0.759 3.299,-2.834 l 0.077,-0.805 h -0.999 -0.999 l -0.092,0.68 c -0.23,1.715 -1.803,1.83 -2.301,0.168 -0.289,-0.964 -0.136,-4.009 0.229,-4.566 0.634,-0.968 1.622,-0.677 1.96,0.578 L 351.18,70 h 0.993 0.994 v -0.631 c 0,-2.141 -2.595,-3.577 -4.759,-2.635 m 31.259,-0.12 c -0.138,0.052 -0.409,0.239 -0.604,0.416 -0.349,0.317 -0.354,0.317 -0.442,-0.021 -0.078,-0.298 -0.221,-0.342 -1.105,-0.342 H 376.5 v 4.674 4.675 l 1.042,-0.05 1.041,-0.049 0.084,-3.167 c 0.103,-3.935 0.167,-4.083 1.763,-4.083 0.733,0 0.737,0.003 0.737,0.591 v 0.592 l 0.956,-0.05 c 0.809,-0.042 0.965,-0.102 1.007,-0.383 0.127,-0.849 0.224,-1.04 0.626,-1.223 0.845,-0.385 1.577,0.099 1.577,1.041 0,0.532 -0.4,0.788 -1.947,1.247 -1.926,0.57 -2.549,1.34 -2.552,3.148 -0.003,2.197 2.22,3.373 4.04,2.138 0.58,-0.394 0.592,-0.395 0.909,-0.078 0.404,0.404 1.325,0.558 1.935,0.324 0.54,-0.207 0.64,-1.597 0.115,-1.597 -0.21,0 -0.264,-0.493 -0.338,-3.084 -0.125,-4.348 -0.398,-4.748 -3.252,-4.749 -1.684,-0.001 -2.184,0.203 -2.741,1.119 l -0.315,0.518 -0.052,-0.819 c -0.053,-0.847 -0.577,-1.128 -1.468,-0.788 M 172.833,71.333 V 76 h 1.084 1.083 v -4.667 -4.666 h -1.083 -1.084 v 4.666 m 10.334,0 V 76 h 1.083 1.083 v -4.667 -4.666 h -1.083 -1.083 v 4.666 m 37.5,0 V 76 h 1.083 1.083 v -4.667 -4.666 h -1.083 -1.083 v 4.666 m 89.666,-4.58 c 0,0.048 0.563,2.109 1.25,4.58 0.688,2.472 1.25,4.649 1.25,4.838 0,0.626 -0.768,1.212 -1.426,1.088 l -0.574,-0.107 V 78.076 79 h 1.297 c 2.319,0 2.149,0.326 4.609,-8.857 0.335,-1.251 0.653,-2.545 0.707,-2.875 l 0.098,-0.601 h -1.089 -1.088 l -0.266,1.208 c -0.146,0.665 -0.441,2.033 -0.657,3.042 l -0.392,1.833 -0.287,-1.25 c -0.158,-0.687 -0.476,-2.056 -0.707,-3.042 l -0.419,-1.791 h -1.153 c -0.634,0 -1.153,0.039 -1.153,0.086 M 336,70.581 c 0,4.218 0.09,4.78 0.853,5.314 0.588,0.412 2.368,0.368 3.086,-0.075 0.476,-0.295 0.561,-0.307 0.561,-0.084 0,0.211 0.199,0.264 1,0.264 h 1 v -4.667 -4.666 h -1 -1 l -0.002,3.291 c -0.003,3.559 -0.076,3.923 -0.875,4.37 -0.41,0.229 -0.503,0.229 -0.915,-0.001 L 338.25,74.071 338.167,70.411 338.083,66.75 337.042,66.7 336,66.651 v 3.93 m 7.667,0.744 V 76 h 1.086 1.086 l -0.045,-4.625 -0.044,-4.625 -1.042,-0.05 -1.041,-0.049 v 4.674 m 10.166,-0.937 c 0,4.278 0.043,4.61 0.673,5.285 0.58,0.621 2.168,0.709 3.209,0.178 0.488,-0.249 0.618,-0.266 0.618,-0.083 0,0.174 0.269,0.232 1.086,0.232 h 1.086 l -0.044,-4.625 -0.044,-4.625 -1.042,-0.05 -1.042,-0.049 -0.002,3.299 c -0.003,3.567 -0.075,3.931 -0.875,4.378 -0.41,0.229 -0.503,0.229 -0.914,-0.001 l -0.459,-0.256 -0.083,-3.66 -0.083,-3.661 -1.042,-0.05 -1.042,-0.049 v 3.737 m 15,-0.23 c 0,4.06 0.143,4.985 0.859,5.588 0.714,0.601 2.323,0.605 3.201,0.009 0.576,-0.39 0.607,-0.395 0.607,-0.083 0,0.29 0.116,0.328 1.003,0.328 h 1.002 l -0.044,-4.625 -0.044,-4.625 -1.042,-0.05 -1.042,-0.049 v 3.411 c 0,3.783 -0.01,3.849 -0.678,4.194 C 371.192,75.012 371,74.547 371,70.25 v -3.583 h -1.083 -1.084 v 3.491 m -211.08,-1.654 c 0.152,0.167 0.316,0.609 0.366,0.983 l 0.092,0.68 h -1.272 c -1.253,0 -1.272,-0.007 -1.272,-0.425 0,-1.358 1.287,-2.121 2.086,-1.238 m 106.955,0.343 c 0.587,1.146 0.461,1.32 -0.958,1.32 h -1.25 l 0.002,-0.459 c 0.009,-1.564 1.54,-2.161 2.206,-0.861 m 18.182,-0.662 c 0.475,0.216 0.777,0.795 0.777,1.49 v 0.492 h -1.25 c -0.688,0 -1.25,-0.057 -1.249,-0.125 0.003,-0.512 0.418,-1.419 0.777,-1.701 0.509,-0.401 0.435,-0.388 0.945,-0.156 m -92.767,0.237 c 1.075,0.752 0.96,5.587 -0.141,5.973 -1.231,0.432 -1.816,-0.489 -1.814,-2.857 0.001,-2.73 0.766,-3.949 1.955,-3.116 m 37.816,0.374 c 0.697,1.037 0.669,4.607 -0.042,5.393 -0.706,0.78 -1.755,0.255 -2.05,-1.025 -0.74,-3.212 0.762,-6.348 2.092,-4.368 m 29.128,0.091 c 0.811,1.091 0.389,5.226 -0.565,5.529 -1.002,0.318 -1.536,-0.553 -1.635,-2.666 -0.137,-2.959 1.014,-4.458 2.2,-2.863 m -46.644,4.565 c -0.249,0.989 -1.485,1.409 -1.997,0.678 -0.623,-0.89 -0.171,-1.782 1.157,-2.284 l 0.834,-0.315 0.052,0.765 c 0.028,0.421 0.008,0.941 -0.046,1.156 m 32.502,-0.355 c -0.324,1.729 -2.258,1.944 -2.258,0.25 0,-0.762 0.378,-1.155 1.473,-1.529 l 0.777,-0.266 0.054,0.504 c 0.03,0.278 0.009,0.746 -0.046,1.041 m 61.571,-1.055 c -0.011,1.528 -0.576,2.458 -1.494,2.458 -1.496,0 -1.226,-1.971 0.357,-2.609 1.168,-0.472 1.142,-0.475 1.137,0.151 m 80.837,0.383 c 0,1.427 -0.443,2.075 -1.418,2.075 -1.441,0 -1.192,-2.075 0.319,-2.656 1.144,-0.44 1.099,-0.464 1.099,0.581 m -74.166,12.743 c -6.054,0.832 -12.094,3.836 -16.709,8.309 -1.279,1.24 -1.203,2.223 0.112,1.442 13.226,-7.86 25.912,-6.243 33.335,4.248 6.652,9.401 12.945,13.759 19.845,13.744 3.583,-0.008 6.106,-0.974 3.657,-1.4 -6.295,-1.097 -10.065,-4.122 -15.501,-12.441 -5.96,-9.119 -9.588,-12.104 -16.492,-13.566 -1.893,-0.401 -6.429,-0.586 -8.247,-0.336 m 5.837,0.672 c 7.774,0.951 11.716,3.831 17.783,12.993 4.746,7.166 6.985,9.532 10.88,11.494 1.237,0.624 3.647,1.506 4.112,1.506 0.691,0 -0.086,0.302 -1.025,0.398 -6.519,0.668 -13.636,-4.152 -20.578,-13.937 -6.805,-9.592 -19.085,-11.755 -31.378,-5.526 -1.226,0.621 -0.803,0.154 1.24,-1.369 4.276,-3.189 8.718,-4.967 14.045,-5.621 1.088,-0.134 3.582,-0.102 4.921,0.062 m -61.906,8.645 c -0.593,0.607 -0.679,1.018 -0.213,1.012 0.119,-0.001 0.099,-0.065 -0.05,-0.159 -0.206,-0.13 -0.134,-0.275 0.408,-0.831 0.362,-0.371 0.62,-0.674 0.575,-0.674 -0.046,0 -0.37,0.294 -0.72,0.652"
       inkscape:connector-curvature="0"
       style="fill:#7a7b7d;fill-rule:evenodd;stroke:none" />
  </g>
</svg>
