<?xml version="1.0" encoding="UTF-8" standalone="no"?>
<svg
   xmlns:dc="http://purl.org/dc/elements/1.1/"
   xmlns:cc="http://creativecommons.org/ns#"
   xmlns:rdf="http://www.w3.org/1999/02/22-rdf-syntax-ns#"
   xmlns:svg="http://www.w3.org/2000/svg"
   xmlns="http://www.w3.org/2000/svg"
   xmlns:sodipodi="http://sodipodi.sourceforge.net/DTD/sodipodi-0.dtd"
   xmlns:inkscape="http://www.inkscape.org/namespaces/inkscape"
   id="svg"
   version="1.1"
   width="307.06042"
   height="125.03224"
   style="display:block"
   sodipodi:docname="subpesca.svg"
   inkscape:version="0.92.1 r15371">
  <metadata
     id="metadata10">
    <rdf:RDF>
      <cc:Work
         rdf:about="">
        <dc:format>image/svg+xml</dc:format>
        <dc:type
           rdf:resource="http://purl.org/dc/dcmitype/StillImage" />
        <dc:title></dc:title>
      </cc:Work>
    </rdf:RDF>
  </metadata>
  <defs
     id="defs8" />
  <sodipodi:namedview
     pagecolor="#ffffff"
     bordercolor="#666666"
     borderopacity="1"
     objecttolerance="10"
     gridtolerance="10"
     guidetolerance="10"
     inkscape:pageopacity="0"
     inkscape:pageshadow="2"
     inkscape:window-width="640"
     inkscape:window-height="480"
     id="namedview6"
     showgrid="false"
     fit-margin-top="0"
     fit-margin-left="0"
     fit-margin-right="0"
     fit-margin-bottom="0"
     inkscape:zoom="0.11833333"
     inkscape:cx="1153.8934"
     inkscape:cy="-249.96776"
     inkscape:window-x="0"
     inkscape:window-y="0"
     inkscape:window-maximized="0"
     inkscape:current-layer="svg" />
  <g
     id="svgg"
     transform="translate(-46.106573)">
    <path
       id="path0"
       d="m 200.036,1.792 0.047,1.791 40.959,0.042 L 282,3.667 V 2.355 c 0,-0.723 0.047,-1.548 0.104,-1.834 L 282.208,0 h -41.109 -41.11 l 0.047,1.792 m 0.065,119.638 c -0.055,0.145 -0.101,0.889 -0.101,1.653 0,0.765 0.046,1.508 0.101,1.653 0.137,0.356 81.816,0.411 81.93,0.056 0.037,-0.115 0.038,-0.977 0.002,-1.917 l -0.064,-1.708 h -40.883 c -37.127,0 -40.893,0.024 -40.985,0.263"
       inkscape:connector-curvature="0"
       style="fill:#e73039;fill-rule:evenodd;stroke:none" />
    <path
       id="path1"
       d="m 118.036,1.792 0.047,1.791 40.875,0.042 40.875,0.042 V 1.834 0 h -40.922 -40.922 l 0.047,1.792 M 103,33.52 c -3.555,0.718 -5.666,1.877 -7.053,3.872 -0.71,1.022 -0.88,1.339 -1.305,2.441 -0.309,0.801 -0.309,5.032 0,5.834 1.32,3.422 3.183,4.976 8.191,6.828 5.343,1.976 7.125,3.882 6.303,6.736 -1.186,4.11 -6.76,4.506 -12.18,0.864 -0.529,-0.355 -0.989,-0.615 -1.022,-0.579 -0.034,0.037 -0.434,0.855 -0.889,1.817 -0.454,0.963 -0.965,2.044 -1.134,2.402 l -0.308,0.652 0.518,0.432 c 3.411,2.847 10.452,3.957 14.801,2.332 5.919,-2.212 8.604,-8.518 5.909,-13.882 -1.266,-2.518 -3.301,-3.921 -8.998,-6.203 -3.895,-1.56 -5.041,-2.61 -5.041,-4.615 0,-1.512 0.496,-2.321 1.875,-3.057 0.743,-0.396 5.391,-0.454 6.75,-0.083 1.225,0.334 2.766,0.865 3.307,1.14 0.587,0.298 0.431,0.516 1.519,-2.115 1.1,-2.662 1.107,-2.737 0.299,-3.144 C 111.646,33.734 105.997,32.916 103,33.52 m 133,0.056 c -2.225,0.421 -3.796,1.049 -5.148,2.058 -3.996,2.982 -4.522,9.6 -1.053,13.236 1.367,1.434 2.885,2.324 6.034,3.541 0.413,0.159 0.881,0.357 1.04,0.439 0.159,0.083 0.37,0.15 0.468,0.15 0.449,0 3.019,1.388 3.702,1.999 3.127,2.799 0.885,7.652 -3.543,7.666 -2.088,0.006 -5.286,-1.123 -7.375,-2.604 -0.436,-0.308 -0.83,-0.561 -0.875,-0.561 -0.045,0 -0.535,0.956 -1.087,2.125 -0.553,1.169 -1.071,2.244 -1.152,2.39 -0.081,0.146 -0.098,0.342 -0.037,0.437 0.118,0.185 2.436,1.715 2.599,1.715 0.053,0 0.415,0.146 0.804,0.324 6.966,3.199 14.89,1.157 17.748,-4.574 1.394,-2.795 1.098,-7.405 -0.621,-9.667 -1.354,-1.782 -5.092,-4.117 -8.004,-5 -4.309,-1.306 -6.436,-3.928 -5.182,-6.386 1.13,-2.215 6.401,-2.585 10.758,-0.756 0.729,0.306 1.379,0.501 1.444,0.433 0.137,-0.143 1.98,-4.714 1.98,-4.909 0,-0.113 -0.785,-0.509 -1.917,-0.967 C 243.776,33.529 238.9,33.027 236,33.576 m 28.26,0.014 c -4.279,0.718 -7.579,3.247 -9.344,7.16 -0.248,0.55 -0.518,1.15 -0.6,1.333 -1.854,4.12 -1.657,13.219 0.39,18.084 3.407,8.093 13.615,10.332 22.586,4.954 1.087,-0.652 1.086,-0.636 0.028,-3.36 -1.047,-2.695 -0.908,-2.579 -2.131,-1.788 -2.406,1.554 -5.665,2.482 -8.117,2.309 -1.653,-0.117 -2.587,-0.449 -3.918,-1.393 -1.964,-1.394 -3.125,-4.219 -3.481,-8.472 -0.173,-2.069 0.012,-5.615 0.334,-6.383 0.088,-0.211 0.16,-0.515 0.16,-0.677 0,-1.022 1.556,-3.801 2.62,-4.677 2.685,-2.214 8.021,-2.213 12.002,10e-4 1.124,0.625 1.085,0.635 1.542,-0.389 0.214,-0.482 0.715,-1.567 1.113,-2.413 0.9,-1.914 0.93,-1.73 -0.402,-2.422 -3.39,-1.761 -8.751,-2.544 -12.782,-1.867 M 121,45.375 c 0,13.479 0.061,14.112 1.632,16.954 3.93,7.112 15.657,7.738 20.383,1.088 2.328,-3.274 2.478,-4.401 2.482,-18.542 L 145.5,33.667 h -3.154 -3.154 l -0.074,11.625 c -0.084,13.18 -0.076,13.112 -1.608,15.208 -2.232,3.053 -7.565,2.546 -9.231,-0.878 -1.083,-2.226 -1.112,-2.614 -1.112,-14.885 V 33.667 H 124.083 121 V 45.375 M 151.601,33.93 c -0.055,0.145 -0.101,7.449 -0.101,16.23 v 15.966 l 0.542,0.204 c 0.298,0.112 0.691,0.267 0.875,0.344 1.526,0.642 6.083,1.324 8.833,1.322 5.696,-0.005 10.152,-2.232 11.838,-5.915 0.251,-0.549 0.51,-1.11 0.575,-1.248 1.819,-3.84 -0.845,-8.997 -5.371,-10.4 -1.285,-0.398 -1.288,-0.467 -0.043,-1.099 1.432,-0.727 3.414,-2.832 3.417,-3.628 0,-0.116 0.067,-0.341 0.148,-0.5 1.934,-3.809 -0.717,-9.051 -5.406,-10.686 -2.432,-0.848 -15.022,-1.333 -15.307,-0.59 m 137.308,-0.084 c -0.061,0.098 -0.296,0.904 -0.522,1.791 -0.226,0.887 -0.551,2.138 -0.722,2.78 -0.883,3.31 -1.208,4.553 -1.33,5.083 -0.152,0.654 -1.002,3.887 -1.424,5.417 -0.152,0.55 -0.338,1.262 -0.414,1.583 -0.125,0.531 -0.469,1.844 -1.332,5.083 -0.171,0.642 -0.509,1.917 -0.75,2.834 -0.242,0.916 -0.579,2.191 -0.749,2.833 -0.17,0.642 -0.569,2.192 -0.887,3.445 -0.317,1.253 -0.626,2.359 -0.687,2.458 -0.079,0.127 0.807,0.18 2.97,0.18 2.792,0 3.09,-0.027 3.167,-0.291 0.046,-0.161 0.204,-0.817 0.35,-1.459 0.147,-0.641 0.337,-1.429 0.423,-1.75 0.085,-0.321 0.278,-1.145 0.427,-1.833 0.149,-0.687 0.326,-1.437 0.393,-1.667 l 0.122,-0.416 5.604,-0.044 c 6.248,-0.049 5.783,-0.136 6.011,1.127 0.058,0.321 0.172,0.883 0.255,1.25 0.082,0.367 0.343,1.536 0.579,2.597 0.236,1.062 0.478,2.056 0.536,2.209 0.095,0.246 0.492,0.277 3.566,0.277 h 3.46 l -0.126,-0.625 c -0.069,-0.343 -0.667,-2.725 -1.328,-5.291 -0.66,-2.567 -1.268,-4.948 -1.351,-5.292 -0.35,-1.458 -0.512,-2.1 -1.653,-6.542 -0.659,-2.566 -1.259,-4.929 -1.334,-5.25 -0.074,-0.321 -0.559,-2.233 -1.077,-4.25 -0.518,-2.016 -1.093,-4.285 -1.278,-5.041 l -0.337,-1.375 h -5.226 c -3.542,0 -5.261,0.057 -5.336,0.179 M 178.667,50.583 v 16.75 h 3.081 3.081 l 0.044,-5.791 0.044,-5.792 3.166,-0.098 c 2.866,-0.089 4.207,-0.258 5.167,-0.649 0.183,-0.075 0.596,-0.234 0.917,-0.353 7.79,-2.903 9.307,-14.486 2.457,-18.773 -2.865,-1.793 -4.339,-2.044 -11.999,-2.044 h -5.958 v 16.75 m 26,0 v 16.75 h 10 10 v -2.664 -2.665 l -6.875,-0.044 -6.875,-0.043 v -4.25 -4.25 l 4.993,-0.084 4.993,-0.083 0.109,-0.532 c 0.06,-0.293 0.163,-1.548 0.228,-2.789 l 0.12,-2.258 -5.222,-0.044 -5.221,-0.044 V 43.417 39.25 l 6.875,-0.044 6.875,-0.043 v -2.665 -2.665 h -10 -10 v 16.75 m -42.56,-11.591 c 3.126,0.359 4.502,2.093 4.041,5.089 -0.457,2.968 -1.95,3.913 -6.19,3.917 L 157.833,48 v -4.472 c 0,-2.46 0.05,-4.522 0.111,-4.584 0.162,-0.161 2.587,-0.133 4.163,0.048 m 28.129,0.414 c 3.157,0.822 4.558,3.058 3.991,6.368 -0.608,3.552 -2.583,4.893 -7.209,4.893 h -2.185 v -5.639 c 0,-3.102 0.05,-5.689 0.111,-5.75 0.217,-0.216 4.355,-0.116 5.292,0.128 m 104.591,0.25 c 0.095,0.177 0.173,0.511 0.173,0.742 0,0.231 0.068,0.592 0.151,0.802 0.083,0.211 0.242,0.833 0.353,1.383 0.111,0.55 0.31,1.488 0.442,2.084 0.132,0.595 0.318,1.458 0.412,1.916 0.095,0.459 0.239,1.096 0.321,1.417 0.46,1.805 1.215,5.499 1.225,6 l 0.013,0.583 -4.296,0.045 c -3.522,0.036 -4.312,0.003 -4.384,-0.185 -0.076,-0.199 0.266,-1.898 0.761,-3.776 0.151,-0.576 0.855,-3.543 1.186,-5 0.094,-0.413 0.238,-1.013 0.32,-1.334 0.083,-0.321 0.268,-1.108 0.411,-1.75 0.261,-1.171 0.554,-2.414 0.697,-2.958 0.118,-0.448 1.973,-0.423 2.215,0.031 M 164.135,52.85 c 4.986,1.168 5.216,7.861 0.328,9.563 -0.8,0.279 -3.935,0.349 -4.73,0.106 -0.266,-0.081 -0.802,-0.234 -1.191,-0.34 l -0.709,-0.192 v -4.66 -4.66 h 2.76 c 1.518,0 3.111,0.082 3.542,0.183 M 67.833,81.833 V 89.5 h 0.397 c 0.283,0 0.455,-0.143 0.603,-0.5 0.25,-0.602 0.284,-0.607 0.825,-0.105 3.176,2.945 7.716,-1.151 6.705,-6.048 -0.108,-0.523 -0.196,-1.085 -0.196,-1.249 0,-2.732 -3.858,-4.156 -6.292,-2.322 l -0.542,0.408 v -2.759 -2.758 h -0.75 -0.75 v 7.666 m 106.334,-5.166 c 0,1.375 -0.024,2.5 -0.052,2.5 -0.029,0 -0.376,-0.157 -0.772,-0.348 -2.606,-1.259 -6.176,0.579 -6.176,3.18 0,0.194 -0.087,0.698 -0.193,1.119 -0.372,1.477 0.386,4.502 1.397,5.574 1.307,1.387 3.429,1.479 5.133,0.222 0.712,-0.525 0.766,-0.52 0.888,0.086 0.084,0.423 0.177,0.5 0.604,0.5 h 0.504 v -7.667 -7.666 h -0.667 -0.666 v 2.5 m 141.501,3.958 c 10e-4,8.351 0.094,8.763 2.066,9.133 1.494,0.28 2.133,-0.709 0.692,-1.072 -1.304,-0.328 -1.259,-0.055 -1.259,-7.723 v -6.796 h -0.75 -0.75 l 0.001,6.458 M 49.667,74.578 c -4.18,0.92 -4.606,5.339 -0.692,7.19 4.383,2.073 4.525,2.196 4.525,3.926 0,2.721 -2.811,3.671 -5.963,2.014 -0.911,-0.478 -0.978,-0.473 -1.278,0.109 -0.282,0.545 -0.255,0.584 0.799,1.172 3.11,1.733 7.008,0.657 7.846,-2.165 0.673,-2.266 -0.267,-4.031 -2.755,-5.174 -3.602,-1.656 -4.105,-2.04 -4.253,-3.248 -0.262,-2.135 2.508,-3.301 5.311,-2.235 1.118,0.425 1.2,0.42 1.433,-0.092 0.279,-0.611 0.252,-0.679 -0.348,-0.905 -0.298,-0.112 -0.692,-0.263 -0.875,-0.336 -0.361,-0.143 -2.445,-0.515 -2.686,-0.479 -0.081,0.012 -0.56,0.112 -1.064,0.223 M 150.5,74.49 c -0.275,0.152 -0.498,0.245 -2.333,0.982 -1.059,0.426 -1.258,0.568 -1.303,0.932 -0.067,0.546 -0.17,0.558 2.426,-0.277 l 2.207,-0.71 10e-4,-0.542 C 151.5,74.308 151.107,74.157 150.5,74.49 m 42.278,-0.046 c -0.061,0.062 -0.111,3.474 -0.111,7.584 V 89.5 h 0.746 0.746 l 0.045,-2.792 0.046,-2.791 1.767,-0.118 c 2.78,-0.186 3.986,-0.772 4.891,-2.379 1.394,-2.474 0.534,-5.385 -1.908,-6.456 -1.236,-0.542 -5.817,-0.925 -6.222,-0.52 m 69.428,0.348 c -0.187,0.512 -0.277,0.84 -1.219,4.458 -0.407,1.563 -0.794,3.032 -1.405,5.333 -0.243,0.917 -0.506,1.93 -0.584,2.25 -0.078,0.321 -0.228,0.884 -0.332,1.25 -0.428,1.506 -0.45,1.417 0.356,1.417 h 0.728 l 0.404,-1.708 c 0.222,-0.94 0.437,-1.804 0.477,-1.921 0.057,-0.163 0.784,-0.201 3.18,-0.166 l 3.106,0.045 0.416,1.875 0.416,1.875 h 0.8 0.799 l -0.106,-0.625 c -0.059,-0.344 -0.173,-0.85 -0.254,-1.125 -0.081,-0.275 -0.415,-1.625 -0.742,-3 -0.65,-2.733 -0.797,-3.332 -1.062,-4.333 -0.097,-0.367 -0.457,-1.83 -0.8,-3.25 -0.729,-3.021 -0.559,-2.828 -2.489,-2.831 -1.509,-0.003 -1.523,0.001 -1.689,0.456 m 29.572,-0.348 c -0.061,0.062 -0.111,0.437 -0.111,0.834 V 76 h 0.833 0.833 v -0.833 -0.834 h -0.722 c -0.397,0 -0.772,0.05 -0.833,0.111 m -93.366,1.77 c 1.156,0.655 1.458,1.297 1.393,2.966 -0.096,2.489 -1.147,3.366 -3.935,3.284 l -1.62,-0.047 -0.045,-3.292 -0.045,-3.292 1.795,0.003 c 1.551,0.002 1.885,0.054 2.457,0.378 m 66.328,0.078 c 0.061,0.252 0.178,0.758 0.26,1.125 0.082,0.366 0.219,0.966 0.306,1.333 0.087,0.367 0.286,1.229 0.444,1.917 0.158,0.687 0.36,1.55 0.449,1.916 0.09,0.367 0.175,0.892 0.19,1.167 l 0.028,0.5 h -2.667 c -2.275,0 -2.661,-0.037 -2.63,-0.25 0.092,-0.64 1.339,-5.543 1.907,-7.5 0.256,-0.884 1.511,-1.037 1.713,-0.208 m -139.49,0.162 c -0.59,0.145 -0.75,0.404 -0.75,1.215 0,0.878 -0.132,0.998 -1.097,0.998 -1.044,0 -0.836,0.964 0.222,1.032 l 0.792,0.051 0.083,4.083 c 0.091,4.466 0.195,4.98 1.139,5.611 0.826,0.553 3.694,0.254 3.694,-0.385 0,-0.567 -0.329,-0.906 -0.691,-0.712 -0.637,0.34 -1.771,0.246 -2.231,-0.186 l -0.417,-0.391 0.045,-4.01 0.044,-4.01 1.459,-0.048 L 129,79.654 V 79.167 78.68 l -1.458,-0.049 -1.459,-0.048 -0.049,-1.125 c -0.05,-1.149 -0.073,-1.179 -0.784,-1.004 m 197.292,0.067 c -0.525,0.15 -0.542,0.184 -0.542,1.049 0,0.986 -0.111,1.097 -1.097,1.097 -0.522,0 -0.57,0.042 -0.57,0.5 0,0.458 0.048,0.5 0.57,0.5 1.153,0 1.096,-0.218 1.105,4.226 0.009,4.421 0.08,4.795 1.047,5.509 1.042,0.769 3.83,0.275 3.653,-0.647 -0.101,-0.533 -0.318,-0.676 -0.631,-0.417 -0.132,0.11 -0.619,0.2 -1.081,0.2 -1.483,0 -1.496,-0.041 -1.496,-4.814 v -4.057 h 1.5 1.5 V 79.173 78.68 l -1.458,-0.049 -1.459,-0.048 -0.083,-1.07 c -0.091,-1.163 -0.15,-1.225 -0.958,-0.992 M 80.917,78.404 c -0.092,0.037 -0.367,0.111 -0.612,0.165 -1.055,0.231 -1.972,1.474 -1.972,2.674 0,1.304 0.7,2.094 2.737,3.092 1.951,0.955 2.43,1.433 2.43,2.425 0,1.838 -2.191,2.552 -4.271,1.392 -0.526,-0.293 -0.896,-0.006 -0.896,0.695 0,1.104 4.467,1.18 5.641,0.097 1.933,-1.783 1.187,-4.069 -1.813,-5.559 -2.022,-1.004 -2.328,-1.308 -2.328,-2.314 0,-1.574 2.129,-2.193 4.129,-1.199 0.441,0.219 0.673,0.056 0.742,-0.521 0.069,-0.584 -2.861,-1.316 -3.787,-0.947 m 9.25,0.035 c -4.546,0.872 -4.756,9.808 -0.262,11.149 2.195,0.655 5.545,-0.32 5.103,-1.484 l -0.162,-0.425 -0.94,0.416 c -3.114,1.377 -5.739,0.001 -5.739,-3.009 V 84.5 h 3.607 3.607 L 95.29,83.208 c -0.244,-3.466 -2.238,-5.322 -5.123,-4.769 m 10.379,0.046 c -2.79,0.717 -4.133,4.624 -2.926,8.513 0.828,2.667 3.979,3.6 7.168,2.122 0.293,-0.136 0.35,-0.264 0.27,-0.605 -0.159,-0.681 -0.301,-0.727 -0.993,-0.326 -1.081,0.627 -3.358,0.568 -4.075,-0.106 -1.914,-1.796 -1.784,-6.685 0.216,-8.112 0.687,-0.49 3.039,-0.538 3.877,-0.079 0.55,0.3 0.917,0.07 0.917,-0.575 0,-0.604 -3.093,-1.183 -4.454,-0.832 m 9.554,0.022 c -0.266,0.079 -0.768,0.373 -1.115,0.652 -0.792,0.636 -0.985,0.638 -0.985,0.008 0,-0.461 -0.046,-0.5 -0.583,-0.5 h -0.584 v 5.416 5.417 h 0.75 0.75 l 0.006,-4.208 c 0.006,-4.644 -0.036,-4.449 1.13,-5.273 0.444,-0.313 0.762,-0.388 1.625,-0.383 l 1.073,0.006 v -0.553 c 0,-0.755 -0.768,-0.971 -2.067,-0.582 m 5.983,-0.028 c -4.396,1.157 -4.473,9.69 -0.099,11.106 1.876,0.608 5.358,-0.24 5.207,-1.268 -0.091,-0.617 -0.331,-0.651 -1.255,-0.175 -2.682,1.383 -5.603,-0.099 -5.603,-2.841 V 84.5 h 3.584 3.583 v -0.553 c 0,-3.833 -2.404,-6.26 -5.417,-5.468 M 133.75,78.4 c -0.092,0.034 -0.599,0.158 -1.127,0.275 -1.09,0.241 -1.318,0.43 -1.176,0.974 0.109,0.418 0.355,0.42 1.886,0.018 2.425,-0.637 3.834,0.309 3.834,2.575 v 1.091 l -1.459,0.007 c -3.383,0.017 -4.875,0.998 -4.875,3.209 0,2.96 3.226,4.286 5.747,2.361 l 0.76,-0.58 0.164,0.429 c 0.089,0.236 0.163,0.499 0.163,0.585 0,0.086 0.225,0.156 0.5,0.156 h 0.5 l -0.001,-4.042 c -0.001,-5.038 -0.237,-5.969 -1.7,-6.726 -0.471,-0.243 -2.808,-0.485 -3.216,-0.332 m 10.542,0.1 c -0.251,0.075 -0.756,0.374 -1.122,0.664 -0.72,0.57 -1.003,0.545 -1.003,-0.091 0,-0.34 -0.081,-0.406 -0.5,-0.406 h -0.5 v 5.416 5.417 h 0.666 0.667 v -4.217 -4.218 l 0.542,-0.512 c 0.796,-0.754 1.248,-0.934 2.306,-0.919 0.932,0.013 0.952,0.004 1.024,-0.486 0.111,-0.76 -0.783,-1.039 -2.08,-0.648 m 10.625,0.01 c -1.732,0.351 -2.029,0.54 -1.831,1.165 0.121,0.381 0.104,0.381 1.747,0.009 2.62,-0.592 4,0.34 4,2.702 v 0.947 l -1.541,0.008 c -3.4,0.016 -4.792,0.944 -4.792,3.195 0,3.13 3.514,4.455 5.877,2.216 0.533,-0.505 0.708,-0.454 0.847,0.245 0.08,0.4 0.187,0.503 0.522,0.503 h 0.421 v -4.313 c 0,-4.61 -0.063,-5.031 -0.873,-5.905 -0.748,-0.807 -2.596,-1.133 -4.377,-0.772 m 25.973,-0.027 c -4.371,1.123 -4.438,9.705 -0.087,11.11 1.807,0.583 5.197,-0.244 5.197,-1.268 0,-0.626 -0.272,-0.675 -1.193,-0.213 -2.787,1.4 -5.64,-0.002 -5.64,-2.772 V 84.5 h 3.583 3.583 v -0.522 c 0,-0.732 -0.358,-2.696 -0.527,-2.886 -0.076,-0.087 -0.139,-0.264 -0.139,-0.393 0,-1.334 -2.925,-2.691 -4.777,-2.216 m 24.693,0.003 c -1.957,0.542 -2.973,1.872 -3.273,4.284 -0.68,5.48 2.843,8.491 7.47,6.383 0.832,-0.379 0.996,-0.638 0.725,-1.145 -0.182,-0.338 -0.207,-0.341 -0.722,-0.072 -0.293,0.153 -0.671,0.347 -0.84,0.432 -2.401,1.203 -5.276,-0.62 -5.276,-3.346 V 84.5 h 3.608 3.608 l -0.105,-1.375 c -0.268,-3.514 -2.395,-5.413 -5.195,-4.639 m 9.477,-0.004 c -3.301,0.853 -3.05,4.153 0.446,5.867 1.984,0.972 2.327,1.327 2.327,2.41 0,1.941 -1.982,2.608 -4.13,1.39 l -0.546,-0.31 -0.194,0.427 c -0.915,2.006 4.626,2.024 5.926,0.019 1.283,-1.979 0.507,-3.542 -2.493,-5.019 -1.894,-0.932 -2.229,-1.264 -2.229,-2.206 0,-1.501 2.351,-2.153 4.291,-1.19 0.446,0.221 0.508,0.175 0.638,-0.476 0.148,-0.741 -2.438,-1.325 -4.036,-0.912 m 9.107,0.113 c -3.759,1.347 -4.219,8.882 -0.657,10.755 1.235,0.649 3.855,0.505 5.217,-0.287 0.258,-0.15 0.294,-1.23 0.041,-1.23 -0.021,0 -0.372,0.164 -0.778,0.365 -1.084,0.533 -3.192,0.538 -3.934,0.009 -1.94,-1.383 -1.951,-6.626 -0.017,-8.101 0.906,-0.691 1.874,-0.733 4.155,-0.18 0.554,0.134 1.003,-0.479 0.614,-0.84 -0.684,-0.635 -3.428,-0.925 -4.641,-0.491 m 9.333,-0.161 c -1.423,0.254 -2.167,0.599 -2.167,1.003 0,0.521 0.394,0.668 1.101,0.413 2.792,-1.01 4.733,0.03 4.733,2.536 v 0.947 h -1.523 c -3.443,0 -4.881,0.964 -4.861,3.259 0.025,3.056 3.601,4.366 5.918,2.169 0.571,-0.541 0.569,-0.541 0.799,0.156 0.15,0.453 0.283,0.583 0.596,0.583 h 0.404 v -4.313 c 0,-5.163 -0.126,-5.638 -1.713,-6.462 -0.529,-0.275 -2.435,-0.443 -3.287,-0.291 m 40.167,0.162 c -3.746,1.341 -4.203,8.933 -0.648,10.747 1.666,0.85 5.486,0.336 5.478,-0.737 -0.005,-0.703 -0.212,-0.8 -0.951,-0.443 -3.209,1.551 -5.379,-0.065 -5.379,-4.005 0,-3.831 1.876,-5.417 5.131,-4.337 0.646,0.214 0.743,0.209 0.998,-0.045 0.935,-0.936 -2.714,-1.866 -4.629,-1.18 m 25,-0.017 c -4.202,1.365 -4.24,9.803 -0.049,11.021 1.408,0.41 2.934,0.247 4.504,-0.48 0.292,-0.136 0.35,-0.264 0.27,-0.605 -0.16,-0.681 -0.302,-0.727 -0.994,-0.326 -1.148,0.666 -3.365,0.569 -4.139,-0.18 -1.984,-1.923 -1.588,-7.268 0.608,-8.194 0.742,-0.313 2.899,-0.267 3.541,0.076 0.574,0.306 0.925,0.124 0.925,-0.479 0,-0.781 -3.115,-1.337 -4.666,-0.833 m 43.623,-0.007 c -0.597,0.213 -0.934,0.422 -1.426,0.886 -0.343,0.324 -0.495,0.251 -0.614,-0.291 -0.091,-0.417 -0.191,-0.5 -0.597,-0.5 h -0.486 v 5.416 5.417 h 0.75 0.75 v -4.228 c 0,-5.248 0.198,-5.651 2.777,-5.636 l 1.056,0.006 V 79.09 c 0,-0.779 -0.892,-0.989 -2.21,-0.518 m 5.793,-0.133 c -1.421,0.219 -2.083,0.566 -2.083,1.093 0,0.561 0.164,0.574 1.833,0.135 2.453,-0.644 3.834,0.274 3.834,2.548 v 1.081 l -1.792,0.082 c -2.855,0.13 -3.95,0.688 -4.382,2.229 -0.96,3.432 2.955,5.555 5.806,3.148 0.615,-0.52 0.596,-0.523 0.816,0.162 0.118,0.366 0.28,0.514 0.606,0.552 l 0.446,0.053 v -4.241 c 0,-6.297 -0.884,-7.487 -5.084,-6.842 M 57.333,82.78 c 0,4.338 0.069,4.845 0.792,5.845 1.04,1.438 3.997,1.551 5.537,0.213 0.431,-0.375 0.838,-0.16 0.838,0.444 0,0.131 0.199,0.218 0.5,0.218 h 0.5 V 84.083 78.667 H 64.75 64 v 4.42 4.42 l -0.772,0.49 c -1.506,0.955 -3.254,0.818 -4.014,-0.313 -0.371,-0.553 -0.381,-0.669 -0.381,-4.792 v -4.225 h -0.75 -0.75 v 4.113 m 90.334,-3.613 c 0,0.41 0.068,0.5 0.383,0.5 0.764,0 0.783,0.125 0.783,5.116 V 89.5 h 0.75 0.75 V 84.083 78.667 H 149 147.667 v 0.5 m 97.05,-0.375 c 0.061,0.107 0.349,1.012 1.368,4.291 0.114,0.367 0.376,1.23 0.582,1.917 0.205,0.688 0.51,1.662 0.676,2.167 0.166,0.504 0.385,1.235 0.486,1.625 0.163,0.628 0.238,0.708 0.668,0.708 0.654,0 0.686,0.113 0.317,1.1 -0.786,2.097 -2.132,2.731 -3.941,1.857 -0.388,-0.188 -0.855,0.167 -0.868,0.66 -0.01,0.402 1.203,0.8 2.438,0.8 2.004,0 2.869,-1.048 4.129,-5 1.228,-3.851 1.386,-4.349 2.005,-6.334 0.705,-2.259 1.009,-3.197 1.181,-3.635 0.106,-0.269 0.034,-0.296 -0.671,-0.25 -0.869,0.057 -0.807,-0.036 -1.415,2.135 -0.116,0.413 -0.269,0.938 -0.341,1.167 -0.072,0.229 -0.256,0.867 -0.411,1.417 -0.154,0.55 -0.34,1.187 -0.414,1.416 -0.074,0.23 -0.228,0.754 -0.343,1.167 -0.114,0.412 -0.284,1.013 -0.376,1.333 -0.092,0.321 -0.194,0.684 -0.227,0.806 -0.1,0.368 -0.46,0.119 -0.582,-0.401 -0.063,-0.269 -0.314,-1.163 -0.558,-1.988 -0.58,-1.963 -0.702,-2.385 -0.897,-3.083 -1.181,-4.257 -1.05,-4 -2.053,-4 -0.453,0 -0.791,0.056 -0.753,0.125 m 35.81,4.083 c 0.056,4.193 0.058,4.212 0.511,5.134 0.945,1.924 3.659,2.399 5.615,0.982 0.825,-0.598 0.762,-0.599 1.014,0.009 0.148,0.357 0.32,0.5 0.603,0.5 h 0.397 v -5.417 -5.416 h -0.75 -0.75 v 4.387 c 0,4.342 -0.004,4.391 -0.375,4.716 -0.663,0.58 -1.32,0.813 -2.292,0.813 -2.246,0 -2.5,-0.6 -2.5,-5.915 v -4.001 h -0.765 -0.764 l 0.056,4.208 m 10.306,-3.708 c 0,0.41 0.069,0.5 0.384,0.5 0.764,0 0.783,0.125 0.783,5.116 V 89.5 h 0.667 0.666 v -5.417 -5.416 h -1.25 -1.25 v 0.5 M 305.5,82.78 c 0,4.338 0.069,4.845 0.792,5.845 1.096,1.515 3.642,1.56 5.672,0.101 0.369,-0.266 0.386,-0.258 0.578,0.25 0.156,0.415 0.295,0.524 0.661,0.524 h 0.464 v -5.417 -5.416 h -0.75 -0.75 v 4.42 4.42 l -0.772,0.49 c -1.506,0.955 -3.254,0.818 -4.015,-0.313 C 307.009,87.131 307,87.015 307,82.892 v -4.225 h -0.75 -0.75 v 4.113 m 23.024,0.095 c 0.061,4.185 0.064,4.213 0.515,5.134 0.943,1.924 3.658,2.399 5.614,0.982 0.825,-0.598 0.762,-0.599 1.014,0.009 0.148,0.357 0.32,0.5 0.603,0.5 h 0.397 v -5.417 -5.416 h -0.75 -0.75 v 4.402 4.401 l -0.508,0.427 c -1.065,0.897 -2.992,0.985 -3.836,0.177 C 330.102,87.383 330,86.695 330,82.522 v -3.855 h -0.768 -0.769 l 0.061,4.208 M 73.192,79.644 c 1.915,0.73 2.448,6.231 0.797,8.234 -0.853,1.035 -2.426,1.137 -3.739,0.244 -0.917,-0.624 -0.917,-0.622 -0.917,-4.039 0,-3.419 -0.001,-3.413 0.923,-4.043 0.978,-0.667 1.899,-0.791 2.936,-0.396 m 19.142,0.109 c 0.836,0.427 1.275,1.214 1.427,2.561 l 0.115,1.019 h -2.854 -2.855 v -0.668 c 0,-2.312 2.255,-3.888 4.167,-2.912 m 26.164,0.064 c 0.709,0.362 1.279,1.413 1.434,2.641 l 0.111,0.875 h -2.855 -2.855 v -0.717 c 0,-2.395 2.141,-3.834 4.165,-2.799 m 53.864,-0.287 c 0.489,0.108 1.094,0.338 1.346,0.511 l 0.459,0.315 v 3.368 c 0,3.807 0.007,3.78 -1.281,4.535 -1.983,1.162 -3.701,0.227 -4.296,-2.34 -0.682,-2.942 0.265,-5.915 2.034,-6.385 0.847,-0.225 0.743,-0.225 1.738,-0.004 m 10.92,0.252 c 0.787,0.365 1.551,1.924 1.551,3.165 v 0.386 H 182 179.167 l 0.001,-0.791 c 0.003,-1.427 0.847,-2.546 2.332,-3.094 0.329,-0.121 1.12,0.027 1.782,0.334 m 23.968,-0.265 c 1.132,0.308 1.614,0.892 2.018,2.442 0.371,1.424 0.471,1.374 -2.763,1.374 h -2.838 l 0.002,-0.541 c 0.007,-1.371 0.909,-2.782 2.034,-3.18 0.895,-0.317 0.764,-0.308 1.547,-0.095 m -70.083,6.471 v 1.488 l -0.593,0.488 c -1.971,1.625 -4.25,0.811 -4.235,-1.514 0.01,-1.562 0.597,-1.938 3.036,-1.945 l 1.792,-0.005 v 1.488 m 21.666,-0.091 v 1.398 l -0.632,0.571 c -2.05,1.852 -4.923,0.537 -4.295,-1.966 0.275,-1.096 0.932,-1.4 3.028,-1.4 h 1.899 v 1.397 m 78.298,0.043 0.049,1.356 -0.681,0.582 c -1.933,1.655 -4.332,0.866 -4.332,-1.425 0,-0.738 0.067,-0.893 0.6,-1.397 l 0.601,-0.567 1.858,0.047 1.857,0.047 0.048,1.357 m 114.536,0.048 v 1.488 l -0.593,0.488 c -1.909,1.574 -4.241,0.746 -4.241,-1.504 0,-1.552 0.626,-1.96 3.006,-1.96 h 1.828 v 1.488 M 118.104,121.3 c -0.07,0.113 -0.15,2.484 -0.115,3.408 0.01,0.277 2.075,0.292 40.928,0.292 h 40.916 v -1.917 -1.916 H 159.01 c -22.453,0 -40.861,0.06 -40.906,0.133"
       inkscape:connector-curvature="0"
       style="fill:#1164ae;fill-rule:evenodd;stroke:none" />
  </g>
</svg>
