<?xml version="1.0" encoding="UTF-8" standalone="no"?>
<svg
   xmlns:dc="http://purl.org/dc/elements/1.1/"
   xmlns:cc="http://creativecommons.org/ns#"
   xmlns:rdf="http://www.w3.org/1999/02/22-rdf-syntax-ns#"
   xmlns:svg="http://www.w3.org/2000/svg"
   xmlns="http://www.w3.org/2000/svg"
   xmlns:sodipodi="http://sodipodi.sourceforge.net/DTD/sodipodi-0.dtd"
   xmlns:inkscape="http://www.inkscape.org/namespaces/inkscape"
   id="svg"
   version="1.1"
   width="399.43375"
   height="64.67276"
   style="display:block"
   inkscape:version="0.91 r13725"
   sodipodi:docname="subpesca-mono.svg">
  <metadata
     id="metadata9">
    <rdf:RDF>
      <cc:Work
         rdf:about="">
        <dc:format>image/svg+xml</dc:format>
        <dc:type
           rdf:resource="http://purl.org/dc/dcmitype/StillImage" />
        <dc:title></dc:title>
      </cc:Work>
    </rdf:RDF>
  </metadata>
  <defs
     id="defs7" />
  <sodipodi:namedview
     pagecolor="#ffffff"
     bordercolor="#666666"
     borderopacity="1"
     objecttolerance="10"
     gridtolerance="10"
     guidetolerance="10"
     inkscape:pageopacity="0"
     inkscape:pageshadow="2"
     inkscape:window-width="640"
     inkscape:window-height="480"
     id="namedview5"
     showgrid="false"
     fit-margin-top="0"
     fit-margin-left="0"
     fit-margin-right="0"
     fit-margin-bottom="0"
     inkscape:zoom="0.12333333"
     inkscape:cx="1199.422"
     inkscape:cy="-129.32724"
     inkscape:window-x="0"
     inkscape:window-y="0"
     inkscape:window-maximized="0"
     inkscape:current-layer="svg" />
  <g
     id="svgg"
     transform="translate(-0.57801938,9.1019058e-7)">
    <path
       id="path0"
       d="M 18.139,0.154 C 18.108,0.238 17.483,0.419 16.75,0.557 14.619,0.956 12.852,1.49 11.75,2.069 11.475,2.213 11.196,2.332 11.13,2.332 10.853,2.335 8.424,3.88 7.348,4.739 6.06,5.766 4.209,8.02 3.624,9.272 3.415,9.718 3.172,10.196 3.082,10.333 1.921,12.116 1.294,18.388 1.975,21.417 c 1.378,6.136 4.611,9.711 11.608,12.833 1.76,0.785 1.986,0.881 2.75,1.168 0.413,0.155 0.997,0.387 1.298,0.515 0.301,0.129 0.639,0.234 0.752,0.234 0.113,0 0.485,0.15 0.827,0.333 0.342,0.183 0.729,0.333 0.859,0.333 0.131,0 0.45,0.106 0.709,0.234 0.26,0.129 0.847,0.398 1.305,0.598 4.275,1.867 6.233,3.578 7.124,6.226 1.217,3.619 -0.62,7.746 -4.222,9.483 -2.858,1.378 -6.832,1.302 -11.504,-0.22 -2.493,-0.812 -6.2,-2.806 -7.646,-4.112 -0.941,-0.851 -0.86,-0.965 -3.791,5.291 -0.408,0.871 -0.93,1.969 -1.16,2.439 -0.57,1.164 -0.459,1.376 1.333,2.562 3.608,2.387 9.114,4.512 12.741,4.916 0.573,0.064 1.042,0.184 1.042,0.266 0,0.209 8.123,0.197 8.194,-0.011 0.031,-0.089 0.613,-0.241 1.294,-0.337 3.1,-0.439 7.481,-2.427 9.916,-4.502 3.45,-2.939 5.691,-6.874 6.452,-11.333 0.263,-1.538 0.1,-6.319 -0.256,-7.5 -0.973,-3.23 -1.37,-4.069 -2.838,-5.992 -2.627,-3.441 -6.433,-5.822 -14.012,-8.762 -1.277,-0.496 -1.404,-0.548 -3.826,-1.585 -6.002,-2.569 -8.3,-6.081 -6.54,-9.994 0.673,-1.496 2.984,-3.333 4.192,-3.333 0.132,0 0.673,-0.113 1.201,-0.25 3.515,-0.916 12.009,0.405 16.056,2.496 1.442,0.746 1.347,0.809 2.252,-1.496 0.252,-0.642 0.585,-1.467 0.74,-1.834 C 38.981,9.717 39.24,9.079 39.403,8.667 39.797,7.662 40.046,7.071 40.473,6.124 41.188,4.537 41.146,4.137 40.221,3.723 39.779,3.524 38.974,3.16 38.433,2.914 35.879,1.751 32.021,0.713 29.125,0.41 28.598,0.355 28.167,0.24 28.167,0.155 c 0,-0.206 -9.954,-0.207 -10.028,-0.001 m 248.194,0.002 c 0,0.087 -0.356,0.201 -0.791,0.254 -0.992,0.122 -3.281,0.704 -4.006,1.019 -0.301,0.131 -0.661,0.238 -0.8,0.238 -0.254,0 -3.743,1.764 -3.901,1.972 -0.047,0.062 -0.392,0.32 -0.768,0.575 -5.582,3.784 -7.874,12.128 -5.389,19.619 1.441,4.345 4.989,7.765 10.697,10.314 0.435,0.194 1.119,0.503 1.518,0.686 0.4,0.184 0.831,0.336 0.959,0.339 0.127,0.003 0.377,0.115 0.555,0.25 0.178,0.135 0.44,0.245 0.583,0.246 0.143,0 0.475,0.113 0.737,0.25 0.263,0.137 0.563,0.251 0.667,0.254 0.104,0.003 0.489,0.151 0.856,0.328 0.367,0.177 0.747,0.325 0.846,0.328 0.588,0.018 5.577,2.485 6.071,3.001 0.045,0.048 0.431,0.367 0.855,0.708 3.32,2.666 3.43,8.019 0.232,11.234 -3.918,3.939 -11.762,3.346 -19.667,-1.486 -0.182,-0.111 -0.758,-0.52 -1.279,-0.91 -1.251,-0.933 -1.466,-0.915 -1.959,0.167 -0.513,1.124 -1.988,4.238 -3.025,6.385 -1.033,2.141 -1.039,2.123 1.152,3.528 3.875,2.486 8.921,4.413 12.566,4.801 0.527,0.056 0.958,0.171 0.958,0.256 0,0.209 8.288,0.206 8.361,-0.003 0.031,-0.087 0.58,-0.241 1.22,-0.343 2.627,-0.417 6.222,-1.874 8.419,-3.412 3.624,-2.536 6.57,-6.667 7.488,-10.504 0.088,-0.367 0.237,-0.967 0.332,-1.333 0.212,-0.824 0.228,-6.451 0.02,-7.25 -1.048,-4.028 -1.638,-5.219 -3.903,-7.887 -1.738,-2.048 -5.698,-4.625 -9.562,-6.223 -0.298,-0.123 -0.785,-0.332 -1.083,-0.464 -0.298,-0.132 -0.955,-0.399 -1.459,-0.594 -0.504,-0.194 -1.129,-0.461 -1.388,-0.593 -0.26,-0.132 -0.545,-0.239 -0.634,-0.239 -0.09,0 -0.515,-0.154 -0.945,-0.343 -0.431,-0.188 -0.933,-0.406 -1.116,-0.485 -0.183,-0.078 -0.708,-0.303 -1.167,-0.499 -5.637,-2.409 -7.921,-6.151 -6.071,-9.948 1.715,-3.52 8.564,-4.844 15.405,-2.979 0.458,0.125 1.151,0.277 1.54,0.338 0.39,0.061 0.745,0.171 0.79,0.245 0.046,0.073 0.355,0.184 0.688,0.247 0.333,0.062 0.728,0.181 0.877,0.264 0.149,0.083 0.721,0.335 1.271,0.558 0.55,0.224 1.224,0.525 1.498,0.668 0.59,0.308 0.708,0.217 1.169,-0.9 0.7,-1.698 0.871,-2.117 1.158,-2.833 0.165,-0.413 0.399,-0.975 0.52,-1.25 0.12,-0.275 0.39,-0.95 0.599,-1.5 0.209,-0.55 0.476,-1.155 0.592,-1.344 0.117,-0.189 0.258,-0.678 0.314,-1.086 l 0.102,-0.743 -1.309,-0.6 c -3.432,-1.575 -6.921,-2.626 -9.908,-2.986 -0.862,-0.104 -1.593,-0.257 -1.624,-0.34 -0.075,-0.205 -9.861,-0.199 -9.861,0.005 m 52.639,-0.002 c -0.03,0.084 -0.655,0.265 -1.389,0.403 -6.022,1.127 -10.775,4.073 -14.298,8.86 -0.337,0.458 -0.674,0.908 -0.748,1 -1.159,1.434 -3.097,5.97 -3.916,9.166 -1.406,5.479 -1.843,13.56 -1.069,19.75 0.285,2.277 0.389,2.837 1.047,5.625 0.624,2.648 2.07,6.389 3.077,7.959 0.176,0.275 0.377,0.614 0.447,0.753 2.572,5.134 9.546,9.721 16.085,10.58 0.436,0.057 0.792,0.174 0.792,0.26 0,0.094 1.838,0.157 4.583,0.157 2.708,0 4.584,-0.064 4.584,-0.155 0,-0.085 0.431,-0.198 0.958,-0.251 1.081,-0.108 3.826,-0.697 4.708,-1.01 0.321,-0.114 1.034,-0.341 1.584,-0.505 1.092,-0.326 1.62,-0.546 3.75,-1.564 1.319,-0.631 1.998,-1.001 4.127,-2.254 1.312,-0.772 1.393,-1.4 0.425,-3.261 -0.119,-0.229 -0.217,-0.505 -0.218,-0.612 -10e-4,-0.107 -0.108,-0.407 -0.238,-0.666 -0.13,-0.26 -0.349,-0.772 -0.486,-1.139 -0.138,-0.367 -0.519,-1.343 -0.847,-2.17 -0.328,-0.827 -0.597,-1.599 -0.597,-1.715 0,-1.134 -0.75,-1.208 -2.214,-0.219 -2.13,1.439 -5.348,2.97 -7.536,3.584 -0.55,0.154 -1.247,0.359 -1.548,0.455 -3.838,1.221 -9.768,0.652 -12.784,-1.228 -1.588,-0.989 -4.418,-3.979 -4.418,-4.668 0,-0.099 -0.101,-0.298 -0.225,-0.443 -0.875,-1.02 -2.297,-6.093 -2.625,-9.362 -1.318,-13.136 1.582,-22.081 8.184,-25.243 4.38,-2.099 11.458,-1.84 17.5,0.639 1.269,0.521 3.431,1.708 3.596,1.974 0.049,0.08 0.229,0.146 0.399,0.146 0.313,0 0.395,-0.141 1.508,-2.583 0.292,-0.642 0.828,-1.805 1.191,-2.584 0.362,-0.779 0.809,-1.754 0.994,-2.166 0.184,-0.413 0.432,-0.938 0.55,-1.167 0.661,-1.275 0.559,-1.411 -2.072,-2.741 -3.265,-1.65 -7.886,-2.989 -11.541,-3.343 -0.619,-0.06 -1.125,-0.178 -1.125,-0.263 0,-0.204 -10.121,-0.204 -10.195,0.001 M 51.542,0.61 c -0.166,0.067 -0.209,4.573 -0.209,21.746 0,23.525 -0.029,22.69 0.908,26.061 0.127,0.458 0.281,1.076 0.341,1.373 0.061,0.297 0.18,0.582 0.264,0.635 0.085,0.052 0.154,0.207 0.154,0.344 0,0.398 1.127,2.866 1.895,4.148 2.865,4.785 8.361,8.504 13.686,9.26 0.549,0.078 1.024,0.22 1.056,0.316 0.078,0.237 9.146,0.241 9.225,0.004 0.031,-0.093 0.544,-0.247 1.139,-0.342 6.098,-0.976 11.551,-5.133 14.411,-10.988 0.336,-0.688 0.718,-1.463 0.849,-1.722 0.132,-0.26 0.239,-0.586 0.239,-0.725 0,-0.139 0.104,-0.489 0.231,-0.778 0.312,-0.71 0.863,-3.012 1.182,-4.942 0.23,-1.392 0.257,-4.167 0.216,-23 L 97.083,0.583 91.452,0.539 C 87.758,0.511 85.707,0.556 85.493,0.67 85.172,0.842 85.167,1.149 85.165,19.964 85.163,42.352 85.069,44.385 83.903,47.279 81.977,52.06 79.393,53.97 74.636,54.127 68.771,54.32 65.396,51.522 63.832,45.167 63.163,42.447 63.166,42.581 63.167,21.325 63.167,5.661 63.12,0.853 62.967,0.7 62.766,0.5 52.025,0.415 51.542,0.61 m 312.691,0.052 c -0.245,0.099 -0.401,0.384 -0.521,0.948 -0.207,0.97 -0.633,2.665 -0.956,3.807 -0.13,0.458 -0.363,1.32 -0.518,1.916 -0.335,1.288 -0.636,2.417 -0.977,3.667 -0.331,1.211 -0.718,2.703 -0.995,3.833 -0.124,0.505 -0.393,1.517 -0.597,2.25 -0.205,0.734 -0.431,1.634 -0.503,2 -0.072,0.367 -0.207,0.892 -0.301,1.167 -0.094,0.275 -0.255,0.837 -0.358,1.25 -0.102,0.412 -0.289,1.162 -0.414,1.667 -0.125,0.504 -0.393,1.516 -0.594,2.25 -0.202,0.733 -0.433,1.657 -0.513,2.052 -0.081,0.396 -0.197,0.802 -0.259,0.902 -0.062,0.1 -0.208,0.601 -0.324,1.114 -0.117,0.512 -0.374,1.532 -0.572,2.265 -0.717,2.649 -0.852,3.18 -1.021,3.996 -0.095,0.457 -0.243,0.962 -0.329,1.123 -0.086,0.161 -0.222,0.613 -0.301,1.004 -0.079,0.391 -0.422,1.76 -0.761,3.044 -0.34,1.283 -0.689,2.633 -0.778,3 -0.088,0.366 -0.263,1.041 -0.389,1.5 -0.297,1.077 -0.821,3.044 -1.177,4.416 -0.155,0.596 -0.38,1.421 -0.5,1.834 -0.12,0.412 -0.268,1.012 -0.329,1.333 -0.106,0.562 -0.296,1.244 -0.829,2.981 -0.138,0.447 -0.25,0.926 -0.25,1.064 0,0.137 -0.106,0.615 -0.235,1.061 -0.129,0.446 -0.396,1.411 -0.593,2.144 -0.197,0.733 -0.47,1.691 -0.606,2.128 -0.367,1.173 -0.622,1.122 5.667,1.122 l 5.714,0 0.282,-0.958 c 0.154,-0.527 0.351,-1.296 0.436,-1.709 0.086,-0.412 0.308,-1.387 0.495,-2.166 0.186,-0.78 0.417,-1.86 0.514,-2.401 0.096,-0.541 0.237,-1.103 0.314,-1.25 0.077,-0.146 0.191,-0.603 0.254,-1.016 0.063,-0.413 0.215,-1.087 0.338,-1.5 0.123,-0.413 0.271,-1.087 0.33,-1.5 0.059,-0.413 0.217,-0.919 0.352,-1.125 l 0.245,-0.375 10.122,0.003 c 5.566,10e-4 10.214,0.061 10.328,0.133 0.113,0.073 0.324,0.653 0.468,1.29 0.145,0.636 0.364,1.57 0.488,2.074 0.207,0.842 0.546,2.371 1.201,5.417 0.138,0.641 0.35,1.504 0.472,1.916 0.122,0.413 0.271,1.125 0.331,1.584 0.06,0.458 0.217,1.002 0.349,1.208 l 0.241,0.375 6.455,-0.003 c 6.103,-0.002 7.332,-0.086 6.755,-0.46 -0.11,-0.071 -0.312,-0.615 -0.45,-1.208 -0.137,-0.593 -0.365,-1.529 -0.506,-2.079 -0.141,-0.55 -0.364,-1.474 -0.496,-2.054 -0.131,-0.579 -0.292,-1.179 -0.356,-1.333 -0.11,-0.264 -0.314,-1.062 -0.817,-3.196 -0.205,-0.872 -0.349,-1.431 -0.783,-3.042 -0.105,-0.39 -0.287,-1.121 -0.405,-1.625 -0.117,-0.504 -0.377,-1.517 -0.576,-2.25 -0.2,-0.733 -0.429,-1.657 -0.509,-2.053 -0.081,-0.396 -0.189,-0.788 -0.241,-0.872 -0.052,-0.084 -0.21,-0.66 -0.352,-1.281 -0.427,-1.873 -0.679,-2.895 -1.057,-4.294 -0.376,-1.391 -0.708,-2.697 -1.081,-4.25 -0.438,-1.825 -0.633,-2.597 -0.842,-3.333 -0.118,-0.413 -0.264,-1.013 -0.326,-1.334 -0.062,-0.321 -0.21,-0.883 -0.329,-1.25 -0.21,-0.643 -0.381,-1.303 -0.844,-3.25 -0.49,-2.055 -0.588,-2.455 -0.816,-3.333 -0.132,-0.504 -0.366,-1.404 -0.521,-2 -0.155,-0.596 -0.413,-1.571 -0.573,-2.167 -0.373,-1.385 -0.677,-2.594 -0.839,-3.333 -0.141,-0.647 -0.557,-2.303 -0.899,-3.583 -0.293,-1.098 -0.56,-2.127 -0.843,-3.25 -0.127,-0.505 -0.355,-1.404 -0.506,-2 -0.152,-0.596 -0.386,-1.569 -0.522,-2.163 -0.135,-0.593 -0.337,-1.268 -0.448,-1.5 l -0.201,-0.421 -9.582,-0.031 c -5.269,-0.018 -9.738,0.032 -9.931,0.11 M 108.444,0.778 c -0.061,0.061 -0.111,13.672 -0.111,30.246 l 0,30.135 0.375,0.24 c 0.363,0.232 1.905,0.77 3.792,1.325 0.504,0.148 1.292,0.379 1.75,0.514 0.458,0.134 1.208,0.296 1.667,0.359 0.458,0.063 0.999,0.177 1.202,0.253 0.204,0.076 1.179,0.219 2.167,0.319 0.989,0.1 1.822,0.253 1.853,0.34 0.071,0.2 11.478,0.214 11.555,0.013 0.031,-0.079 0.693,-0.26 1.473,-0.402 2.303,-0.419 3.811,-0.828 5.083,-1.377 7.988,-3.447 11.807,-8.667 12.031,-16.443 0.213,-7.408 -3.697,-12.498 -11.287,-14.694 -1.221,-0.354 -1.725,-0.701 -1.244,-0.857 11.219,-3.646 12.771,-20.58 2.442,-26.643 -1.819,-1.068 -2.254,-1.27 -3.912,-1.826 -4.503,-1.507 -5.672,-1.611 -18.294,-1.612 -5.737,-0.001 -10.48,0.049 -10.542,0.11 m 50.305,0.43 c -0.049,0.207 -0.07,14.288 -0.045,31.292 l 0.046,30.917 5.833,0 5.834,0 0.083,-10.75 0.083,-10.75 5.417,-0.095 c 2.979,-0.052 5.529,-0.146 5.667,-0.208 0.137,-0.063 0.812,-0.22 1.5,-0.351 7.49,-1.42 13.257,-5.9 15.785,-12.263 2.243,-5.644 2.108,-13.262 -0.31,-17.5 -0.079,-0.138 -0.219,-0.426 -0.311,-0.642 C 197.006,7.778 192.523,4.166 188,2.534 183.686,0.977 182.282,0.849 169.378,0.841 L 158.84,0.833 158.749,1.208 m 48.618,-0.175 c -0.315,0.315 -0.289,62.186 0.026,62.447 0.165,0.138 5.189,0.177 18.708,0.146 l 18.482,-0.043 0,-5 0,-5 -12.705,-0.042 -12.706,-0.043 -0.09,-0.374 c -0.05,-0.206 -0.07,-3.824 -0.045,-8.041 l 0.046,-7.666 9.334,-0.084 9.333,-0.083 0.12,-1.417 c 0.066,-0.779 0.2,-2.279 0.297,-3.333 0.343,-3.695 0.428,-5.417 0.278,-5.624 -0.116,-0.16 -2.337,-0.216 -9.756,-0.25 l -9.606,-0.043 0,-7.666 0,-7.667 12.75,-0.083 12.75,-0.084 0.047,-4.75 c 0.026,-2.612 0.006,-4.918 -0.045,-5.125 l -0.091,-0.375 -18.464,0 c -14.138,0 -18.51,0.047 -18.663,0.2 m -77.718,9.953 c 2.75,0.657 4.11,1.598 5.198,3.597 0.387,0.711 0.863,3.481 0.741,4.31 -0.355,2.402 -0.529,3.137 -0.969,4.083 -0.66,1.417 -2.369,3.185 -3.086,3.192 -0.064,0 -0.33,0.112 -0.592,0.249 -0.89,0.464 -3.671,0.75 -7.304,0.75 l -3.47,0 0,-8.25 0,-8.25 4.072,0 c 3.437,0 4.282,0.05 5.41,0.319 m 50.229,0.438 c 5.137,1.274 7.471,3.659 7.931,8.109 0.578,5.583 -1.802,10.127 -6.181,11.802 -2.173,0.831 -9.258,1.384 -10.7,0.836 l -0.428,-0.163 0,-10.309 c 0,-5.671 0.05,-10.36 0.111,-10.421 0.245,-0.246 8.193,-0.12 9.267,0.146 m 195.028,0.494 c 0.153,0.322 0.379,1.091 0.502,1.709 0.336,1.68 0.594,2.851 0.856,3.884 0.13,0.51 0.236,1.083 0.236,1.272 0,0.19 0.109,0.71 0.241,1.156 0.133,0.446 0.4,1.561 0.593,2.478 0.416,1.968 0.709,3.318 1.142,5.25 0.175,0.779 0.446,2.016 0.603,2.75 0.157,0.733 0.364,1.633 0.46,2 0.096,0.366 0.272,1.154 0.391,1.75 0.357,1.788 0.714,3.381 0.897,3.999 0.095,0.32 0.173,0.751 0.173,0.958 l 0,0.376 -8.073,0 c -4.441,0 -8.106,-0.056 -8.144,-0.125 -0.068,-0.121 0.056,-0.735 0.612,-3.042 0.29,-1.201 0.897,-3.763 1.105,-4.666 0.074,-0.321 0.296,-1.259 0.493,-2.084 0.462,-1.937 0.779,-3.294 1.012,-4.333 0.103,-0.458 0.289,-1.246 0.413,-1.75 0.125,-0.504 0.387,-1.592 0.582,-2.417 0.334,-1.413 0.519,-2.179 1.004,-4.166 0.112,-0.459 0.275,-1.209 0.361,-1.667 0.087,-0.458 0.265,-1.155 0.396,-1.547 0.132,-0.393 0.239,-0.934 0.239,-1.202 0,-0.888 0.523,-1.168 2.179,-1.168 l 1.45,0 0.277,0.585 M 129.833,36.33 c 5.612,0.552 8.296,2.799 8.822,7.388 0.302,2.631 -0.408,5.836 -1.562,7.05 -0.097,0.102 -0.37,0.402 -0.608,0.667 -1.847,2.063 -4.261,3.044 -7.818,3.179 -2.986,0.113 -5.356,-0.266 -8.125,-1.3 l -0.375,-0.14 0,-8.393 c 0,-4.616 0.05,-8.442 0.111,-8.503 0.157,-0.158 7.852,-0.116 9.555,0.052"
       inkscape:connector-curvature="0"
       style="fill:#1164ae;fill-rule:evenodd;stroke:none" />
  </g>
</svg>
