<?xml version="1.0" encoding="UTF-8" standalone="no"?>
<svg
   xmlns:dc="http://purl.org/dc/elements/1.1/"
   xmlns:cc="http://creativecommons.org/ns#"
   xmlns:rdf="http://www.w3.org/1999/02/22-rdf-syntax-ns#"
   xmlns:svg="http://www.w3.org/2000/svg"
   xmlns="http://www.w3.org/2000/svg"
   xmlns:sodipodi="http://sodipodi.sourceforge.net/DTD/sodipodi-0.dtd"
   xmlns:inkscape="http://www.inkscape.org/namespaces/inkscape"
   id="svg"
   version="1.1"
   width="311.62698"
   height="375.33533"
   style="display:block"
   sodipodi:docname="image2vector.svg"
   inkscape:version="0.92.1 r15371">
  <metadata
     id="metadata10">
    <rdf:RDF>
      <cc:Work
         rdf:about="">
        <dc:format>image/svg+xml</dc:format>
        <dc:type
           rdf:resource="http://purl.org/dc/dcmitype/StillImage" />
        <dc:title></dc:title>
      </cc:Work>
    </rdf:RDF>
  </metadata>
  <defs
     id="defs8" />
  <sodipodi:namedview
     pagecolor="#ffffff"
     bordercolor="#666666"
     borderopacity="1"
     objecttolerance="10"
     gridtolerance="10"
     guidetolerance="10"
     inkscape:pageopacity="0"
     inkscape:pageshadow="2"
     inkscape:window-width="1366"
     inkscape:window-height="745"
     id="namedview6"
     showgrid="false"
     fit-margin-top="0"
     fit-margin-left="0"
     fit-margin-right="0"
     fit-margin-bottom="0"
     inkscape:zoom="2.8284271"
     inkscape:cx="29.670011"
     inkscape:cy="313.66951"
     inkscape:window-x="1358"
     inkscape:window-y="393"
     inkscape:window-maximized="1"
     inkscape:current-layer="svg" />
  <g
     id="svgg"
     transform="translate(-43.929023,-29.798)">
    <path
       id="path0"
       d="m 43.939,187.468 c 0,177.363 -0.412,160.167 4.059,169.35 7.424,15.247 23.117,27.439 41.396,32.159 4.228,1.091 5.008,1.113 51.515,1.394 l 47.222,0.286 2.047,1.095 c 3.439,1.841 5.21,4.068 6.352,7.987 2.071,7.106 1.662,7.015 3.474,0.766 1.354,-4.668 2.635,-6.415 6.122,-8.346 l 2.712,-1.502 48.738,-0.292 c 43.557,-0.261 49.125,-0.384 52.389,-1.156 21.82,-5.158 40.909,-23.066 44.832,-42.058 0.665,-3.223 0.759,-22.941 0.759,-160.514 V 29.798 H 199.747 43.939 v 157.67 m 307.455,2.305 -0.131,155.934 -1.187,3.535 c -5.363,15.975 -20.108,29.632 -37.955,35.154 l -3.788,1.172 -49.242,0.272 c -56.598,0.312 -54.38,0.089 -59.429,5.978 l -1.096,1.278 -2.59,-2.329 c -1.425,-1.281 -3.886,-2.852 -5.47,-3.492 l -2.88,-1.164 -47.727,-0.27 C 86.544,385.54 90.531,385.814 81.173,381.801 66.697,375.593 54.793,363.747 49.669,350.447 L 48.232,346.717 48.101,190.278 47.97,33.838 h 151.777 151.778 l -0.131,155.935 M 155.806,44.199 c -0.184,0.829 -0.543,2.17 -0.8,2.979 -0.554,1.751 -0.075,2.466 0.735,1.099 1.138,-1.921 2.369,-2.822 3.855,-2.822 h 1.515 v 9.643 c 0,9.218 -0.044,9.655 -1.01,9.907 -2.089,0.547 -0.885,0.918 2.652,0.818 4.354,-0.123 4.542,-0.163 2.904,-0.618 l -1.263,-0.351 -0.137,-9.7 -0.137,-9.699 h 1.484 c 2.309,0 2.984,0.449 3.669,2.443 l 0.634,1.849 0.363,-2.272 c 0.667,-4.185 0.585,-4.836 -0.487,-3.866 -1.398,1.265 -12.441,1.231 -13.153,-0.041 -0.421,-0.753 -0.538,-0.664 -0.824,0.631 m 110.973,1.887 c -0.489,2.466 -0.301,4.079 0.284,2.428 0.542,-1.533 2.607,-3.059 4.137,-3.059 h 1.549 l -0.137,9.699 -0.137,9.7 -1.263,0.351 c -1.645,0.457 -1.223,0.531 3.03,0.531 4.254,0 4.676,-0.074 3.031,-0.531 l -1.263,-0.351 -0.137,-9.7 -0.137,-9.699 h 1.7 c 1.811,0 3.372,1.246 3.372,2.691 0,0.464 0.227,0.844 0.505,0.844 0.278,0 0.505,-1.296 0.505,-2.879 0,-2.239 -0.134,-2.744 -0.606,-2.273 -0.757,0.757 -12.316,0.849 -12.778,0.101 -0.652,-1.056 -1.146,-0.415 -1.655,2.147 m -90.033,-2.121 c -0.28,2.983 -6.506,20.523 -7.428,20.927 -1.837,0.807 -1.33,1.101 1.894,1.101 3.04,0 3.968,-0.478 1.951,-1.006 -0.95,-0.248 -1.04,-0.525 -0.756,-2.302 0.664,-4.155 1.034,-4.604 3.796,-4.604 h 2.49 l 0.805,2.363 c 1.119,3.283 1.057,4.708 -0.205,4.708 -0.556,0 -1.01,0.17 -1.01,0.378 0,0.209 1.704,0.379 3.788,0.379 4.307,0 4.186,0.066 2.579,-1.413 -0.875,-0.805 -2.011,-3.691 -4.119,-10.456 -2.462,-7.903 -3.683,-11.155 -3.785,-10.075 m 13.406,0.452 c -4.822,1.973 -4.072,8.892 1.262,11.644 4.214,2.173 5.754,6.481 3.089,8.639 -2.644,2.142 -5.665,0.657 -6.923,-3.403 l -0.605,-1.954 -0.053,2.843 c -0.068,3.612 0.604,4.228 4.609,4.228 7.125,0 9.195,-9.125 2.921,-12.879 -4.053,-2.425 -5.058,-3.488 -5.058,-5.348 0,-4.412 4.505,-4.988 6.418,-0.82 l 0.861,1.875 0.185,-2 c 0.275,-2.963 -2.999,-4.343 -6.706,-2.825 m 24.061,0.58 c -9.824,5.009 -6.578,21.67 4.221,21.67 4.155,0 6.135,-1.86 5.713,-5.369 l -0.174,-1.45 -1.121,2.114 c -4.001,7.541 -10.99,3.302 -10.978,-6.659 0.012,-9.455 6.366,-14.169 10.633,-7.889 l 1.23,1.81 v -2.107 c 0,-2.546 -0.266,-2.736 -4.219,-3.02 -2.506,-0.179 -3.528,-0.006 -5.305,0.9 m 18.991,-0.75 c -0.191,0.308 -0.901,2.353 -1.577,4.545 -4.833,15.658 -4.947,15.972 -5.913,16.225 -1.847,0.483 -0.949,0.909 2.064,0.978 2.907,0.067 4.252,-0.598 1.894,-0.936 -1.27,-0.182 -1.329,-1.079 -0.32,-4.832 l 0.577,-2.146 h 2.646 2.645 l 0.825,2.937 c 1.054,3.757 1.037,4.134 -0.186,4.134 -0.556,0 -1.011,0.17 -1.011,0.378 0,0.209 3.41,0.379 7.576,0.379 7.685,0 8.473,-0.124 6.44,-1.017 -1.028,-0.451 -1.151,-0.898 -1.284,-4.699 l -0.147,-4.201 2.236,0.336 c 3.735,0.56 5.887,-1.568 5.887,-5.823 0,-4.675 -2.038,-6.061 -8.914,-6.061 -3.844,0 -5.832,0.711 -3.081,1.102 1.124,0.159 1.137,0.259 1.274,9.186 0.15,9.785 0,10.42 -2.455,10.42 -1.872,0 -2.023,-0.311 -5.742,-11.869 -1.698,-5.278 -3.244,-9.344 -3.434,-9.036 M 81.818,45.062 c 0,0.216 0.43,0.393 0.956,0.393 1.428,0 1.569,0.871 1.569,9.67 0,8.062 -0.349,10.027 -1.785,10.027 -0.407,0 -0.738,0.17 -0.737,0.378 0.002,0.209 2.843,0.412 6.313,0.451 5.725,0.066 6.31,-0.01 6.31,-0.82 0,-0.492 0.146,-1.66 0.324,-2.598 l 0.323,-1.704 -2.014,2.146 c -4.752,5.067 -6.208,3.089 -6.208,-8.439 v -8.631 l 1.262,-0.48 c 1.869,-0.711 1.627,-0.786 -2.525,-0.786 -2.083,0 -3.788,0.177 -3.788,0.393 M 95.96,45.027 c 0,0.196 0.511,0.43 1.136,0.519 2.107,0.299 1.974,19.606 -0.136,19.606 -0.55,0 -1,0.17 -1,0.378 0,0.209 1.704,0.379 3.787,0.379 3.99,0 4.513,-0.2 2.652,-1.017 -1.111,-0.487 -1.139,-0.703 -1.274,-9.723 l -0.138,-9.226 1.274,-0.484 c 1.881,-0.715 1.643,-0.79 -2.514,-0.79 -2.083,0 -3.787,0.161 -3.787,0.358 m 10.227,-0.062 c -0.625,0.251 -1.136,0.575 -1.136,0.72 0,0.144 0.511,0.209 1.136,0.142 l 1.136,-0.12 0.138,9.514 c 0.133,9.183 0.102,9.523 -0.884,9.781 -2.22,0.581 -0.77,0.913 4.544,1.042 4.22,0.102 5.925,-0.053 7.061,-0.64 3.81,-1.97 4.094,-8.097 0.477,-10.296 -1.5,-0.913 -1.526,-0.984 -0.598,-1.642 2.3,-1.631 2.696,-5.425 0.742,-7.113 -2.037,-1.761 -9.614,-2.594 -12.616,-1.388 m 17.55,-0.089 c 0,0.253 0.46,0.581 1.022,0.728 1.675,0.438 1.309,18.543 -0.39,19.288 -1.995,0.876 -1.277,1.015 5.684,1.105 6.799,0.087 6.816,0.084 6.816,-1.074 0,-0.638 0.122,-1.927 0.273,-2.865 0.244,-1.526 0.204,-1.601 -0.379,-0.714 -4.207,6.394 -8.654,5.262 -8.375,-2.133 l 0.147,-3.908 h 2.273 c 2.093,0 2.343,0.14 3.156,1.768 l 0.883,1.767 0.008,-2.525 c 0.004,-1.389 0.144,-3.036 0.312,-3.661 0.183,-0.682 0.079,-1.137 -0.26,-1.137 -0.31,0 -0.564,0.333 -0.564,0.74 0,1.091 -1.803,1.865 -3.935,1.688 l -1.873,-0.155 -0.154,-3.009 c -0.233,-4.526 0.09,-5.324 2.151,-5.324 2.496,0 4.245,0.806 4.909,2.262 0.881,1.934 1.504,1.524 1.33,-0.874 l -0.155,-2.146 -6.439,-0.141 c -3.652,-0.081 -6.44,0.058 -6.44,0.32 m 15.657,0.038 c 0,0.259 0.511,0.543 1.136,0.632 1.132,0.16 1.137,0.2 1.137,9.505 0,9.205 -0.017,9.35 -1.137,9.841 -1.86,0.817 -1.338,1.017 2.652,1.017 3.989,0 4.512,-0.2 2.651,-1.017 -1.683,-0.738 -1.76,-8.995 -0.086,-9.234 1.061,-0.152 1.665,0.958 4.505,8.273 0.77,1.985 0.885,2.062 3.052,2.062 2.174,0 3.099,-0.596 1.443,-0.931 -0.471,-0.095 -1.602,-2.015 -2.708,-4.597 -1.045,-2.439 -2.045,-4.579 -2.222,-4.756 -0.582,-0.582 -0.338,-1.041 0.695,-1.312 3.25,-0.85 3.067,-7.84 -0.245,-9.349 -1.554,-0.708 -10.873,-0.822 -10.873,-0.134 m 117.999,0.148 c 0.133,0.216 0.684,0.393 1.223,0.393 0.936,0 0.98,0.433 0.98,9.586 v 9.586 l -1.286,0.323 c -2.056,0.516 -1.028,0.85 2.791,0.906 3.459,0.052 4.566,-0.32 2.535,-0.851 -0.965,-0.252 -1.01,-0.689 -1.01,-9.907 0,-9.307 0.036,-9.643 1.01,-9.643 0.556,0 1.01,-0.177 1.01,-0.393 0,-0.216 -1.686,-0.393 -3.748,-0.393 -2.061,0 -3.639,0.177 -3.505,0.393 m 25.94,0 c 0,0.216 0.455,0.393 1.01,0.393 0.967,0 1.012,0.346 1.039,7.954 0.04,11.099 1.126,13.255 6.68,13.257 5.748,0.002 6.602,-1.53 6.842,-12.279 l 0.189,-8.492 1.337,-0.575 1.338,-0.576 -1.642,-0.182 c -2.652,-0.293 -5.227,0.131 -3.782,0.624 2.161,0.737 2.434,16.871 0.321,18.981 -1.712,1.71 -4.762,1.861 -6.549,0.326 l -1.48,-1.272 v -8.757 c 0,-8.697 0.008,-8.758 1.137,-8.918 2.496,-0.355 0.917,-0.877 -2.652,-0.877 -2.083,0 -3.788,0.177 -3.788,0.393 m 19.192,-0.192 c 0,0.283 0.512,0.587 1.137,0.676 1.126,0.16 1.137,0.243 1.273,9.618 l 0.138,9.458 -1.298,0.325 c -2.066,0.519 -1.046,0.853 2.78,0.909 3.46,0.052 4.567,-0.32 2.536,-0.851 -1.63,-0.426 -1.547,-9.599 0.085,-9.358 0.866,0.127 1.529,1.215 3.157,5.175 l 2.061,5.015 2.456,0.1 2.456,0.101 -1.282,-1.075 c -0.706,-0.591 -1.984,-2.779 -2.841,-4.862 -0.857,-2.083 -1.766,-4.116 -2.021,-4.517 -0.335,-0.526 -0.161,-0.88 0.627,-1.272 2.548,-1.271 3.19,-5.83 1.155,-8.198 -1.289,-1.5 -12.419,-2.615 -12.419,-1.244 m -187.381,1.086 c 3.802,2.034 1.522,8.084 -3.047,8.084 h -1.491 v -3.956 c 0,-2.176 0.152,-4.108 0.337,-4.293 0.507,-0.507 3.139,-0.404 4.201,0.165 m 33.809,0.829 c 2.318,2.947 0.564,7.977 -2.673,7.662 l -1.583,-0.154 -0.15,-3.741 c -0.218,-5.439 1.76,-7.13 4.406,-3.767 m 102.575,0.058 c 2.656,3.365 -0.397,10.781 -3.26,7.919 -0.814,-0.815 -1.192,-8.235 -0.457,-8.971 0.786,-0.785 2.693,-0.245 3.717,1.052 m 60.593,-0.378 c 2.517,2.517 0.779,8.08 -2.525,8.08 h -1.515 v -4.208 c 0,-2.315 0.151,-4.361 0.337,-4.546 0.679,-0.68 2.721,-0.309 3.703,0.674 m -134.773,6.926 c 1.04,3.364 0.923,3.68 -1.368,3.68 -2.041,0 -2.141,-0.478 -0.946,-4.504 0.919,-3.094 1.124,-3.021 2.314,0.824 m 56.171,-0.454 c 1.12,3.991 1.088,4.134 -0.913,4.134 -2.278,0 -2.349,-0.201 -1.38,-3.914 1.015,-3.893 1.256,-3.916 2.293,-0.22 m -117.212,3.13 c 3.488,2.743 1.439,9.085 -2.935,9.085 -2.407,0 -2.766,-0.734 -2.766,-5.657 v -4.444 h 2.205 c 1.444,0 2.65,0.35 3.496,1.016 M 90.422,194.823 c 0.014,98.204 0.141,120.768 0.695,123.877 2.381,13.341 12.53,24.227 25.595,27.454 4.67,1.154 161.734,1.253 165.864,0.105 10.732,-2.983 18.22,-8.921 22.666,-17.976 4.15,-8.451 3.83,2.593 3.84,-132.702 L 309.091,74.747 H 199.747 90.404 l 0.018,120.076 m 216.144,-54.166 c 0,34.861 -0.151,63.383 -0.336,63.383 -0.184,0 -3.877,-0.782 -8.207,-1.738 -8.742,-1.93 -16.145,-3.06 -24.633,-3.758 -6.7,-0.552 -6.364,-0.386 -8.214,-4.05 -2.578,-5.109 -3.811,-12.581 -2.736,-16.59 0.323,-1.206 1.976,-1.575 2.328,-0.519 0.134,0.402 1.37,0.623 3.535,0.632 1.831,0.007 3.5,0.184 3.708,0.392 0.753,0.752 1.761,0.353 2.231,-0.884 0.496,-1.304 0.812,-1.432 3.147,-1.279 2.276,0.15 3.397,-0.468 4.159,-2.293 0.398,-0.952 1.083,-1.731 1.523,-1.731 0.439,0 0.937,-0.358 1.105,-0.796 0.168,-0.438 0.842,-1.001 1.499,-1.25 0.952,-0.362 1.194,-0.825 1.194,-2.288 0,-1.275 0.461,-2.416 1.515,-3.747 1.699,-2.145 1.875,-3.112 0.738,-4.056 -0.569,-0.472 -0.699,-1.197 -0.486,-2.713 0.257,-1.83 0.084,-2.325 -1.496,-4.287 -0.983,-1.219 -1.786,-2.511 -1.786,-2.869 0,-1.079 -2.902,-2.85 -4.065,-2.481 -1.357,0.431 -2.467,-0.533 -2.125,-1.843 0.189,-0.72 -0.146,-1.399 -1.088,-2.208 -1.465,-1.26 -1.073,-3.588 0.946,-5.606 1.262,-1.262 0.993,-3.657 -0.487,-4.332 -1.277,-0.582 -1.765,-2.568 -0.779,-3.177 0.782,-0.484 0.027,-1.709 -1.157,-1.878 -0.862,-0.123 -1.1,-0.509 -1.123,-1.824 -0.02,-1.186 -0.389,-1.916 -1.276,-2.525 -0.686,-0.472 -2.193,-1.801 -3.35,-2.954 l -2.104,-2.098 0.066,-5.499 c 0.069,-5.804 -0.146,-6.72 -1.575,-6.72 -1.231,0 -3.307,-2.974 -3.33,-4.769 -0.025,-2.073 -2.776,-3.764 -4.566,-2.806 -0.992,0.531 -1.545,0.5 -3.258,-0.186 -1.135,-0.454 -2.712,-0.825 -3.506,-0.825 -0.794,0 -1.726,-0.341 -2.072,-0.758 -0.984,-1.186 -2.524,-0.955 -2.533,0.379 -0.015,2.204 -0.728,2.701 -2.801,1.952 -2.382,-0.862 -4.486,0.679 -3.37,2.466 1.063,1.701 0.705,2.905 -1.649,5.557 -2.633,2.964 -2.584,2.727 -1.233,5.877 0.96,2.24 0.975,2.473 0.204,3.037 -0.61,0.446 -0.745,1.019 -0.503,2.123 0.284,1.291 0.106,1.679 -1.215,2.656 -0.85,0.629 -1.546,1.549 -1.546,2.045 0,0.497 -0.656,1.241 -1.456,1.655 -0.801,0.415 -1.601,1.329 -1.778,2.034 -0.255,1.015 -0.635,1.28 -1.842,1.28 -1.732,0 -2.329,0.957 -1.53,2.451 0.425,0.795 0.355,1.202 -0.326,1.883 -1.505,1.505 -2.21,3.373 -2.4,6.357 -0.103,1.629 -0.747,4.172 -1.474,5.823 -0.709,1.612 -1.238,3.383 -1.176,3.936 0.089,0.793 -0.26,1.06 -1.655,1.265 -1.69,0.249 -1.761,0.343 -1.621,2.137 0.128,1.643 -0.013,1.916 -1.137,2.198 -1.141,0.287 -1.283,0.58 -1.29,2.666 -0.004,1.29 -0.188,2.629 -0.408,2.976 -1.314,2.068 1.274,10.732 3.205,10.732 0.319,0 1.187,0.682 1.929,1.515 0.852,0.956 1.84,1.515 2.676,1.515 1.488,0 4.546,1.718 5.82,3.269 1.061,1.292 5.796,1.338 7.724,0.075 3.918,-2.568 2.924,9.855 -1.411,17.616 -1.939,3.472 -0.02,2.86 -15.756,5.032 -7.727,1.066 -13.211,2.034 -20.564,3.631 L 200,204.167 V 140.72 77.273 h 53.283 53.283 v 63.384 m -109.091,0.307 v 63.186 l -1.389,-0.354 c -0.764,-0.195 -3.662,-0.796 -6.44,-1.335 -6.347,-1.234 -8.837,-1.896 -8.843,-2.354 -0.003,-0.198 -0.911,-7.405 -2.019,-16.016 -3.842,-29.859 -3.794,-29.374 -3.032,-30.798 0.606,-1.132 0.581,-1.362 -0.204,-1.937 -1.115,-0.815 -3.948,-22.197 -3.722,-28.089 l 0.144,-3.754 -2.526,-0.656 c -4.334,-1.126 -5.63,-0.933 -5.995,0.895 -0.233,1.164 -0.521,1.49 -1.115,1.262 -0.44,-0.169 -1.464,-0.307 -2.274,-0.307 -1.343,0 -1.474,-0.154 -1.474,-1.738 0,-2.203 -0.036,-2.222 -5.243,-2.622 l -4.353,-0.334 v 1.295 c 0,3.688 -5.067,4.546 -5.901,1 -0.436,-1.852 -0.502,-1.897 -3.01,-2.044 l -2.565,-0.15 -0.312,-5.911 c -0.931,-17.651 -0.987,-22.294 -0.281,-23.145 0.621,-0.748 0.578,-0.802 -0.393,-0.494 -1.426,0.453 -1.915,-0.397 -0.845,-1.468 0.789,-0.789 0.765,-0.833 -0.374,-0.672 -1.031,0.146 -1.189,0.405 -1.029,1.687 0.105,0.833 0.282,8.049 0.394,16.035 l 0.204,14.521 h -1.459 c -1.406,0 -1.476,0.116 -1.909,3.156 -0.615,4.317 -2.915,5.08 -3.502,1.162 -0.288,-1.916 -0.564,-2.363 -1.63,-2.63 -1.171,-0.294 -7.016,0.498 -7.539,1.022 -0.213,0.213 -2.227,18.096 -2.952,26.212 -0.235,2.626 -0.659,4.314 -1.283,5.108 -0.77,0.979 -0.837,1.439 -0.384,2.643 0.417,1.107 0.292,3.95 -0.518,11.812 -2.882,27.979 -3.634,35.047 -3.739,35.122 -0.063,0.045 -3.296,0.8 -7.185,1.678 -3.889,0.878 -7.582,1.733 -8.207,1.901 l -1.137,0.305 v -63.19 -63.19 h 52.021 52.02 v 63.186 m 62.914,-37.507 c -0.323,1.571 1.871,4.587 3.509,4.824 1.151,0.166 1.804,4.235 1.363,8.495 -0.228,2.211 0.574,5.446 1.352,5.446 1.071,0 5.104,4.516 5.104,5.715 0,0.967 0.414,1.544 1.515,2.114 1.56,0.806 1.894,1.474 1.01,2.02 -0.922,0.57 -0.522,2.145 0.758,2.984 1.407,0.921 1.762,3.489 0.579,4.188 -1.949,1.15 -2.506,5.315 -0.832,6.212 0.675,0.361 1.011,1.057 1.011,2.096 0,1.409 0.126,1.533 1.33,1.302 1.713,-0.327 4.73,1.406 4.73,2.717 0,0.531 0.473,1.361 1.05,1.844 2.017,1.689 3.12,4.667 1.728,4.667 -1.006,0 -0.959,1.564 0.114,3.813 0.807,1.693 0.81,1.862 0.038,2.294 -0.459,0.256 -1.089,1.239 -1.4,2.183 -0.889,2.692 -5.289,6.539 -7.071,6.182 -1.059,-0.211 -1.797,0.034 -2.867,0.954 -1.588,1.366 -1.987,1.486 -2.45,0.735 -0.172,-0.277 -0.867,-0.505 -1.545,-0.505 -0.678,0 -1.233,-0.259 -1.233,-0.575 0,-0.396 -0.809,-0.48 -2.589,-0.269 -1.424,0.169 -2.996,0.089 -3.493,-0.177 -0.667,-0.357 -1.468,-0.163 -3.06,0.741 -1.602,0.91 -2.392,1.1 -3.069,0.738 -0.644,-0.345 -1.376,-0.248 -2.5,0.333 -1.218,0.63 -1.837,0.694 -2.656,0.277 -0.587,-0.3 -2.429,-0.606 -4.094,-0.68 l -3.027,-0.135 -0.003,-1.978 c -0.002,-1.088 -0.275,-2.069 -0.607,-2.179 -0.332,-0.111 -1.442,-0.868 -2.468,-1.684 -1.039,-0.825 -2.479,-1.482 -3.25,-1.482 -2.058,0 -2.845,-1.193 -1.82,-2.758 1.123,-1.713 1.031,-2.586 -0.481,-4.568 l -1.298,-1.702 1.551,-0.802 c 1.654,-0.856 2.017,-2.866 1.227,-6.812 -0.322,-1.613 -0.327,-1.615 -2.777,-1.278 l -2.455,0.338 v -1.72 c 0,-1.326 0.348,-1.977 1.515,-2.841 1.233,-0.911 1.515,-1.487 1.515,-3.088 0,-1.895 0.104,-2.015 2.778,-3.24 2.921,-1.337 3.26,-1.814 2.02,-2.842 -1.077,-0.895 -0.939,-3.714 0.251,-5.121 l 1.009,-1.193 1.24,1.389 c 0.844,0.946 1.736,1.389 2.795,1.389 1.89,0 2.493,-1.175 1.287,-2.508 -1.074,-1.186 -0.652,-2.773 1.032,-3.876 1.552,-1.017 1.543,-1.726 -0.038,-3.212 -1.537,-1.443 -1.583,-2.082 -0.214,-2.937 1.136,-0.709 0.566,-2.113 -0.858,-2.113 -1.115,0 -0.891,-4.478 0.328,-6.574 0.564,-0.968 1.158,-2.157 1.322,-2.643 0.164,-0.487 0.577,-0.884 0.92,-0.884 0.342,0 1.028,-0.901 1.524,-2.002 0.769,-1.706 1.041,-1.927 1.844,-1.497 0.632,0.338 1.264,0.332 1.919,-0.019 0.675,-0.361 1.407,-0.36 2.365,0.005 1.204,0.458 1.545,0.357 2.588,-0.769 1.418,-1.529 2.322,-1.217 1.934,0.668 m -117.884,16.492 c 0.094,1.112 -0.056,2.134 -0.333,2.273 -0.298,0.149 -0.569,-0.887 -0.661,-2.525 -0.179,-3.214 0.719,-2.986 0.994,0.252 m -3.56,-0.451 c 0.803,0.769 1.459,1.797 1.459,2.284 0,1.386 0.976,1.678 5.051,1.511 4.466,-0.183 4.18,0.006 4.524,-2.986 l 0.274,-2.378 3.163,0.05 c 3.806,0.059 3.768,0.027 4.047,3.401 l 0.224,2.691 3.48,0.481 3.479,0.481 v -1.342 c 0,-3.822 0.406,-4.382 2.779,-3.839 2.462,0.564 2.401,0.389 3.08,8.836 l 0.337,4.193 -1.33,-0.333 -1.33,-0.334 v 4.001 4.002 l 1.767,0.843 c 1.286,0.613 1.768,1.169 1.768,2.04 0,0.658 0.142,2.55 0.315,4.204 l 0.314,3.007 -5.239,-0.73 c -5.95,-0.831 -32.253,-1.111 -40.597,-0.433 l -5.056,0.411 -0.808,-2.179 c -0.836,-2.255 -0.775,-12.532 0.075,-12.532 0.568,0 0.996,1.384 0.996,3.22 0,1.543 3.298,3.416 4.282,2.431 0.444,-0.444 0.292,-8.176 -0.161,-8.176 -0.234,0 -1.517,0.329 -2.853,0.731 l -2.427,0.73 0.306,-5.029 c 0.182,-2.984 0.639,-5.731 1.124,-6.752 1.26,-2.655 3.265,-2.992 3.265,-0.55 0,2.371 0.467,2.789 3.117,2.789 3.373,0 4.457,-0.647 4.465,-2.669 0.019,-4.349 2.764,-5.281 6.11,-2.075 m -11.708,2.85 c 0.02,0.764 -0.167,1.389 -0.414,1.389 -0.516,0 -1.061,-3.548 -0.655,-4.259 0.362,-0.634 1.025,1.146 1.069,2.87 m 14.682,9.408 c 0,0.244 0.341,0.726 0.758,1.072 0.501,0.417 0.757,1.547 0.757,3.345 v 2.716 h 2.753 c 2.091,0 2.871,0.211 3.245,0.88 0.989,1.767 1.274,0.447 1.144,-5.299 l -0.071,-3.157 h -4.293 c -2.361,0 -4.293,0.2 -4.293,0.443 m 23.411,19.789 c 2.738,0.265 5.47,0.606 6.073,0.757 1.379,0.347 6.496,44.911 5.469,47.637 -0.261,0.692 -3.964,0.584 -9.321,-0.271 l -1.894,-0.302 v -2.633 c 0,-15.884 -18.074,-17.75 -19.086,-1.971 -0.291,4.534 0.663,4.034 -8.521,4.465 l -7.657,0.36 -1.367,-1.534 c -0.959,-1.076 -1.915,-1.58 -3.202,-1.688 -1.522,-0.127 -1.864,-0.368 -2.009,-1.416 -0.227,-1.644 -0.981,-2.525 -2.16,-2.525 -1.535,0 -1.084,-1.405 0.567,-1.767 1.95,-0.429 1.926,-1.139 -0.067,-1.977 -2.775,-1.167 -3.259,-3.51 -2.878,-13.933 0.025,-0.694 -0.124,-1.774 -0.331,-2.399 -0.268,-0.806 -0.177,-1.138 0.313,-1.144 1.711,-0.019 2.253,-0.972 1.075,-1.89 -1.511,-1.176 -1.89,-10.704 -0.557,-14.011 1.124,-2.79 2.1,-3.123 11.031,-3.762 13.674,-0.979 24.404,-0.977 34.522,0.004 m 89.931,29.642 c 0.508,0.508 3.503,0.516 3.863,0.011 0.158,-0.221 0.543,1.515 0.856,3.858 0.348,2.6 1.249,5.898 2.311,8.465 l 1.741,4.206 -8.603,0.139 c -9.678,0.156 -9.193,0.254 -8.416,-1.71 0.318,-0.803 0.955,-4.414 1.417,-8.025 l 0.841,-6.565 1.88,0.123 c 1.033,0.067 1.879,-0.103 1.879,-0.379 0,-0.586 1.676,-0.678 2.231,-0.123 m 51.191,82.323 -0.139,54.924 -1.193,3.536 c -2.891,8.571 -8.797,15.456 -16.484,19.215 -6.86,3.355 -5.417,3.259 -49.096,3.259 H 200 v -67.929 -67.929 h 53.296 53.296 l -0.14,54.924 m -194.128,-46.591 1.446,3.788 3.342,0.036 c 5.395,0.057 5.544,0.328 1.854,3.363 l -3.211,2.642 0.987,3.855 c 1.216,4.745 1.277,4.692 -2.536,2.228 -3.807,-2.461 -3.374,-2.461 -7.241,-0.009 -3.631,2.301 -3.932,2.07 -2.702,-2.07 1.15,-3.873 1.074,-4.102 -2.246,-6.764 -3.593,-2.883 -3.584,-2.903 1.41,-3.257 l 3.895,-0.276 1.451,-3.662 c 1.787,-4.513 1.78,-4.513 3.551,0.126 m 35.991,0 1.408,3.788 3.295,0.036 c 5.413,0.058 5.615,0.373 2.068,3.219 -3.398,2.725 -3.386,2.687 -2.282,6.947 1.067,4.116 0.936,4.208 -2.698,1.909 -3.864,-2.445 -3.419,-2.444 -7.264,-0.013 -3.776,2.387 -3.705,2.424 -2.719,-1.383 1.181,-4.557 1.108,-4.801 -2.234,-7.507 -3.491,-2.825 -3.302,-3.115 2.069,-3.172 l 3.343,-0.036 1.446,-3.788 c 0.795,-2.083 1.606,-3.788 1.803,-3.788 0.196,0 0.99,1.705 1.765,3.788 m 34.215,0.227 1.398,3.561 2.859,0.007 c 5.588,0.013 5.746,0.261 2.212,3.484 l -3.095,2.822 0.965,3.769 c 1.178,4.601 1.251,4.524 -2.219,2.304 -4.024,-2.574 -3.938,-2.57 -7.463,-0.323 -3.748,2.39 -3.99,2.144 -2.673,-2.72 l 0.866,-3.201 -1.845,-1.62 c -1.015,-0.891 -2.419,-2.072 -3.121,-2.624 -1.701,-1.338 -1.348,-1.549 3.137,-1.874 l 3.817,-0.276 1.14,-2.778 c 0.627,-1.528 1.286,-3.19 1.464,-3.694 0.493,-1.395 1.032,-0.729 2.558,3.163 m 35.216,-2.702 c -1.802,3.955 -0.973,8.243 1.926,9.956 1.314,0.776 1.444,1.075 1.201,2.755 -0.626,4.324 -1.793,7.98 -2.798,8.76 -3.379,2.626 3.242,8.004 8.22,6.675 2.405,-0.642 2.493,-0.561 2.493,2.285 0,1.625 0.514,3.275 1.785,5.732 2.041,3.944 1.833,6.814 -0.573,7.91 -0.664,0.303 -1.32,1.157 -1.492,1.946 -0.17,0.773 -0.517,2.065 -0.772,2.87 -0.255,0.805 -0.463,1.996 -0.463,2.645 v 1.181 l 18.014,0.133 18.013,0.132 0.085,1.155 c 0.144,1.954 0.689,2.056 11.657,2.181 9.267,0.106 10.805,0.013 11.855,-0.723 0.664,-0.465 1.733,-0.845 2.377,-0.845 11.237,0 12.916,-19.971 2.543,-30.236 -4.354,-4.309 -4.928,-4.573 -9.999,-4.598 -3.238,-0.016 -5.596,-0.398 -9.596,-1.558 -2.916,-0.845 -8.371,-2.113 -12.121,-2.818 -7.894,-1.485 -18.041,-5.721 -17.345,-7.242 1.014,-2.216 0.558,-9.004 -0.589,-8.754 -0.245,0.053 -0.724,1.038 -1.063,2.187 -1.238,4.192 -4.165,5.505 -8.001,3.589 -2.41,-1.203 -4.544,-1.35 -7.364,-0.505 -3.857,1.156 -6.531,-0.375 -6.555,-3.75 -0.014,-1.993 -0.762,-2.546 -1.438,-1.063 m -138.599,0.708 c -0.25,0.956 -0.691,1.01 -8.266,1.012 -12.126,0.005 -13.804,0.909 -13.808,7.439 -0.002,2.766 0.177,3.349 1.471,4.798 l 1.472,1.65 8.502,0.138 c 9.965,0.162 10.775,0.286 10.775,1.639 0,0.55 0.174,1 0.387,1 0.213,0 0.387,-1.363 0.387,-3.03 0,-2.962 -0.544,-4.154 -0.865,-1.894 -0.188,1.323 -15.813,2.037 -18.67,0.853 -2.833,-1.173 -3.32,-6.358 -0.774,-8.252 2.735,-2.036 19.535,-1.854 19.535,0.212 0,0.55 0.17,1 0.379,1 0.208,0 0.379,-1.704 0.379,-3.788 0,-3.688 -0.37,-4.822 -0.904,-2.777 m 255.196,1.543 c 0,0.225 0.445,0.55 0.988,0.722 1.803,0.572 3.558,3.202 3.558,5.331 0,2.593 -0.87,3.01 -6.28,3.01 h -4.326 v -2.551 c 0,-2.439 0.078,-2.584 1.768,-3.29 2.542,-1.062 2.24,-1.233 -2.147,-1.21 -3.731,0.019 -3.85,0.055 -2.547,0.762 0.915,0.497 1.473,1.308 1.688,2.455 0.641,3.415 0.441,3.581 -4.325,3.581 h -4.286 l -0.16,-1.959 c -0.219,-2.67 0.663,-4.548 2.588,-5.507 l 1.613,-0.803 -2.652,-0.032 -2.651,-0.032 0.034,6.944 c 0.027,5.409 0.156,6.691 0.587,5.798 0.55,-1.143 0.587,-1.146 10.675,-1.01 l 10.124,0.136 0.314,1.263 c 0.173,0.694 0.439,-1.919 0.59,-5.808 0.152,-3.889 0.134,-7.214 -0.039,-7.388 -0.494,-0.497 -5.114,-0.87 -5.114,-0.412 m -103.38,3.831 c 0.4,0.4 -3.951,3.211 -4.97,3.211 -1.392,0 -0.76,-2.583 0.775,-3.167 1.061,-0.404 3.807,-0.433 4.195,-0.044 m 5.401,7.915 c 3.195,1.593 2.123,6.041 -1.913,7.938 -1.286,0.604 -2.916,1.734 -3.622,2.51 -3.014,3.312 -6.039,2.897 -3.935,-0.54 0.537,-0.877 0.491,-1.111 -0.305,-1.563 -0.863,-0.49 -0.781,-0.693 1.059,-2.623 1.096,-1.151 2.292,-2.852 2.657,-3.78 0.54,-1.372 0.748,-1.537 1.114,-0.884 1.018,1.819 2.598,0.665 2.526,-1.846 -0.036,-1.285 0.043,-1.378 0.566,-0.664 0.334,0.457 1.168,1.11 1.853,1.452 m 11.076,4.622 c 4.324,2.236 5.11,5.638 1.994,8.627 -5.439,5.218 -5.946,7.087 -2.987,11.006 4.557,6.035 4.389,7.77 -0.664,6.839 -2.618,-0.482 -3.931,-0.485 -5.972,-0.014 -1.783,0.411 -2.78,0.439 -3.133,0.087 -1.023,-1.024 0.719,-1.744 4.87,-2.014 6.207,-0.404 6.192,-1.635 -0.093,-7.56 -5.855,-5.519 -6.021,-6.477 -1.798,-10.376 2.113,-1.951 2.841,-2.996 3.008,-4.314 0.354,-2.798 2.132,-3.648 4.775,-2.281 m 87.408,1.151 c 0,0.094 0.91,1.035 2.021,2.092 2.193,2.086 2.615,3.936 1.215,5.336 -0.689,0.689 -2.156,0.784 -10.213,0.667 l -9.408,-0.137 -0.638,-1.263 c -0.565,-1.117 -0.635,-0.798 -0.612,2.778 0.022,3.279 0.13,3.826 0.575,2.904 0.541,-1.122 0.678,-1.136 10.53,-1.136 h 9.982 l 0.507,1.388 c 0.497,1.363 0.545,0.731 0.808,-10.858 0.029,-1.288 -0.144,-1.409 -2.368,-1.665 -1.319,-0.151 -2.399,-0.199 -2.399,-0.106 m -277.272,4.927 c 0,2.064 0.207,3.283 0.559,3.283 0.307,0 0.442,-0.304 0.299,-0.677 -0.701,-1.827 0.4,-2.096 9.223,-2.26 4.733,-0.088 8.604,0.026 8.603,0.252 -0.002,0.227 -4.433,3.134 -9.849,6.461 -5.415,3.327 -9.845,6.225 -9.845,6.44 0,0.215 4.754,0.39 10.564,0.39 10.939,0 12.163,0.133 12.163,1.317 0,0.387 0.185,0.704 0.411,0.704 0.506,0 0.465,-5.353 -0.044,-5.863 -0.202,-0.201 -0.367,0.118 -0.367,0.71 0,0.592 -0.44,1.312 -0.977,1.599 -1.108,0.594 -14.186,0.727 -14.154,0.144 0.012,-0.208 3.592,-2.55 7.955,-5.204 l 7.934,-4.825 0.152,-2.624 c 0.15,-2.57 -0.534,-3.613 -1.056,-1.614 -0.253,0.967 -0.689,1.01 -10.173,1.01 h -9.908 l -0.48,-1.263 c -0.761,-2.001 -1.01,-1.503 -1.01,2.02 m 228.445,-0.286 c 2.174,0.826 7.324,7.29 8.578,10.766 0.348,0.966 -0.39,1.223 -0.943,0.329 -0.491,-0.795 -6.338,-3.484 -7.575,-3.485 -5.099,-0.002 -12.292,7.995 -11.563,12.855 0.258,1.72 0.172,2.333 -0.345,2.48 -0.379,0.107 -2.403,0.704 -4.5,1.325 -4.53,1.343 -6.773,1.237 -4.078,-0.192 0.938,-0.497 2.805,-1.231 4.148,-1.63 3.364,-0.999 3.994,-2.087 3.994,-6.892 0,-11.206 5.479,-18.144 12.284,-15.556 m -103.698,4.579 1.629,4.041 h 3.185 c 5.258,0 5.399,0.263 1.875,3.495 l -3.073,2.818 0.927,3.788 c 1.136,4.641 1.296,4.514 -2.589,2.05 -3.915,-2.484 -3.531,-2.482 -7.383,-0.038 -3.562,2.26 -3.596,2.219 -2.346,-2.761 l 0.811,-3.229 -1.834,-1.611 c -1.01,-0.886 -2.409,-2.062 -3.111,-2.614 -1.714,-1.348 -1.291,-1.602 3.162,-1.898 l 3.799,-0.253 1.59,-3.914 c 1.903,-4.682 1.412,-4.701 3.358,0.126 m -70.254,-0.378 c 1.643,4.306 1.77,4.418 5.038,4.426 5.369,0.013 5.497,0.241 1.865,3.341 l -3.206,2.737 0.982,3.833 c 1.207,4.71 1.319,4.617 -2.632,2.187 -3.944,-2.426 -3.307,-2.427 -7.151,0.009 -3.657,2.318 -3.955,2.074 -2.709,-2.215 1.129,-3.883 1.114,-3.93 -2.239,-6.619 -3.589,-2.879 -3.557,-2.954 1.399,-3.28 l 3.842,-0.253 1.516,-3.661 c 1.837,-4.435 1.797,-4.429 3.295,-0.505 m 36.194,0.505 1.488,3.661 3.872,0.253 c 4.991,0.325 5.023,0.399 1.43,3.28 -3.363,2.698 -3.352,2.665 -2.249,6.922 1.062,4.099 0.939,4.187 -2.658,1.897 -3.825,-2.436 -3.454,-2.436 -7.304,-0.001 -3.784,2.392 -3.732,2.42 -2.731,-1.489 1.158,-4.519 1.1,-4.712 -2.208,-7.39 -3.509,-2.84 -3.314,-3.2 1.743,-3.214 l 3.536,-0.009 1.505,-3.786 c 1.838,-4.623 1.75,-4.62 3.576,-0.124 m 168.988,11.995 c 0,3.459 0.099,4.023 0.508,2.904 l 0.507,-1.389 h 10.017 10.017 l 0.507,1.389 c 0.412,1.127 0.513,0.58 0.54,-2.904 0.028,-3.777 -0.045,-4.142 -0.606,-3.031 l -0.639,1.263 -9.914,0.137 -9.915,0.136 -0.511,-1.399 c -0.414,-1.134 -0.511,-0.586 -0.511,2.894 m -22.019,5.657 c -1.598,3.825 -6.38,6.039 -8.58,3.972 -0.611,-0.574 -1.551,-1.062 -2.089,-1.083 -0.724,-0.03 -0.613,-0.173 0.428,-0.553 1.087,-0.397 1.683,-0.331 2.634,0.292 2.396,1.571 6.471,-0.797 7.645,-4.443 0.188,-0.586 0.426,-0.821 0.528,-0.524 0.102,0.298 -0.152,1.35 -0.566,2.339 m -237.656,1.918 c 0,4.251 0.22,4.856 1.01,2.778 l 0.48,-1.263 h 10.113 10.114 v 1.347 c 0,0.741 0.13,1.217 0.288,1.059 0.439,-0.439 0.524,-7.962 0.091,-7.962 -0.209,0.001 -0.379,0.431 -0.379,0.957 0,1.439 -0.857,1.569 -10.354,1.569 -9.496,0 -10.353,-0.13 -10.353,-1.569 0,-0.526 -0.227,-0.956 -0.505,-0.956 -0.295,0 -0.505,1.683 -0.505,4.04 m 259.675,4.041 c 0,3.459 0.099,4.023 0.508,2.904 0.498,-1.365 0.58,-1.389 4.758,-1.389 h 4.251 v 4.798 4.798 h -4.025 c -3.87,0 -4.053,-0.053 -4.777,-1.389 -0.717,-1.322 -0.753,-1.18 -0.734,2.904 0.016,3.475 0.116,4.028 0.527,2.904 l 0.507,-1.389 h 10.017 10.017 l 0.507,1.389 c 0.412,1.127 0.513,0.58 0.54,-2.904 0.028,-3.778 -0.045,-4.141 -0.607,-3.03 -0.617,1.219 -0.81,1.262 -5.674,1.262 h -5.036 v -4.545 -4.546 l 5.129,-0.143 5.129,-0.143 0.513,1.406 c 0.418,1.143 0.513,0.605 0.513,-2.887 0,-3.46 -0.098,-4.024 -0.507,-2.904 l -0.507,1.389 h -10.017 -10.017 l -0.507,-1.389 c -0.409,-1.12 -0.508,-0.556 -0.508,2.904 m -205.182,2.651 c 1.655,4.338 1.746,4.414 5.291,4.455 5.126,0.059 5.267,0.352 1.606,3.364 l -3.211,2.641 0.987,3.856 c 1.213,4.734 1.326,4.64 -2.626,2.208 -3.951,-2.43 -3.385,-2.429 -7.191,-0.006 -3.603,2.295 -3.759,2.169 -2.674,-2.156 1.072,-4.274 1.192,-3.914 -2.234,-6.662 -3.59,-2.88 -3.581,-2.902 1.377,-3.257 l 3.863,-0.276 1.517,-3.662 c 1.837,-4.434 1.797,-4.428 3.295,-0.505 m 36.228,0.505 1.517,3.662 3.863,0.276 c 4.958,0.355 4.967,0.377 1.376,3.257 -3.363,2.698 -3.352,2.664 -2.249,6.921 1.067,4.116 0.936,4.209 -2.698,1.91 -3.864,-2.445 -3.419,-2.445 -7.264,-0.014 -3.785,2.393 -3.655,2.467 -2.709,-1.545 1.09,-4.622 1.08,-4.654 -2.244,-7.344 -3.485,-2.822 -3.298,-3.116 2.02,-3.173 l 3.293,-0.036 1.505,-3.785 c 1.837,-4.622 1.73,-4.618 3.59,-0.129 m 34.233,0.353 1.398,3.561 3.112,0.007 c 5.576,0.013 5.749,0.238 2.358,3.061 -3.737,3.109 -3.558,2.601 -2.458,6.991 1.15,4.59 1.187,4.552 -2.29,2.328 -4.087,-2.615 -4.027,-2.613 -7.65,-0.252 -3.96,2.58 -3.889,2.627 -2.715,-1.781 1.228,-4.614 1.357,-4.181 -2.094,-7.024 -3.556,-2.93 -3.525,-3.003 1.396,-3.33 l 3.809,-0.252 1,-2.525 c 0.549,-1.389 1.203,-3.051 1.452,-3.692 0.638,-1.642 1.089,-1.153 2.682,2.908 M 79.034,269.797 c -0.391,0.87 -2.351,1.746 -9.085,4.059 -4.722,1.622 -9.604,3.32 -10.85,3.775 l -2.264,0.826 10.85,3.614 c 9.055,3.017 10.954,3.817 11.474,4.838 0.343,0.672 0.637,1.109 0.654,0.97 0.24,-2.052 0.147,-6.061 -0.141,-6.061 -0.208,0 -0.379,0.348 -0.379,0.774 0,1.449 -1.487,1.345 -7.942,-0.554 -8.148,-2.398 -8.097,-2.329 -3.082,-4.138 9.143,-3.297 10.03,-3.494 10.825,-2.407 0.624,0.854 0.704,0.524 0.704,-2.922 0,-4.261 -0.037,-4.394 -0.764,-2.774 m 131.131,9.384 c -1.844,3.423 -1.023,8.22 1.714,10.014 1.952,1.279 1.005,9.281 -1.348,11.391 -2.97,2.664 0.924,6.728 6.476,6.759 l 3.953,0.022 0.255,2.756 c 0.156,1.679 0.797,3.718 1.642,5.218 1.866,3.317 1.669,7.891 -0.34,7.891 -0.983,0 -1.208,0.429 -2.313,4.417 -1.385,4.993 -2.589,4.674 17.673,4.674 h 17.552 l 0.29,1.448 0.289,1.448 11.011,0.252 c 8.408,0.192 11.19,0.102 11.769,-0.383 0.417,-0.349 1.704,-0.79 2.86,-0.979 17.5,-2.867 9.38,-35.102 -8.845,-35.116 -2.566,-0.002 -5.297,-0.454 -8.839,-1.461 -6.528,-1.857 -8.588,-2.334 -14.404,-3.335 -6.514,-1.122 -14.992,-5.235 -14.361,-6.968 0.843,-2.316 0.157,-9.742 -0.798,-8.64 -0.216,0.248 -0.663,1.405 -0.995,2.571 -1.148,4.041 -4.331,5.157 -8.918,3.128 -2.295,-1.015 -2.553,-1.029 -5.505,-0.3 -5.133,1.266 -6.509,0.623 -7.578,-3.542 -0.59,-2.3 -0.649,-2.36 -1.24,-1.265 m 12.714,6.493 c 0.51,0.509 -4.123,3.349 -4.947,3.033 -0.865,-0.332 -0.511,-1.771 0.669,-2.722 0.816,-0.658 3.721,-0.869 4.278,-0.311 m 96.313,2.569 c -1.744,0.313 -2.08,0.743 -2.547,3.257 -1.741,9.379 8.971,16.246 18.084,11.592 6.869,-3.507 7.711,-15.213 1.094,-15.213 -2.551,0 -2.52,0.615 0.09,1.792 2.703,1.219 3.696,2.747 3.314,5.098 -1.44,8.88 -22.042,7.924 -22.053,-1.022 -0.002,-1.405 2.894,-4.858 4.074,-4.858 0.258,0 0.469,-0.227 0.469,-0.505 0,-0.517 -0.326,-0.536 -2.525,-0.141 m -261.616,8.199 v 7.048 l 1.717,0.322 c 3.138,0.588 3.816,0.104 1.691,-1.209 -2.068,-1.279 -2.553,-2.42 -2.307,-5.429 l 0.161,-1.972 4.933,-0.145 c 5.527,-0.162 5.796,0.005 5.194,3.217 -0.269,1.435 -0.692,1.951 -2.076,2.529 -2.459,1.027 -2.222,1.161 2.05,1.161 3.894,0 4.639,-0.341 2.652,-1.213 -0.937,-0.411 -1.163,-0.964 -1.289,-3.15 l -0.153,-2.652 h 4.286 c 4.812,0 5.22,0.333 4.583,3.73 -0.324,1.725 -1.009,2.665 -3.008,4.126 -0.931,0.68 -0.817,0.728 1.462,0.608 l 2.472,-0.13 0.053,-6.692 c 0.05,-6.25 -0.224,-8.078 -0.85,-5.682 -0.253,0.967 -0.689,1.01 -10.173,1.01 h -9.908 l -0.48,-1.262 c -0.857,-2.254 -1.01,-1.377 -1.01,5.785 m 172.727,-0.005 c 0,2.278 -0.994,3.735 -3.136,4.599 -0.914,0.368 -2.766,1.649 -4.116,2.847 -3.254,2.888 -6.679,2.489 -4.004,-0.466 0.851,-0.941 0.846,-1.015 -0.114,-1.724 -0.977,-0.722 -0.953,-0.789 0.884,-2.481 1.038,-0.957 2.242,-2.587 2.675,-3.624 0.562,-1.346 0.906,-1.692 1.203,-1.212 0.774,1.252 2.303,0.434 2.473,-1.323 l 0.158,-1.635 1.989,1.598 c 1.652,1.327 1.988,1.906 1.988,3.421 m -47.689,1.164 1.313,3.409 h 3.659 c 4.827,0 4.919,0.241 1.352,3.521 l -3.036,2.792 0.987,3.747 c 1.219,4.625 1.291,4.567 -2.612,2.091 -3.917,-2.484 -3.528,-2.483 -7.403,-0.025 -1.748,1.109 -3.252,2.016 -3.343,2.016 -0.091,0 0.15,-1.307 0.536,-2.905 1.399,-5.782 1.537,-5.187 -1.84,-7.892 -3.63,-2.909 -3.585,-3.017 1.365,-3.345 l 3.815,-0.252 1.533,-3.933 c 1.705,-4.373 1.689,-4.377 3.674,0.776 m -70.24,-0.493 1.515,3.65 3.874,0.252 c 4.974,0.324 4.966,0.302 1.192,3.408 l -3.2,2.633 0.987,3.855 c 1.216,4.745 1.277,4.692 -2.536,2.228 -3.812,-2.464 -3.452,-2.463 -7.281,-0.025 -3.603,2.295 -3.759,2.169 -2.674,-2.157 1.072,-4.273 1.192,-3.914 -2.234,-6.661 -3.589,-2.879 -3.557,-2.955 1.399,-3.281 l 3.842,-0.252 1.516,-3.662 c 1.85,-4.465 1.741,-4.466 3.6,0.012 m 35.89,-0.012 1.488,3.662 3.894,0.276 c 4.992,0.355 5.001,0.375 1.407,3.257 -3.363,2.697 -3.352,2.664 -2.249,6.921 1.062,4.1 0.939,4.188 -2.658,1.897 -3.825,-2.435 -3.454,-2.435 -7.304,-10e-4 -3.797,2.401 -3.686,2.471 -2.715,-1.716 1.08,-4.659 1.137,-4.481 -2.264,-7.152 -3.579,-2.813 -3.36,-3.21 1.783,-3.224 l 3.536,-0.01 1.505,-3.786 c 1.838,-4.622 1.75,-4.619 3.577,-0.124 m 91.973,0.274 c 4.738,2.553 5.019,5.117 1.011,9.235 -3.786,3.889 -4.93,6.448 -3.661,8.19 3.076,4.225 4.351,6.386 4.651,7.883 l 0.343,1.719 -2.225,-0.437 c -2.45,-0.48 -6.946,-0.582 -9.277,-0.209 -1.1,0.175 -1.542,0.023 -1.665,-0.575 -0.188,-0.908 1.968,-1.438 5.94,-1.461 2.997,-0.018 3.763,-0.537 3.33,-2.26 -0.367,-1.463 -1.071,-2.227 -5.486,-5.956 -4.358,-3.681 -4.795,-7.262 -1.176,-9.633 2.144,-1.405 3.332,-2.984 3.332,-4.43 0,-2.749 2.026,-3.606 4.883,-2.066 m 38.736,5.852 c 1.916,0.801 4.548,3.86 6.825,7.93 2.007,3.589 1.98,3.776 -0.318,2.259 -4.732,-3.124 -7.086,-3.267 -11.377,-0.69 -5.479,3.288 -6.931,5.384 -6.931,9.997 0,2.016 -0.217,3.138 -0.632,3.266 -8.615,2.663 -10.631,2.975 -8.462,1.309 0.693,-0.533 2.283,-1.243 3.535,-1.58 3.788,-1.017 4.547,-2.056 4.557,-6.23 0.017,-6.91 2.381,-14.018 5.155,-15.503 2.829,-1.514 5.261,-1.755 7.648,-0.758 m -221.397,8.899 c 0,4.251 0.22,4.856 1.01,2.778 0.616,-1.62 9.345,-1.999 9.946,-0.432 0.434,1.13 -0.628,1.818 -6.231,4.035 l -4.725,1.871 0.034,2.566 c 0.028,2.09 0.128,2.372 0.542,1.52 0.317,-0.654 2.241,-1.769 5.142,-2.979 2.55,-1.063 4.836,-2.111 5.081,-2.329 0.244,-0.217 1.18,0.385 2.079,1.338 2.835,3.006 9.058,1.917 9.442,-1.652 0.505,-4.695 -0.135,-13.56 -0.694,-9.62 -0.161,1.129 -0.224,1.137 -10.145,1.274 l -9.983,0.136 -0.484,-1.273 c -0.794,-2.089 -1.014,-1.489 -1.014,2.767 m 21.41,2.314 c 1.298,3.383 -3.978,6.283 -7.754,4.263 -1.042,-0.558 -1.947,-2.844 -1.655,-4.178 0.275,-1.255 8.93,-1.333 9.409,-0.085 m 69.292,9.328 c 1.666,4.246 1.246,3.93 5.385,4.064 4.733,0.153 4.861,0.447 1.4,3.224 -3.374,2.705 -3.362,2.671 -2.259,6.929 1.062,4.099 0.939,4.187 -2.658,1.897 -3.826,-2.437 -3.452,-2.437 -7.323,0.012 -3.634,2.299 -3.764,2.207 -2.698,-1.909 1.109,-4.279 1.106,-4.289 -2.22,-6.981 -3.562,-2.884 -3.556,-2.898 1.403,-3.221 l 3.874,-0.253 1.515,-3.649 c 1.863,-4.488 1.864,-4.488 3.581,-0.113 m 168.389,1.666 c 0,1.763 -0.126,5.002 -0.28,7.197 -0.264,3.773 -0.237,3.917 0.499,2.644 l 0.778,-1.345 8.971,0.28 c 9.818,0.307 11.244,0.583 11.244,2.176 0,0.629 0.221,0.916 0.549,0.713 0.302,-0.187 0.44,-0.754 0.308,-1.261 -0.133,-0.507 -0.051,-3.493 0.182,-6.635 0.48,-6.477 0.581,-6.236 -2.807,-6.694 l -2.525,-0.342 2.215,1.942 c 2.216,1.942 3.013,4.782 1.864,6.641 -0.602,0.974 -9.848,0.753 -10.231,-0.245 -0.691,-1.8 0.508,-4.464 2.238,-4.973 2.726,-0.803 1.862,-1.285 -2.273,-1.269 -3.18,0.012 -3.725,0.123 -2.904,0.588 1.506,0.854 1.751,1.43 1.76,4.133 l 0.008,2.465 -4.162,-0.363 c -2.289,-0.2 -4.335,-0.47 -4.546,-0.601 -1.32,-0.815 0.464,-5.955 2.368,-6.823 1.937,-0.882 1.558,-1.435 -0.984,-1.435 h -2.272 v 3.207 m -29.188,0.698 c -1.321,3.557 -7.169,6.299 -8.54,4.005 -0.222,-0.372 -0.858,-0.933 -1.414,-1.247 -0.915,-0.518 -0.858,-0.573 0.602,-0.587 0.886,-0.008 1.752,0.212 1.924,0.49 1.198,1.939 7.323,-1.801 7.323,-4.471 0,-0.319 0.223,-0.58 0.496,-0.58 0.273,0 0.097,1.076 -0.391,2.39 m -214.153,2.156 c -2.451,0.572 -3.818,2.127 -5.387,6.127 -1.948,4.965 -4.463,6.477 -7.856,4.722 -2.965,-1.533 -2.222,-5.998 1.275,-7.665 2.466,-1.176 2.213,-1.62 -0.626,-1.095 -6.692,1.237 -3.754,11.547 3.291,11.547 3.91,0 6.84,-2.646 8.235,-7.435 0.851,-2.923 2.138,-4.181 4.277,-4.181 4.049,0 4.942,3.462 1.622,6.29 l -2.147,1.828 2.02,-0.327 c 4.376,-0.71 4.065,-8.289 -0.392,-9.569 -2.101,-0.603 -2.637,-0.633 -4.312,-0.242 m 241.746,12.132 c -2.363,1.248 -4.6,3.952 -6.582,7.954 -1.367,2.76 -1.667,5.376 -0.346,3.016 0.769,-1.375 1.233,-1.157 9.28,4.35 7.435,5.087 7.574,5.216 7.461,6.921 -0.131,1.978 -0.489,2.308 3.666,-3.388 3.835,-5.256 4.592,-8.345 2.989,-12.188 -2.543,-6.097 -11.037,-9.535 -16.468,-6.665 m -234.635,0.717 c 0.177,2.218 -15.873,12.437 -17.385,11.069 -1.619,-1.465 -1.528,-0.422 0.192,2.2 3.183,4.851 2.967,4.619 2.646,2.855 -0.286,-1.571 -0.225,-1.623 7.853,-6.692 8.527,-5.352 9.071,-5.586 10.106,-4.34 1.35,1.627 0.951,0.267 -0.628,-2.14 -0.911,-1.388 -1.936,-2.954 -2.279,-3.48 -0.565,-0.867 -0.612,-0.817 -0.505,0.528 m 241.533,1.754 c 6.964,3.255 10.288,9.515 7.289,13.728 -1.514,2.125 -2.007,1.959 -10.07,-3.388 -8.692,-5.764 -8.805,-5.878 -7.779,-7.861 1.694,-3.277 6.46,-4.396 10.56,-2.479 m -235.733,8.235 c 1.581,0.763 1.603,0.69 -3.038,9.99 -3.932,7.88 -4.234,8.328 -5.547,8.238 -0.764,-0.052 -1.384,0.062 -1.376,0.253 0.019,0.511 9.569,5.021 11.407,5.387 8.407,1.676 15.654,-10.8 10.659,-18.348 -1.629,-2.461 -8.605,-6.159 -11.51,-6.102 -1.613,0.032 -1.654,0.072 -0.595,0.582 m 7.754,3.065 c 7.845,5.28 -1.066,22.84 -9.499,18.72 -2.72,-1.329 -2.652,-1.835 1.365,-10.145 5.252,-10.867 5.048,-10.653 8.134,-8.575 m 129.298,2.11 c -0.941,3.739 -0.726,4.021 1.38,1.806 1.318,-1.385 2.373,-2.041 3.283,-2.041 h 1.341 v 10.113 10.114 l -1.263,0.48 c -2.094,0.796 -1.464,1.011 2.904,0.99 3.983,-0.02 4.106,-0.054 2.778,-0.774 l -1.389,-0.754 v -10.085 -10.084 h 1.768 c 1.993,0 3.788,1.436 3.788,3.03 0,2.35 0.933,0.764 1.114,-1.894 0.234,-3.419 0.195,-3.528 -0.874,-2.459 -1.134,1.134 -11.604,1.191 -13.202,0.071 -1.021,-0.715 -1.089,-0.654 -1.628,1.487 m -112.642,3.401 c -4.972,15.916 -5.304,16.793 -6.607,17.439 -1.125,0.559 -0.878,0.625 2.273,0.614 3.426,-0.012 3.492,-0.036 2.142,-0.769 -1.496,-0.811 -1.495,-0.778 -0.151,-5.516 0.601,-2.12 2.21,-2.786 5.023,-2.08 0.967,0.243 3.433,6.526 2.776,7.072 -0.107,0.089 -0.648,0.416 -1.204,0.726 -0.812,0.453 -0.216,0.567 3.03,0.577 l 4.041,0.013 -1.349,-1.134 c -1.09,-0.917 -1.946,-3.068 -4.473,-11.235 -3.816,-12.335 -3.524,-12.033 -5.501,-5.707 m 62.989,-4.874 c -0.158,0.264 -1.349,3.889 -2.648,8.056 -4.206,13.498 -4.29,13.718 -5.476,14.29 -0.907,0.438 -0.45,0.539 2.417,0.535 2.957,-0.005 3.308,-0.089 2.147,-0.513 -1.556,-0.568 -1.634,-0.99 -0.811,-4.366 0.766,-3.143 1.227,-3.635 3.398,-3.625 2.499,0.01 2.964,0.409 3.841,3.301 1.028,3.39 0.964,4.221 -0.368,4.756 -0.812,0.327 0.087,0.46 3.157,0.469 4.016,0.011 4.207,-0.036 2.954,-0.716 -1.114,-0.605 -1.649,-1.727 -3.184,-6.672 -3.551,-11.44 -5.143,-15.991 -5.427,-15.515 m 36.624,0.434 c -5.088,2.3 -4.254,9.067 1.519,12.325 4.464,2.519 5.793,6.306 3.143,8.956 -2.661,2.661 -7.346,-0.094 -7.346,-4.321 0,-0.585 -0.228,-0.924 -0.505,-0.752 -0.278,0.171 -0.505,1.429 -0.505,2.796 0,3.078 1.363,4.216 5.05,4.216 7.912,0 9.822,-10.056 2.683,-14.127 -3.825,-2.182 -4.703,-3.165 -4.703,-5.269 0,-4.138 4.525,-4.947 6.3,-1.126 1.239,2.666 1.781,2.724 1.781,0.188 0,-3.121 -3.707,-4.563 -7.417,-2.886 m 57.764,2.446 c -3.661,12.63 -5.939,18.928 -7.036,19.457 -0.937,0.452 -0.511,0.548 2.396,0.544 2.956,-0.005 3.308,-0.089 2.146,-0.513 -1.556,-0.568 -1.634,-0.99 -0.811,-4.366 0.767,-3.143 1.227,-3.635 3.398,-3.625 2.5,0.01 2.964,0.409 3.841,3.301 1.029,3.39 0.965,4.221 -0.367,4.756 -0.813,0.327 0.087,0.46 3.156,0.469 4.056,0.011 4.218,-0.03 2.927,-0.73 -0.802,-0.436 -1.556,-1.418 -1.825,-2.379 -1.385,-4.943 -6.377,-20.071 -6.622,-20.071 -0.158,0.001 -0.699,1.421 -1.203,3.157 m -143.277,-2.047 -1.262,0.541 1.262,0.333 1.263,0.333 0.137,9.708 0.137,9.708 -1.399,0.623 c -1.225,0.545 -0.649,0.641 4.593,0.766 11.021,0.263 15.965,-5.672 12.992,-15.595 -1.717,-5.729 -11.264,-9.186 -17.723,-6.417 m 120.96,-0.124 c -1.944,0.193 -3.048,0.39 -2.453,0.439 1.583,0.131 1.695,0.824 1.695,10.443 0,9.09 -0.157,10.354 -1.286,10.354 -0.371,0 -0.815,0.227 -0.986,0.505 -0.198,0.319 1.089,0.505 3.505,0.505 2.209,0 3.818,-0.213 3.818,-0.505 0,-0.278 -0.455,-0.505 -1.01,-0.505 -0.943,0 -1.01,-0.337 -1.01,-5.051 0,-7.373 1.37,-7.014 4.575,1.201 l 1.798,4.607 2.748,0.124 c 2.638,0.118 2.695,0.094 1.437,-0.607 -0.804,-0.447 -1.664,-1.668 -2.222,-3.154 -0.501,-1.333 -1.439,-3.532 -2.084,-4.886 l -1.172,-2.463 1.471,-1.374 c 5.742,-5.364 0.944,-10.602 -8.824,-9.633 m -109.765,1.605 c 6.43,4.544 4.196,18.601 -3.162,19.899 -3.307,0.583 -3.487,0.02 -3.487,-10.927 0,-11.236 1.184,-12.834 6.649,-8.972 m 48.906,-0.929 c 1.261,0.637 1.264,0.652 1.521,9.715 0.33,11.595 0.852,12.52 7.068,12.526 5.763,0.005 6.545,-1.399 6.613,-11.884 0.059,-8.927 0.276,-10.085 1.989,-10.562 0.787,-0.219 0.039,-0.351 -2.039,-0.357 -1.806,-0.006 -2.942,0.111 -2.525,0.26 1.776,0.635 2.02,1.765 2.02,9.358 0,10.213 -0.818,12.009 -5.466,12.009 -4.161,0 -4.383,-0.577 -4.383,-11.421 v -9.491 l 1.263,-0.353 c 0.754,-0.21 -0.468,-0.369 -3.03,-0.395 -3.771,-0.037 -4.14,0.035 -3.031,0.595 m 96.844,-0.132 c 1.125,0.453 1.136,0.558 1.136,10.477 v 10.02 l -1.389,0.549 c -1.11,0.438 0.002,0.559 5.556,0.602 l 6.944,0.054 0.007,-1.389 c 0.004,-0.764 0.144,-1.957 0.311,-2.652 0.268,-1.114 0.074,-1.018 -1.649,0.81 -2.415,2.565 -3.852,3.086 -5.512,1.998 l -1.237,-0.811 v -9.542 -9.542 l 1.388,-0.507 c 1.134,-0.414 0.645,-0.509 -2.651,-0.516 -2.904,-0.005 -3.721,0.121 -2.904,0.449 m -29.826,1.204 c 2.954,2.541 1.512,8.254 -2.151,8.521 l -1.483,0.108 -0.148,-4.251 c -0.21,-6.044 0.666,-7.058 3.782,-4.378 m -139.146,7.257 c 1.187,3.802 1.245,3.645 -1.341,3.645 -1.576,0 -2.195,-0.19 -2.054,-0.631 0.111,-0.348 0.572,-1.963 1.024,-3.59 0.946,-3.404 1.143,-3.356 2.371,0.576 m 61.187,-0.403 c 1.127,4.054 1.129,4.048 -1.18,4.048 -1.111,0 -2.02,-0.124 -2.02,-0.275 0,-0.995 1.706,-6.796 1.999,-6.796 0.198,0 0.739,1.36 1.201,3.023 m 95.618,0.512 1.041,3.536 h -2.202 c -1.211,0 -2.202,-0.124 -2.202,-0.275 0,-0.959 1.7,-6.796 1.98,-6.796 0.188,0 0.81,1.591 1.383,3.535"
       inkscape:connector-curvature="0"
       style="fill:#000000;fill-rule:evenodd;stroke:none" />
  </g>
  <path
     style="fill:#000000;stroke-width:0.45550847"
     d="m 96.611227,76.245702 c -0.145419,-1.70068 -0.395784,-5.62215 -0.556366,-8.714376 l -0.291967,-5.62223 1.117408,0.611637 c 2.608332,1.427723 10.823988,7.489474 10.827608,7.988924 0.003,0.472597 -3.40824,3.2962 -9.172111,7.591122 l -1.660173,1.23707 z"
     id="path26"
     inkscape:connector-curvature="0" />
  <path
     style="fill:#000000;stroke-width:0.45550847"
     d="m 109.76165,64.904718 c -1.50318,-0.902893 -4.14719,-2.686723 -5.87558,-3.964067 -3.12067,-2.306285 -3.13364,-2.32482 -1.86472,-2.664181 1.33674,-0.3575 19.48741,-1.76009 22.43705,-1.733819 1.68293,0.01499 1.6909,0.02371 0.72809,0.79714 -3.85425,3.096124 -12.04252,9.208678 -12.3345,9.207721 -0.19651,-6.44e-4 -1.58716,-0.739902 -3.09034,-1.642794 z"
     id="path28"
     inkscape:connector-curvature="0" />
  <path
     style="fill:#000000;stroke-width:0.45550847"
     d="m 122.59975,74.050229 c -2.67669,-1.886861 -4.8667,-3.617426 -4.8667,-3.845699 0,-0.425649 11.47688,-9.64012 11.71298,-9.404026 0.18048,0.180486 -0.75485,14.38706 -1.03073,15.655488 -0.1226,0.563692 -0.38625,1.024894 -0.58588,1.024894 -0.19963,0 -2.55298,-1.543796 -5.22967,-3.430657 z"
     id="path30"
     inkscape:connector-curvature="0" />
  <path
     style="fill:#000000;stroke-width:0.45550847"
     d="m 102.70127,81.864116 c 0,-0.261763 8.30278,-6.90995 9.30926,-7.454098 0.69542,-0.375973 1.27445,-0.233672 2.73305,0.671671 3.95238,2.453207 8.87411,6.190077 8.64373,6.562838 -0.22813,0.369115 -20.68604,0.586283 -20.68604,0.219589 z"
     id="path32"
     inkscape:connector-curvature="0" />
</svg>
