<?xml version="1.0" encoding="UTF-8" standalone="no"?>
<svg
   xmlns:dc="http://purl.org/dc/elements/1.1/"
   xmlns:cc="http://creativecommons.org/ns#"
   xmlns:rdf="http://www.w3.org/1999/02/22-rdf-syntax-ns#"
   xmlns:svg="http://www.w3.org/2000/svg"
   xmlns="http://www.w3.org/2000/svg"
   xmlns:sodipodi="http://sodipodi.sourceforge.net/DTD/sodipodi-0.dtd"
   xmlns:inkscape="http://www.inkscape.org/namespaces/inkscape"
   id="svg"
   version="1.1"
   width="118.13444"
   height="183.12584"
   style="display:block"
   inkscape:version="0.91 r13725"
   sodipodi:docname="ubb.svg">
  <metadata
     id="metadata11">
    <rdf:RDF>
      <cc:Work
         rdf:about="">
        <dc:format>image/svg+xml</dc:format>
        <dc:type
           rdf:resource="http://purl.org/dc/dcmitype/StillImage" />
        <dc:title></dc:title>
      </cc:Work>
    </rdf:RDF>
  </metadata>
  <defs
     id="defs9" />
  <sodipodi:namedview
     pagecolor="#ffffff"
     bordercolor="#666666"
     borderopacity="1"
     objecttolerance="10"
     gridtolerance="10"
     guidetolerance="10"
     inkscape:pageopacity="0"
     inkscape:pageshadow="2"
     inkscape:window-width="1366"
     inkscape:window-height="715"
     id="namedview7"
     showgrid="false"
     fit-margin-top="0"
     fit-margin-left="0"
     fit-margin-right="0"
     fit-margin-bottom="0"
     inkscape:zoom="2.7437401"
     inkscape:cx="102.62974"
     inkscape:cy="19.270178"
     inkscape:window-x="-8"
     inkscape:window-y="-8"
     inkscape:window-maximized="1"
     inkscape:current-layer="svg" />
  <g
     id="svgg"
     transform="translate(-140.68979,-12.497)">
    <path
       id="path0"
       d="m 179.07,100.225 c -0.27,0.704 0.024,29.204 0.307,29.811 0.159,0.341 0.293,0.829 0.297,1.084 0.004,0.255 0.123,0.763 0.264,1.13 0.141,0.367 0.368,1.116 0.505,1.665 0.137,0.549 0.309,1.074 0.382,1.166 0.074,0.093 0.19,0.357 0.258,0.586 0.218,0.731 1.204,2.719 1.819,3.666 0.97,1.494 0.995,1.53 1.475,2.093 0.77,0.902 4.662,3.907 5.061,3.907 0.055,0 0.468,0.27 0.917,0.599 0.448,0.33 1.194,0.699 1.656,0.821 0.463,0.122 0.938,0.302 1.057,0.401 0.119,0.098 0.583,0.221 1.032,0.273 0.449,0.051 1.462,0.245 2.251,0.429 1.596,0.374 5.512,0.371 6.982,-0.005 0.413,-0.105 1.201,-0.255 1.752,-0.333 2.152,-0.306 6.938,-3.081 9.189,-5.329 1.319,-1.317 2.47,-2.922 3.246,-4.522 3.089,-6.377 2.827,-4.214 2.773,-22.938 l -0.043,-14.646 -20.547,-0.042 c -17.186,-0.035 -20.56,-0.005 -20.633,0.184 m 22.18,10.63 c 0.097,0.093 0.188,1.55 0.218,3.461 l 0.051,3.301 0.58,0.178 c 0.633,0.194 0.993,-0.042 1.465,-0.959 0.385,-0.75 0.968,-1.743 1.289,-2.195 0.172,-0.243 0.314,-0.486 0.314,-0.539 0,-0.296 1.068,-1.769 1.283,-1.769 0.579,0 2.217,1.124 2.217,1.522 0,0.169 -1.217,2.619 -2.142,4.312 -0.803,1.47 -0.827,1.655 -0.274,2.136 0.52,0.452 0.942,0.462 1.332,0.03 0.166,-0.183 0.391,-0.333 0.5,-0.333 0.109,0 0.334,-0.15 0.5,-0.333 0.166,-0.184 0.369,-0.334 0.45,-0.334 0.081,0 0.821,-0.457 1.645,-1.016 1.764,-1.198 1.772,-1.197 2.551,0.38 0.716,1.448 0.727,1.553 0.198,1.836 -0.224,0.119 -0.88,0.488 -1.459,0.819 -1.791,1.024 -2.193,1.254 -2.968,1.69 -0.584,0.33 -0.761,0.53 -0.8,0.907 -0.098,0.953 0.202,1.038 3.809,1.089 l 3.241,0.045 0,1.417 0,1.417 -3.35,0.045 -3.35,0.045 -0.191,0.421 c -0.319,0.698 -0.035,1.572 0.509,1.572 0.083,0 0.592,0.3 1.132,0.667 0.54,0.366 1.061,0.666 1.158,0.666 0.096,0 0.175,0.063 0.175,0.14 0,0.077 0.563,0.429 1.25,0.782 1.393,0.717 1.433,0.809 0.831,1.912 -0.225,0.412 -0.497,0.918 -0.605,1.125 -0.264,0.506 -0.692,0.471 -1.559,-0.125 -0.4,-0.275 -0.773,-0.5 -0.829,-0.5 -0.057,0 -0.643,-0.364 -1.304,-0.809 -2.06,-1.388 -2.21,-1.441 -2.781,-0.991 -0.645,0.51 -0.624,0.753 0.191,2.264 0.382,0.707 1.03,1.947 1.44,2.756 l 0.746,1.471 -0.315,0.421 c -0.334,0.447 -1.584,1.221 -1.972,1.221 -0.198,0 -1.259,-1.49 -1.259,-1.768 0,-0.054 -0.142,-0.296 -0.314,-0.54 -0.278,-0.391 -0.651,-1.018 -1.257,-2.109 -0.509,-0.915 -0.825,-1.25 -1.185,-1.25 -0.919,0 -0.91,-0.033 -0.928,3.226 -0.022,4.111 0.092,3.858 -1.741,3.858 l -1.492,0 -0.045,-3.441 -0.045,-3.44 -0.604,-0.113 c -0.679,-0.128 -0.833,-0.021 -1.375,0.952 -0.809,1.454 -2.11,3.637 -2.309,3.875 -0.076,0.092 -0.189,0.298 -0.25,0.458 -0.149,0.389 -0.415,0.368 -1.352,-0.106 -1.507,-0.763 -1.685,-1.111 -1.078,-2.102 0.326,-0.532 0.492,-0.82 1.167,-2.019 0.124,-0.219 0.262,-0.435 0.308,-0.481 0.898,-0.899 1.302,-2.481 0.762,-2.989 l -0.405,-0.38 -0.887,0.432 c -0.488,0.237 -1.375,0.706 -1.97,1.042 -2.766,1.561 -2.954,1.608 -3.515,0.875 -0.971,-1.266 -1.028,-1.968 -0.194,-2.377 1.287,-0.631 2.423,-1.263 2.542,-1.414 0.09,-0.114 0.663,-0.455 1.336,-0.796 0.995,-0.503 1.151,-0.793 0.876,-1.628 l -0.249,-0.758 -3.273,-0.045 -3.273,-0.045 0,-1.417 0,-1.417 3.286,-0.045 3.286,-0.045 0.18,-0.667 c 0.181,-0.673 0.119,-0.993 -0.19,-0.993 -0.093,0 -0.482,-0.214 -0.866,-0.475 -0.383,-0.261 -0.771,-0.505 -0.863,-0.542 -0.857,-0.341 -3.416,-2.054 -3.413,-2.284 0.005,-0.41 1.034,-2.384 1.343,-2.579 0.204,-0.128 0.612,0.068 1.786,0.857 0.836,0.563 1.599,1.023 1.694,1.023 0.095,0 0.173,0.067 0.173,0.148 0,0.081 0.253,0.267 0.561,0.414 0.308,0.146 0.655,0.379 0.77,0.519 0.32,0.385 0.732,0.305 1.32,-0.257 0.611,-0.584 0.589,-0.823 -0.173,-1.937 -0.263,-0.383 -0.478,-0.744 -0.478,-0.801 0,-0.057 -0.3,-0.546 -0.666,-1.086 -0.367,-0.54 -0.667,-1.026 -0.667,-1.081 0,-0.054 -0.16,-0.315 -0.355,-0.579 -0.608,-0.822 0.683,-2.34 1.991,-2.34 0.36,0 1.531,1.901 1.531,2.486 0,0.284 1.798,2.87 2.145,3.084 0.084,0.052 0.422,-0.018 0.75,-0.155 l 0.598,-0.25 0.045,-3.372 0.045,-3.373 0.5,-0.114 c 0.624,-0.142 2.276,0.001 2.5,0.216"
       inkscape:connector-curvature="0"
       style="fill:#e10001;fill-rule:evenodd;stroke:none" />
    <path
       id="path1"
       d="m 192.153,63.714 c -1.204,1.689 -1.434,3.279 -0.643,4.446 0.703,1.038 0.617,1.433 -0.302,1.392 -0.914,-0.041 -0.919,0.218 -0.021,1.03 1.38,1.247 3.76,0.604 4.499,-1.216 0.432,-1.061 0.255,-1.858 -0.341,-1.539 -0.936,0.501 -1.66,0.025 -1.334,-0.877 0.268,-0.743 0.107,-1.319 -0.587,-2.086 -0.312,-0.346 -0.618,-0.831 -0.68,-1.079 -0.137,-0.544 -0.245,-0.557 -0.591,-0.071 m -13.604,-0.006 c -1.13,1.485 -1.418,4.048 -0.521,4.637 0.754,0.495 0.36,1.441 -0.527,1.264 -0.716,-0.144 -0.755,0.134 -0.115,0.832 1.043,1.138 3.505,0.883 4.462,-0.462 0.632,-0.887 0.361,-2.788 -0.302,-2.125 -0.524,0.524 -1.074,0.011 -0.967,-0.902 0.096,-0.824 0.063,-0.928 -0.655,-2.03 -0.417,-0.639 -0.757,-1.22 -0.757,-1.292 0,-0.207 -0.444,-0.151 -0.618,0.078 m 26.993,0.375 c -0.207,0.318 -0.378,0.636 -0.381,0.706 -0.003,0.07 -0.151,0.428 -0.328,0.794 -0.478,0.99 -0.338,1.756 0.531,2.898 0.64,0.841 0.239,1.375 -0.795,1.058 -0.802,-0.246 -0.754,0.104 0.131,0.955 1.302,1.251 3.703,0.778 4.432,-0.872 0.72,-1.629 0.616,-2.127 -0.369,-1.771 -0.961,0.348 -1.192,0.102 -1.127,-1.204 0.052,-1.038 0.037,-1.082 -0.621,-1.814 -0.371,-0.412 -0.718,-0.881 -0.772,-1.041 -0.142,-0.419 -0.278,-0.363 -0.701,0.291 m 13.852,-0.375 c -1.227,1.738 -1.422,3.749 -0.465,4.806 0.52,0.574 0.248,1.075 -0.554,1.025 -0.889,-0.056 -0.944,0.264 -0.167,0.977 1.375,1.26 3.841,0.678 4.647,-1.097 0.508,-1.117 0.323,-2.287 -0.268,-1.696 -0.711,0.711 -1.782,0.15 -1.413,-0.74 0.276,-0.668 0.046,-1.341 -0.881,-2.581 -0.76,-1.017 -0.702,-0.972 -0.899,-0.694 m -41.755,10.036 c -0.142,0.312 -0.117,1.186 0.103,3.625 0.159,1.768 0.359,4.152 0.445,5.298 0.085,1.146 0.306,3.021 0.49,4.166 0.184,1.146 0.375,2.335 0.423,2.642 0.049,0.308 0.12,0.527 0.158,0.489 0.207,-0.207 0.724,-3.655 0.815,-5.429 0.057,-1.127 0.211,-2.589 0.343,-3.25 0.132,-0.661 0.321,-2.214 0.421,-3.452 0.099,-1.237 0.222,-2.569 0.273,-2.96 0.164,-1.264 -0.171,-1.54 -1.867,-1.54 -1.344,0 -1.426,0.021 -1.604,0.411 m 13.505,0.048 c -0.138,0.347 -0.112,0.942 0.108,2.458 0.16,1.1 0.349,3.204 0.421,4.675 0.073,1.472 0.247,3.347 0.389,4.167 0.142,0.82 0.304,2.133 0.36,2.918 0.211,2.934 0.83,1.987 1.073,-1.64 0.084,-1.258 0.267,-2.962 0.406,-3.787 0.14,-0.825 0.262,-2.062 0.272,-2.75 0.018,-1.249 0.096,-1.889 0.499,-4.083 0.12,-0.652 0.163,-1.442 0.097,-1.792 l -0.117,-0.625 -1.664,0 c -1.659,0 -1.663,0.001 -1.844,0.459 m 13.852,-0.203 c -0.159,0.191 -0.183,0.682 -0.096,1.958 0.064,0.937 0.187,2.865 0.273,4.286 0.086,1.421 0.233,3.034 0.326,3.584 0.093,0.55 0.238,2.125 0.322,3.5 0.161,2.641 0.247,3.083 0.6,3.083 0.263,0 0.362,-0.461 0.498,-2.333 0.057,-0.779 0.205,-1.979 0.328,-2.667 0.123,-0.687 0.276,-2.187 0.339,-3.333 0.063,-1.146 0.257,-2.935 0.431,-3.975 0.352,-2.107 0.404,-3.551 0.144,-4.036 -0.23,-0.43 -2.819,-0.485 -3.165,-0.067 m 13.666,0 c -0.277,0.334 -0.087,6.253 0.26,8.072 0.131,0.691 0.317,2.343 0.413,3.672 0.186,2.603 0.411,4.468 0.554,4.611 0.221,0.222 0.445,-0.192 0.447,-0.829 10e-4,-0.384 0.151,-1.517 0.333,-2.518 0.182,-1.001 0.336,-2.389 0.342,-3.084 0.006,-0.694 0.119,-1.976 0.251,-2.846 0.433,-2.859 0.663,-6.773 0.414,-7.072 -0.307,-0.37 -2.708,-0.374 -3.014,-0.006 m -20.249,37.619 c -0.043,0.115 -0.097,1.66 -0.12,3.434 l -0.043,3.225 -0.738,0.25 -0.738,0.249 -0.47,-0.539 c -0.259,-0.296 -0.471,-0.586 -0.471,-0.643 0,-0.057 -0.168,-0.294 -0.375,-0.525 -0.655,-0.736 -1.125,-1.47 -1.125,-1.759 0,-0.383 -0.872,-2.192 -1.104,-2.293 -0.236,-0.101 -1.855,0.88 -1.977,1.199 -0.05,0.129 0.108,0.582 0.35,1.006 0.242,0.424 0.595,1.053 0.783,1.396 0.189,0.344 0.405,0.625 0.479,0.625 0.075,0 0.136,0.068 0.136,0.151 0,0.083 0.338,0.699 0.75,1.368 l 0.75,1.217 -0.616,0.631 c -0.911,0.933 -1.083,0.938 -2.395,0.066 -0.634,-0.422 -1.197,-0.766 -1.251,-0.766 -0.055,0 -0.652,-0.381 -1.326,-0.847 -0.674,-0.467 -1.35,-0.823 -1.503,-0.792 -0.47,0.095 -1.338,1.887 -1.097,2.267 0.134,0.211 3.147,2.039 3.361,2.039 0.088,0 0.161,0.056 0.163,0.125 10e-4,0.068 0.379,0.309 0.839,0.535 0.965,0.474 1.131,0.85 0.762,1.733 l -0.253,0.607 -3.241,0 c -3.661,0 -3.443,-0.089 -3.443,1.397 0,1.281 -0.033,1.269 3.542,1.269 l 3.142,0 0.241,0.578 c 0.133,0.318 0.241,0.787 0.24,1.042 -0.001,0.478 0.009,0.47 -2.074,1.693 -0.371,0.217 -0.983,0.608 -1.36,0.867 -0.376,0.259 -0.999,0.597 -1.383,0.751 -0.812,0.324 -0.832,0.848 -0.071,1.861 0.548,0.73 0.728,0.682 3.556,-0.943 0.505,-0.289 1.31,-0.727 1.791,-0.972 l 0.873,-0.445 0.585,0.567 c 0.568,0.55 0.737,1.102 0.439,1.426 -0.081,0.087 -0.333,0.496 -0.56,0.909 -0.417,0.755 -0.824,1.473 -1.488,2.625 -0.998,1.729 -0.988,1.826 0.229,2.429 1.011,0.5 1.133,0.467 1.63,-0.437 0.499,-0.908 1.557,-2.677 1.666,-2.784 0.105,-0.103 0.483,-0.758 0.801,-1.387 0.298,-0.591 0.471,-0.656 1.291,-0.485 l 0.66,0.137 0.083,3.409 0.084,3.409 1.291,0.049 1.292,0.049 0,-3.32 c 0,-3.7 -0.036,-3.587 1.183,-3.763 0.852,-0.123 0.871,-0.11 1.5,1.069 0.22,0.412 0.443,0.787 0.496,0.833 0.052,0.046 0.145,0.196 0.205,0.333 0.06,0.138 0.295,0.55 0.522,0.917 0.227,0.367 0.616,1.023 0.863,1.458 0.535,0.941 0.908,1.01 1.901,0.353 0.893,-0.59 0.968,-0.333 -1.396,-4.759 -0.928,-1.735 -0.94,-1.905 -0.192,-2.61 0.707,-0.668 0.71,-0.667 2.913,0.73 0.936,0.593 1.769,1.078 1.853,1.078 0.084,0 0.152,0.061 0.152,0.136 0,0.14 1.061,0.697 1.327,0.697 0.082,0 0.276,-0.243 0.432,-0.541 0.155,-0.298 0.391,-0.747 0.523,-0.998 0.339,-0.644 0.459,-0.533 -2.317,-2.148 -2.505,-1.458 -3.141,-2.008 -3.037,-2.627 0.217,-1.289 -0.081,-1.186 3.403,-1.186 3.915,0 3.669,0.096 3.669,-1.434 l 0,-1.232 -3.313,0 c -2.583,0 -3.354,-0.05 -3.5,-0.226 -0.179,-0.216 -0.317,-1.546 -0.173,-1.666 0.038,-0.031 0.669,-0.396 1.403,-0.811 4.534,-2.563 4.241,-2.246 3.485,-3.765 -0.535,-1.072 -0.661,-1.074 -2.168,-0.032 -0.663,0.458 -1.251,0.833 -1.308,0.833 -0.057,0 -0.606,0.337 -1.221,0.75 -1.313,0.881 -1.45,0.897 -2.163,0.247 -0.714,-0.649 -0.699,-0.756 0.398,-2.816 2.248,-4.221 2.185,-3.923 0.963,-4.625 -0.915,-0.525 -1.004,-0.498 -1.576,0.486 -0.642,1.104 -0.843,1.437 -1.182,1.957 -0.321,0.491 -0.938,1.567 -1.26,2.193 -0.299,0.584 -0.545,0.657 -1.379,0.411 -0.988,-0.292 -1.001,-0.34 -1.003,-3.895 L 201,111 l -1.255,0 c -0.852,0 -1.28,0.067 -1.332,0.208 m -12.609,51.752 c -0.146,0.251 -0.317,0.719 -0.38,1.04 -0.106,0.546 -0.489,1.81 -1.044,3.455 -0.313,0.926 -0.829,1.066 -3.843,1.044 -3.992,-0.028 -3.839,-0.085 -2.436,0.918 0.989,0.706 3.395,2.546 4.024,3.075 0.549,0.462 0.214,2.56 -0.652,4.084 -0.102,0.18 -0.282,0.705 -0.399,1.167 -0.118,0.462 -0.268,1.017 -0.334,1.232 -0.148,0.48 0.515,0.201 1.466,-0.615 2.488,-2.137 3.876,-2.882 4.497,-2.416 0.117,0.088 1.127,0.849 2.244,1.691 2.492,1.88 2.845,1.919 2.119,0.235 -0.147,-0.341 -0.374,-1.065 -0.505,-1.609 -0.131,-0.544 -0.313,-1.08 -0.404,-1.189 -0.091,-0.11 -0.211,-0.684 -0.266,-1.276 -0.113,-1.202 -0.13,-1.172 1.416,-2.365 2.475,-1.91 3.36,-2.641 3.36,-2.778 0,-0.084 -0.957,-0.162 -2.125,-0.173 -4.389,-0.04 -4.499,-0.073 -4.858,-1.476 -0.118,-0.46 -0.283,-0.879 -0.366,-0.93 -0.083,-0.052 -0.151,-0.245 -0.151,-0.431 0,-0.365 -0.799,-2.815 -0.984,-3.016 -0.062,-0.068 -0.233,0.082 -0.379,0.333 m 27.85,-0.012 c -0.425,1.119 -0.821,2.398 -0.826,2.672 -0.003,0.163 -0.11,0.435 -0.238,0.604 -0.128,0.169 -0.281,0.593 -0.34,0.943 -0.196,1.158 -0.436,1.248 -3.393,1.263 -3.359,0.018 -3.73,0.04 -3.663,0.218 0.031,0.082 1.031,0.911 2.223,1.844 1.191,0.933 2.307,1.811 2.48,1.952 0.535,0.439 0.224,2.24 -0.919,5.309 -0.68,1.828 -0.49,1.817 2.075,-0.118 1.117,-0.842 2.127,-1.603 2.244,-1.691 0.505,-0.379 1.201,-0.133 2.411,0.848 1.891,1.535 3.119,2.398 3.275,2.302 0.152,-0.094 -0.124,-1.503 -0.539,-2.761 -1.201,-3.637 -1.336,-3.207 1.78,-5.666 1.335,-1.055 2.431,-1.973 2.435,-2.042 0.007,-0.121 -0.506,-0.144 -4.3,-0.187 -2.22,-0.026 -2.592,-0.271 -2.941,-1.938 -0.067,-0.321 -0.264,-0.898 -0.437,-1.283 -0.173,-0.384 -0.314,-0.86 -0.314,-1.058 0,-0.394 -0.455,-1.445 -0.688,-1.588 -0.08,-0.05 -0.227,0.12 -0.325,0.377"
       inkscape:connector-curvature="0"
       style="fill:#fab700;fill-rule:evenodd;stroke:none" />
    <path
       id="path2"
       d="m 157.25,12.667 c -0.057,0.091 -0.237,0.166 -0.401,0.166 -0.89,0 -0.844,-1.041 -0.89,20.179 l -0.042,19.571 -6.584,0.104 c -6.573,0.104 -7.689,0.179 -7.971,0.539 -0.733,0.935 -0.71,-0.617 -0.639,42.857 0.063,38.555 0.112,42.875 0.526,45.917 0.301,2.214 0.645,4.102 0.773,4.242 0.08,0.087 0.145,0.578 0.145,1.091 0,0.514 0.067,1.005 0.149,1.092 0.083,0.087 0.192,0.458 0.244,0.825 0.227,1.61 0.302,2.02 0.427,2.333 0.269,0.674 0.513,1.532 0.513,1.806 0,0.155 0.07,0.412 0.156,0.572 0.086,0.159 0.353,0.889 0.594,1.622 0.241,0.734 0.501,1.484 0.577,1.667 0.077,0.183 0.231,0.596 0.343,0.917 0.111,0.32 0.344,0.901 0.516,1.29 0.173,0.388 0.314,0.772 0.314,0.853 0,0.195 1.795,3.648 2.191,4.216 0.17,0.243 0.309,0.556 0.309,0.694 0,0.139 0.056,0.277 0.125,0.308 0.069,0.03 0.311,0.43 0.539,0.889 0.228,0.458 0.453,0.87 0.5,0.916 0.047,0.046 0.514,0.721 1.037,1.5 1.275,1.9 2.499,3.547 3.757,5.057 0.573,0.688 1.042,1.314 1.042,1.391 0,0.077 0.187,0.281 0.417,0.453 0.229,0.172 0.416,0.415 0.416,0.539 0,0.125 0.086,0.227 0.19,0.227 0.105,0 1.294,1.106 2.643,2.458 1.349,1.352 2.645,2.609 2.879,2.792 0.234,0.183 0.901,0.733 1.482,1.222 1.421,1.195 1.374,1.158 2.89,2.203 1.714,1.18 2.479,1.721 2.583,1.825 0.097,0.097 1.022,0.592 3,1.605 0.779,0.399 1.529,0.794 1.667,0.877 0.137,0.083 0.925,0.466 1.75,0.851 0.825,0.386 1.63,0.768 1.789,0.851 0.159,0.082 0.37,0.149 0.469,0.149 0.098,0 0.568,0.181 1.044,0.402 0.475,0.221 1.389,0.578 2.031,0.792 0.642,0.214 1.192,0.445 1.222,0.514 0.031,0.069 0.275,0.126 0.542,0.126 0.267,0 0.486,0.075 0.486,0.166 0,0.092 0.169,0.168 0.375,0.17 0.407,0.002 1.548,0.364 1.733,0.549 0.063,0.063 0.458,0.117 0.878,0.121 0.42,0.003 1.664,0.235 2.764,0.515 1.1,0.28 2.487,0.586 3.083,0.681 1.457,0.232 14.812,0.358 15.25,0.144 0.184,-0.09 0.709,-0.196 1.167,-0.235 0.797,-0.069 2.011,-0.343 3.848,-0.869 0.466,-0.133 1.199,-0.242 1.627,-0.242 0.429,0 0.929,-0.075 1.111,-0.167 0.182,-0.092 0.48,-0.242 0.662,-0.333 0.182,-0.092 0.463,-0.169 0.625,-0.171 0.345,-0.005 2.488,-0.718 2.653,-0.883 0.062,-0.062 0.273,-0.113 0.468,-0.113 0.196,0 0.427,-0.066 0.514,-0.148 0.087,-0.081 0.871,-0.424 1.742,-0.761 1.667,-0.647 4.244,-1.852 4.667,-2.183 0.137,-0.108 1.187,-0.674 2.333,-1.257 1.146,-0.583 2.171,-1.137 2.278,-1.231 0.108,-0.093 0.783,-0.578 1.5,-1.077 3.011,-2.092 5.049,-3.713 7.055,-5.614 0.505,-0.478 1.142,-1.043 1.417,-1.257 0.669,-0.518 1.521,-1.369 1.601,-1.6 0.036,-0.102 0.593,-0.734 1.238,-1.404 1.923,-1.999 5.411,-6.546 5.411,-7.054 0,-0.054 0.289,-0.526 0.643,-1.048 0.353,-0.522 0.776,-1.212 0.939,-1.533 0.164,-0.321 0.347,-0.621 0.407,-0.666 0.12,-0.093 3.319,-6.532 3.539,-7.125 0.076,-0.207 0.211,-0.544 0.3,-0.75 0.171,-0.401 0.635,-1.907 1.089,-3.542 0.152,-0.55 0.346,-1.13 0.43,-1.289 0.084,-0.16 0.153,-0.511 0.153,-0.782 0,-0.271 0.075,-0.539 0.167,-0.596 0.091,-0.056 0.166,-0.268 0.166,-0.47 0,-0.202 0.15,-0.778 0.334,-1.28 0.183,-0.501 0.333,-1.216 0.333,-1.589 0,-0.373 0.068,-0.749 0.151,-0.836 0.084,-0.087 0.189,-0.533 0.234,-0.991 0.045,-0.459 0.197,-1.434 0.338,-2.167 0.619,-3.232 0.636,-4.635 0.581,-47.833 -0.052,-40.372 -0.067,-42.193 -0.357,-42.776 -0.405,-0.814 -0.475,-0.822 -8.28,-0.951 l -6.417,-0.107 -0.042,-19.53 -0.043,-19.53 -0.622,-0.513 -0.623,-0.513 -16.002,0.065 c -15.368,0.062 -17.644,0.12 -17.993,0.453 -0.087,0.084 -0.35,0.153 -0.583,0.155 -0.234,0.002 -0.613,0.151 -0.842,0.33 -0.229,0.179 -0.529,0.329 -0.667,0.333 -0.137,0.004 -0.437,0.154 -0.666,0.334 -0.229,0.179 -0.484,0.327 -0.567,0.329 -0.166,0.004 -1.54,1.084 -1.941,1.526 -0.142,0.157 -0.667,0.725 -1.167,1.264 -0.5,0.538 -1.171,1.329 -1.492,1.758 -0.71,0.949 -0.684,0.946 -1.151,0.114 -0.971,-1.727 -3.03,-3.794 -4.657,-4.675 -0.61,-0.33 -1.392,-0.761 -1.739,-0.958 -0.346,-0.197 -0.848,-0.358 -1.115,-0.358 -0.267,0 -0.531,-0.075 -0.588,-0.167 -0.057,-0.092 -0.469,-0.167 -0.917,-0.167 -0.447,0 -0.86,-0.075 -0.916,-0.166 -0.068,-0.11 -5.61,-0.167 -16.084,-0.167 -10.473,0 -16.015,0.057 -16.083,0.167 m 32.667,3 c 0.056,0.091 0.319,0.166 0.583,0.166 0.264,0 0.527,0.075 0.583,0.167 0.057,0.092 0.287,0.167 0.512,0.167 0.52,0 1.784,0.59 2.165,1.01 0.16,0.178 0.386,0.323 0.502,0.323 0.699,0 3.738,4.123 3.738,5.071 0,0.345 0.392,0.429 2,0.429 1.779,0 2,-0.071 2,-0.647 0,-1.613 4.435,-6.186 6,-6.186 0.186,0 0.468,-0.066 0.627,-0.147 0.985,-0.497 1.724,-0.52 16.761,-0.52 l 15.28,0 -0.042,18.542 -0.043,18.541 -15.666,0.091 c -16.987,0.099 -16.837,0.09 -18.667,1.028 -0.458,0.235 -1.203,0.604 -1.656,0.821 -1.074,0.514 -2.616,2.063 -3.758,3.774 -0.502,0.753 -0.96,1.37 -1.017,1.37 -0.114,0 -1.438,-1.983 -1.812,-2.716 -0.611,-1.195 -4.577,-3.625 -6.306,-3.863 -0.477,-0.066 -0.909,-0.187 -0.961,-0.27 -0.054,-0.089 -6.698,-0.151 -16.065,-0.151 -14.411,0 -15.983,-0.026 -16.074,-0.264 -0.139,-0.361 -0.129,-36.653 0.01,-36.792 0.187,-0.187 31.19,-0.132 31.306,0.056 M 176.953,26.96 c -3.492,7.022 -4.483,8.942 -4.653,9.012 -0.073,0.031 -0.133,0.156 -0.133,0.278 0,0.122 -0.311,0.809 -0.691,1.527 -0.38,0.719 -0.943,1.781 -1.25,2.362 -0.308,0.58 -0.559,1.162 -0.559,1.292 0,0.129 -0.075,0.236 -0.167,0.236 -0.092,0 -0.167,0.15 -0.167,0.333 0,0.183 -0.075,0.333 -0.166,0.333 -0.092,0 -0.167,0.106 -0.167,0.235 0,0.214 -0.306,0.83 -1.69,3.401 -0.647,1.202 -0.65,1.198 0.83,1.198 l 1.306,0 0.799,-1.542 c 0.439,-0.848 1.435,-2.799 2.214,-4.335 l 1.416,-2.794 6.267,0.044 6.268,0.043 0.78,1.584 c 0.43,0.87 1.04,2.108 1.356,2.75 0.317,0.641 0.931,1.86 1.365,2.708 l 0.79,1.542 1.326,0 c 0.729,0 1.297,-0.057 1.262,-0.125 -0.036,-0.069 -0.346,-0.706 -0.691,-1.416 -0.344,-0.709 -0.681,-1.324 -0.748,-1.366 -0.068,-0.042 -2.694,-5.217 -5.837,-11.501 -4.105,-8.207 -5.792,-11.425 -5.989,-11.424 -0.193,0.002 -1.099,1.662 -3.071,5.625 m 41.464,-4.46 c -0.057,0.092 -0.582,0.167 -1.167,0.167 -0.585,0 -1.11,0.075 -1.167,0.166 -0.056,0.092 -0.246,0.167 -0.421,0.167 -0.175,0 -0.565,0.138 -0.865,0.306 -0.301,0.168 -1.103,0.599 -1.784,0.958 -1.616,0.853 -3.31,2.533 -4.031,3.997 -0.293,0.596 -0.597,1.124 -0.675,1.172 -0.077,0.048 -0.14,0.265 -0.14,0.484 0,0.218 -0.075,0.443 -0.167,0.5 -0.098,0.06 -0.167,1.054 -0.167,2.416 0,1.363 0.069,2.356 0.167,2.417 0.092,0.057 0.167,0.289 0.167,0.517 0,0.227 0.139,0.616 0.309,0.865 0.17,0.248 0.621,0.939 1.001,1.535 1.173,1.835 3.905,3.833 5.242,3.833 0.684,0 0.972,0.505 0.915,1.606 l -0.051,0.977 -3.541,0.045 -3.542,0.045 0,0.817 c 0,1.434 -0.265,1.343 3.934,1.343 l 3.733,0 0,-1.24 c 0,-0.682 0.075,-1.286 0.166,-1.343 0.248,-0.153 0.217,-4.133 -0.033,-4.383 -0.11,-0.11 -0.368,-0.2 -0.573,-0.2 -0.206,0 -0.42,-0.075 -0.477,-0.167 -0.057,-0.092 -0.242,-0.167 -0.413,-0.167 -0.17,0 -0.334,-0.06 -0.365,-0.134 -0.03,-0.074 -0.505,-0.429 -1.055,-0.787 -0.55,-0.359 -1.086,-0.767 -1.19,-0.907 -0.105,-0.14 -0.425,-0.518 -0.713,-0.838 -0.287,-0.321 -0.639,-0.846 -0.782,-1.167 -0.143,-0.321 -0.329,-0.714 -0.413,-0.873 -0.207,-0.392 -0.195,-3.414 0.014,-3.544 0.092,-0.056 0.167,-0.212 0.167,-0.345 0,-0.451 1.753,-2.905 2.076,-2.905 0.049,0 0.522,-0.323 1.049,-0.719 0.527,-0.395 1.258,-0.813 1.625,-0.928 0.367,-0.114 0.817,-0.269 1,-0.343 0.183,-0.074 0.543,-0.219 0.8,-0.322 0.256,-0.103 0.72,-0.188 1.031,-0.188 0.311,0 0.612,-0.075 0.669,-0.166 0.129,-0.209 1.145,-0.217 1.822,-0.013 0.281,0.084 0.966,0.234 1.522,0.333 0.556,0.099 1.321,0.33 1.7,0.513 0.38,0.183 0.773,0.333 0.874,0.333 0.451,0 2.332,1.246 2.332,1.545 0,0.075 0.281,0.44 0.625,0.81 0.788,0.849 1.028,1.278 1.036,1.844 0.003,0.247 0.081,0.495 0.172,0.551 0.097,0.06 0.167,0.971 0.167,2.167 0,1.196 -0.07,2.107 -0.167,2.167 -0.091,0.056 -0.166,0.218 -0.166,0.358 0,0.335 -1.691,2.199 -2.263,2.496 -0.245,0.127 -0.829,0.426 -1.299,0.665 -0.47,0.239 -0.985,0.501 -1.144,0.583 -0.16,0.081 -0.441,0.148 -0.625,0.148 -0.326,0 -0.336,0.103 -0.336,3.583 l 0,3.583 3.833,0 3.834,0 0,-1.079 0,-1.08 -3.292,-0.045 -3.292,-0.046 -0.05,-1.058 c -0.053,-1.133 0.158,-1.499 0.884,-1.528 1.132,-0.045 4.907,-2.989 5.682,-4.431 0.192,-0.357 0.525,-0.949 0.738,-1.316 1.038,-1.781 0.381,-6.79 -1.137,-8.667 -2.062,-2.549 -6.071,-4.916 -8.327,-4.916 -0.469,0 -0.9,-0.075 -0.956,-0.167 -0.057,-0.092 -0.619,-0.167 -1.25,-0.167 -0.631,0 -1.194,0.075 -1.25,0.167 m -35.794,8.499 c 1.216,2.426 2.21,4.544 2.21,4.706 0,0.316 -9.202,0.475 -9.395,0.162 -0.158,-0.254 4.462,-9.364 4.727,-9.32 0.141,0.023 1.199,1.938 2.458,4.452 m -36.645,27.213 c 1.015,1.263 2.086,2.65 2.381,3.084 0.294,0.433 0.58,0.825 0.634,0.871 0.055,0.045 0.357,0.42 0.673,0.833 0.316,0.413 0.671,0.81 0.788,0.883 0.117,0.074 0.213,0.204 0.213,0.29 0,0.168 0.352,0.63 0.958,1.257 0.206,0.214 0.375,0.43 0.375,0.481 0,0.051 1.631,2.112 3.625,4.58 1.994,2.469 4.037,5.017 4.542,5.664 1.22,1.566 1.676,2.136 2.124,2.659 0.207,0.24 0.377,0.511 0.379,0.603 0.003,0.091 0.246,0.442 0.542,0.779 0.296,0.337 1.12,1.35 1.831,2.25 0.711,0.901 2.304,2.905 3.541,4.454 1.237,1.549 2.249,2.875 2.249,2.946 0,0.178 -0.983,0.654 -1.349,0.654 -0.164,0 -0.344,0.075 -0.401,0.167 -0.061,0.098 -1.085,0.166 -2.511,0.166 -2.44,0 -2.818,-0.074 -4.278,-0.847 -0.159,-0.084 -0.397,-0.153 -0.529,-0.153 -0.131,0 -0.863,-0.322 -1.627,-0.717 -0.763,-0.394 -1.726,-0.815 -2.138,-0.936 -0.413,-0.12 -0.9,-0.281 -1.083,-0.357 -2.455,-1.026 -7.204,-1.561 -10.483,-1.181 -0.926,0.108 -1.909,0.213 -2.184,0.235 l -0.5,0.04 -0.043,-15.334 c -0.024,-8.433 -0.005,-15.433 0.042,-15.555 0.141,-0.37 0.314,-0.2 2.229,2.184 m 110.148,13.246 -0.043,15.625 -1.416,-0.059 c -0.78,-0.032 -1.494,-0.121 -1.588,-0.198 -0.313,-0.254 -3.448,-0.357 -4.829,-0.159 -0.733,0.105 -1.821,0.229 -2.417,0.275 -0.596,0.047 -1.154,0.154 -1.241,0.238 -0.087,0.084 -0.332,0.153 -0.544,0.153 -0.212,0 -0.516,0.067 -0.675,0.148 -0.521,0.264 -1.11,0.498 -1.912,0.758 -0.715,0.231 -3.288,1.367 -4,1.766 -0.16,0.089 -0.369,0.162 -0.467,0.162 -0.097,0 -0.487,0.15 -0.867,0.333 -0.733,0.354 -5.33,0.513 -5.529,0.191 -0.077,-0.126 2.427,-3.979 2.724,-4.191 0.064,-0.046 0.37,-0.458 0.679,-0.917 0.31,-0.458 0.624,-0.858 0.698,-0.889 0.074,-0.03 0.134,-0.12 0.134,-0.2 0,-0.135 1.452,-2.309 1.665,-2.494 0.053,-0.046 0.466,-0.608 0.918,-1.25 0.825,-1.171 1.762,-2.447 2.144,-2.92 0.113,-0.14 0.461,-0.628 0.774,-1.084 0.532,-0.775 0.65,-0.935 1.083,-1.46 0.092,-0.112 0.354,-0.483 0.583,-0.827 0.229,-0.343 0.473,-0.624 0.542,-0.625 0.068,0 0.125,-0.107 0.125,-0.237 0,-0.13 0.06,-0.261 0.133,-0.291 0.074,-0.031 0.502,-0.581 0.952,-1.223 0.45,-0.641 1.065,-1.466 1.365,-1.833 0.947,-1.154 3.216,-4.27 3.216,-4.416 0,-0.077 0.057,-0.165 0.125,-0.195 0.142,-0.063 1.103,-1.339 2.293,-3.046 0.444,-0.637 0.904,-1.274 1.022,-1.417 0.119,-0.143 0.936,-1.234 1.818,-2.426 1.702,-2.302 2.216,-2.917 2.439,-2.917 0.076,0 0.119,7.032 0.096,15.625 m -76.549,-8.515 c 0.064,0.337 0.41,1.046 0.769,1.576 0.567,0.834 0.654,1.086 0.654,1.889 0,1.038 0.387,1.321 0.583,0.425 0.253,-1.149 1.254,0.139 1.243,1.599 -0.027,3.807 -5.803,4.613 -6.814,0.951 -0.216,-0.781 0.355,-1.336 0.738,-0.716 0.057,0.091 0.305,0.165 0.552,0.164 0.246,-0.002 0.366,-0.058 0.266,-0.125 -0.736,-0.495 -0.893,-2.566 -0.287,-3.789 1.29,-2.609 2.054,-3.265 2.296,-1.974 m 13.388,-0.346 c 0.125,0.83 0.24,1.084 0.793,1.745 0.912,1.092 1.365,2.459 0.909,2.741 -0.212,0.131 -0.218,0.417 -0.008,0.417 0.087,0 0.283,-0.263 0.436,-0.583 0.342,-0.722 0.447,-0.725 0.98,-0.026 0.989,1.296 -0.231,4.609 -1.697,4.609 -0.149,0 -0.519,0.09 -0.821,0.199 -1.528,0.552 -3.57,-0.816 -3.967,-2.657 -0.136,-0.634 0.354,-0.763 1.05,-0.275 0.466,0.326 0.619,0.216 0.363,-0.262 -0.911,-1.702 -0.59,-3.407 1.058,-5.624 0.546,-0.735 0.823,-0.822 0.904,-0.284 m 27.284,0.232 c 0.062,0.365 0.288,0.909 0.503,1.209 0.947,1.322 1.274,2.04 1.215,2.67 -0.033,0.344 -0.02,0.624 0.029,0.623 0.221,-0.007 0.471,-0.276 0.526,-0.567 0.223,-1.169 1.027,0.035 1.027,1.538 0,2.922 -3.312,4.579 -5.558,2.781 -1.531,-1.225 -1.593,-3.313 -0.068,-2.314 0.508,0.333 0.529,0.118 0.077,-0.769 -0.611,-1.198 -0.407,-2.274 0.857,-4.5 0.279,-0.492 1.013,-1.326 1.17,-1.33 0.061,-0.002 0.161,0.295 0.222,0.659 M 206.577,62.51 c -0.162,0.263 0.229,1.133 0.933,2.073 0.344,0.459 0.719,1.153 0.834,1.544 0.192,0.651 0.233,0.688 0.491,0.455 0.526,-0.476 1.165,0.406 1.165,1.609 0,3.803 -5.156,5 -6.605,1.534 -0.482,-1.155 -0.211,-1.483 0.795,-0.963 0.665,0.344 0.732,0.239 0.318,-0.497 -0.764,-1.36 -0.161,-3.968 1.261,-5.452 0.435,-0.454 1.042,-0.682 0.808,-0.303 m -25.165,10.382 c 0.339,0.249 0.276,4.006 -0.099,5.858 -0.093,0.458 -0.239,1.621 -0.324,2.583 -0.085,0.963 -0.233,2.388 -0.329,3.167 -0.096,0.779 -0.238,2.092 -0.316,2.917 -0.258,2.719 -0.433,3.166 -1.197,3.054 -0.381,-0.056 -0.404,-0.115 -0.962,-2.515 C 178.083,87.519 178,86.492 178,85.674 c 0,-0.818 -0.064,-1.527 -0.142,-1.576 -0.181,-0.111 -0.475,-3.444 -0.796,-9.023 -0.139,-2.424 -0.154,-2.408 2.251,-2.408 1.243,0 1.884,0.069 2.099,0.225 m 13.586,0.022 c 0.231,0.278 0.135,4.022 -0.159,6.253 -0.091,0.687 -0.239,2.075 -0.328,3.083 -0.09,1.008 -0.202,2.058 -0.249,2.333 -0.047,0.275 -0.208,1.588 -0.357,2.917 -0.318,2.836 -0.395,3.039 -1.124,2.968 -0.478,-0.046 -0.542,-0.118 -0.639,-0.718 -0.06,-0.367 -0.187,-1.117 -0.284,-1.667 -0.156,-0.895 -0.448,-3.617 -0.884,-8.25 -0.283,-3.005 -0.355,-6.659 -0.135,-6.923 0.294,-0.355 3.864,-0.351 4.159,0.004 m 13.513,-0.075 c 0.448,0.24 0.423,1.612 -0.116,6.328 -0.236,2.062 -0.495,4.612 -0.576,5.666 -0.081,1.055 -0.227,2.404 -0.323,3 -0.097,0.596 -0.229,1.421 -0.294,1.834 -0.117,0.739 -0.128,0.75 -0.818,0.8 -0.796,0.058 -0.78,0.094 -0.959,-2.217 -0.05,-0.642 -0.172,-1.842 -0.272,-2.667 -0.1,-0.825 -0.248,-2.25 -0.329,-3.166 -0.082,-0.917 -0.22,-2.455 -0.308,-3.417 -0.389,-4.27 -0.416,-5.742 -0.111,-6.048 0.332,-0.332 3.532,-0.42 4.106,-0.113 m 13.644,-0.016 c 0.328,0.207 0.414,1.803 0.18,3.344 -0.105,0.687 -0.257,2.075 -0.337,3.083 -0.081,1.008 -0.229,2.508 -0.33,3.333 -0.101,0.825 -0.247,2.288 -0.324,3.25 -0.308,3.822 -0.561,4.667 -1.4,4.667 -0.736,0 -0.944,-0.609 -0.944,-2.77 0,-0.915 -0.063,-1.735 -0.14,-1.822 -0.19,-0.215 -0.765,-6.523 -0.972,-10.665 -0.13,-2.615 -0.163,-2.577 2.249,-2.574 0.979,0.002 1.887,0.071 2.018,0.154 m -1.584,26.939 c 0.235,0.234 0.262,1.835 0.262,15.125 -0.001,17.158 -0.021,17.497 -1.177,19.655 -0.204,0.382 -0.367,0.716 -0.787,1.625 -1.359,2.933 -1.721,3.54 -3.194,5.34 -1.146,1.402 -1.91,2.048 -4.342,3.674 -3.219,2.152 -4.565,2.686 -8.166,3.237 -4.707,0.72 -10.593,-0.241 -13.353,-2.182 -0.446,-0.313 -0.864,-0.569 -0.928,-0.569 -0.146,0 -1.408,-0.849 -1.636,-1.1 -0.092,-0.101 -0.467,-0.398 -0.833,-0.66 -2.091,-1.492 -3.946,-3.783 -5.189,-6.407 -0.782,-1.651 -1.061,-2.358 -1.061,-2.682 0,-0.187 -0.147,-0.691 -0.327,-1.12 -0.18,-0.43 -0.532,-1.531 -0.783,-2.448 l -0.455,-1.667 -0.062,-14.827 c -0.058,-13.986 -0.045,-14.84 0.231,-15.042 0.489,-0.357 41.442,-0.31 41.8,0.048 m -68.904,0.07 c 1.028,0.117 1.68,0.3 2.377,0.665 0.529,0.277 1.054,0.504 1.167,0.505 0.113,0.002 0.881,0.347 1.706,0.767 2.479,1.262 4.81,2.064 5.998,2.064 0.311,0 0.612,0.075 0.668,0.167 0.13,0.21 6.527,0.227 6.656,0.018 0.05,-0.081 0.336,-0.188 0.634,-0.238 1.061,-0.175 1.561,-0.324 3.007,-0.892 0.805,-0.317 1.668,-0.552 1.917,-0.524 l 0.453,0.053 0.044,5.423 0.044,5.423 -0.544,0.592 c -0.955,1.04 -4.168,3.145 -4.799,3.145 -0.181,0 -0.328,0.075 -0.328,0.167 0,0.091 -0.146,0.166 -0.324,0.166 -0.178,0 -0.37,0.075 -0.426,0.167 -0.057,0.092 -0.271,0.167 -0.477,0.167 -0.205,0 -0.453,0.079 -0.55,0.176 -0.485,0.485 -5.395,-0.005 -6.414,-0.64 -1.9,-1.185 -4.629,-2.296 -6.52,-2.654 -0.253,-0.048 -0.501,-0.154 -0.551,-0.235 -0.05,-0.081 -0.447,-0.147 -0.882,-0.147 -0.434,0 -0.867,-0.078 -0.962,-0.173 -0.201,-0.201 -8.208,-0.13 -8.937,0.08 -0.963,0.277 -0.957,0.316 -0.957,-6.428 0,-7.033 -0.123,-6.482 1.611,-7.249 1.569,-0.694 3.658,-0.878 6.389,-0.565 m 101.833,0.249 c 2.911,1.083 2.683,0.404 2.629,7.836 l -0.046,6.166 -0.655,0.054 c -0.361,0.029 -0.811,-0.03 -1,-0.131 -0.658,-0.352 -9.25,-0.079 -10.178,0.324 -0.183,0.08 -0.558,0.191 -0.833,0.248 -1.184,0.245 -1.72,0.398 -2.584,0.738 -1.171,0.462 -2.955,1.331 -3.525,1.717 -0.244,0.165 -0.585,0.3 -0.759,0.3 -0.173,0 -0.387,0.063 -0.474,0.14 -0.381,0.336 -2.07,0.552 -3.742,0.477 -2.638,-0.118 -3.014,-0.217 -4.981,-1.319 -1.184,-0.663 -1.952,-1.267 -3.295,-2.593 l -0.89,-0.879 0.002,-5.288 c 0.003,-5.763 0.019,-5.864 0.86,-5.582 2.08,0.695 3.596,1.24 3.844,1.38 0.159,0.091 0.511,0.164 0.782,0.164 0.27,0 0.538,0.075 0.595,0.167 0.13,0.21 6.36,0.227 6.489,0.018 0.051,-0.082 0.374,-0.192 0.718,-0.244 0.345,-0.052 0.926,-0.141 1.293,-0.197 0.367,-0.057 0.903,-0.21 1.192,-0.34 0.289,-0.13 0.641,-0.237 0.782,-0.237 0.141,0 0.303,-0.075 0.359,-0.167 0.057,-0.091 0.216,-0.166 0.354,-0.166 0.138,0 0.715,-0.216 1.282,-0.48 1.726,-0.803 2.605,-1.187 2.717,-1.187 0.059,0 0.579,-0.233 1.156,-0.517 1.736,-0.854 6.096,-1.076 7.908,-0.402 m -100.966,26.961 c 0.431,0.121 0.837,0.273 0.902,0.339 0.066,0.065 0.275,0.119 0.464,0.119 0.19,0 1.321,0.477 2.514,1.06 1.193,0.582 2.619,1.232 3.169,1.442 0.55,0.211 1.072,0.447 1.159,0.524 0.087,0.077 0.439,0.141 0.781,0.141 0.343,0 0.67,0.075 0.727,0.166 0.063,0.103 1.419,0.167 3.512,0.167 1.941,0 3.552,-0.072 3.74,-0.167 0.182,-0.091 0.48,-0.241 0.662,-0.333 0.182,-0.092 0.472,-0.167 0.645,-0.167 0.272,0 2.131,-0.823 3.108,-1.376 2.091,-1.184 2.416,-1.179 2.416,0.035 0,0.46 0.075,1.175 0.167,1.589 0.092,0.414 0.244,1.109 0.337,1.544 0.27,1.249 0.7,2.577 1.025,3.167 0.331,0.6 0.391,0.406 -0.704,2.291 -0.616,1.062 -1.895,2.619 -2.647,3.222 -0.917,0.736 -2.851,2.028 -3.035,2.028 -0.08,0 -0.464,0.143 -0.853,0.318 -1.106,0.498 -1.578,0.573 -3.54,0.563 -1.96,-0.01 -3.235,-0.155 -3.491,-0.398 -0.087,-0.082 -0.28,-0.149 -0.427,-0.149 -0.148,0 -0.58,-0.15 -0.959,-0.334 -0.379,-0.183 -0.753,-0.333 -0.83,-0.333 -0.077,0 -0.955,-0.413 -1.952,-0.917 -0.997,-0.504 -1.983,-0.916 -2.192,-0.916 -0.208,0 -0.425,-0.075 -0.482,-0.167 -0.057,-0.092 -0.267,-0.168 -0.468,-0.169 -0.201,-10e-4 -0.678,-0.111 -1.06,-0.245 -1.612,-0.561 -4.916,-0.771 -8.139,-0.517 -1.927,0.151 -3.059,0.179 -3.166,0.075 -0.105,-0.1 -0.167,-2.244 -0.167,-5.756 l 0,-5.595 1.272,-0.658 c 1.884,-0.973 5.219,-1.237 7.512,-0.593 m 100.779,0.044 c 0.84,0.3 2.136,0.995 2.562,1.373 0.314,0.279 0.386,5.055 0.145,9.541 l -0.103,1.917 -0.5,-0.022 c -0.275,-0.012 -1.53,-0.157 -2.789,-0.323 -2.885,-0.38 -5.624,-0.177 -8.545,0.634 -0.366,0.102 -0.738,0.247 -0.825,0.323 -0.087,0.076 -0.297,0.138 -0.466,0.138 -0.169,0 -0.619,0.15 -0.998,0.333 -0.379,0.183 -0.816,0.333 -0.97,0.333 -0.247,0 -1.34,0.489 -3.381,1.512 -0.353,0.177 -0.822,0.322 -1.042,0.322 -0.221,0 -0.401,0.075 -0.401,0.166 0,0.092 -0.371,0.167 -0.823,0.167 -0.453,0 -0.87,0.075 -0.927,0.167 -0.058,0.094 -0.887,0.166 -1.917,0.166 -1.029,0 -1.858,-0.072 -1.916,-0.166 -0.057,-0.092 -0.319,-0.167 -0.584,-0.167 -0.264,0 -0.52,-0.065 -0.57,-0.145 -0.049,-0.08 -0.33,-0.193 -0.624,-0.252 -0.294,-0.059 -1.047,-0.481 -1.673,-0.938 -0.627,-0.458 -1.18,-0.832 -1.229,-0.832 -0.568,0 -3.57,-3.626 -3.57,-4.31 0,-0.196 -0.075,-0.356 -0.167,-0.356 -0.092,0 -0.167,-0.258 -0.167,-0.574 0,-0.315 0.075,-0.62 0.167,-0.676 0.092,-0.057 0.167,-0.287 0.167,-0.512 0,-0.225 0.073,-0.54 0.162,-0.699 0.337,-0.601 0.689,-2.172 0.788,-3.513 0.123,-1.681 0.222,-1.747 1.553,-1.038 0.545,0.29 1.386,0.599 1.869,0.686 0.483,0.087 1.215,0.246 1.628,0.354 0.986,0.258 8.656,0.382 8.894,0.144 0.095,-0.095 0.383,-0.172 0.641,-0.172 0.258,0 0.599,-0.071 0.759,-0.158 0.159,-0.087 0.926,-0.393 1.706,-0.68 0.779,-0.288 1.745,-0.705 2.146,-0.926 0.401,-0.222 0.833,-0.403 0.96,-0.403 0.127,0 0.362,-0.066 0.521,-0.146 1.278,-0.644 1.777,-0.854 2.027,-0.854 0.16,0 0.346,-0.056 0.415,-0.125 0.673,-0.674 5.451,-0.87 7.077,-0.289 M 151.5,152.742 c 0.596,0.131 1.721,0.512 2.5,0.849 0.779,0.336 1.585,0.649 1.792,0.696 0.206,0.047 0.375,0.151 0.375,0.232 0,0.081 0.113,0.148 0.251,0.148 0.139,0 0.57,0.141 0.959,0.314 0.388,0.173 1.156,0.48 1.706,0.683 0.55,0.203 1.15,0.431 1.334,0.508 0.183,0.077 0.783,0.189 1.333,0.25 0.55,0.06 1.086,0.181 1.192,0.268 0.446,0.365 7.742,-0.015 9.391,-0.49 2.366,-0.682 3.12,-0.916 3.373,-1.049 0.159,-0.083 0.404,-0.151 0.544,-0.151 0.24,0 0.902,-0.31 1.083,-0.507 0.833,-0.908 2.064,-0.94 1.372,-0.036 -0.264,0.344 -0.779,1.039 -1.144,1.543 -1.474,2.034 -1.639,2.257 -1.805,2.44 -0.386,0.424 -0.756,0.902 -0.756,0.977 0,0.081 -0.419,0.613 -0.792,1.006 -0.114,0.121 -0.208,0.261 -0.208,0.311 0,0.084 -0.756,1.096 -3.996,5.349 -0.698,0.917 -1.509,2.018 -1.803,2.446 -0.293,0.429 -0.627,0.879 -0.742,1 -0.115,0.122 -0.397,0.502 -0.626,0.845 -0.229,0.343 -0.473,0.624 -0.541,0.625 -0.069,0 -0.125,0.107 -0.125,0.237 0,0.13 -0.057,0.261 -0.125,0.292 -0.069,0.03 -0.405,0.43 -0.746,0.889 -0.342,0.458 -0.682,0.908 -0.755,1 -0.073,0.091 -0.315,0.429 -0.537,0.75 -0.223,0.32 -0.446,0.62 -0.496,0.666 -0.05,0.046 -0.466,0.588 -0.925,1.205 -1.063,1.429 -1.257,1.436 -2.566,0.087 -2.236,-2.304 -6.017,-6.978 -6.017,-7.44 0,-0.102 -0.067,-0.185 -0.148,-0.185 -0.082,0 -0.304,-0.332 -0.495,-0.737 -0.191,-0.405 -0.424,-0.785 -0.519,-0.843 -0.095,-0.059 -0.322,-0.421 -0.505,-0.805 -0.183,-0.384 -0.557,-1.073 -0.83,-1.532 -0.697,-1.169 -2.602,-5.078 -3.004,-6.166 -0.068,-0.184 -0.276,-0.671 -0.462,-1.084 -0.948,-2.1 -1.558,-4.17 -1.342,-4.555 0.202,-0.362 3.209,-0.384 4.805,-0.036 m 101.054,0.024 c 0.926,0.315 0.958,0.486 0.361,1.904 -0.23,0.546 -0.533,1.35 -0.675,1.787 -0.322,0.993 -0.378,1.127 -1.236,2.96 -0.884,1.885 -1.496,3.213 -1.729,3.75 -0.1,0.229 -0.39,0.73 -0.645,1.113 -0.255,0.383 -0.463,0.777 -0.463,0.875 0,0.098 -0.075,0.178 -0.167,0.178 -0.092,0 -0.167,0.073 -0.167,0.161 0,0.302 -2.079,3.347 -2.375,3.478 -0.068,0.031 -0.125,0.13 -0.125,0.221 0,0.473 -3.468,4.754 -5.814,7.178 -1.045,1.079 -1.097,1.11 -1.407,0.833 -0.294,-0.263 -2.997,-3.825 -3.95,-5.204 -0.221,-0.321 -0.573,-0.77 -0.782,-0.998 -0.209,-0.229 -0.38,-0.461 -0.38,-0.516 0,-0.056 -0.131,-0.257 -0.292,-0.447 -0.16,-0.19 -0.441,-0.551 -0.625,-0.803 -0.183,-0.252 -0.415,-0.54 -0.515,-0.641 -0.099,-0.102 -0.212,-0.267 -0.25,-0.368 -0.037,-0.101 -0.352,-0.512 -0.699,-0.914 -0.761,-0.881 -4.952,-6.44 -4.952,-6.569 0,-0.05 -0.157,-0.257 -0.349,-0.459 -0.192,-0.203 -0.583,-0.706 -0.867,-1.118 -0.285,-0.413 -0.597,-0.836 -0.693,-0.94 -0.096,-0.105 -0.325,-0.398 -0.508,-0.653 -0.183,-0.254 -0.427,-0.557 -0.542,-0.673 -0.114,-0.116 -0.208,-0.272 -0.209,-0.347 0,-0.076 -0.209,-0.362 -0.463,-0.637 -1.74,-1.879 -1.591,-2.313 0.446,-1.307 0.68,0.336 1.505,0.666 1.835,0.734 0.33,0.068 0.825,0.205 1.1,0.304 0.725,0.262 2.688,0.794 3.75,1.017 1.142,0.239 6.668,0.135 8.083,-0.153 1.214,-0.246 2.275,-0.535 2.5,-0.679 0.092,-0.058 0.504,-0.203 0.917,-0.322 0.412,-0.119 0.918,-0.282 1.125,-0.363 0.845,-0.333 1.307,-0.528 1.581,-0.667 0.159,-0.081 0.404,-0.148 0.544,-0.148 0.14,0 0.384,-0.07 0.544,-0.157 2.898,-1.571 6.022,-2.116 8.093,-1.41 m -66.147,8.604 c 0.143,0.204 0.26,0.494 0.26,0.645 0,0.151 0.139,0.64 0.309,1.088 0.171,0.447 0.557,1.587 0.858,2.533 0.808,2.538 0.468,2.356 4.497,2.405 4.048,0.05 4.148,0.107 2.456,1.398 -3.352,2.558 -4.44,3.494 -4.447,3.825 -0.007,0.356 0.464,2.071 0.934,3.403 0.145,0.412 0.322,1.012 0.393,1.333 0.07,0.321 0.239,0.883 0.374,1.25 0.6,1.63 0.066,1.501 -2.765,-0.667 -1.077,-0.825 -2.228,-1.705 -2.557,-1.957 l -0.599,-0.457 -0.602,0.368 c -0.331,0.202 -1.351,0.965 -2.268,1.694 -2.829,2.25 -3.524,2.592 -3.325,1.634 0.158,-0.758 0.93,-3.25 1.187,-3.829 0.133,-0.302 0.345,-0.939 0.47,-1.417 0.125,-0.478 0.276,-0.995 0.336,-1.149 0.099,-0.254 -0.943,-1.47 -1.261,-1.47 -0.058,0 -0.269,-0.141 -0.468,-0.314 -0.2,-0.173 -0.623,-0.492 -0.941,-0.709 -0.319,-0.216 -0.58,-0.45 -0.58,-0.519 -0.001,-0.068 -0.08,-0.125 -0.177,-0.125 -0.23,0 -2.491,-1.805 -2.491,-1.989 0,-0.291 0.615,-0.344 4.016,-0.344 l 3.489,0 0.268,-0.625 c 0.147,-0.344 0.334,-0.755 0.414,-0.914 0.08,-0.16 0.146,-0.472 0.146,-0.695 0,-0.223 0.15,-0.755 0.334,-1.183 0.183,-0.427 0.333,-0.901 0.333,-1.052 0,-0.412 0.841,-2.531 1.005,-2.531 0.079,0 0.26,0.167 0.402,0.37 m 27.92,0.088 c 0.297,0.638 1.34,3.823 1.34,4.092 0,0.121 0.15,0.531 0.333,0.911 0.183,0.379 0.333,0.797 0.333,0.927 0,0.517 0.457,0.593 3.867,0.644 4.22,0.063 4.255,0.085 2.367,1.48 -0.467,0.345 -0.955,0.73 -1.083,0.856 -0.129,0.125 -0.534,0.45 -0.901,0.721 -0.366,0.272 -0.891,0.7 -1.166,0.952 -0.275,0.252 -0.555,0.458 -0.621,0.458 -0.395,0.003 -0.645,0.828 -0.465,1.53 0.265,1.032 0.807,2.891 1.183,4.054 0.727,2.251 0.375,2.709 -1.15,1.499 -0.521,-0.413 -1.022,-0.808 -1.114,-0.876 -0.757,-0.569 -1.732,-1.345 -2.045,-1.629 -0.208,-0.188 -0.596,-0.471 -0.863,-0.629 l -0.484,-0.286 -1.054,0.827 c -4.969,3.896 -5.368,4.051 -4.704,1.822 0.146,-0.492 0.454,-1.532 0.685,-2.311 0.23,-0.779 0.563,-1.796 0.74,-2.261 0.39,-1.022 0.341,-1.164 -0.657,-1.905 -0.432,-0.32 -1.347,-1.037 -2.035,-1.592 -0.687,-0.556 -1.643,-1.294 -2.125,-1.64 -1.448,-1.044 -1.296,-1.097 3.158,-1.1 3.85,-0.002 3.467,0.21 4.297,-2.377 0.302,-0.939 0.688,-2.075 0.859,-2.522 0.171,-0.448 0.311,-0.937 0.311,-1.088 0,-0.821 0.69,-1.208 0.994,-0.557"
       inkscape:connector-curvature="0"
       style="fill:#0140ae;fill-rule:evenodd;stroke:none"
       sodipodi:nodetypes="csccccsccscccscccccscsccsccscssssccsccccscscsscscsccccssccsscccsccccccscccccccscscsccccccccccccccsccsccccccssscsccscscssssscscccccccscccscscccsccssssscsccccccccccscccccccscsccccscscsccsccccsscscssssccccsccssccscsccscsscccscscscssccccccccccccscsccsccccccscscsccccscssscscsccccsccccccccccsscccscccccscccccccscccsccccscccscccccccccccsccscccccccccccsccccccccccsccccccccscccsccsccccsccccccccccccccscccccccscssccccccccccccscccsccccccccccscccccccccssscssccssscssccccccccccsccccccccsccccsscscsccccsccsscscsscssccccscscscssssscccscccccsccccsssscssscscscscsssscscccscsscccscscccccsscscccccsccccscscccscsccccsccssscsccccccccccsssscsccccscccccsccccccccscccccccscccscccccccccccccccscscccssscccscssccscsccccsccccccccccccccccccsc" />
  </g>
</svg>
