<?xml version="1.0" encoding="UTF-8" standalone="no"?>
<svg
   xmlns:dc="http://purl.org/dc/elements/1.1/"
   xmlns:cc="http://creativecommons.org/ns#"
   xmlns:rdf="http://www.w3.org/1999/02/22-rdf-syntax-ns#"
   xmlns:svg="http://www.w3.org/2000/svg"
   xmlns="http://www.w3.org/2000/svg"
   xmlns:sodipodi="http://sodipodi.sourceforge.net/DTD/sodipodi-0.dtd"
   xmlns:inkscape="http://www.inkscape.org/namespaces/inkscape"
   id="svg"
   version="1.1"
   width="400.01999"
   height="873.34247"
   style="display:block"
   sodipodi:docname="uchile.svg"
   inkscape:version="0.92.1 r15371">
  <metadata
     id="metadata13">
    <rdf:RDF>
      <cc:Work
         rdf:about="">
        <dc:format>image/svg+xml</dc:format>
        <dc:type
           rdf:resource="http://purl.org/dc/dcmitype/StillImage" />
        <dc:title></dc:title>
      </cc:Work>
    </rdf:RDF>
  </metadata>
  <defs
     id="defs11" />
  <sodipodi:namedview
     pagecolor="#ffffff"
     bordercolor="#666666"
     borderopacity="1"
     objecttolerance="10"
     gridtolerance="10"
     guidetolerance="10"
     inkscape:pageopacity="0"
     inkscape:pageshadow="2"
     inkscape:window-width="640"
     inkscape:window-height="480"
     id="namedview9"
     showgrid="false"
     fit-margin-top="0"
     fit-margin-left="0"
     fit-margin-right="0"
     fit-margin-bottom="0"
     inkscape:zoom="0.236"
     inkscape:cx="229.011"
     inkscape:cy="373.34247"
     inkscape:window-x="0"
     inkscape:window-y="0"
     inkscape:window-maximized="0"
     inkscape:current-layer="svg" />
  <g
     id="svgg"
     transform="translate(0.011)">
    <path
       id="path0"
       d="m 195.633,49.73 c 0,29.448 -0.329,49.933 -0.806,50.228 -0.443,0.275 -1.064,1.673 -1.379,3.109 -0.316,1.435 -0.843,2.61 -1.172,2.61 -0.65,0 -3.63,6.456 -3.63,7.866 0,0.477 -0.393,0.867 -0.873,0.867 -0.48,0 -0.873,-0.589 -0.873,-1.31 0,-0.72 -0.357,-1.31 -0.792,-1.31 -0.435,0 -1.062,-1.965 -1.392,-4.366 -0.33,-2.402 -0.957,-4.367 -1.392,-4.367 -0.435,0 -0.791,-0.983 -0.791,-2.184 0,-1.201 -0.309,-2.183 -0.686,-2.183 -0.377,0 -1.173,-2.26 -1.768,-5.022 -0.596,-2.762 -1.315,-6.102 -1.597,-7.423 -0.283,-1.321 -0.826,-2.402 -1.207,-2.402 -0.38,0 -0.962,-1.966 -1.293,-4.368 -0.33,-2.402 -0.956,-4.147 -1.392,-3.878 -0.435,0.269 -0.791,-0.714 -0.791,-2.183 0,-1.469 -0.343,-2.672 -0.762,-2.672 -0.419,0 -1.013,-1.572 -1.32,-3.493 -0.925,-5.786 -6.651,-5.366 -6.651,0.488 0,2.19 0.348,3.767 0.773,3.503 0.426,-0.263 1.044,1.679 1.373,4.316 0.33,2.636 0.964,4.793 1.41,4.793 0.446,0 0.81,0.983 0.81,2.184 0,1.201 0.356,2.183 0.792,2.183 0.435,0 1.061,1.965 1.392,4.367 0.33,2.402 0.956,4.367 1.392,4.367 0.435,0 0.791,0.982 0.791,2.183 0,1.201 0.356,2.184 0.792,2.184 0.435,0 1.061,1.965 1.392,4.366 0.33,2.402 0.956,4.367 1.392,4.367 0.435,0 0.791,1.156 0.791,2.569 0,1.412 0.348,2.783 0.773,3.046 0.424,0.262 1.037,2.242 1.36,4.398 0.323,2.156 0.984,4.165 1.468,4.464 1.058,0.654 0.693,5.658 -0.511,7.008 -0.94,1.054 -3.09,-0.483 -3.09,-2.208 0,-0.515 -0.367,-0.936 -0.815,-0.936 -0.448,0 -1.035,-0.688 -1.304,-1.529 -0.27,-0.84 -1.476,-2.67 -2.679,-4.066 -1.204,-1.395 -2.189,-2.771 -2.19,-3.056 -0.001,-0.286 -0.983,-1.661 -2.183,-3.057 -1.201,-1.396 -2.183,-3.04 -2.183,-3.653 0,-0.613 -0.786,-1.365 -1.746,-1.67 -0.961,-0.305 -1.747,-1.259 -1.747,-2.12 0,-0.861 -0.983,-2.303 -2.184,-3.205 -1.201,-0.902 -2.183,-2.075 -2.183,-2.606 0,-0.532 -0.985,-2.109 -2.189,-3.505 -1.203,-1.396 -2.409,-3.225 -2.679,-4.066 -0.269,-0.841 -0.856,-1.528 -1.304,-1.528 -0.448,0 -0.815,-0.447 -0.815,-0.992 0,-0.545 -0.982,-1.902 -2.183,-3.015 -1.201,-1.113 -2.184,-2.435 -2.184,-2.939 0,-0.503 -0.688,-1.632 -1.528,-2.509 -2.517,-2.625 -5.459,-6.596 -5.459,-7.368 0,-0.398 -0.982,-1.706 -2.183,-2.907 -1.201,-1.201 -2.183,-2.611 -2.183,-3.133 0,-0.523 -0.885,-1.717 -1.966,-2.654 -1.08,-0.938 -2.014,-2.064 -2.074,-2.504 -0.06,-0.44 -0.158,-1.167 -0.218,-1.615 -0.06,-0.448 -0.895,-1.064 -1.856,-1.369 -0.966,-0.306 -1.747,-1.321 -1.747,-2.269 0,-0.944 -0.589,-1.942 -1.31,-2.218 -0.72,-0.277 -1.31,-0.882 -1.31,-1.345 0,-0.464 -0.491,-1.39 -1.092,-2.06 -2.371,-2.645 -3.275,-3.847 -3.275,-4.36 0,-0.295 -0.491,-1.084 -1.091,-1.754 -2.592,-2.89 -3.275,-3.877 -3.275,-4.734 0,-0.501 -0.332,-0.91 -0.736,-0.91 -0.405,0 -1.477,-1.376 -2.382,-3.057 -0.906,-1.681 -1.929,-3.057 -2.274,-3.057 -0.344,0 -1.142,-1.081 -1.772,-2.402 -1.345,-2.819 -5.014,-3.636 -7.075,-1.575 -0.746,0.746 -1.778,1.357 -2.293,1.357 -0.515,0 -0.936,1.179 -0.936,2.62 0,1.441 0.304,2.62 0.675,2.62 0.371,0 1.416,1.376 2.321,3.057 0.905,1.681 1.888,3.057 2.183,3.057 0.296,0 1.278,1.375 2.184,3.057 0.905,1.681 1.977,3.056 2.382,3.056 0.405,0 0.736,0.561 0.736,1.247 0,0.686 0.982,2.019 2.183,2.964 1.201,0.945 2.183,2.361 2.183,3.148 0,0.786 0.541,1.637 1.201,1.89 0.66,0.254 1.928,1.813 2.818,3.466 0.891,1.653 1.923,3.006 2.294,3.006 0.371,0 0.674,0.613 0.674,1.361 0,0.749 0.351,1.145 0.781,0.88 0.429,-0.265 1.026,0.497 1.326,1.695 0.301,1.198 0.932,2.177 1.403,2.177 0.472,0 0.857,0.59 0.857,1.31 0,0.721 0.308,1.31 0.685,1.31 0.377,0 1.414,1.234 2.304,2.741 0.891,1.508 2.164,3.374 2.831,4.149 4.754,5.525 5.534,6.576 5.534,7.456 0,0.544 0.786,1.556 1.747,2.248 0.96,0.693 1.746,1.744 1.746,2.337 0,0.592 0.983,2.06 2.184,3.261 1.201,1.201 2.183,2.597 2.183,3.102 0,0.505 0.983,1.773 2.184,2.817 1.2,1.044 2.183,2.43 2.183,3.079 0,0.649 0.589,1.406 1.31,1.682 0.721,0.277 1.31,0.956 1.31,1.51 0,0.554 0.983,2.067 2.183,3.362 1.201,1.295 2.184,2.765 2.184,3.266 0,0.502 0.366,0.912 0.814,0.912 0.448,0 1.042,0.717 1.32,1.593 0.278,0.876 1.192,2.349 2.031,3.275 0.839,0.925 2.272,2.861 3.185,4.302 0.912,1.441 2.186,2.935 2.831,3.319 0.645,0.384 1.173,1.246 1.173,1.915 0,0.67 0.713,1.731 1.585,2.359 0.873,0.627 1.843,1.829 2.156,2.669 0.974,2.61 -6.202,2.098 -9.171,-0.655 -1.295,-1.201 -2.585,-2.183 -2.866,-2.183 -0.491,0 -1.716,-0.925 -4.336,-3.275 -0.67,-0.601 -1.459,-1.092 -1.755,-1.092 -0.295,0 -1.596,-0.983 -2.892,-2.183 -1.295,-1.201 -2.672,-2.184 -3.06,-2.184 -0.388,0 -1.616,-0.982 -2.729,-2.183 -1.113,-1.201 -2.47,-2.184 -3.015,-2.184 -0.545,0 -0.992,-0.385 -0.992,-0.856 0,-0.472 -0.979,-1.103 -2.177,-1.404 -1.198,-0.3 -1.96,-0.897 -1.695,-1.326 0.265,-0.429 0.049,-0.781 -0.481,-0.781 -0.53,0 -2.023,-0.982 -3.318,-2.183 -1.295,-1.201 -2.653,-2.183 -3.018,-2.183 -0.366,0 -1.391,-0.688 -2.28,-1.529 -7.972,-7.542 -14.978,-9.304 -14.978,-3.766 0,1.326 4.476,6.204 5.253,5.723 0.352,-0.217 1.373,0.58 2.268,1.772 0.895,1.191 2.105,2.166 2.69,2.166 0.585,0 2.046,0.983 3.246,2.184 1.201,1.201 2.577,2.183 3.057,2.183 0.481,0 1.856,0.983 3.057,2.184 1.201,1.201 2.607,2.183 3.124,2.183 0.517,0 1.167,0.59 1.443,1.31 0.277,0.721 0.956,1.31 1.51,1.31 0.554,0 2.067,0.983 3.362,2.184 1.295,1.2 2.585,2.183 2.866,2.183 0.491,0 1.716,0.925 4.336,3.275 0.67,0.601 1.639,1.092 2.153,1.092 0.515,0 0.936,0.385 0.936,0.857 0,0.471 1.067,1.124 2.37,1.451 3.399,0.853 0.422,1.916 -5.594,1.997 -2.493,0.034 -4.776,0.455 -5.073,0.935 -0.673,1.089 -6.55,1.163 -6.55,0.082 0,-0.435 -1.965,-1.062 -4.367,-1.392 -2.402,-0.33 -4.367,-0.957 -4.367,-1.392 0,-0.435 -0.982,-0.791 -2.183,-0.791 -1.201,0 -2.184,-0.357 -2.184,-0.792 0,-0.435 -1.965,-1.062 -4.366,-1.392 -2.402,-0.33 -4.367,-0.957 -4.367,-1.392 0,-0.435 -0.983,-0.791 -2.184,-0.791 -1.2,0 -2.183,-0.356 -2.183,-0.792 0,-0.435 -1.965,-1.061 -4.367,-1.392 -2.402,-0.33 -4.367,-0.956 -4.367,-1.392 0,-0.435 -0.982,-0.791 -2.183,-0.791 -1.201,0 -2.183,-0.365 -2.183,-0.811 0,-0.445 -2.158,-1.08 -4.794,-1.409 -2.636,-0.329 -4.578,-0.947 -4.315,-1.373 0.263,-0.426 -0.504,-0.774 -1.705,-0.774 -1.201,0 -2.413,-0.37 -2.692,-0.823 -0.28,-0.452 -2.268,-1.087 -4.419,-1.409 -2.15,-0.322 -3.909,-0.935 -3.909,-1.361 0,-0.425 -0.96,-0.774 -2.132,-0.774 -1.173,0 -2.361,-0.37 -2.641,-0.823 -0.279,-0.452 -2.273,-1.087 -4.429,-1.41 -2.156,-0.324 -4.135,-0.936 -4.398,-1.361 -0.262,-0.425 -1.437,-0.773 -2.609,-0.773 -1.173,0 -2.132,-0.356 -2.132,-0.791 0,-0.435 -1.965,-1.062 -4.367,-1.392 -2.402,-0.33 -4.367,-0.957 -4.367,-1.392 0,-2.847 -5.892,-0.616 -6.965,2.637 -1.403,4.252 -0.738,6.179 2.134,6.179 1.216,0 2.211,0.393 2.211,0.873 0,0.48 0.983,0.873 2.184,0.873 1.2,0 2.183,0.357 2.183,0.792 0,0.435 1.965,1.061 4.367,1.392 2.402,0.33 4.367,0.957 4.367,1.392 0,0.435 0.982,0.791 2.183,0.791 1.201,0 2.183,0.356 2.183,0.792 0,0.435 1.966,1.061 4.367,1.392 2.402,0.33 4.367,0.956 4.367,1.392 0,0.435 0.959,0.791 2.132,0.791 1.172,0 2.361,0.37 2.64,0.823 0.28,0.453 2.268,1.087 4.419,1.409 2.15,0.323 3.91,0.935 3.91,1.361 0,0.425 0.959,0.774 2.131,0.774 1.173,0 2.347,0.347 2.61,0.772 0.262,0.425 2.241,1.038 4.398,1.361 2.156,0.323 4.149,0.958 4.429,1.411 0.28,0.452 1.468,0.823 2.64,0.823 1.173,0 2.132,0.356 2.132,0.791 0,0.435 1.965,1.062 4.367,1.392 2.402,0.33 4.367,0.957 4.367,1.392 0,0.435 0.982,0.791 2.183,0.791 1.201,0 2.184,0.357 2.184,0.792 0,0.435 1.965,1.062 4.366,1.392 2.402,0.33 4.367,0.957 4.367,1.392 0,0.435 0.983,0.791 2.184,0.791 1.2,0 2.183,0.342 2.183,0.759 0,0.418 1.365,0.981 3.032,1.251 2.684,0.436 14.435,10.48 14.435,12.338 0,0.275 -12.01,0.499 -26.689,0.499 -17.57,0 -26.505,0.299 -26.149,0.874 0.297,0.48 0.123,0.873 -0.385,0.873 -0.509,0 -0.925,1.179 -0.925,2.62 v 2.62 h 30.994 c 28.066,0 31.161,0.142 32.751,1.504 2.086,1.786 2.254,2.863 0.447,2.863 -0.721,0 -1.31,0.393 -1.31,0.873 0,0.481 -0.983,0.874 -2.184,0.874 -1.2,0 -2.183,0.356 -2.183,0.791 0,0.436 -1.965,1.062 -4.367,1.392 -2.401,0.331 -4.367,0.957 -4.367,1.392 0,0.436 -0.982,0.792 -2.183,0.792 -1.201,0 -2.183,0.356 -2.183,0.791 0,0.435 -1.965,1.062 -4.367,1.392 -2.402,0.33 -4.367,0.957 -4.367,1.392 0,0.435 -0.983,0.791 -2.183,0.791 -1.201,0 -2.184,0.357 -2.184,0.792 0,0.435 -1.965,1.062 -4.367,1.392 -2.401,0.33 -4.366,0.957 -4.366,1.392 0,0.435 -0.983,0.791 -2.184,0.791 -1.201,0 -2.183,0.356 -2.183,0.792 0,0.435 -1.965,1.061 -4.367,1.392 -2.402,0.33 -4.367,0.956 -4.367,1.392 0,0.435 -0.959,0.791 -2.132,0.791 -1.172,0 -2.36,0.37 -2.64,0.823 -0.28,0.453 -2.273,1.087 -4.429,1.411 -2.157,0.323 -4.136,0.935 -4.398,1.36 -0.263,0.425 -1.437,0.773 -2.61,0.773 -1.172,0 -2.131,0.356 -2.131,0.791 0,0.436 -1.966,1.062 -4.367,1.392 -2.402,0.331 -4.367,0.957 -4.367,1.392 0,0.436 -1.006,0.792 -2.235,0.792 -1.229,0 -2.02,0.348 -1.757,0.774 0.263,0.425 -1.678,1.043 -4.315,1.373 -2.636,0.329 -4.794,0.963 -4.794,1.409 0,0.446 -0.982,0.811 -2.183,0.811 -1.201,0 -2.183,0.356 -2.183,0.791 0,0.435 -1.965,1.062 -4.367,1.392 -2.402,0.33 -4.367,0.957 -4.367,1.392 0,0.435 -0.983,0.791 -2.183,0.791 -1.201,0 -2.184,0.393 -2.184,0.874 0,0.48 -0.934,0.873 -2.076,0.873 -3.469,0 -4.31,1.903 -2.662,6.021 1.361,3.402 7.358,5.679 7.358,2.795 0,-0.436 1.965,-1.062 4.367,-1.392 2.402,-0.331 4.367,-0.957 4.367,-1.392 0,-0.436 0.982,-0.792 2.183,-0.792 1.201,0 2.184,-0.356 2.184,-0.791 0,-0.435 1.965,-1.062 4.367,-1.392 2.401,-0.33 4.366,-0.957 4.366,-1.392 0,-0.435 0.96,-0.792 2.132,-0.792 1.173,0 2.347,-0.347 2.61,-0.772 0.262,-0.425 2.241,-1.037 4.398,-1.361 2.156,-0.323 4.149,-0.958 4.429,-1.41 0.279,-0.453 1.468,-0.823 2.64,-0.823 1.173,0 2.132,-0.357 2.132,-0.792 0,-0.435 1.965,-1.061 4.367,-1.392 2.402,-0.33 4.367,-0.957 4.367,-1.392 0,-0.435 0.982,-0.791 2.183,-0.791 1.201,0 2.183,-0.356 2.183,-0.792 0,-0.435 1.965,-1.061 4.367,-1.392 2.402,-0.33 4.367,-0.956 4.367,-1.392 0,-0.435 0.983,-0.791 2.183,-0.791 1.201,0 2.184,-0.356 2.184,-0.791 0,-0.436 1.965,-1.062 4.367,-1.392 2.401,-0.331 4.366,-0.957 4.366,-1.392 0,-0.436 0.983,-0.792 2.184,-0.792 1.201,0 2.183,-0.356 2.183,-0.791 0,-0.435 1.965,-1.062 4.367,-1.392 2.402,-0.331 4.367,-0.957 4.367,-1.392 0,-0.435 0.982,-0.792 2.183,-0.792 1.201,0 2.184,-0.356 2.184,-0.791 0,-0.435 1.965,-1.062 4.367,-1.392 2.401,-0.33 4.366,-0.957 4.366,-1.392 0,-0.435 0.95,-0.791 2.111,-0.791 1.161,0 2.242,-0.358 2.402,-0.796 0.16,-0.437 2.2,-1.077 4.534,-1.423 l 4.242,-0.628 -0.637,2.952 c -0.35,1.623 -0.989,3.085 -1.42,3.248 -0.43,0.163 -1.337,0.85 -2.015,1.528 -0.677,0.678 -1.718,1.232 -2.313,1.232 -0.595,0 -0.822,0.26 -0.504,0.577 0.526,0.526 -1.255,1.854 -4.653,3.471 -0.72,0.343 -1.624,1.145 -2.008,1.781 -0.385,0.637 -1.198,1.158 -1.808,1.158 -0.61,0 -1.963,0.983 -3.008,2.183 -1.044,1.201 -2.403,2.184 -3.021,2.184 -0.618,0 -1.69,0.786 -2.382,1.747 -0.692,0.96 -1.744,1.746 -2.337,1.746 -0.592,0 -2.06,0.983 -3.26,2.184 -1.201,1.201 -2.535,2.183 -2.963,2.183 -1.379,0 -4.531,3.21 -3.87,3.941 0.352,0.388 0.163,0.432 -0.42,0.097 -0.583,-0.334 -1.86,0.192 -2.839,1.17 -0.978,0.979 -2.001,1.779 -2.273,1.779 -0.533,0 -6.225,4.139 -8.021,5.833 -1.309,1.235 -1.435,2.901 -0.218,2.901 0.48,0 0.873,0.589 0.873,1.31 0,1.62 3.977,1.772 5.709,0.218 2.621,-2.35 3.846,-3.275 4.336,-3.275 0.282,0 1.572,-0.983 2.867,-2.184 1.295,-1.2 2.808,-2.183 3.362,-2.183 0.554,0 1.233,-0.589 1.51,-1.31 0.276,-0.721 1.033,-1.31 1.682,-1.31 0.649,0 2.034,-0.983 3.079,-2.183 1.044,-1.201 2.403,-2.184 3.021,-2.184 0.618,0 1.69,-0.786 2.382,-1.747 0.693,-0.96 1.744,-1.746 2.337,-1.746 0.592,0 2.013,-0.936 3.156,-2.079 1.143,-1.143 2.909,-2.342 3.925,-2.665 1.016,-0.322 2.09,-1.352 2.387,-2.288 0.297,-0.936 1.312,-1.702 2.255,-1.702 0.944,0 1.942,-0.589 2.218,-1.31 0.277,-0.72 0.854,-1.31 1.283,-1.31 1.006,0 1.02,4.115 0.016,4.736 -0.42,0.259 -0.946,2.669 -1.169,5.355 -0.32,3.86 -0.892,5.334 -2.73,7.038 -1.278,1.186 -2.324,2.551 -2.324,3.033 0,0.483 -0.983,1.861 -2.184,3.062 -1.2,1.2 -2.183,2.668 -2.183,3.26 0,0.593 -0.786,1.645 -1.747,2.337 -0.96,0.692 -1.746,1.764 -1.746,2.382 0,0.618 -0.983,1.977 -2.184,3.021 -1.201,1.045 -2.183,2.398 -2.183,3.008 0,0.61 -0.501,1.423 -1.113,1.808 -0.612,0.384 -1.858,1.867 -2.769,3.296 -0.91,1.428 -2.37,3.364 -3.244,4.302 -0.873,0.938 -1.815,2.422 -2.093,3.298 -0.278,0.876 -0.873,1.592 -1.32,1.592 -0.448,0 -0.815,0.411 -0.815,0.912 0,0.501 -0.983,1.971 -2.183,3.266 -1.201,1.295 -2.184,2.654 -2.184,3.019 0,0.365 -0.688,1.381 -1.528,2.258 -2.518,2.625 -5.459,6.596 -5.459,7.369 0,0.397 -0.982,1.706 -2.183,2.906 -1.201,1.201 -2.184,2.577 -2.184,3.057 0,0.481 -0.982,1.856 -2.183,3.057 -1.201,1.201 -2.183,2.713 -2.183,3.36 0,0.648 -0.596,1.406 -1.323,1.685 -0.728,0.279 -1.701,1.5 -2.162,2.713 -0.462,1.214 -1.215,2.206 -1.675,2.206 -0.46,0 -1.057,0.688 -1.327,1.529 -0.271,0.84 -1.675,2.904 -3.12,4.585 -1.446,1.681 -2.85,3.744 -3.12,4.585 -0.27,0.841 -0.858,1.528 -1.306,1.528 -0.448,0 -0.814,0.41 -0.814,0.912 0,0.501 -0.983,1.971 -2.184,3.266 -1.201,1.295 -2.183,2.613 -2.183,2.929 0,0.316 -1.07,1.793 -2.378,3.284 l -2.378,2.71 H 43.031 -0.011 l 0.224,262.914 c 0.163,192.209 0.486,263.081 1.198,263.537 0.535,0.343 1.243,1.487 1.573,2.543 0.329,1.057 1.345,2.157 2.256,2.447 0.912,0.289 1.901,1.292 2.198,2.228 0.297,0.936 1.201,1.704 2.01,1.707 0.808,0.003 2.595,0.593 3.971,1.31 2.167,1.131 13.563,1.305 85.402,1.305 77.467,0 83.055,0.1 85.271,1.528 3.381,2.18 7.174,6.187 7.174,7.579 0,0.653 0.59,1.413 1.31,1.689 0.721,0.277 1.31,1.301 1.31,2.277 0,0.976 0.298,1.774 0.661,1.774 0.607,0 1.882,2.569 3.14,6.332 0.71,2.123 4.109,1.964 4.68,-0.218 0.251,-0.961 0.804,-1.747 1.228,-1.747 0.425,0 0.772,-0.786 0.772,-1.747 0,-0.96 0.362,-1.746 0.804,-1.746 0.442,0 1.063,-1.179 1.379,-2.621 0.317,-1.441 0.911,-2.62 1.321,-2.62 0.41,0 0.966,-0.687 1.235,-1.528 0.66,-2.056 3.898,-5.601 6.802,-7.446 2.203,-1.399 8.334,-1.506 86.245,-1.506 52.679,0 83.873,-0.31 83.873,-0.834 0,-0.458 1.362,-1.089 3.027,-1.401 1.839,-0.345 3.228,-1.201 3.538,-2.179 0.281,-0.885 1.277,-1.853 2.213,-2.15 0.937,-0.297 1.703,-0.879 1.703,-1.293 0,-0.413 0.687,-1.44 1.528,-2.28 1.448,-1.448 1.54,-15.395 1.751,-264.691 l 0.223,-263.163 h -44.546 c -38.902,0 -44.546,-0.165 -44.546,-1.303 0,-0.716 -0.786,-1.793 -1.747,-2.393 -0.96,-0.6 -1.746,-1.545 -1.746,-2.099 0,-0.554 -1.179,-2.27 -2.621,-3.812 -1.441,-1.543 -2.62,-3.353 -2.62,-4.023 0,-0.669 -0.331,-1.217 -0.735,-1.217 -0.405,0 -1.477,-1.376 -2.382,-3.057 -0.906,-1.681 -1.95,-3.057 -2.321,-3.057 -0.371,0 -0.675,-0.41 -0.675,-0.911 0,-0.502 -0.983,-1.972 -2.184,-3.267 -1.2,-1.295 -2.183,-2.653 -2.183,-3.018 0,-0.365 -0.599,-1.352 -1.332,-2.193 -4.593,-5.27 -5.655,-6.693 -5.655,-7.576 0,-0.545 -0.786,-1.556 -1.747,-2.249 -0.96,-0.692 -1.746,-1.744 -1.746,-2.336 0,-0.593 -0.983,-2.061 -2.184,-3.261 -1.201,-1.201 -2.183,-2.509 -2.183,-2.907 0,-0.773 -2.941,-4.744 -5.459,-7.369 -0.84,-0.877 -1.528,-1.987 -1.528,-2.468 0,-0.48 -0.688,-1.6 -1.528,-2.488 -2.488,-2.629 -4.203,-4.892 -5.944,-7.838 -0.901,-1.526 -1.92,-2.774 -2.264,-2.774 -0.345,0 -0.906,-0.884 -1.247,-1.965 -0.341,-1.081 -1.294,-2.555 -2.117,-3.275 -0.824,-0.721 -1.77,-2.174 -2.104,-3.231 -0.333,-1.056 -1.372,-2.163 -2.308,-2.46 -0.936,-0.297 -1.702,-1.312 -1.702,-2.256 0,-0.943 -0.589,-1.941 -1.31,-2.218 -0.721,-0.276 -1.31,-0.956 -1.31,-1.51 0,-0.554 -0.983,-2.066 -2.183,-3.361 -1.201,-1.296 -2.184,-2.733 -2.184,-3.194 0,-0.461 -0.452,-0.989 -1.005,-1.174 -0.553,-0.184 -1.191,-2.575 -1.418,-5.313 -0.228,-2.737 -0.684,-4.977 -1.015,-4.977 -0.331,0 -0.694,-1.769 -0.806,-3.931 -0.118,-2.282 0.18,-3.93 0.71,-3.93 0.503,0 0.914,0.393 0.914,0.874 0,0.48 0.59,0.873 1.31,0.873 0.721,0 1.31,0.367 1.31,0.815 0,0.447 0.884,1.09 1.965,1.427 1.081,0.338 2.162,0.876 2.402,1.196 0.607,0.811 6.605,3.549 7.774,3.549 0.528,0 0.96,0.393 0.96,0.873 0,0.481 0.589,0.874 1.31,0.874 0.72,0 1.313,0.294 1.318,0.655 0.004,0.36 1.773,1.431 3.93,2.379 2.157,0.948 3.922,1.998 3.922,2.332 0,0.335 1.179,0.867 2.62,1.184 1.441,0.316 2.62,0.937 2.62,1.379 0,0.442 0.618,0.804 1.373,0.804 0.754,0 1.961,0.59 2.682,1.31 0.721,0.721 2.091,1.31 3.046,1.31 0.955,0 1.493,0.393 1.196,0.874 -0.297,0.48 0.073,0.873 0.822,0.873 0.749,0 1.361,0.393 1.361,0.873 0,2.565 5.904,0.832 6.449,-1.893 0.696,-3.478 -5.168,-8.587 -9.856,-8.587 -0.528,0 -0.959,-0.393 -0.959,-0.873 0,-0.481 -0.59,-0.874 -1.31,-0.874 -0.721,0 -1.31,-0.393 -1.31,-0.873 0,-0.48 -0.758,-0.873 -1.685,-0.873 -0.926,0 -2.274,-0.59 -2.994,-1.31 -0.721,-0.721 -1.731,-1.31 -2.246,-1.31 -0.515,0 -0.936,-0.362 -0.936,-0.804 0,-0.443 -1.179,-1.063 -2.62,-1.38 -1.441,-0.316 -2.62,-0.937 -2.62,-1.379 0,-0.442 -0.786,-0.804 -1.747,-0.804 -0.96,0 -1.746,-0.351 -1.746,-0.779 0,-0.428 -1.016,-1.034 -2.258,-1.345 -1.242,-0.312 -3.064,-1.318 -4.048,-2.235 -0.985,-0.917 -2.917,-1.915 -4.293,-2.217 -1.376,-0.303 -2.502,-0.912 -2.502,-1.354 0,-0.442 -0.589,-0.804 -1.31,-0.804 -0.72,0 -1.31,-0.375 -1.31,-0.834 0,-0.458 -1.333,-1.084 -2.963,-1.389 -2.783,-0.523 -4.024,-2.516 -4.024,-6.468 0,-0.337 1.965,-0.211 4.367,0.281 2.402,0.492 4.367,1.21 4.367,1.596 0,0.385 0.959,0.701 2.132,0.701 1.172,0 2.367,0.381 2.656,0.848 0.288,0.466 2.465,1.105 4.838,1.42 2.373,0.315 4.102,0.916 3.843,1.335 -0.26,0.42 0.534,0.763 1.763,0.763 1.229,0 2.235,0.365 2.235,0.811 0,0.446 2.157,1.08 4.794,1.409 2.636,0.33 4.578,0.948 4.315,1.373 -0.263,0.426 0.527,0.774 1.757,0.774 1.229,0 2.235,0.356 2.235,0.792 0,0.435 1.965,1.061 4.366,1.392 2.402,0.33 4.367,0.956 4.367,1.392 0,0.435 0.983,0.791 2.184,0.791 1.2,0 2.183,0.356 2.183,0.791 0,0.436 1.965,1.062 4.367,1.392 2.402,0.331 4.367,0.957 4.367,1.392 0,0.436 0.982,0.792 2.183,0.792 1.201,0 2.183,0.356 2.183,0.791 0,0.435 1.965,1.062 4.367,1.392 2.402,0.331 4.367,0.957 4.367,1.392 0,0.435 0.983,0.792 2.183,0.792 1.201,0 2.184,0.356 2.184,0.791 0,0.435 1.965,1.062 4.367,1.392 2.401,0.33 4.366,0.957 4.366,1.392 0,0.435 0.983,0.791 2.184,0.791 1.201,0 2.183,0.357 2.183,0.792 0,0.435 1.965,1.062 4.367,1.392 2.402,0.33 4.367,0.957 4.367,1.392 0,0.435 0.982,0.791 2.183,0.791 1.201,0 2.184,0.356 2.184,0.792 0,0.435 1.965,1.061 4.367,1.392 2.401,0.33 4.366,0.956 4.366,1.392 0,1.218 6.12,0.937 6.536,-0.301 0.203,-0.6 0.485,-1.877 0.628,-2.838 0.143,-0.961 0.628,-2.012 1.077,-2.335 1.307,-0.941 -1.239,-3.342 -3.544,-3.342 -1.142,0 -2.077,-0.393 -2.077,-0.873 0,-0.481 -0.982,-0.874 -2.183,-0.874 -1.201,0 -2.183,-0.356 -2.183,-0.791 0,-0.435 -1.965,-1.062 -4.367,-1.392 -2.402,-0.33 -4.367,-0.957 -4.367,-1.392 0,-0.435 -0.983,-0.791 -2.183,-0.791 -1.201,0 -2.184,-0.357 -2.184,-0.792 0,-0.435 -1.965,-1.062 -4.367,-1.392 -2.401,-0.33 -4.366,-0.957 -4.366,-1.392 0,-0.435 -0.983,-0.791 -2.184,-0.791 -1.201,0 -2.183,-0.356 -2.183,-0.792 0,-0.435 -1.965,-1.061 -4.367,-1.392 -2.402,-0.33 -4.367,-0.956 -4.367,-1.392 0,-0.435 -0.982,-0.791 -2.183,-0.791 -1.201,0 -2.184,-0.356 -2.184,-0.791 0,-0.436 -1.965,-1.062 -4.367,-1.392 -2.401,-0.331 -4.366,-0.957 -4.366,-1.392 0,-0.436 -0.983,-0.792 -2.184,-0.792 -1.201,0 -2.183,-0.343 -2.183,-0.762 0,-0.419 -1.589,-1.016 -3.532,-1.326 -1.942,-0.311 -4.202,-0.905 -5.022,-1.32 -3.224,-1.633 -5.988,-2.63 -8.885,-3.202 -3.01,-0.595 -3.947,-0.944 -7.632,-2.844 -1.06,-0.546 -3.516,-1.248 -5.459,-1.558 -1.942,-0.311 -3.531,-0.908 -3.531,-1.327 0,-0.419 -0.96,-0.761 -2.132,-0.761 -1.173,0 -2.361,-0.371 -2.641,-0.823 -0.279,-0.453 -2.268,-1.087 -4.418,-1.409 -2.15,-0.323 -3.91,-0.935 -3.91,-1.361 0,-0.426 -0.791,-0.774 -1.758,-0.774 -0.967,0 -2.441,-0.364 -3.275,-0.81 -0.834,-0.445 -2.251,-1.04 -3.148,-1.322 -1.498,-0.47 -1.451,-0.654 0.575,-2.247 2.107,-1.658 3.6,-1.735 33.727,-1.735 h 31.521 v -2.112 c 0,-5.102 1.303,-4.875 -27.989,-4.875 -19.414,0 -27.103,-0.281 -27.553,-1.008 -0.342,-0.554 -0.267,-0.789 0.167,-0.521 0.435,0.269 2.553,-1.243 4.709,-3.358 2.155,-2.115 4.218,-3.846 4.585,-3.846 0.366,0 0.666,-0.551 0.666,-1.225 0,-1.262 4.259,-3.142 7.118,-3.142 0.889,0 1.616,-0.393 1.616,-0.873 0,-0.481 0.983,-0.874 2.183,-0.874 1.201,0 2.184,-0.356 2.184,-0.791 0,-0.435 1.965,-1.062 4.367,-1.392 2.401,-0.33 4.366,-0.957 4.366,-1.392 0,-0.435 0.983,-0.792 2.184,-0.792 1.201,0 2.183,-0.356 2.183,-0.791 0,-0.435 1.965,-1.062 4.367,-1.392 2.402,-0.33 4.367,-0.957 4.367,-1.392 0,-0.435 0.982,-0.791 2.183,-0.791 1.201,0 2.184,-0.357 2.184,-0.792 0,-0.435 1.965,-1.061 4.366,-1.392 2.402,-0.33 4.367,-0.957 4.367,-1.392 0,-0.435 0.983,-0.791 2.184,-0.791 1.201,0 2.183,-0.356 2.183,-0.792 0,-0.435 1.965,-1.061 4.367,-1.392 2.402,-0.33 4.367,-0.956 4.367,-1.392 0,-0.435 0.959,-0.791 2.132,-0.791 1.172,0 2.36,-0.37 2.64,-0.823 0.28,-0.452 2.273,-1.087 4.429,-1.411 2.156,-0.323 4.136,-0.935 4.398,-1.36 0.263,-0.425 1.437,-0.773 2.609,-0.773 1.173,0 2.132,-0.348 2.132,-0.774 0,-0.426 1.76,-1.038 3.91,-1.361 2.151,-0.322 4.139,-0.956 4.418,-1.409 0.28,-0.452 1.492,-0.823 2.692,-0.823 1.234,0 1.949,-0.38 1.644,-0.873 -0.314,-0.508 0.556,-0.873 2.08,-0.873 3.484,0 3.983,-1.093 2.615,-5.726 -1.13,-3.828 -5.619,-5.752 -7.253,-3.109 -0.262,0.425 -2.241,1.037 -4.398,1.361 -2.156,0.323 -4.149,0.958 -4.429,1.411 -0.28,0.452 -1.468,0.822 -2.64,0.822 -1.173,0 -2.132,0.357 -2.132,0.792 0,0.435 -1.965,1.062 -4.367,1.392 -2.402,0.33 -4.367,0.957 -4.367,1.392 0,0.435 -0.982,0.791 -2.183,0.791 -1.201,0 -2.184,0.356 -2.184,0.792 0,0.435 -1.965,1.061 -4.366,1.392 -2.402,0.33 -4.367,0.956 -4.367,1.392 0,0.435 -0.983,0.791 -2.184,0.791 -1.2,0 -2.183,0.356 -2.183,0.792 0,0.435 -1.965,1.061 -4.367,1.392 -2.402,0.33 -4.367,0.956 -4.367,1.392 0,0.435 -0.982,0.791 -2.183,0.791 -1.201,0 -2.183,0.356 -2.183,0.791 0,0.436 -1.965,1.062 -4.367,1.392 -2.402,0.331 -4.367,0.957 -4.367,1.392 0,0.436 -0.983,0.792 -2.183,0.792 -1.201,0 -2.184,0.356 -2.184,0.791 0,0.435 -1.965,1.062 -4.367,1.392 -2.401,0.33 -4.366,0.957 -4.366,1.392 0,0.435 -0.983,0.792 -2.184,0.792 -1.201,0 -2.183,0.356 -2.183,0.791 0,0.435 -1.965,1.062 -4.367,1.392 -2.402,0.33 -4.367,0.957 -4.367,1.392 0,1.085 -11.991,1.007 -12.664,-0.082 -0.297,-0.48 -1.892,-0.873 -3.545,-0.873 -1.653,0 -3.005,-0.192 -3.005,-0.427 0,-0.513 9.099,-9.282 14.059,-13.547 8.221,-7.072 23.495,-22.841 23.482,-24.245 -0.015,-1.737 -0.667,-2.773 -2.795,-4.44 -1.339,-1.049 -3.075,0.4 -16.212,13.537 -8.092,8.091 -17.44,17.062 -20.772,19.935 -3.332,2.873 -6.747,5.979 -7.587,6.902 -0.841,0.923 -1.529,1.225 -1.529,0.672 0,-0.554 -0.786,-1.007 -1.746,-1.007 -2.291,0 -2.202,-0.778 0.437,-3.848 1.201,-1.396 2.183,-2.887 2.183,-3.315 0,-0.427 0.982,-1.76 2.183,-2.961 1.201,-1.2 2.184,-2.668 2.184,-3.26 0,-0.593 0.786,-1.645 1.746,-2.337 0.961,-0.692 1.747,-1.746 1.747,-2.342 0,-0.596 0.86,-1.885 1.911,-2.864 1.052,-0.98 1.584,-1.781 1.183,-1.781 -0.401,0 0.311,-0.964 1.582,-2.142 1.271,-1.178 2.311,-2.572 2.311,-3.098 0,-0.526 0.982,-1.867 2.183,-2.98 1.201,-1.113 2.184,-2.47 2.184,-3.015 0,-0.546 0.366,-0.992 0.814,-0.992 0.448,0 1.085,-0.851 1.415,-1.891 0.33,-1.04 1.536,-2.827 2.679,-3.97 1.143,-1.143 2.079,-2.564 2.079,-3.156 0,-0.593 0.786,-1.644 1.746,-2.337 0.961,-0.692 1.747,-1.704 1.747,-2.248 0,-0.884 1.062,-2.307 5.655,-7.577 0.733,-0.841 1.332,-1.827 1.332,-2.192 0,-0.365 0.983,-1.724 2.183,-3.019 1.201,-1.295 2.184,-2.765 2.184,-3.266 0,-0.501 0.366,-0.912 0.814,-0.912 0.448,0 1.035,-0.687 1.305,-1.528 0.27,-0.841 1.475,-2.67 2.679,-4.066 1.204,-1.396 2.189,-2.979 2.189,-3.519 0,-0.54 0.786,-1.548 1.746,-2.24 0.961,-0.693 1.747,-1.705 1.747,-2.249 0,-0.883 1.062,-2.307 5.655,-7.577 0.733,-0.84 1.332,-1.827 1.332,-2.192 0,-0.365 0.983,-1.724 2.183,-3.019 1.201,-1.295 2.184,-2.765 2.184,-3.266 0,-0.501 0.295,-0.914 0.655,-0.917 0.897,-0.007 3.712,-5.072 3.712,-6.678 0,-4.703 -9.585,-6.261 -10.998,-1.787 -0.333,1.056 -1.336,2.556 -2.228,3.333 -0.892,0.777 -1.621,1.84 -1.621,2.362 0,0.522 -0.983,1.932 -2.184,3.133 -1.201,1.201 -2.183,2.509 -2.183,2.907 0,0.773 -2.941,4.743 -5.459,7.369 -0.84,0.876 -1.528,1.987 -1.528,2.467 0,0.48 -0.688,1.591 -1.529,2.468 -2.517,2.625 -5.458,6.595 -5.458,7.368 0,0.398 -0.983,1.706 -2.183,2.907 -1.201,1.201 -2.184,2.669 -2.184,3.261 0,0.593 -0.786,1.644 -1.747,2.337 -0.96,0.692 -1.746,1.676 -1.746,2.186 0,0.947 -2.71,4.707 -5.459,7.573 -0.84,0.877 -1.515,1.889 -1.5,2.249 0.026,0.603 -1.565,2.751 -5.487,7.406 -0.84,0.997 -1.528,2.164 -1.528,2.593 0,0.429 -0.983,1.762 -2.184,2.963 -1.2,1.201 -2.183,2.668 -2.183,3.261 0,0.593 -0.786,1.644 -1.747,2.336 -0.96,0.693 -1.746,1.747 -1.746,2.343 0,0.595 -0.861,1.884 -1.912,2.864 -1.051,0.979 -1.583,1.78 -1.182,1.78 0.401,0 -0.311,0.964 -1.582,2.142 -1.271,1.178 -2.311,2.572 -2.311,3.098 0,0.527 -0.983,1.868 -2.184,2.981 -1.201,1.113 -2.183,2.469 -2.183,3.015 0,0.545 -0.367,0.991 -0.815,0.991 -0.448,0 -1.084,0.851 -1.414,1.891 -0.33,1.041 -1.464,2.755 -2.519,3.81 l -1.919,1.919 -1.163,-2.628 c -0.846,-1.911 -0.91,-3.035 -0.233,-4.118 0.512,-0.82 1.204,-3.317 1.539,-5.549 0.335,-2.232 0.957,-4.058 1.383,-4.058 0.426,0 0.774,-0.983 0.774,-2.184 0,-1.201 0.356,-2.183 0.791,-2.183 0.436,0 1.062,-1.965 1.392,-4.367 0.331,-2.402 0.957,-4.367 1.392,-4.367 0.436,0 0.792,-0.982 0.792,-2.183 0,-1.201 0.348,-2.183 0.774,-2.183 0.426,0 1.054,-1.867 1.396,-4.149 0.342,-2.282 0.963,-4.36 1.381,-4.619 0.418,-0.259 0.856,-1.733 0.974,-3.276 0.117,-1.542 0.488,-2.804 0.824,-2.804 0.336,0 0.886,-1.67 1.223,-3.711 0.337,-2.042 0.91,-4.105 1.273,-4.586 1.926,-2.545 1.815,-7.205 -0.184,-7.741 -4.289,-1.149 -4.849,-0.76 -5.478,3.811 -0.33,2.402 -0.956,4.367 -1.392,4.367 -0.435,0 -0.791,0.983 -0.791,2.183 0,1.201 -0.356,2.184 -0.792,2.184 -0.435,0 -1.061,1.965 -1.392,4.367 -0.33,2.401 -0.956,4.367 -1.392,4.367 -0.435,0 -0.791,0.982 -0.791,2.183 0,1.201 -0.356,2.183 -0.791,2.183 -0.436,0 -1.062,1.965 -1.392,4.367 -0.331,2.402 -0.957,4.367 -1.392,4.367 -0.436,0 -0.792,1.179 -0.792,2.62 0,1.441 -0.348,2.62 -0.774,2.62 -0.426,0 -1.049,1.83 -1.384,4.067 -0.658,4.387 -3.955,9.011 -3.955,5.546 0,-1.41 -2.98,-7.866 -3.63,-7.866 -0.329,0 -0.856,-1.175 -1.172,-2.61 -0.315,-1.436 -0.936,-2.834 -1.379,-3.109 -0.477,-0.295 -0.806,-20.78 -0.806,-50.228 V 0 H 200 195.633 v 49.73 m 3.057,86.951 c 0,15.03 -0.296,21.787 -0.963,22.01 -0.901,0.3 -13.448,-16.336 -13.448,-17.831 0,-1.737 12.766,-26.392 13.538,-26.146 0.551,0.176 0.873,8.276 0.873,21.967 m 10.712,-9.386 c 7.659,15.544 7.657,13.349 0.029,23.862 -8.867,12.219 -8.558,12.727 -8.558,-14.039 0,-27.373 -0.075,-27.286 8.529,-9.823 m -26.423,16.591 c 4.243,4.979 12.434,17.357 11.868,17.935 -0.563,0.574 -16.56,-3.945 -22.358,-6.316 -0.961,-0.393 -5.087,-1.766 -9.17,-3.05 -9.744,-3.066 -12.227,-4.055 -12.227,-4.867 0,-0.727 0.686,-0.858 15.683,-2.999 5.504,-0.786 10.187,-1.609 10.408,-1.83 0.973,-0.973 4.609,-0.266 5.796,1.127 m 47.118,0.827 c 4.342,0.686 9.772,1.518 12.068,1.848 2.295,0.33 4.162,0.895 4.148,1.256 -0.014,0.36 -0.025,1.048 -0.025,1.528 0,0.48 -0.791,0.873 -1.758,0.873 -0.968,0 -2.441,0.373 -3.275,0.828 -0.835,0.455 -6.823,2.456 -13.307,4.446 -6.485,1.99 -12.577,3.944 -13.538,4.341 -11.037,4.562 -11.251,3.853 -2.5,-8.274 5.657,-7.838 6.946,-9.155 8.482,-8.668 0.996,0.317 5.364,1.137 9.705,1.822 m -74.139,7.758 c 2.367,0.759 5.09,1.706 6.051,2.104 0.96,0.399 7.052,2.353 13.537,4.343 6.485,1.991 12.473,3.991 13.307,4.447 0.834,0.455 2.308,0.827 3.275,0.827 5.181,0 1.275,2.636 -8.285,5.59 -4.323,1.336 -8.579,2.809 -9.457,3.273 -1.104,0.584 -2.048,0.498 -3.057,-0.277 -3.901,-2.997 -20.237,-19.608 -20.237,-20.579 0,-1.367 -0.3,-1.383 4.866,0.272 m 92.077,0.135 c 0,1.038 -19.53,20.32 -20.581,20.32 -1.399,0 -12.782,-3.454 -14.56,-4.418 -0.834,-0.452 -2.266,-0.822 -3.182,-0.822 -1.344,0 -3.428,-2.483 -2.527,-3.01 0.131,-0.077 3.776,-1.242 8.099,-2.589 4.323,-1.347 8.646,-2.767 9.607,-3.155 0.961,-0.388 3.908,-1.382 6.55,-2.209 2.642,-0.827 5.59,-1.829 6.55,-2.227 4.56,-1.888 10.044,-2.92 10.044,-1.89 m -65.523,35.51 c -6.787,9.418 -12.753,17.124 -13.259,17.124 -1.033,0 -0.286,-10.18 1.101,-15.017 0.454,-1.581 0.825,-4.011 0.825,-5.4 0,-6.42 1.596,-8.872 6.862,-10.543 2.711,-0.86 5.518,-1.782 6.238,-2.048 13.1,-4.84 13.087,-4.731 -1.767,15.884 M 211.79,170.53 c 1.922,0.49 3.867,1.229 4.324,1.643 0.456,0.414 1.425,0.753 2.154,0.753 7.579,0 8.619,1.805 11.829,20.524 2.697,15.733 2.55,15.672 -12.24,-5.022 -12.294,-17.202 -14.345,-20.761 -11.229,-19.476 0.918,0.379 3.241,1.089 5.162,1.578 m -12.856,13.094 -0.244,11.573 -4.804,2.501 c -23.468,12.224 -24.518,12.429 -18.045,3.523 2.48,-3.411 8.237,-11.37 12.793,-17.686 10.512,-14.568 10.608,-14.568 10.3,0.089 m 17.196,6.332 c 6.889,9.606 12.342,17.762 12.119,18.123 -0.223,0.361 -6.376,-2.39 -13.672,-6.113 l -13.267,-6.769 -0.244,-11.642 c -0.319,-15.191 -0.463,-15.252 15.064,6.401 m -6.77,18.405 c 0.629,0.63 1.386,2.355 1.682,3.834 0.295,1.478 0.88,2.9 1.298,3.159 0.418,0.258 0.76,1.429 0.76,2.601 0,1.173 0.357,2.132 0.792,2.132 0.435,0 1.062,1.965 1.392,4.367 0.33,2.402 0.957,4.367 1.392,4.367 0.435,0 0.791,0.982 0.791,2.183 0,1.201 0.356,2.184 0.792,2.184 0.435,0 1.061,1.965 1.392,4.367 0.33,2.401 0.956,4.366 1.392,4.366 0.435,0 0.791,0.983 0.791,2.184 0,1.201 0.356,2.183 0.791,2.183 0.436,0 1.062,1.965 1.392,4.366 0.331,2.401 0.957,4.586 1.392,4.855 0.436,0.269 0.792,1.37 0.792,2.446 0,1.077 0.382,2.339 0.848,2.806 0.717,0.717 1.447,3.213 1.707,5.833 0.036,0.36 1.441,0.655 3.122,0.655 2.984,0 3.056,-0.083 3.056,-3.494 0,-1.921 -0.356,-3.493 -0.791,-3.493 -0.435,0 -1.062,-1.965 -1.392,-4.367 -0.33,-2.402 -0.957,-4.367 -1.392,-4.367 -0.435,0 -0.791,-0.982 -0.791,-2.183 0,-1.201 -0.356,-2.183 -0.792,-2.183 -0.435,0 -1.061,-1.965 -1.392,-4.366 -0.33,-2.401 -0.956,-4.586 -1.392,-4.855 -0.435,-0.269 -0.791,-1.426 -0.791,-2.57 0,-1.144 -0.348,-2.295 -0.773,-2.558 -0.425,-0.262 -1.037,-2.241 -1.36,-4.398 -0.324,-2.156 -0.958,-4.149 -1.411,-4.429 -0.453,-0.279 -0.823,-1.435 -0.823,-2.567 0,-1.133 -0.331,-2.19 -0.735,-2.351 -0.404,-0.16 -0.993,-1.666 -1.309,-3.347 -0.315,-1.682 -0.275,-2.597 0.089,-2.035 0.364,0.563 1.739,1.293 3.056,1.623 1.316,0.331 2.393,0.855 2.393,1.166 0,0.702 5.427,3.203 6.351,2.928 0.37,-0.111 1.052,0.794 1.515,2.01 0.462,1.217 1.436,2.441 2.164,2.72 0.728,0.28 1.323,1.197 1.323,2.039 0,0.842 0.959,2.251 2.131,3.131 1.172,0.88 2.359,2.507 2.637,3.616 0.278,1.108 0.891,2.015 1.362,2.015 0.472,0 0.857,0.41 0.857,0.911 0,0.856 0.684,1.844 3.275,4.734 0.601,0.67 1.092,1.639 1.092,2.153 0,0.515 0.308,0.936 0.685,0.936 0.377,0 1.427,1.277 2.333,2.839 0.907,1.561 2.171,3.152 2.809,3.536 0.638,0.385 1.16,1.198 1.16,1.808 0,0.61 0.982,1.963 2.183,3.008 1.201,1.044 2.184,2.403 2.184,3.021 0,0.618 0.786,1.69 1.746,2.382 0.961,0.692 1.747,1.744 1.747,2.337 0,0.592 0.936,2.012 2.079,3.156 1.143,1.143 2.349,2.93 2.679,3.97 0.33,1.04 0.967,1.891 1.414,1.891 0.448,0 0.815,0.446 0.815,0.991 0,0.546 0.983,1.902 2.183,3.015 1.201,1.113 2.184,2.436 2.184,2.939 0,0.503 0.688,1.632 1.528,2.509 2.518,2.625 5.459,6.596 5.459,7.369 0,0.398 0.982,1.706 2.183,2.907 1.201,1.201 2.184,2.668 2.184,3.261 0,0.592 0.786,1.644 1.746,2.336 0.961,0.693 1.747,1.765 1.747,2.382 0,0.618 0.983,1.978 2.183,3.022 1.201,1.044 2.184,2.429 2.184,3.078 0,0.649 0.589,1.406 1.31,1.683 0.72,0.276 1.31,0.921 1.31,1.432 0,0.511 0.65,1.648 1.445,2.527 1.399,1.545 -0.086,1.597 -45.851,1.597 H 204.367 V 259.33 205.996 l 1.924,0.611 c 1.059,0.336 2.439,1.125 3.069,1.754 m -15.474,51.464 v 52.839 h -47.223 c -42.931,0 -47.1,-0.125 -45.852,-1.373 0.755,-0.755 1.372,-1.907 1.372,-2.561 0,-0.654 0.786,-1.438 1.747,-1.743 0.961,-0.305 1.747,-1.259 1.747,-2.12 0,-0.861 0.982,-2.303 2.183,-3.205 1.201,-0.902 2.184,-2.075 2.184,-2.607 0,-0.532 0.985,-2.109 2.188,-3.504 1.204,-1.396 2.41,-3.226 2.679,-4.066 0.27,-0.841 0.857,-1.529 1.305,-1.529 0.448,0 0.815,-0.446 0.815,-0.991 0,-0.546 0.982,-1.902 2.183,-3.015 1.201,-1.113 2.183,-2.436 2.183,-2.939 0,-0.503 0.688,-1.642 1.529,-2.53 2.487,-2.629 4.203,-4.892 5.943,-7.838 0.901,-1.526 1.92,-2.774 2.265,-2.774 0.344,0 0.896,-0.851 1.226,-1.891 0.33,-1.04 1.536,-2.827 2.679,-3.97 1.143,-1.143 2.079,-2.624 2.079,-3.29 0,-0.666 0.786,-1.461 1.747,-1.766 0.96,-0.305 1.746,-1.1 1.746,-1.766 0,-0.666 0.936,-2.147 2.079,-3.29 1.143,-1.143 2.349,-2.93 2.679,-3.97 0.33,-1.04 0.882,-1.891 1.226,-1.891 0.345,0 1.364,-1.248 2.265,-2.774 1.741,-2.946 3.456,-5.209 5.943,-7.838 0.841,-0.888 1.529,-2.027 1.529,-2.53 0,-0.503 0.982,-1.826 2.183,-2.939 1.201,-1.113 2.184,-2.469 2.184,-3.015 0,-0.545 0.366,-0.991 0.814,-0.991 0.448,0 1.036,-0.688 1.306,-1.529 0.563,-1.751 5.735,-8.004 5.738,-6.937 0.002,0.658 5.157,-1.839 6.115,-2.963 0.241,-0.282 1.729,-0.955 3.309,-1.495 l 2.871,-0.983 -0.595,3.242 c -0.327,1.782 -0.931,3.372 -1.343,3.532 -0.411,0.16 -0.748,1.241 -0.748,2.402 0,1.161 -0.356,2.111 -0.791,2.111 -0.436,0 -1.062,1.965 -1.392,4.366 -0.331,2.402 -0.957,4.367 -1.392,4.367 -0.436,0 -0.792,0.959 -0.792,2.132 0,1.173 -0.37,2.361 -0.823,2.64 -0.452,0.28 -1.087,2.273 -1.411,4.43 -0.323,2.156 -0.935,4.135 -1.36,4.398 -0.425,0.262 -0.773,1.436 -0.773,2.609 0,1.172 -0.356,2.132 -0.791,2.132 -0.435,0 -1.062,1.965 -1.392,4.367 -0.33,2.401 -0.957,4.366 -1.392,4.366 -0.435,0 -0.791,1.376 -0.791,3.057 0,2.893 0.158,3.057 2.963,3.057 3.028,0 4.023,-1.098 4.023,-4.438 0,-0.922 0.393,-1.676 0.874,-1.676 0.48,0 0.873,-0.982 0.873,-2.183 0,-1.201 0.356,-2.183 0.792,-2.183 0.435,0 1.061,-1.966 1.392,-4.367 0.33,-2.402 0.956,-4.367 1.392,-4.367 0.435,0 0.791,-0.983 0.791,-2.183 0,-1.201 0.356,-2.184 0.791,-2.184 0.436,0 1.062,-1.965 1.392,-4.367 0.331,-2.401 0.957,-4.367 1.392,-4.367 0.436,0 0.792,-0.959 0.792,-2.131 0,-1.173 0.37,-2.361 0.823,-2.641 0.452,-0.28 1.087,-2.273 1.41,-4.429 0.324,-2.156 0.936,-4.135 1.361,-4.398 0.425,-0.263 0.773,-1.633 0.773,-3.046 0,-1.413 0.341,-2.568 0.759,-2.568 0.417,0 0.98,-1.364 1.25,-3.031 0.271,-1.666 1.01,-3.616 1.643,-4.333 3.297,-3.734 3.334,-3.151 3.334,51.468 m 1.644,61.885 c 0.72,0.867 0.924,28.33 0.762,102.398 l -0.222,101.212 -5.24,0.614 c -29.248,3.427 -49.383,22.526 -52.74,50.028 l -0.535,4.387 H 72.926 8.297 L 8.073,451.528 C 7.949,380.677 8.035,322.216 8.263,321.616 8.904,319.931 194.131,320.024 195.53,321.71 M 392.576,450.655 V 580.349 H 327.548 262.52 l -1.479,-6.987 c -3.598,-17.002 -11.185,-29.177 -24.015,-38.538 -5.152,-3.759 -14.901,-9.06 -16.662,-9.06 -0.302,0 -1.784,-0.942 -3.294,-2.094 -3.343,-2.55 -8.161,-3.981 -10.52,-3.125 -0.961,0.349 -2.041,0.463 -2.402,0.255 -0.36,-0.209 -0.655,-45.358 -0.655,-100.331 v -99.953 l 94.542,0.222 94.541,0.223 V 450.655 M 245.415,350.791 c -4.66,0.849 -11.631,6.617 -14.281,11.816 -4.086,8.014 -1.825,12.158 7.057,12.939 l 4.969,0.437 5.531,8.733 c 8.727,13.781 8.92,14.242 7.999,19.171 -3.387,18.132 10.237,39.781 25.036,39.781 6.599,0 11.07,7.46 6.844,11.42 -10.197,9.555 -1.946,25.23 13.304,25.273 6.49,0.019 7.613,0.613 10.602,5.61 l 2.771,4.633 -1.292,4.959 c -3.392,13.026 -0.468,20.2 9.499,23.303 5.035,1.568 6.644,3.683 6.664,8.763 0.02,4.977 1.895,8.25 6.523,11.391 4.414,2.995 4.637,3.273 7.107,8.843 2.049,4.62 5.969,4.393 8.706,-0.503 l 1.842,-3.296 6.592,5.198 6.592,5.197 2.353,-2.456 2.353,-2.457 -20.684,-33.07 c -19.938,-31.878 -20.649,-33.167 -19.717,-35.752 3.234,-8.975 -2.669,-19.003 -12.233,-20.782 -6.329,-1.178 -9.737,-7.585 -6.54,-12.297 1.89,-2.784 2.272,-4.335 2.272,-9.22 0,-8.726 -3.396,-11.495 -15.721,-12.818 -6.128,-0.658 -5.724,-0.273 -13.018,-12.43 -7.3,-12.166 -8.082,-15.449 -2.797,-11.748 6.392,4.478 14.069,-0.482 14.069,-9.09 0,-16.209 -15.675,-26.362 -27.948,-18.103 -2.498,1.681 -4.994,3.049 -5.546,3.04 -1.978,-0.033 -7.713,-11.156 -6.714,-13.023 4.498,-8.404 -1.799,-15.357 -12.194,-13.462 m 9.437,4.497 c 1.251,1.624 0.75,6.252 -0.975,9.015 -0.787,1.26 -0.784,1.997 0.014,3.167 8.042,11.795 8.677,13.718 6.551,19.866 -2.214,6.402 -2.605,6.199 -9.69,-5.055 l -6.482,-10.295 -3.796,0.569 c -10.494,1.574 -10.826,-8.408 -0.516,-15.501 6.321,-4.349 12.354,-5.064 14.894,-1.766 m -152.954,1.699 c -0.214,0.36 -0.669,3.111 -1.011,6.113 l -0.622,5.459 H 77.207 54.148 l -0.004,3.275 c -0.003,2.292 -3.832,12.059 -12.753,32.533 -11.942,27.408 -12.718,29.52 -12.264,33.405 3.065,26.231 38.052,31.988 49.901,8.21 3.949,-7.925 3.124,-12.356 -6.029,-32.366 -1.238,-2.708 -3.276,-7.371 -4.528,-10.362 -1.252,-2.99 -3.08,-7.206 -4.063,-9.368 -2.963,-6.516 -6.766,-15.911 -6.766,-16.714 0,-0.414 9.687,-0.753 21.526,-0.753 h 21.526 l -0.608,9.389 c -0.334,5.164 -1.174,22.358 -1.865,38.209 -2.683,61.483 -3.005,67.822 -3.495,68.615 -0.278,0.45 -4.609,0.818 -9.625,0.818 h -9.118 v 5.24 5.24 h 9.17 9.17 v 10.306 c 0,11.57 -0.363,12.402 -5.415,12.402 -3.256,0 -3.318,0.061 -3.299,3.275 0.084,14.333 18.371,22.807 28.595,13.251 6.499,-6.073 8.802,-16.526 3.643,-16.526 -5.717,0 -6.057,-0.688 -6.057,-12.258 v -10.45 h 9.171 9.17 v -5.21 -5.211 l -9.389,-0.248 -9.388,-0.248 -0.595,-6.55 c -0.328,-3.603 -1.018,-17.162 -1.534,-30.131 -0.517,-12.97 -1.322,-32.817 -1.791,-44.105 -0.469,-11.288 -0.958,-23.865 -1.086,-27.948 l -0.234,-7.423 21.615,-0.234 c 15.059,-0.162 21.616,0.053 21.616,0.711 0,0.52 -0.982,3.091 -2.181,5.713 -1.2,2.623 -3.205,7.216 -4.456,10.206 -1.251,2.991 -3.216,7.511 -4.367,10.044 -1.15,2.533 -3.113,7.053 -4.361,10.044 -2.292,5.492 -2.739,6.519 -6.893,15.841 -3.761,8.436 -0.102,20.253 8.144,26.304 21.989,16.136 50.941,-5.241 39.662,-29.284 -1.464,-3.122 -4.317,-9.607 -6.34,-14.411 -2.023,-4.803 -4.478,-10.502 -5.457,-12.663 -6.537,-14.438 -10.258,-24.326 -10.258,-27.259 v -3.309 h -23.165 -23.166 l -0.852,-2.24 c -0.468,-1.232 -0.852,-3.984 -0.852,-6.114 0,-3.588 -1.62,-5.383 -2.905,-3.218 m -1.622,15.284 0.277,2.401 h -21.92 c -23.096,0 -23.877,-0.137 -22.416,-3.945 0.439,-1.144 3.462,-1.293 22.146,-1.092 l 21.637,0.234 0.276,2.402 m 49.933,-1.54 c 3.012,3.629 1.246,3.941 -22.261,3.941 -19.123,0 -22.399,-0.189 -22.833,-1.321 -1.372,-3.574 0.637,-3.919 22.833,-3.919 17.683,0 21.361,0.215 22.261,1.299 m 137.458,5.576 c 10.756,9.82 7.632,30.802 -3.249,21.832 -3.709,-3.056 -3.907,-2.972 -7.08,2.999 -8.019,15.09 0.694,26.056 21.789,27.423 11.85,0.767 15.793,4.707 13.307,13.293 -1.543,5.331 -3.159,6.128 -6.854,3.382 -3.954,-2.94 -5.501,-3.29 -18.244,-4.135 -14.703,-0.975 -18.982,-3.512 -23.989,-14.222 -12.382,-26.491 6.864,-66.511 24.32,-50.572 M 58.208,388.428 c 1.22,2.762 2.93,6.594 3.802,8.515 6.142,13.545 14.846,34.108 14.846,35.076 0,0.945 -4.182,1.169 -21.834,1.169 -12.658,0 -21.834,-0.337 -21.834,-0.801 0,-0.826 1.768,-5.125 5.238,-12.735 1.094,-2.401 3.252,-7.314 4.795,-10.917 12.082,-28.215 11.716,-27.718 14.987,-20.307 m 95.824,-1.566 c 0.76,1.901 2.171,5.144 3.134,7.206 5.857,12.536 16.45,37.836 16.087,38.423 -0.491,0.795 -42.558,0.97 -43.348,0.18 -0.496,-0.497 0.537,-3.254 4.391,-11.71 0.985,-2.162 3.841,-8.647 6.346,-14.411 10.987,-25.277 11.092,-25.431 13.39,-19.688 m 132.431,0.038 c 0,0.48 0.589,0.873 1.31,0.873 0.72,0 1.31,-0.393 1.31,-0.873 0,-0.481 -0.59,-0.874 -1.31,-0.874 -0.721,0 -1.31,0.393 -1.31,0.874 m -181.619,37.991 c 2.247,47.949 2.822,60.611 2.915,64.192 l 0.101,3.93 -4.72,0.269 -4.721,0.268 0.612,-20.792 c 0.336,-11.436 0.977,-25.509 1.425,-31.273 0.447,-5.764 0.826,-15.197 0.843,-20.961 0.017,-5.764 0.291,-12.052 0.61,-13.974 l 0.579,-3.493 0.79,2.62 c 0.434,1.441 1.139,10.087 1.566,19.214 m 179.163,-9.975 c 4.558,7.214 4.98,8.665 2.523,8.665 -4.323,0 -8.783,-6.791 -8.796,-13.392 -0.007,-3.795 1.705,-2.505 6.273,4.727 M 77.83,437.773 c 0.369,4.012 -2.496,9.874 -6.791,13.891 -13.212,12.357 -35.057,5.664 -38.209,-11.708 l -0.595,-3.275 h 22.747 c 17.562,0 22.77,0.249 22.848,1.092 m 96.842,0.92 c 0,5.626 -5.595,13.05 -12.678,16.821 -13.189,7.022 -32.736,-2.607 -32.736,-16.126 v -2.707 h 22.707 22.707 v 2.012 m 127.265,7.715 c 2.739,0.849 8.98,9.276 8.98,12.125 0,3.362 -12.927,-0.753 -15.216,-4.843 -0.518,-0.925 -1.808,-3.034 -2.868,-4.688 -3.001,-4.683 -0.206,-5.479 9.104,-2.594 m -5.961,12.137 c 3.074,2.47 4.031,2.712 14.141,3.567 12.102,1.023 15.378,2.155 17.614,6.087 3.341,5.876 2.643,12.914 -1.055,10.622 -1.209,-0.749 -5.956,-1.092 -15.125,-1.092 -18.35,0 -24.772,-3.298 -24.57,-12.619 0.168,-7.81 3.982,-10.594 8.995,-6.565 m 29.616,23.333 c 2.137,1.846 15.314,22.922 14.71,23.526 -0.5,0.5 -14.067,-6.96 -16.945,-9.318 -1.928,-1.58 -9.82,-13.668 -9.82,-15.041 0,-1.452 10.23,-0.745 12.055,0.833 m -1.364,17.583 c 3.217,2.346 7.425,5.086 9.35,6.089 6.084,3.171 8.779,6.136 8.785,9.66 0.007,4.455 1.454,9.088 3.599,11.519 6.034,6.842 6.922,20.869 1.322,20.869 -0.788,0 -1.432,-0.595 -1.432,-1.322 0,-2.379 -3.862,-7.291 -7.215,-9.179 -3.894,-2.191 -5.885,-5.638 -5.889,-10.198 -0.004,-3.406 -2.651,-8.81 -4.587,-9.365 -11.841,-3.39 -15.473,-9.358 -11.828,-19.437 1.316,-3.639 0.944,-3.703 7.895,1.364 m -197.59,-0.771 v 2.62 H 103.6 c -24.118,0 -25.845,-0.269 -24.482,-3.819 0.484,-1.264 3.147,-1.421 24.032,-1.421 h 23.488 v 2.62 m -18.516,6.639 c 0.279,1.953 -1.588,3.515 -6.622,5.542 -3.492,1.407 -4.098,0.902 -3.823,-3.185 0.302,-4.483 0.637,-4.746 5.676,-4.454 3.814,0.221 4.548,0.544 4.769,2.097 m 1.048,9.053 c 0,1.827 -1.968,3.536 -6.361,5.522 -4.969,2.245 -6.025,1.996 -5.703,-1.345 0.518,-5.369 12.064,-9.367 12.064,-4.177 m 247.162,15.474 c 13.54,21.513 13.446,21.083 2.983,13.69 -4.967,-3.51 -5.385,-4.076 -6.418,-8.69 -0.672,-3.003 -2.268,-6.46 -4.075,-8.827 -2.794,-3.661 -4.321,-10.747 -2.315,-10.744 0.36,0 4.781,6.557 9.825,14.571 M 109.17,523.581 v 3.057 h -5.649 c -6.586,0 -6.888,-1.119 -1.094,-4.047 5.569,-2.815 6.743,-2.642 6.743,0.99 m 105.764,2.167 c 2.114,1.433 4.16,2.612 4.546,2.62 7.306,0.166 24.911,14.625 31.531,25.898 3.345,5.698 4.681,9.091 7.514,19.096 2.287,8.077 0.229,26.576 -3.992,35.885 -4.382,9.665 -18.1,25.687 -21.993,25.687 -0.605,0 -1.099,0.33 -1.099,0.732 0,2.052 -14.172,7.108 -25.109,8.958 -10.882,1.841 -32.255,-3.404 -38.49,-9.445 -0.635,-0.615 -1.499,-1.118 -1.92,-1.118 -1.078,0 -11.509,-10.297 -14.156,-13.974 -4.747,-6.595 -6.487,-10.656 -10.313,-24.067 -5.682,-19.922 7.801,-50.671 26.297,-59.976 8.336,-4.194 21.719,-7.321 26.254,-6.135 l 1.937,0.506 -2.119,0.811 c -1.165,0.446 -4.281,1.369 -6.922,2.051 -5.067,1.309 -13.618,5.203 -15.565,7.09 -0.635,0.615 -1.462,1.118 -1.838,1.118 -3.711,0 -19.279,21.081 -19.279,26.107 0,0.82 -0.491,1.982 -1.091,2.582 -1.625,1.624 -1.485,24.682 0.181,29.826 15.151,46.784 81.175,50.857 99.108,6.114 0.866,-2.162 2.019,-4.874 2.562,-6.028 1.312,-2.788 1.322,-27.924 0.011,-30.74 -6.993,-15.029 -12.068,-21.974 -20.421,-27.948 -6.734,-4.816 -19.199,-9.52 -25.224,-9.52 -4.874,0 -6.665,-4.075 -3.043,-6.924 3.371,-2.651 7.976,-2.362 12.633,0.794 m -97.687,6.13 c -1.482,14.674 -21.961,16.723 -27.786,2.78 -2.25,-5.384 -2.019,-5.471 13.795,-5.204 l 14.211,0.24 -0.22,2.184 m 80.812,3.577 c 0.133,0.687 -1.181,3.602 -2.92,6.478 -2.75,4.546 -6.174,10.541 -9.47,16.582 -0.524,0.961 -1.149,1.944 -1.39,2.184 -0.24,0.24 -1.777,2.991 -3.415,6.113 -1.639,3.122 -3.646,6.66 -4.462,7.86 -1.263,1.861 -3.436,5.679 -8.2,14.411 -0.524,0.961 -1.158,1.943 -1.408,2.183 -0.25,0.241 -0.935,1.42 -1.522,2.62 -0.588,1.201 -1.766,3.363 -2.618,4.804 -0.852,1.441 -2.499,4.29 -3.66,6.332 -2.62,4.608 -2.924,4.604 -5.119,-0.066 -13.112,-27.895 6.129,-64.71 36.396,-69.636 2.6,-0.423 4.944,-0.986 5.208,-1.251 0.785,-0.784 2.319,0.04 2.58,1.386 m 18.535,1.481 c 27.565,9.824 42.129,43.368 29.56,68.086 -2.303,4.53 -2.583,4.556 -4.79,0.437 -2.364,-4.413 -6.436,-11.677 -10.405,-18.559 -1.801,-3.123 -4.235,-7.446 -5.41,-9.607 -1.175,-2.162 -2.439,-4.324 -2.81,-4.804 -0.37,-0.48 -1.969,-3.231 -3.552,-6.113 -3.79,-6.899 -5.403,-9.775 -9.705,-17.301 -5.954,-10.417 -7.564,-13.584 -7.128,-14.02 0.78,-0.78 10.301,0.477 14.24,1.881 m -11.993,8.261 c 1.658,3.002 3.922,7.03 5.031,8.951 1.109,1.922 2.97,5.262 4.136,7.424 1.166,2.162 2.427,4.323 2.801,4.804 1.039,1.332 7.012,12.419 7.012,13.014 0,1.053 -1.691,0.46 -6.685,-2.347 -11.394,-6.403 -22.501,-6.517 -34.235,-0.35 -5.677,2.984 -6.112,2.707 -3.399,-2.163 1.161,-2.083 3.406,-6.146 4.99,-9.028 1.583,-2.882 3.179,-5.633 3.546,-6.113 1.244,-1.628 9.582,-16.404 9.582,-16.982 0,-0.953 2.026,-2.669 3.151,-2.669 0.581,0 2.412,2.456 4.07,5.459 m 1.378,30.859 c 7.956,4.749 8.038,16.777 0.146,21.213 -13.609,7.648 -25.939,-11.352 -13.421,-20.683 3.06,-2.281 9.885,-2.553 13.275,-0.53 m -18.823,1.784 c 0.301,0.301 -0.026,1.921 -0.728,3.6 -1.64,3.925 -1.618,7.504 0.065,10.759 2.321,4.488 -2.174,4.213 -7.138,-0.438 -0.547,-0.512 -1.824,-1.615 -2.838,-2.451 -2.561,-2.11 -2.348,-2.96 1.635,-6.535 4.808,-4.316 7.918,-6.021 9.004,-4.935 m 28.863,1.147 c 4.599,1.748 11.043,10.533 7.726,10.533 -0.389,0 -1.47,0.691 -2.401,1.535 -2.695,2.443 -6.321,4.578 -7.776,4.578 -1.659,0 -1.658,-0.046 0.069,-4.361 1.396,-3.489 1.347,-4.762 -0.392,-10.268 -0.959,-3.038 -0.599,-3.3 2.774,-2.017 m -17.766,7.913 c 0,1.315 0.456,1.787 1.529,1.58 0.84,-0.162 1.528,-0.873 1.528,-1.58 0,-0.708 -0.688,-1.419 -1.528,-1.581 -1.073,-0.206 -1.529,0.265 -1.529,1.581 m -60.782,1.965 c 0.165,0.6 0.769,3.646 1.343,6.768 4.97,27.025 24.775,46.789 51.142,51.036 l 6.114,0.985 0.222,100.627 c 0.122,55.345 0.025,100.627 -0.216,100.627 -0.242,0 -2.49,-1.474 -4.997,-3.275 l -4.558,-3.275 -84.9,-0.437 C 6.644,841.433 14.988,842.021 10.098,835.472 8.387,833.181 6.599,593.196 8.26,588.865 c 0.33,-0.86 14.074,-1.092 64.666,-1.092 50.656,0 64.31,0.231 64.545,1.092 m 36.497,1.379 c 0.628,0.879 2.32,2.344 3.761,3.255 1.441,0.912 2.817,1.881 3.057,2.155 3.391,3.862 23.406,7.001 28.614,4.488 0.835,-0.403 3.74,-1.807 6.456,-3.121 2.717,-1.314 6.513,-3.736 8.436,-5.382 4.349,-3.722 4.554,-3.713 6.796,0.29 1.007,1.797 3.267,5.762 5.022,8.81 5.04,8.753 8.418,7.995 -35.622,7.995 -41.37,0 -40.777,0.07 -38.202,-4.529 0.891,-1.592 2.916,-5.253 4.499,-8.135 4.479,-8.153 5.139,-8.688 7.183,-5.826 m 217.965,120.455 -0.23,122.052 -2.034,2.852 c -4.118,5.773 1.246,5.445 -88.971,5.45 -87.546,0.005 -86.389,-0.051 -92.09,4.462 -1.75,1.386 -3.421,2.52 -3.712,2.52 -0.291,0 -0.529,-44.937 -0.529,-99.86 v -99.86 l 6.332,-1.168 c 27.744,-5.121 47.385,-26.073 51.77,-55.226 l 0.492,-3.275 h 64.601 64.602 l -0.231,122.053 M 241.921,612.355 c 0,1.763 -6.042,8.449 -11.273,12.474 -20.85,16.044 -48.616,13.627 -67.548,-5.88 -7.938,-8.18 -10.778,-7.595 36.9,-7.595 30.947,0 41.921,0.262 41.921,1.001 m -193.427,9.188 c -2.389,5.143 -3.854,6.405 -7.436,6.405 -4.614,0 -4.82,0.782 -1.185,4.505 3.201,3.278 3.22,3.339 2.273,7.477 -1.194,5.216 -1.011,5.375 3.355,2.921 4.517,-2.538 3.697,-3.765 12.519,18.721 4.147,10.568 7.896,20 8.333,20.961 0.436,0.96 3.397,8.428 6.58,16.594 3.182,8.166 6.113,15.633 6.513,16.594 0.4,0.96 1.207,3.024 1.795,4.585 0.865,2.301 4.349,4.288 4.349,2.481 0,-0.417 -8.455,-21.955 -9.632,-24.534 -0.438,-0.96 -1.999,-4.891 -3.469,-8.733 -1.47,-3.843 -3.023,-7.773 -3.452,-8.734 -1.908,-4.277 -3.746,-10.123 -3.318,-10.552 0.521,-0.52 2.746,3.464 11.141,19.94 4.005,7.861 6.122,11.136 7.201,11.136 2.166,0 2.033,-0.445 -2.867,-9.648 -7.252,-13.62 -12.508,-24.394 -12.1,-24.802 0.211,-0.211 2.928,3.354 6.038,7.923 3.11,4.569 6.068,8.905 6.573,9.636 0.782,1.129 1.071,1.146 1.929,0.113 0.8,-0.964 -0.341,-3.278 -5.505,-11.168 -8.701,-13.294 -8.312,-14.353 1.093,-2.972 2.104,2.547 3.051,3.143 3.802,2.392 1.174,-1.175 0.561,-2.464 -3.115,-6.549 -1.443,-1.604 -3.351,-4.045 -4.239,-5.426 -2.718,-4.222 -0.856,-2.688 14.447,11.898 2.774,2.645 3.849,2.959 4.475,1.31 0.227,-0.6 -3.375,-4.707 -8.006,-9.127 -11.183,-10.672 -9.121,-10.202 6.506,1.486 12.837,9.6 13.851,10.217 14.659,8.91 0.722,-1.169 -0.393,-2.197 -10.808,-9.965 -21.394,-15.956 -18.791,-15.099 15.26,5.025 15.459,9.137 18.801,10.607 18.801,8.27 0,-0.639 -12.511,-8.747 -13.499,-8.747 -0.185,0 -3.504,-1.965 -7.377,-4.367 -3.872,-2.402 -7.248,-4.367 -7.502,-4.367 -0.254,0 -3.597,-1.965 -7.429,-4.366 -3.833,-2.402 -7.188,-4.367 -7.456,-4.367 -0.269,0 -2.548,-1.318 -5.065,-2.928 -2.517,-1.61 -6.905,-4.223 -9.75,-5.806 -14.484,-8.058 -15.581,-9.147 -12.191,-12.095 2.624,-2.282 2.133,-3.625 -1.326,-3.625 -4.082,0 -5.283,-0.885 -7.372,-5.431 l -1.987,-4.323 -1.556,3.349 m 3.527,4.221 c 1.041,2.49 1.744,3.057 3.792,3.057 3.168,0 3.996,1.969 1.701,4.046 -1.457,1.319 -1.66,2.242 -1.186,5.402 0.54,3.602 -2.527,5.054 -3.781,1.79 -0.402,-1.046 -4.287,-0.956 -4.949,0.116 -1.479,2.392 -4.129,0.896 -3.581,-2.023 0.444,-2.367 0.145,-3.27 -1.639,-4.945 -2.494,-2.343 -1.68,-4.386 1.747,-4.386 1.349,0 2.572,-0.985 3.794,-3.057 0.992,-1.681 2.034,-3.057 2.314,-3.057 0.281,0 1.086,1.376 1.788,3.057 m 242.194,15.635 c -1.741,1.2 -3.388,2.763 -3.66,3.473 -0.273,0.71 -1.589,1.417 -2.926,1.572 -1.944,0.225 -2.609,0.907 -3.326,3.412 -0.493,1.722 -1.543,3.772 -2.333,4.555 -1.816,1.801 -1.567,9.273 0.409,12.29 1.604,2.447 1.154,3.168 -1.977,3.168 -1.252,0 -6.197,0.997 -10.99,2.215 -4.792,1.218 -11.004,2.457 -13.804,2.752 l -5.091,0.536 -2.002,4.454 c -1.1,2.449 -3.231,5.608 -4.734,7.019 l -2.733,2.565 v 21.755 21.754 l -4.803,5.472 c -2.642,3.009 -4.804,6.232 -4.804,7.162 0,0.93 -1.622,3.244 -3.604,5.143 -8.078,7.738 -9.993,13.394 -7.665,22.641 l 0.958,3.805 20.658,6.711 c 11.361,3.691 23.409,7.617 26.771,8.724 3.362,1.108 11.419,3.655 17.904,5.662 6.485,2.006 13.952,4.36 16.594,5.232 4.831,1.594 25.923,8.164 29.347,9.141 1.522,0.435 3.975,-1.832 14.337,-13.249 11.906,-13.118 17.823,-19.563 27.399,-29.844 l 4.27,-4.586 -2.742,-2.504 c -3.081,-2.815 -3.411,-5.315 -1.433,-10.867 1.518,-4.261 2.319,-3.586 -9.876,-8.328 l -10.211,-3.971 -0.229,-29.44 -0.23,-29.441 -2.557,-1.322 c -1.406,-0.727 -3.24,-2.479 -4.075,-3.893 -1.207,-2.042 -1.835,-2.403 -3.052,-1.751 -2.534,1.356 -4.808,0.965 -13.001,-2.237 -4.835,-1.889 -9.33,-3.057 -11.771,-3.057 -3.643,0 -5.062,-0.956 -3.163,-2.129 1.532,-0.947 0.922,-10.898 -0.741,-12.075 -0.839,-0.594 -1.8,-2.553 -2.135,-4.355 -0.507,-2.724 -0.968,-3.275 -2.741,-3.275 -1.313,0 -3.228,-1.176 -4.983,-3.059 -3.821,-4.102 -7.172,-4.647 -11.255,-1.83 m 8.304,3.716 c 1.276,1.276 2.55,3.238 2.832,4.36 0.421,1.677 0.905,1.941 2.72,1.486 2.179,-0.547 2.2,-0.502 1.61,3.432 -0.482,3.217 -0.319,4.143 0.846,4.795 1.245,0.696 1.041,1.123 -1.485,3.114 l -2.928,2.307 2.35,0.01 c 3.185,0.013 3.664,1.16 1.334,3.198 -6.442,5.634 -16.071,5.664 -22.216,0.069 -2.411,-2.195 -1.843,-3.249 1.771,-3.285 3.038,-0.03 3.226,0.278 -2.415,-3.958 -2.359,-1.772 -2.15,-3.001 0.509,-3.001 1.422,0 1.635,-0.372 1.127,-1.965 -1.143,-3.585 -0.887,-4.588 1.153,-4.517 1.242,0.043 2.161,-0.587 2.524,-1.729 1.741,-5.486 6.921,-7.663 10.268,-4.316 m 25.865,28.474 c 3.843,1.763 11.05,4.14 12.553,4.14 1.384,0 2.822,60.084 1.47,61.436 -0.484,0.485 -4.697,0.179 -10.686,-0.776 -5.683,-0.905 -14.808,-1.597 -21.459,-1.627 l -11.572,-0.052 0.103,-21.848 c 0.056,-12.017 0.351,-25.722 0.655,-30.456 l 0.552,-8.607 3.857,-1.3 c 10.492,-3.537 18.181,-3.822 24.527,-0.91 m -35.808,0.885 c 5.462,1.94 5.241,1.144 5.238,18.809 -0.002,8.978 -0.26,22.514 -0.574,30.079 l -0.57,13.756 h -2.271 c -1.249,0 -3.493,-0.35 -4.986,-0.779 -2.991,-0.858 -13.464,0.043 -26.236,2.257 -11.877,2.059 -10.775,5.047 -10.775,-29.224 0,-31.835 -0.028,-31.643 4.635,-31.643 2.762,0 13.949,-2.35 16.762,-3.521 2.704,-1.126 15.364,-0.946 18.777,0.266 m 57.206,37.826 v 29.621 l -2.108,0.298 -2.108,0.298 0.574,-29.411 c 0.574,-29.432 0.742,-31.394 2.63,-30.765 0.74,0.247 1.012,8.288 1.012,29.959 M 116.948,687.689 c -31.061,10.769 -35.477,51.188 -7.479,68.46 l 5.252,3.24 -14.752,0.24 c -17.468,0.284 -16.253,0.606 -17.801,-4.716 -0.682,-2.342 -1.545,-4.847 -1.919,-5.568 -0.374,-0.721 -1.46,-3.668 -2.414,-6.55 -6.808,-20.58 -8.837,-24.018 -14.172,-24.018 -6.995,0 -7.683,1.197 -17.838,31.005 -3.1,9.099 -3.634,10.043 -5.681,10.043 -1.496,0 -2.899,18.996 -1.498,20.289 0.12,0.111 24.389,0.406 53.93,0.655 l 53.712,0.454 0.237,16.812 0.238,16.812 h 10.024 10.025 v -27.511 -27.511 h -11.79 c -7.278,0 -11.791,-0.334 -11.791,-0.873 0,-0.48 0.421,-0.873 0.935,-0.873 3.402,0 13.955,-9.907 17.119,-16.071 16.04,-31.251 -11.953,-65.547 -44.337,-54.319 m 133.501,28.088 -0.231,27.891 -2.838,0.274 -2.839,0.273 V 717.483 690.75 l 2.251,-2.251 c 3.717,-3.716 3.902,-2.332 3.657,27.278 M 130.111,690.81 c 0.949,0.949 2.305,3.111 3.012,4.803 1.582,3.786 5.035,4.15 10.736,1.13 5.063,-2.681 6.194,-1.51 4.235,4.389 -0.998,3.006 -1.364,6.596 -1.188,11.65 l 0.256,7.305 5.676,0.108 5.677,0.108 -0.114,9.56 c -0.199,16.527 -10.027,26.413 -27.748,27.911 l -6.636,0.561 0.01,-2.53 c 0.023,-6.04 1.131,-9.012 4.909,-13.161 9.231,-10.138 5.862,-17.691 -10.209,-22.887 -3.218,-1.04 -6.937,-6.728 -6.937,-10.61 0,-2.072 0.236,-2.098 3.534,-0.393 2.522,1.305 2.65,1.261 6.386,-2.183 2.097,-1.933 4.457,-3.514 5.244,-3.514 1.733,0 1.977,-4.831 0.417,-8.256 -0.924,-2.028 -1.482,-2.225 -6.308,-2.225 -8.332,0 -4.102,-2.448 5.793,-3.353 0.841,-0.077 2.305,0.637 3.255,1.587 m 10.092,-0.462 c 3.589,1.5 3.775,2.412 0.876,4.311 -2.89,1.894 -3.509,1.794 -5.237,-0.843 -2.724,-4.157 -0.852,-5.645 4.361,-3.468 m -20.997,4.74 c 6.258,0.652 7.1,2.232 3.349,6.286 -3.798,4.103 -5.016,4.517 -8.457,2.876 -5.401,-2.575 -7.416,0.902 -4.827,8.328 1.278,3.666 0.719,4.038 -3.305,2.2 -7.926,-3.621 -9.145,-7.389 -4.401,-13.608 3.736,-4.898 8.32,-8.008 10.646,-7.223 0.969,0.327 4.117,0.841 6.995,1.141 m 37.826,8.71 c 6.94,10.183 6.405,13.501 -2.108,13.061 l -5.142,-0.265 -0.283,-3.93 c -0.155,-2.162 0.186,-5.502 0.758,-7.424 0.572,-1.921 1.178,-3.985 1.347,-4.585 0.607,-2.163 2.598,-1.01 5.428,3.143 m -51.534,14.465 4.625,2.33 -0.563,4.988 c -0.528,4.686 -0.38,5.25 2.448,9.357 2.573,3.737 5.63,20.521 3.737,20.521 -11.484,0 -25.121,-26.684 -20.463,-40.044 l 0.958,-2.749 2.317,1.634 c 1.274,0.898 4.397,2.682 6.941,3.963 m -38.646,5.278 c 5.181,5.181 -1.808,13.242 -7.33,8.453 -2.499,-2.168 -2.484,-6.473 0.031,-8.816 2.528,-2.355 4.688,-2.247 7.299,0.363 m 56.313,1.323 c 9.741,5.042 10.26,9.268 2.095,17.057 -2.666,2.545 -3.099,3.416 -4.244,8.551 -0.971,4.355 -2.239,1.548 -2.239,-4.955 0,-5.85 -0.238,-6.68 -3.056,-10.644 -6.575,-9.247 -2.269,-15.037 7.444,-10.009 m -65.466,9.665 c 2.364,1.264 2.175,2.001 -1.961,7.648 -5.923,8.086 -6.87,8.103 -4.129,0.072 3.087,-9.046 3.243,-9.244 6.09,-7.72 m 15.903,5.498 c 3.665,9.856 2.723,10.375 -3.36,1.851 -3.892,-5.454 -4.006,-5.778 -2.446,-6.959 2.733,-2.069 3.333,-1.542 5.806,5.108 m -4.536,5.606 c 3.033,4.203 5.755,7.839 6.048,8.079 0.947,0.776 3.489,4.735 3.489,5.434 0,0.374 -7.088,0.679 -15.752,0.679 H 47.1 l 1.035,-1.965 c 0.569,-1.081 1.284,-2.161 1.588,-2.401 0.304,-0.241 2.085,-2.599 3.957,-5.241 3.856,-5.442 9.181,-12.227 9.595,-12.227 0.152,0 2.758,3.439 5.791,7.642 m 172.855,-2.411 c 0,3.747 0.235,4.288 1.965,4.534 2.106,0.299 3.504,9.57 1.713,11.361 -1.508,1.508 -10.106,-2.11 -10.768,-4.532 -1.564,-5.728 -0.882,-9.478 2.382,-13.091 3.797,-4.203 4.708,-3.868 4.708,1.728 m 48.435,-3.544 c 0.906,1.466 -0.835,1.734 -15.249,2.351 -10.718,0.458 -14.092,0.358 -13.621,-0.404 0.344,-0.558 2.273,-1.041 4.286,-1.075 2.013,-0.034 4.446,-0.399 5.407,-0.812 2.38,-1.023 18.551,-1.074 19.177,-0.06 M 323,739.434 c 5.824,1.56 -8.477,2.903 -15.645,1.469 -2.461,-0.492 -2.645,-0.683 -1.201,-1.248 2.087,-0.816 14.036,-0.973 16.846,-0.221 m -27.949,5.61 c 1.728,0.39 4.924,0.35 7.102,-0.088 2.274,-0.457 13.876,-0.529 27.248,-0.169 20.207,0.545 23.401,0.455 24.146,-0.682 0.676,-1.033 1.092,-1.085 1.967,-0.247 0.891,0.854 0.78,1.181 -0.564,1.661 -0.921,0.329 -2.264,1.089 -2.985,1.69 -1.353,1.127 -16.589,9.996 -17.173,9.996 -5.447,0 -9.718,10.635 -8.888,22.131 0.294,4.074 -1.039,4.927 -5.231,3.344 -1.283,-0.484 -4.584,-1.553 -7.336,-2.375 -6.607,-1.972 -8.392,-11.903 -3.153,-17.549 1.855,-1.999 1.62,-2.373 -2.035,-3.246 -3.435,-0.819 -6.01,3.687 -6.234,10.908 -0.187,6.01 -1.728,7.725 -3.299,3.67 -1.381,-3.561 -0.355,-10.637 1.887,-13.023 2.256,-2.402 1.574,-3.86 -1.805,-3.86 -3.993,0 -6.122,3.773 -6.122,10.85 v 5.777 l -2.401,-0.569 c -1.321,-0.314 -7.118,-1.94 -12.882,-3.615 -5.765,-1.674 -11.353,-3.237 -12.419,-3.473 -2.64,-0.585 -3.528,-1.873 -3.779,-5.476 -0.407,-5.833 0.05,-8.414 1.825,-10.32 0.981,-1.053 1.669,-2.601 1.528,-3.439 -0.229,-1.363 0.986,-1.59 11.442,-2.14 6.434,-0.339 12.329,-0.761 13.1,-0.938 0.772,-0.178 1.744,-0.144 2.161,0.075 0.417,0.219 2.172,0.717 3.9,1.107 m -38.688,4.807 c -0.745,1.427 -1.333,4.791 -1.336,7.637 -0.004,4.371 -0.22,5.045 -1.534,4.794 -2.829,-0.539 -2.642,-11.465 0.246,-14.354 2.906,-2.905 4.523,-1.72 2.624,1.923 m 103.801,-2.034 c -0.549,0.939 -8.685,10.769 -9.94,12.008 -0.243,0.241 -3.193,3.581 -6.556,7.424 -3.362,3.843 -6.533,7.435 -7.046,7.982 -0.514,0.548 -1.995,2.257 -3.292,3.799 -4.593,5.458 -5.981,1.809 -3.961,-10.418 0.919,-5.565 1.194,-6.074 4.148,-7.655 3.749,-2.007 10.52,-5.778 15.391,-8.571 9.505,-5.449 12.474,-6.654 11.256,-4.569 m -109.928,5.937 c -0.276,6.877 -0.725,7.956 -2.179,5.24 -0.893,-1.67 -0.507,-8.856 0.577,-10.741 1.189,-2.065 1.819,0.098 1.602,5.501 m 10.028,-3.54 c -0.481,0.9 -0.875,3.997 -0.875,6.882 0,5.994 -1.26,7.784 -2.063,2.93 -0.88,-5.325 -0.64,-8.428 0.812,-10.501 1.629,-2.326 3.428,-1.743 2.126,0.689 m 107.984,-1.292 c 0.542,1.412 -0.167,2.256 -17.591,20.947 -5.822,6.245 -12.527,13.464 -14.9,16.042 l -4.316,4.689 -0.3,8.63 c -0.337,9.672 -0.428,9.771 -6.888,7.444 -1.811,-0.653 -5.454,-1.865 -8.096,-2.694 -4.721,-1.482 -7.889,-2.677 -10.48,-3.955 -2.7,-1.33 -2.249,-13.419 0.619,-16.568 l 2.438,-2.677 4.803,1.374 c 2.642,0.755 6.081,1.739 7.642,2.186 10.079,2.886 7.396,4.519 23.779,-14.479 4.553,-5.28 8.489,-9.795 8.747,-10.036 0.258,-0.24 2.771,-3.089 5.585,-6.332 5.049,-5.818 7.918,-7.282 8.958,-4.571 m -136.317,6.876 c 0.411,1.636 1.592,2.401 5.475,3.545 2.724,0.803 6.208,2.009 7.742,2.68 l 2.79,1.221 -1.446,2.876 c -0.82,1.631 -1.504,5.249 -1.578,8.36 -0.166,6.875 -0.09,6.817 -6.202,4.726 -2.798,-0.958 -7.331,-2.418 -10.072,-3.245 -7.44,-2.245 -8.434,-10.946 -2.023,-17.709 1.684,-1.776 3.066,-3.525 3.07,-3.885 0.018,-1.577 1.77,-0.46 2.244,1.431 m 135.636,5.337 c 0.608,1.682 1.621,3.057 2.252,3.057 3.534,0 2.815,2.344 -2.424,7.899 -2.963,3.141 -8.727,9.4 -12.81,13.911 -4.083,4.51 -9.388,10.344 -11.79,12.964 -2.402,2.621 -5.034,5.534 -5.849,6.473 -2.398,2.763 -3.322,1.045 -3.308,-6.146 0.016,-8.038 -1.022,-6.281 11.797,-19.958 5.753,-6.139 12.583,-13.433 15.178,-16.209 5.551,-5.938 5.529,-5.931 6.954,-1.991 m -70.624,6.602 c 0,7.014 -1.074,9.205 -2.071,4.223 -0.687,-3.436 0.31,-12.247 1.316,-11.625 0.415,0.257 0.755,3.588 0.755,7.402 M 164.1,763.644 c 0.702,0.847 0.926,7.972 0.762,24.236 l -0.233,23.037 -7.642,0.252 -7.642,0.253 v -16.621 -16.622 l -53.493,-0.225 -53.494,-0.225 -0.252,-7.642 -0.253,-7.642 h 60.626 c 50.327,0 60.795,0.204 61.621,1.199 m 142.127,0.766 c -0.289,1.081 -0.532,4.422 -0.538,7.424 -0.007,3.049 -0.398,5.459 -0.886,5.459 -0.968,0 -1.239,-13.317 -0.291,-14.265 1.256,-1.256 2.215,-0.483 1.715,1.382 m -54.123,1.876 c -0.877,1.338 -1.465,4.57 -1.629,8.952 -0.202,5.4 -0.535,6.858 -1.567,6.858 -2.069,0 -2.361,-14.03 -0.338,-16.266 2.382,-2.632 5.31,-2.254 3.534,0.456 m 6.755,-0.699 c 1.197,0.46 1.211,0.809 0.12,2.919 -0.681,1.318 -1.512,5.407 -1.845,9.085 -0.612,6.749 -1.044,7.379 -4.224,6.158 -2.556,-0.981 -1.913,-12.677 0.879,-15.996 2.367,-2.813 2.848,-3.018 5.07,-2.166 m 5.739,3.19 c -0.017,0.601 -0.593,2.075 -1.279,3.275 -0.735,1.287 -1.261,4.633 -1.279,8.143 -0.027,5.195 -0.227,5.922 -1.56,5.668 -2.513,-0.48 -2.66,-12.127 -0.197,-15.586 1.87,-2.627 4.371,-3.496 4.315,-1.5 m 8.079,1.021 c 2.058,0.681 6.592,2.073 10.074,3.094 6.513,1.908 7.306,2.75 4.991,5.308 -0.817,0.903 -1.585,4.172 -1.965,8.366 -0.343,3.786 -1.017,6.882 -1.498,6.88 -5.508,-0.021 -19.696,-6.341 -20.194,-8.995 -0.856,-4.56 0.429,-11.718 2.5,-13.927 2.181,-2.327 1.5,-2.246 6.092,-0.726 m 19.896,10.558 c -1.241,2.433 -1.743,5.148 -1.743,9.412 0,5.237 -0.193,5.957 -1.529,5.702 -3.49,-0.665 -2.503,-14.178 1.294,-17.698 3.154,-2.925 4.134,-1.644 1.978,2.584 m 7.347,-2.319 c 0.253,0.409 -0.313,2.261 -1.258,4.115 -1.21,2.371 -1.719,5.127 -1.719,9.299 0,6.166 -0.344,6.71 -3.013,4.758 -2.476,-1.81 -1.559,-13.725 1.289,-16.757 2.07,-2.204 3.878,-2.748 4.701,-1.415 m 5.757,2.462 c 0,0.322 -0.632,1.284 -1.404,2.137 -0.96,1.061 -1.551,3.913 -1.87,9.021 -0.489,7.834 -1.84,9.746 -3.818,5.404 -1.254,-2.751 0.363,-13.274 2.382,-15.505 1.414,-1.563 4.71,-2.302 4.71,-1.057"
       inkscape:connector-curvature="0"
       style="fill:#231f20;fill-rule:evenodd;stroke:none" />
    <path
       id="path1"
       d="m 391.054,321.168 c 0.874,0.618 1.052,27.081 0.873,130.154 -0.123,71.157 0.072,129.081 0.434,128.719 1.421,-1.421 0.334,-258.902 -1.095,-259.292 -0.975,-0.267 -1.03,-0.16 -0.212,0.419 m -144.406,32.477 c -14.003,3.436 -19.719,20.941 -6.174,18.91 l 3.796,-0.569 6.482,10.295 c 7.085,11.254 7.476,11.457 9.69,5.055 2.126,-6.148 1.491,-8.071 -6.551,-19.866 -0.798,-1.17 -0.801,-1.907 -0.014,-3.167 4.346,-6.96 0.544,-12.565 -7.229,-10.658 m 12.088,3.997 c 0.009,1.921 0.188,2.605 0.397,1.518 0.209,-1.086 0.201,-2.658 -0.018,-3.493 -0.218,-0.835 -0.389,0.054 -0.379,1.975 m 19.212,13.266 c 0.84,0.219 2.216,0.219 3.056,0 0.841,-0.22 0.153,-0.4 -1.528,-0.4 -1.681,0 -2.369,0.18 -1.528,0.4 m -10.432,4.265 -2.45,2.247 2.838,-1.975 c 1.561,-1.086 2.838,-2.097 2.838,-2.247 0,-0.689 -0.966,-0.098 -3.226,1.975 m 10.218,35.016 c 0.013,6.601 4.473,13.392 8.796,13.392 2.457,0 2.035,-1.451 -2.523,-8.665 -4.568,-7.232 -6.28,-8.522 -6.273,-4.727 m 37.788,28.239 c 0,2.162 0.17,3.046 0.378,1.965 0.208,-1.081 0.208,-2.849 0,-3.93 -0.208,-1.081 -0.378,-0.197 -0.378,1.965 m -24.127,6.779 c -0.269,0.434 0.379,2.142 1.438,3.795 1.06,1.654 2.35,3.763 2.868,4.688 2.289,4.09 15.216,8.205 15.216,4.843 0,-2.849 -6.241,-11.276 -8.98,-12.125 -4.61,-1.429 -10.021,-2.045 -10.542,-1.201 m 39.952,36.516 c -0.31,1.236 -0.22,2.59 0.202,3.008 0.437,0.435 0.793,-0.527 0.831,-2.247 0.078,-3.58 -0.262,-3.831 -1.033,-0.761 m -29.382,-0.757 c 1.081,0.208 2.849,0.208 3.93,0 1.081,-0.208 0.197,-0.379 -1.965,-0.379 -2.161,0 -3.046,0.171 -1.965,0.379 m 11.572,0.079 c 0,1.373 7.892,13.461 9.82,15.041 2.878,2.358 16.445,9.818 16.945,9.318 0.604,-0.604 -12.573,-21.68 -14.71,-23.526 -1.825,-1.578 -12.055,-2.285 -12.055,-0.833 m 32.315,37.665 c 0,2.552 0.758,4.42 2.97,7.319 1.807,2.367 3.403,5.824 4.075,8.827 1.033,4.614 1.451,5.18 6.418,8.69 10.463,7.393 10.557,7.823 -2.983,-13.69 -9.884,-15.704 -10.48,-16.338 -10.48,-11.146 m -137.046,1.254 c 0.201,0.173 1.543,0.578 2.984,0.9 1.914,0.428 2.267,0.347 1.31,-0.3 -1.179,-0.798 -5.17,-1.355 -4.294,-0.6 m 141.805,30.18 c -0.456,0.44 -1.812,0.976 -3.013,1.191 l -2.183,0.392 2.295,0.119 c 1.262,0.066 2.784,-0.47 3.382,-1.191 1.188,-1.432 0.849,-1.792 -0.481,-0.511 M 8.26,588.865 c -1.661,4.331 0.127,244.316 1.838,246.607 4.89,6.549 -3.454,5.961 91.523,6.449 l 84.9,0.437 4.558,3.275 c 2.507,1.801 4.755,3.275 4.997,3.275 0.241,0 0.338,-45.282 0.216,-100.627 l -0.222,-100.627 -6.114,-0.985 c -26.367,-4.247 -46.172,-24.011 -51.142,-51.036 -0.574,-3.122 -1.178,-6.168 -1.343,-6.768 -0.235,-0.861 -13.889,-1.092 -64.545,-1.092 -50.592,0 -64.336,0.232 -64.666,1.092 m 47.207,38.528 c 0.795,0.305 2.568,0.555 3.942,0.555 3.459,0 3.95,1.343 1.326,3.625 -3.39,2.948 -2.293,4.037 12.191,12.095 2.845,1.583 7.233,4.196 9.75,5.806 2.517,1.61 4.796,2.928 5.065,2.928 0.268,0 3.623,1.965 7.456,4.367 3.832,2.401 7.175,4.366 7.429,4.366 0.254,0 3.63,1.965 7.502,4.367 3.873,2.402 7.192,4.367 7.377,4.367 0.988,0 13.499,8.108 13.499,8.747 0,2.337 -3.342,0.867 -18.801,-8.27 -34.051,-20.124 -36.654,-20.981 -15.26,-5.025 10.415,7.768 11.53,8.796 10.808,9.965 -0.808,1.307 -1.822,0.69 -14.659,-8.91 -15.627,-11.688 -17.689,-12.158 -6.506,-1.486 4.631,4.42 8.233,8.527 8.006,9.127 -0.626,1.649 -1.701,1.335 -4.475,-1.31 -15.303,-14.586 -17.165,-16.12 -14.447,-11.898 0.888,1.381 2.796,3.822 4.239,5.426 3.676,4.085 4.289,5.374 3.115,6.549 -0.751,0.751 -1.698,0.155 -3.802,-2.392 -9.405,-11.381 -9.794,-10.322 -1.093,2.972 5.164,7.89 6.305,10.204 5.505,11.168 -0.858,1.033 -1.147,1.016 -1.929,-0.113 -0.505,-0.731 -3.463,-5.067 -6.573,-9.636 -3.11,-4.569 -5.827,-8.134 -6.038,-7.923 -0.408,0.408 4.848,11.182 12.1,24.802 4.9,9.203 5.033,9.648 2.867,9.648 -1.079,0 -3.196,-3.275 -7.201,-11.136 -8.395,-16.476 -10.62,-20.46 -11.141,-19.94 -0.428,0.429 1.41,6.275 3.318,10.552 0.429,0.961 1.982,4.891 3.452,8.734 1.47,3.842 3.031,7.773 3.469,8.733 1.177,2.579 9.632,24.117 9.632,24.534 0,1.807 -3.484,-0.18 -4.349,-2.481 -0.588,-1.561 -1.395,-3.625 -1.795,-4.585 -0.4,-0.961 -3.331,-8.428 -6.513,-16.594 -3.183,-8.166 -6.144,-15.634 -6.58,-16.594 -0.437,-0.961 -4.186,-10.393 -8.333,-20.961 -8.822,-22.486 -8.002,-21.259 -12.519,-18.721 -4.366,2.454 -4.549,2.295 -3.355,-2.921 0.947,-4.138 0.928,-4.199 -2.273,-7.477 -3.635,-3.723 -3.429,-4.505 1.185,-4.505 3.582,0 5.047,-1.262 7.436,-6.405 l 1.556,-3.349 1.987,4.323 c 1.092,2.377 2.636,4.572 3.43,4.876 m 230.638,37.982 c -0.254,0.411 0.607,1.688 1.913,2.839 l 2.375,2.092 -2.055,-2.335 -2.054,-2.335 2.491,-0.373 2.491,-0.372 -2.35,-0.131 c -1.292,-0.072 -2.558,0.205 -2.811,0.615 m 22.86,-0.128 c 1.141,0.219 1.731,0.78 1.393,1.326 -0.351,0.568 -0.176,0.694 0.438,0.314 1.505,-0.93 0.312,-2.276 -1.896,-2.139 -1.899,0.118 -1.898,0.122 0.065,0.499 m -171.41,21.26 c 32.032,8.327 38.824,50.051 11.237,69.032 -2.031,1.397 -4.112,2.54 -4.626,2.54 -0.514,0 -0.935,0.393 -0.935,0.873 0,0.539 4.513,0.873 11.791,0.873 h 11.79 v 27.511 27.511 h -10.025 -10.024 l -0.238,-16.812 -0.237,-16.812 -53.712,-0.454 c -29.541,-0.249 -53.81,-0.544 -53.93,-0.655 -1.401,-1.293 0.002,-20.289 1.498,-20.289 2.047,0 2.581,-0.944 5.681,-10.043 10.155,-29.808 10.843,-31.005 17.838,-31.005 5.335,0 7.364,3.438 14.172,24.018 0.954,2.882 2.04,5.829 2.414,6.55 0.374,0.721 1.237,3.226 1.919,5.568 1.548,5.322 0.333,5 17.801,4.716 l 14.752,-0.24 -5.252,-3.24 C 73.008,733.656 96.343,675.794 137.555,686.507 m -77.514,55.196 c -1.626,2.042 -4.489,5.873 -6.361,8.515 -1.872,2.642 -3.653,5 -3.957,5.241 -0.304,0.24 -1.019,1.32 -1.588,2.401 l -1.035,1.965 h 15.751 c 8.664,0 15.752,-0.305 15.752,-0.679 0,-0.699 -2.542,-4.658 -3.489,-5.434 -0.293,-0.24 -3.015,-3.876 -6.048,-8.079 -6.481,-8.981 -5.381,-8.502 -9.025,-3.93 m 177.468,-0.438 -3.011,3.276 3.275,-3.009 3.275,-3.01 0.153,4.32 0.152,4.32 0.34,-3.831 c 0.475,-5.341 -0.66,-5.901 -4.184,-2.066 m -162.715,3.706 c 0.527,2.021 0.449,2.087 -1.087,0.922 -1.583,-1.201 -1.589,-1.184 -0.147,0.391 1.911,2.088 3.021,1.087 1.682,-1.516 -1.001,-1.945 -1.007,-1.942 -0.448,0.203 m 235.047,-0.233 c 1.57,0.194 3.928,0.19 5.24,-0.009 1.313,-0.199 0.028,-0.358 -2.854,-0.354 -2.882,0.005 -3.956,0.168 -2.386,0.363 m 42.999,-0.124 c 0.002,0.441 -3.241,0.77 -7.205,0.733 l -7.207,-0.067 6.411,0.324 c 5.608,0.283 6.34,0.51 5.85,1.814 -0.418,1.112 -0.062,0.997 1.401,-0.451 1.079,-1.067 1.689,-2.213 1.355,-2.547 -0.334,-0.333 -0.606,-0.246 -0.605,0.194 m -118.529,4.294 c 0.006,2.402 0.176,3.281 0.377,1.953 0.201,-1.327 0.195,-3.292 -0.012,-4.366 -0.207,-1.075 -0.372,0.012 -0.365,2.413 m 29.99,-3.233 c -0.237,0.383 -0.069,1.267 0.372,1.965 0.672,1.063 0.805,1.029 0.816,-0.205 0.009,-1.003 0.918,-1.585 2.852,-1.825 l 2.838,-0.352 -3.224,-0.14 c -1.772,-0.077 -3.417,0.174 -3.654,0.557 m -15.667,2.578 c -1.064,1.849 -1.472,9.068 -0.604,10.69 0.976,1.823 2.636,1.657 2.612,-0.261 -0.01,-0.758 -0.203,-0.742 -0.711,0.058 -0.387,0.61 -0.706,-1.522 -0.717,-4.804 -0.014,-3.896 0.198,-5.159 0.623,-3.718 l 0.644,2.184 0.087,-2.402 c 0.081,-2.227 -1.063,-3.26 -1.934,-1.747 m 113.32,2.184 -2.565,2.838 2.788,-2.517 c 1.872,-1.69 3.378,-2.362 4.586,-2.046 0.989,0.258 1.578,0.114 1.309,-0.322 -0.988,-1.599 -3.619,-0.719 -6.118,2.047 m -116.382,3.42 c -0.096,3.012 -0.584,5.122 -1.249,5.39 -0.855,0.345 -0.849,0.455 0.028,0.509 1.61,0.1 2.088,-1.743 1.71,-6.592 l -0.331,-4.256 -0.158,4.949 m 13.395,-2.547 c -0.642,1.914 -0.912,11.953 -0.304,11.313 0.556,-0.585 1.43,-12.41 0.917,-12.406 -0.136,10e-4 -0.411,0.493 -0.613,1.093 m -1.949,3.712 c 0.007,2.402 0.177,3.28 0.377,1.953 0.201,-1.328 0.196,-3.293 -0.012,-4.367 -0.207,-1.074 -0.371,0.012 -0.365,2.414 m 101.887,5.458 -3.01,3.275 3.275,-3.009 c 3.049,-2.802 3.677,-3.541 3.01,-3.541 -0.146,0 -1.62,1.474 -3.275,3.275 m -54.393,2.548 c -0.94,0.94 -0.671,1.746 0.583,1.746 0.64,0 1.164,-0.524 1.164,-1.164 0,-1.254 -0.806,-1.523 -1.747,-0.582 m -81.555,4.221 c 0.007,2.402 0.176,3.281 0.377,1.953 0.201,-1.328 0.196,-3.293 -0.012,-4.367 -0.207,-1.074 -0.371,0.012 -0.365,2.414 m 73.363,0.873 c 0.006,2.402 0.176,3.281 0.377,1.953 0.2,-1.327 0.195,-3.292 -0.012,-4.366 -0.208,-1.075 -0.372,0.012 -0.365,2.413 m -1.794,0.437 c 0,1.681 0.18,2.369 0.399,1.528 0.22,-0.84 0.22,-2.216 0,-3.056 -0.219,-0.841 -0.399,-0.153 -0.399,1.528 m 3.528,0.873 c 0,2.162 0.171,3.046 0.379,1.965 0.208,-1.08 0.208,-2.849 0,-3.93 -0.208,-1.081 -0.379,-0.196 -0.379,1.965 m 27.913,0 c 0,1.682 0.18,2.369 0.399,1.529 0.22,-0.841 0.22,-2.216 0,-3.057 -0.219,-0.841 -0.399,-0.153 -0.399,1.528 m -18.294,3.057 c 0.007,2.402 0.177,3.281 0.377,1.953 0.201,-1.327 0.196,-3.292 -0.012,-4.367 -0.207,-1.074 -0.371,0.012 -0.365,2.414 m -57.723,2.766 c -0.109,4.054 -0.553,6.414 -1.26,6.699 -0.855,0.345 -0.849,0.456 0.027,0.51 1.67,0.103 2.062,-1.698 1.715,-7.883 l -0.314,-5.585 -0.168,6.259 m 8.909,-2.84 c -0.26,0.68 -0.333,2.351 -0.16,3.712 0.256,2.02 0.393,1.793 0.743,-1.236 0.442,-3.819 0.248,-4.641 -0.583,-2.476 m 42.57,0.729 c -0.123,2.476 -1.382,3.239 -2.161,1.31 -0.317,-0.787 -0.459,-0.801 -0.509,-0.051 -0.099,1.49 1.673,2.37 2.701,1.342 0.479,-0.479 0.695,-1.801 0.48,-2.937 -0.36,-1.896 -0.402,-1.868 -0.511,0.336 m 43.08,2.62 -4.334,4.585 4.585,-4.334 c 2.522,-2.383 4.585,-4.447 4.585,-4.585 0,-0.651 -0.809,0.074 -4.836,4.334 m -80.492,5.022 c 0,2.642 0.164,3.723 0.364,2.402 0.2,-1.321 0.2,-3.483 0,-4.804 -0.2,-1.321 -0.364,-0.24 -0.364,2.402 m 31.113,-1.092 -2.117,2.402 2.357,-2.075 c 1.401,-1.234 2.926,-1.858 3.758,-1.539 0.812,0.312 1.175,0.175 0.866,-0.326 -0.926,-1.498 -2.674,-0.945 -4.864,1.538 m 11.354,3.494 -2.117,2.402 2.62,-2.184 c 1.441,-1.201 2.784,-2.282 2.984,-2.402 0.2,-0.12 -0.026,-0.218 -0.503,-0.218 -0.477,0 -1.819,1.081 -2.984,2.402 m -18.77,5.228 c 0.047,5.358 0.331,6.781 1.369,6.855 0.72,0.052 0.835,-0.068 0.254,-0.266 -0.658,-0.224 -1.174,-2.805 -1.369,-6.855 l -0.313,-6.496 0.059,6.762 m 47.179,-2.171 -3.452,3.711 3.712,-3.452 c 3.452,-3.211 4.113,-3.971 3.452,-3.971 -0.142,0 -1.813,1.67 -3.712,3.712 m -42.096,1.091 c 0.009,1.922 0.188,2.605 0.397,1.518 0.209,-1.086 0.201,-2.658 -0.018,-3.493 -0.218,-0.835 -0.389,0.054 -0.379,1.975 m -7.878,2.184 c 0,1.681 0.18,2.369 0.399,1.528 0.22,-0.841 0.22,-2.216 0,-3.057 -0.219,-0.84 -0.399,-0.153 -0.399,1.529 m 16.391,4.46 c 0,3.672 -0.239,4.368 -1.355,3.94 -0.778,-0.298 -1.128,-0.152 -0.822,0.343 1.59,2.574 3.05,0.687 3.05,-3.94 0,-2.642 -0.196,-4.803 -0.436,-4.803 -0.24,0 -0.437,2.007 -0.437,4.46 m -3.291,-0.094 c 0,1.682 0.18,2.369 0.4,1.529 0.219,-0.841 0.219,-2.216 0,-3.057 -0.22,-0.841 -0.4,-0.153 -0.4,1.528 M 330.425,800 c 0,3.603 0.154,5.076 0.342,3.275 0.189,-1.801 0.189,-4.749 0,-6.55 -0.188,-1.801 -0.342,-0.328 -0.342,3.275"
       inkscape:connector-curvature="0"
       style="fill:#ef3431;fill-rule:evenodd;stroke:none" />
    <path
       id="path2"
       d="m 204.367,420.524 v 99.127 l 4.148,0.005 c 2.69,0.004 5.07,0.622 6.769,1.756 1.441,0.963 6.606,3.726 11.477,6.14 19.165,9.496 32.363,27.019 35.822,47.557 l 0.736,4.367 63.974,0.224 63.973,0.224 V 450.661 321.397 h -93.449 -93.45 v 99.127 m 52.688,-69.394 c 2.935,2.309 3.68,6.425 2.029,11.217 -1.258,3.65 0.405,8.125 5.179,13.942 0.138,0.169 1.581,-0.708 3.207,-1.948 13.581,-10.358 31.22,-0.119 31.22,18.122 0,9.636 -9.416,15.241 -15.939,9.488 -3.03,-2.673 -1.473,0.786 5.22,11.6 6.736,10.883 6.755,10.903 10.094,10.903 16.092,0 23.01,10.279 15.804,23.484 -1.682,3.082 -1.883,4.084 -1.027,5.115 0.585,0.705 1.472,2.099 1.971,3.098 0.566,1.132 2.423,2.201 4.933,2.841 10.702,2.728 16.942,13.677 12.879,22.596 -0.864,1.895 -0.685,2.608 1.31,5.223 1.27,1.666 2.31,3.278 2.31,3.582 0,0.304 0.885,1.804 1.967,3.333 1.082,1.529 2.436,3.567 3.01,4.527 0.574,0.961 7.942,12.676 16.373,26.034 17.454,27.651 16.187,24.759 12.441,28.389 l -2.889,2.801 -6.04,-4.813 c -7.085,-5.646 -6.606,-5.533 -8.269,-1.955 -2.442,5.256 -7.595,4.175 -10.946,-2.297 -1.686,-3.256 -3.591,-5.597 -5.24,-6.438 -5.17,-2.637 -6.273,-4.356 -7.451,-11.61 -1.197,-7.369 -1.456,-7.663 -8.005,-9.091 -7.745,-1.689 -11.082,-11.162 -8.218,-23.33 1.578,-6.702 -1.539,-13.257 -6.489,-13.646 -20.72,-1.627 -30.142,-15.466 -18.836,-27.665 l 2.294,-2.475 -1.914,-3.153 c -2.452,-4.038 -3.074,-4.433 -7.004,-4.449 -14.42,-0.059 -25.134,-15.999 -25.134,-37.393 v -8.881 l -6.744,-10.84 -6.744,-10.84 -5.178,-0.374 c -8.452,-0.612 -11.075,-5.086 -7.656,-13.061 4.472,-10.433 20.562,-17.48 27.482,-12.036 m 39.741,293.899 c -1.346,0.716 -2.759,2.537 -3.343,4.307 -0.773,2.342 -1.494,3.066 -3.052,3.066 -1.916,0 -1.978,0.163 -1.024,2.69 0.88,2.333 0.797,2.851 -0.627,3.892 -1.551,1.135 -1.466,1.306 1.528,3.073 4.124,2.433 4.011,3.445 -0.384,3.445 -3.868,0 -3.67,0.656 1.123,3.723 4.593,2.939 14.722,1.58 18.828,-2.526 1.013,-1.014 0.741,-1.197 -1.777,-1.197 -4.296,0 -4.552,-0.868 -0.972,-3.3 2.224,-1.511 2.83,-2.346 2.053,-2.827 -0.756,-0.467 -0.927,-1.784 -0.544,-4.182 0.506,-3.163 0.397,-3.457 -1.135,-3.056 -1.297,0.339 -2.066,-0.328 -3.273,-2.834 -2.215,-4.602 -4.407,-5.868 -7.401,-4.274 M 60.456,723.63 c -3.888,2.724 -2.065,8.248 2.723,8.248 4.832,0 6.457,-4.796 2.642,-7.797 -2.757,-2.169 -2.895,-2.181 -5.365,-0.451 m -5.148,11.945 c -0.922,1.44 -2.883,6.97 -2.87,8.093 0.018,1.502 5.156,-5.159 5.18,-6.717 0.031,-1.93 -1.407,-2.786 -2.31,-1.376 m 13.906,-0.448 c -1.654,0.59 -1.346,1.743 1.613,6.043 3.387,4.924 3.847,4.546 1.681,-1.381 -1.942,-5.313 -1.847,-5.179 -3.294,-4.662 m 168.996,6.995 c -3.925,4.11 -3.614,13.421 0.498,14.908 5.689,2.057 6.464,1.615 6.588,-3.755 0.105,-4.542 -0.006,-4.803 -2.023,-4.803 -1.948,0 -2.157,-0.387 -2.398,-4.433 l -0.264,-4.432 -2.401,2.515 m 37.296,3.621 c -10.624,0.733 -13.431,3.333 -13.472,12.473 l -0.025,5.814 5.022,1.481 c 2.762,0.814 6.004,1.802 7.205,2.194 1.201,0.393 4.541,1.371 7.423,2.173 2.882,0.803 6.143,1.817 7.247,2.254 1.103,0.436 2.184,0.794 2.401,0.794 0.218,0 0.396,-2.432 0.396,-5.405 0,-8.342 3.177,-12.456 8.515,-11.026 3.295,0.882 3.498,1.78 1.092,4.839 -1.983,2.52 -2.621,14.212 -0.776,14.212 0.614,0 0.789,-1.042 0.476,-2.839 -1.258,-7.223 3.025,-15.484 7.422,-14.315 4.365,1.161 4.701,1.933 2.154,4.96 -2.128,2.53 -2.338,3.386 -2.108,8.593 l 0.256,5.784 5.454,1.867 c 3,1.027 6.832,2.126 8.515,2.442 l 3.061,0.574 v -9.58 c 0,-9.463 1.907,-14.953 5.193,-14.953 0.687,0 14.92,-8.041 17.784,-10.047 2.541,-1.78 -17.564,-2.629 -50.051,-2.114 -2.162,0.034 -6.485,-0.114 -9.607,-0.329 -3.122,-0.215 -9.232,-0.146 -13.577,0.154 m -21.263,3.052 c -1.493,1.799 -2.238,9.615 -1.102,11.57 0.762,1.312 0.96,0.491 0.981,-4.077 0.015,-3.204 0.481,-6.175 1.06,-6.754 0.568,-0.568 0.821,-1.246 0.561,-1.506 -0.26,-0.259 -0.935,0.085 -1.5,0.767 m 109.804,0.423 c -0.161,0.41 -2.846,3.627 -5.968,7.147 -7.551,8.513 -21.349,24.22 -25.914,29.498 l -1.896,2.193 -5.091,-1.539 c -2.8,-0.846 -6.466,-1.942 -8.147,-2.436 -1.682,-0.494 -4.009,-1.263 -5.171,-1.709 -4.891,-1.876 -10.347,12.982 -6.053,16.483 1.18,0.962 17.39,6.598 21.922,7.623 l 2.402,0.542 v -8.297 -8.297 l 5.459,-5.873 c 13.203,-14.205 18.996,-20.372 25.419,-27.061 6.331,-6.593 7.546,-9.02 4.514,-9.02 -0.652,0 -1.316,0.335 -1.476,0.746 M 227.38,758.89 c -2.7,3.079 -3.21,5.02 -3.018,11.478 l 0.092,3.119 9.605,3.213 c 5.283,1.767 9.754,3.213 9.936,3.213 0.183,0 0.162,-1.671 -0.047,-3.712 -0.208,-2.042 0.17,-5.754 0.841,-8.249 l 1.219,-4.538 -2.262,-0.876 c -1.244,-0.482 -4.03,-1.348 -6.191,-1.923 -2.162,-0.576 -4.717,-1.906 -5.677,-2.955 l -1.747,-1.908 -2.751,3.138 m 22.107,7.468 c -1.706,1.706 -2.625,7.45 -1.889,11.808 0.959,5.672 1.862,4.008 1.862,-3.429 0,-4.413 0.413,-7.42 1.141,-8.296 1.445,-1.741 0.606,-1.803 -1.114,-0.083 m 5.299,1.109 c -1.832,2.03 -2.905,11.588 -1.579,14.066 1.723,3.218 2.419,2.097 2.935,-4.73 0.275,-3.631 0.955,-7.151 1.512,-7.822 2.111,-2.544 -0.631,-3.992 -2.868,-1.514 m 6.39,3.097 c -1.559,2.494 -2.412,14.589 -1.029,14.589 0.623,0 0.988,-1.89 0.988,-5.11 0,-2.81 0.439,-6.368 0.975,-7.905 1.183,-3.395 0.707,-4.199 -0.934,-1.574 m 4.831,2.231 c -1.409,2.723 -1.867,11.11 -0.707,12.933 0.354,0.557 4.18,2.19 8.502,3.628 4.321,1.439 8.545,2.893 9.386,3.23 1.356,0.545 1.528,0.01 1.528,-4.748 0,-2.949 0.59,-6.772 1.31,-8.497 1.745,-4.176 1.696,-4.398 -1.092,-4.923 -1.32,-0.249 -4.563,-1.121 -7.205,-1.938 -8.837,-2.734 -10.164,-2.699 -11.722,0.315 m 24.045,6.984 c -1.458,2.047 -1.842,3.88 -1.842,8.784 0,8.429 1.383,7.854 1.978,-0.822 0.264,-3.86 0.966,-7.604 1.559,-8.318 0.593,-0.715 0.869,-1.509 0.612,-1.765 -0.256,-0.256 -1.294,0.698 -2.307,2.121 m 5.797,0.789 c -1.556,1.742 -2.87,10.46 -1.993,13.224 1.1,3.463 2.214,1.845 2.214,-3.214 0,-3.236 0.595,-6.223 1.652,-8.297 1.788,-3.507 0.655,-4.544 -1.873,-1.713 m 5.561,2.473 c -1.473,1.872 -1.847,3.562 -1.847,8.343 0,8.327 1.434,7.532 1.932,-1.071 0.272,-4.704 0.812,-7.317 1.615,-7.813 0.663,-0.41 0.968,-0.984 0.676,-1.276 -0.292,-0.291 -1.361,0.526 -2.376,1.817"
       inkscape:connector-curvature="0"
       style="fill:#fae259;fill-rule:evenodd;stroke:none" />
    <path
       id="path3"
       d="m 8.734,450.651 v 129.262 h 64.098 c 70.304,0 65.159,0.398 65.159,-5.049 0,-22.198 23.264,-45.09 49.345,-48.555 l 7.861,-1.045 V 423.549 321.834 l -93.232,-0.222 -93.231,-0.223 v 129.262 m 96.413,-92.938 c 0.291,0.76 0.53,3.308 0.53,5.663 v 4.281 l 23.362,0.233 23.363,0.232 0.498,3.93 c 0.464,3.659 2.053,7.9 7.271,19.412 1.148,2.533 3.744,8.536 5.768,13.339 2.024,4.804 4.619,10.807 5.768,13.34 6.039,13.323 6.671,15.358 6.198,19.943 -2.829,27.413 -43.24,31.631 -51.516,5.378 -2.475,-7.853 -2.294,-8.901 3.866,-22.327 1.477,-3.219 3.386,-7.622 4.244,-9.783 1.361,-3.432 4.514,-10.699 7.011,-16.157 3.895,-8.515 7.565,-17.884 7.163,-18.285 -0.271,-0.271 -9.918,-0.493 -21.439,-0.493 h -20.946 l 0.572,15.502 c 0.683,18.488 2.021,47.801 3.201,70.096 0.471,8.89 0.856,19.128 0.856,22.751 0,8.579 0.132,8.682 11.135,8.682 h 9.04 l -0.262,5.022 -0.262,5.021 -9.171,0.437 -9.17,0.437 -0.237,3.93 c -0.13,2.162 0.066,6.878 0.437,10.48 l 0.673,6.551 3.931,0.436 3.93,0.437 -0.216,4.186 c -1.171,22.741 -33.842,22.855 -35.313,0.123 l -0.279,-4.309 3.93,-0.437 c 4.546,-0.505 5.05,-1.968 5.175,-15.036 l 0.065,-6.739 -9.389,-0.248 -9.388,-0.248 v -4.803 -4.804 l 9.31,-0.247 9.311,-0.247 0.536,-4.119 c 0.295,-2.266 0.906,-13.137 1.357,-24.158 1.648,-40.297 2.761,-64.936 3.433,-76.032 0.484,-8.009 0.403,-11.543 -0.276,-11.995 -1.286,-0.857 -40.483,-0.856 -41.012,10e-4 -0.379,0.613 1.601,5.705 6.191,15.924 0.971,2.162 5.386,12.32 9.811,22.575 l 8.046,18.644 -0.925,5.251 c -4.52,25.656 -39.911,29.998 -50.44,6.188 -3.833,-8.666 -3.541,-9.834 10.597,-42.421 8.658,-19.957 12.663,-30.197 12.663,-32.377 v -3.187 h 23.145 23.144 v -5.095 c 0,-2.802 0.262,-5.357 0.582,-5.677 1.08,-1.079 3.594,-0.593 4.128,0.799 m -53.994,33.888 c -1.887,4.379 -4.502,10.32 -5.81,13.202 -1.309,2.883 -3.401,7.688 -4.649,10.678 -1.249,2.991 -3.252,7.584 -4.452,10.206 -1.199,2.623 -2.181,5.127 -2.181,5.564 0,1.594 41.328,2.73 42.296,1.163 0.418,-0.675 -4.952,-13.654 -12.508,-30.231 -1.314,-2.882 -3.543,-8.084 -4.953,-11.56 -3.39,-8.357 -3.738,-8.313 -7.743,0.978 m 99.001,-5.841 c -0.492,1.294 -2.055,4.859 -3.472,7.921 -1.418,3.062 -2.577,5.709 -2.577,5.882 0,0.173 -1.141,2.799 -2.536,5.835 -1.394,3.035 -3.557,7.966 -4.806,10.957 -1.248,2.99 -3.268,7.619 -4.488,10.286 -1.219,2.666 -1.943,5.292 -1.608,5.833 0.603,0.977 41.081,0.436 42.079,-0.562 0.387,-0.387 -5.252,-13.858 -12.444,-29.729 -1.524,-3.362 -3.925,-8.961 -5.336,-12.442 -2.813,-6.943 -3.477,-7.492 -4.812,-3.981"
       inkscape:connector-curvature="0"
       style="fill:#24a06b;fill-rule:evenodd;stroke:none" />
    <path
       id="path4"
       d="m 197.192,115.487 c 0.862,1.044 1.065,6.244 0.874,22.37 -0.137,11.556 0.053,20.708 0.422,20.338 1.388,-1.392 0.328,-43.162 -1.108,-43.636 -1.091,-0.36 -1.122,-0.205 -0.188,0.928 m 3.681,21.631 c 0,22.59 0.478,26.008 3.051,21.844 0.306,-0.495 -0.045,-0.642 -0.822,-0.343 -1.203,0.461 -1.355,-1.942 -1.355,-21.335 0,-16.666 0.259,-21.959 1.091,-22.295 0.653,-0.263 0.477,-0.468 -0.436,-0.51 -1.418,-0.064 -1.529,1.569 -1.529,22.639 m 43.933,10.218 c 1.25,0.324 1.363,0.663 0.548,1.645 -0.618,0.746 -0.674,1.237 -0.14,1.237 1.064,0 2.044,-2.232 1.305,-2.971 -0.287,-0.287 -1.144,-0.477 -1.905,-0.421 -1.064,0.078 -1.019,0.196 0.192,0.51 m -93.714,4.875 c 0,0.615 2.456,3.465 5.458,6.332 l 5.459,5.212 -5.127,-5.371 c -2.837,-2.972 -4.862,-5.801 -4.534,-6.332 0.326,-0.528 0.177,-0.96 -0.331,-0.96 -0.509,0 -0.925,0.503 -0.925,1.119 m 54.73,7.323 c -1.137,1.138 -0.558,2.911 0.947,2.898 1.208,-0.011 1.276,-0.173 0.324,-0.776 -0.662,-0.419 -0.933,-1.199 -0.603,-1.733 0.66,-1.068 0.25,-1.307 -0.668,-0.389 m 27.341,7.933 -5.652,5.895 5.895,-5.651 c 5.476,-5.25 6.295,-6.139 5.652,-6.139 -0.134,0 -2.787,2.653 -5.895,5.895 m -37.087,5.449 c -0.306,0.495 0.045,0.641 0.822,0.343 1.794,-0.688 2.042,20.381 0.264,22.376 -0.929,1.041 -0.864,1.051 0.436,0.067 2.09,-1.581 2.341,-23.65 0.27,-23.65 -0.692,0 -1.498,0.389 -1.792,0.864 m 4.797,10.383 c 0,9.673 0.214,11.415 1.529,12.446 1.37,1.074 1.41,1.047 0.386,-0.263 -0.839,-1.072 -1.072,-4.38 -0.874,-12.447 0.148,-6.042 -0.025,-10.985 -0.386,-10.984 -0.36,0.001 -0.655,5.062 -0.655,11.248 M 8.263,321.616 c -0.228,0.6 -0.314,59.061 -0.19,129.912 l 0.224,128.821 h 64.556 c 51.62,0 64.601,-0.223 64.782,-1.113 0.124,-0.613 0.025,-0.711 -0.219,-0.219 -0.297,0.6 -21.645,0.896 -64.563,0.896 H 8.734 V 450.651 321.389 l 93.231,0.223 93.232,0.222 v 101.882 c 0,56.035 0.294,101.699 0.655,101.477 1.187,-0.734 0.797,-202.43 -0.393,-203.621 -1.562,-1.561 -186.601,-1.518 -187.196,0.044 m 92.518,35.952 c -0.261,0.68 -0.333,2.35 -0.161,3.712 0.257,2.02 0.394,1.793 0.744,-1.236 0.441,-3.819 0.248,-4.641 -0.583,-2.476 m 4.26,4.004 c 0,2.162 0.171,3.046 0.379,1.965 0.208,-1.081 0.208,-2.849 0,-3.93 -0.208,-1.081 -0.379,-0.197 -0.379,1.965 m -39.268,6.767 c 6.633,0.148 17.245,0.148 23.581,-10e-4 6.335,-0.149 0.908,-0.271 -12.061,-0.27 -12.97,0 -18.154,0.122 -11.52,0.271 m 51.913,-10e-4 c 6.364,0.15 16.779,0.15 23.144,0 6.364,-0.149 1.157,-0.271 -11.572,-0.271 -12.73,0 -17.937,0.122 -11.572,0.271 m -61.209,1.677 c -0.32,0.32 -0.576,1.008 -0.568,1.528 0.008,0.573 0.283,0.522 0.696,-0.13 0.504,-0.792 6.306,-1.141 22.039,-1.326 L 100,369.836 78.53,369.634 c -11.809,-0.111 -21.732,0.06 -22.053,0.381 m 49.389,0.451 c -1.223,1.223 -1.392,3.027 -0.343,3.675 0.396,0.244 0.691,-0.42 0.655,-1.477 l -0.064,-1.922 h 21.834 21.834 l -0.073,1.994 c -0.051,1.405 0.201,1.721 0.854,1.068 0.653,-0.653 0.646,-1.371 -0.022,-2.431 -1.22,-1.934 -42.803,-2.779 -44.675,-0.907 m 0.049,10.32 c 0,2.162 0.17,3.046 0.378,1.965 0.208,-1.081 0.208,-2.849 0,-3.93 -0.208,-1.081 -0.378,-0.197 -0.378,1.965 m -6.102,3.057 c 0.007,2.402 0.176,3.28 0.377,1.953 0.201,-1.328 0.195,-3.293 -0.012,-4.367 -0.207,-1.074 -0.371,0.012 -0.365,2.414 m -0.852,13.974 c 0.004,2.882 0.168,3.955 0.362,2.386 0.194,-1.57 0.19,-3.928 -0.009,-5.24 -0.199,-1.313 -0.358,-0.029 -0.353,2.854 m 7.827,0.436 c 0,2.162 0.17,3.046 0.379,1.965 0.208,-1.08 0.208,-2.849 0,-3.93 -0.209,-1.081 -0.379,-0.196 -0.379,1.965 m -4.463,6.114 c -0.005,0.72 0.539,4.257 1.209,7.86 1.21,6.505 1.215,6.514 0.787,1.3 -0.399,-4.871 -1.977,-12.109 -1.996,-9.16 m 156.411,3.93 c 0.009,1.921 0.188,2.605 0.397,1.518 0.209,-1.086 0.201,-2.658 -0.018,-3.493 -0.218,-0.835 -0.389,0.054 -0.379,1.975 m -157.139,5.24 c 0.004,3.363 0.161,4.631 0.35,2.819 0.189,-1.812 0.186,-4.563 -0.007,-6.113 -0.193,-1.551 -0.347,-0.068 -0.343,3.294 m 6.097,7.86 c 0.005,2.882 0.168,3.956 0.363,2.386 0.194,-1.569 0.19,-3.927 -0.009,-5.24 -0.2,-1.312 -0.359,-0.028 -0.354,2.854 m -9.657,-0.873 c 0.01,1.921 0.188,2.605 0.397,1.518 0.209,-1.086 0.201,-2.658 -0.017,-3.493 -0.219,-0.835 -0.39,0.054 -0.38,1.975 m 204.146,8.638 c 0,0.188 1.348,0.499 2.996,0.691 1.647,0.192 2.803,0.039 2.568,-0.341 -0.422,-0.684 -5.564,-1.007 -5.564,-0.35 m -268.982,2.497 c -0.012,1.354 0.862,1.509 7.629,1.353 l 7.642,-0.176 -6.961,-0.301 c -4.166,-0.18 -7.228,-0.723 -7.628,-1.352 -0.456,-0.718 -0.673,-0.566 -0.682,0.476 m 132.738,0.655 -7.424,0.548 7.154,0.163 c 4.013,0.091 7.391,-0.221 7.693,-0.711 0.297,-0.48 0.419,-0.8 0.27,-0.71 -0.148,0.089 -3.61,0.409 -7.693,0.71 m -57.392,3.931 c 0.006,2.401 0.176,3.28 0.377,1.953 0.2,-1.328 0.195,-3.293 -0.012,-4.367 -0.208,-1.074 -0.372,0.012 -0.365,2.414 m -11.317,4.366 c 0.004,3.363 0.162,4.631 0.351,2.819 0.189,-1.812 0.186,-4.563 -0.007,-6.113 -0.193,-1.551 -0.348,-0.068 -0.344,3.294 m 3.409,-3.056 c 0,1.681 0.18,2.369 0.4,1.528 0.219,-0.841 0.219,-2.216 0,-3.057 -0.22,-0.84 -0.4,-0.153 -0.4,1.529 m 4.402,3.493 c 0,2.162 0.171,3.046 0.379,1.965 0.208,-1.081 0.208,-2.849 0,-3.93 -0.208,-1.081 -0.379,-0.197 -0.379,1.965 m 190.228,0.311 c 0.2,0.171 1.74,0.564 3.421,0.872 2.151,0.395 2.668,0.307 1.747,-0.297 -1.184,-0.777 -6.034,-1.316 -5.168,-0.575 m -189.322,10.606 c 0.005,2.882 0.168,3.956 0.363,2.386 0.194,-1.57 0.19,-3.928 -0.009,-5.24 -0.199,-1.312 -0.358,-0.028 -0.354,2.854 m -70.139,-3.657 c 0,0.151 1.277,1.428 2.838,2.839 l 2.839,2.565 -2.565,-2.839 c -2.392,-2.645 -3.112,-3.24 -3.112,-2.565 m 64.065,7.151 c -0.002,4.323 0.145,6.201 0.329,4.174 0.183,-2.027 0.185,-5.564 0.004,-7.86 -0.18,-2.296 -0.33,-0.638 -0.333,3.686 m -3.553,0.873 c 0.006,2.402 0.176,3.281 0.377,1.953 0.2,-1.328 0.195,-3.293 -0.012,-4.367 -0.208,-1.074 -0.372,0.012 -0.365,2.414 m 193.525,1.014 c -1.094,1.323 -1.031,1.346 0.717,0.257 1.682,-1.047 2.164,-0.984 3.931,0.514 l 2.014,1.708 -1.664,-1.965 c -1.98,-2.338 -3.373,-2.481 -4.998,-0.514 m -180.437,2.916 c 0,2.162 0.17,3.046 0.379,1.965 0.208,-1.081 0.208,-2.849 0,-3.93 -0.209,-1.081 -0.379,-0.197 -0.379,1.965 m 197.813,2.38 c 1.57,0.194 3.928,0.19 5.24,-0.009 1.312,-0.2 0.028,-0.359 -2.854,-0.354 -2.882,0.005 -3.956,0.168 -2.386,0.363 m -208.281,9.41 c 0.006,2.402 0.176,3.281 0.377,1.953 0.2,-1.327 0.195,-3.292 -0.012,-4.366 -0.208,-1.075 -0.372,0.012 -0.365,2.413 m 11.397,5.677 c 0,3.603 0.154,5.077 0.343,3.275 0.188,-1.801 0.188,-4.749 0,-6.55 -0.189,-1.801 -0.343,-0.327 -0.343,3.275 m -14.891,2.184 c 0.007,2.401 0.176,3.28 0.377,1.953 0.201,-1.328 0.196,-3.293 -0.012,-4.367 -0.207,-1.074 -0.371,0.012 -0.365,2.414 m 11.324,-0.874 c 0.01,1.922 0.189,2.605 0.398,1.519 0.209,-1.087 0.201,-2.659 -0.018,-3.494 -0.218,-0.835 -0.389,0.054 -0.38,1.975 m 210.926,-1.565 c 1.086,0.208 2.658,0.201 3.493,-0.018 0.835,-0.219 -0.054,-0.39 -1.975,-0.38 -1.921,0.01 -2.605,0.189 -1.518,0.398 m -210.035,11.609 c 0,2.162 0.171,3.046 0.379,1.965 0.208,-1.081 0.208,-2.849 0,-3.93 -0.208,-1.081 -0.379,-0.197 -0.379,1.965 m 22.741,9.17 c 0.005,2.882 0.168,3.956 0.362,2.386 0.194,-1.569 0.19,-3.927 -0.009,-5.24 -0.199,-1.312 -0.358,-0.028 -0.353,2.854 m -55.031,0.437 c 0,2.642 0.164,3.723 0.364,2.402 0.2,-1.321 0.2,-3.483 0,-4.804 -0.2,-1.321 -0.364,-0.24 -0.364,2.402 m 15.677,-1.967 c 6.605,0.148 17.413,0.148 24.018,0 6.604,-0.149 1.2,-0.27 -12.009,-0.27 -13.21,0 -18.614,0.121 -12.009,0.27 m -12.419,1.642 c -0.073,2.701 2.469,2.973 25.408,2.726 l 23.037,-0.248 -23.319,-0.203 c -21.159,-0.185 -23.401,-0.345 -24.209,-1.732 -0.49,-0.84 -0.902,-1.085 -0.917,-0.543 m 19.507,5.993 c -0.295,0.767 -0.29,1.639 0.009,1.939 0.3,0.299 0.545,-0.111 0.545,-0.911 0,-1.672 8.228,-2.183 9.032,-0.561 0.244,0.493 0.344,0.394 0.222,-0.218 -0.353,-1.779 -9.136,-2.002 -9.808,-0.249 m 0.748,10.539 c -1.383,0.969 -1.903,2.16 -1.81,4.148 l 0.131,2.789 0.365,-2.62 c 0.201,-1.441 1.223,-3.299 2.271,-4.129 2.379,-1.884 1.665,-2.024 -0.957,-0.188 m 13.008,5.357 c -0.056,2.494 0.2,4.72 0.569,4.949 0.37,0.228 0.545,-1.223 0.391,-3.224 -0.453,-5.877 -0.852,-6.592 -0.96,-1.725 m -18.488,1.58 c -0.383,3.42 -0.473,3.503 -4.321,3.93 -3.326,0.37 -3.948,0.741 -4.046,2.415 -0.097,1.646 -0.05,1.683 0.279,0.219 0.311,-1.388 1.1,-1.76 3.721,-1.76 4.039,0 5.51,-1.565 5.082,-5.402 -0.322,-2.882 -0.325,-2.88 -0.715,0.598 m 112.213,2.093 c 1.578,0.618 5.737,0.293 5.737,-0.448 0,-0.184 -1.671,-0.307 -3.712,-0.274 -2.626,0.044 -3.218,0.255 -2.025,0.722 m -88.421,2.438 c 2.6,0.3 3.294,0.785 3.6,2.516 0.33,1.875 0.364,1.841 0.271,-0.268 -0.097,-2.196 -0.42,-2.421 -3.6,-2.516 l -3.493,-0.104 3.222,0.372 m -28.65,4.15 c -0.266,0.691 -0.038,1.968 0.506,2.838 0.86,1.378 0.914,1.314 0.416,-0.493 -0.366,-1.327 -0.145,-2.344 0.613,-2.825 0.911,-0.577 0.927,-0.754 0.066,-0.764 -0.615,-0.007 -1.336,0.552 -1.601,1.244 m -0.336,9.496 c 0,0.151 1.277,1.428 2.838,2.839 l 2.838,2.565 -2.565,-2.839 c -2.391,-2.645 -3.111,-3.239 -3.111,-2.565 m 65.01,2.565 -2.565,2.839 2.838,-2.565 c 2.646,-2.391 3.24,-3.112 2.566,-3.112 -0.151,0 -1.428,1.277 -2.839,2.838 m 2.62,2.621 -2.565,2.838 2.839,-2.565 c 2.645,-2.391 3.239,-3.112 2.565,-3.112 -0.151,0 -1.428,1.277 -2.839,2.839 m 79.931,4.366 c 3.62,3.856 4.404,4.55 4.404,3.894 0,-0.14 -1.867,-2.007 -4.149,-4.149 l -4.148,-3.893 3.893,4.148 m 16.941,35.153 c -0.003,4.323 0.145,6.202 0.328,4.175 0.183,-2.027 0.185,-5.564 0.005,-7.86 -0.181,-2.296 -0.331,-0.638 -0.333,3.685 m -105.688,0 c 0.003,3.843 0.157,5.306 0.341,3.252 0.185,-2.054 0.182,-5.198 -0.005,-6.987 -0.188,-1.788 -0.339,-0.108 -0.336,3.735 m 2.615,0.437 c 0,3.602 0.154,5.076 0.342,3.275 0.189,-1.801 0.189,-4.749 0,-6.55 -0.188,-1.802 -0.342,-0.328 -0.342,3.275 m 100.345,4.367 c 0,1.681 0.18,2.369 0.4,1.528 0.219,-0.841 0.219,-2.216 0,-3.057 -0.22,-0.84 -0.4,-0.153 -0.4,1.529 m -79.435,0.218 c -1.719,2.222 -2.08,3.636 -0.401,1.571 1.563,-1.922 1.904,-2.011 3.35,-0.873 1.478,1.163 1.512,1.141 0.413,-0.261 -1.421,-1.811 -2.219,-1.915 -3.362,-0.437 m 91.92,2.183 c -4.385,29.153 -24.026,50.105 -51.77,55.226 l -6.332,1.168 v 99.86 c 0,54.923 0.238,99.86 0.529,99.86 0.291,0 1.962,-1.134 3.712,-2.52 5.701,-4.513 4.544,-4.457 92.09,-4.462 90.217,-0.005 84.853,0.323 88.971,-5.45 l 2.034,-2.852 0.23,-122.052 0.231,-122.053 h -64.602 -64.601 l -0.492,3.275 m -121.844,0.728 c 0.007,0.921 0.412,2.264 0.9,2.984 0.647,0.957 0.728,0.604 0.3,-1.31 -0.718,-3.211 -1.218,-3.908 -1.2,-1.674 m 56.973,8.85 c 1.321,0.2 3.483,0.2 4.804,0 1.321,-0.2 0.24,-0.364 -2.402,-0.364 -2.642,0 -3.723,0.164 -2.402,0.364 m 37.732,18.807 -3.452,3.711 3.712,-3.452 c 3.451,-3.211 4.113,-3.971 3.452,-3.971 -0.143,0 -1.813,1.67 -3.712,3.712 m -77.251,7.205 c 1.629,1.681 3.159,3.057 3.399,3.057 0.24,0 -0.897,-1.376 -2.526,-3.057 -1.63,-1.681 -3.159,-3.057 -3.399,-3.057 -0.241,0 0.896,1.376 2.526,3.057 m -116.913,2.478 c -0.744,0.897 -0.414,1.657 1.421,3.275 l 2.391,2.107 -2.038,-2.317 c -1.938,-2.204 -1.959,-2.364 -0.437,-3.249 0.881,-0.512 1.159,-0.943 0.617,-0.957 -0.542,-0.015 -1.421,0.499 -1.954,1.141 m 153.812,8.168 c 0.841,0.219 2.216,0.219 3.057,0 0.841,-0.22 0.153,-0.4 -1.528,-0.4 -1.682,0 -2.369,0.18 -1.529,0.4 m 6.987,0 c 0.841,0.219 2.216,0.219 3.057,0 0.84,-0.22 0.153,-0.4 -1.529,-0.4 -1.681,0 -2.369,0.18 -1.528,0.4 m 103.505,5.072 c 1.755,1.883 3.67,3.059 4.983,3.059 1.773,0 2.234,0.551 2.741,3.275 0.335,1.802 1.296,3.761 2.135,4.355 1.663,1.177 2.273,11.128 0.741,12.075 -1.899,1.173 -0.48,2.129 3.163,2.129 2.441,0 6.936,1.168 11.771,3.057 8.193,3.202 10.467,3.593 13.001,2.237 1.217,-0.652 1.845,-0.291 3.052,1.751 0.835,1.414 2.669,3.166 4.075,3.893 l 2.557,1.322 0.23,29.441 0.229,29.44 10.211,3.971 c 12.195,4.742 11.394,4.067 9.876,8.328 -1.978,5.552 -1.648,8.052 1.433,10.867 l 2.742,2.504 -4.27,4.586 c -9.576,10.281 -15.493,16.726 -27.399,29.844 -10.362,11.417 -12.815,13.684 -14.337,13.249 -3.424,-0.977 -24.516,-7.547 -29.347,-9.141 -2.642,-0.872 -10.109,-3.226 -16.594,-5.232 -6.485,-2.007 -14.542,-4.554 -17.904,-5.662 -3.362,-1.107 -15.41,-5.033 -26.771,-8.724 l -20.658,-6.711 -0.958,-3.805 c -2.328,-9.247 -0.413,-14.903 7.665,-22.641 1.982,-1.899 3.604,-4.213 3.604,-5.143 0,-0.93 2.162,-4.153 4.804,-7.162 l 4.803,-5.472 V 711.165 689.41 l 2.733,-2.565 c 1.503,-1.411 3.634,-4.57 4.734,-7.019 l 2.002,-4.454 5.091,-0.536 c 2.8,-0.295 9.012,-1.534 13.804,-2.752 4.793,-1.218 9.738,-2.215 10.99,-2.215 3.131,0 3.581,-0.721 1.977,-3.168 -1.976,-3.017 -2.225,-10.489 -0.409,-12.29 0.79,-0.783 1.84,-2.833 2.333,-4.555 0.717,-2.505 1.382,-3.187 3.326,-3.412 1.337,-0.155 2.653,-0.862 2.926,-1.572 2.178,-5.676 10.322,-6.573 14.915,-1.643 m -107.872,1.938 c 1.321,0.2 3.483,0.2 4.804,0 1.321,-0.2 0.24,-0.364 -2.402,-0.364 -2.642,0 -3.723,0.164 -2.402,0.364 m 55.852,33.61 c -0.782,0.782 -0.997,8.592 -0.847,30.786 l 0.201,29.738 0.454,-30.092 0.454,-30.092 2.183,-0.607 c 1.829,-0.508 1.893,-0.621 0.393,-0.694 -0.985,-0.048 -2.262,0.385 -2.838,0.961 m 43.869,19.913 c 0,11.288 0.124,15.906 0.276,10.262 0.153,-5.644 0.153,-14.88 0,-20.524 -0.152,-5.644 -0.276,-1.026 -0.276,10.262 m 52.025,13.362 0.436,29.869 0.231,-29.202 c 0.127,-16.061 -0.069,-29.502 -0.436,-29.869 -0.367,-0.368 -0.471,12.773 -0.231,29.202 m -2.32,-22.532 c 0.003,3.842 0.157,5.306 0.341,3.252 0.185,-2.055 0.182,-5.199 -0.005,-6.987 -0.188,-1.789 -0.339,-0.108 -0.336,3.735 m -97.679,25.764 c 0,15.76 0.295,28.472 0.655,28.249 0.36,-0.222 0.655,-12.935 0.655,-28.249 0,-15.315 -0.295,-28.027 -0.655,-28.249 -0.36,-0.223 -0.655,12.489 -0.655,28.249 M 122.322,689.727 c -6.261,0.76 -7.184,2.849 -1.259,2.849 4.826,0 5.384,0.197 6.308,2.225 1.56,3.425 1.316,8.256 -0.417,8.256 -0.787,0 -3.147,1.581 -5.244,3.514 -3.736,3.444 -3.864,3.488 -6.386,2.183 -3.298,-1.705 -3.534,-1.679 -3.534,0.393 0,3.882 3.719,9.57 6.937,10.61 16.071,5.196 19.44,12.749 10.209,22.887 -3.778,4.149 -4.886,7.121 -4.909,13.161 l -0.01,2.53 6.636,-0.561 c 17.721,-1.498 27.549,-11.384 27.748,-27.911 l 0.114,-9.56 -5.677,-0.108 -5.676,-0.108 -0.256,-7.305 c -0.176,-5.054 0.19,-8.644 1.188,-11.65 1.959,-5.899 0.828,-7.07 -4.235,-4.389 -5.701,3.02 -9.154,2.656 -10.736,-1.13 -1.611,-3.857 -4.275,-6.572 -6.267,-6.39 -0.841,0.077 -2.881,0.304 -4.534,0.504 m 12.469,0.725 c -0.289,0.753 -0.102,1.792 0.415,2.309 0.672,0.672 0.807,0.428 0.472,-0.852 -0.328,-1.256 0.013,-1.918 1.141,-2.208 1.485,-0.383 1.489,-0.423 0.053,-0.517 -0.856,-0.055 -1.792,0.515 -2.081,1.268 m 110.116,16.972 c 0,9.366 0.129,13.198 0.286,8.515 0.157,-4.684 0.157,-12.347 0,-17.031 -0.157,-4.683 -0.286,-0.851 -0.286,8.516 m 54.163,5.24 c 0,12.249 0.122,17.26 0.273,11.135 0.15,-6.124 0.15,-16.146 0,-22.271 -0.151,-6.124 -0.273,-1.113 -0.273,11.136 M 116.812,695.813 c 1.081,0.208 2.85,0.208 3.93,0 1.081,-0.208 0.197,-0.379 -1.965,-0.379 -2.161,0 -3.046,0.171 -1.965,0.379 m 229.354,15.104 c 0,4.563 0.148,6.43 0.327,4.149 0.18,-2.282 0.18,-6.016 0,-8.297 -0.179,-2.282 -0.327,-0.415 -0.327,4.148 m -250.884,4.498 c -4.658,13.36 8.979,40.044 20.463,40.044 1.893,0 -1.164,-16.784 -3.737,-20.521 -2.828,-4.107 -2.976,-4.671 -2.448,-9.357 l 0.563,-4.988 -4.625,-2.33 c -2.544,-1.281 -5.667,-3.065 -6.941,-3.963 l -2.317,-1.634 -0.958,2.749 m 62.797,0.742 -3.931,0.611 3.661,0.131 c 2.013,0.073 3.903,-0.261 4.2,-0.742 0.297,-0.48 0.418,-0.814 0.27,-0.742 -0.149,0.072 -2.039,0.406 -4.2,0.742 m 184.275,12.842 c -0.238,5.862 -0.124,10.349 0.252,9.97 0.377,-0.379 0.572,-5.175 0.433,-10.658 l -0.253,-9.97 -0.432,10.658 m -229.47,-1.051 c 0.01,1.921 0.189,2.604 0.397,1.518 0.209,-1.087 0.201,-2.659 -0.017,-3.494 -0.219,-0.835 -0.39,0.054 -0.38,1.976 m 167.684,8.025 c 0.84,0.22 2.216,0.22 3.056,0 0.841,-0.219 0.153,-0.399 -1.528,-0.399 -1.681,0 -2.369,0.18 -1.528,0.399 m 27.947,0.024 c 1.321,0.2 3.483,0.2 4.804,0 1.321,-0.2 0.24,-0.364 -2.402,-0.364 -2.642,0 -3.723,0.164 -2.402,0.364 m -34.934,0.85 c 0.84,0.219 2.216,0.219 3.057,0 0.84,-0.22 0.152,-0.4 -1.529,-0.4 -1.681,0 -2.369,0.18 -1.528,0.4 m 43.668,0 c 0.841,0.219 2.216,0.219 3.057,0 0.84,-0.22 0.153,-0.4 -1.529,-0.4 -1.681,0 -2.369,0.18 -1.528,0.4 m -29.039,2.8 c 1.992,0.637 2.03,0.736 0.436,1.135 l -1.746,0.438 1.746,-0.086 c 2.519,-0.124 2.154,-1.8 -0.436,-2.009 l -2.184,-0.176 2.184,0.698 m 22.952,-0.139 c 2.296,0.18 5.833,0.178 7.86,-0.005 2.027,-0.183 0.148,-0.331 -4.175,-0.328 -4.323,0.002 -5.981,0.152 -3.685,0.333 m 4.559,1.103 -7.861,0.544 7.424,0.151 c 4.083,0.084 8.013,-0.229 8.733,-0.695 0.721,-0.465 0.917,-0.778 0.437,-0.695 -0.48,0.084 -4.41,0.397 -8.733,0.695 m -54.149,0.874 c -0.687,1.112 1.336,1.112 3.057,0 1.065,-0.689 0.952,-0.849 -0.604,-0.86 -1.052,-0.008 -2.156,0.379 -2.453,0.86 m 97.776,22.925 -3.453,3.712 3.712,-3.452 c 3.452,-3.211 4.113,-3.971 3.452,-3.971 -0.142,0 -1.813,1.67 -3.711,3.711 m -256.728,-1.1 61.135,0.445 v 23.717 c 0,13.043 0.295,23.533 0.655,23.311 1.166,-0.722 0.789,-46.108 -0.393,-47.29 -0.799,-0.799 -15.474,-0.998 -61.79,-0.838 l -60.742,0.209 61.135,0.446 m 268.385,1.931 c 0.817,0.817 0.42,1.736 -1.79,4.149 l -2.839,3.099 3.255,-2.991 c 2.946,-2.706 3.353,-5.306 0.83,-5.306 -0.278,0 -0.033,0.472 0.544,1.049 m -42.267,11.17 c 0.071,4.123 0.328,4.82 1.83,4.972 1.277,0.129 1.347,0.057 0.262,-0.266 -1.085,-0.323 -1.578,-1.662 -1.83,-4.972 l -0.346,-4.529 0.084,4.795 m -259.524,1.536 c 14.771,0.134 38.941,0.134 53.712,0 14.771,-0.134 2.685,-0.244 -26.856,-0.244 -29.542,0 -41.627,0.11 -26.856,0.244 m 264.66,18.123 c 0.007,2.402 0.176,3.28 0.377,1.953 0.201,-1.328 0.196,-3.293 -0.012,-4.367 -0.207,-1.074 -0.371,0.012 -0.365,2.414 m 0.049,7.793 c 0.078,1.44 0.709,2.706 1.448,2.905 0.876,0.235 0.977,0.113 0.307,-0.37 -0.552,-0.396 -1.204,-1.704 -1.449,-2.905 -0.383,-1.88 -0.426,-1.829 -0.306,0.37"
       inkscape:connector-curvature="0"
       style="fill:#2a427e;fill-rule:evenodd;stroke:none" />
  </g>
</svg>
