<?xml version="1.0" encoding="UTF-8" standalone="no"?>
<svg
   xmlns:dc="http://purl.org/dc/elements/1.1/"
   xmlns:cc="http://creativecommons.org/ns#"
   xmlns:rdf="http://www.w3.org/1999/02/22-rdf-syntax-ns#"
   xmlns:svg="http://www.w3.org/2000/svg"
   xmlns="http://www.w3.org/2000/svg"
   xmlns:sodipodi="http://sodipodi.sourceforge.net/DTD/sodipodi-0.dtd"
   xmlns:inkscape="http://www.inkscape.org/namespaces/inkscape"
   id="svg"
   version="1.1"
   width="264.52576"
   height="576.08838"
   style="display:block"
   sodipodi:docname="uchile-mono.svg"
   inkscape:version="0.92.1 r15371">
  <metadata
     id="metadata9">
    <rdf:RDF>
      <cc:Work
         rdf:about="">
        <dc:format>image/svg+xml</dc:format>
        <dc:type
           rdf:resource="http://purl.org/dc/dcmitype/StillImage" />
        <dc:title></dc:title>
      </cc:Work>
    </rdf:RDF>
  </metadata>
  <defs
     id="defs7" />
  <sodipodi:namedview
     pagecolor="#ffffff"
     bordercolor="#666666"
     borderopacity="1"
     objecttolerance="10"
     gridtolerance="10"
     guidetolerance="10"
     inkscape:pageopacity="0"
     inkscape:pageshadow="2"
     inkscape:window-width="640"
     inkscape:window-height="480"
     id="namedview5"
     showgrid="false"
     fit-margin-top="0"
     fit-margin-left="0"
     fit-margin-right="0"
     fit-margin-bottom="0"
     inkscape:zoom="0.27283237"
     inkscape:cx="176.8"
     inkscape:cy="186.90295"
     inkscape:window-x="0"
     inkscape:window-y="0"
     inkscape:window-maximized="0"
     inkscape:current-layer="svg" />
  <g
     id="svgg"
     transform="translate(-73.2,-43.314595)">
    <path
       id="path0"
       d="M 202.171,43.695 C 201.857,44.01 201.6,58.68 201.6,76.297 v 32.03 l -2.14,4.637 c -3.126,6.771 -2.759,7.24 -8.277,-10.564 -1.841,-5.94 -3.67,-11.425 -4.065,-12.189 -0.395,-0.764 -0.718,-1.913 -0.718,-2.553 0,-1.524 -1.142,-2.184 -2.728,-1.575 -1.401,0.538 -1.741,3.933 -0.472,4.717 0.44,0.272 0.8,1.181 0.8,2.019 0,1.512 1.829,7.702 3.185,10.781 0.388,0.88 2.035,5.813 3.66,10.962 4.729,14.978 2.366,15.568 -6.897,1.722 -0.985,-1.473 -18.823,-26.112 -28.183,-38.928 -1.67,-2.286 -3.886,-5.416 -4.925,-6.956 -4.954,-7.34 -6.394,-8.477 -8.768,-6.921 -3.571,2.34 -3.295,3.156 4.87,14.399 7.708,10.615 11.963,16.54 15.885,22.122 3.162,4.5 5.096,7.19 13.821,19.221 4.579,6.313 8.06,11.864 7.825,12.476 -0.976,2.545 -2.56,1.623 -21.076,-12.278 -12.783,-9.597 -16.18,-11.099 -14.358,-6.349 0.367,0.955 19.283,15.509 24.083,18.53 3.378,2.126 -7.034,4.92 -10.96,2.942 -4.215,-2.124 -56.852,-19.116 -58.158,-18.775 -1.587,0.415 -2.616,3.995 -1.647,5.728 0.337,0.602 5.615,2.795 11.728,4.873 6.113,2.078 11.655,3.975 12.315,4.216 0.66,0.24 4.44,1.426 8.4,2.635 3.96,1.209 9.54,3.004 12.4,3.988 2.86,0.984 6.82,2.259 8.8,2.833 5.538,1.606 8.126,3.11 11.497,6.68 l 3.097,3.28 -16.697,0.4 c -16.03,0.384 -16.697,0.464 -16.697,2 0,1.545 0.667,1.614 19.335,2 10.634,0.22 19.589,0.654 19.899,0.965 1.273,1.277 -0.514,2.765 -4.942,4.116 -2.58,0.787 -7.032,2.257 -9.892,3.267 -2.86,1.009 -8.26,2.816 -12,4.015 -3.74,1.2 -7.52,2.478 -8.4,2.84 -0.88,0.363 -10.189,3.439 -20.687,6.835 l -19.088,6.175 0.459,2.824 c 0.622,3.835 1.522,4.583 4.271,3.552 1.235,-0.463 9.265,-3.077 17.845,-5.809 8.58,-2.732 16.32,-5.259 17.2,-5.617 2.384,-0.969 37.819,-12.763 38.346,-12.763 4.7,0 -7.907,11.033 -27.21,23.812 -2.686,1.778 -3.589,4.366 -1.89,5.417 0.708,0.437 5.054,-1.932 8.311,-4.533 4.149,-3.31 6.495,-5.071 11.962,-8.979 7.296,-5.215 7.681,-5.323 7.681,-2.169 0,3.832 -1.19,5.99 -9.798,17.764 -4.511,6.17 -9.822,13.48 -11.802,16.243 -1.98,2.763 -8.1,11.258 -13.6,18.879 -5.5,7.621 -10.257,14.241 -10.57,14.711 -0.379,0.568 -10.436,0.989 -30,1.255 l -29.43,0.4 v 173.274 173.273 l 2.892,3.53 c 5.362,6.543 3.215,6.331 64.232,6.327 l 53.525,-0.004 2.475,1.909 c 1.362,1.049 3.106,3.209 3.876,4.8 5.289,10.922 4.812,10.672 7.845,4.12 1.341,-2.898 3.537,-6.52 4.88,-8.049 l 2.441,-2.78 54.117,-0.061 c 62.988,-0.072 62.836,-0.049 66.996,-10.005 1.162,-2.781 1.787,-342.468 0.635,-345.469 -0.43,-1.121 -3.86,-1.269 -30.2,-1.296 l -29.714,-0.031 -22,-30.842 c -17.22,-24.141 -22.228,-31.716 -23.049,-34.863 -1.71,-6.549 -0.925,-6.925 5.25,-2.522 7.183,5.121 15.33,11.105 17.799,13.073 2.341,1.867 4.452,2.076 5.057,0.501 0.555,-1.448 -0.469,-2.325 -16.857,-14.444 -20.66,-15.278 -20.035,-15.903 6.815,-6.814 57.814,19.573 55.685,18.993 57.005,15.521 1.181,-3.106 0.956,-4.119 -1.02,-4.594 -0.99,-0.239 -17.82,-5.845 -37.4,-12.459 -44.598,-15.064 -44.33,-14.802 -15.48,-15.109 17.715,-0.188 20.179,-0.369 20.618,-1.514 0.83,-2.162 0.139,-2.263 -17.203,-2.517 C 247.531,150.42 240,150.02 240,149.665 c 0,-1.642 8.006,-7.994 10.717,-8.502 1.596,-0.3 3.098,-0.864 3.339,-1.254 0.241,-0.39 1.142,-0.709 2.002,-0.709 0.86,0 2.189,-0.332 2.953,-0.737 1.039,-0.551 41.658,-13.856 47.989,-15.719 2.522,-0.741 0.79,-6.744 -1.946,-6.744 -1.65,0 -15.898,4.251 -21.454,6.401 -13.56,5.247 -39.446,12.848 -43.047,12.639 -6.038,-0.35 -5.765,-1.885 1.22,-6.853 15.674,-11.146 18.627,-13.528 18.627,-15.023 0,-2.969 -2.473,-1.937 -11.6,4.84 -5.06,3.758 -10.577,7.814 -12.261,9.014 -1.684,1.2 -4.076,2.992 -5.316,3.982 -2.659,2.124 -6.866,2.509 -6.119,0.561 0.447,-1.163 5.39,-8.185 33.822,-48.048 12.281,-17.219 12.563,-17.815 9.409,-19.882 -3.032,-1.987 -3.296,-1.739 -13.637,12.785 -5.224,7.338 -10.479,14.657 -11.678,16.263 -1.2,1.607 -3.139,4.341 -4.309,6.077 -6.383,9.466 -19.652,27.644 -20.179,27.644 -1.549,0 -2.313,-1.821 -1.622,-3.866 0.396,-1.174 2.51,-7.714 4.696,-14.534 2.187,-6.82 4.551,-14.095 5.253,-16.166 1.367,-4.032 1.073,-5.434 -1.141,-5.434 -0.966,0 -1.801,1.274 -2.753,4.2 -0.752,2.31 -2.807,8.619 -4.566,14.021 -1.759,5.401 -3.199,10.312 -3.199,10.914 0,2.706 -2.448,1.912 -4.197,-1.361 -1.768,-3.308 -1.811,-4.027 -2.203,-36.974 l -0.4,-33.6 -2.829,-0.238 c -1.555,-0.131 -3.085,0.019 -3.4,0.333 m 9.358,88.157 2.289,4.789 -2.309,3.277 c -3.783,5.368 -4.709,4.257 -4.709,-5.65 0,-9.977 0.897,-10.435 4.729,-2.416 m -8.329,3.434 c 0,9.119 -0.818,9.983 -4.371,4.614 l -2.184,-3.3 2.146,-5.049 c 3.155,-7.424 4.409,-6.363 4.409,3.735 m -7.353,7.539 c 3.442,4.883 2.195,5.209 -7.426,1.941 -8.634,-2.933 -8.359,-2.715 -5.421,-4.308 4.85,-2.632 9.991,-1.684 12.847,2.367 m 31.751,-1.688 c 2.359,0.963 2.257,1.025 -5.806,3.564 -9.483,2.985 -10.772,2.754 -7.674,-1.373 3.4,-4.53 6.508,-5.036 13.48,-2.191 m -37.895,8.195 c 7.039,2.384 7.527,3.036 3.523,4.709 -4.343,1.814 -6.013,1.431 -9.752,-2.241 -5.501,-5.402 -4.089,-5.961 6.229,-2.468 m 39.897,-1.483 c 0,1.965 -7.464,7.46 -9.491,6.987 -3.104,-0.723 -6.511,-2.157 -6.495,-2.733 0.039,-1.457 15.986,-5.701 15.986,-4.254 m -31.673,9.633 c 0.453,0.734 -7.062,11.88 -9.097,13.493 -2.018,1.598 -2.187,1.222 -1.429,-3.175 1.281,-7.427 1.552,-7.9 5.399,-9.416 4.371,-1.722 4.596,-1.761 5.127,-0.902 M 218,158.613 c 2.964,1.049 3.572,1.908 3.588,5.068 0.006,1.364 0.414,3.632 0.904,5.04 1.972,5.655 -0.194,4.105 -6.381,-4.566 -3.989,-5.589 -4.644,-8.072 -1.83,-6.928 0.725,0.295 2.399,0.919 3.719,1.386 m -15.541,10.432 c -0.891,2.343 -8.71,6.585 -9.932,5.389 -0.752,-0.737 6.84,-11.597 8.932,-12.777 1.66,-0.936 2.317,3.923 1,7.388 m 10.686,-1.923 c 2.45,3.477 4.455,6.717 4.455,7.2 0,0.483 0.42,0.878 0.933,0.878 0.514,0 0.726,0.207 0.473,0.46 -0.467,0.467 -7.949,-2.959 -10.277,-4.706 -1.714,-1.287 -2.698,-10.154 -1.126,-10.154 0.598,0 3.092,2.845 5.542,6.322 m -11.736,46.678 -0.209,33 -29.15,0.21 c -16.032,0.116 -29.419,-0.064 -29.748,-0.4 -0.328,-0.335 2.349,-4.656 5.95,-9.6 7.374,-10.125 12.844,-17.676 23.332,-32.21 11.064,-15.332 11.626,-15.978 15.727,-18.056 5.832,-2.956 5.847,-2.892 2.001,8.732 -7.6,22.971 -7.59,22.924 -4.852,22.924 1.509,0 2.707,-2.837 6.755,-16 1.828,-5.94 4.024,-12.78 4.881,-15.2 0.858,-2.42 1.715,-4.85 1.906,-5.4 0.191,-0.55 1.083,-1 1.982,-1 1.622,0 1.632,0.236 1.425,33 m 10.441,-31.98 c 0.907,1.092 1.003,1.369 7.393,21.38 4.24,13.277 5.465,15.846 7.08,14.847 1.661,-1.026 -0.443,-9.262 -7.245,-28.352 -1.898,-5.326 -1.617,-5.629 3.016,-3.247 3.643,1.874 5.973,4.607 15.116,17.73 1.755,2.518 4.186,5.938 5.403,7.6 1.217,1.662 3.477,4.822 5.023,7.022 1.545,2.2 6.58,9.201 11.189,15.557 4.609,6.357 8.086,11.852 7.727,12.211 -0.359,0.359 -13.59,0.558 -29.402,0.442 l -28.75,-0.21 -0.209,-33 c -0.202,-31.892 -0.158,-33 1.302,-33 0.831,0 1.892,0.459 2.357,1.02 M 200.4,321.919 v 65.519 l -6.226,1.469 c -16.018,3.78 -26.708,14.31 -29.648,29.204 l -0.926,4.689 -41.4,0.207 -41.4,0.207 v -83.073 c 0,-45.691 0.242,-83.317 0.538,-83.613 0.297,-0.296 27.207,-0.446 59.8,-0.333 L 200.4,256.4 v 65.519 m 129.004,17.888 0.203,83.407 -41.322,-0.207 -41.322,-0.207 -1.347,-4.924 c -3.805,-13.9 -11.831,-22.908 -26.62,-29.876 l -9.337,-4.4 -0.03,-63.267 c -0.016,-34.796 0.213,-63.509 0.509,-63.805 0.297,-0.296 27.207,-0.446 59.8,-0.333 l 59.262,0.205 0.204,83.407 m -99.122,-64.704 c -4.222,2.678 -7.082,6.851 -7.082,10.334 0,3.666 1.774,5.064 7.533,5.932 1.43,0.215 6.696,6.528 6.814,8.168 0.029,0.405 0.682,1.432 1.452,2.282 1.021,1.129 1.526,3.517 1.873,8.863 0.945,14.556 6.191,23.439 14.728,24.936 6.587,1.156 7.972,3.221 5.203,7.763 -4.705,7.717 0.631,15.917 11.17,17.165 5.849,0.693 7.499,3.481 6.33,10.699 -1.44,8.897 -0.189,11.043 8.818,15.122 0.617,0.28 1.697,2.729 2.4,5.444 1.059,4.087 1.76,5.252 4.079,6.778 1.54,1.014 3.413,3.064 4.163,4.557 2.283,4.547 4.175,5.098 7.182,2.091 l 1.963,-1.964 3.849,2.737 c 4.13,2.936 6.217,2.822 7.238,-0.396 0.484,-1.524 -6.229,-13.143 -19.32,-33.442 -2.351,-3.645 -4.275,-6.931 -4.275,-7.302 0,-0.371 -0.538,-1.121 -1.196,-1.667 -0.911,-0.756 -1.079,-1.987 -0.704,-5.175 0.807,-6.869 -3.55,-13.216 -9.079,-13.225 -2.461,-0.004 -4.316,-3.686 -3.226,-6.403 3.349,-8.352 1.037,-15.19 -5.142,-15.204 -5.204,-0.013 -7.893,-1.605 -11.104,-6.572 -3.758,-5.815 -3.918,-7.024 -0.927,-7.024 8.334,0 9.173,-13.643 1.266,-20.6 -3.695,-3.252 -9.396,-3.626 -13.853,-0.908 l -2.765,1.685 -1.88,-2.186 c -1.639,-1.905 -1.815,-2.714 -1.367,-6.294 1.039,-8.317 -5.959,-11.383 -14.141,-6.194 m 9.976,4.097 c -0.079,1.1 -0.376,2.911 -0.66,4.024 -0.395,1.546 0.182,3.04 2.449,6.335 2.445,3.554 2.842,4.664 2.26,6.311 -1.209,3.42 -2.436,2.805 -6.031,-3.022 -3.408,-5.523 -3.542,-5.634 -6.822,-5.641 -4.226,-0.009 -5.197,-2.036 -2.673,-5.581 3.464,-4.865 11.775,-6.622 11.477,-2.426 m -100.073,-0.623 c -0.47,0.566 -0.974,2.266 -1.12,3.777 l -0.265,2.748 -14.352,0.13 -14.352,0.13 -1.162,2.719 c -0.639,1.495 -1.624,3.799 -2.188,5.119 -0.564,1.32 -1.952,4.48 -3.085,7.022 -1.134,2.542 -2.061,4.783 -2.061,4.98 0,0.197 -1.033,2.617 -2.295,5.378 -1.263,2.761 -3.122,7 -4.131,9.42 -1.01,2.42 -2.137,4.742 -2.505,5.16 -2.013,2.287 1.283,12.323 5.055,15.394 14.94,12.159 35.834,-1.729 28.209,-18.751 -1.528,-3.412 -3.091,-6.923 -3.473,-7.803 -0.382,-0.88 -2.557,-5.825 -4.834,-10.989 -5.608,-12.717 -5.92,-12.267 8.299,-11.971 14.445,0.301 13.61,-0.571 12.547,13.102 -0.455,5.862 -0.883,14.078 -0.95,18.258 -0.067,4.18 -0.607,14.98 -1.199,24 -0.591,9.02 -0.898,16.979 -0.681,17.687 0.634,2.068 -1.348,3.011 -6.873,3.27 L 123.6,367.6 v 3.6 3.6 l 5.6,0.4 5.6,0.4 0.238,5.472 c 0.26,5.972 -0.524,7.728 -3.45,7.728 -5.134,0 -1.698,10.841 4.443,14.016 7.848,4.058 17.569,-2.104 17.569,-11.137 0,-2.527 -0.241,-2.879 -1.972,-2.879 -2.595,0 -3.628,-2.103 -3.628,-7.387 0,-5.499 0.8,-6.213 6.96,-6.213 H 160 v -4 -4 h -5.047 c -2.838,0 -5.595,-0.438 -6.298,-1 -1.186,-0.949 -3.137,-32.743 -4.037,-65.8 l -0.218,-8 h 12.4 12.4 l -0.26,2.39 c -0.143,1.315 -0.539,2.755 -0.879,3.2 -0.34,0.446 -1.79,3.69 -3.222,7.21 -1.431,3.52 -2.926,6.742 -3.321,7.16 -0.395,0.418 -0.718,1.224 -0.718,1.791 0,0.567 -1.394,3.956 -3.097,7.531 l -3.098,6.5 1.272,3.978 c 5.48,17.136 29.224,17.031 34.845,-0.154 l 1.23,-3.76 -3.655,-8.323 c -2.01,-4.578 -4.3,-9.763 -5.089,-11.523 -5.144,-11.479 -8.008,-19.046 -8.008,-21.159 0,-3.08 1.972,-2.686 -16,-3.197 l -15.6,-0.444 -0.4,-2.736 c -0.435,-2.977 -1.667,-3.911 -3.015,-2.287 m 121.25,13.077 c 1.724,1.208 1.742,1.339 0.458,3.511 -1.655,2.803 -0.968,4.835 1.635,4.835 2.671,0 3.273,1.269 1.723,3.635 -1.629,2.486 -2.889,2.479 -5.242,-0.025 -4.516,-4.807 -9.45,8.389 -5.808,15.533 2.189,4.292 4.645,5.563 13.408,6.939 8.159,1.281 9.449,1.877 10.309,4.76 0.992,3.326 -1.257,4.854 -4.721,3.21 -1.949,-0.925 -5.355,-1.514 -9.621,-1.663 -13.034,-0.457 -19.908,-9.06 -18.491,-23.142 1.446,-14.387 9.128,-22.651 16.35,-17.593 M 112.367,301 c 0.811,1.87 2.32,5.177 3.354,7.35 1.033,2.172 1.879,4.232 1.879,4.578 0,0.345 0.88,2.528 1.956,4.85 3.614,7.8 4.101,7.39 -9.093,7.645 -12.403,0.239 -13.356,-0.006 -11.816,-3.042 0.552,-1.09 2.939,-6.661 5.303,-12.381 5.845,-14.14 6.079,-14.39 8.417,-9 m 65.948,6.4 c 2.337,5.39 4.943,11.348 5.79,13.24 2.173,4.851 1.932,4.96 -10.905,4.96 -13.102,0 -13.121,-0.01 -10.466,-5.75 1.081,-2.337 2.674,-5.87 3.54,-7.85 4.485,-10.255 6.538,-14.4 7.133,-14.4 0.362,0 2.57,4.41 4.908,9.8 M 123.2,331.277 c 0,10.101 -18.999,12.909 -24.719,3.653 -3.277,-5.302 -3.217,-5.33 11.519,-5.33 12.867,0 13.2,0.042 13.2,1.677 m 63.2,0.047 c 0,10.359 -18.628,12.847 -24.905,3.327 -3.237,-4.909 -2.908,-5.051 11.705,-5.051 12.984,0 13.2,0.028 13.2,1.724 m 84.348,6.256 c 1.815,0.69 5.241,5.01 5.249,6.62 0.01,2.001 -6.231,-0.88 -7.721,-3.564 -2.011,-3.623 -1.308,-4.493 2.472,-3.056 M 143.09,355.434 c 0.187,11.218 -0.017,12.183 -2.318,10.951 -1.755,-0.939 -1.656,-11.895 0.192,-21.185 1.289,-6.479 1.895,-3.56 2.126,10.234 m 128.029,-7.547 c 1.496,0.502 5.154,0.913 8.129,0.913 5.524,0 9.552,2.52 9.552,5.976 0,3.594 -19.582,2.431 -23.8,-1.414 -3.195,-2.912 -1.102,-10.263 2.13,-7.482 0.698,0.601 2.494,1.504 3.989,2.007 m 16.636,14.313 c 0.278,0.77 1.257,2.475 2.175,3.789 4.513,6.455 4.086,7.475 -1.514,3.622 -2.991,-2.058 -6.816,-6.719 -6.816,-8.305 0,-1.268 5.673,-0.444 6.155,0.894 m 4.389,14.876 c 4.272,2.663 4.576,3.063 5.082,6.678 0.295,2.115 1.455,5.271 2.577,7.013 4.115,6.386 3.755,11.352 -0.514,7.094 -1.247,-1.244 -3.039,-2.801 -3.983,-3.461 -1.149,-0.804 -1.979,-2.627 -2.513,-5.521 -0.965,-5.228 -1.668,-6.165 -5.112,-6.811 -3.225,-0.605 -5.091,-2.519 -5.771,-5.919 -0.767,-3.834 0.804,-5.332 3.563,-3.398 1.17,0.821 4.172,2.767 6.671,4.325 M 141.6,376.667 c 0,1.041 -0.951,1.734 -1.725,1.256 -0.827,-0.511 -0.114,-1.923 0.972,-1.923 0.414,0 0.753,0.3 0.753,0.667 m 0.4,6.533 c -0.272,0.44 -1.034,0.8 -1.694,0.8 -0.66,0 -0.978,-0.36 -0.706,-0.8 0.272,-0.44 1.034,-0.8 1.694,-0.8 0.66,0 0.978,0.36 0.706,0.8 m 73.612,7.818 c 0.873,0.476 2.128,1.069 2.788,1.319 0.66,0.249 1.74,0.761 2.4,1.137 0.66,0.377 2.168,1.189 3.352,1.806 3.198,1.665 11.048,8.799 11.048,10.041 0,0.594 0.297,1.079 0.66,1.079 1.176,0 4.94,9.193 4.928,12.036 -0.009,2.079 -0.205,2.467 -0.788,1.564 -0.427,-0.66 -0.781,-2.169 -0.788,-3.353 -0.006,-1.184 -0.372,-2.375 -0.812,-2.647 -0.44,-0.272 -0.8,-1.029 -0.8,-1.681 0,-2.579 -10.621,-14.719 -12.877,-14.719 -0.398,0 -0.723,-0.36 -0.723,-0.8 0,-0.44 -0.63,-0.811 -1.4,-0.825 -0.77,-0.014 -2.099,-0.554 -2.953,-1.2 -0.854,-0.646 -2.363,-1.175 -3.353,-1.175 -0.99,0 -2.022,-0.36 -2.294,-0.8 -0.272,-0.44 -2.093,-0.8 -4.047,-0.8 -3.327,0 -4.797,-1.042 -2.553,-1.808 1.686,-0.577 6.535,-0.089 8.212,0.826 m -66.916,2.216 c 2.05,2.017 -3.421,6.766 -7.795,6.766 -3.741,0 -8.685,-5.549 -6.707,-7.527 0.56,-0.56 13.869,0.138 14.502,0.761 m 161.157,6.204 c -0.829,1.342 -3.453,-2.128 -3.449,-4.562 l 0.004,-2.476 1.928,3.186 c 1.061,1.752 1.743,3.485 1.517,3.852 M 201.126,396.68 c 0.231,0.374 -0.819,2.624 -2.333,5 -1.513,2.376 -2.761,4.583 -2.773,4.904 -0.011,0.322 -1.28,2.555 -2.82,4.962 -1.54,2.407 -2.8,4.523 -2.8,4.701 0,0.178 -1.853,3.525 -4.119,7.438 -2.265,3.913 -5.027,8.845 -6.137,10.96 -2.633,5.017 -4.724,6.252 -5.369,3.173 -0.256,-1.22 -0.852,-3.748 -1.324,-5.618 -1.475,-5.84 1.147,-16.194 5.739,-22.657 5.447,-7.669 19.906,-16.147 21.936,-12.863 m 13.731,0.632 c 13.668,4.547 22.853,18.546 21.763,33.169 -0.704,9.457 -2.681,11.416 -5.687,5.635 -0.605,-1.164 -2.448,-4.456 -4.095,-7.316 -1.647,-2.86 -4.098,-7.18 -5.447,-9.6 -3.885,-6.97 -5.207,-9.324 -8.604,-15.319 -4.645,-8.198 -4.473,-8.746 2.07,-6.569 m -35.836,5.945 c -2.541,2.671 -4.621,5.371 -4.621,6 0,0.628 -0.36,1.143 -0.8,1.143 -0.44,0 -0.8,0.396 -0.8,0.879 0,0.484 -0.507,2.014 -1.127,3.4 -2.34,5.235 -3.693,16.821 -2.145,18.369 0.48,0.48 0.872,2.065 0.872,3.523 0,1.458 0.343,3.276 0.761,4.04 0.419,0.764 1.37,2.759 2.113,4.434 2.19,4.937 13.607,15.755 16.625,15.755 0.664,0 1.429,0.36 1.701,0.8 0.272,0.44 1.152,0.8 1.955,0.8 0.804,0 3.353,0.611 5.664,1.357 7.828,2.528 22.754,-1.96 29.853,-8.976 5.355,-5.293 8.476,-9.453 8.503,-11.334 0.014,-0.964 0.385,-1.975 0.825,-2.247 0.44,-0.272 0.8,-1.539 0.8,-2.816 0,-1.276 0.48,-2.769 1.067,-3.317 0.713,-0.667 0.946,-2.252 0.702,-4.787 -0.488,-5.084 0.583,-10.827 1.47,-7.88 4.66,15.486 -10.646,38.622 -28.164,42.571 -20.67,4.66 -42.222,-8.568 -45.898,-28.171 -1.072,-5.717 -1.318,-13.779 -0.446,-14.651 0.478,-0.478 0.869,-2.031 0.869,-3.451 0,-3.541 4.96,-12.786 9.038,-16.844 5.308,-5.282 6.359,-4.037 1.183,1.403 M 207.452,403 c 1.029,1.65 2.906,4.98 4.171,7.4 1.265,2.42 2.724,4.94 3.241,5.6 0.518,0.66 2.471,4.08 4.34,7.6 1.868,3.52 3.66,6.76 3.98,7.2 1.896,2.6 6.26,11.49 5.844,11.905 -0.836,0.837 -47.287,0.57 -47.809,-0.275 -0.262,-0.423 3.203,-7.173 7.7,-15 4.497,-7.826 9.82,-17.19 11.829,-20.807 4.215,-7.591 4.225,-7.596 6.704,-3.623 m -7.852,16.088 c -7.156,4.42 -8.149,13.233 -2.097,18.603 7.765,6.891 18.497,1.829 18.497,-8.724 0,-8.511 -9.424,-14.187 -16.4,-9.879 m 10.329,4.973 c 3.063,3.641 2.87,7.925 -0.485,10.747 -7.126,5.996 -16.27,-4.432 -9.462,-10.791 3.55,-3.317 7.132,-3.301 9.947,0.044 m -7.239,4.337 c -0.276,0.72 -0.133,1.679 0.319,2.131 1.304,1.304 3.791,0.425 3.791,-1.34 0,-2.035 -3.383,-2.686 -4.11,-0.791 m -39.888,4.403 c 0.563,0.468 1.268,2.549 1.566,4.625 2.003,13.968 16.844,29.03 31.259,31.724 1.745,0.326 3.623,0.965 4.173,1.42 0.784,0.648 1,14.319 1,63.421 v 62.595 l -5.4,-0.33 c -2.97,-0.181 -28.44,-0.403 -56.6,-0.493 -54.557,-0.174 -53.368,-0.088 -56.582,-4.057 -1.289,-1.59 -1.384,-7.06 -1.4,-80.655 l -0.018,-78.95 2.6,-0.25 c 7.105,-0.685 78.46,0.169 79.402,0.95 m 166.602,77.898 c 0.199,76.409 0.166,78.36 -1.355,80.822 -2.656,4.298 -3.429,4.354 -61.649,4.449 -29.26,0.048 -53.92,0.164 -54.8,0.258 -1.586,0.171 -1.602,-0.365 -1.805,-62.794 l -0.205,-62.967 3.405,-0.913 c 17.841,-4.786 28.703,-15.329 32.707,-31.746 0.511,-2.095 1.201,-4.348 1.534,-5.008 0.53,-1.051 5.658,-1.15 41.285,-0.8 l 40.679,0.4 0.204,78.299 M 229.6,447.838 c 0,6.084 -20.454,14.021 -30.248,11.736 -7.585,-1.77 -18.552,-8.672 -18.552,-11.676 0,-0.384 10.98,-0.698 24.4,-0.698 13.42,0 24.4,0.287 24.4,0.638 m -124.93,4.603 c -1.11,1.881 -2.457,2.996 -3.99,3.303 -3.306,0.661 -3.654,1.845 -1.169,3.982 1.99,1.712 2.1,2.105 1.35,4.824 -1.011,3.659 -0.758,3.933 2.421,2.616 2.648,-1.097 4.718,0.218 4.718,2.998 0,0.582 0.323,1.683 0.718,2.447 0.395,0.764 1.344,3.009 2.109,4.989 0.764,1.98 1.85,4.68 2.413,6 0.562,1.32 2.707,6.9 4.768,12.4 2.06,5.5 4.21,11.08 4.777,12.4 0.567,1.32 1.504,3.84 2.082,5.6 1.379,4.196 2.644,5.522 5.313,5.565 1.982,0.032 2.243,0.382 2.713,3.645 0.729,5.061 3.341,10.223 7.168,14.166 4.241,4.37 3.637,5.14 -3.81,4.855 -7.103,-0.273 -6.469,0.496 -11.369,-13.787 -3.891,-11.342 -5.483,-13.419 -10.031,-13.081 -4.226,0.313 -5.476,2.263 -10.05,15.68 -2.096,6.149 -4.025,10.557 -4.619,10.557 -1.681,0 -2.327,3.236 -1.957,9.792 l 0.349,6.191 34.913,0.209 34.913,0.208 0.197,9.2 c 0.293,13.702 -0.28,12.8 8.133,12.8 8.758,0 8.07,1.669 8.07,-19.567 0,-19.582 0.073,-19.367 -6.296,-18.522 -5.226,0.693 -6.726,-0.854 -3.292,-3.394 9.442,-6.98 11.347,-24.676 3.716,-34.517 -13.86,-17.875 -42.427,-11.734 -45.659,9.816 -0.642,4.283 -2.498,5.15 -3.387,1.584 -0.301,-1.21 -1.2,-3.64 -1.997,-5.4 -1.881,-4.153 -1.859,-5.148 0.105,-4.634 2.284,0.597 2.9,-1.76 1.323,-5.066 -1.635,-3.43 -1.674,-5.59 -0.11,-6.19 1.062,-0.408 1.049,-0.848 -0.108,-3.738 -1.78,-4.451 -0.605,-5.734 3.318,-3.621 2.596,1.398 2.883,1.41 4.249,0.174 1.785,-1.615 2.116,-1.633 3.561,-0.188 2.392,2.392 3.894,1.929 5.936,-1.829 0.087,-0.161 2.942,1.381 6.345,3.426 5.565,3.345 6.31,3.595 7.416,2.489 1.513,-1.513 0.094,-3.118 -5.52,-6.244 -1.98,-1.102 -6.556,-3.753 -10.169,-5.891 -17.186,-10.172 -27.144,-15.938 -28.426,-16.462 -1.645,-0.672 -1.82,-2.285 -0.405,-3.72 1.184,-1.2 -1.096,-3.306 -3.58,-3.306 -0.837,0 -2.188,-1.211 -3.126,-2.8 -2.028,-3.438 -1.971,-3.439 -4.024,0.041 m 4.93,8.265 c 0,2.094 -0.239,2.295 -2.589,2.177 -2.848,-0.144 -5.451,-4.335 -3.166,-5.097 0.574,-0.192 1.452,-0.785 1.949,-1.318 1.329,-1.422 3.806,1.337 3.806,4.238 m 158.4,3.167 c -6.762,3.16 -11.626,9.919 -11.072,15.387 0.289,2.86 -1.77,4.691 -5.328,4.737 -0.88,0.011 -3.367,0.556 -5.527,1.212 -2.16,0.655 -5.13,1.191 -6.6,1.191 -1.745,0 -2.673,0.385 -2.673,1.109 0,1.6 -1.72,4.635 -3.8,6.702 -1.738,1.728 -1.8,2.303 -1.809,16.789 l -0.008,15 -2.792,2.712 c -1.535,1.492 -2.791,3.31 -2.791,4.041 0,0.73 -1.816,3.365 -4.036,5.856 l -4.035,4.527 0.235,5.832 0.236,5.832 3.6,1.118 c 4.737,1.47 5.977,1.919 11.2,4.053 2.42,0.988 5.66,2.056 7.2,2.373 1.54,0.317 3.586,0.999 4.547,1.516 0.961,0.517 2.503,0.94 3.426,0.94 1.928,0 10.496,2.781 13.748,4.463 1.21,0.625 2.896,1.137 3.748,1.137 0.851,0 2.579,0.538 3.84,1.195 1.26,0.657 3.055,1.197 3.989,1.2 0.934,0.003 5.545,1.265 10.246,2.805 9.956,3.261 10.409,3.308 11.868,1.225 0.607,-0.866 2.858,-3.476 5.003,-5.8 2.145,-2.324 6.476,-7.105 9.626,-10.625 3.149,-3.52 7.038,-7.82 8.642,-9.556 3.274,-3.543 3.475,-4.449 1.617,-7.285 -0.924,-1.409 -1.155,-2.891 -0.8,-5.114 0.526,-3.29 -0.795,-5.645 -3.168,-5.645 -0.635,0 -1.779,-0.334 -2.543,-0.742 -0.764,-0.407 -2.019,-0.936 -2.789,-1.174 -1.064,-0.33 -1.4,-1.305 -1.4,-4.059 0,-3.092 -0.235,-3.625 -1.6,-3.625 -1.548,0 -1.6,-0.533 -1.6,-16.368 0,-12.125 -0.259,-16.581 -1,-17.188 -4.767,-3.907 -6.242,-4.844 -7.624,-4.844 -0.876,0 -3.344,-0.523 -5.484,-1.162 -2.141,-0.639 -5.184,-1.365 -6.763,-1.612 -2.75,-0.431 -2.876,-0.594 -3,-3.869 -0.187,-4.951 -2.567,-8.956 -7.225,-12.161 -4.119,-2.833 -5.146,-3.131 -7.304,-2.123 m 4.775,6.062 c 0.405,1.065 1.29,2.246 1.966,2.624 4.046,2.264 -1.889,13.183 -6.409,11.79 -4.158,-1.281 -4.052,-1.175 -2.379,-2.406 0.854,-0.629 1.166,-1.143 0.693,-1.143 -1.763,0 -2.657,-7.246 -0.97,-7.867 0.398,-0.146 0.724,-0.751 0.724,-1.343 0,-3.405 5.197,-4.754 6.375,-1.655 M 287.6,486.47 c 1.76,0.457 4.73,1.197 6.6,1.645 l 3.4,0.815 v 19.049 c 0,21.752 0.673,20.158 -8,18.95 -3.3,-0.46 -8.806,-0.857 -12.236,-0.883 -7.658,-0.057 -7.081,1.677 -6.79,-20.414 l 0.226,-17.167 2.4,-0.592 c 1.32,-0.325 3.66,-0.933 5.2,-1.35 3.775,-1.024 5.429,-1.033 9.2,-0.053 m -21.8,1.42 2.2,0.87 v 18.324 18.323 l -9.8,0.52 c -5.39,0.287 -11.42,0.6 -13.4,0.697 l -3.6,0.176 -0.215,-18.103 -0.215,-18.103 6.215,-1.382 c 3.418,-0.761 7.115,-1.695 8.215,-2.076 2.381,-0.826 7.534,-0.46 10.6,0.754 m -13.762,5.678 c -2.399,0.773 -4.499,1.816 -4.667,2.318 -0.411,1.233 2.003,2.081 3.239,1.138 0.545,-0.416 3.15,-1.215 5.79,-1.777 6.668,-1.419 6.965,-1.532 6.403,-2.441 -0.737,-1.193 -5.807,-0.834 -10.765,0.762 m 24.359,-0.762 c -0.615,0.994 0.397,1.33 6.003,1.995 7.133,0.847 9.182,0.846 9.509,-10e-4 0.758,-1.966 -14.331,-3.906 -15.512,-1.994 M 256,497.429 c -3.005,0.401 -8.8,2.692 -8.8,3.48 0,0.935 5.087,0.882 6.04,-0.063 0.418,-0.415 2.655,-0.865 4.97,-1 2.316,-0.135 4.224,-0.606 4.24,-1.046 0.035,-0.958 -3.659,-1.743 -6.45,-1.371 m 22.553,0.051 c -2.375,0.669 -1.952,2.1 0.647,2.188 1.1,0.038 4.305,0.218 7.123,0.4 7.018,0.455 7.467,-1.192 0.649,-2.379 -5.559,-0.968 -5.71,-0.972 -8.419,-0.209 M 236.8,514.133 c 0,9.094 -0.209,16.325 -0.464,16.069 -0.752,-0.751 -0.689,-32.602 0.064,-32.602 0.22,0 0.4,7.44 0.4,16.533 M 164.584,504 c 0.803,0 2.263,-0.562 3.244,-1.25 2.33,-1.632 3.152,0.035 1.854,3.759 -2.285,6.554 -0.69,11.091 3.899,11.091 4.017,0 4.287,0.552 3.602,7.366 -0.898,8.942 -8.586,15.834 -17.663,15.834 h -3.698 l 0.557,-3 c 0.521,-2.808 1.026,-3.652 4.621,-7.718 3.943,-4.46 1.551,-9.448 -6.222,-12.976 -5.078,-2.306 -5.946,-3.078 -5.966,-5.306 -0.008,-0.889 0.596,-1.4 1.653,-1.4 2.949,0 8.735,-5.44 8.735,-8.213 v -2.421 l 1.962,2.117 c 1.079,1.164 2.619,2.117 3.422,2.117 m -11.863,0.148 c -0.883,1.65 -2.491,1.846 -4.84,0.588 -2.319,-1.241 -4.927,1.228 -4.484,4.246 0.366,2.49 -2.022,3.271 -2.911,0.953 -1.77,-4.613 3.351,-9.219 8.97,-8.068 3.555,0.728 3.949,1.003 3.265,2.281 m 99.83,-1.06 c -2.557,0.747 -4.537,1.708 -4.4,2.135 0.306,0.954 7.157,0.556 8.209,-0.477 0.418,-0.41 1.927,-0.746 3.353,-0.746 2.858,0 4.197,-1.157 2.217,-1.916 -1.921,-0.737 -4.281,-0.485 -9.379,1.004 m 24.271,-0.719 c -1.417,0.897 -1.171,0.992 6.026,2.33 6.394,1.188 9.372,1.162 8.959,-0.078 -0.625,-1.876 -12.708,-3.692 -14.985,-2.252 m -99.147,7.159 c 1.741,3.251 1.403,4.072 -1.675,4.072 -2.89,0 -3.497,-0.964 -2.834,-4.502 0.663,-3.532 2.479,-3.359 4.509,0.43 m 73.584,-1.281 c -4.659,1.254 -5.592,3.374 -1.159,2.633 1.705,-0.286 5.366,-0.733 8.135,-0.995 3.215,-0.304 4.927,-0.803 4.737,-1.38 -0.413,-1.254 -7.439,-1.409 -11.713,-0.258 m 25.203,-0.347 c -0.712,1.151 0.364,1.491 6.338,1.998 2.64,0.224 5.79,0.651 7,0.948 2.255,0.554 2.699,-0.02 1.49,-1.928 -0.91,-1.436 -14.014,-2.335 -14.828,-1.018 m -25.862,5.173 c -4.468,1.096 -4.816,3.378 -0.4,2.624 1.65,-0.282 5.07,-0.74 7.6,-1.019 3.092,-0.34 4.6,-0.862 4.6,-1.592 0,-1.302 -6.515,-1.31 -11.8,-0.013 m 26.2,0.152 c 0,0.86 0.774,1.208 2.6,1.169 1.43,-0.031 4.728,0.332 7.329,0.806 4.305,0.785 8.668,-0.104 5.205,-1.061 -0.624,-0.172 -2.42,-0.724 -3.991,-1.226 -4.363,-1.395 -11.143,-1.205 -11.143,0.312 m -132.641,3.761 c 0.405,0.135 0.82,2.057 0.921,4.271 0.122,2.639 0.794,4.881 1.953,6.508 1.742,2.447 2.627,10.635 1.149,10.635 -5.329,0 -13.189,-15.087 -11.343,-21.772 l 0.785,-2.843 2.899,1.478 c 1.594,0.813 3.23,1.588 3.636,1.723 m 109.129,0.403 c -3.652,0.377 -7.478,2.552 -6.045,3.438 0.517,0.319 2.788,0.088 5.048,-0.514 2.26,-0.602 5.639,-1.098 7.509,-1.104 3.403,-0.009 4.514,-1.01 2.135,-1.923 -1.285,-0.493 -3.058,-0.472 -8.647,0.103 m 24.512,-0.04 c -3.291,0.662 -1.862,1.625 3.2,2.156 2.75,0.288 6.35,0.736 8,0.997 3.37,0.531 4.215,-0.887 1.2,-2.015 -2.368,-0.885 -10.119,-1.597 -12.4,-1.138 m -160.361,3.929 c 0.335,2.333 -1.837,4.052 -3.439,2.722 -0.66,-0.548 -1.2,-1.642 -1.2,-2.431 0,-2.744 4.248,-3.01 4.639,-0.291 m 37.685,0.47 c 3.999,2.135 4.252,4.217 0.903,7.426 l -2.373,2.273 -0.779,-1.923 c -0.429,-1.058 -1.519,-3.004 -2.422,-4.324 -3.463,-5.061 -1.316,-6.648 4.671,-3.452 m -35.716,13.912 c 4.298,5.63 3.912,6.258 -4.029,6.556 -8.349,0.313 -8.864,-0.504 -4.207,-6.672 3.882,-5.141 4.225,-5.137 8.236,0.116 M 231.2,532.772 c 0,0.864 0.72,1.957 1.6,2.428 1.854,0.992 2.127,4.167 0.477,5.536 -3.902,3.239 -8.272,-4.185 -4.753,-8.073 1.716,-1.896 2.676,-1.857 2.676,0.109 m 38,1.087 c 8.366,-0.318 27.796,-0.171 30.888,0.234 2.028,0.266 4.368,0.129 5.2,-0.304 6.661,-3.47 3.929,1.766 -7.94,15.214 -2.426,2.748 -5.187,5.987 -6.137,7.197 -1.733,2.208 -4.288,2.894 -5.211,1.4 -0.272,-0.44 -1.391,-0.8 -2.487,-0.8 -6.408,0 -9.499,-6.537 -5.353,-11.321 1.327,-1.531 0.805,-2.039 -3.76,-3.66 -6.379,-2.266 -9.316,-0.644 -9.744,5.382 -0.3,4.221 -0.05,4.197 -10.256,0.978 -7.818,-2.465 -8.991,-3.484 -8.442,-7.336 0.832,-5.842 8.322,-8.889 18.042,-7.339 1.54,0.245 3.88,0.405 5.2,0.355 m -40.95,9.341 c 2.61,0 7.177,2.493 6.255,3.415 -0.498,0.498 -0.911,2.183 -0.917,3.745 -0.021,4.782 -0.609,5.063 -6.638,3.17 l -5.35,-1.679 v -3.347 c 0,-4.335 1.894,-7.231 3.995,-6.107 0.825,0.442 2.02,0.803 2.655,0.803 m 87.264,1.265 c 1.073,2.794 1.599,2.021 -10.355,15.196 -3.498,3.854 -7.151,7.88 -8.118,8.946 -3.153,3.474 -4.849,-0.458 -2.036,-4.72 1.859,-2.815 18.626,-20.687 19.409,-20.687 0.338,0 0.833,0.569 1.1,1.265 m -135.547,2.295 c 0.575,0.693 0.797,5.785 0.652,14.945 l -0.219,13.895 -3.374,0.245 c -4.125,0.299 -4.154,0.217 -4.429,-12.645 L 172.4,554 137.642,553.791 c -36.917,-0.221 -36.162,-0.134 -35.628,-4.127 0.152,-1.135 0.301,-2.473 0.331,-2.973 0.086,-1.422 76.44,-1.354 77.622,0.069 m 60.833,6.487 c 0,2.228 -0.311,3.455 -0.8,3.153 -0.89,-0.55 -1.063,-3.585 -0.314,-5.535 0.807,-2.104 1.114,-1.449 1.114,2.382 m 17.83,-0.867 c 2.709,1.132 2.85,1.372 2.469,4.21 -1.016,7.588 -0.922,7.53 -8.066,5.019 -5.237,-1.841 -6.014,-2.715 -5.337,-6.009 1.174,-5.711 3.402,-6.367 10.934,-3.22 m 25.949,7.671 c 5.578,1.884 5.615,1.943 5.189,8.149 -0.365,5.308 -0.008,5.211 -8.568,2.318 l -6.4,-2.163 -0.248,-3.876 c -0.434,-6.784 1.075,-7.451 10.027,-4.428"
       inkscape:connector-curvature="0"
       style="fill:#817f81;fill-rule:evenodd;stroke:none" />
  </g>
</svg>
