<?xml version="1.0" encoding="UTF-8" standalone="no"?>
<svg
   xmlns:dc="http://purl.org/dc/elements/1.1/"
   xmlns:cc="http://creativecommons.org/ns#"
   xmlns:rdf="http://www.w3.org/1999/02/22-rdf-syntax-ns#"
   xmlns:svg="http://www.w3.org/2000/svg"
   xmlns="http://www.w3.org/2000/svg"
   xmlns:sodipodi="http://sodipodi.sourceforge.net/DTD/sodipodi-0.dtd"
   xmlns:inkscape="http://www.inkscape.org/namespaces/inkscape"
   id="svg"
   version="1.1"
   width="314.22375"
   height="314.2316"
   style="display:block"
   inkscape:version="0.91 r13725"
   sodipodi:docname="ucn.svg">
  <metadata
     id="metadata11">
    <rdf:RDF>
      <cc:Work
         rdf:about="">
        <dc:format>image/svg+xml</dc:format>
        <dc:type
           rdf:resource="http://purl.org/dc/dcmitype/StillImage" />
        <dc:title></dc:title>
      </cc:Work>
    </rdf:RDF>
  </metadata>
  <defs
     id="defs9" />
  <sodipodi:namedview
     pagecolor="#ffffff"
     bordercolor="#666666"
     borderopacity="1"
     objecttolerance="10"
     gridtolerance="10"
     guidetolerance="10"
     inkscape:pageopacity="0"
     inkscape:pageshadow="2"
     inkscape:window-width="640"
     inkscape:window-height="480"
     id="namedview7"
     showgrid="false"
     fit-margin-top="0"
     fit-margin-left="0"
     fit-margin-right="0"
     fit-margin-bottom="0"
     inkscape:zoom="0.118"
     inkscape:cx="957.1"
     inkscape:cy="-642.9"
     inkscape:window-x="0"
     inkscape:window-y="0"
     inkscape:window-maximized="0"
     inkscape:current-layer="svg" />
  <g
     id="svgg"
     transform="translate(-42.9,-42.868409)">
    <path
       id="path0"
       d="m 128.95,129.749 -2.95,0.062 0,15.09 0,15.09 3.75,0.055 3.75,0.054 0.1,50.622 0.1,50.622 2.4,2.553 c 1.32,1.404 2.715,2.884 3.1,3.288 0.385,0.405 1.51,1.586 2.5,2.626 1.592,1.673 5.748,6.054 10.613,11.187 0.887,0.936 2.237,2.367 3,3.181 1.99,2.122 2.725,2.896 4.667,4.921 0.95,0.99 3.07,3.218 4.712,4.95 l 2.984,3.15 32.828,0 32.827,0 2.685,-2.846 c 1.476,-1.566 3.404,-3.604 4.284,-4.53 0.88,-0.926 1.825,-1.924 2.1,-2.219 5.796,-6.207 8.47,-9.055 9.2,-9.8 0.165,-0.169 1.605,-1.699 3.2,-3.4 3.613,-3.855 5.384,-5.742 5.9,-6.286 0.22,-0.232 1.161,-1.231 2.091,-2.22 0.929,-0.99 2.347,-2.494 3.15,-3.344 l 1.459,-1.546 0,-50.283 c 0,-45.667 0.029,-50.294 0.316,-50.405 0.174,-0.066 1.794,-0.121 3.6,-0.121 l 3.284,0 0,-15.101 0,-15.101 -23.35,0.051 -23.35,0.051 -0.051,14.887 c -0.041,11.778 0.001,14.921 0.2,15.047 0.138,0.088 1.804,0.161 3.701,0.163 l 3.45,0.003 0,42.818 c 0,41.783 -0.009,42.831 -0.38,43.303 -0.21,0.266 -1.987,2.168 -3.95,4.228 -6.44,6.756 -6.99,7.336 -8.387,8.835 -0.761,0.816 -2.021,2.144 -2.8,2.95 l -1.417,1.466 -17.691,0 -17.69,0 -1.374,-1.45 c -2.184,-2.304 -4.713,-4.956 -9.018,-9.459 -2.204,-2.305 -4.544,-4.776 -5.2,-5.491 -0.656,-0.715 -1.26,-1.33 -1.343,-1.367 -0.082,-0.036 -0.15,-19.319 -0.15,-42.85 l 0,-42.783 3.601,0 3.601,0 -0.051,-15.35 -0.051,-15.35 -20.5,-0.006 c -11.275,-0.004 -21.828,0.021 -23.45,0.055"
       inkscape:connector-curvature="0"
       style="fill:#bd6224;fill-rule:evenodd;stroke:none" />
    <path
       id="path1"
       d="m 221.6,97.508 c -2.514,0.652 -6.898,1.802 -9.5,2.492 -0.77,0.204 -2.66,0.702 -4.2,1.107 -1.54,0.405 -3.61,0.957 -4.6,1.226 -2.954,0.805 -3.002,0.802 -7.2,-0.337 -2.09,-0.568 -4.835,-1.301 -6.1,-1.63 -4.692,-1.22 -5.355,-1.397 -10.1,-2.697 -0.99,-0.271 -2.182,-0.544 -2.65,-0.607 l -0.85,-0.114 0,20.61 0,20.61 0.95,0.291 c 0.523,0.161 1.355,0.403 1.85,0.54 0.495,0.136 1.125,0.325 1.4,0.419 0.275,0.095 0.86,0.259 1.3,0.366 0.44,0.106 1.115,0.283 1.5,0.392 0.385,0.11 1.51,0.423 2.5,0.697 0.99,0.274 4.659,1.301 8.153,2.283 7.077,1.987 6.115,1.891 9.347,0.94 0.605,-0.178 1.37,-0.401 1.7,-0.496 0.33,-0.095 1.387,-0.405 2.349,-0.689 0.962,-0.284 2.515,-0.741 3.45,-1.016 0.935,-0.275 2.465,-0.725 3.4,-1 2.649,-0.779 4.809,-1.408 7.201,-2.095 1.21,-0.347 2.335,-0.702 2.5,-0.788 0.327,-0.17 0.575,-40.739 0.251,-41.022 -0.083,-0.072 -1.276,0.161 -2.651,0.518 M 198.846,112.5 c 4.473,6.3 5.81,8.36 7.626,11.75 0.221,0.413 0.485,0.75 0.587,0.75 0.102,0 0.13,-0.337 0.063,-0.75 -0.067,-0.412 -0.179,-4.195 -0.249,-8.405 l -0.128,-7.655 3.278,0.055 3.277,0.055 0,12.4 0,12.4 -3.774,0 -3.774,0 -2.07,-3 c -5.247,-7.607 -8.7,-12.913 -9.33,-14.336 -0.137,-0.31 -0.295,-0.564 -0.351,-0.564 -0.055,0 -0.069,4.05 -0.029,9 l 0.071,9 -3.221,0 -3.222,0 0,-12.504 0,-12.504 4.132,0.054 4.131,0.054 2.983,4.2 m -72.947,17.35 c -0.06,0.247 -0.084,7.155 -0.054,15.35 l 0.055,14.9 3.7,0.1 3.7,0.1 0.05,50.515 0.051,50.515 0.949,1.015 c 0.523,0.558 1.439,1.541 2.037,2.185 0.597,0.643 1.905,2.025 2.906,3.07 1.001,1.045 3.339,3.52 5.197,5.5 1.857,1.98 4.284,4.546 5.393,5.701 1.109,1.156 2.737,2.867 3.617,3.803 0.88,0.936 2.59,2.74 3.8,4.01 3.143,3.299 8.056,8.505 9.189,9.736 l 0.966,1.05 33.045,0 33.045,0 0.968,-1.05 c 0.903,-0.979 5.492,-5.889 6.387,-6.833 0.896,-0.945 9.205,-9.765 11.6,-12.312 0.88,-0.936 1.78,-1.892 2,-2.123 0.22,-0.232 1.569,-1.672 2.997,-3.202 3.023,-3.237 5.157,-5.498 7.432,-7.877 0.896,-0.937 1.864,-1.986 2.15,-2.332 l 0.521,-0.629 0,-50.216 0,-50.217 3.55,-0.054 3.55,-0.055 0,-15.4 0,-15.4 -23.162,-0.051 c -15.785,-0.034 -23.285,0.016 -23.551,0.158 -0.382,0.204 -0.388,0.52 -0.338,15.351 l 0.051,15.142 3.6,0.1 3.6,0.1 0.05,42.658 0.051,42.659 -1.751,1.839 c -0.962,1.012 -2.43,2.561 -3.261,3.442 -0.831,0.881 -2.226,2.36 -3.1,3.285 -0.874,0.926 -1.814,1.923 -2.089,2.215 -0.927,0.985 -4.069,4.292 -5.37,5.652 l -1.291,1.35 -17.539,0 -17.539,0 -2.38,-2.466 c -1.31,-1.356 -3.009,-3.133 -3.776,-3.95 -0.767,-0.816 -3.107,-3.277 -5.2,-5.469 -2.093,-2.192 -4.233,-4.433 -4.755,-4.981 l -0.95,-0.996 0,-42.569 0,-42.569 3.6,0 3.6,0 0,-15.6 0,-15.6 -23.596,0 -23.596,0 -0.109,0.45 m 47.052,15.2 0.051,15.35 -3.601,0 -3.601,0 0,42.783 c 0,23.531 0.068,42.814 0.15,42.85 0.083,0.037 0.687,0.652 1.343,1.367 0.656,0.715 2.996,3.186 5.2,5.491 4.305,4.503 6.834,7.155 9.018,9.459 l 1.374,1.45 17.69,0 17.691,0 1.417,-1.466 c 0.779,-0.806 2.039,-2.134 2.8,-2.95 1.397,-1.499 1.947,-2.079 8.387,-8.835 1.963,-2.06 3.74,-3.962 3.95,-4.228 0.371,-0.472 0.38,-1.52 0.38,-43.303 l 0,-42.818 -3.45,-0.003 c -1.897,-0.002 -3.563,-0.075 -3.701,-0.163 -0.199,-0.126 -0.241,-3.269 -0.2,-15.047 l 0.051,-14.887 23.35,-0.051 23.35,-0.051 0,15.101 0,15.101 -3.284,0 c -1.806,0 -3.426,0.055 -3.6,0.121 -0.287,0.111 -0.316,4.738 -0.316,50.405 l 0,50.283 -1.459,1.546 c -0.803,0.85 -2.221,2.354 -3.15,3.344 -0.93,0.989 -1.871,1.988 -2.091,2.22 -0.516,0.544 -2.287,2.431 -5.9,6.286 -1.595,1.701 -3.035,3.231 -3.2,3.4 -0.73,0.745 -3.404,3.593 -9.2,9.8 -0.275,0.295 -1.22,1.293 -2.1,2.219 -0.88,0.926 -2.808,2.964 -4.284,4.53 l -2.685,2.846 -32.827,0 -32.828,0 -2.984,-3.15 c -1.642,-1.732 -3.762,-3.96 -4.712,-4.95 -1.942,-2.025 -2.677,-2.799 -4.667,-4.921 -0.763,-0.814 -2.113,-2.245 -3,-3.181 -4.865,-5.133 -9.021,-9.514 -10.613,-11.187 -0.99,-1.04 -2.115,-2.221 -2.5,-2.626 -0.385,-0.404 -1.78,-1.884 -3.1,-3.288 l -2.4,-2.553 -0.1,-50.622 -0.1,-50.622 -3.75,-0.054 -3.75,-0.055 0,-15.09 0,-15.09 2.95,-0.062 c 1.622,-0.034 12.175,-0.059 23.45,-0.055 l 20.5,0.006 0.051,15.35"
       inkscape:connector-curvature="0"
       style="fill:#de9e78;fill-rule:evenodd;stroke:none" />
    <path
       id="path2"
       d="m 189.403,42.935 c -1.373,0.043 -2.583,0.165 -2.69,0.272 -0.106,0.106 -0.985,0.193 -1.953,0.193 -1.04,0 -1.76,0.082 -1.76,0.2 0,0.11 -0.517,0.206 -1.15,0.212 -1.176,0.013 -2.94,0.212 -5.25,0.594 -0.715,0.118 -1.772,0.263 -2.35,0.323 -0.577,0.059 -1.05,0.178 -1.05,0.264 0,0.085 -0.809,0.219 -1.797,0.296 -0.989,0.077 -1.849,0.224 -1.912,0.326 -0.063,0.102 -0.469,0.185 -0.903,0.185 -0.433,0 -0.788,0.079 -0.788,0.177 0,0.097 -0.675,0.239 -1.5,0.317 -0.825,0.077 -1.5,0.222 -1.5,0.323 0,0.101 -0.315,0.183 -0.7,0.183 -0.385,0 -0.7,0.08 -0.7,0.177 0,0.097 -0.584,0.239 -1.298,0.315 -0.714,0.077 -1.349,0.222 -1.412,0.324 -0.062,0.101 -0.373,0.184 -0.69,0.184 -0.317,0 -0.626,0.079 -0.686,0.177 -0.06,0.097 -0.603,0.238 -1.208,0.314 -0.605,0.075 -1.151,0.221 -1.215,0.323 -0.063,0.102 -0.379,0.186 -0.703,0.186 -0.323,0 -0.588,0.069 -0.588,0.153 0,0.084 -0.765,0.327 -1.7,0.541 -0.935,0.214 -1.7,0.46 -1.7,0.547 0,0.088 -0.225,0.159 -0.5,0.159 -0.275,0 -0.5,0.082 -0.5,0.181 0,0.1 -0.45,0.243 -1,0.319 -0.55,0.076 -1,0.219 -1,0.319 0,0.099 -0.225,0.181 -0.5,0.181 -0.275,0 -0.5,0.09 -0.5,0.2 0,0.11 -0.158,0.2 -0.35,0.199 -0.459,-10e-4 -2.331,0.658 -2.417,0.851 -0.036,0.083 -0.183,0.15 -0.327,0.15 -0.477,0 -2.306,0.658 -2.306,0.83 0,0.094 -0.189,0.17 -0.42,0.17 -0.231,0 -0.703,0.126 -1.05,0.28 -0.346,0.154 -0.923,0.401 -1.28,0.549 -0.358,0.148 -0.65,0.337 -0.65,0.42 0,0.083 -0.179,0.151 -0.399,0.151 -0.481,0 -2.001,0.636 -2.001,0.838 0,0.079 -0.316,0.203 -0.702,0.276 -0.386,0.072 -0.752,0.211 -0.812,0.309 -0.06,0.097 -0.284,0.177 -0.498,0.177 -0.213,0 -0.388,0.09 -0.388,0.2 0,0.11 -0.099,0.2 -0.22,0.2 -0.267,0 -1.641,0.627 -1.78,0.813 -0.055,0.073 -0.325,0.196 -0.6,0.273 -0.677,0.188 -3.483,1.577 -3.567,1.764 -0.036,0.083 -0.194,0.15 -0.35,0.15 -0.156,0 -0.283,0.083 -0.283,0.184 0,0.101 -0.27,0.244 -0.6,0.316 -0.33,0.072 -0.6,0.215 -0.6,0.316 0,0.101 -0.18,0.184 -0.4,0.184 -0.22,0 -0.4,0.083 -0.4,0.184 0,0.101 -0.27,0.244 -0.6,0.316 -0.33,0.072 -0.6,0.196 -0.6,0.275 0,0.079 -0.405,0.31 -0.9,0.514 -0.495,0.204 -0.9,0.448 -0.9,0.541 0,0.094 -0.135,0.17 -0.3,0.17 -0.165,0 -0.3,0.09 -0.3,0.2 0,0.11 -0.128,0.2 -0.284,0.2 -0.357,0 -1.513,0.649 -1.515,0.85 0,0.083 -0.136,0.15 -0.301,0.15 -0.165,0 -0.3,0.08 -0.3,0.178 0,0.098 -0.225,0.235 -0.5,0.304 -0.275,0.069 -0.5,0.214 -0.5,0.322 0,0.108 -0.135,0.196 -0.3,0.196 -0.165,0 -0.3,0.09 -0.3,0.2 0,0.11 -0.169,0.2 -0.376,0.2 -0.206,0 -0.487,0.135 -0.624,0.3 -0.137,0.165 -0.373,0.3 -0.524,0.3 -0.152,0 -0.276,0.088 -0.276,0.196 0,0.108 -0.225,0.253 -0.5,0.322 -0.275,0.069 -0.5,0.206 -0.5,0.304 0,0.098 -0.135,0.178 -0.3,0.178 -0.165,0 -0.3,0.071 -0.3,0.157 0,0.086 -0.292,0.327 -0.65,0.535 -0.357,0.208 -0.695,0.43 -0.75,0.493 -0.154,0.177 -0.85,0.594 -1.355,0.812 -0.25,0.109 -0.508,0.333 -0.572,0.5 -0.063,0.167 -0.274,0.303 -0.466,0.303 -0.193,0 -0.52,0.225 -0.726,0.5 -0.207,0.275 -0.476,0.5 -0.597,0.5 -0.122,0 -0.483,0.226 -0.803,0.501 -0.32,0.276 -0.739,0.552 -0.931,0.614 -0.192,0.061 -0.35,0.196 -0.35,0.298 0,0.103 -0.135,0.187 -0.3,0.187 -0.165,0 -0.3,0.076 -0.3,0.168 0,0.092 -0.203,0.264 -0.45,0.382 -0.485,0.231 -1.192,0.77 -2.361,1.8 -0.406,0.358 -0.794,0.65 -0.863,0.65 -0.069,0 -0.459,0.315 -0.867,0.7 -0.408,0.385 -0.825,0.7 -0.927,0.7 -0.102,0 -0.482,0.315 -0.845,0.7 -0.363,0.385 -0.715,0.7 -0.782,0.7 -0.152,0 -0.566,0.337 -1.29,1.05 -0.307,0.303 -0.621,0.55 -0.698,0.55 -0.077,0 -0.584,0.427 -1.128,0.95 -1.213,1.167 -1.541,1.45 -1.679,1.45 -0.308,0 -12.51,12.202 -12.51,12.51 0,0.138 -0.283,0.466 -1.45,1.679 -0.522,0.544 -0.95,1.051 -0.95,1.128 0,0.077 -0.248,0.391 -0.55,0.698 -0.713,0.724 -1.05,1.138 -1.05,1.29 0,0.067 -0.315,0.419 -0.7,0.782 -0.385,0.363 -0.7,0.743 -0.7,0.845 0,0.102 -0.315,0.519 -0.7,0.927 -0.385,0.408 -0.7,0.798 -0.7,0.867 0,0.069 -0.292,0.457 -0.65,0.863 -1.03,1.169 -1.569,1.876 -1.8,2.361 -0.118,0.247 -0.29,0.45 -0.382,0.45 -0.092,0 -0.168,0.135 -0.168,0.3 0,0.165 -0.084,0.3 -0.187,0.3 -0.102,0 -0.237,0.158 -0.298,0.35 -0.062,0.192 -0.338,0.611 -0.614,0.931 -0.275,0.32 -0.501,0.681 -0.501,0.803 0,0.121 -0.225,0.39 -0.5,0.597 -0.275,0.206 -0.5,0.533 -0.5,0.726 0,0.192 -0.136,0.403 -0.303,0.466 -0.167,0.064 -0.391,0.322 -0.5,0.572 -0.218,0.505 -0.635,1.201 -0.812,1.355 -0.063,0.055 -0.285,0.393 -0.493,0.75 -0.208,0.358 -0.449,0.65 -0.535,0.65 -0.086,0 -0.157,0.135 -0.157,0.3 0,0.165 -0.08,0.3 -0.178,0.3 -0.098,0 -0.235,0.225 -0.304,0.5 -0.069,0.275 -0.214,0.5 -0.322,0.5 -0.108,0 -0.196,0.124 -0.196,0.276 0,0.151 -0.135,0.387 -0.3,0.524 -0.165,0.137 -0.3,0.418 -0.3,0.624 0,0.207 -0.09,0.376 -0.2,0.376 -0.11,0 -0.2,0.135 -0.2,0.3 0,0.165 -0.088,0.3 -0.196,0.3 -0.108,0 -0.253,0.225 -0.322,0.5 -0.069,0.275 -0.206,0.5 -0.304,0.5 -0.098,0 -0.178,0.135 -0.178,0.3 0,0.165 -0.067,0.301 -0.15,0.301 -0.201,0.002 -0.85,1.158 -0.85,1.515 0,0.156 -0.09,0.284 -0.2,0.284 -0.11,0 -0.2,0.135 -0.2,0.3 0,0.165 -0.076,0.3 -0.17,0.3 -0.093,0 -0.337,0.405 -0.541,0.9 -0.204,0.495 -0.435,0.9 -0.514,0.9 -0.079,0 -0.203,0.27 -0.275,0.6 -0.072,0.33 -0.215,0.6 -0.316,0.6 -0.101,0 -0.184,0.18 -0.184,0.4 0,0.22 -0.083,0.4 -0.184,0.4 -0.101,0 -0.244,0.27 -0.316,0.6 -0.072,0.33 -0.215,0.6 -0.316,0.6 -0.101,0 -0.184,0.128 -0.184,0.283 0,0.156 -0.067,0.314 -0.15,0.35 -0.187,0.084 -1.576,2.89 -1.764,3.567 -0.077,0.275 -0.2,0.545 -0.273,0.6 -0.186,0.139 -0.813,1.513 -0.813,1.78 0,0.121 -0.09,0.22 -0.2,0.22 -0.11,0 -0.2,0.175 -0.2,0.388 0,0.214 -0.08,0.438 -0.177,0.498 -0.098,0.06 -0.237,0.426 -0.309,0.812 -0.073,0.386 -0.197,0.702 -0.276,0.702 -0.202,0 -0.838,1.52 -0.838,2.001 0,0.22 -0.068,0.399 -0.151,0.399 -0.083,0 -0.272,0.292 -0.42,0.65 -0.148,0.357 -0.395,0.934 -0.549,1.28 -0.154,0.347 -0.28,0.819 -0.28,1.05 0,0.231 -0.076,0.42 -0.17,0.42 -0.172,0 -0.83,1.829 -0.83,2.306 0,0.144 -0.067,0.291 -0.15,0.327 -0.193,0.086 -0.852,1.958 -0.851,2.417 0.001,0.192 -0.089,0.35 -0.199,0.35 -0.11,0 -0.2,0.225 -0.2,0.5 0,0.275 -0.082,0.5 -0.181,0.5 -0.1,0 -0.243,0.45 -0.319,1 -0.076,0.55 -0.219,1 -0.319,1 -0.099,0 -0.181,0.225 -0.181,0.5 0,0.275 -0.071,0.5 -0.159,0.5 -0.087,0 -0.333,0.765 -0.547,1.7 -0.214,0.935 -0.457,1.7 -0.541,1.7 -0.084,0 -0.153,0.265 -0.153,0.588 0,0.324 -0.084,0.64 -0.186,0.703 -0.102,0.064 -0.248,0.61 -0.323,1.215 -0.076,0.605 -0.217,1.148 -0.314,1.208 -0.098,0.06 -0.177,0.369 -0.177,0.686 0,0.317 -0.083,0.628 -0.184,0.69 -0.102,0.063 -0.247,0.698 -0.324,1.412 -0.076,0.714 -0.218,1.298 -0.315,1.298 -0.097,0 -0.177,0.315 -0.177,0.7 0,0.385 -0.082,0.7 -0.183,0.7 -0.101,0 -0.246,0.675 -0.323,1.5 -0.078,0.825 -0.22,1.5 -0.317,1.5 -0.098,0 -0.177,0.355 -0.177,0.788 0,0.434 -0.083,0.84 -0.185,0.903 -0.102,0.063 -0.249,0.923 -0.326,1.912 -0.077,0.988 -0.211,1.797 -0.296,1.797 -0.086,0 -0.205,0.473 -0.264,1.05 -0.06,0.578 -0.205,1.635 -0.323,2.35 -0.382,2.31 -0.581,4.074 -0.594,5.25 -0.006,0.633 -0.102,1.15 -0.212,1.15 -0.118,0 -0.2,0.72 -0.2,1.76 0,1.141 -0.088,1.848 -0.25,2.01 -0.195,0.195 -0.25,3.113 -0.25,13.23 0,10.117 0.055,13.035 0.25,13.23 0.162,0.162 0.25,0.869 0.25,2.01 0,1.04 0.082,1.76 0.2,1.76 0.11,0 0.206,0.518 0.212,1.15 0.013,1.176 0.212,2.94 0.594,5.25 0.118,0.715 0.263,1.773 0.323,2.35 0.059,0.578 0.18,1.05 0.268,1.05 0.088,0 0.225,0.811 0.303,1.801 0.079,0.991 0.223,1.851 0.321,1.912 0.099,0.061 0.179,0.465 0.179,0.899 0,0.433 0.082,0.788 0.183,0.788 0.101,0 0.246,0.675 0.323,1.5 0.078,0.825 0.22,1.5 0.317,1.5 0.098,0 0.177,0.315 0.177,0.7 0,0.385 0.08,0.7 0.177,0.7 0.097,0 0.239,0.584 0.315,1.298 0.077,0.714 0.222,1.349 0.324,1.412 0.101,0.062 0.184,0.378 0.184,0.702 0,0.323 0.078,0.588 0.174,0.588 0.096,0 0.235,0.54 0.31,1.2 0.075,0.66 0.221,1.2 0.326,1.2 0.104,0 0.19,0.315 0.19,0.7 0,0.385 0.09,0.7 0.2,0.7 0.11,0 0.2,0.21 0.2,0.467 0,0.256 0.066,0.533 0.147,0.614 0.082,0.081 0.155,0.253 0.164,0.383 0.054,0.762 0.366,1.936 0.515,1.936 0.096,0 0.174,0.225 0.174,0.5 0,0.275 0.082,0.5 0.181,0.5 0.1,0 0.243,0.45 0.319,1 0.076,0.55 0.219,1 0.319,1 0.099,0 0.181,0.225 0.181,0.5 0,0.275 0.08,0.5 0.177,0.5 0.098,0 0.238,0.405 0.313,0.9 0.074,0.495 0.219,0.9 0.322,0.9 0.104,0 0.188,0.225 0.188,0.5 0,0.275 0.09,0.5 0.2,0.5 0.11,0 0.2,0.125 0.2,0.277 0,0.49 0.655,2.323 0.83,2.323 0.094,0 0.17,0.189 0.17,0.42 0,0.231 0.126,0.703 0.28,1.05 0.154,0.346 0.401,0.922 0.549,1.28 0.148,0.358 0.325,0.65 0.395,0.65 0.069,0 0.184,0.292 0.256,0.648 0.161,0.808 0.571,1.752 0.76,1.752 0.078,0 0.201,0.316 0.274,0.702 0.072,0.386 0.211,0.752 0.309,0.812 0.097,0.06 0.177,0.284 0.177,0.498 0,0.213 0.09,0.388 0.2,0.388 0.11,0 0.2,0.089 0.2,0.199 0,0.341 0.687,1.801 0.847,1.801 0.084,0 0.153,0.089 0.153,0.199 0,0.341 0.687,1.801 0.847,1.801 0.084,0 0.153,0.089 0.153,0.199 0,0.341 0.687,1.801 0.847,1.801 0.084,0 0.153,0.18 0.153,0.4 0,0.22 0.083,0.4 0.184,0.4 0.101,0 0.244,0.27 0.316,0.6 0.072,0.33 0.215,0.6 0.316,0.6 0.101,0 0.184,0.18 0.184,0.4 0,0.22 0.083,0.4 0.184,0.4 0.101,0 0.244,0.27 0.316,0.6 0.072,0.33 0.194,0.6 0.271,0.6 0.077,0 0.317,0.404 0.534,0.898 0.217,0.494 0.462,0.899 0.545,0.9 0.083,0.001 0.15,0.137 0.15,0.302 0,0.165 0.08,0.3 0.178,0.3 0.098,0 0.235,0.225 0.304,0.5 0.069,0.275 0.214,0.5 0.322,0.5 0.108,0 0.196,0.18 0.196,0.4 0,0.22 0.09,0.4 0.2,0.4 0.11,0 0.2,0.135 0.2,0.3 0,0.165 0.09,0.3 0.2,0.3 0.11,0 0.2,0.129 0.2,0.286 0,0.157 0.113,0.408 0.25,0.558 0.325,0.355 0.656,0.89 1.087,1.756 0.191,0.385 0.464,0.819 0.605,0.964 0.142,0.146 0.258,0.331 0.258,0.413 0,0.081 0.158,0.322 0.35,0.535 0.193,0.214 0.528,0.726 0.745,1.138 0.218,0.412 0.455,0.75 0.527,0.75 0.072,0 0.188,0.158 0.258,0.35 0.214,0.591 0.647,1.252 1.094,1.668 0.234,0.219 0.426,0.509 0.426,0.646 0,0.136 0.18,0.377 0.4,0.536 0.22,0.159 0.4,0.389 0.4,0.513 0,0.124 0.226,0.486 0.501,0.806 0.276,0.32 0.552,0.739 0.614,0.931 0.061,0.193 0.196,0.35 0.298,0.35 0.103,0 0.187,0.094 0.187,0.209 0,0.115 0.225,0.451 0.5,0.748 0.275,0.296 0.5,0.62 0.5,0.718 0,0.099 0.225,0.388 0.5,0.643 0.275,0.254 0.5,0.542 0.5,0.638 0,0.096 0.225,0.386 0.5,0.644 0.275,0.258 0.5,0.548 0.5,0.644 0,0.096 0.202,0.391 0.45,0.655 0.692,0.74 0.95,1.072 0.95,1.219 0,0.074 0.315,0.432 0.7,0.795 0.385,0.363 0.7,0.715 0.7,0.782 0,0.156 0.317,0.536 1.25,1.5 0.413,0.425 0.75,0.836 0.75,0.913 0,0.076 0.36,0.499 0.8,0.939 0.44,0.44 0.8,0.873 0.8,0.963 0,0.09 0.18,0.22 0.4,0.29 0.22,0.07 0.4,0.26 0.4,0.422 0,0.386 11.492,11.878 11.878,11.878 0.162,0 0.352,0.18 0.422,0.4 0.07,0.22 0.2,0.4 0.29,0.4 0.09,0 0.523,0.36 0.963,0.8 0.44,0.44 0.863,0.8 0.939,0.8 0.077,0 0.488,0.337 0.913,0.75 0.964,0.933 1.344,1.25 1.5,1.25 0.067,0 0.419,0.315 0.782,0.7 0.363,0.385 0.721,0.7 0.795,0.7 0.147,0 0.479,0.258 1.219,0.95 0.264,0.247 0.559,0.45 0.655,0.45 0.096,0 0.386,0.225 0.644,0.5 0.258,0.275 0.585,0.5 0.725,0.5 0.14,0 0.327,0.113 0.415,0.251 0.088,0.138 0.52,0.517 0.96,0.842 0.44,0.325 0.83,0.662 0.867,0.749 0.036,0.087 0.194,0.158 0.35,0.158 0.156,0 0.283,0.07 0.283,0.155 0,0.085 0.315,0.324 0.7,0.531 0.385,0.207 0.7,0.447 0.7,0.532 0,0.085 0.203,0.219 0.45,0.297 0.247,0.078 0.585,0.296 0.75,0.485 0.165,0.189 0.502,0.407 0.75,0.485 0.247,0.078 0.45,0.226 0.45,0.328 0,0.103 0.094,0.187 0.209,0.187 0.115,0 0.451,0.225 0.748,0.5 0.296,0.275 0.652,0.5 0.791,0.5 0.139,0 0.252,0.09 0.252,0.2 0,0.11 0.135,0.2 0.3,0.2 0.165,0 0.3,0.088 0.3,0.196 0,0.108 0.225,0.253 0.5,0.322 0.275,0.069 0.5,0.186 0.5,0.261 0,0.074 0.293,0.305 0.65,0.513 0.358,0.208 0.695,0.434 0.75,0.503 0.055,0.069 0.415,0.281 0.8,0.471 0.831,0.41 1.462,0.787 1.6,0.957 0.055,0.068 0.303,0.186 0.55,0.264 0.247,0.077 0.45,0.224 0.45,0.326 0,0.103 0.135,0.187 0.3,0.187 0.165,0 0.3,0.09 0.3,0.2 0,0.11 0.18,0.2 0.4,0.2 0.22,0 0.4,0.088 0.4,0.196 0,0.108 0.225,0.253 0.5,0.322 0.275,0.069 0.5,0.206 0.5,0.304 0,0.098 0.128,0.178 0.283,0.178 0.156,0 0.314,0.067 0.35,0.15 0.037,0.083 0.697,0.465 1.467,0.85 0.77,0.385 1.43,0.767 1.467,0.85 0.036,0.082 0.239,0.15 0.45,0.15 0.21,0 0.383,0.083 0.383,0.184 0,0.101 0.27,0.244 0.6,0.316 0.33,0.072 0.6,0.215 0.6,0.316 0,0.101 0.18,0.184 0.4,0.184 0.22,0 0.4,0.069 0.4,0.153 0,0.16 1.46,0.847 1.801,0.847 0.11,0 0.199,0.069 0.199,0.153 0,0.16 1.46,0.847 1.801,0.847 0.11,0 0.199,0.068 0.199,0.151 0,0.083 0.292,0.274 0.65,0.425 0.358,0.15 1.1,0.483 1.65,0.739 0.55,0.257 1.248,0.525 1.55,0.597 0.302,0.072 0.55,0.212 0.55,0.31 0,0.098 0.18,0.178 0.4,0.178 0.22,0 0.4,0.082 0.4,0.182 0,0.101 0.36,0.244 0.8,0.318 0.44,0.074 0.8,0.195 0.8,0.269 0,0.073 0.292,0.254 0.65,0.402 0.357,0.148 0.934,0.395 1.28,0.549 0.347,0.154 0.819,0.28 1.05,0.28 0.231,0 0.42,0.09 0.42,0.2 0,0.11 0.225,0.2 0.5,0.2 0.275,0 0.5,0.082 0.5,0.182 0,0.101 0.36,0.244 0.8,0.318 0.44,0.074 0.8,0.217 0.8,0.318 0,0.1 0.17,0.182 0.377,0.182 0.208,0 0.635,0.134 0.95,0.299 0.315,0.164 0.776,0.299 1.023,0.3 0.248,0 0.45,0.091 0.45,0.201 0,0.11 0.225,0.2 0.5,0.2 0.275,0 0.5,0.082 0.5,0.181 0,0.1 0.45,0.243 1,0.319 0.55,0.076 1,0.219 1,0.319 0,0.099 0.22,0.181 0.488,0.181 0.269,0 0.544,0.09 0.612,0.2 0.068,0.11 0.383,0.2 0.7,0.2 0.317,0 0.636,0.096 0.708,0.214 0.073,0.117 0.255,0.166 0.406,0.108 0.15,-0.057 0.326,-0.018 0.391,0.087 0.065,0.105 0.333,0.191 0.595,0.191 0.262,0 0.532,0.09 0.6,0.2 0.068,0.11 0.388,0.2 0.712,0.2 0.323,0 0.588,0.086 0.588,0.19 0,0.105 0.54,0.251 1.2,0.326 0.66,0.075 1.2,0.214 1.2,0.31 0,0.096 0.265,0.174 0.588,0.174 0.324,0 0.64,0.083 0.702,0.184 0.063,0.102 0.698,0.247 1.412,0.324 0.714,0.076 1.298,0.218 1.298,0.315 0,0.097 0.31,0.177 0.688,0.177 0.379,0 0.739,0.082 0.802,0.183 0.062,0.101 0.787,0.246 1.611,0.324 0.825,0.077 1.499,0.219 1.499,0.316 0,0.098 0.405,0.177 0.9,0.177 0.495,0 0.9,0.083 0.9,0.185 0,0.102 0.81,0.248 1.8,0.326 0.99,0.077 1.8,0.219 1.8,0.315 0,0.096 0.495,0.174 1.1,0.174 0.605,0 1.1,0.09 1.1,0.2 0,0.11 0.477,0.2 1.06,0.2 0.583,0 1.146,0.085 1.25,0.188 0.105,0.104 1.34,0.252 2.746,0.33 1.407,0.078 2.604,0.218 2.662,0.312 0.058,0.093 0.892,0.17 1.854,0.17 1.132,0 1.836,0.088 1.998,0.25 0.195,0.195 3.033,0.25 12.83,0.25 9.797,0 12.635,-0.055 12.83,-0.25 0.162,-0.162 0.866,-0.25 1.998,-0.25 0.962,0 1.797,-0.078 1.856,-0.174 0.059,-0.096 1.279,-0.239 2.712,-0.318 1.432,-0.079 2.604,-0.226 2.604,-0.326 0,-0.1 0.54,-0.182 1.2,-0.182 0.667,0 1.2,-0.089 1.2,-0.2 0,-0.11 0.495,-0.2 1.1,-0.2 0.605,0 1.1,-0.078 1.1,-0.174 0,-0.096 0.81,-0.238 1.8,-0.315 0.99,-0.078 1.8,-0.224 1.8,-0.326 0,-0.102 0.405,-0.185 0.9,-0.185 0.495,0 0.9,-0.079 0.9,-0.177 0,-0.097 0.674,-0.239 1.499,-0.316 0.824,-0.078 1.549,-0.223 1.611,-0.324 0.063,-0.101 0.423,-0.183 0.802,-0.183 0.378,0 0.688,-0.08 0.688,-0.177 0,-0.097 0.584,-0.239 1.298,-0.315 0.714,-0.077 1.349,-0.222 1.412,-0.324 0.062,-0.101 0.378,-0.184 0.702,-0.184 0.323,0 0.588,-0.077 0.588,-0.172 0,-0.095 0.466,-0.227 1.035,-0.295 0.569,-0.067 1.127,-0.215 1.24,-0.328 0.113,-0.113 0.452,-0.205 0.753,-0.205 0.302,0 0.598,-0.08 0.658,-0.177 0.06,-0.097 0.513,-0.237 1.007,-0.311 0.494,-0.075 0.95,-0.22 1.014,-0.324 0.064,-0.103 0.376,-0.188 0.693,-0.188 0.317,0 0.632,-0.09 0.7,-0.2 0.068,-0.11 0.343,-0.2 0.612,-0.2 0.268,0 0.488,-0.08 0.488,-0.177 0,-0.098 0.403,-0.238 0.895,-0.312 0.493,-0.074 0.948,-0.219 1.012,-0.323 0.064,-0.103 0.336,-0.188 0.605,-0.188 0.268,0 0.488,-0.082 0.488,-0.182 0,-0.101 0.36,-0.244 0.799,-0.318 0.439,-0.074 0.85,-0.217 0.912,-0.317 0.062,-0.101 0.332,-0.183 0.601,-0.183 0.268,0 0.488,-0.078 0.488,-0.174 0,-0.096 0.36,-0.232 0.8,-0.303 0.44,-0.07 0.8,-0.217 0.8,-0.325 0,-0.109 0.225,-0.198 0.5,-0.198 0.275,0 0.501,-0.067 0.502,-0.15 10e-4,-0.082 0.541,-0.318 1.2,-0.524 0.659,-0.205 1.198,-0.453 1.198,-0.55 0,-0.097 0.225,-0.176 0.5,-0.176 0.275,0 0.5,-0.082 0.5,-0.182 0,-0.101 0.36,-0.244 0.8,-0.318 0.44,-0.074 0.8,-0.217 0.8,-0.318 0,-0.1 0.18,-0.182 0.4,-0.182 0.22,0 0.4,-0.086 0.4,-0.191 0,-0.105 0.315,-0.25 0.7,-0.322 0.385,-0.072 0.7,-0.212 0.7,-0.309 0,-0.098 0.175,-0.178 0.388,-0.178 0.214,0 0.44,-0.083 0.502,-0.185 0.063,-0.101 0.384,-0.243 0.712,-0.316 0.329,-0.072 0.598,-0.214 0.598,-0.315 0,-0.101 0.18,-0.184 0.4,-0.184 0.22,0 0.4,-0.09 0.4,-0.2 0,-0.11 0.089,-0.2 0.199,-0.2 0.341,0 1.801,-0.687 1.801,-0.847 0,-0.084 0.089,-0.153 0.199,-0.153 0.341,0 1.801,-0.687 1.801,-0.847 0,-0.084 0.18,-0.153 0.4,-0.153 0.22,0 0.4,-0.083 0.4,-0.184 0,-0.101 0.27,-0.244 0.6,-0.316 0.33,-0.072 0.6,-0.215 0.6,-0.316 0,-0.101 0.18,-0.184 0.4,-0.184 0.22,0 0.4,-0.08 0.4,-0.178 0,-0.098 0.204,-0.23 0.454,-0.293 0.25,-0.062 0.64,-0.287 0.867,-0.498 0.227,-0.212 0.697,-0.447 1.046,-0.524 0.348,-0.076 0.633,-0.222 0.633,-0.323 0,-0.101 0.135,-0.184 0.3,-0.184 0.165,0 0.3,-0.08 0.3,-0.178 0,-0.098 0.225,-0.235 0.5,-0.304 0.275,-0.069 0.5,-0.214 0.5,-0.322 0,-0.108 0.18,-0.196 0.4,-0.196 0.22,0 0.4,-0.09 0.4,-0.2 0,-0.11 0.135,-0.2 0.3,-0.2 0.165,0 0.3,-0.088 0.3,-0.196 0,-0.108 0.225,-0.253 0.5,-0.322 0.275,-0.069 0.5,-0.206 0.5,-0.304 0,-0.098 0.135,-0.178 0.3,-0.178 0.165,0 0.3,-0.076 0.3,-0.17 0,-0.093 0.405,-0.337 0.9,-0.541 0.495,-0.204 0.9,-0.422 0.9,-0.485 0,-0.062 0.315,-0.283 0.7,-0.49 0.385,-0.207 0.7,-0.443 0.7,-0.524 0,-0.081 0.225,-0.203 0.5,-0.272 0.275,-0.069 0.5,-0.214 0.5,-0.322 0,-0.108 0.135,-0.196 0.3,-0.196 0.165,0 0.3,-0.07 0.3,-0.155 0,-0.085 0.315,-0.324 0.7,-0.531 0.385,-0.207 0.7,-0.453 0.7,-0.545 0,-0.093 0.135,-0.169 0.3,-0.169 0.165,0 0.3,-0.084 0.3,-0.187 0,-0.102 0.203,-0.25 0.45,-0.328 0.248,-0.078 0.596,-0.309 0.773,-0.514 0.178,-0.204 0.422,-0.371 0.541,-0.371 0.12,0 0.432,-0.214 0.694,-0.476 0.262,-0.262 0.671,-0.538 0.909,-0.614 0.238,-0.075 0.433,-0.221 0.433,-0.323 0,-0.103 0.128,-0.187 0.283,-0.187 0.156,0 0.314,-0.071 0.35,-0.158 0.037,-0.087 0.427,-0.424 0.867,-0.749 0.44,-0.325 0.872,-0.704 0.96,-0.842 0.088,-0.138 0.275,-0.251 0.415,-0.251 0.14,0 0.467,-0.225 0.725,-0.5 0.258,-0.275 0.548,-0.5 0.644,-0.5 0.096,0 0.391,-0.203 0.655,-0.45 0.719,-0.672 1.071,-0.95 1.202,-0.95 0.065,0 0.529,-0.405 1.031,-0.9 0.502,-0.495 0.989,-0.9 1.083,-0.9 0.093,0 0.526,-0.36 0.962,-0.8 0.435,-0.44 0.854,-0.8 0.931,-0.8 0.076,0 0.499,-0.36 0.939,-0.8 0.44,-0.44 0.873,-0.8 0.963,-0.8 0.09,0 0.22,-0.18 0.29,-0.4 0.07,-0.22 0.26,-0.4 0.422,-0.4 0.386,0 11.878,-11.492 11.878,-11.878 0,-0.162 0.18,-0.352 0.4,-0.422 0.22,-0.07 0.4,-0.2 0.4,-0.29 0,-0.09 0.36,-0.523 0.8,-0.963 0.44,-0.44 0.8,-0.863 0.8,-0.939 0,-0.077 0.36,-0.496 0.8,-0.931 0.44,-0.436 0.8,-0.869 0.8,-0.962 0,-0.094 0.405,-0.581 0.9,-1.083 0.495,-0.502 0.9,-0.966 0.9,-1.031 0,-0.131 0.278,-0.483 0.95,-1.202 0.248,-0.264 0.45,-0.559 0.45,-0.655 0,-0.096 0.225,-0.386 0.5,-0.644 0.275,-0.258 0.5,-0.585 0.5,-0.725 0,-0.14 0.113,-0.327 0.251,-0.415 0.138,-0.088 0.517,-0.52 0.842,-0.96 0.325,-0.44 0.662,-0.83 0.749,-0.867 0.087,-0.036 0.158,-0.194 0.158,-0.35 0,-0.155 0.084,-0.283 0.187,-0.283 0.102,0 0.248,-0.195 0.323,-0.433 0.076,-0.238 0.352,-0.647 0.614,-0.909 0.262,-0.262 0.476,-0.574 0.476,-0.694 0,-0.119 0.167,-0.363 0.371,-0.541 0.205,-0.177 0.436,-0.525 0.514,-0.773 0.078,-0.248 0.226,-0.45 0.328,-0.45 0.103,0 0.187,-0.135 0.187,-0.3 0,-0.165 0.076,-0.3 0.169,-0.3 0.092,0 0.338,-0.315 0.545,-0.7 0.207,-0.385 0.446,-0.7 0.531,-0.7 0.085,0 0.155,-0.135 0.155,-0.3 0,-0.165 0.088,-0.3 0.196,-0.3 0.108,0 0.253,-0.225 0.322,-0.5 0.069,-0.275 0.186,-0.5 0.261,-0.5 0.074,0 0.305,-0.292 0.513,-0.65 0.208,-0.357 0.434,-0.695 0.503,-0.75 0.069,-0.055 0.281,-0.415 0.471,-0.8 0.41,-0.831 0.787,-1.462 0.957,-1.6 0.068,-0.055 0.186,-0.303 0.264,-0.55 0.077,-0.248 0.224,-0.45 0.326,-0.45 0.103,0 0.187,-0.135 0.187,-0.3 0,-0.165 0.09,-0.3 0.2,-0.3 0.11,0 0.2,-0.18 0.2,-0.4 0,-0.22 0.088,-0.4 0.196,-0.4 0.108,0 0.253,-0.225 0.322,-0.5 0.069,-0.275 0.206,-0.5 0.304,-0.5 0.098,0 0.178,-0.127 0.178,-0.283 0,-0.156 0.068,-0.314 0.15,-0.35 0.083,-0.037 0.465,-0.697 0.85,-1.467 0.385,-0.77 0.768,-1.43 0.85,-1.467 0.083,-0.036 0.15,-0.239 0.15,-0.45 0,-0.211 0.083,-0.383 0.184,-0.383 0.101,0 0.244,-0.27 0.316,-0.6 0.072,-0.33 0.215,-0.6 0.316,-0.6 0.101,0 0.184,-0.18 0.184,-0.4 0,-0.22 0.069,-0.4 0.153,-0.4 0.16,0 0.847,-1.46 0.847,-1.801 0,-0.11 0.069,-0.199 0.153,-0.199 0.16,0 0.847,-1.46 0.847,-1.801 0,-0.11 0.09,-0.199 0.2,-0.199 0.11,0 0.2,-0.09 0.2,-0.201 0,-0.111 0.225,-0.667 0.5,-1.237 0.275,-0.57 0.5,-1.155 0.5,-1.299 0,-0.145 0.08,-0.263 0.178,-0.263 0.097,0 0.237,-0.315 0.309,-0.7 0.072,-0.385 0.217,-0.7 0.322,-0.7 0.105,0 0.191,-0.18 0.191,-0.4 0,-0.22 0.082,-0.4 0.182,-0.4 0.101,0 0.244,-0.36 0.318,-0.8 0.074,-0.44 0.217,-0.8 0.318,-0.8 0.1,0 0.182,-0.225 0.182,-0.5 0,-0.275 0.069,-0.5 0.153,-0.5 0.208,0 0.847,-1.508 0.847,-2.001 0,-0.22 0.09,-0.399 0.2,-0.399 0.11,0 0.2,-0.225 0.2,-0.5 0,-0.275 0.089,-0.5 0.198,-0.5 0.108,0 0.255,-0.36 0.325,-0.8 0.071,-0.44 0.207,-0.8 0.303,-0.8 0.096,0 0.174,-0.17 0.174,-0.377 0,-0.208 0.134,-0.635 0.299,-0.95 0.164,-0.315 0.299,-0.775 0.3,-1.023 0,-0.247 0.091,-0.45 0.201,-0.45 0.11,0 0.2,-0.225 0.2,-0.5 0,-0.275 0.082,-0.5 0.181,-0.5 0.1,0 0.243,-0.45 0.319,-1 0.076,-0.55 0.219,-1 0.319,-1 0.099,0 0.181,-0.22 0.181,-0.488 0,-0.269 0.09,-0.544 0.2,-0.612 0.11,-0.068 0.2,-0.383 0.2,-0.7 0,-0.317 0.096,-0.636 0.214,-0.708 0.117,-0.073 0.166,-0.255 0.108,-0.406 -0.057,-0.15 -0.018,-0.326 0.087,-0.391 0.105,-0.065 0.191,-0.333 0.191,-0.595 0,-0.262 0.09,-0.532 0.2,-0.6 0.11,-0.068 0.2,-0.37 0.2,-0.672 0,-0.301 0.092,-0.64 0.205,-0.753 0.113,-0.113 0.261,-0.671 0.328,-1.24 0.068,-0.569 0.2,-1.035 0.295,-1.035 0.095,0 0.172,-0.265 0.172,-0.588 0,-0.324 0.083,-0.64 0.184,-0.702 0.102,-0.063 0.247,-0.698 0.324,-1.412 0.076,-0.714 0.218,-1.298 0.315,-1.298 0.097,0 0.177,-0.31 0.177,-0.688 0,-0.379 0.082,-0.739 0.183,-0.802 0.101,-0.062 0.246,-0.787 0.324,-1.611 0.077,-0.825 0.219,-1.499 0.316,-1.499 0.098,0 0.177,-0.405 0.177,-0.9 0,-0.495 0.083,-0.9 0.185,-0.9 0.102,0 0.248,-0.81 0.326,-1.8 0.077,-0.99 0.219,-1.8 0.315,-1.8 0.096,0 0.174,-0.495 0.174,-1.1 0,-0.605 0.09,-1.1 0.2,-1.1 0.111,0 0.2,-0.528 0.2,-1.183 0,-0.651 0.085,-1.214 0.189,-1.25 0.103,-0.037 0.252,-1.217 0.329,-2.623 0.078,-1.407 0.218,-2.604 0.312,-2.662 0.093,-0.058 0.17,-0.892 0.17,-1.854 0,-1.132 0.088,-1.836 0.25,-1.998 0.365,-0.365 0.365,-25.658 0,-25.78 -0.175,-0.058 -0.25,-0.615 -0.25,-1.855 0,-0.974 -0.077,-1.819 -0.17,-1.877 -0.094,-0.058 -0.234,-1.249 -0.312,-2.646 -0.078,-1.398 -0.226,-2.7 -0.33,-2.894 -0.103,-0.193 -0.188,-0.763 -0.188,-1.265 0,-0.502 -0.09,-0.913 -0.2,-0.913 -0.111,0 -0.2,-0.533 -0.2,-1.2 0,-0.66 -0.08,-1.2 -0.179,-1.2 -0.098,0 -0.243,-0.811 -0.321,-1.801 -0.079,-0.991 -0.223,-1.851 -0.321,-1.912 -0.099,-0.061 -0.179,-0.465 -0.179,-0.899 0,-0.433 -0.082,-0.788 -0.183,-0.788 -0.101,0 -0.246,-0.675 -0.323,-1.5 -0.078,-0.825 -0.22,-1.5 -0.317,-1.5 -0.098,0 -0.177,-0.315 -0.177,-0.7 0,-0.385 -0.08,-0.7 -0.177,-0.7 -0.097,0 -0.239,-0.584 -0.315,-1.298 -0.077,-0.714 -0.222,-1.349 -0.324,-1.412 -0.101,-0.062 -0.184,-0.378 -0.184,-0.702 0,-0.323 -0.078,-0.588 -0.174,-0.588 -0.096,0 -0.235,-0.54 -0.31,-1.2 -0.075,-0.66 -0.221,-1.2 -0.326,-1.2 -0.104,0 -0.19,-0.315 -0.19,-0.7 0,-0.385 -0.09,-0.7 -0.2,-0.7 -0.11,0 -0.2,-0.22 -0.2,-0.488 0,-0.269 -0.086,-0.542 -0.191,-0.607 -0.105,-0.065 -0.144,-0.241 -0.087,-0.391 0.058,-0.151 0.009,-0.333 -0.108,-0.406 -0.118,-0.072 -0.214,-0.391 -0.214,-0.708 0,-0.317 -0.09,-0.632 -0.2,-0.7 -0.11,-0.068 -0.2,-0.343 -0.2,-0.612 0,-0.268 -0.082,-0.488 -0.181,-0.488 -0.1,0 -0.243,-0.45 -0.319,-1 -0.076,-0.55 -0.219,-1 -0.319,-1 -0.099,0 -0.181,-0.225 -0.181,-0.5 0,-0.275 -0.09,-0.5 -0.2,-0.5 -0.11,0 -0.201,-0.202 -0.201,-0.45 -10e-4,-0.247 -0.136,-0.708 -0.3,-1.023 -0.165,-0.315 -0.299,-0.742 -0.299,-0.95 0,-0.207 -0.082,-0.377 -0.182,-0.377 -0.101,0 -0.244,-0.36 -0.318,-0.8 -0.074,-0.44 -0.217,-0.8 -0.318,-0.8 -0.1,0 -0.182,-0.225 -0.182,-0.5 0,-0.275 -0.09,-0.5 -0.2,-0.5 -0.11,0 -0.2,-0.189 -0.2,-0.42 0,-0.231 -0.126,-0.703 -0.28,-1.05 -0.154,-0.346 -0.401,-0.923 -0.549,-1.28 -0.148,-0.358 -0.329,-0.65 -0.402,-0.65 -0.074,0 -0.195,-0.36 -0.269,-0.8 -0.074,-0.44 -0.217,-0.8 -0.318,-0.8 -0.1,0 -0.182,-0.18 -0.182,-0.4 0,-0.22 -0.086,-0.4 -0.191,-0.4 -0.105,0 -0.25,-0.316 -0.323,-0.702 -0.072,-0.386 -0.211,-0.752 -0.309,-0.812 -0.097,-0.06 -0.177,-0.284 -0.177,-0.498 0,-0.213 -0.09,-0.388 -0.2,-0.388 -0.11,0 -0.2,-0.089 -0.2,-0.199 0,-0.341 -0.687,-1.801 -0.847,-1.801 -0.084,0 -0.153,-0.089 -0.153,-0.199 0,-0.341 -0.687,-1.801 -0.847,-1.801 -0.084,0 -0.153,-0.089 -0.153,-0.199 0,-0.341 -0.687,-1.801 -0.847,-1.801 -0.084,0 -0.153,-0.18 -0.153,-0.4 0,-0.22 -0.083,-0.4 -0.184,-0.4 -0.101,0 -0.244,-0.27 -0.316,-0.6 -0.072,-0.33 -0.215,-0.6 -0.316,-0.6 -0.101,0 -0.184,-0.18 -0.184,-0.4 0,-0.22 -0.083,-0.4 -0.184,-0.4 -0.101,0 -0.244,-0.27 -0.316,-0.6 -0.072,-0.33 -0.194,-0.6 -0.271,-0.6 -0.077,0 -0.317,-0.404 -0.534,-0.898 -0.217,-0.494 -0.462,-0.899 -0.545,-0.9 -0.082,-0.001 -0.15,-0.137 -0.15,-0.302 0,-0.165 -0.08,-0.3 -0.178,-0.3 -0.098,0 -0.235,-0.225 -0.304,-0.5 -0.069,-0.275 -0.214,-0.5 -0.322,-0.5 -0.108,0 -0.196,-0.18 -0.196,-0.4 0,-0.22 -0.09,-0.4 -0.2,-0.4 -0.11,0 -0.2,-0.135 -0.2,-0.3 0,-0.165 -0.09,-0.3 -0.2,-0.3 -0.11,0 -0.2,-0.129 -0.2,-0.286 0,-0.157 -0.112,-0.408 -0.25,-0.558 -0.328,-0.358 -0.66,-0.896 -1.084,-1.756 -0.19,-0.385 -0.402,-0.745 -0.471,-0.8 -0.069,-0.055 -0.295,-0.392 -0.503,-0.75 -0.208,-0.357 -0.439,-0.65 -0.513,-0.65 -0.075,0 -0.187,-0.204 -0.25,-0.454 -0.062,-0.25 -0.279,-0.632 -0.481,-0.85 -0.203,-0.218 -0.435,-0.531 -0.516,-0.696 -0.369,-0.75 -0.712,-1.252 -1.106,-1.618 -0.234,-0.219 -0.426,-0.509 -0.426,-0.646 0,-0.136 -0.18,-0.377 -0.4,-0.536 -0.22,-0.159 -0.4,-0.389 -0.4,-0.513 0,-0.124 -0.226,-0.486 -0.501,-0.806 -0.276,-0.32 -0.552,-0.739 -0.614,-0.931 -0.061,-0.192 -0.196,-0.35 -0.298,-0.35 -0.103,0 -0.187,-0.094 -0.187,-0.209 0,-0.115 -0.225,-0.451 -0.5,-0.748 -0.275,-0.296 -0.5,-0.62 -0.5,-0.718 0,-0.099 -0.225,-0.388 -0.5,-0.643 -0.275,-0.254 -0.5,-0.542 -0.5,-0.638 0,-0.096 -0.225,-0.386 -0.5,-0.644 -0.275,-0.258 -0.5,-0.548 -0.5,-0.644 0,-0.096 -0.202,-0.391 -0.45,-0.655 -0.692,-0.74 -0.95,-1.072 -0.95,-1.219 0,-0.074 -0.315,-0.432 -0.7,-0.795 -0.385,-0.363 -0.7,-0.742 -0.7,-0.841 0,-0.099 -0.45,-0.643 -1,-1.207 -0.55,-0.565 -1,-1.085 -1,-1.157 0,-0.071 -0.36,-0.489 -0.8,-0.929 -0.44,-0.44 -0.8,-0.873 -0.8,-0.963 0,-0.09 -0.18,-0.22 -0.4,-0.29 C 317.18,95.23 317,95.04 317,94.878 317,94.492 305.508,83 305.122,83 c -0.162,0 -0.352,-0.18 -0.422,-0.4 -0.07,-0.22 -0.199,-0.4 -0.286,-0.4 -0.088,0 -0.617,-0.45 -1.176,-1 -0.558,-0.55 -1.073,-1 -1.142,-1 -0.07,0 -0.495,-0.36 -0.944,-0.8 -0.448,-0.44 -0.897,-0.8 -0.997,-0.8 -0.1,0 -0.479,-0.315 -0.842,-0.7 -0.363,-0.385 -0.721,-0.7 -0.795,-0.7 -0.147,0 -0.479,-0.258 -1.219,-0.95 -0.264,-0.248 -0.559,-0.45 -0.655,-0.45 -0.096,0 -0.386,-0.225 -0.644,-0.5 -0.258,-0.275 -0.548,-0.5 -0.644,-0.5 -0.096,0 -0.384,-0.225 -0.638,-0.5 -0.255,-0.275 -0.544,-0.5 -0.643,-0.5 -0.098,0 -0.422,-0.225 -0.718,-0.5 -0.297,-0.275 -0.633,-0.5 -0.748,-0.5 -0.115,0 -0.209,-0.084 -0.209,-0.187 0,-0.102 -0.157,-0.237 -0.35,-0.298 -0.192,-0.062 -0.611,-0.338 -0.931,-0.614 -0.32,-0.275 -0.682,-0.501 -0.806,-0.501 -0.124,0 -0.354,-0.18 -0.513,-0.4 -0.159,-0.22 -0.4,-0.4 -0.536,-0.4 -0.137,0 -0.427,-0.192 -0.646,-0.426 -0.416,-0.447 -1.077,-0.88 -1.668,-1.094 -0.193,-0.07 -0.35,-0.186 -0.35,-0.258 0,-0.072 -0.338,-0.308 -0.75,-0.524 -0.412,-0.216 -0.896,-0.551 -1.073,-0.745 C 284.599,67.159 284.358,67 284.241,67 c -0.117,0 -0.335,-0.112 -0.485,-0.25 -0.355,-0.325 -0.89,-0.656 -1.756,-1.087 -0.385,-0.191 -0.819,-0.464 -0.964,-0.605 -0.146,-0.142 -0.393,-0.258 -0.55,-0.258 -0.157,0 -0.286,-0.09 -0.286,-0.2 0,-0.11 -0.135,-0.2 -0.3,-0.2 -0.165,0 -0.3,-0.09 -0.3,-0.2 0,-0.11 -0.18,-0.2 -0.4,-0.2 -0.22,0 -0.4,-0.088 -0.4,-0.196 0,-0.108 -0.225,-0.253 -0.5,-0.322 -0.275,-0.069 -0.5,-0.206 -0.5,-0.304 0,-0.098 -0.135,-0.178 -0.3,-0.178 -0.165,0 -0.301,-0.067 -0.302,-0.15 -10e-4,-0.083 -0.406,-0.328 -0.9,-0.545 -0.494,-0.217 -0.898,-0.457 -0.898,-0.534 0,-0.077 -0.27,-0.199 -0.6,-0.271 -0.33,-0.072 -0.6,-0.215 -0.6,-0.316 0,-0.101 -0.18,-0.184 -0.4,-0.184 -0.22,0 -0.4,-0.083 -0.4,-0.184 0,-0.101 -0.27,-0.244 -0.6,-0.316 -0.33,-0.072 -0.6,-0.215 -0.6,-0.316 0,-0.101 -0.18,-0.184 -0.4,-0.184 -0.22,0 -0.4,-0.09 -0.4,-0.2 0,-0.11 -0.124,-0.2 -0.276,-0.2 -0.151,0 -0.387,-0.135 -0.524,-0.3 -0.137,-0.165 -0.463,-0.3 -0.724,-0.3 -0.262,0 -0.476,-0.069 -0.476,-0.153 0,-0.16 -1.46,-0.847 -1.801,-0.847 -0.11,0 -0.199,-0.069 -0.199,-0.153 0,-0.16 -1.46,-0.847 -1.801,-0.847 -0.11,0 -0.199,-0.09 -0.199,-0.2 0,-0.11 -0.175,-0.2 -0.388,-0.2 -0.214,0 -0.438,-0.08 -0.498,-0.177 -0.06,-0.098 -0.426,-0.237 -0.812,-0.309 C 263.316,56.041 263,55.918 263,55.84 c 0,-0.189 -0.944,-0.599 -1.752,-0.76 -0.356,-0.072 -0.648,-0.187 -0.648,-0.256 0,-0.07 -0.292,-0.247 -0.65,-0.395 -0.357,-0.148 -0.934,-0.395 -1.28,-0.549 -0.347,-0.154 -0.819,-0.28 -1.05,-0.28 -0.231,0 -0.42,-0.076 -0.42,-0.17 0,-0.175 -1.833,-0.83 -2.323,-0.83 -0.152,0 -0.277,-0.09 -0.277,-0.2 0,-0.11 -0.225,-0.2 -0.5,-0.2 -0.275,0 -0.5,-0.084 -0.5,-0.188 0,-0.103 -0.405,-0.248 -0.9,-0.322 -0.495,-0.075 -0.9,-0.215 -0.9,-0.313 0,-0.097 -0.225,-0.177 -0.5,-0.177 -0.275,0 -0.5,-0.082 -0.5,-0.181 0,-0.1 -0.45,-0.243 -1,-0.319 -0.55,-0.076 -1,-0.219 -1,-0.319 0,-0.099 -0.225,-0.181 -0.5,-0.181 -0.275,0 -0.5,-0.078 -0.5,-0.174 0,-0.149 -1.174,-0.461 -1.936,-0.515 -0.13,-0.009 -0.302,-0.082 -0.383,-0.164 -0.081,-0.081 -0.358,-0.147 -0.614,-0.147 -0.257,0 -0.467,-0.09 -0.467,-0.2 0,-0.11 -0.315,-0.2 -0.7,-0.2 -0.385,0 -0.7,-0.086 -0.7,-0.19 0,-0.105 -0.54,-0.251 -1.2,-0.326 -0.66,-0.075 -1.2,-0.214 -1.2,-0.31 0,-0.096 -0.265,-0.174 -0.588,-0.174 -0.324,0 -0.64,-0.083 -0.702,-0.184 -0.063,-0.102 -0.698,-0.247 -1.412,-0.324 -0.714,-0.076 -1.298,-0.218 -1.298,-0.315 0,-0.097 -0.315,-0.177 -0.7,-0.177 -0.385,0 -0.7,-0.079 -0.7,-0.177 0,-0.097 -0.675,-0.239 -1.5,-0.317 -0.825,-0.077 -1.5,-0.222 -1.5,-0.323 0,-0.101 -0.355,-0.183 -0.788,-0.183 -0.434,0 -0.838,-0.08 -0.899,-0.179 -0.061,-0.098 -0.921,-0.242 -1.912,-0.321 -0.99,-0.078 -1.801,-0.215 -1.801,-0.303 0,-0.088 -0.472,-0.209 -1.05,-0.268 -0.577,-0.06 -1.635,-0.205 -2.35,-0.323 -2.31,-0.382 -4.074,-0.581 -5.25,-0.594 C 217.518,43.806 217,43.71 217,43.6 c 0,-0.118 -0.72,-0.2 -1.76,-0.2 -1.035,0 -1.853,-0.093 -1.985,-0.225 -0.227,-0.227 -18.387,-0.41 -23.852,-0.24 m 14.261,10.815 c 0.048,0.083 0.15,0.839 0.227,1.68 l 0.139,1.53 -3.011,0.146 c -3.61,0.174 -3.386,-0.051 -3.193,3.194 0.22,3.711 0.626,15.114 0.542,15.199 -0.039,0.039 -0.922,0.1 -1.961,0.136 l -1.889,0.065 -0.135,-0.8 c -0.075,-0.44 -0.24,-4.13 -0.367,-8.2 -0.126,-4.07 -0.285,-7.84 -0.353,-8.378 l -0.122,-0.979 -2.964,0.138 -2.964,0.138 -0.118,-0.468 c -0.065,-0.257 -0.09,-1.004 -0.056,-1.659 l 0.061,-1.192 2.543,-0.15 c 1.399,-0.082 4.774,-0.226 7.5,-0.319 2.727,-0.093 5.199,-0.183 5.495,-0.2 0.296,-0.017 0.578,0.036 0.626,0.119 M 219,54.69 c 10.397,3.005 8.931,20.418 -1.846,21.925 -7.703,1.078 -12.949,-4.975 -11.439,-13.199 1.234,-6.726 7.032,-10.534 13.285,-8.726 m -37.534,3.362 c 0.751,1.456 2.541,4.943 3.978,7.748 1.437,2.805 3.146,6.124 3.798,7.376 1.357,2.607 1.366,2.567 -0.665,2.868 -2.562,0.381 -2.241,0.587 -3.799,-2.435 -1.544,-2.994 -1.573,-3.028 -2.453,-2.804 -0.344,0.087 -1.705,0.316 -3.025,0.509 -2.845,0.417 -2.69,0.314 -2.903,1.912 -0.094,0.701 -0.272,2.039 -0.396,2.974 -0.272,2.06 -0.112,1.901 -2.288,2.273 -2.047,0.35 -2.2,0.308 -2.027,-0.547 0.07,-0.344 0.212,-1.211 0.315,-1.926 0.104,-0.715 0.326,-2.2 0.495,-3.3 0.593,-3.874 1.336,-8.813 1.506,-10 1.045,-7.316 0.691,-6.506 3.018,-6.913 3.276,-0.573 2.877,-0.776 4.446,2.265 m 53.512,-0.265 c 0.814,0.222 1.513,0.437 1.555,0.479 0.077,0.077 -0.238,1.463 -0.827,3.634 -0.179,0.66 -0.598,2.235 -0.931,3.5 -0.333,1.265 -0.772,2.93 -0.975,3.7 -0.203,0.77 -0.651,2.48 -0.995,3.8 -0.344,1.32 -0.669,2.549 -0.723,2.732 -0.124,0.421 -0.35,0.348 7.007,2.258 1.662,0.431 1.63,0.299 0.771,3.14 l -0.16,0.53 -2.6,-0.662 c -1.43,-0.364 -3.275,-0.843 -4.1,-1.063 -0.825,-0.221 -2.398,-0.637 -3.496,-0.925 -1.098,-0.287 -2.056,-0.587 -2.129,-0.666 -0.13,-0.14 0.224,-1.676 1.322,-5.744 0.297,-1.1 0.748,-2.81 1.003,-3.8 0.255,-0.99 0.703,-2.7 0.996,-3.8 0.294,-1.1 0.847,-3.209 1.23,-4.687 0.794,-3.066 0.793,-3.064 1.241,-2.93 0.183,0.055 0.998,0.282 1.811,0.504 m -20.243,-0.093 c -7.013,1.98 -6.482,15.706 0.608,15.706 7.008,0 8.987,-13.753 2.246,-15.6 -1.311,-0.359 -1.883,-0.38 -2.854,-0.106 m -50.668,1.256 c 0.049,0.083 0.122,0.825 0.161,1.65 l 0.072,1.5 -1.4,0.152 c -6.511,0.706 -9.544,5.148 -7.412,10.853 2.003,5.361 6.805,6.615 12.372,3.232 0.528,-0.321 0.985,-0.551 1.016,-0.51 0.835,1.09 1.479,2.75 1.169,3.013 -1.089,0.925 -3.33,1.958 -6.024,2.776 -11.455,3.48 -18.683,-14.074 -8.421,-20.451 2.508,-1.558 7.998,-2.995 8.467,-2.215 m 13.727,1.506 c -0.006,0.779 -0.202,2.368 -0.792,6.414 -0.126,0.863 -0.199,1.6 -0.162,1.637 0.065,0.065 5.008,-0.709 5.114,-0.801 0.029,-0.026 -0.758,-1.702 -1.749,-3.726 -0.991,-2.024 -1.803,-3.783 -1.804,-3.909 0,-0.125 -0.136,-0.28 -0.301,-0.343 -0.237,-0.091 -0.301,0.062 -0.306,0.728 m 73.14,2.165 c 0.971,0.341 1.797,0.65 1.836,0.687 0.038,0.036 -0.296,1.129 -0.742,2.429 -0.839,2.438 -1.087,3.145 -2.827,8.063 -1.623,4.586 -2.823,8.037 -3.078,8.846 -0.385,1.222 -0.488,1.248 -2.347,0.588 -1.961,-0.696 -1.997,-0.799 -1.112,-3.173 0.278,-0.749 0.835,-2.306 1.236,-3.461 0.401,-1.155 0.941,-2.685 1.2,-3.4 0.259,-0.715 0.798,-2.245 1.197,-3.4 2.171,-6.275 2.72,-7.8 2.804,-7.8 0.037,0 0.862,0.279 1.833,0.621 m 14.937,6.291 c 1.842,0.467 4.678,1.935 5.982,3.097 l 1.152,1.027 -0.601,0.732 c -0.33,0.403 -0.823,1 -1.096,1.327 l -0.495,0.596 -0.657,-0.607 c -5.524,-5.11 -12.289,-3.128 -13.959,4.09 -0.968,4.184 3.042,9 7.513,9.024 0.795,0.004 0.879,0.348 0.458,1.87 -0.493,1.778 -0.253,1.658 -2.309,1.156 -8.271,-2.021 -12.055,-8.439 -9.083,-15.404 2.38,-5.578 7.561,-8.312 13.095,-6.908 m -128.792,4.044 c 4.256,2.007 7.275,8.168 6.224,12.7 -0.918,3.957 -3.47,6.576 -9.413,9.661 -2.787,1.447 -2.689,1.444 -3.442,0.083 -0.337,-0.609 -4.909,-8.577 -8.623,-15.028 -1.501,-2.606 -1.53,-2.287 0.325,-3.597 6.335,-4.478 11.002,-5.672 14.929,-3.819 m -6.179,2.872 c -1.555,0.29 -5.3,2.233 -5.3,2.75 0,0.101 1.005,1.924 2.233,4.052 1.228,2.129 2.466,4.279 2.75,4.78 2.883,5.075 2.455,4.736 4.482,3.552 4.252,-2.483 5.437,-6.028 3.429,-10.262 -1.757,-3.707 -4.48,-5.454 -7.594,-4.872 m 153.924,4.295 c 1.032,0.728 1.91,1.354 1.951,1.392 0.085,0.078 -0.484,2.167 -1.277,4.685 -0.294,0.935 -0.608,1.97 -0.698,2.3 -0.09,0.33 -0.404,1.365 -0.7,2.3 -0.295,0.935 -0.583,1.88 -0.639,2.1 -0.056,0.22 -0.461,1.57 -0.898,3 -0.437,1.43 -0.877,2.87 -0.978,3.2 -0.1,0.33 -0.305,1.005 -0.455,1.5 -0.151,0.495 -0.396,1.328 -0.545,1.85 -0.34,1.186 -0.287,1.192 -2.284,-0.25 l -1.662,-1.199 0.296,-0.951 c 1.087,-3.494 1.46,-4.787 1.458,-5.05 -0.002,-0.319 -4.981,-3.8 -5.436,-3.8 -0.148,0 -1.294,0.81 -2.546,1.8 -1.252,0.99 -2.38,1.8 -2.505,1.8 -0.243,0 -3.021,-1.901 -3.199,-2.189 -0.058,-0.093 0.938,-0.966 2.212,-1.94 1.274,-0.974 3.321,-2.539 4.549,-3.478 1.228,-0.939 3.582,-2.734 5.232,-3.991 1.65,-1.256 3.623,-2.76 4.385,-3.343 1.71,-1.308 1.488,-1.324 3.739,0.264 m -3.352,3.778 c -0.425,0.385 -1.953,1.622 -3.396,2.75 -2.776,2.167 -2.831,2.254 -1.82,2.848 0.354,0.208 1.252,0.811 1.995,1.34 0.743,0.528 1.39,0.961 1.439,0.961 0.048,0 0.46,-1.192 0.915,-2.65 0.455,-1.458 1.085,-3.392 1.402,-4.3 0.642,-1.843 0.577,-1.958 -0.535,-0.949 m -168.826,3.011 c 2.663,1.72 10.493,6.769 13.996,9.023 1.508,0.971 2.723,1.822 2.7,1.892 -0.084,0.257 -3.05,2.573 -3.294,2.573 -0.139,0 -1.342,-0.72 -2.673,-1.6 -2.934,-1.94 -2.45,-1.953 -4.977,0.126 -1.154,0.949 -2.256,1.825 -2.448,1.948 -0.499,0.317 -0.47,0.454 0.75,3.544 0.605,1.532 1.1,2.816 1.1,2.855 0,0.238 -3.072,2.534 -3.206,2.396 -0.09,-0.093 -0.444,-0.889 -0.785,-1.769 -0.342,-0.88 -0.699,-1.78 -0.795,-2 -0.095,-0.22 -0.286,-0.715 -0.424,-1.1 -0.137,-0.385 -0.365,-0.97 -0.505,-1.3 -0.266,-0.626 -1.271,-3.186 -3.178,-8.1 -0.62,-1.595 -1.201,-3.08 -1.292,-3.3 -0.375,-0.908 -0.677,-1.651 -1.03,-2.544 l -0.374,-0.944 1.944,-1.595 c 1.07,-0.878 2.056,-1.559 2.191,-1.514 0.136,0.045 1.171,0.679 2.3,1.409 m 95.788,-0.709 c 17.083,1.128 37.413,7.221 49.466,14.825 0.44,0.278 1.385,0.85 2.1,1.271 20.299,11.967 38.005,32.552 46.791,54.401 0.966,2.402 1.132,2.826 1.913,4.9 0.418,1.108 1.327,3.889 1.798,5.5 0.193,0.66 0.463,1.56 0.602,2 0.288,0.918 1.43,5.51 1.68,6.761 0.093,0.461 0.31,1.514 0.482,2.339 0.294,1.407 0.632,3.419 1.123,6.7 1.222,8.156 1.227,23.033 0.01,30.8 -0.934,5.963 -1.682,9.853 -2.405,12.5 -2.212,8.105 -3.307,11.324 -5.986,17.6 -1.23,2.88 -4.906,10.214 -5.63,11.231 -0.208,0.292 -0.378,0.588 -0.378,0.658 0,0.209 -3.984,6.476 -5.284,8.311 -17.747,25.061 -42.972,41.12 -73.816,46.992 -11.678,2.224 -28.538,2.226 -39.6,0.006 -0.55,-0.11 -1.945,-0.375 -3.1,-0.588 -16.189,-2.986 -36.362,-12.392 -48.442,-22.585 -0.252,-0.213 -1.341,-1.124 -2.42,-2.025 -7.984,-6.666 -14.311,-13.713 -21.371,-23.8 -1.954,-2.792 -5.472,-8.875 -7.403,-12.8 C 97.355,248.744 96,245.827 96,245.683 c 0,-0.048 -0.177,-0.469 -0.393,-0.935 -1.992,-4.294 -4.957,-13.558 -6.225,-19.448 -1.174,-5.454 -1.607,-8.335 -2.407,-16 -0.328,-3.142 -0.33,-14.856 -0.003,-17.9 0.861,-8.003 0.855,-7.961 1.731,-12.6 2.159,-11.428 6.498,-23.659 11.638,-32.8 0.217,-0.385 0.69,-1.233 1.052,-1.885 4.049,-7.291 10.23,-15.727 15.807,-21.574 0.935,-0.98 1.727,-1.855 1.761,-1.944 0.059,-0.157 5.047,-4.873 6.45,-6.098 5.792,-5.059 13.025,-10.231 18.851,-13.481 0.419,-0.233 1.409,-0.791 2.2,-1.24 10.869,-6.162 24.097,-10.493 39.038,-12.781 5.796,-0.888 16.11,-1.245 22.934,-0.794 M 110.6,90.22 c 0,0.113 0.233,0.717 0.517,1.343 0.285,0.625 0.64,1.407 0.79,1.737 0.15,0.33 0.645,1.545 1.098,2.7 0.454,1.155 0.89,2.167 0.969,2.249 0.079,0.082 1.024,-0.583 2.1,-1.478 1.597,-1.329 1.907,-1.673 1.691,-1.877 -0.632,-0.598 -7.165,-4.859 -7.165,-4.674 m 194.22,6.53 c 7.345,7.03 8.38,12.953 3.142,17.976 -6.509,6.242 -12.985,4.864 -20.419,-4.347 -1.064,-1.318 -1.004,-1.417 3.147,-5.079 0.125,-0.11 0.854,-0.785 1.62,-1.5 7.597,-7.093 9.912,-9.2 10.104,-9.2 0.088,0 1.171,0.967 2.406,2.15 m -202.954,3.481 c 2.783,0.916 5.942,3.784 7.116,6.459 0.855,1.95 0.918,2.241 0.914,4.21 -0.007,3.763 -1.361,6.347 -5.793,11.058 -2.083,2.214 -2.026,2.193 -3.237,1.181 C 97.981,120.728 86,109.917 86,109.724 c 0,-0.753 4.977,-6.486 6.781,-7.81 2.915,-2.14 5.973,-2.706 9.085,-1.683 M 301,101.333 c -5.606,5.113 -9.2,8.558 -9.2,8.819 0,0.543 2.841,3.15 4.1,3.762 2.602,1.264 5.262,0.836 7.859,-1.264 4.548,-3.678 4.733,-7.522 0.569,-11.8 -1.478,-1.519 -1.069,-1.578 -3.328,0.483 m -204.129,2.473 c -1.808,0.362 -3.653,1.689 -5.273,3.792 l -0.845,1.098 0.895,0.802 c 0.492,0.441 2.36,2.107 4.149,3.702 7.366,6.565 6.447,6.068 7.979,4.312 3.181,-3.647 3.228,-7.351 0.135,-10.67 -2.33,-2.501 -4.672,-3.511 -7.04,-3.036 m 222.87,10.551 c 0.573,0.848 2.092,3.073 3.376,4.943 2.869,4.178 2.773,3.816 1.285,4.866 -1.53,1.079 -1.197,1.3 -3.808,-2.528 -1.224,-1.795 -2.343,-3.308 -2.487,-3.363 -0.299,-0.115 -4.432,2.667 -4.359,2.935 0.026,0.097 1.002,1.578 2.168,3.291 1.167,1.712 2.075,3.235 2.018,3.383 -0.104,0.27 -2.508,1.822 -2.615,1.688 -0.031,-0.04 -0.939,-1.377 -2.017,-2.972 -2.605,-3.853 -2.422,-3.66 -3.074,-3.242 -1.516,0.971 -4.428,3.091 -4.428,3.224 0,0.083 0.374,0.684 0.83,1.335 3.429,4.887 4.13,6.058 3.796,6.343 -0.557,0.476 -2.19,1.54 -2.362,1.539 -0.09,0 -1.109,-1.395 -2.264,-3.101 -1.155,-1.705 -2.788,-4.112 -3.628,-5.349 -0.841,-1.237 -1.495,-2.305 -1.455,-2.373 0.041,-0.069 1.719,-1.247 3.729,-2.618 2.01,-1.371 4.554,-3.107 5.654,-3.858 1.1,-0.751 3.125,-2.13 4.5,-3.064 1.375,-0.934 2.77,-1.908 3.1,-2.165 0.843,-0.655 0.88,-0.635 2.041,1.086 m -234.599,2.749 c 1.517,1.059 5.143,3.591 8.058,5.627 2.915,2.036 5.545,3.847 5.844,4.024 0.809,0.479 0.794,0.631 -0.217,2.184 -1.272,1.956 -0.932,2.037 -5.85,-1.389 -2.409,-1.679 -6.292,-4.382 -8.629,-6.007 -2.336,-1.625 -4.326,-3.069 -4.421,-3.209 -0.219,-0.321 1.864,-3.371 2.215,-3.243 0.132,0.048 1.482,0.954 3,2.013 m -6.998,7.537 c 1.261,1.246 1.263,1.258 0.29,2.153 -2.749,2.526 -3.506,5.412 -1.749,6.665 1.286,0.918 2.666,0.427 5.722,-2.035 2.761,-2.225 5.275,-2.723 7.681,-1.52 4.825,2.412 4.458,9.252 -0.755,14.044 -1.189,1.093 -1.427,1.072 -2.722,-0.239 l -1.075,-1.089 1.497,-1.398 c 3.145,-2.938 3.784,-5.903 1.587,-7.37 -1.288,-0.861 -2.495,-0.474 -5.12,1.639 -3.957,3.186 -6.841,3.475 -9.534,0.956 -2.931,-2.742 -1.975,-8.567 1.979,-12.046 1.12,-0.987 0.936,-1.007 2.199,0.24 m 251.554,5.554 0.903,1.796 -1.051,0.53 c -0.577,0.291 -2.13,1.091 -3.45,1.778 -1.32,0.686 -4.492,2.316 -7.05,3.622 -2.557,1.306 -4.65,2.455 -4.65,2.553 0,0.098 0.855,1.835 1.9,3.86 1.045,2.025 1.9,3.767 1.9,3.871 0,0.476 -2.853,1.648 -3.082,1.265 -0.21,-0.351 -2.505,-4.757 -4.705,-9.032 -0.583,-1.133 -1.021,-2.099 -0.972,-2.147 0.091,-0.092 0.792,-0.454 9.459,-4.89 2.86,-1.464 6.19,-3.182 7.4,-3.819 1.21,-0.636 2.267,-1.163 2.348,-1.17 0.081,-0.008 0.554,0.794 1.05,1.783 M 73.75,141.674 c 1.702,0.863 3.05,2.878 3.05,4.562 0,0.676 0.154,0.695 1.095,0.14 1.077,-0.635 9.55,-0.398 10.235,0.287 0.032,0.033 -0.267,0.896 -0.666,1.919 l -0.724,1.861 -1.22,-0.097 c -0.671,-0.054 -2.3,-0.214 -3.62,-0.355 -3.636,-0.391 -4.431,-0.074 -5.429,2.165 -0.635,1.423 -0.607,1.744 0.179,2.043 0.358,0.136 0.92,0.361 1.25,0.499 0.33,0.138 1.688,0.669 3.017,1.181 3.412,1.312 3.254,1.117 2.467,3.032 -0.871,2.12 -0.72,2.052 -2.725,1.233 -0.968,-0.395 -3.289,-1.315 -5.159,-2.043 -1.87,-0.728 -3.58,-1.405 -3.8,-1.504 -0.22,-0.098 -2.155,-0.861 -4.3,-1.694 -5.093,-1.979 -4.844,-1.841 -4.687,-2.591 1.844,-8.833 6.238,-13.069 11.037,-10.638 m -3.885,3.546 c -1.215,0.351 -3.077,3.265 -3.067,4.802 0.002,0.39 5.925,2.749 6.177,2.46 2.706,-3.111 0.485,-8.299 -3.11,-7.262 m 269.635,6.779 c 0.228,0.37 1.092,3.497 1.096,3.969 0.005,0.545 -3.271,4.139 -8.826,9.682 -1.957,1.953 -3.429,3.55 -3.271,3.55 0.157,0 0.762,-0.19 1.344,-0.422 0.891,-0.355 4.869,-1.571 7.857,-2.402 0.44,-0.122 1.025,-0.297 1.3,-0.388 0.275,-0.091 1.216,-0.361 2.09,-0.599 0.875,-0.238 1.695,-0.472 1.822,-0.521 0.246,-0.095 0.443,0.342 0.991,2.198 0.413,1.397 0.474,1.332 -1.903,2.007 -1.045,0.297 -2.395,0.68 -3,0.851 -0.605,0.172 -1.685,0.485 -2.4,0.696 -1.206,0.357 -3.562,1.032 -10.4,2.983 -3.12,0.89 -2.86,0.99 -3.53,-1.357 l -0.521,-1.826 1.376,-1.498 c 3.591,-3.912 6.804,-7.24 9.191,-9.522 1.439,-1.375 2.548,-2.528 2.463,-2.562 -0.084,-0.035 -1.155,0.268 -2.38,0.671 -5.56,1.832 -13.094,3.853 -13.264,3.558 -0.328,-0.568 -0.95,-3.132 -0.794,-3.272 0.087,-0.079 0.834,-0.337 1.659,-0.574 1.419,-0.407 2.678,-0.771 5.2,-1.505 2.353,-0.684 7.53,-2.168 8.1,-2.32 1.108,-0.298 2.79,-0.779 4.1,-1.174 1.573,-0.474 1.547,-0.47 1.7,-0.223 m -154.304,18.42 c -8.193,8.261 -14.925,15.146 -14.961,15.3 -0.054,0.238 1.186,0.281 8.05,0.281 6.361,0 8.114,0.054 8.111,0.25 -0.004,0.241 -0.103,0.93 -0.598,4.15 -0.127,0.825 -0.361,2.4 -0.521,3.5 -0.397,2.741 -0.563,3.851 -1.178,7.9 -0.503,3.312 -0.797,5.266 -1.995,13.3 -0.279,1.87 -0.596,3.985 -0.705,4.7 -0.109,0.715 -0.332,2.2 -0.495,3.3 -0.163,1.1 -0.529,3.53 -0.812,5.4 -0.284,1.87 -0.594,3.94 -0.688,4.6 -0.205,1.431 -0.483,3.284 -0.901,6 -0.483,3.139 -0.925,6.122 -1.045,7.05 l -0.11,0.85 9.226,0 9.226,0 0,5.184 c 0,2.851 0.055,5.326 0.121,5.5 0.106,0.274 0.674,0.316 4.297,0.316 l 4.176,0 0.053,-5.45 0.053,-5.45 8.95,-0.052 c 8.351,-0.049 8.95,-0.075 8.948,-0.4 -0.001,-0.191 -0.136,-1.338 -0.301,-2.548 -0.165,-1.21 -0.393,-2.875 -0.505,-3.7 -0.286,-2.093 -0.782,-5.834 -0.996,-7.5 -0.098,-0.77 -0.321,-2.435 -0.494,-3.7 -0.173,-1.265 -0.399,-2.93 -0.502,-3.7 -0.103,-0.77 -0.329,-2.435 -0.502,-3.7 -0.173,-1.265 -0.4,-2.975 -0.505,-3.8 -0.373,-2.93 -0.59,-4.507 -0.689,-5 -0.056,-0.275 -0.191,-1.265 -0.301,-2.2 -0.111,-0.935 -0.295,-2.375 -0.41,-3.2 -0.115,-0.825 -0.341,-2.49 -0.502,-3.7 -0.16,-1.21 -0.385,-2.875 -0.498,-3.7 -0.278,-2.031 -0.778,-5.791 -0.997,-7.5 -0.098,-0.77 -0.318,-2.429 -0.487,-3.687 -0.17,-1.258 -0.309,-2.406 -0.309,-2.55 0,-0.213 1.579,-0.263 8.3,-0.263 4.565,0 8.3,-0.068 8.3,-0.15 0,-0.232 -30.473,-30.65 -30.705,-30.65 -0.112,0 -6.907,6.759 -15.099,15.019 M 62.403,159.133 c 1.446,0.402 1.428,0.008 0.217,4.767 -1.124,4.415 -1.324,3.909 1.851,4.697 2.274,0.564 2.727,0.536 2.731,-0.171 0.004,-0.593 1.592,-6.7 1.795,-6.903 0.179,-0.179 0.956,-0.06 2.653,0.408 0.49,0.134 0.461,0.366 -0.535,4.285 -1.051,4.134 -1.235,3.745 2.16,4.576 3.129,0.767 2.991,0.816 3.492,-1.228 0.224,-0.915 0.593,-2.429 0.819,-3.364 0.781,-3.227 0.843,-3.4 1.23,-3.4 0.394,0 2.487,0.517 2.749,0.679 0.152,0.093 -2.827,12.449 -3.056,12.679 -0.109,0.108 -20.557,-4.94 -20.921,-5.166 -0.174,-0.107 1.248,-6.249 2.718,-11.742 0.146,-0.543 0.496,-0.562 2.097,-0.117 m -3.849,17.291 c 1.716,0.81 3.27,1.536 5.846,2.73 1.217,0.565 2.406,1.121 6.6,3.091 1.756,0.824 3.411,1.589 5.038,2.328 1.224,0.556 1.188,0.445 0.951,2.945 -0.25,2.644 0.612,2.119 -5.589,3.401 -5.044,1.043 -7.702,1.602 -11.9,2.502 -5.725,1.228 -5.239,1.341 -4.947,-1.153 0.272,-2.327 0.119,-2.165 2.447,-2.582 1.941,-0.348 2.244,-0.404 5.2,-0.976 0.935,-0.18 2.15,-0.41 2.7,-0.509 4.049,-0.733 5.521,-0.987 6.35,-1.098 1.356,-0.182 1.234,-0.294 -1.5,-1.386 -1.347,-0.538 -2.9,-1.185 -3.45,-1.438 -0.55,-0.254 -2.478,-1.1 -4.285,-1.881 -1.807,-0.781 -3.911,-1.705 -4.677,-2.054 l -1.392,-0.633 0.123,-1.729 c 0.197,-2.771 0.076,-2.695 2.485,-1.558 m 281.049,-0.41 c 9.604,2.662 10.288,15.802 0.997,19.152 -3.196,1.153 -7.308,1.202 -9.73,0.116 -0.347,-0.155 -0.689,-0.282 -0.761,-0.282 -0.918,0 -3.432,-2.504 -4.318,-4.3 -4.325,-8.773 3.836,-17.45 13.812,-14.686 m -4.703,3.907 c -9.567,1.371 -9.302,11.779 0.3,11.779 5.332,0 8.863,-2.707 8.554,-6.556 -0.292,-3.633 -4.134,-5.899 -8.854,-5.223 M 76.3,200.7 l 0,2 -10.8,0 -10.8,0 -0.058,-1.784 c -0.032,-0.981 -0.012,-1.905 0.044,-2.052 0.084,-0.22 2.026,-0.258 10.858,-0.216 l 10.756,0.052 0,2 m 255.8,-0.704 c 2.31,0.104 6.315,0.284 8.9,0.398 6.686,0.297 6.349,0.228 6.516,1.346 0.429,2.86 -0.167,8.4 -1.114,10.357 -1.893,3.909 -7.86,4.029 -10.02,0.202 -0.731,-1.296 -0.646,-1.268 -1.37,-0.444 -0.848,0.966 -2.13,1.517 -4.787,2.056 -1.304,0.264 -2.917,0.608 -3.585,0.764 -1.4,0.327 -1.44,0.308 -1.44,-0.679 0,-2.17 0.232,-3.154 0.777,-3.289 1.338,-0.331 3.222,-0.731 4.223,-0.896 2.144,-0.353 3.376,-0.997 3.92,-2.05 0.279,-0.539 0.66,-3.523 0.459,-3.586 -0.044,-0.013 -2.014,-0.126 -4.379,-0.25 l -4.3,-0.225 -0.065,-1 c -0.036,-0.55 -0.006,-1.48 0.067,-2.067 l 0.131,-1.066 0.933,0.12 c 0.514,0.066 2.824,0.205 5.134,0.309 m 5.504,6.354 c 0.007,3.099 0.846,4.36 3.049,4.588 2.178,0.224 3.324,-0.866 3.771,-3.587 0.455,-2.776 0.29,-2.879 -4.674,-2.929 l -2.15,-0.022 0.004,1.95 m -261.435,0.6 c 0.1,0.193 0.246,1.129 0.323,2.081 l 0.141,1.73 -3.467,2.686 c -5.447,4.222 -7.3,5.595 -9.738,7.221 -2.486,1.657 -2.503,1.606 0.372,1.133 1.846,-0.303 3.975,-0.59 6.7,-0.904 1.43,-0.165 3.32,-0.393 4.2,-0.506 3.44,-0.442 3.068,-0.472 3.194,0.258 0.534,3.091 0.474,3.164 -2.894,3.534 -1.155,0.127 -3.203,0.363 -4.55,0.524 -2.715,0.325 -6.597,0.786 -9.35,1.11 -0.99,0.117 -2.34,0.288 -3,0.38 -1.442,0.203 -1.694,-0.001 -1.712,-1.385 -0.006,-0.502 -0.091,-1.362 -0.187,-1.912 -0.211,-1.2 -0.501,-0.889 4.292,-4.6 1.847,-1.43 3.459,-2.694 3.583,-2.809 0.446,-0.416 4.251,-3.046 5.368,-3.71 1.244,-0.74 1.471,-1.086 0.606,-0.922 -2.891,0.547 -13.279,1.941 -14.469,1.941 -0.585,0 -0.62,-0.096 -0.891,-2.43 l -0.131,-1.129 0.601,-0.132 c 0.33,-0.073 1.307,-0.211 2.17,-0.307 0.864,-0.097 2.785,-0.322 4.27,-0.5 1.485,-0.178 3.375,-0.403 4.2,-0.5 0.825,-0.096 2.31,-0.278 3.3,-0.404 2.4,-0.306 6.116,-0.746 6.543,-0.775 0.189,-0.012 0.425,0.134 0.526,0.327 m 268.803,12.165 c 1.676,0.223 1.649,-0.009 0.622,5.285 -0.096,0.495 -0.318,1.665 -0.494,2.6 -0.176,0.935 -0.396,2.105 -0.49,2.6 -0.094,0.495 -0.369,1.98 -0.611,3.3 -0.533,2.905 -0.377,2.728 -2.17,2.45 -1.819,-0.281 -1.783,-0.176 -1.15,-3.399 0.287,-1.458 0.521,-2.751 0.521,-2.874 0,-0.23 -0.472,-0.342 -5,-1.179 -1.485,-0.275 -3.15,-0.588 -3.7,-0.696 -0.55,-0.108 -1.72,-0.335 -2.6,-0.503 -0.88,-0.168 -2.005,-0.389 -2.5,-0.491 -0.495,-0.102 -1.554,-0.296 -2.352,-0.429 -1.835,-0.308 -1.858,-0.343 -1.523,-2.27 0.413,-2.376 -0.773,-2.352 10.275,-0.209 1.485,0.287 3.15,0.605 3.7,0.706 0.55,0.101 1.72,0.315 2.6,0.477 2.004,0.368 1.923,0.455 2.497,-2.683 0.471,-2.572 0.673,-3.093 1.133,-2.916 0.146,0.056 0.705,0.16 1.242,0.231 M 202.16,220.84 c 0.172,0.172 0.24,1.475 0.24,4.596 l 0,4.356 4.35,0.054 4.35,0.054 0.057,2.15 0.057,2.15 -4.091,0 c -2.25,0 -4.233,0.055 -4.407,0.121 -0.283,0.109 -0.316,1.256 -0.316,10.9 l 0,10.779 -2.2,0 -2.2,0 0,-10.693 c 0,-10.367 -0.012,-10.699 -0.387,-10.9 -0.231,-0.124 -2.08,-0.207 -4.607,-0.207 l -4.22,0 0.057,-2.15 0.057,-2.15 4.5,-0.1 4.5,-0.1 0.054,-4.55 0.054,-4.55 1.956,0 c 1.255,0 2.042,0.086 2.196,0.24 m -125.074,8.923 c 4.793,1.636 6.806,9.843 3.288,13.408 -1.782,1.805 -2.86,2.268 -10.626,4.557 -7.658,2.257 -6.773,2.249 -7.427,0.069 -0.563,-1.877 -0.552,-2.197 0.081,-2.197 0.209,0 0.586,-0.084 0.839,-0.186 0.252,-0.103 0.999,-0.341 1.659,-0.528 3.479,-0.99 6.54,-1.897 8.812,-2.613 4.079,-1.284 5.764,-3.396 4.86,-6.093 -0.763,-2.281 -2.805,-3.309 -5.572,-2.808 -1.095,0.198 -1.507,0.304 -3.6,0.928 -0.605,0.18 -1.37,0.405 -1.7,0.5 -0.33,0.095 -1.095,0.32 -1.7,0.5 -0.605,0.18 -1.37,0.405 -1.7,0.5 -0.33,0.095 -1.095,0.32 -1.7,0.5 -1.488,0.443 -2.415,0.707 -2.932,0.834 -0.45,0.11 -1.653,-2.962 -1.409,-3.598 0.079,-0.206 6.357,-2.173 11.741,-3.68 2.52,-0.705 5.19,-0.74 7.086,-0.093 m 245.355,3.824 c 0.381,0.155 10.705,3.537 17.659,5.784 2.233,0.722 2.195,0.323 0.518,5.45 -0.77,2.353 -1.599,4.895 -1.843,5.649 -0.531,1.636 -0.584,1.664 -2.205,1.168 -1.631,-0.501 -1.625,-0.348 -0.176,-4.769 0.804,-2.45 1.156,-3.799 1.027,-3.928 -0.206,-0.206 -4.831,-1.804 -4.92,-1.7 -0.027,0.032 -0.432,1.229 -0.899,2.659 -1.366,4.188 -1.642,4.9 -1.897,4.9 -0.338,0 -2.564,-0.778 -2.733,-0.955 -0.076,-0.08 0.348,-1.622 0.942,-3.427 1.544,-4.688 1.711,-4.143 -1.614,-5.253 -1.54,-0.514 -2.858,-0.874 -2.928,-0.8 -0.071,0.074 -0.736,2.003 -1.479,4.285 -0.742,2.283 -1.45,4.146 -1.572,4.142 -0.99,-0.037 -2.817,-0.971 -2.766,-1.415 0.041,-0.357 3.143,-10.079 3.742,-11.727 0.108,-0.297 0.513,-0.32 1.144,-0.063 m -76.852,86.424 c 0.569,1.801 0.571,1.797 -1.415,2.421 -0.921,0.289 -2.731,0.857 -4.024,1.261 -2.664,0.834 -2.624,0.779 -1.97,2.694 0.209,0.612 0.539,1.638 0.733,2.28 0.402,1.331 0.17,1.296 2.887,0.441 4.568,-1.437 5.41,-1.654 5.554,-1.432 0.289,0.444 0.991,2.827 0.87,2.953 -0.068,0.071 -1.339,0.508 -2.824,0.97 -5.776,1.799 -5.229,1.106 -3.983,5.051 0.856,2.71 0.94,2.809 2.024,2.36 0.252,-0.105 1.674,-0.563 3.159,-1.018 1.485,-0.456 3.089,-0.956 3.565,-1.113 1.1,-0.362 1.119,-0.346 1.634,1.318 0.537,1.733 0.611,1.637 -1.849,2.395 -1.127,0.347 -2.275,0.71 -2.55,0.807 -0.275,0.097 -1.715,0.55 -3.2,1.007 -1.485,0.456 -3.086,0.957 -3.557,1.112 -1.489,0.49 -1.233,0.85 -2.646,-3.718 -0.46,-1.485 -1.135,-3.645 -1.5,-4.8 -1.917,-6.06 -3.537,-11.244 -3.789,-12.131 -0.13,-0.455 -0.029,-0.493 7.292,-2.78 0.825,-0.258 2.175,-0.691 3,-0.963 2.151,-0.708 2.079,-0.733 2.589,0.885 m -80.489,0.676 c 2.204,0.81 4.172,1.901 4.486,2.487 0.179,0.333 -1.146,2.626 -1.615,2.797 -0.107,0.038 -0.662,-0.234 -1.233,-0.606 -5.673,-3.697 -11.427,-1.475 -12.936,4.995 -1.232,5.284 2.602,9.612 8.536,9.637 1.054,0.004 1.07,0.034 0.923,1.786 -0.152,1.807 -0.273,1.87 -2.861,1.487 -8.607,-1.273 -12.857,-6.998 -10.775,-14.513 1.93,-6.965 8.772,-10.532 15.475,-8.07 m 14.923,4.072 c 0.116,0.131 0.023,1.018 -0.635,6.041 -0.136,1.045 -0.257,2.076 -0.268,2.29 -0.023,0.454 0.159,0.496 4.38,1.017 1.54,0.189 3.176,0.41 3.635,0.49 1.309,0.228 1.209,0.543 2.072,-6.565 0.278,-2.296 0.171,-2.179 1.827,-2.002 2.657,0.284 2.635,0.272 2.498,1.341 -0.065,0.511 -0.347,2.639 -0.626,4.729 -0.28,2.09 -0.688,5.24 -0.907,7 -0.219,1.76 -0.484,3.74 -0.589,4.4 -0.105,0.66 -0.296,2.078 -0.426,3.15 -0.27,2.239 -0.081,2.116 -2.68,1.74 -1.941,-0.28 -1.835,0.471 -0.916,-6.484 0.486,-3.683 0.483,-3.706 -0.548,-3.706 -0.425,0 -1.261,-0.085 -1.857,-0.19 -5.659,-0.991 -6.574,-0.945 -6.58,0.33 -0.002,0.352 -0.085,1.072 -0.185,1.6 -0.1,0.528 -0.342,2.265 -0.536,3.86 -0.341,2.786 -0.486,3.254 -0.964,3.087 -0.12,-0.042 -0.923,-0.161 -1.784,-0.264 -0.861,-0.104 -1.612,-0.235 -1.669,-0.291 -0.102,-0.102 0.173,-2.706 0.53,-5.032 0.101,-0.66 0.326,-2.37 0.5,-3.8 0.173,-1.43 0.402,-3.23 0.508,-4 0.106,-0.77 0.333,-2.525 0.504,-3.9 0.314,-2.517 0.67,-4.918 0.788,-5.313 0.069,-0.23 3.692,0.206 3.928,0.472 m 37.557,0.891 c 0.094,0.248 0.316,1.485 0.495,2.75 0.178,1.265 0.55,3.83 0.827,5.7 0.507,3.422 0.69,4.693 1.151,8 0.24,1.727 0.271,1.799 0.749,1.779 0.498,-0.02 1.616,-0.176 6.059,-0.841 2.71,-0.406 2.644,-0.435 2.836,1.262 0.075,0.66 0.175,1.345 0.224,1.522 0.092,0.335 0.146,0.321 -3.021,0.781 -0.66,0.095 -3.045,0.448 -5.3,0.784 -5.322,0.792 -4.924,0.819 -5.064,-0.337 -0.063,-0.522 -0.203,-1.535 -0.31,-2.25 -0.107,-0.715 -0.476,-3.235 -0.821,-5.6 -0.344,-2.365 -0.805,-5.47 -1.024,-6.9 -1.069,-6.977 -1.144,-6.503 1.079,-6.82 0.902,-0.129 1.71,-0.244 1.795,-0.257 0.085,-0.013 0.232,0.18 0.325,0.427 m -12.252,0.703 c 0.362,0.234 0.789,22.05 0.436,22.274 -0.145,0.092 -1.087,0.168 -2.092,0.17 l -1.829,0.003 -0.116,-3.65 c -0.294,-9.227 -0.333,-18.714 -0.079,-18.817 0.397,-0.16 3.427,-0.143 3.68,0.02"
       inkscape:connector-curvature="0"
       style="fill:#7d9bc0;fill-rule:evenodd;stroke:none" />
  </g>
</svg>
