<?xml version="1.0" encoding="UTF-8" standalone="no"?>
<svg
   xmlns:dc="http://purl.org/dc/elements/1.1/"
   xmlns:cc="http://creativecommons.org/ns#"
   xmlns:rdf="http://www.w3.org/1999/02/22-rdf-syntax-ns#"
   xmlns:svg="http://www.w3.org/2000/svg"
   xmlns="http://www.w3.org/2000/svg"
   xmlns:sodipodi="http://sodipodi.sourceforge.net/DTD/sodipodi-0.dtd"
   xmlns:inkscape="http://www.inkscape.org/namespaces/inkscape"
   id="svg"
   version="1.1"
   width="399.29501"
   height="401.04901"
   style="display:block"
   sodipodi:docname="uct-mono.svg"
   inkscape:version="0.92.1 r15371">
  <metadata
     id="metadata9">
    <rdf:RDF>
      <cc:Work
         rdf:about="">
        <dc:format>image/svg+xml</dc:format>
        <dc:type
           rdf:resource="http://purl.org/dc/dcmitype/StillImage" />
        <dc:title></dc:title>
      </cc:Work>
    </rdf:RDF>
  </metadata>
  <defs
     id="defs7" />
  <sodipodi:namedview
     pagecolor="#ffffff"
     bordercolor="#666666"
     borderopacity="1"
     objecttolerance="10"
     gridtolerance="10"
     guidetolerance="10"
     inkscape:pageopacity="0"
     inkscape:pageshadow="2"
     inkscape:window-width="742"
     inkscape:window-height="480"
     id="namedview5"
     showgrid="false"
     fit-margin-top="0"
     fit-margin-left="0"
     fit-margin-right="0"
     fit-margin-bottom="0"
     inkscape:zoom="0.47105788"
     inkscape:cx="249.695"
     inkscape:cy="150.549"
     inkscape:window-x="0"
     inkscape:window-y="0"
     inkscape:window-maximized="0"
     inkscape:current-layer="svg" />
  <g
     id="svgg"
     transform="translate(-0.305)">
    <path
       id="path0"
       d="m 171,0.593 -5.4,0.28 v 3.564 c 0,1.959 0.36,3.563 0.8,3.563 0.44,0 0.8,1.08 0.8,2.4 0,1.32 0.36,2.4 0.8,2.4 0.44,0 0.8,0.821 0.8,1.823 0,1.003 0.72,2.343 1.6,2.977 0.88,0.634 1.6,1.662 1.6,2.284 0,1.426 7.542,8.916 8.978,8.916 0.588,0 1.588,0.72 2.222,1.6 0.634,0.88 1.974,1.6 2.977,1.6 1.002,0 1.823,0.36 1.823,0.8 0,0.44 1.08,0.8 2.4,0.8 1.32,0 2.4,0.379 2.4,0.842 0,0.513 1.641,0.747 4.2,0.6 L 201.2,34.8 201.416,17.4 201.631,0 189.016,0.157 C 182.077,0.243 173.97,0.439 171,0.593 m 66.286,3.072 c -0.635,1.654 -0.635,98.216 0,99.87 0.435,1.135 5.587,1.265 50,1.265 H 336.8 v 17.594 17.594 l -49.8,0.206 -49.8,0.206 -0.219,127.2 c -0.12,69.96 -0.024,128.01 0.215,129 0.441,1.827 4.404,2.727 4.404,1 0,-0.44 1.395,-0.8 3.099,-0.8 1.705,0 4.63,-0.54 6.501,-1.2 1.871,-0.66 4.436,-1.2 5.701,-1.2 1.264,0 2.299,-0.36 2.299,-0.8 0,-0.44 1.08,-0.8 2.4,-0.8 1.32,0 2.4,-0.36 2.4,-0.8 0,-0.44 0.9,-0.8 2,-0.8 1.1,0 2,-0.36 2,-0.8 0,-0.44 1.08,-0.8 2.4,-0.8 1.32,0 2.4,-0.36 2.4,-0.8 0,-0.44 0.72,-0.8 1.6,-0.8 0.88,0 1.6,-0.331 1.6,-0.736 0,-0.405 1.17,-0.99 2.6,-1.3 3.118,-0.675 9.692,-3.631 10.067,-4.526 0.146,-0.351 0.956,-0.638 1.8,-0.638 0.843,0 1.533,-0.36 1.533,-0.8 0,-0.44 0.72,-0.8 1.6,-0.8 0.88,0 1.6,-0.36 1.6,-0.8 0,-0.44 0.72,-0.8 1.6,-0.8 0.88,0 1.602,-0.27 1.605,-0.6 0.006,-0.751 4.59,-3.4 5.883,-3.4 0.527,0 1.478,-0.72 2.112,-1.6 0.634,-0.88 1.611,-1.6 2.17,-1.6 0.559,0 1.466,-0.72 2.016,-1.6 0.549,-0.88 1.632,-1.6 2.406,-1.6 0.775,0 1.408,-0.316 1.408,-0.703 0,-0.387 1.092,-1.155 2.427,-1.708 1.335,-0.553 3.097,-1.857 3.915,-2.897 0.819,-1.041 1.88,-1.892 2.359,-1.892 0.479,0 2.562,-1.62 4.628,-3.6 2.067,-1.98 4.061,-3.6 4.432,-3.6 0.881,0 18.239,-17.358 18.239,-18.239 0,-0.371 1.62,-2.365 3.6,-4.432 1.98,-2.066 3.6,-4.134 3.6,-4.595 0,-0.46 1.08,-1.746 2.4,-2.857 1.32,-1.11 2.4,-2.511 2.4,-3.112 0,-0.601 0.9,-1.992 2,-3.092 1.1,-1.1 2,-2.212 2,-2.47 0,-0.258 0.72,-1.243 1.6,-2.187 0.88,-0.945 1.6,-2.19 1.6,-2.767 0,-0.577 0.36,-1.049 0.8,-1.049 0.44,0 0.8,-0.72 0.8,-1.6 0,-0.88 0.353,-1.6 0.785,-1.6 0.431,0 1.01,-0.9 1.286,-2 0.277,-1.1 0.823,-2 1.216,-2 0.392,0 0.713,-0.72 0.713,-1.6 0,-0.88 0.36,-1.6 0.8,-1.6 0.44,0 0.8,-0.72 0.8,-1.6 0,-0.88 0.36,-1.6 0.8,-1.6 0.44,0 0.8,-0.54 0.8,-1.2 0,-0.66 0.36,-1.2 0.8,-1.2 0.44,0 0.8,-0.72 0.8,-1.6 0,-0.88 0.36,-1.6 0.8,-1.6 0.44,0 0.8,-0.72 0.8,-1.6 0,-0.88 0.32,-1.6 0.711,-1.6 0.391,0 0.947,-1.26 1.236,-2.8 0.289,-1.54 0.869,-2.8 1.289,-2.8 0.42,0 0.764,-1.08 0.764,-2.4 0,-1.32 0.36,-2.4 0.8,-2.4 0.44,0 0.8,-0.72 0.8,-1.6 0,-0.88 0.36,-1.6 0.8,-1.6 0.44,0 0.8,-0.9 0.8,-2 0,-1.1 0.36,-2 0.8,-2 0.44,0 0.8,-1.08 0.8,-2.4 0,-1.32 0.36,-2.4 0.8,-2.4 0.44,0 0.8,-1.26 0.8,-2.8 0,-1.54 0.331,-2.8 0.736,-2.8 0.405,0 0.987,-2.34 1.294,-5.2 0.306,-2.86 0.874,-5.2 1.263,-5.2 0.389,0 0.707,-1.62 0.707,-3.6 0,-1.98 0.36,-3.6 0.8,-3.6 0.44,0 0.8,-1.908 0.8,-4.24 0,-2.332 0.45,-4.69 1,-5.24 0.763,-0.763 1,-7.891 1,-30.12 0,-22.229 -0.237,-29.357 -1,-30.12 -0.55,-0.55 -1,-2.908 -1,-5.24 0,-2.332 -0.36,-4.24 -0.8,-4.24 -0.44,0 -0.8,-1.62 -0.8,-3.6 0,-1.98 -0.318,-3.6 -0.707,-3.6 -0.389,0 -0.957,-2.34 -1.263,-5.2 -0.307,-2.86 -0.889,-5.2 -1.294,-5.2 -0.405,0 -0.736,-1.26 -0.736,-2.8 0,-1.54 -0.36,-2.8 -0.8,-2.8 -0.44,0 -0.8,-1.08 -0.8,-2.4 0,-1.32 -0.36,-2.4 -0.8,-2.4 -0.44,0 -0.8,-0.9 -0.8,-2 0,-1.1 -0.36,-2 -0.8,-2 -0.44,0 -0.8,-0.72 -0.8,-1.6 0,-0.88 -0.36,-1.6 -0.8,-1.6 -0.44,0 -0.8,-1.08 -0.8,-2.4 0,-1.32 -0.344,-2.4 -0.764,-2.4 -0.42,0 -1,-1.26 -1.289,-2.8 -0.289,-1.54 -0.845,-2.8 -1.236,-2.8 -0.391,0 -0.711,-0.72 -0.711,-1.6 0,-0.88 -0.36,-1.6 -0.8,-1.6 -0.44,0 -0.8,-0.72 -0.8,-1.6 0,-0.88 -0.36,-1.6 -0.8,-1.6 -0.44,0 -0.8,-0.54 -0.8,-1.2 0,-0.66 -0.36,-1.2 -0.8,-1.2 -0.44,0 -0.8,-0.72 -0.8,-1.6 0,-0.88 -0.36,-1.6 -0.8,-1.6 -0.44,0 -0.8,-0.72 -0.8,-1.6 0,-0.88 -0.321,-1.6 -0.713,-1.6 -0.393,0 -0.939,-0.9 -1.216,-2 -0.276,-1.1 -0.855,-2 -1.286,-2 -0.432,0 -0.785,-0.72 -0.785,-1.6 0,-0.88 -0.36,-1.6 -0.8,-1.6 -0.44,0 -0.8,-0.472 -0.8,-1.049 0,-0.577 -0.72,-1.822 -1.6,-2.767 -0.88,-0.944 -1.6,-1.929 -1.6,-2.187 0,-0.258 -0.9,-1.37 -2,-2.47 -1.1,-1.1 -2,-2.491 -2,-3.092 0,-0.601 -1.08,-2.002 -2.4,-3.112 -1.32,-1.111 -2.4,-2.397 -2.4,-2.857 0,-0.461 -1.62,-2.529 -3.6,-4.595 -1.98,-2.067 -3.6,-4.061 -3.6,-4.432 C 350.4,65.358 333.042,48 332.161,48 c -0.371,0 -2.365,-1.62 -4.432,-3.6 -2.066,-1.98 -4.149,-3.6 -4.628,-3.6 -0.479,0 -1.54,-0.851 -2.359,-1.892 -0.818,-1.04 -2.58,-2.344 -3.915,-2.897 -1.335,-0.553 -2.427,-1.321 -2.427,-1.708 0,-0.387 -0.633,-0.703 -1.408,-0.703 -0.774,0 -1.857,-0.72 -2.406,-1.6 -0.55,-0.88 -1.457,-1.6 -2.016,-1.6 -0.559,0 -1.536,-0.72 -2.17,-1.6 -0.634,-0.88 -1.585,-1.6 -2.112,-1.6 -1.293,0 -5.877,-2.649 -5.883,-3.4 -0.003,-0.33 -0.725,-0.6 -1.605,-0.6 -0.88,0 -1.6,-0.36 -1.6,-0.8 0,-0.44 -0.72,-0.8 -1.6,-0.8 -0.88,0 -1.6,-0.36 -1.6,-0.8 0,-0.44 -0.72,-0.8 -1.6,-0.8 -0.88,0 -1.6,-0.275 -1.6,-0.611 0,-0.721 -4.603,-2.79 -9.4,-4.225 -1.87,-0.56 -3.4,-1.32 -3.4,-1.691 0,-0.37 -0.72,-0.673 -1.6,-0.673 -0.88,0 -1.6,-0.36 -1.6,-0.8 0,-0.44 -1.08,-0.8 -2.4,-0.8 -1.32,0 -2.4,-0.36 -2.4,-0.8 0,-0.44 -0.9,-0.8 -2,-0.8 -1.1,0 -2,-0.36 -2,-0.8 0,-0.44 -1.08,-0.8 -2.4,-0.8 -1.32,0 -2.4,-0.36 -2.4,-0.8 0,-0.44 -1.035,-0.8 -2.299,-0.8 -1.265,0 -3.83,-0.54 -5.701,-1.2 C 249.329,4.54 246.404,4 244.699,4 242.995,4 241.6,3.64 241.6,3.2 c 0,-1.314 -3.789,-0.905 -4.314,0.465 M 127.2,12 c 0,0.44 -1.05,0.8 -2.333,0.8 -1.284,0 -2.454,0.27 -2.6,0.6 -0.366,0.822 -6.048,3.4 -7.494,3.4 -0.645,0 -1.173,0.293 -1.173,0.651 0,0.358 -1.26,1.145 -2.8,1.749 -1.54,0.604 -2.8,1.391 -2.8,1.749 0,0.358 -0.72,0.651 -1.6,0.651 -0.88,0 -1.6,0.36 -1.6,0.8 0,0.44 -0.566,0.8 -1.257,0.8 -2.278,0 -3.746,2.259 -3.265,5.027 1.043,6.013 1.544,7.773 2.213,7.773 0.39,0 0.709,0.72 0.709,1.6 0,0.88 0.36,1.6 0.8,1.6 0.44,0 0.8,1.08 0.8,2.4 0,1.32 0.36,2.4 0.8,2.4 0.44,0 0.8,0.54 0.8,1.2 0,0.66 0.36,1.2 0.8,1.2 0.44,0 0.8,0.72 0.8,1.6 0,0.88 0.36,1.6 0.8,1.6 0.44,0 0.8,0.676 0.8,1.502 0,0.826 0.54,1.95 1.2,2.498 0.66,0.548 1.2,1.412 1.2,1.921 0,0.509 0.72,1.445 1.6,2.079 0.88,0.634 1.6,1.714 1.6,2.4 0,0.686 0.72,1.766 1.6,2.4 0.88,0.634 1.6,1.511 1.6,1.948 0,0.438 0.707,1.528 1.571,2.424 3.416,3.54 10.39,10.477 11.381,11.321 0.576,0.491 1.577,1.661 2.225,2.6 0.647,0.939 1.685,1.707 2.306,1.707 0.621,0 1.712,0.639 2.423,1.421 1.726,1.894 5.382,4.179 6.689,4.179 0.579,0 1.571,0.72 2.205,1.6 0.634,0.88 1.794,1.6 2.577,1.6 0.782,0 1.423,0.36 1.423,0.8 0,0.44 0.54,0.8 1.2,0.8 0.66,0 1.2,0.36 1.2,0.8 0,0.44 0.69,0.8 1.533,0.8 0.844,0 1.654,0.27 1.8,0.6 0.381,0.857 7.926,3.409 10.067,3.404 0.99,-0.002 1.8,0.356 1.8,0.796 0,0.44 1.08,0.8 2.4,0.8 1.32,0 2.4,0.36 2.4,0.8 0,0.44 1.62,0.8 3.6,0.8 1.98,0 3.6,0.36 3.6,0.8 0,0.462 2.533,0.8 6,0.8 3.467,0 6,0.338 6,0.8 0,0.44 1.98,0.8 4.4,0.8 h 4.4 V 87.6 70.4 h -6 c -3.467,0 -6,-0.338 -6,-0.8 0,-0.44 -1.419,-0.8 -3.153,-0.8 -1.734,0 -3.346,-0.313 -3.582,-0.695 -0.236,-0.382 -2.237,-0.934 -4.447,-1.227 -2.21,-0.293 -4.018,-0.881 -4.018,-1.306 0,-0.424 -0.821,-0.772 -1.823,-0.772 -1.003,0 -2.343,-0.72 -2.977,-1.6 -0.634,-0.88 -1.794,-1.6 -2.577,-1.6 -0.782,0 -1.423,-0.36 -1.423,-0.8 0,-0.44 -0.335,-0.8 -0.745,-0.8 -2.761,0 -21.655,-17.106 -21.655,-19.606 0,-0.657 -0.353,-1.194 -0.785,-1.194 -0.431,0 -1.01,-0.9 -1.286,-2 -0.277,-1.1 -0.823,-2 -1.216,-2 -0.392,0 -0.713,-0.72 -0.713,-1.6 0,-0.88 -0.36,-1.6 -0.8,-1.6 -0.44,0 -0.8,-0.72 -0.8,-1.6 0,-0.88 -0.36,-1.6 -0.8,-1.6 -0.44,0 -0.8,-0.54 -0.8,-1.2 0,-0.66 -0.36,-1.2 -0.8,-1.2 -0.44,0 -0.8,-1.08 -0.8,-2.4 0,-1.32 -0.36,-2.4 -0.8,-2.4 -0.44,0 -0.8,-1.08 -0.8,-2.4 0,-1.32 -0.36,-2.4 -0.8,-2.4 -0.44,0 -0.8,-1.26 -0.8,-2.8 0,-2.453 -0.248,-2.8 -2,-2.8 -1.1,0 -2,0.36 -2,0.8 m -71,46.829 C 50.37,64.716 45.6,70.087 45.6,70.766 45.6,71.445 45.24,72 44.8,72 44.36,72 44,73.08 44,74.4 c 0,1.32 0.36,2.4 0.8,2.4 0.44,0 0.8,0.54 0.8,1.2 0,0.66 0.36,1.2 0.8,1.2 0.44,0 0.8,0.576 0.8,1.279 0,1.874 2.494,6.919 4.159,8.415 0.793,0.711 1.441,1.881 1.441,2.6 0,0.718 0.36,1.306 0.8,1.306 0.44,0 0.8,0.641 0.8,1.423 0,0.783 0.72,1.943 1.6,2.577 0.88,0.634 1.6,1.597 1.6,2.14 0,0.543 0.9,1.887 2,2.987 1.1,1.1 2,2.345 2,2.766 0,0.42 1.08,1.674 2.4,2.784 1.32,1.111 2.4,2.4 2.4,2.865 0,0.989 2.777,4.403 5.523,6.788 1.057,0.918 3.084,2.883 4.504,4.366 6.01,6.275 12.991,12.904 13.588,12.904 0.252,0 1.324,0.81 2.383,1.8 3.322,3.106 4.303,3.8 5.376,3.8 0.573,0 1.491,0.72 2.04,1.6 0.55,0.88 1.457,1.6 2.016,1.6 0.559,0 1.536,0.72 2.17,1.6 0.634,0.88 1.794,1.6 2.577,1.6 0.782,0 1.423,0.353 1.423,0.785 0,0.431 0.9,1.01 2,1.286 1.1,0.277 2,0.823 2,1.216 0,0.392 0.641,0.713 1.423,0.713 0.783,0 1.943,0.72 2.577,1.6 0.634,0.88 1.764,1.6 2.51,1.6 0.746,0 1.477,0.283 1.623,0.629 0.441,1.041 9.097,4.971 10.947,4.971 0.946,0 1.72,0.36 1.72,0.8 0,0.44 0.72,0.8 1.6,0.8 0.88,0 1.6,0.36 1.6,0.8 0,0.44 1.08,0.8 2.4,0.8 1.32,0 2.4,0.36 2.4,0.8 0,0.44 0.9,0.8 2,0.8 1.1,0 2,0.36 2,0.8 0,0.44 1.08,0.8 2.4,0.8 1.32,0 2.4,0.36 2.4,0.8 0,0.44 0.879,0.8 1.953,0.8 1.074,0 2.16,0.336 2.414,0.746 0.253,0.411 3.335,0.997 6.847,1.304 3.512,0.306 6.386,0.87 6.386,1.253 0,0.383 1.98,0.697 4.4,0.697 2.42,0 4.4,0.36 4.4,0.8 0,0.487 3.6,0.8 9.2,0.8 5.6,0 9.2,0.313 9.2,0.8 0,0.44 1.62,0.8 3.6,0.8 h 3.6 V 157.2 140 l -5.8,-0.003 c -3.19,-0.002 -9.04,-0.535 -13,-1.186 -3.96,-0.651 -8.37,-1.189 -9.8,-1.197 -1.43,-0.008 -2.6,-0.374 -2.6,-0.814 0,-0.44 -1.44,-0.8 -3.2,-0.8 -1.76,0 -3.2,-0.36 -3.2,-0.8 0,-0.44 -0.9,-0.8 -2,-0.8 -1.1,0 -2,-0.36 -2,-0.8 0,-0.44 -1.08,-0.8 -2.4,-0.8 -1.32,0 -2.4,-0.36 -2.4,-0.8 0,-0.44 -0.879,-0.8 -1.953,-0.8 -1.074,0 -2.149,-0.318 -2.39,-0.708 -0.241,-0.389 -2.062,-0.951 -4.047,-1.249 -1.986,-0.297 -3.61,-0.879 -3.61,-1.292 0,-0.413 -0.54,-0.751 -1.2,-0.751 -0.66,0 -1.2,-0.36 -1.2,-0.8 0,-0.44 -0.72,-0.8 -1.6,-0.8 -0.88,0 -1.6,-0.36 -1.6,-0.8 0,-0.44 -0.72,-0.8 -1.6,-0.8 -0.88,0 -1.6,-0.36 -1.6,-0.8 0,-0.44 -0.633,-0.8 -1.408,-0.8 -0.774,0 -1.837,-0.688 -2.361,-1.528 -0.525,-0.84 -2.13,-1.786 -3.567,-2.102 -1.437,-0.315 -3.578,-1.608 -4.759,-2.872 -1.181,-1.264 -2.379,-2.298 -2.662,-2.298 -0.284,0 -1.453,-0.938 -2.599,-2.083 -1.146,-1.146 -3.11,-2.441 -4.364,-2.879 -1.254,-0.437 -2.28,-1.127 -2.28,-1.534 0,-0.407 -2.07,-2.702 -4.6,-5.1 -2.53,-2.398 -4.96,-4.744 -5.4,-5.213 -0.44,-0.47 -2.69,-2.812 -5,-5.205 -2.31,-2.393 -4.2,-4.565 -4.2,-4.826 0,-0.261 -0.45,-0.976 -1,-1.589 C 88.411,83.176 87.619,82.037 86.465,79.8 85.84,78.59 85.03,77.6 84.665,77.6 84.299,77.6 84,77.139 84,76.577 84,76.014 83.28,75.034 82.4,74.4 81.52,73.766 80.8,72.606 80.8,71.823 80.8,71.041 80.469,70.4 80.064,70.4 79.659,70.4 79.091,69.324 78.802,68.009 78.513,66.694 77.945,65.413 77.538,65.162 77.132,64.911 76.8,64.007 76.8,63.153 76.8,62.299 76.507,61.6 76.149,61.6 75.791,61.6 75.004,60.34 74.4,58.8 73.796,57.26 73.009,56 72.651,56 72.293,56 72,55.28 72,54.4 c 0,-0.88 -0.36,-1.6 -0.8,-1.6 -0.44,0 -0.8,-1.08 -0.8,-2.4 0,-4.701 -2.902,-2.978 -14.2,8.429 M 18.4,112 c 0,0.88 -0.32,1.6 -0.711,1.6 -0.391,0 -0.947,1.26 -1.236,2.8 -0.289,1.54 -0.869,2.8 -1.289,2.8 -0.42,0 -0.764,1.08 -0.764,2.4 0,1.32 -0.36,2.4 -0.8,2.4 -0.44,0 -0.8,0.72 -0.8,1.6 0,0.88 -0.36,1.6 -0.8,1.6 -0.44,0 -0.8,0.9 -0.8,2 0,1.1 -0.36,2 -0.8,2 -0.44,0 -0.8,1.08 -0.8,2.4 0,1.32 -0.36,2.4 -0.8,2.4 -0.44,0 -0.8,0.879 -0.8,1.953 0,1.074 -0.343,2.165 -0.763,2.424 -0.42,0.26 -1.006,2.621 -1.303,5.247 -0.298,2.627 -0.854,4.776 -1.237,4.776 -0.383,0 -0.697,1.8 -0.697,4 0,2.2 -0.36,4 -0.8,4 -0.44,0 -0.8,1.59 -0.8,3.533 0,2.116 -0.401,3.667 -1,3.867 -1.46,0.487 -1.46,68.713 0,69.2 0.599,0.2 1,1.751 1,3.867 0,1.943 0.36,3.533 0.8,3.533 0.44,0 0.8,1.8 0.8,4 0,2.2 0.314,4 0.697,4 0.383,0 0.939,2.149 1.237,4.776 0.297,2.626 0.883,4.987 1.303,5.247 0.42,0.259 0.763,1.35 0.763,2.424 0,1.074 0.36,1.953 0.8,1.953 0.44,0 0.8,1.08 0.8,2.4 0,1.32 0.36,2.4 0.8,2.4 0.44,0 0.8,0.9 0.8,2 0,1.1 0.36,2 0.8,2 0.44,0 0.8,0.72 0.8,1.6 0,0.88 0.36,1.6 0.8,1.6 0.44,0 0.8,1.08 0.8,2.4 0,1.32 0.344,2.4 0.764,2.4 0.42,0 1,1.26 1.289,2.8 0.289,1.54 0.845,2.8 1.236,2.8 0.391,0 0.711,0.72 0.711,1.6 0,0.88 0.36,1.6 0.8,1.6 0.44,0 0.8,0.54 0.8,1.2 0,0.66 0.36,1.2 0.8,1.2 0.44,0 0.8,0.72 0.8,1.6 0,0.88 0.36,1.6 0.8,1.6 0.44,0 0.8,0.72 0.8,1.6 0,0.88 0.36,1.6 0.8,1.6 0.44,0 0.8,0.496 0.8,1.102 0,0.606 0.54,1.55 1.2,2.098 0.66,0.548 1.2,1.672 1.2,2.498 0,0.826 0.36,1.502 0.8,1.502 0.44,0 0.8,0.472 0.8,1.049 0,0.577 0.72,1.822 1.6,2.767 0.88,0.944 1.6,2.013 1.6,2.374 0,0.361 0.72,1.176 1.6,1.81 0.88,0.634 1.6,1.639 1.6,2.234 0,0.594 0.45,1.582 1,2.195 2.177,2.428 3,3.525 3,4 0,0.273 1.44,1.88 3.2,3.571 1.76,1.691 3.2,3.482 3.2,3.98 0,1.152 25.342,26.42 26.497,26.42 0.474,0 1.87,1.08 3.103,2.4 1.233,1.32 2.575,2.4 2.982,2.4 0.406,0 1.585,0.9 2.618,2 1.033,1.1 2.457,2 3.163,2 0.706,0 1.803,0.72 2.437,1.6 0.634,0.88 1.449,1.6 1.81,1.6 0.361,0 1.43,0.72 2.374,1.6 0.945,0.88 2.19,1.6 2.767,1.6 0.577,0 1.049,0.36 1.049,0.8 0,0.44 0.72,0.8 1.6,0.8 0.88,0 1.6,0.353 1.6,0.785 0,0.431 0.9,1.01 2,1.286 1.1,0.277 2,0.823 2,1.216 0,0.392 0.72,0.713 1.6,0.713 0.88,0 1.6,0.36 1.6,0.8 0,0.44 0.72,0.8 1.6,0.8 0.88,0 1.6,0.272 1.6,0.605 0,0.332 1.17,1.113 2.6,1.736 1.43,0.622 2.78,1.34 3,1.595 0.602,0.698 5.702,2.593 8.2,3.046 1.21,0.22 2.2,0.719 2.2,1.109 0,0.39 0.72,0.709 1.6,0.709 0.88,0 1.6,0.36 1.6,0.8 0,0.44 1.08,0.8 2.4,0.8 1.32,0 2.4,0.36 2.4,0.8 0,0.44 0.9,0.8 2,0.8 1.1,0 2,0.36 2,0.8 0,0.44 1.08,0.8 2.4,0.8 1.32,0 2.4,0.296 2.4,0.659 0,0.648 7.118,2.356 13,3.12 1.65,0.214 3,0.711 3,1.105 0,0.394 1.95,0.716 4.333,0.716 2.384,0 4.461,0.382 4.617,0.849 0.182,0.546 6.64,1.02 18.066,1.325 l 17.784,0.475 V 305.724 210.4 h -6.8 c -4,0 -6.8,-0.329 -6.8,-0.8 0,-0.474 -2.918,-0.8 -7.153,-0.8 -3.934,0 -7.375,-0.36 -7.647,-0.8 -0.272,-0.44 -2.453,-0.8 -4.847,-0.8 -2.394,0 -4.353,-0.36 -4.353,-0.8 0,-0.44 -1.62,-0.8 -3.6,-0.8 -1.98,0 -3.6,-0.36 -3.6,-0.8 0,-0.44 -1.239,-0.8 -2.753,-0.8 -1.514,0 -2.975,-0.36 -3.247,-0.8 -0.272,-0.44 -1.712,-0.8 -3.2,-0.8 -1.488,0 -2.906,-0.325 -3.151,-0.721 -0.246,-0.397 -2.607,-0.972 -5.248,-1.279 -2.64,-0.306 -4.801,-0.882 -4.801,-1.279 0,-0.396 -0.72,-0.721 -1.6,-0.721 -0.88,0 -1.6,-0.36 -1.6,-0.8 0,-0.44 -0.9,-0.8 -2,-0.8 -1.1,0 -2,-0.36 -2,-0.8 0,-0.44 -1.05,-0.8 -2.333,-0.8 -1.284,0 -2.454,-0.287 -2.6,-0.638 -0.375,-0.895 -6.949,-3.851 -10.067,-4.526 -1.43,-0.31 -2.6,-0.895 -2.6,-1.3 0,-0.405 -0.72,-0.736 -1.6,-0.736 -0.88,0 -1.6,-0.36 -1.6,-0.8 0,-0.44 -0.588,-0.8 -1.306,-0.8 -0.719,0 -1.889,-0.655 -2.6,-1.456 -0.712,-0.801 -3.544,-2.511 -6.294,-3.799 -2.75,-1.288 -5,-2.613 -5,-2.944 0,-0.33 -0.461,-0.601 -1.023,-0.601 -0.563,0 -1.543,-0.72 -2.177,-1.6 -0.634,-0.88 -1.714,-1.6 -2.4,-1.6 -0.686,0 -1.766,-0.72 -2.4,-1.6 -0.634,-0.88 -1.631,-1.6 -2.215,-1.6 -0.584,0 -1.895,-0.9 -2.915,-2 -1.019,-1.1 -2.298,-2 -2.841,-2 -0.543,0 -1.996,-1.08 -3.229,-2.4 -1.233,-1.32 -2.455,-2.4 -2.715,-2.4 -1.404,0 -30.085,-28.343 -30.085,-29.73 0,-0.485 -1.26,-2.069 -2.8,-3.522 -1.54,-1.452 -2.8,-3.125 -2.8,-3.718 0,-0.592 -0.72,-1.596 -1.6,-2.23 -0.88,-0.634 -1.6,-1.611 -1.6,-2.17 0,-0.559 -0.72,-1.466 -1.6,-2.016 -0.88,-0.549 -1.6,-1.611 -1.6,-2.359 0,-0.748 -0.382,-1.597 -0.849,-1.885 -0.467,-0.289 -1.179,-1.39 -1.581,-2.448 C 23.782,109.721 18.4,109.449 18.4,112"
       inkscape:connector-curvature="0"
       style="fill:#000000;fill-rule:evenodd;stroke:none" />
  </g>
</svg>
