<?xml version="1.0" encoding="UTF-8" standalone="no"?>
<svg
   xmlns:dc="http://purl.org/dc/elements/1.1/"
   xmlns:cc="http://creativecommons.org/ns#"
   xmlns:rdf="http://www.w3.org/1999/02/22-rdf-syntax-ns#"
   xmlns:svg="http://www.w3.org/2000/svg"
   xmlns="http://www.w3.org/2000/svg"
   xmlns:sodipodi="http://sodipodi.sourceforge.net/DTD/sodipodi-0.dtd"
   xmlns:inkscape="http://www.inkscape.org/namespaces/inkscape"
   id="svg"
   version="1.1"
   width="384"
   height="475.34793"
   style="display:block"
   sodipodi:docname="udec-mono.svg"
   inkscape:version="0.92.1 r15371">
  <metadata
     id="metadata9">
    <rdf:RDF>
      <cc:Work
         rdf:about="">
        <dc:format>image/svg+xml</dc:format>
        <dc:type
           rdf:resource="http://purl.org/dc/dcmitype/StillImage" />
        <dc:title></dc:title>
      </cc:Work>
    </rdf:RDF>
  </metadata>
  <defs
     id="defs7" />
  <sodipodi:namedview
     pagecolor="#ffffff"
     bordercolor="#666666"
     borderopacity="1"
     objecttolerance="10"
     gridtolerance="10"
     guidetolerance="10"
     inkscape:pageopacity="0"
     inkscape:pageshadow="2"
     inkscape:window-width="640"
     inkscape:window-height="480"
     id="namedview5"
     showgrid="false"
     fit-margin-top="0"
     fit-margin-left="0"
     fit-margin-right="0"
     fit-margin-bottom="0"
     inkscape:zoom="0.38436482"
     inkscape:cx="242"
     inkscape:cy="176.34793"
     inkscape:window-x="0"
     inkscape:window-y="0"
     inkscape:window-maximized="0"
     inkscape:current-layer="svg" />
  <g
     id="svgg"
     transform="translate(-8,-8)">
    <path
       id="path0"
       d="m 8.013,152.6 c 0.007,85.877 0.327,148.499 0.786,154.2 9.168,113.721 115.011,194.397 227.149,173.141 77.695,-14.727 139.033,-76.709 152.772,-154.373 3.108,-17.57 3.276,-26.488 3.278,-174.168 L 392,8 H 200 8 L 8.013,152.6 M 132.942,49.8 133.794,52 h 9.503 c 11.096,0 11.127,0.038 4.09,4.995 -2.963,2.088 -6.388,4.608 -7.61,5.6 l -2.224,1.805 2.841,8.4 c 3.749,11.085 3.639,11.185 -5.189,4.731 -4.177,-3.054 -8.02,-5.389 -8.54,-5.19 -0.519,0.199 -4.212,2.726 -8.205,5.615 -8.174,5.914 -8.153,5.933 -4.86,-4.225 3.261,-10.062 3.439,-9.492 -4.787,-15.383 C 99.806,51.896 99.775,52 110.702,52 c 10.648,0 9.774,0.658 13.191,-9.918 1.407,-4.355 2.773,-8.266 3.036,-8.69 0.262,-0.425 1.531,2.598 2.819,6.718 1.289,4.119 2.726,8.48 3.194,9.69 m 71.047,-8.028 C 207.475,52.671 206.602,52 217.298,52 c 10.916,0 10.885,-0.106 1.88,6.33 -8.29,5.924 -8.13,5.386 -4.689,15.815 3.119,9.455 3.042,9.505 -5.374,3.486 -3.822,-2.734 -7.349,-5.124 -7.837,-5.312 -0.489,-0.187 -4.306,2.158 -8.483,5.212 -8.828,6.454 -8.938,6.354 -5.189,-4.731 l 2.841,-8.4 -2.224,-1.805 c -1.222,-0.992 -4.647,-3.512 -7.61,-5.6 C 173.577,52.038 173.608,52 184.691,52 h 9.492 l 1.262,-3.4 c 0.694,-1.87 2.093,-6.155 3.108,-9.522 2.247,-7.449 2.181,-7.482 5.436,2.694 m 77.255,9.392 c 0.43,0.43 5.096,0.884 10.369,1.009 l 9.587,0.227 -7.8,5.527 c -8.871,6.285 -8.583,5.464 -5.4,15.4 3.407,10.634 3.41,10.632 -5.191,4.28 -9.103,-6.724 -7.221,-6.718 -16.402,-0.045 -9.173,6.668 -8.801,6.959 -5.259,-4.105 l 2.901,-9.057 -2.225,-1.804 c -1.223,-0.992 -4.638,-3.512 -7.589,-5.6 -6.995,-4.949 -6.963,-4.994 3.565,-5.008 10.817,-0.015 10.325,0.266 12.592,-7.188 1.003,-3.3 2.374,-7.399 3.047,-9.109 l 1.222,-3.109 2.901,8.9 c 1.595,4.895 3.252,9.252 3.682,9.682 M 352.473,45.2 c 1.426,6.581 1.687,6.727 12.535,6.975 L 374.8,52.4 367.027,58 c -8.928,6.432 -8.629,5.46 -5.026,16.351 3.39,10.246 3.796,10.004 -5.473,3.261 -9.249,-6.729 -7.341,-6.725 -16.528,-0.037 -8.958,6.52 -8.78,6.655 -5.207,-3.954 3.544,-10.523 3.975,-9.159 -4.808,-15.221 -9.432,-6.51 -9.498,-6.307 2.15,-6.575 l 9.734,-0.225 3.178,-9.536 3.177,-9.536 1.864,5.136 c 1.026,2.825 2.098,6.216 2.385,7.536 m -295.444,-2 2.784,8.4 9.693,0.225 C 81.02,52.091 80.947,51.93 72.31,58 c -9.094,6.39 -8.682,5.246 -5.463,15.176 3.574,11.026 3.721,10.903 -5.227,4.364 -9.133,-6.675 -7.3,-6.676 -16.348,0.007 -9.059,6.69 -8.896,6.789 -5.56,-3.368 C 43.198,63.565 43.277,63.989 37,59.712 34.03,57.688 30.52,55.138 29.2,54.045 l -2.4,-1.987 9.702,-0.029 c 11.34,-0.034 10.315,0.729 13.833,-10.302 3.054,-9.579 3.03,-9.584 6.694,1.473 m 243.574,155.037 c 0.229,111.971 0.422,107.861 -5.866,124.701 -35.706,95.618 -175.744,83.804 -193.954,-16.364 -1.582,-8.704 -2.577,-206.113 -1.047,-207.644 0.295,-0.295 45.565,-0.445 100.6,-0.333 L 300.4,98.8 l 0.203,99.437 m -88.459,-84.143 c -0.544,2.032 -2.653,6.262 -4.688,9.4 -4.248,6.553 -8.254,14.66 -8.255,16.706 -0.001,0.77 -0.345,1.4 -0.765,1.4 -1.382,0 -1.749,-5.086 -0.874,-12.109 1.211,-9.724 -1.71,-21.784 -3.525,-14.553 -0.301,1.2 -1.749,4.231 -3.217,6.736 -4.437,7.571 -6.106,12.059 -6.59,17.726 -0.571,6.672 -0.975,6.688 -5.21,0.2 -4.009,-6.14 -5.414,-6.605 -5.434,-1.8 -0.008,1.87 -0.548,5.92 -1.2,9 -2.19,10.338 -1.042,17.573 3.592,22.647 L 178.31,172 h 22.721 c 25.582,0 24.194,0.331 26.548,-6.34 1.546,-4.381 1.557,-9.9 0.03,-14.933 -0.656,-2.16 -1.196,-4.917 -1.2,-6.127 -0.019,-4.673 -3.256,-2.213 -6.843,5.2 -5.193,10.733 -7.387,1.306 -4.333,-18.622 1.581,-10.312 1.561,-12.643 -0.152,-18.178 -1.092,-3.525 -1.769,-3.273 -2.937,1.094 m 11.456,8.377 c 0,11.436 0.372,12.322 2.866,6.83 2.461,-5.42 1.874,-11.783 -1.482,-16.048 -1.33,-1.691 -1.384,-1.333 -1.384,9.218 m 128.363,6.329 2.837,8.4 9.987,0.4 9.988,0.4 -5.564,4 c -3.06,2.2 -6.564,4.625 -7.787,5.388 -2.79,1.742 -2.795,1.649 0.601,12.121 3.44,10.612 3.904,10.287 -5.231,3.669 -9.268,-6.713 -7.821,-6.715 -17.089,0.027 -4.238,3.083 -7.705,5.348 -7.705,5.034 0,-0.314 1.305,-4.678 2.899,-9.697 1.683,-5.299 2.583,-9.338 2.146,-9.634 -0.415,-0.279 -3.969,-2.848 -7.899,-5.708 L 322,138 l 9.963,-0.4 9.962,-0.4 2.586,-8 c 1.422,-4.4 2.813,-8.72 3.091,-9.6 0.615,-1.947 0.55,-2.086 4.361,9.2 M 56.69,127.488 c 3.332,10.597 2.683,10.112 13.517,10.112 10.197,0 10.277,0.107 3.543,4.735 -2.502,1.72 -5.729,4.149 -7.17,5.396 l -2.619,2.269 2.844,8.709 c 3.49,10.687 3.562,10.616 -4.717,4.601 -3.717,-2.701 -7.3,-5.118 -7.961,-5.372 -1.096,-0.42 -13.417,7.465 -14.564,9.321 -2.392,3.871 -2.343,-0.193 0.09,-7.416 3.661,-10.87 3.895,-10.086 -4.898,-16.375 L 27.11,138 l 9.845,-0.4 9.845,-0.4 2.583,-7.6 c 1.421,-4.18 2.796,-8.23 3.054,-9 0.885,-2.632 1.648,-1.395 4.253,6.888 m 126.67,58.272 c -3.518,3.518 -2.02,3.84 17.84,3.84 19.393,0 19.684,-0.053 17.972,-3.253 -1.015,-1.896 -33.962,-2.437 -35.812,-0.587 m -4.778,16.96 c -1.321,2.898 -1.461,2.88 21.886,2.88 24.304,0 24.643,-0.042 23.356,-2.867 L 222.943,200.8 H 201.2 179.457 l -0.875,1.92 m 5.906,15.48 c 0.309,1.65 1.356,6.24 2.329,10.2 l 1.768,7.2 12.525,0.22 c 9.612,0.17 12.596,-0.016 12.832,-0.8 0.547,-1.814 4.458,-18.732 4.458,-19.285 0,-0.294 -7.756,-0.535 -17.236,-0.535 h -17.237 l 0.561,3 m -13.569,28.595 c -1.48,1.48 -1.745,4.047 -0.498,4.818 0.451,0.279 14.302,0.507 30.779,0.507 16.477,0 30.328,-0.228 30.779,-0.507 3.041,-1.88 -1.144,-6.719 -4.579,-5.296 -2.562,1.061 -50.613,0.875 -53.481,-0.207 -1.159,-0.438 -2.09,-0.225 -3,0.685 M 356.146,257.8 c 2.422,4.888 4.456,13.682 5.136,22.2 l 0.479,6 -6.681,4.36 c -10.922,7.129 -22.43,20.19 -29.949,33.992 -2.203,4.045 -3.077,1.794 -4.022,-10.352 -0.63,-8.106 1.247,-18.61 4.593,-25.691 l 2.417,-5.116 2.655,4.989 c 2.821,5.3 7.217,11.018 8.471,11.018 0.415,0 0.761,-3.15 0.769,-7 0.024,-11.926 3.364,-23.4 9.783,-33.6 3.804,-6.044 3.754,-6.038 6.349,-0.8 m -303.447,2.579 c 5.694,7.929 8.877,18.581 9.028,30.211 0.101,7.87 0.49,7.637 -7.894,4.734 -11.156,-3.863 -13.24,-4.004 -15.351,-1.039 -2.4,3.371 -4.573,10.003 -5.284,16.131 l -0.595,5.127 -1.894,-2.371 c -8.107,-10.15 -10.403,-26.846 -5.251,-38.178 l 1.342,-2.952 3.435,1.555 c 1.889,0.856 5.521,3.546 8.072,5.979 5.807,5.539 5.363,5.764 5.981,-3.031 0.702,-9.992 3.273,-19.745 5.205,-19.745 0.349,0 1.792,1.611 3.206,3.579 m 142.438,5.44 c -1.484,1.001 -3.552,3.071 -4.596,4.6 -2.329,3.416 -2.644,-1.441 3.418,52.781 1.398,12.499 4.1,35.982 4.883,42.427 0.432,3.556 0.284,4.639 -0.752,5.498 -2.789,2.315 -0.715,7.275 3.043,7.275 3.696,0 5.663,-4.289 3.129,-6.823 -1.208,-1.209 -1.242,-2.122 -0.355,-9.457 0.54,-4.466 1.493,-12.8 2.117,-18.52 1.185,-10.856 3.361,-30.243 5.611,-50 1.936,-16.995 1.918,-20.995 -0.109,-23.736 -4.335,-5.866 -11.18,-7.555 -16.389,-4.045 M 78.375,285.032 c 1.764,8.226 1.661,28.798 -0.153,30.613 -0.129,0.129 -2.392,-0.28 -5.029,-0.91 -7.972,-1.905 -9.834,-0.377 -14.03,11.51 -1.138,3.223 -2.394,5.881 -2.793,5.909 -2.457,0.168 -11.52,-20.544 -12.809,-29.276 l -0.579,-3.923 2.856,0.464 c 3.116,0.505 13.227,5.33 16.396,7.822 2.883,2.268 3.104,2.063 3.709,-3.441 1.069,-9.714 3.746,-17.538 7.944,-23.216 2.08,-2.814 3.16,-1.743 4.488,4.448 M 375.799,297.8 c -0.467,10.464 -2.326,17.194 -6.575,23.8 l -2.83,4.4 0.603,-3.6 c 0.332,-1.98 0.603,-9.266 0.603,-16.192 v -12.592 l 2,-0.705 c 1.1,-0.388 2.9,-1.46 4,-2.382 1.1,-0.921 2.135,-1.688 2.301,-1.702 0.165,-0.015 0.119,4.023 -0.102,8.973 m -10.764,4.8 c 1.295,13.881 -4.721,30.392 -13.633,37.416 l -2.202,1.736 -0.571,-6.676 c -0.534,-6.242 -3.083,-20.384 -4.159,-23.076 -0.343,-0.859 0.814,-1.875 4.07,-3.574 2.502,-1.305 6.914,-4.258 9.805,-6.56 6.524,-5.198 6.133,-5.241 6.69,0.734 m -289.879,29 c 5.175,10.449 12.072,33.11 10.403,34.179 -0.198,0.126 -3.489,0.112 -7.314,-0.032 l -6.955,-0.262 -1.199,-3.742 c -3.369,-10.508 -4.878,-31.434 -2.806,-38.897 l 0.875,-3.155 1.517,1.955 c 0.834,1.075 3.3,5.554 5.479,9.954 m 263.954,-6.033 c 4.486,10.43 5.251,23.043 2.071,34.177 l -1.412,4.943 -6.139,1.657 C 330.254,367.255 325.626,368 323.346,368 H 319.2 v -3.699 c 0,-6.474 5.326,-20.467 14.654,-38.501 2.68,-5.18 3.119,-5.199 5.256,-0.233 m -301.244,6.501 c 6.549,1.672 18.051,6.504 18.952,7.961 0.264,0.427 0.011,3.386 -0.562,6.574 -0.947,5.266 -0.809,15.359 0.261,19.197 2.048,7.341 -20.337,-17.441 -24.838,-27.498 -4.024,-8.993 -4.145,-8.872 6.187,-6.234 m 329.417,5.451 c -0.122,11.396 -5.712,22.942 -15.125,31.24 -5.724,5.046 -5.699,5.051 -4.439,-0.959 1.093,-5.216 1.249,-11.397 0.386,-15.264 -0.453,-2.032 17.67,-22.739 18.971,-21.676 0.152,0.124 0.245,3.12 0.207,6.659 m -54.041,5.259 c 1.803,4.315 2.928,13.884 2.203,18.734 -0.637,4.255 -0.692,4.326 -4.245,5.388 -5.482,1.638 -10.4,1.462 -10.4,-0.372 0,-2.738 3.187,-13.957 5.244,-18.456 4.037,-8.835 5.323,-9.781 7.198,-5.294 m -217.436,4.075 c 9.842,4.905 21.774,23.474 15.147,23.573 -0.964,0.014 -3.733,0.723 -6.153,1.574 l -4.4,1.548 -1.488,-1.772 c -3.407,-4.055 -8.428,-16.49 -9.682,-23.976 -0.627,-3.744 0.606,-3.922 6.576,-0.947 m 195.007,27.751 c 5.7,12.45 4.074,26.402 -4.12,35.345 -2.085,2.277 -3,2.792 -3.79,2.137 -1.874,-1.555 -7.989,-3.352 -14.033,-4.123 -3.262,-0.416 -6.093,-0.919 -6.291,-1.117 -1.667,-1.668 12.001,-23.084 20.058,-31.429 5.854,-6.063 5.776,-6.055 8.176,-0.813 M 78,373.204 c 5.72,0.654 12.83,1.584 15.8,2.065 l 5.4,0.876 v 4.543 c 0,4.733 2.366,14.578 4.49,18.686 l 1.231,2.38 -2.661,-0.576 c -10.965,-2.371 -24.226,-8.183 -33.86,-14.841 -7.063,-4.88 -14.752,-12.521 -13.143,-13.06 4.516,-1.513 9.997,-1.531 22.743,-0.073 m 242.515,1.209 c 8.213,0.847 22.427,3.462 23.242,4.277 2.402,2.402 -23.473,16.915 -36.957,20.728 -11.962,3.382 -11.098,3.421 -10.308,-0.468 0.877,-4.317 0.877,-16.782 10e-4,-21.096 l -0.68,-3.346 3.093,-0.32 c 6.269,-0.647 13.926,-0.567 21.609,0.225 m -200.47,9.064 c 6.634,3.154 19.955,16.46 19.955,19.934 0,0.224 -3.87,0.36 -8.6,0.303 -5.533,-0.066 -9.727,0.292 -11.759,1.006 -3.014,1.058 -3.217,1.024 -4.4,-0.743 -2.828,-4.222 -4.811,-10.463 -5.34,-16.81 l -0.551,-6.611 3.169,0.425 c 1.744,0.234 5.13,1.357 7.526,2.496 m 139.106,17.867 c 1.342,7.074 -1.501,18.09 -7.175,27.799 -1.765,3.02 -3.112,5.556 -2.992,5.636 0.119,0.08 3.871,0.769 8.338,1.531 12.424,2.118 18.391,4.799 23.896,10.737 2.688,2.898 2.586,3.112 -2.151,4.518 -16.282,4.836 -31.564,2.526 -45.154,-6.825 l -3.72,-2.559 -5.296,0.959 c -5.157,0.933 -10.713,3.172 -8.021,3.232 1.166,0.026 8.505,4.559 12.291,7.593 2.153,1.725 -5.411,8.992 -7.673,7.371 -0.718,-0.515 -3.046,-2.177 -5.174,-3.694 -2.127,-1.517 -6.348,-3.768 -9.38,-5.001 l -5.512,-2.243 -4.514,2.411 c -2.483,1.326 -7.174,4.776 -10.424,7.666 -4.55,4.045 -6.299,5.144 -7.6,4.775 -0.93,-0.264 -3.49,-0.871 -5.69,-1.35 -2.2,-0.479 -4.29,-1.141 -4.645,-1.471 -0.885,-0.822 5.837,-6.722 13.709,-12.029 7.114,-4.797 7.51,-5.325 4.555,-6.067 -3.299,-0.828 -8.443,0.097 -16.019,2.881 -11.924,4.381 -28.363,4.314 -38.581,-0.159 -4.932,-2.158 -13.795,-8.005 -13.809,-9.109 -0.036,-3.019 21.092,-5.838 34.471,-4.599 5.015,0.464 9.209,0.771 9.32,0.681 0.111,-0.09 -1.618,-2.43 -3.841,-5.2 -8.881,-11.066 -15.97,-32.551 -10.16,-30.79 13.992,4.239 27.351,18.549 32.265,34.562 1.515,4.936 1.572,5 4.444,5 1.6,0 5.882,0.861 9.515,1.913 l 6.606,1.913 5.285,-1.784 c 2.907,-0.982 8.165,-2.421 11.685,-3.199 10.692,-2.362 9.948,-1.846 12.417,-8.617 5.019,-13.768 13.033,-24.347 22.156,-29.249 5.305,-2.85 5.531,-2.755 6.578,2.767 M 331.999,401 c -0.002,6.295 -11.923,21.398 -19.6,24.832 l -3.202,1.432 -4.213,-3.894 c -2.318,-2.142 -6.883,-5.305 -10.145,-7.029 -6.905,-3.65 -6.85,-3.982 1.474,-8.861 11.526,-6.755 35.688,-11.142 35.686,-6.48 m -245.15,2.266 c 8.353,2.267 17.728,7.134 13.742,7.134 -1.762,0 -7.476,5.308 -8.578,7.968 -1.286,3.106 -1.553,3.076 -7.295,-0.824 -7.961,-5.406 -16.172,-14.624 -14.508,-16.287 0.844,-0.845 10.36,0.304 16.639,2.009 m 52.351,12.616 c 9.661,2.896 9.45,2.429 3.475,7.669 -9.006,7.899 -29.137,9.001 -44.04,2.41 -5.194,-2.297 -5.126,-3.04 0.571,-6.259 10.943,-6.182 26.998,-7.716 39.994,-3.82 m 138.8,2.559 c 8.581,2.005 20.973,7.25 22.335,9.453 2.137,3.458 -23.503,7.794 -36.49,6.171 l -4.462,-0.557 0.42,-6.954 c 0.715,-11.844 1.235,-12.076 18.197,-8.113"
       inkscape:connector-curvature="0"
       style="fill:#5d5d5d;fill-rule:evenodd;stroke:none" />
  </g>
</svg>
