<?xml version="1.0" encoding="UTF-8" standalone="no"?>
<svg
   xmlns:dc="http://purl.org/dc/elements/1.1/"
   xmlns:cc="http://creativecommons.org/ns#"
   xmlns:rdf="http://www.w3.org/1999/02/22-rdf-syntax-ns#"
   xmlns:svg="http://www.w3.org/2000/svg"
   xmlns="http://www.w3.org/2000/svg"
   xmlns:sodipodi="http://sodipodi.sourceforge.net/DTD/sodipodi-0.dtd"
   xmlns:inkscape="http://www.inkscape.org/namespaces/inkscape"
   id="svg"
   version="1.1"
   width="332.05881"
   height="410.53622"
   style="display:block"
   sodipodi:docname="udec.svg"
   inkscape:version="0.92.1 r15371">
  <metadata
     id="metadata12">
    <rdf:RDF>
      <cc:Work
         rdf:about="">
        <dc:format>image/svg+xml</dc:format>
        <dc:type
           rdf:resource="http://purl.org/dc/dcmitype/StillImage" />
        <dc:title></dc:title>
      </cc:Work>
    </rdf:RDF>
  </metadata>
  <defs
     id="defs10" />
  <sodipodi:namedview
     pagecolor="#ffffff"
     bordercolor="#666666"
     borderopacity="1"
     objecttolerance="10"
     gridtolerance="10"
     guidetolerance="10"
     inkscape:pageopacity="0"
     inkscape:pageshadow="2"
     inkscape:window-width="640"
     inkscape:window-height="480"
     id="namedview8"
     showgrid="false"
     fit-margin-top="0"
     fit-margin-left="0"
     fit-margin-right="0"
     fit-margin-bottom="0"
     inkscape:zoom="0.27830189"
     inkscape:cx="341.85751"
     inkscape:cy="0.44023762"
     inkscape:window-x="0"
     inkscape:window-y="0"
     inkscape:window-maximized="0"
     inkscape:current-layer="svg" />
  <g
     id="svgg"
     transform="translate(-32.142494,-13.904)">
    <path
       id="path0"
       d="m 189.84,108.324 c 0,3.044 -0.535,4.099 -3.781,7.451 -2.788,2.881 -4.514,6.2 -5.087,9.782 -0.501,3.13 -1.148,2.896 -2.092,-0.754 -0.525,-2.029 -3.953,-7.94 -5.44,-9.382 -2.173,-2.106 -2.726,-1.682 -1.889,1.449 1.109,4.144 0.776,8.1 -1.282,15.232 -2.99,10.362 -1.726,16.321 4.893,23.061 l 2.544,2.591 h 18.321 18.322 l 1.686,-2.13 c 0.928,-1.171 1.548,-2.354 1.378,-2.628 -0.169,-0.275 0.443,-2.122 1.361,-4.105 1.993,-4.305 1.895,-6.326 -0.571,-11.764 -0.884,-1.95 -1.672,-4.484 -1.75,-5.63 -0.184,-2.686 0.06,-2.796 -5.062,2.298 -2.423,2.411 -4.546,4.244 -4.717,4.074 -0.458,-0.458 0.828,-7.296 1.678,-8.926 0.921,-1.764 0.942,-9.219 0.039,-13.97 -0.363,-1.912 -0.505,-4.559 -0.316,-5.882 0.19,-1.324 0.228,-2.527 0.085,-2.674 -0.8,-0.821 -8.4,8.776 -10.533,13.299 l -2.282,4.838 -0.353,-5.726 c -0.48,-7.772 -0.545,-8.079 -2.247,-10.673 -1.98,-3.018 -2.905,-2.964 -2.905,0.169 m 24.308,1.168 c 0.121,1.397 0.378,3.504 0.57,4.681 0.193,1.178 0.073,3.67 -0.266,5.537 -0.739,4.077 -0.441,4.559 1.522,2.459 3.601,-3.853 4.174,-9.869 1.274,-13.364 -2.25,-2.713 -3.374,-2.464 -3.1,0.687"
       inkscape:connector-curvature="0"
       style="fill:#e10821;fill-rule:evenodd;stroke:none" />
    <path
       id="path1"
       d="m 33.1,14.473 c -0.517,0.319 -0.699,242.903 -0.191,253.261 0.157,3.187 0.516,7.48 0.8,9.539 0.283,2.059 0.623,4.585 0.755,5.615 0.497,3.866 2.033,11.637 3.065,15.508 0.589,2.206 1.398,5.605 1.8,7.553 0.617,2.998 1.769,6.463 3.98,11.965 0.236,0.589 1.157,2.634 2.046,4.546 0.889,1.912 1.79,4.077 2.002,4.813 0.212,0.735 1.194,2.605 2.183,4.154 0.988,1.55 1.797,3.008 1.797,3.239 0,2.367 17.897,28.206 21.917,31.644 0.516,0.441 1.17,1.243 1.454,1.781 1.464,2.777 8.881,10.329 15.666,15.954 2.794,2.315 5.671,4.747 6.392,5.403 1.505,1.369 1.843,1.613 8.573,6.167 2.738,1.853 5.725,3.751 6.638,4.219 0.913,0.467 1.78,1.023 1.927,1.235 0.385,0.555 12.807,6.8 15.287,7.686 1.151,0.41 3.657,1.485 5.568,2.388 13.454,6.352 35.241,11.368 54.011,12.434 11.339,0.645 26.923,-0.099 35.231,-1.681 15.202,-2.894 21.996,-4.522 28.673,-6.87 0.882,-0.31 3.289,-1.082 5.347,-1.715 3.461,-1.064 11.415,-4.565 12.032,-5.296 0.148,-0.174 1.23,-0.76 2.407,-1.301 1.176,-0.541 4.021,-2.093 6.322,-3.448 16.351,-9.632 18.387,-11.051 28.076,-19.571 6.362,-5.595 18.276,-18.703 18.276,-20.107 0,-0.246 0.811,-0.999 1.803,-1.673 2.651,-1.801 15.309,-20.553 15.309,-22.679 0,-0.168 1.308,-2.628 2.908,-5.466 1.599,-2.838 3.491,-6.725 4.204,-8.636 0.713,-1.912 2.193,-5.257 3.289,-7.434 2.776,-5.511 6.894,-19.135 7.771,-25.708 0.257,-1.919 0.853,-5.636 1.326,-8.259 0.473,-2.623 1.087,-8.278 1.365,-12.567 C 363.77,260.973 363.81,15.144 363.151,14.737 362.514,14.343 33.735,14.08 33.1,14.473 m 325.661,4.97 c 0.585,0.705 0.951,244.58 0.37,246.431 -0.122,0.387 -0.357,3.23 -0.522,6.319 -0.165,3.088 -0.539,6.434 -0.832,7.436 -0.292,1.002 -0.672,2.807 -0.844,4.011 -1.678,11.72 -3.056,18.275 -4.507,21.44 -0.27,0.588 -0.739,2.313 -1.042,3.833 -0.304,1.52 -1.369,4.528 -2.367,6.685 -0.999,2.156 -2.982,6.568 -4.408,9.803 -1.426,3.235 -2.781,5.963 -3.012,6.061 -0.231,0.098 -0.421,0.422 -0.421,0.721 0,0.299 -1.203,2.587 -2.673,5.086 -1.471,2.498 -2.674,4.768 -2.674,5.044 0,0.276 -0.337,0.631 -0.75,0.789 -0.412,0.158 -0.883,0.692 -1.046,1.186 -0.164,0.495 -0.908,1.862 -1.654,3.038 -0.746,1.177 -1.654,2.741 -2.017,3.476 -0.364,0.735 -0.787,1.457 -0.94,1.604 -0.154,0.147 -0.625,0.938 -1.047,1.756 -0.422,0.819 -2.785,3.586 -5.251,6.15 -2.466,2.564 -5.358,5.744 -6.426,7.068 -1.068,1.323 -3.457,3.904 -5.309,5.735 -1.852,1.832 -3.372,3.516 -3.378,3.744 -0.005,0.227 -1.389,1.544 -3.074,2.924 -1.686,1.381 -4.682,3.848 -6.659,5.482 -1.976,1.634 -3.723,2.97 -3.881,2.97 -0.158,0 -2.427,1.548 -5.041,3.439 -2.613,1.891 -5.963,4.052 -7.444,4.803 -1.481,0.75 -2.846,1.612 -3.034,1.917 -0.188,0.304 -1.203,0.913 -2.255,1.352 -1.053,0.44 -2.232,1.219 -2.621,1.73 -0.388,0.512 -0.714,0.74 -0.723,0.507 -0.009,-0.233 -1.04,0.157 -2.29,0.867 -5.962,3.387 -10.429,5.509 -11.784,5.599 -0.82,0.054 -2.504,0.559 -3.744,1.121 -1.239,0.563 -3.162,1.166 -4.274,1.341 -1.112,0.175 -2.861,0.669 -3.887,1.098 -1.026,0.428 -1.921,0.772 -1.989,0.764 -0.068,-0.007 -0.747,0.223 -1.51,0.513 -0.762,0.29 -2.131,0.644 -3.042,0.788 -0.911,0.143 -1.861,0.388 -2.112,0.542 -0.942,0.583 -17.447,3.318 -25.011,4.146 -6.993,0.765 -29.048,0.607 -33.197,-0.238 -1.403,-0.286 -3.72,-0.597 -8.514,-1.143 -3.597,-0.41 -6.972,-0.931 -7.299,-1.126 -0.191,-0.115 -1.368,-0.337 -2.617,-0.494 -1.248,-0.157 -2.536,-0.451 -2.861,-0.655 -0.326,-0.203 -1.073,-0.441 -1.661,-0.529 -2.104,-0.315 -13.39,-4.034 -15.225,-5.018 -1.03,-0.551 -2.05,-1.003 -2.267,-1.003 -0.218,0 -1.972,-0.722 -3.899,-1.604 -1.926,-0.882 -3.692,-1.604 -3.923,-1.604 -0.232,0 -1.417,-0.482 -2.635,-1.07 -1.217,-0.588 -2.572,-1.069 -3.01,-1.069 -0.438,0 -0.959,-0.263 -1.157,-0.584 -0.198,-0.321 -1.957,-1.349 -3.909,-2.286 -1.951,-0.936 -5.295,-2.839 -7.43,-4.229 -2.135,-1.39 -4.101,-2.527 -4.367,-2.527 -0.267,0 -0.565,-0.185 -0.663,-0.411 -0.098,-0.226 -1.863,-1.592 -3.922,-3.036 -2.059,-1.444 -4.585,-3.312 -5.615,-4.153 -1.029,-0.84 -2.112,-1.707 -2.406,-1.925 -2.705,-2.009 -5.678,-4.475 -7.533,-6.251 -1.229,-1.176 -2.564,-2.405 -2.966,-2.73 -0.402,-0.326 -1.249,-1.203 -1.882,-1.95 -0.634,-0.747 -1.488,-1.564 -1.898,-1.815 -0.411,-0.251 -1.886,-1.953 -3.28,-3.783 -1.393,-1.829 -2.852,-3.514 -3.243,-3.743 -0.391,-0.229 -1.135,-1.259 -1.654,-2.289 -0.894,-1.776 -1.497,-2.518 -5.139,-6.321 -0.852,-0.89 -1.55,-1.746 -1.55,-1.903 0,-0.249 -0.673,-1.32 -3.352,-5.328 -0.362,-0.542 -1.179,-1.601 -1.815,-2.354 -0.635,-0.753 -1.468,-1.994 -1.85,-2.758 -0.381,-0.764 -1.485,-2.504 -2.453,-3.867 -0.968,-1.363 -1.76,-2.717 -1.76,-3.01 0,-0.292 -0.337,-0.811 -0.749,-1.153 -0.412,-0.342 -0.896,-1.206 -1.075,-1.919 -0.179,-0.713 -1.045,-2.362 -1.924,-3.665 -0.88,-1.303 -1.599,-2.73 -1.599,-3.171 0,-0.732 -1.828,-5.38 -4.251,-10.807 -0.525,-1.177 -1.327,-2.982 -1.782,-4.011 -0.454,-1.029 -0.997,-3.075 -1.206,-4.546 -0.209,-1.47 -0.698,-3.455 -1.088,-4.411 -0.39,-0.956 -0.607,-1.738 -0.483,-1.738 0.125,0 -0.029,-0.662 -0.342,-1.471 -0.714,-1.846 -0.994,-3.05 -1.338,-5.748 -0.15,-1.177 -0.51,-3.102 -0.8,-4.279 -0.289,-1.176 -0.752,-3.763 -1.028,-5.749 -0.276,-1.986 -0.633,-4.272 -0.793,-5.08 -0.994,-5.011 -1.216,-29.043 -1.264,-136.942 -0.037,-80.705 0.125,-120.833 0.489,-121.513 0.723,-1.352 320.19,-1.659 321.31,-0.31 M 114.634,99.294 c -0.635,2.531 0.262,152.981 0.935,156.856 0.333,1.911 0.564,4.89 0.515,6.619 -0.085,2.992 2.057,13.332 3.198,15.432 0.277,0.511 0.504,1.203 0.504,1.538 0,0.336 0.718,2.023 1.596,3.751 0.878,1.728 1.467,3.141 1.31,3.141 -0.158,0 0.281,0.782 0.974,1.738 0.693,0.956 1.959,3.182 2.812,4.947 0.853,1.764 1.684,3.328 1.846,3.475 0.163,0.148 0.925,1.23 1.693,2.407 0.769,1.176 1.97,2.779 2.669,3.562 0.699,0.783 1.846,2.347 2.548,3.476 0.702,1.129 2.691,3.256 4.421,4.727 1.729,1.47 4.513,3.943 6.185,5.495 2.68,2.487 7.918,6.266 8.693,6.271 0.154,0.001 2.265,1.036 4.692,2.3 2.426,1.264 4.411,2.128 4.411,1.921 0,-0.208 0.421,0.002 0.936,0.466 0.515,0.463 1.658,1.015 2.54,1.226 0.883,0.21 1.845,0.54 2.139,0.732 0.672,0.439 4.152,1.628 5.558,1.898 0.582,0.112 2.457,0.564 4.167,1.004 8.904,2.291 28.046,2.34 37.468,0.096 0.662,-0.157 1.727,-0.401 2.367,-0.541 0.64,-0.14 1.41,-0.501 1.711,-0.802 0.301,-0.301 0.845,-0.548 1.208,-0.548 0.363,0 1.338,-0.28 2.166,-0.623 0.828,-0.343 1.625,-0.666 1.772,-0.717 1.505,-0.524 5.514,-2.387 9.981,-4.638 4.672,-2.354 7.154,-4.13 11.455,-8.194 0.466,-0.441 1.006,-0.801 1.202,-0.801 0.539,0 5.704,-3.793 5.71,-4.195 0.003,-0.193 1.267,-1.672 2.808,-3.286 1.541,-1.615 3.326,-3.661 3.967,-4.546 3.943,-5.443 5.456,-7.718 7.123,-10.71 1.03,-1.847 2.676,-4.766 3.658,-6.487 1.518,-2.66 4.686,-12.173 5.716,-17.165 0.167,-0.81 0.454,-2.074 0.639,-2.809 0.416,-1.659 0.83,-165.585 0.423,-167.246 l -0.296,-1.203 h -81.53 -81.53 l -0.36,1.433 m 78.111,8.861 c 1.702,2.594 1.767,2.901 2.247,10.673 l 0.353,5.726 2.282,-4.838 c 2.133,-4.523 9.733,-14.12 10.533,-13.299 0.143,0.147 0.105,1.35 -0.085,2.674 -0.189,1.323 -0.047,3.97 0.316,5.882 0.903,4.751 0.882,12.206 -0.039,13.97 -0.85,1.63 -2.136,8.468 -1.678,8.926 0.171,0.17 2.294,-1.663 4.717,-4.074 5.122,-5.094 4.878,-4.984 5.062,-2.298 0.078,1.146 0.866,3.68 1.75,5.63 2.466,5.438 2.564,7.459 0.571,11.764 -0.918,1.983 -1.53,3.83 -1.361,4.105 0.17,0.274 -0.45,1.457 -1.378,2.628 l -1.686,2.13 h -18.322 -18.321 l -2.544,-2.591 c -6.619,-6.74 -7.883,-12.699 -4.893,-23.061 2.058,-7.132 2.391,-11.088 1.282,-15.232 -0.837,-3.131 -0.284,-3.555 1.889,-1.449 1.487,1.442 4.915,7.353 5.44,9.382 0.944,3.65 1.591,3.884 2.092,0.754 0.573,-3.582 2.299,-6.901 5.087,-9.782 3.246,-3.352 3.781,-4.407 3.781,-7.451 0,-3.133 0.925,-3.187 2.905,-0.169 m 24.503,0.65 c 2.9,3.495 2.327,9.511 -1.274,13.364 -1.963,2.1 -2.261,1.618 -1.522,-2.459 0.339,-1.867 0.459,-4.359 0.266,-5.537 -1.225,-7.504 -0.506,-9.029 2.53,-5.368 m -6.541,59.109 c 0.736,1.166 0.635,3.921 -0.185,5.043 -0.779,1.064 -27.841,1.345 -30.546,0.316 -2.088,-0.794 -2.1,-5.114 -0.017,-5.952 2.098,-0.845 30.183,-0.302 30.748,0.593 m 3.353,13.668 c 1.088,0.418 1.269,3.601 0.245,4.315 -0.368,0.257 -8.922,0.392 -19.01,0.3 l -18.341,-0.166 -0.509,-1.339 c -1.251,-3.29 -1.333,-3.276 18.617,-3.372 9.946,-0.049 18.496,0.069 18.998,0.262 m -3.136,11.237 c 1.225,1.225 0.842,5.474 -0.889,9.855 -0.29,0.735 -0.626,2.059 -0.746,2.941 -0.581,4.288 -0.85,5.105 -1.854,5.642 -1.215,0.651 -21.386,0.605 -22.446,-0.051 -0.593,-0.366 -2.132,-6.086 -3.13,-11.633 -0.228,-1.265 -0.691,-2.576 -1.03,-2.915 -0.764,-0.764 -0.79,-2.284 -0.062,-3.645 0.772,-1.441 28.731,-1.621 30.157,-0.194 m 2.971,25.354 c 2.564,2.564 0.537,9.642 -2.082,7.272 -0.562,-0.509 -1.168,-1.509 -1.347,-2.222 l -0.326,-1.298 -12.156,-0.067 c -6.685,-0.036 -12.877,-0.065 -13.759,-0.064 -2.088,0.003 -3.476,0.6 -3.476,1.495 0,1.467 -2.228,2.465 -3.312,1.484 -1.252,-1.133 -1.321,-5.313 -0.11,-6.651 1.415,-1.564 35.001,-1.516 36.568,0.051 m -13.628,15.165 c 0.589,0.149 1.361,0.288 1.717,0.311 1.159,0.073 5.859,5.139 6.267,6.755 0.632,2.505 0.362,11.848 -0.445,15.42 -0.406,1.797 -0.898,4.831 -1.094,6.743 -0.195,1.912 -0.455,4.077 -0.578,4.813 -0.122,0.735 -0.6,4.585 -1.063,8.556 -0.953,8.178 -1.568,13.213 -2.418,19.795 -0.324,2.505 -0.664,6.837 -0.756,9.626 -0.092,2.789 -0.425,6.154 -0.741,7.477 -0.829,3.473 -0.746,8.602 0.181,11.23 1.398,3.963 0.516,5.096 -4.344,5.58 -4.557,0.454 -6.69,-2.782 -4.226,-6.412 1.355,-1.997 1.436,-3.702 0.484,-10.13 -0.51,-3.448 -0.638,-4.603 -0.947,-8.557 -0.161,-2.058 -0.428,-4.344 -0.592,-5.08 -0.165,-0.735 -0.424,-3.262 -0.575,-5.615 -0.151,-2.353 -0.504,-5.737 -0.784,-7.52 -0.281,-1.784 -0.64,-4.55 -0.799,-6.147 -0.159,-1.597 -0.4,-3.747 -0.536,-4.779 -0.136,-1.031 -0.389,-3.198 -0.562,-4.816 -0.173,-1.617 -0.542,-4.024 -0.819,-5.347 -1.035,-4.938 -2.481,-15.425 -2.802,-20.321 -0.277,-4.212 4.363,-11.23 7.423,-11.23 0.694,0 1.4,-0.224 1.569,-0.497 0.299,-0.485 4.302,-0.394 6.44,0.145"
       inkscape:connector-curvature="0"
       style="fill:#ffa301;fill-rule:evenodd;stroke:none" />
    <path
       id="path2"
       d="m 37.568,146.39 0.17,127.139 1.48,8.022 c 0.814,4.412 1.712,9.465 1.997,11.23 0.284,1.764 1.09,5.254 1.791,7.754 0.7,2.5 1.549,5.733 1.885,7.184 2.711,11.69 15.899,35.763 27.12,49.5 1.562,1.912 4.188,5.161 5.836,7.22 5.31,6.633 16.316,17.379 17.801,17.379 0.335,0 0.609,0.183 0.609,0.407 0,0.223 1.712,1.712 3.804,3.308 2.093,1.596 4.078,3.173 4.412,3.505 4.28,4.254 19.248,12.387 33.363,18.128 14.847,6.038 20.312,7.502 38.902,10.425 11.06,1.739 32.348,1.77 42.781,0.062 1.764,-0.288 6.216,-1.022 9.893,-1.63 3.676,-0.609 9.331,-1.918 12.567,-2.911 3.235,-0.992 8.479,-2.553 11.653,-3.469 8.772,-2.532 35.327,-16.622 38.347,-20.347 0.147,-0.181 2.851,-2.315 6.01,-4.742 6.327,-4.861 12.217,-10.563 18.707,-18.11 2.34,-2.721 4.426,-4.947 4.635,-4.947 0.94,0 10.22,-12.485 10.22,-13.749 0,-0.198 1.167,-2.179 2.593,-4.401 3.437,-5.357 9.513,-16.461 10.435,-19.072 0.405,-1.145 1.72,-4.161 2.922,-6.702 3.503,-7.404 6.512,-18.132 8.604,-30.675 0.638,-3.823 1.446,-8.275 1.795,-9.893 0.478,-2.212 0.675,-34.533 0.796,-130.347 L 358.857,19.251 H 198.127 37.397 L 37.568,146.39 M 80.493,48.932 c 1.056,3.384 1.749,6.429 1.54,6.768 -0.221,0.358 -0.146,0.47 0.18,0.269 0.311,-0.193 0.708,0.241 0.892,0.973 l 0.331,1.319 8.148,0.148 8.149,0.147 -6.528,4.946 -6.527,4.945 0.794,2.25 c 0.436,1.238 0.654,2.614 0.483,3.06 -0.171,0.445 -0.138,0.637 0.073,0.425 0.211,-0.211 1.084,1.804 1.94,4.477 1.998,6.24 2.122,6.225 -5.29,0.625 l -6.314,-4.77 -6.615,4.757 c -3.639,2.617 -6.714,4.659 -6.834,4.539 -0.119,-0.12 0.952,-3.652 2.382,-7.848 l 2.6,-7.631 -3.461,-2.481 c -1.904,-1.365 -4.938,-3.564 -6.741,-4.887 l -3.278,-2.407 8.408,-0.147 8.407,-0.147 2.45,-7.741 c 1.347,-4.257 2.549,-7.74 2.67,-7.74 0.121,0 1.085,2.768 2.141,6.151 m 59.855,1.188 c 1.087,3.302 1.802,6.287 1.588,6.634 -0.229,0.371 -0.161,0.489 0.167,0.287 0.306,-0.19 0.68,0.128 0.831,0.705 0.255,0.976 0.842,1.059 8.483,1.197 l 8.209,0.148 -6.511,4.933 c -5.526,4.186 -9.109,7.319 -6.596,5.765 0.537,-0.332 0.613,-0.075 0.334,1.121 -0.2,0.857 -0.165,1.258 0.078,0.896 0.276,-0.41 1.195,1.641 2.472,5.522 1.118,3.396 1.904,6.303 1.747,6.459 -0.157,0.157 -3.249,-1.757 -6.871,-4.254 l -6.587,-4.539 -6.311,4.538 c -3.472,2.497 -6.444,4.407 -6.604,4.246 -0.161,-0.161 0.799,-3.56 2.135,-7.554 l 2.427,-7.262 -6.514,-4.936 -6.515,-4.935 8.245,-0.267 c 8.238,-0.268 8.246,-0.269 8.635,-1.605 2.289,-7.853 4.423,-13.93 4.762,-13.559 0.23,0.252 1.308,3.159 2.396,6.46 m 59.397,-0.118 c 1.056,3.383 1.749,6.429 1.54,6.767 -0.222,0.358 -0.147,0.471 0.18,0.269 0.311,-0.192 0.707,0.241 0.891,0.974 l 0.331,1.319 8.416,0.147 8.416,0.148 -6.802,4.704 c -3.741,2.587 -6.967,4.97 -7.168,5.296 -0.238,0.384 -0.119,0.44 0.335,0.159 0.523,-0.323 0.625,-0.139 0.4,0.72 -0.166,0.635 -0.132,1.049 0.076,0.92 0.43,-0.265 4.526,12.52 4.136,12.91 -0.14,0.139 -3.099,-1.896 -6.577,-4.524 l -6.323,-4.777 -6.326,4.777 c -3.479,2.627 -6.444,4.658 -6.589,4.513 -0.145,-0.144 0.812,-3.656 2.127,-7.802 l 2.39,-7.539 -6.765,-4.679 -6.765,-4.678 8.416,-0.148 8.416,-0.147 0.331,-1.319 c 0.182,-0.726 0.543,-1.189 0.803,-1.029 0.259,0.161 0.331,-0.074 0.16,-0.52 -0.279,-0.727 3.326,-12.613 3.825,-12.613 0.113,0 1.069,2.769 2.126,6.152 m 59.876,0.252 c 1.076,3.228 1.78,6.153 1.566,6.5 -0.23,0.372 -0.16,0.489 0.171,0.284 0.311,-0.192 0.707,0.241 0.891,0.973 l 0.331,1.32 8.149,0.147 8.148,0.148 -6.501,4.925 -6.5,4.925 2.084,6.572 c 1.146,3.615 1.969,6.886 1.828,7.269 -0.142,0.382 -0.019,0.549 0.272,0.369 0.29,-0.18 0.528,0.049 0.528,0.507 0,0.459 -0.135,0.834 -0.299,0.834 -0.77,0 -4.968,-3.65 -4.63,-4.025 0.211,-0.234 0.134,-0.283 -0.171,-0.111 -0.305,0.173 -2.225,-0.951 -4.267,-2.499 l -3.712,-2.813 -2.47,1.775 c -1.359,0.976 -2.627,1.658 -2.819,1.515 -0.192,-0.143 -0.236,-0.107 -0.099,0.079 0.235,0.319 -3.643,3.405 -4.279,3.405 -0.162,0 -0.944,0.602 -1.737,1.337 -2.802,2.599 -2.803,2.645 0.093,-6.673 l 2.347,-7.554 -6.492,-4.919 -6.492,-4.918 8.149,-0.148 8.148,-0.147 0.331,-1.32 c 0.184,-0.732 0.581,-1.165 0.892,-0.973 0.328,0.203 0.401,0.089 0.176,-0.274 -0.324,-0.525 0.447,-2.996 3.488,-11.176 0.674,-1.812 0.769,-1.659 2.876,4.666 m 59.091,-0.267 c 0.929,2.787 1.513,5.351 1.299,5.697 -0.224,0.363 -0.161,0.489 0.148,0.298 0.297,-0.183 0.822,0.617 1.173,1.79 l 0.636,2.121 h 8.299 c 5.004,0 8.176,0.198 7.99,0.499 -0.17,0.275 -3.071,2.46 -6.448,4.855 -3.378,2.396 -6.141,4.648 -6.141,5.005 0,0.356 1.081,3.869 2.401,7.806 1.321,3.937 2.307,7.252 2.193,7.366 -0.115,0.115 -3.183,-1.93 -6.818,-4.544 l -6.609,-4.753 -6.337,4.748 c -3.486,2.611 -6.456,4.629 -6.6,4.485 -0.223,-0.223 3.857,-13.786 4.476,-14.878 0.116,-0.205 -2.743,-2.612 -6.354,-5.348 l -6.565,-4.974 8.109,-0.147 8.11,-0.147 1.944,-6.172 c 3.338,-10.6 2.903,-10.283 5.094,-3.707 m -39.706,131.697 c -0.184,92.479 0.027,85.947 -3.026,93.886 -0.318,0.828 -0.579,2.018 -0.579,2.645 0,3.013 -8.947,19.137 -13.795,24.86 -1.308,1.544 -2.174,2.807 -1.926,2.807 1.058,0 -7.372,7.796 -11.398,10.541 -2.416,1.647 -4.282,3.173 -4.147,3.392 0.571,0.923 -10.687,6.821 -20.406,10.69 -20.202,8.042 -49.47,4.527 -71.513,-8.588 -3.526,-2.099 -18.824,-15.668 -17.98,-15.949 0.3,-0.1 -0.613,-1.544 -2.028,-3.209 -2.788,-3.277 -7.237,-9.958 -7.408,-11.123 -0.058,-0.396 -0.802,-1.865 -1.654,-3.264 -1.676,-2.752 -4.773,-9.788 -4.575,-10.391 0.068,-0.205 -0.238,-1.395 -0.68,-2.645 -1.427,-4.045 -2.448,-9.252 -2.142,-10.917 0.165,-0.893 -0.061,-4.142 -0.501,-7.219 -0.666,-4.659 -0.86,-18.504 -1.158,-82.735 l -0.358,-77.139 h 82.721 82.72 l -0.167,84.358 M 80.438,118.804 c 1.029,3.283 1.723,6.208 1.542,6.5 -0.18,0.291 -0.079,0.376 0.225,0.188 0.314,-0.193 0.69,0.348 0.872,1.255 l 0.319,1.595 h 8.333 c 5.026,0 8.212,0.198 8.026,0.5 -0.17,0.274 -3.044,2.439 -6.386,4.81 -4.374,3.102 -6.149,4.682 -6.331,5.634 -0.155,0.811 -0.043,1.194 0.289,0.989 0.332,-0.206 0.425,0.111 0.24,0.819 -0.166,0.634 -0.121,1.042 0.1,0.905 0.539,-0.333 1.68,3.477 1.262,4.212 -0.182,0.319 -0.118,0.386 0.142,0.149 0.465,-0.424 3.122,6.545 2.668,6.999 -0.128,0.128 -3.196,-1.81 -6.819,-4.307 l -6.586,-4.539 -6.312,4.538 c -3.471,2.496 -6.442,4.408 -6.602,4.248 -0.16,-0.16 0.697,-3.254 1.904,-6.876 2.847,-8.542 3.1,-7.668 -3.688,-12.733 -3.235,-2.415 -5.882,-4.599 -5.882,-4.855 0,-0.255 3.53,-0.531 7.844,-0.612 l 7.844,-0.148 0.39,-1.337 c 1.532,-5.255 4.346,-13.904 4.522,-13.904 0.118,0 1.056,2.687 2.084,5.97 m 238.787,1.637 c 0.94,2.861 1.533,5.508 1.317,5.883 -0.221,0.384 -0.186,0.493 0.081,0.249 0.261,-0.238 0.741,0.363 1.068,1.337 l 0.595,1.769 8.242,0.268 8.242,0.267 -6.503,4.927 -6.504,4.927 2.396,7.558 c 1.318,4.157 2.282,7.673 2.142,7.813 -0.432,0.432 -4.621,-2.863 -4.214,-3.315 0.211,-0.233 0.138,-0.285 -0.162,-0.115 -0.3,0.17 -2.466,-1.073 -4.813,-2.762 l -4.267,-3.071 -6.325,4.767 c -3.479,2.622 -6.443,4.649 -6.588,4.504 -0.145,-0.144 0.815,-3.664 2.133,-7.821 l 2.396,-7.558 -6.503,-4.927 -6.503,-4.927 8.242,-0.267 8.242,-0.268 0.594,-1.769 c 0.327,-0.973 0.805,-1.575 1.062,-1.337 0.256,0.238 0.219,-0.028 -0.084,-0.591 -0.495,-0.922 0.45,-4.598 2.82,-10.964 0.463,-1.245 1.082,-0.084 2.894,5.423 m -140.081,49.88 v 2.941 h 15.776 15.775 v -2.941 -2.941 H 194.92 179.144 v 2.941 m -2.673,13.369 v 1.871 h 19.251 19.251 v -1.871 -1.872 h -19.251 -19.251 v 1.872 m 4.446,10.294 c 0.128,0.809 0.987,4.293 1.908,7.742 0.921,3.449 1.625,6.457 1.565,6.685 -0.701,2.632 0.09,2.819 11.893,2.819 h 11.183 l 0.297,-1.471 c 0.164,-0.808 1.011,-4.296 1.882,-7.75 0.872,-3.453 1.585,-7.003 1.585,-7.887 v -1.609 h -15.273 -15.273 l 0.233,1.471 m -3.554,24.057 c -0.291,0.478 -0.547,3.625 -0.435,5.355 0.135,2.096 3.286,1.712 3.286,-0.401 v -1.605 h 15.508 15.508 v 1.872 c 0,1.729 0.124,1.872 1.629,1.872 h 1.628 l -0.158,-3.61 -0.158,-3.61 -18.28,-0.14 c -10.053,-0.078 -18.391,0.043 -18.528,0.267 m 150.72,10.315 c 3.909,6.487 4.933,10.304 4.264,15.886 l -0.336,2.797 -9.455,7.968 c -11.861,9.996 -13.298,11.584 -18.713,20.661 -1.228,2.059 -2.235,3.503 -2.238,3.209 -0.002,-0.294 -0.372,-4.196 -0.82,-8.672 -0.902,-8.986 -0.796,-9.936 2.172,-19.403 2.05,-6.541 2.488,-6.393 6.939,2.34 1.598,3.134 4.847,7.159 5.364,6.643 0.149,-0.15 0.629,-4.939 1.065,-10.644 1.09,-14.272 1.487,-15.757 6.519,-24.408 1.66,-2.855 1.105,-3.239 5.239,3.623 m -134.233,5.237 c -2.355,0.87 -5.08,2.465 -5.08,2.974 0,0.297 -0.58,1.155 -1.289,1.906 -2.647,2.804 -2.617,4.446 0.472,26.233 0.98,6.912 1.793,13.168 1.807,13.904 0.014,0.735 0.39,4.104 0.836,7.486 0.445,3.383 1.191,9.519 1.658,13.637 0.466,4.117 1.164,10.133 1.551,13.369 1.053,8.799 1.042,10.294 -0.08,10.65 -2.994,0.95 -2.267,4.505 1.083,5.297 5.147,1.217 8.71,-1.986 5.804,-5.218 -1.069,-1.189 -1.006,-3.038 0.436,-12.751 0.34,-2.289 0.463,-4.649 0.274,-5.246 -0.19,-0.596 0.029,-3.897 0.485,-7.336 0.456,-3.439 1.209,-9.621 1.673,-13.739 0.464,-4.117 1.663,-13.262 2.663,-20.32 2.968,-20.937 2.944,-23.151 -0.286,-26.871 -3.156,-3.634 -8.307,-5.34 -12.007,-3.975 M 79.9,240.09 c 2.945,4.207 4.405,7.577 3.745,8.645 -0.213,0.346 -0.163,0.489 0.112,0.32 0.469,-0.291 3.134,15.034 2.691,15.477 -0.111,0.111 -2.101,-0.497 -4.421,-1.351 -5.551,-2.043 -12.278,-2.67 -13.861,-1.292 -2.269,1.975 -5.064,10.819 -5.064,16.02 0,0.209 -1.042,-1.052 -2.314,-2.802 -6.825,-9.386 -7.119,-10.245 -6.214,-18.155 0.673,-5.882 1.029,-8.455 1.191,-8.617 0.518,-0.518 7.798,1.878 10.897,3.586 l 3.828,2.111 0.356,-4.69 c 0.315,-4.15 2.156,-11.425 3.6,-14.226 0.682,-1.324 1.684,-0.41 5.454,4.974 m 265.349,17.281 c 0.358,4.732 -1.226,9.994 -4.803,15.965 -1.646,2.746 -1.619,2.987 -0.585,-5.154 0.855,-6.733 0.644,-10.927 -0.648,-12.9 -0.701,-1.069 -0.583,-1.397 1.506,-4.191 l 2.266,-3.03 0.966,2.459 c 0.531,1.352 1.115,4.435 1.298,6.851 m -8.6,4.892 c -0.21,2.522 -0.545,4.485 -0.744,4.361 -0.2,-0.123 -0.27,0.75 -0.157,1.941 0.142,1.487 0.022,2.05 -0.385,1.799 -0.37,-0.229 -0.475,-0.063 -0.281,0.444 0.171,0.445 -0.126,2.082 -0.66,3.637 -0.535,1.555 -1.006,3.266 -1.048,3.802 -0.131,1.673 -4.065,8.918 -4.648,8.558 -0.302,-0.186 -0.405,-0.106 -0.228,0.18 0.176,0.286 -0.362,1.551 -1.197,2.811 l -1.517,2.292 -0.386,-2.862 c -0.212,-1.574 -1.209,-6.814 -2.215,-11.643 -1.446,-6.947 -1.685,-8.87 -1.142,-9.207 0.377,-0.234 2.25,-1.297 4.162,-2.362 3.686,-2.054 7.352,-6.044 8.943,-9.736 l 0.862,-2 0.511,1.7 c 0.292,0.969 0.348,3.672 0.13,6.285 m -237.35,2.08 c 3.004,5.124 3.89,8.639 3.901,15.47 l 0.009,5.214 h -6.711 c -9.227,0 -11.442,1.384 -14.688,9.18 l -1.707,4.1 -1.48,-1.694 c -2.842,-3.252 -9.961,-21.068 -8.859,-22.17 0.67,-0.671 7.168,1.489 11.818,3.928 l 5.435,2.85 0.346,-4.146 c 0.459,-5.51 2.489,-12.499 5.134,-17.685 l 1.169,-2.291 1.581,1.514 c 0.869,0.833 2.692,3.411 4.052,5.73 m 217.821,20.283 c 9.137,19.142 4.502,30.818 -12.255,30.874 l -2.355,0.008 0.325,-6.016 c 0.443,-8.197 2.663,-14.797 8.724,-25.936 2.936,-5.396 2.429,-5.494 5.561,1.07 m 22.699,4.092 c -0.211,3.252 -0.543,5.815 -0.738,5.694 -0.195,-0.121 -0.255,0.639 -0.132,1.688 0.153,1.309 0.036,1.792 -0.373,1.539 -0.369,-0.228 -0.483,-0.074 -0.299,0.406 0.697,1.816 -1.174,5.664 -6.232,12.813 l -5.307,7.501 -0.007,-5.837 c -0.005,-4.554 -0.298,-6.892 -1.332,-10.631 -1.021,-3.691 -1.174,-4.883 -0.662,-5.179 3.658,-2.118 7.975,-5.901 11.137,-9.758 4.566,-5.569 4.425,-5.632 3.945,1.764 M 96.192,288.48 c 1.212,1.605 2.204,3.206 2.204,3.558 0,0.352 0.811,2.107 1.802,3.9 0.991,1.793 2.226,4.583 2.744,6.201 0.519,1.618 1.179,3.239 1.467,3.603 0.288,0.364 0.364,1.078 0.168,1.588 -0.195,0.509 -0.174,0.745 0.048,0.523 0.222,-0.222 1.203,2.526 2.181,6.107 2.118,7.754 2.552,7.09 -4.328,6.621 l -5.613,-0.383 -0.354,-2.211 c -0.569,-3.555 -2.745,-10.998 -4.753,-16.26 l -1.861,-4.876 1.89,-5.645 c 2.226,-6.645 1.695,-6.317 4.405,-2.726 m -26.043,7.484 c 1.669,0.664 5.477,2.625 8.46,4.359 l 5.423,3.153 -0.361,9.358 c -0.199,5.147 -0.464,9.466 -0.589,9.598 -1.724,1.817 -16.787,-18.484 -19.953,-26.892 l -0.572,-1.518 2.278,0.367 c 1.252,0.203 3.644,0.911 5.314,1.575 m 227.162,4.808 c 0.84,2.463 1.085,4.552 1.085,9.277 v 6.099 l -3.343,-0.338 c -8.664,-0.877 -8.289,-0.763 -8.638,-2.62 -0.688,-3.667 0.947,-8.544 4.526,-13.501 l 3.342,-4.63 0.972,1.267 c 0.534,0.697 1.46,2.698 2.056,4.446 m -169.417,15.734 c 3.317,4.044 5.562,7.436 5.176,7.822 -0.282,0.281 -12.26,1.484 -12.449,1.25 -0.079,-0.097 -1.308,-2.343 -2.732,-4.99 -1.425,-2.647 -3.842,-6.886 -5.372,-9.42 l -2.781,-4.607 3.287,-1.394 3.287,-1.393 4.176,4.396 c 2.297,2.418 5.63,6.17 7.408,8.336 m 150.918,5.82 c 1.92,5.931 2.172,22.928 0.322,21.785 -0.234,-0.144 -0.289,0.257 -0.123,0.892 0.193,0.739 0.097,1.027 -0.267,0.802 -0.365,-0.226 -0.461,0.063 -0.268,0.802 0.225,0.86 0.123,1.043 -0.4,0.72 -0.432,-0.267 -0.572,-0.224 -0.363,0.114 0.251,0.406 -1.434,6.677 -2.01,7.484 -0.044,0.061 -2.235,-0.94 -4.87,-2.225 -2.635,-1.285 -6.715,-2.865 -9.068,-3.512 -2.353,-0.647 -4.34,-1.231 -4.414,-1.298 -0.829,-0.746 8.756,-18.081 11.458,-20.723 2.369,-2.318 8.359,-7.166 9.089,-7.357 0.05,-0.013 0.461,1.119 0.914,2.516 m 29.744,0.672 c 2.794,0.285 6.593,0.921 8.442,1.412 l 3.361,0.893 -1.49,1.593 c -4.583,4.902 -16.086,12.247 -22.345,14.268 -1.176,0.38 -4.515,1.631 -7.42,2.78 -6.394,2.531 -6.02,2.901 -4.358,-4.312 l 1.37,-5.952 -1.105,-4.407 c -0.609,-2.424 -1.228,-4.819 -1.377,-5.323 -0.379,-1.281 15.694,-1.895 24.922,-0.952 m -205.359,5.897 c 7.493,0.595 13.779,1.255 13.967,1.468 0.189,0.212 1.235,3.394 2.324,7.07 1.09,3.677 2.445,7.48 3.011,8.453 0.567,0.973 1.03,1.848 1.03,1.944 0,0.096 -1.331,0.341 -2.958,0.545 -2.863,0.357 -11.122,-0.235 -9.185,-0.659 0.527,-0.115 -1.669,-1.119 -4.879,-2.23 -9.119,-3.157 -16.89,-7.65 -19.713,-11.399 l -1.71,-2.269 1.952,-2.005 c 1.073,-1.103 2.083,-2.004 2.244,-2.003 0.161,10e-4 6.423,0.489 13.917,1.085 m 32.632,8.101 c 3.803,1.167 8.407,4.194 11.043,7.258 2.524,2.934 5.23,7.031 4.877,7.384 -0.157,0.157 -16.151,1.303 -18.184,1.303 -0.824,0 -0.945,-0.542 -0.945,-4.231 0,-3.648 -0.258,-4.834 -1.877,-8.617 l -1.878,-4.387 2.546,0.357 c 1.4,0.197 3.388,0.617 4.418,0.933 m 175.936,5.549 c 0,0.494 -0.252,0.678 -0.618,0.452 -0.396,-0.245 -0.471,-0.146 -0.209,0.278 0.558,0.903 -0.766,5.458 -1.462,5.028 -0.319,-0.197 -0.388,-0.078 -0.165,0.284 0.839,1.357 -6.17,11.35 -11.641,16.599 l -1.894,1.817 -3.637,-3.19 c -2,-1.754 -5.398,-4.58 -7.55,-6.281 -2.153,-1.7 -3.837,-3.154 -3.744,-3.23 1.33,-1.084 15.315,-9.553 16.83,-10.192 5.353,-2.255 14.09,-3.226 14.09,-1.565 m -59.376,5.45 c -0.031,5.311 -2.343,14.84 -5.223,21.524 l -2.65,6.149 6.218,0.425 c 10.266,0.7 12.758,1.666 19.172,7.434 l 2.258,2.031 -2.526,1.265 c -9.801,4.907 -17.506,4.546 -32.762,-1.538 -8.031,-3.202 -9.169,-3.381 -12.946,-2.027 -3.172,1.137 -3.24,0.835 1.173,5.214 l 3.712,3.684 -3.002,3.521 -3.002,3.521 -5.088,-5.214 -5.089,-5.214 h -3.108 c -3.934,0 -3.95,0.065 1.275,-5.186 l 4.383,-4.407 6.178,-1.414 c 7.513,-1.72 6.69,-0.836 10.417,-11.185 3.906,-10.844 6.862,-16.074 10.33,-18.276 3.682,-2.337 3.653,-2.324 6.145,-2.815 4.261,-0.84 4.154,-0.905 4.135,2.508 m -136.47,-0.014 c 0.961,0.119 2.405,0.117 3.208,-0.005 0.804,-0.122 0.017,-0.22 -1.747,-0.217 -1.765,0.003 -2.422,0.103 -1.461,0.222 m 46.877,0.669 c 10.17,3.499 16.441,9.345 22.997,21.44 1.982,3.656 3.788,6.842 4.015,7.078 0.226,0.237 4.717,0.9 9.98,1.474 5.264,0.574 9.779,1.112 10.035,1.195 0.255,0.084 -2.392,2.875 -5.883,6.204 -3.49,3.329 -8.778,8.634 -11.751,11.789 l -5.404,5.737 -1.969,-3.151 -1.97,-3.151 3.562,-3.98 c 1.96,-2.189 3.353,-3.99 3.096,-4.003 -0.257,-0.013 0.593,-0.953 1.888,-2.09 l 2.354,-2.068 -3.088,-0.386 c -2.578,-0.322 -3.762,-0.158 -7.167,0.994 -18.226,6.165 -35.415,4.651 -43.01,-3.79 -2.506,-2.785 11.189,-6.265 24.494,-6.225 l 9.627,0.029 -2.875,-2.713 c -4.541,-4.283 -6.868,-8.18 -9.395,-15.731 -2.364,-7.064 -3.127,-9.708 -2.8,-9.708 0.106,0 1.575,0.475 3.264,1.056 m -51.451,5.593 c 5.211,1.343 9.622,2.441 9.802,2.441 0.179,0 -0.533,1.005 -1.583,2.232 -1.051,1.227 -1.786,2.356 -1.633,2.508 0.152,0.153 -0.834,1.405 -2.192,2.784 l -2.468,2.506 -1.975,-2.207 c -6.711,-7.501 -11.337,-13.259 -10.444,-13 0.561,0.162 5.283,1.394 10.493,2.736 m 153.896,6.215 c 9.163,1.63 19.251,4.922 19.251,6.282 0,2.443 -10.802,5.628 -19.92,5.873 l -8.422,0.226 v -7.05 -7.05 l 1.47,0.312 c 0.809,0.172 4.238,0.805 7.621,1.407 m -111.3,3.059 5.011,1.914 -1.802,1.518 c -8.893,7.492 -28.135,8.907 -36.204,2.662 l -1.246,-0.964 5.792,-2.437 c 13.985,-5.885 18.877,-6.348 28.449,-2.693 m -38.726,0.253 -2.113,2.273 2.272,-2.114 c 2.114,-1.966 2.519,-2.432 2.114,-2.432 -0.087,0 -1.11,1.023 -2.273,2.273"
       inkscape:connector-curvature="0"
       style="fill:#013766;fill-rule:evenodd;stroke:none" />
    <path
       id="path3"
       d="m 32.148,15.374 c 0.047,1.127 0.124,1.221 0.329,0.401 0.147,-0.588 0.54,-1.246 0.874,-1.462 0.385,-0.249 0.264,-0.396 -0.33,-0.401 -0.681,-0.006 -0.919,0.392 -0.873,1.462 m 84.296,-1.069 c 45.073,0.075 118.83,0.075 163.904,0 45.073,-0.076 8.195,-0.137 -81.952,-0.137 -90.147,0 -127.026,0.061 -81.952,0.137 m 246.611,0.344 c 0.465,0.561 0.581,32.941 0.466,130.883 -0.084,71.575 0,127.73 0.186,124.789 0.875,-13.834 0.493,-256.417 -0.403,-256.417 -0.682,0 -0.735,0.16 -0.249,0.745 M 32.348,141.176 c 0,68.383 0.063,96.357 0.139,62.166 0.076,-34.191 0.076,-90.14 0,-124.331 -0.076,-34.191 -0.139,-6.217 -0.139,62.165 M 122.326,19.118 c 43.309,0.075 114.178,0.075 157.487,0 43.309,-0.076 7.874,-0.138 -78.743,-0.138 -86.618,0 -122.053,0.062 -78.744,0.138 m 236.696,123.663 0.064,123.262 0.27,-121.123 c 0.148,-66.618 0.119,-122.086 -0.064,-123.262 -0.184,-1.177 -0.306,53.329 -0.27,121.123 M 37.161,141.979 c 0,65.588 0.062,92.499 0.138,59.802 0.077,-32.697 0.077,-86.36 0,-119.252 -0.076,-32.891 -0.138,-6.139 -0.138,59.45 m 38.521,-91.458 -2.45,7.741 -8.407,0.147 -8.408,0.147 3.278,2.407 c 1.803,1.323 4.837,3.522 6.741,4.887 l 3.461,2.481 -2.6,7.631 c -1.43,4.196 -2.501,7.728 -2.382,7.848 0.12,0.12 3.195,-1.922 6.834,-4.539 l 6.615,-4.757 6.314,4.77 c 7.412,5.6 7.288,5.615 5.29,-0.625 -0.856,-2.673 -1.729,-4.688 -1.94,-4.477 -0.211,0.212 -0.244,0.02 -0.073,-0.425 0.171,-0.446 -0.047,-1.822 -0.483,-3.06 l -0.794,-2.25 6.527,-4.945 6.528,-4.946 -8.149,-0.147 c -8.108,-0.147 -8.15,-0.154 -8.471,-1.435 -0.224,-0.892 -0.596,-1.201 -1.21,-1.006 -0.684,0.218 -0.722,0.165 -0.167,-0.232 0.657,-0.47 -2.604,-12.955 -3.384,-12.955 -0.121,0 -1.323,3.483 -2.67,7.74 m 59.875,-0.978 c -1.087,3.486 -2.152,6.941 -2.367,7.676 -0.389,1.336 -0.397,1.337 -8.635,1.605 l -8.245,0.267 6.518,4.938 6.518,4.939 -1.846,5.484 c -1.016,3.016 -1.726,5.8 -1.578,6.186 0.148,0.385 0.057,0.57 -0.203,0.41 -0.496,-0.307 -1.361,2.312 -0.911,2.762 0.144,0.143 3.101,-1.781 6.573,-4.278 l 6.311,-4.538 6.587,4.539 c 3.622,2.497 6.715,4.411 6.872,4.254 0.488,-0.488 -4.275,-14.218 -4.816,-13.884 -0.283,0.175 -0.336,0.033 -0.121,-0.315 0.215,-0.348 3.32,-2.851 6.901,-5.564 l 6.511,-4.933 -8.209,-0.148 c -7.641,-0.138 -8.228,-0.221 -8.483,-1.197 -0.151,-0.577 -0.525,-0.895 -0.831,-0.705 -0.328,0.202 -0.396,0.084 -0.167,-0.287 0.377,-0.61 -3.14,-12.169 -3.984,-13.094 -0.23,-0.251 -1.307,2.396 -2.395,5.883 m 59.868,0.278 c -1.718,5.157 -1.895,6.122 -1.295,7.085 0.613,0.986 0.598,1.036 -0.132,0.433 -0.701,-0.579 -0.878,-0.48 -1.162,0.654 l -0.336,1.338 -8.416,0.147 -8.416,0.148 6.765,4.678 6.765,4.679 -2.39,7.539 c -1.315,4.146 -2.272,7.658 -2.127,7.802 0.145,0.145 3.111,-1.887 6.592,-4.516 l 6.329,-4.779 5.076,3.9 c 2.792,2.145 5.359,3.807 5.705,3.694 0.347,-0.114 0.948,0.2 1.337,0.698 0.648,0.827 0.617,0.838 -0.362,0.131 -1.027,-0.742 -1.033,-0.733 -0.146,0.235 0.508,0.555 1.065,0.866 1.239,0.692 0.381,-0.381 -2.999,-11.313 -3.572,-11.553 -0.221,-0.092 -0.254,-0.553 -0.074,-1.023 0.205,-0.534 0.112,-0.722 -0.247,-0.5 -0.373,0.231 -0.469,-0.051 -0.274,-0.798 0.225,-0.859 0.123,-1.043 -0.4,-0.72 -0.454,0.281 -0.573,0.225 -0.335,-0.159 0.201,-0.326 3.427,-2.709 7.168,-5.296 l 6.802,-4.704 -8.416,-0.148 -8.416,-0.147 -0.331,-1.319 c -0.184,-0.733 -0.58,-1.166 -0.891,-0.974 -0.327,0.202 -0.402,0.089 -0.18,-0.269 0.341,-0.552 -3.168,-12.919 -3.666,-12.919 -0.112,0 -1.1,2.687 -2.194,5.971 m 61.32,-4.233 c -3.041,8.18 -3.812,10.651 -3.488,11.176 0.225,0.363 0.152,0.477 -0.176,0.274 -0.311,-0.192 -0.708,0.241 -0.892,0.973 l -0.331,1.32 -8.148,0.147 -8.149,0.148 6.492,4.918 6.492,4.919 -2.347,7.554 c -2.896,9.318 -2.895,9.272 -0.093,6.673 0.793,-0.735 1.575,-1.337 1.737,-1.337 0.636,0 4.514,-3.086 4.279,-3.405 -0.137,-0.186 -0.093,-0.222 0.099,-0.079 0.192,0.143 1.46,-0.539 2.819,-1.515 l 2.47,-1.775 3.712,2.813 c 2.042,1.548 3.962,2.672 4.267,2.499 0.305,-0.172 0.382,-0.123 0.171,0.111 -0.338,0.375 3.86,4.025 4.63,4.025 0.164,0 0.299,-0.375 0.299,-0.834 0,-0.458 -0.238,-0.687 -0.528,-0.507 -0.291,0.18 -0.414,0.013 -0.272,-0.369 0.141,-0.383 -0.682,-3.654 -1.828,-7.269 l -2.084,-6.572 6.5,-4.925 6.501,-4.925 -8.148,-0.148 -8.149,-0.147 -0.331,-1.32 c -0.184,-0.732 -0.58,-1.165 -0.891,-0.973 -0.331,0.205 -0.401,0.088 -0.171,-0.284 0.359,-0.581 -3.223,-12.369 -3.758,-12.369 -0.13,0 -0.438,0.541 -0.684,1.203 m 59.311,0.633 c -0.272,0.715 -1.369,4.078 -2.438,7.473 l -1.944,6.172 -8.11,0.147 -8.109,0.147 6.565,4.974 c 3.611,2.736 6.47,5.143 6.354,5.348 -0.619,1.092 -4.699,14.655 -4.476,14.878 0.144,0.144 3.114,-1.874 6.6,-4.485 l 6.337,-4.748 6.609,4.753 c 3.635,2.614 6.703,4.659 6.818,4.544 0.114,-0.114 -0.872,-3.429 -2.193,-7.366 -1.32,-3.937 -2.401,-7.45 -2.401,-7.806 0,-0.357 2.763,-2.609 6.141,-5.005 3.377,-2.395 6.278,-4.58 6.448,-4.855 0.186,-0.301 -2.986,-0.499 -7.99,-0.499 h -8.299 l -0.636,-2.121 c -0.351,-1.173 -0.876,-1.973 -1.173,-1.79 -0.309,0.191 -0.372,0.065 -0.148,-0.298 0.359,-0.581 -2.69,-10.764 -3.223,-10.764 -0.13,0 -0.46,0.585 -0.732,1.301 M 113.904,147.829 c 0,27.777 0.18,50.615 0.401,50.752 0.22,0.136 0.334,-21.929 0.252,-49.033 -0.081,-27.104 -0.016,-49.822 0.144,-50.484 l 0.293,-1.203 h 81.53 81.53 l 0.296,1.203 c 0.487,1.986 0.03,165.832 -0.466,166.845 -0.274,0.561 -0.252,0.936 0.056,0.936 1.07,0 1.197,-9.344 1.201,-88.369 l 0.003,-81.15 h -82.62 -82.62 v 50.503 M 76.181,119.118 c -1.078,3.456 -2.135,6.885 -2.349,7.62 l -0.39,1.337 -7.844,0.148 c -4.314,0.081 -7.844,0.357 -7.844,0.612 0,0.256 2.647,2.44 5.882,4.855 6.788,5.065 6.535,4.191 3.688,12.733 -1.207,3.622 -2.065,6.715 -1.907,6.873 0.453,0.453 8.313,-5.378 7.979,-5.918 -0.165,-0.267 -0.055,-0.334 0.243,-0.149 0.298,0.184 1.469,-0.357 2.603,-1.202 l 2.06,-1.536 6.603,4.55 c 3.631,2.503 6.706,4.446 6.834,4.318 0.454,-0.454 -2.203,-7.423 -2.668,-6.999 -0.26,0.237 -0.324,0.17 -0.142,-0.149 0.418,-0.735 -0.723,-4.545 -1.262,-4.212 -0.221,0.137 -0.266,-0.271 -0.1,-0.905 0.185,-0.708 0.092,-1.025 -0.24,-0.819 -0.332,0.205 -0.444,-0.178 -0.288,-0.99 0.176,-0.923 1.678,-2.333 4.956,-4.655 2.587,-1.832 4.567,-3.552 4.4,-3.823 -0.167,-0.27 -0.043,-0.33 0.275,-0.133 0.318,0.196 1.258,-0.24 2.088,-0.97 l 1.509,-1.328 -8.435,-0.017 -8.436,-0.017 -0.319,-1.595 c -0.182,-0.907 -0.558,-1.448 -0.872,-1.255 -0.304,0.188 -0.405,0.103 -0.225,-0.188 0.31,-0.501 -3.17,-12.47 -3.626,-12.47 -0.118,0 -1.096,2.828 -2.173,6.284 m 240.15,-4.1 c -2.328,6.251 -3.312,10.044 -2.831,10.904 0.416,0.742 0.38,0.865 -0.154,0.534 -0.498,-0.307 -0.597,-0.177 -0.352,0.462 0.188,0.489 0.136,0.889 -0.114,0.889 -0.251,0 -0.58,0.475 -0.732,1.056 -0.257,0.984 -0.828,1.065 -8.485,1.203 l -8.208,0.148 6.503,4.927 6.503,4.927 -2.396,7.558 c -1.318,4.157 -2.278,7.677 -2.133,7.821 0.145,0.145 3.109,-1.882 6.588,-4.504 l 6.325,-4.767 4.267,3.071 c 2.347,1.689 4.513,2.932 4.813,2.762 0.3,-0.17 0.373,-0.118 0.162,0.115 -0.407,0.452 3.782,3.747 4.214,3.315 0.14,-0.14 -0.824,-3.656 -2.142,-7.813 l -2.396,-7.558 6.504,-4.927 6.503,-4.927 -8.242,-0.267 -8.242,-0.268 -0.595,-1.769 c -0.327,-0.974 -0.807,-1.575 -1.068,-1.337 -0.267,0.244 -0.302,0.135 -0.081,-0.249 0.388,-0.672 -2.603,-10.621 -3.479,-11.574 -0.266,-0.289 -0.566,-0.18 -0.732,0.268 m -128.465,52.227 c 4.062,0.091 10.559,0.091 14.439,-0.001 3.879,-0.091 0.556,-0.165 -7.385,-0.165 -7.941,0 -11.116,0.075 -7.054,0.166 m -9.357,1.873 c -0.124,0.661 -0.055,1.804 0.152,2.54 0.289,1.025 0.389,0.745 0.43,-1.203 0.057,-2.705 -0.211,-3.32 -0.582,-1.337 m 32.321,1.203 c 0.006,1.176 0.115,1.595 0.243,0.929 0.128,-0.665 0.123,-1.627 -0.01,-2.139 -0.134,-0.511 -0.239,0.033 -0.233,1.21 m -16.178,3.454 c 7.795,0.159 14.532,0.116 14.974,-0.096 0.441,-0.211 -5.936,-0.341 -14.171,-0.288 l -14.974,0.096 14.171,0.288 m -5.748,7.908 c 4.632,0.09 12.212,0.09 16.845,0 4.632,-0.089 0.842,-0.161 -8.423,-0.161 -9.265,0 -13.055,0.072 -8.422,0.161 m 6.283,4.39 c 10.147,0.16 18.678,0.11 18.957,-0.11 0.28,-0.221 -8.022,-0.352 -18.449,-0.291 l -18.957,0.111 18.449,0.29 m -6.818,6.305 c 4.044,0.091 10.662,0.091 14.706,0 4.044,-0.09 0.735,-0.165 -7.353,-0.165 -8.088,0 -11.397,0.075 -7.353,0.165 m -8.138,2.319 c 0.009,0.711 0.395,1.774 0.857,2.362 0.821,1.045 0.832,1.04 0.461,-0.2 -0.209,-0.698 -0.427,-1.594 -0.485,-1.99 -0.197,-1.339 -0.85,-1.474 -0.833,-0.172 m 31.061,-0.079 c -0.034,0.717 -0.562,3.085 -1.173,5.262 -0.611,2.177 -1.004,4.065 -0.874,4.196 0.654,0.654 2.789,-8.086 2.374,-9.718 -0.218,-0.858 -0.276,-0.812 -0.327,0.26 M 181.88,200 c -0.025,0.735 0.188,1.698 0.473,2.139 0.66,1.021 0.66,-0.078 0,-2.139 l -0.428,-1.337 -0.045,1.337 m -67.27,2.674 c 0,1.912 0.097,2.694 0.215,1.738 0.119,-0.956 0.119,-2.52 0,-3.476 -0.118,-0.956 -0.215,-0.174 -0.215,1.738 m 68.598,2.674 c 0.178,1.323 0.566,2.647 0.861,2.941 0.358,0.357 0.405,-0.087 0.143,-1.337 -0.665,-3.166 -1.366,-4.285 -1.004,-1.604 m 25.089,1.738 c -0.195,1.25 -0.484,2.754 -0.642,3.342 -0.213,0.79 -0.129,0.918 0.324,0.49 0.719,-0.68 1.678,-6.105 1.079,-6.105 -0.224,0 -0.567,1.023 -0.761,2.273 m -94.258,3.342 c 0.006,1.176 0.115,1.595 0.243,0.929 0.128,-0.665 0.123,-1.627 -0.011,-2.139 -0.134,-0.511 -0.238,0.033 -0.232,1.21 m 78.341,1.2 c 2.72,0.097 7.172,0.097 9.893,0 2.72,-0.097 0.494,-0.176 -4.947,-0.176 -5.441,0 -7.667,0.079 -4.946,0.176 m -77.7,22.597 c 0,10.441 0.071,14.712 0.159,9.492 0.087,-5.221 0.087,-13.764 0,-18.984 -0.088,-5.221 -0.159,-0.95 -0.159,9.492 m 64.865,-16.726 c 0.956,0.119 2.521,0.119 3.476,0 0.956,-0.118 0.174,-0.216 -1.738,-0.216 -1.911,0 -2.693,0.098 -1.738,0.216 m 12.536,0.013 c 3.732,0.091 9.989,0.092 13.903,0 3.915,-0.091 0.861,-0.166 -6.786,-0.167 -7.647,0 -10.85,0.075 -7.117,0.167 m 22.518,4.413 c 0,1.618 0.1,2.28 0.223,1.471 0.122,-0.809 0.122,-2.133 0,-2.941 -0.123,-0.809 -0.223,-0.148 -0.223,1.47 m -34.343,0.936 c 0.025,0.872 0.169,1.144 0.354,0.668 0.172,-0.441 0.694,-1.095 1.161,-1.453 0.745,-0.571 0.701,-0.654 -0.354,-0.669 -0.97,-0.013 -1.195,0.268 -1.161,1.454 m 17.697,-1.07 12.125,0.154 0.534,1.461 0.534,1.46 0.042,-1.738 0.042,-1.738 -12.701,0.124 -12.7,0.123 12.124,0.154 m 124.891,2.942 c -5.032,8.651 -5.429,10.136 -6.519,24.408 -0.436,5.705 -0.916,10.494 -1.065,10.644 -0.517,0.516 -3.766,-3.509 -5.364,-6.643 -4.451,-8.733 -4.889,-8.881 -6.939,-2.34 -2.968,9.467 -3.074,10.417 -2.172,19.403 0.448,4.476 0.818,8.378 0.82,8.672 0.003,0.294 1.009,-1.15 2.236,-3.209 4.822,-8.091 8.008,-11.786 15.678,-18.187 2.059,-1.718 3.683,-3.322 3.609,-3.565 -0.073,-0.242 0.089,-0.38 0.36,-0.306 0.271,0.073 2.3,-1.378 4.509,-3.225 6.36,-5.32 6.385,-11.575 0.086,-22.029 -4.134,-6.862 -3.579,-6.478 -5.239,-3.623 m -110.651,1.042 c 0.499,0.5 0.784,0.5 1.283,0 0.499,-0.499 0.356,-0.641 -0.642,-0.641 -0.998,0 -1.141,0.142 -0.641,0.641 m -16.337,7.214 c 0.514,0.134 1.357,0.134 1.871,0 0.515,-0.135 0.094,-0.245 -0.936,-0.245 -1.029,0 -1.45,0.11 -0.935,0.245 m -5.615,1.278 c -1.62,0.944 -1.015,1.63 0.668,0.76 0.882,-0.457 1.604,-0.944 1.604,-1.084 0,-0.432 -1.29,-0.248 -2.272,0.324 m 12.197,0.208 c 0.571,0.432 1.279,0.785 1.573,0.785 0.294,0 0.067,-0.353 -0.504,-0.785 -0.571,-0.432 -1.278,-0.785 -1.572,-0.785 -0.294,0 -0.068,0.353 0.503,0.785 m -127.992,0.641 c -1.444,2.801 -3.285,10.076 -3.6,14.226 l -0.356,4.69 -3.828,-2.111 c -3.099,-1.708 -10.379,-4.104 -10.897,-3.586 -0.162,0.162 -0.518,2.735 -1.191,8.617 -0.905,7.91 -0.611,8.769 6.214,18.155 1.272,1.75 2.314,3.011 2.314,2.802 0,-5.201 2.795,-14.045 5.064,-16.02 1.583,-1.378 8.31,-0.751 13.861,1.292 2.32,0.854 4.31,1.462 4.421,1.351 0.361,-0.361 -2.18,-15.793 -2.562,-15.558 -0.203,0.126 -0.306,-0.193 -0.228,-0.709 0.503,-3.333 -8.009,-15.482 -9.212,-13.149 m 130.367,1.096 c 0,0.153 0.722,1.1 1.604,2.105 0.882,1.005 1.604,1.554 1.604,1.221 0,-0.333 -0.722,-1.281 -1.604,-2.105 -0.882,-0.824 -1.604,-1.374 -1.604,-1.221 m -17.603,1.177 c -0.612,0.612 -1.114,1.409 -1.114,1.77 0,0.361 0.649,0.007 1.442,-0.786 0.794,-0.793 1.295,-1.59 1.115,-1.77 -0.181,-0.181 -0.83,0.173 -1.443,0.786 m -2.505,8.385 c 0.181,0.47 0.456,2.095 0.612,3.61 0.991,9.623 1.755,14.524 2.197,14.082 0.121,-0.12 -0.142,-2.719 -0.583,-5.773 -0.442,-3.055 -0.95,-7.178 -1.129,-9.164 -0.179,-1.985 -0.573,-3.609 -0.875,-3.609 -0.302,0 -0.402,0.384 -0.222,0.854 m 23.409,3.691 c -0.057,1.471 -0.218,3.637 -0.358,4.813 l -0.253,2.139 0.548,-2.139 c 0.301,-1.176 0.463,-3.342 0.358,-4.813 l -0.19,-2.674 -0.105,2.674 m 132.605,1.626 c -2.089,2.794 -2.207,3.122 -1.506,4.191 1.292,1.973 1.503,6.167 0.648,12.9 -1.034,8.141 -1.061,7.9 0.585,5.154 4.933,-8.232 6.142,-16.103 3.505,-22.816 l -0.966,-2.459 -2.266,3.03 m -225.622,4.524 c 0,1.029 0.11,1.451 0.245,0.936 0.134,-0.515 0.134,-1.357 0,-1.872 -0.135,-0.515 -0.245,-0.093 -0.245,0.936 m 220.049,0.663 c -1.591,3.692 -5.257,7.682 -8.943,9.736 -1.912,1.065 -3.785,2.128 -4.162,2.362 -0.543,0.337 -0.304,2.26 1.142,9.207 1.006,4.829 2.003,10.069 2.215,11.643 l 0.386,2.862 1.517,-2.292 c 0.835,-1.26 1.373,-2.525 1.197,-2.811 -0.177,-0.286 -0.074,-0.366 0.228,-0.18 0.583,0.36 4.517,-6.885 4.648,-8.558 0.042,-0.536 0.513,-2.247 1.048,-3.802 0.534,-1.555 0.831,-3.192 0.66,-3.637 -0.194,-0.507 -0.089,-0.673 0.281,-0.444 0.407,0.251 0.527,-0.312 0.385,-1.799 -0.113,-1.191 -0.043,-2.064 0.157,-1.941 0.625,0.387 1.158,-8.841 0.614,-10.646 l -0.511,-1.7 -0.862,2 M 92.497,259.39 c -2.645,5.186 -4.675,12.175 -5.134,17.685 l -0.346,4.146 -5.435,-2.85 c -4.65,-2.439 -11.148,-4.599 -11.818,-3.928 -1.102,1.102 6.017,18.918 8.859,22.17 l 1.48,1.694 1.707,-4.1 c 3.246,-7.796 5.461,-9.18 14.688,-9.18 h 6.711 l -0.009,-5.214 c -0.013,-8.419 -3.043,-16.496 -7.953,-21.2 l -1.581,-1.514 -1.169,2.291 m 23.049,0.102 c -0.021,0.809 0.203,1.471 0.497,1.471 0.627,0 0.627,-0.411 0,-1.872 -0.407,-0.948 -0.464,-0.902 -0.497,0.401 m 0.032,5.749 c -0.056,1.402 1.599,8.404 2.528,10.695 0.883,2.174 0.691,0.899 -0.699,-4.658 -0.721,-2.879 -1.415,-5.717 -1.542,-6.305 -0.186,-0.853 -0.244,-0.798 -0.287,0.268 m -78.039,4.545 c 0.011,2.647 0.193,5.535 0.403,6.417 0.21,0.883 0.282,-1.043 0.16,-4.278 -0.277,-7.342 -0.591,-8.534 -0.563,-2.139 m -4.729,0.535 c -0.001,2.647 0.089,3.797 0.201,2.556 0.112,-1.241 0.114,-3.407 0.003,-4.813 -0.11,-1.406 -0.202,-0.39 -0.204,2.257 m 325.659,-0.268 c 0,2.206 0.094,3.109 0.209,2.006 0.116,-1.103 0.116,-2.908 0,-4.011 -0.115,-1.103 -0.209,-0.2 -0.209,2.005 M 205.385,268.85 c 0.033,1.303 0.09,1.349 0.497,0.401 0.628,-1.46 0.628,-1.871 0,-1.871 -0.294,0 -0.517,0.661 -0.497,1.47 m 70.918,3.978 c -0.524,1.779 -0.86,3.328 -0.746,3.442 0.114,0.114 0.646,-1.239 1.181,-3.008 0.535,-1.768 0.871,-3.318 0.746,-3.443 -0.125,-0.125 -0.656,1.229 -1.181,3.009 m -71.775,1.753 c -0.209,1.948 -0.264,3.658 -0.123,3.799 0.142,0.142 0.421,-1.343 0.622,-3.3 0.2,-1.956 0.255,-3.666 0.122,-3.799 -0.133,-0.133 -0.413,1.352 -0.621,3.3 m -15.872,-1.319 c 0.129,0.882 0.328,1.604 0.442,1.604 0.114,0 0.207,-0.722 0.207,-1.604 0,-0.882 -0.199,-1.604 -0.442,-1.604 -0.244,0 -0.337,0.722 -0.207,1.604 m 0.48,2.54 c -0.128,0.221 -0.038,0.882 0.198,1.471 0.376,0.933 0.435,0.882 0.468,-0.401 0.037,-1.451 -0.213,-1.853 -0.666,-1.07 m 168.375,2.03 c -0.205,1.364 -0.252,2.6 -0.105,2.747 0.147,0.147 0.435,-0.848 0.64,-2.212 0.204,-1.365 0.251,-2.601 0.104,-2.748 -0.147,-0.147 -0.435,0.849 -0.639,2.213 m -323.986,1.045 c 0.164,1.765 0.389,3.309 0.499,3.431 0.358,0.398 0.086,-3.386 -0.361,-5.035 -0.287,-1.055 -0.334,-0.506 -0.138,1.604 m 241.232,-0.535 c -0.193,0.883 -0.503,2.086 -0.689,2.674 -0.187,0.588 0.052,0.394 0.53,-0.432 0.478,-0.825 0.788,-2.029 0.689,-2.674 -0.151,-0.988 -0.235,-0.92 -0.53,0.432 m -236.423,0.134 c -0.128,0.221 -0.039,0.882 0.198,1.471 0.376,0.933 0.435,0.882 0.468,-0.402 0.037,-1.45 -0.213,-1.852 -0.666,-1.069 m 81.706,3.694 c 0.997,2.293 2.086,4.26 2.418,4.371 0.333,0.111 -0.028,-1.009 -0.802,-2.489 -0.774,-1.481 -1.585,-3.355 -1.801,-4.166 -0.217,-0.811 -0.672,-1.567 -1.011,-1.68 -0.339,-0.113 0.199,1.671 1.196,3.964 m 191.519,1.386 c -6.061,11.139 -8.281,17.739 -8.724,25.936 l -0.325,6.016 2.355,-0.008 c 16.757,-0.056 21.392,-11.732 12.255,-30.874 -3.132,-6.564 -2.625,-6.466 -5.561,-1.07 m 50.23,-0.377 c -0.205,1.364 -0.263,2.59 -0.129,2.724 0.134,0.133 0.411,-0.873 0.615,-2.237 0.205,-1.365 0.263,-2.59 0.129,-2.724 -0.134,-0.133 -0.41,0.873 -0.615,2.237 m -158.509,3.185 c -0.401,2.941 -0.614,5.949 -0.473,6.684 0.173,0.906 0.279,0.612 0.329,-0.909 0.04,-1.236 0.33,-3.446 0.644,-4.911 0.314,-1.465 0.495,-3.462 0.401,-4.438 -0.104,-1.083 -0.455,0.31 -0.901,3.574 M 39.298,284.225 c 0.312,3.366 1.767,10.086 1.794,8.288 0.011,-0.735 -0.444,-3.502 -1.012,-6.149 -0.687,-3.207 -0.948,-3.921 -0.782,-2.139 m 296.576,2.729 c -3.162,3.857 -7.479,7.64 -11.137,9.758 -0.512,0.296 -0.359,1.488 0.662,5.179 1.034,3.739 1.327,6.077 1.332,10.631 l 0.007,5.837 5.307,-7.501 c 5.058,-7.149 6.929,-10.997 6.232,-12.813 -0.184,-0.48 -0.07,-0.634 0.299,-0.406 0.409,0.253 0.526,-0.23 0.373,-1.539 -0.123,-1.049 -0.063,-1.809 0.132,-1.688 0.403,0.249 1.259,-11.469 0.867,-11.862 -0.14,-0.139 -1.973,1.842 -4.074,4.404 m -64.496,-0.457 c -4.577,8.502 -8.72,15.192 -9.833,15.88 -0.317,0.196 -0.834,0.884 -1.149,1.53 -0.821,1.684 2.304,-1.936 4.927,-5.707 2.2,-3.165 8.18,-14.243 7.688,-14.243 -0.146,0 -0.881,1.143 -1.633,2.54 m -179.558,4.612 -1.923,5.742 1.861,4.876 c 2.008,5.262 4.184,12.705 4.753,16.26 l 0.354,2.211 5.613,0.383 c 3.088,0.21 5.725,0.272 5.86,0.136 0.295,-0.294 -3.47,-14.333 -4.049,-15.102 -0.222,-0.294 -0.937,-2.161 -1.589,-4.148 -0.728,-2.22 -1.406,-3.477 -1.758,-3.26 -0.32,0.198 -0.418,0.105 -0.224,-0.211 0.192,-0.31 -0.249,-1.611 -0.98,-2.89 -0.731,-1.279 -1.332,-2.648 -1.336,-3.043 -0.009,-1.048 -1.93,-3.323 -2.427,-2.874 -0.234,0.211 -0.28,0.129 -0.103,-0.183 0.176,-0.311 -0.23,-1.257 -0.904,-2.102 l -1.225,-1.537 -1.923,5.742 m 31.96,-1.67 c 0.8,1.397 1.309,2.54 1.13,2.54 -0.18,0 0.311,0.962 1.089,2.139 0.779,1.176 1.497,2.139 1.595,2.139 0.592,0 -3.248,-7.387 -4.447,-8.556 -0.453,-0.442 -0.168,0.34 0.633,1.738 m 231.605,1.312 c -0.197,1.41 -0.499,3.407 -0.67,4.436 -0.171,1.03 -0.169,1.741 0.005,1.582 0.425,-0.39 1.592,-8.015 1.274,-8.333 -0.137,-0.137 -0.412,0.904 -0.609,2.315 M 35.388,289.572 c -0.018,0.588 0.167,2.032 0.41,3.209 0.372,1.798 0.442,1.883 0.441,0.535 -0.002,-1.874 -0.801,-5.388 -0.851,-3.744 m 155.681,2.407 c 0,1.617 0.101,2.279 0.223,1.47 0.123,-0.809 0.123,-2.132 0,-2.941 -0.122,-0.809 -0.223,-0.147 -0.223,1.471 m -127.94,3.561 c 2.049,5.441 9.878,18.049 10.839,17.456 0.291,-0.18 0.383,-0.092 0.206,0.195 -0.328,0.531 8.491,9.68 8.908,9.241 0.125,-0.132 0.39,-4.451 0.589,-9.598 l 0.361,-9.358 -5.423,-3.153 c -6.068,-3.526 -10.386,-5.387 -13.774,-5.934 l -2.278,-0.367 0.572,1.518 m 128.125,1.251 c 0.423,2.307 0.727,2.742 0.716,1.025 -0.004,-0.71 -0.244,-1.653 -0.534,-2.094 -0.37,-0.564 -0.424,-0.247 -0.182,1.069 m 99.687,2.898 c -3.579,4.957 -5.214,9.834 -4.526,13.501 0.349,1.857 -0.026,1.743 8.638,2.62 l 3.343,0.338 v -6.501 c 0,-4.778 -0.164,-6.4 -0.618,-6.12 -0.386,0.239 -0.472,0.146 -0.228,-0.248 0.486,-0.786 -0.988,-5.257 -2.292,-6.953 l -0.975,-1.267 -3.342,4.63 M 36.44,296.524 c 0.005,1.116 1.422,5.214 1.479,4.278 0.018,-0.294 -0.309,-1.618 -0.726,-2.941 -0.417,-1.324 -0.756,-1.925 -0.753,-1.337 m 92.463,2.064 c 0.583,0.988 1.555,2.244 2.159,2.791 0.71,0.642 0.471,0.018 -0.677,-1.765 -1.959,-3.046 -3.166,-3.882 -1.482,-1.026 m 72.611,2.08 c -0.255,4.914 -0.163,10.437 0.164,9.908 0.392,-0.634 0.533,-11.646 0.149,-11.646 -0.122,0 -0.263,0.783 -0.313,1.738 m -9.666,0.134 c 0.14,0.735 0.348,1.337 0.46,1.337 0.113,0 0.205,-0.602 0.205,-1.337 0,-0.735 -0.207,-1.337 -0.46,-1.337 -0.254,0 -0.346,0.602 -0.205,1.337 m 161.141,0.854 c -0.363,1.209 -0.797,2.595 -0.967,3.079 -0.202,0.579 -0.129,0.697 0.216,0.345 0.608,-0.622 1.952,-5.079 1.628,-5.403 -0.12,-0.12 -0.515,0.771 -0.877,1.979 m -309.914,0.733 c 0.427,1.02 0.803,2.524 0.837,3.342 0.043,1.021 0.143,1.174 0.319,0.488 0.308,-1.197 -0.87,-5.684 -1.492,-5.684 -0.241,0 -0.09,0.834 0.336,1.854 m -4.781,0.552 c 0.44,1.966 0.746,2.393 0.735,1.025 -0.004,-0.564 -0.252,-1.386 -0.551,-1.827 -0.396,-0.586 -0.446,-0.369 -0.184,0.802 m 94.594,0.802 c 0.532,0.589 1.059,1.07 1.171,1.07 0.112,0 -0.054,-0.481 -0.369,-1.07 -0.315,-0.588 -0.842,-1.069 -1.171,-1.069 -0.33,0 -0.164,0.481 0.369,1.069 m 59.468,2.006 c 0.367,3.789 0.603,3.983 0.65,0.534 0.023,-1.691 -0.169,-3.074 -0.427,-3.074 -0.258,0 -0.358,1.143 -0.223,2.54 m -79.322,-0.586 -3.276,1.389 3.276,5.491 c 1.802,3.021 3.494,5.36 3.76,5.198 0.266,-0.162 0.313,-0.018 0.105,0.319 -0.281,0.454 2.406,6.223 3.734,8.018 0.173,0.234 12.156,-0.97 12.437,-1.25 0.703,-0.703 -5.637,-8.844 -12.584,-16.158 l -4.176,-4.396 -3.276,1.389 m 21.723,2.054 c 0.69,0.734 1.372,1.217 1.516,1.073 0.355,-0.355 -1.541,-2.408 -2.224,-2.408 -0.3,0 0.019,0.601 0.708,1.335 m 123.264,-0.646 c -4.139,5.017 -8.465,8.937 -9.861,8.937 -0.283,0 -0.706,0.326 -0.941,0.724 -0.235,0.398 -0.99,1.019 -1.677,1.38 -0.687,0.361 -1.123,0.782 -0.969,0.936 0.154,0.154 2.039,-0.939 4.19,-2.429 4.303,-2.98 11.831,-10.249 10.581,-10.216 -0.433,0.011 -1.028,0.312 -1.323,0.668 m 98.434,0.686 c -0.196,0.784 -0.254,1.528 -0.128,1.655 0.126,0.126 0.39,-0.412 0.587,-1.196 0.196,-0.784 0.254,-1.528 0.128,-1.654 -0.126,-0.126 -0.39,0.412 -0.587,1.195 M 44.423,308.12 c -0.048,1.133 0.974,3.88 1.316,3.538 0.14,-0.14 -0.09,-1.196 -0.512,-2.346 -0.422,-1.151 -0.784,-1.687 -0.804,-1.192 m 98.039,5.934 c 2.969,2.876 6.121,5.595 7.003,6.042 1.462,0.739 1.51,0.737 0.535,-0.024 -0.588,-0.459 -2.393,-2.033 -4.011,-3.497 -6.719,-6.082 -8.566,-7.402 -3.527,-2.521 m 207.485,-2.423 c -0.618,1.691 -1.309,3.556 -1.536,4.144 l -0.414,1.07 0.786,-1.07 c 1.041,-1.415 2.72,-5.918 2.478,-6.645 -0.106,-0.316 -0.697,0.809 -1.314,2.501 m -157.112,-0.58 c 0.492,2.049 0.748,2.243 0.748,0.567 0,-0.767 -0.25,-1.549 -0.556,-1.738 -0.365,-0.226 -0.431,0.178 -0.192,1.171 m 162.551,-0.05 c -0.197,0.783 -0.255,1.528 -0.129,1.654 0.126,0.126 0.39,-0.412 0.587,-1.196 0.197,-0.784 0.255,-1.528 0.129,-1.654 -0.126,-0.126 -0.391,0.412 -0.587,1.196 m -314.705,1.106 c -0.021,0.336 0.437,1.659 1.018,2.942 0.582,1.282 1.046,1.97 1.03,1.529 -0.035,-1.017 -1.994,-5.293 -2.048,-4.471 m 152.962,4.362 c 0.055,1.824 0.322,3.317 0.593,3.317 0.461,0 0.03,-5.839 -0.472,-6.392 -0.121,-0.133 -0.175,1.25 -0.121,3.075 m 6.298,2.782 c -0.23,2.949 -0.113,3.639 0.77,4.546 0.572,0.588 0.838,0.713 0.591,0.277 -0.247,-0.436 -0.593,-2.482 -0.77,-4.546 l -0.321,-3.753 -0.27,3.476 m 146.468,0.667 c -0.748,1.545 -1.507,3.411 -1.687,4.146 -0.179,0.735 0.521,-0.44 1.557,-2.612 1.035,-2.173 1.794,-4.038 1.686,-4.146 -0.108,-0.108 -0.808,1.067 -1.556,2.612 M 43.405,319.279 c 0.313,0.897 0.668,1.532 0.789,1.411 0.265,-0.265 -0.744,-3.043 -1.105,-3.043 -0.139,0 0.003,0.734 0.316,1.632 m 198.559,1.539 c -0.58,0.567 -3.214,2.145 -5.853,3.506 -5.159,2.66 -6.258,3.365 -3.782,2.423 4.739,-1.802 13.221,-6.924 11.506,-6.949 -0.449,-0.007 -1.291,0.452 -1.871,1.02 m 32.902,1.158 c -6.775,4.937 -8.851,7.57 -13.412,17.015 -2.332,4.827 -4.178,8.831 -4.103,8.899 0.074,0.067 2.061,0.651 4.414,1.298 2.353,0.647 6.433,2.227 9.068,3.512 2.635,1.285 4.826,2.286 4.87,2.225 0.576,-0.807 2.261,-7.078 2.01,-7.484 -0.209,-0.338 -0.069,-0.381 0.363,-0.114 0.523,0.323 0.625,0.14 0.4,-0.72 -0.193,-0.739 -0.097,-1.028 0.268,-0.802 0.364,0.225 0.46,-0.063 0.267,-0.802 -0.166,-0.635 -0.111,-1.036 0.123,-0.892 0.982,0.607 1.677,-8.197 1.085,-13.754 -0.467,-4.382 -1.85,-10.67 -2.321,-10.547 -0.05,0.013 -1.414,0.988 -3.032,2.166 m -81.809,0.751 c -1.792,2.884 -1.961,3.431 -0.641,2.06 0.609,-0.632 1.385,-1.241 1.724,-1.354 0.34,-0.113 0.534,-0.8 0.431,-1.525 -0.176,-1.249 -0.257,-1.205 -1.514,0.819 m 157.3,-0.294 c -0.313,0.897 -0.455,1.631 -0.316,1.631 0.361,0 1.37,-2.778 1.105,-3.042 -0.121,-0.122 -0.476,0.513 -0.789,1.411 m -195.812,0.537 c 0,0.44 6.963,3.937 7.253,3.644 0.078,-0.079 -1.522,-1.034 -3.556,-2.123 -2.033,-1.088 -3.697,-1.773 -3.697,-1.521 m 134.062,-0.111 c -4.655,0.155 -5.214,0.278 -4.973,1.091 0.149,0.504 0.768,2.899 1.377,5.323 l 1.105,4.407 -1.37,5.952 c -1.662,7.213 -2.036,6.843 4.358,4.312 2.905,-1.149 6.244,-2.4 7.42,-2.78 6.259,-2.021 17.762,-9.366 22.345,-14.268 l 1.49,-1.593 -3.361,-0.893 c -6.448,-1.713 -12.932,-2.068 -28.391,-1.551 m -237.26,2.999 c -0.006,0.546 0.709,2.058 1.589,3.361 0.879,1.303 1.745,2.952 1.924,3.665 0.179,0.713 0.663,1.577 1.075,1.919 0.412,0.342 0.751,0.893 0.752,1.225 0.002,0.332 0.618,1.325 1.371,2.207 0.996,1.169 0.713,0.37 -1.044,-2.941 -4.587,-8.643 -5.658,-10.425 -5.667,-9.436 m 149.861,1.469 c -0.605,1.615 -0.589,1.695 0.185,0.921 0.467,-0.467 0.766,-1.263 0.664,-1.769 -0.128,-0.634 -0.392,-0.37 -0.849,0.848 m 139.226,5.21 c -2.027,3.723 -4.256,7.67 -4.954,8.773 -0.699,1.103 -1.019,2.006 -0.711,2.006 0.307,0 0.72,-0.422 0.918,-0.936 0.197,-0.515 1.513,-2.898 2.924,-5.295 1.411,-2.398 2.565,-4.603 2.565,-4.902 0,-0.299 0.181,-0.623 0.402,-0.721 0.455,-0.203 2.941,-5.307 2.698,-5.54 -0.087,-0.084 -1.816,2.893 -3.842,6.615 M 227.86,328.104 c -1,0.434 -1.685,0.923 -1.521,1.087 0.164,0.164 1.223,-0.19 2.354,-0.786 2.385,-1.259 1.833,-1.458 -0.833,-0.301 m -140.824,1.709 -1.952,2.005 1.71,2.269 c 2.823,3.749 10.594,8.242 19.713,11.399 3.21,1.111 5.406,2.115 4.879,2.23 -1.937,0.424 6.322,1.016 9.185,0.659 1.627,-0.204 2.958,-0.449 2.958,-0.545 0,-0.096 -0.463,-0.971 -1.03,-1.944 -0.566,-0.973 -1.921,-4.776 -3.011,-8.453 -1.089,-3.676 -2.135,-6.858 -2.324,-7.07 -0.245,-0.276 -24.829,-2.527 -27.884,-2.553 -0.161,-10e-4 -1.171,0.9 -2.244,2.003 m 79.809,-0.692 c 0.735,0.433 1.686,0.796 2.112,0.807 1.262,0.03 -0.074,-0.878 -1.845,-1.254 l -1.604,-0.34 1.337,0.787 m -118.467,1.326 c 0.447,0.864 1.055,1.721 1.352,1.904 0.296,0.184 0.034,-0.523 -0.584,-1.57 -1.354,-2.296 -1.906,-2.535 -0.768,-0.334 m 176.514,-1.076 c -0.168,0.271 -1.085,0.663 -2.037,0.87 -1.522,0.331 -4.396,1.845 -3.503,1.845 0.92,0 6.316,-2.348 6.316,-2.748 0,-0.605 -0.393,-0.588 -0.776,0.033 m -50.026,2.114 c 0,0.733 6.904,2.182 11.498,2.412 l 4.812,0.242 -4.545,-0.516 c -2.5,-0.283 -6.17,-0.958 -8.155,-1.499 -1.985,-0.542 -3.61,-0.829 -3.61,-0.639 m 41.048,0.907 c -0.168,0.169 -1.953,0.517 -3.966,0.773 l -3.659,0.466 3.896,-0.168 c 3.658,-0.158 4.928,-0.485 4.303,-1.11 -0.147,-0.147 -0.405,-0.129 -0.574,0.039 m -19.39,1.833 -5.348,0.327 5.482,0.104 c 3.366,0.063 5.481,-0.103 5.481,-0.431 0,-0.295 -0.06,-0.489 -0.134,-0.432 -0.073,0.057 -2.54,0.251 -5.481,0.432 m 8.161,-0.157 c 0.666,0.128 1.628,0.123 2.139,-0.011 0.512,-0.134 -0.033,-0.238 -1.209,-0.232 -1.176,0.006 -1.595,0.115 -0.93,0.243 m -153.348,1.541 c 0,1.275 10.257,17.332 11.071,17.332 0.157,0 -0.388,-0.884 -1.212,-1.964 -0.824,-1.08 -3.379,-5.097 -5.678,-8.926 -2.3,-3.83 -4.181,-6.729 -4.181,-6.442 m 79.406,4.484 c 1.619,3.783 1.877,4.969 1.877,8.617 0,3.689 0.121,4.231 0.945,4.231 2.033,0 18.027,-1.146 18.184,-1.303 0.353,-0.353 -2.353,-4.45 -4.877,-7.384 -3.785,-4.401 -9.308,-7.326 -15.461,-8.191 l -2.546,-0.357 1.878,4.387 m 212.305,-2.66 c -0.456,0.883 -0.709,1.604 -0.562,1.604 0.147,0 0.641,-0.721 1.097,-1.604 0.456,-0.882 0.709,-1.604 0.562,-1.604 -0.147,0 -0.641,0.722 -1.097,1.604 m -282.62,4.553 c 0,0.555 2.419,3.99 2.815,3.997 0.225,0.003 -0.228,-0.956 -1.007,-2.133 -1.333,-2.014 -1.808,-2.504 -1.808,-1.864 m 242.032,0.578 c -3.481,0.842 -10.06,3.879 -9.692,4.474 0.128,0.207 -0.057,0.382 -0.412,0.387 -0.477,0.007 -10.315,5.883 -11.511,6.874 -0.093,0.078 1.591,1.533 3.744,3.233 2.152,1.701 5.545,4.522 7.539,6.271 3.507,3.076 3.659,3.149 4.666,2.237 0.573,-0.518 0.89,-1.188 0.704,-1.488 -0.188,-0.304 -0.075,-0.384 0.254,-0.181 1.439,0.889 12.509,-14.247 11.552,-15.795 -0.217,-0.351 -0.144,-0.468 0.171,-0.273 0.448,0.277 2.29,-4.731 2.29,-6.226 0,-0.627 -5.997,-0.314 -9.305,0.487 m 30.181,3.263 c -2.38,4.131 -2.432,4.256 -1.443,3.439 0.488,-0.404 0.888,-0.968 0.888,-1.254 0,-0.287 0.507,-1.233 1.127,-2.105 0.621,-0.871 1.009,-1.703 0.864,-1.848 -0.146,-0.146 -0.792,0.65 -1.436,1.768 m -84.387,-0.34 c -2.492,0.491 -2.463,0.478 -6.145,2.815 -3.468,2.202 -6.424,7.432 -10.33,18.276 -3.728,10.35 -2.903,9.464 -10.425,11.187 -6.016,1.377 -12.756,5.739 -11.475,7.426 0.155,0.204 0.118,0.247 -0.083,0.096 -0.408,-0.309 -3.379,2.371 -3.379,3.048 0,0.239 1.399,0.435 3.109,0.435 h 3.108 l 5.089,5.214 5.088,5.214 3.002,-3.521 3.002,-3.521 -3.712,-3.684 c -2.042,-2.026 -3.713,-3.823 -3.713,-3.994 0,-0.871 5.546,-2.235 7.655,-1.882 1.231,0.206 2.66,0.408 3.174,0.448 0.515,0.04 0.936,0.229 0.936,0.419 0,0.504 10.461,4.592 14.483,5.66 7.302,1.94 15.588,1.056 21.949,-2.339 l 2.475,-1.321 -2.208,-1.984 c -6.44,-5.788 -8.84,-6.715 -18.858,-7.285 l -6.491,-0.369 1.292,-3.18 c 0.711,-1.749 1.128,-3.445 0.927,-3.77 -0.201,-0.326 -0.123,-0.442 0.174,-0.258 1.465,0.906 5.508,-14.425 5.508,-20.889 0,-3.112 0.071,-3.074 -4.152,-2.241 m -129.127,2.489 c -0.803,0.122 -2.247,0.124 -3.208,0.005 -0.961,-0.119 -0.304,-0.219 1.461,-0.222 1.764,-0.003 2.551,0.095 1.747,0.217 m 40.558,1.021 c 2.748,11.076 6.729,19.024 12.042,24.036 l 2.875,2.713 -9.627,-0.029 c -13.305,-0.04 -27,3.44 -24.494,6.225 7.595,8.441 24.784,9.955 43.01,3.79 3.415,-1.155 4.585,-1.316 7.191,-0.991 l 3.112,0.389 -2.262,1.878 c -1.932,1.605 -2.161,2.002 -1.576,2.725 0.417,0.515 0.444,0.702 0.07,0.477 -0.741,-0.443 -6.226,5.691 -5.655,6.324 0.214,0.236 0.104,0.266 -0.243,0.067 -1.456,-0.834 -1.144,0.885 0.694,3.826 l 1.969,3.149 6.111,-6.522 c 3.361,-3.588 7.18,-7.416 8.486,-8.508 1.317,-1.101 2.215,-2.244 2.015,-2.567 -0.198,-0.321 -0.123,-0.437 0.166,-0.258 0.289,0.179 1.943,-1.108 3.675,-2.859 1.739,-1.757 2.798,-3.188 2.365,-3.194 -2.774,-0.042 -19.465,-2.148 -19.801,-2.499 -0.226,-0.237 -2.033,-3.423 -4.015,-7.079 -4.37,-8.061 -6.467,-10.878 -10.659,-14.316 -3.686,-3.022 -7.992,-5.626 -8.486,-5.131 -0.186,0.185 -0.338,0.076 -0.338,-0.244 0,-0.319 -1.263,-0.996 -2.807,-1.503 -1.544,-0.508 -3.121,-1.039 -3.503,-1.181 -0.521,-0.192 -0.6,0.131 -0.315,1.282 m -93.649,1.137 c 1.787,3.195 2.135,3.642 6.222,7.997 0.772,0.822 1.827,2.337 2.345,3.366 0.519,1.03 1.263,2.06 1.654,2.289 0.391,0.229 1.85,1.914 3.243,3.743 1.394,1.83 2.869,3.532 3.28,3.783 0.41,0.251 1.264,1.066 1.898,1.809 1.951,2.293 2.604,2.877 2.893,2.587 0.153,-0.153 -1.74,-2.404 -4.208,-5.003 -2.467,-2.599 -5.562,-6.155 -6.877,-7.902 -1.315,-1.748 -3.496,-4.501 -4.848,-6.119 -1.351,-1.617 -3.264,-4.084 -4.251,-5.481 -1.997,-2.829 -2.604,-3.31 -1.351,-1.069 m 269.31,0.968 c -0.618,1.047 -0.88,1.753 -0.584,1.57 0.58,-0.358 2.316,-3.474 1.936,-3.474 -0.126,0 -0.734,0.857 -1.352,1.904 m -233.25,2.705 c 1.27,1.436 2.522,2.55 2.781,2.476 0.259,-0.073 0.41,0.099 0.337,0.382 -0.074,0.284 1.671,2.67 3.877,5.302 l 4.011,4.787 2.527,-2.462 c 1.391,-1.355 2.415,-2.576 2.276,-2.715 -0.255,-0.255 2.24,-3.823 3.079,-4.403 0.495,-0.343 -10.27,-3.335 -11.109,-3.088 -0.284,0.083 -0.998,-0.105 -1.586,-0.419 -0.588,-0.315 -2.273,-0.858 -3.744,-1.208 -1.47,-0.35 -3.143,-0.777 -3.716,-0.949 -0.728,-0.218 -0.345,0.476 1.267,2.297 m 223.704,2.647 c -1.543,1.885 -2.805,3.527 -2.805,3.648 0,0.442 3.028,-2.67 4.509,-4.635 2.562,-3.4 1.278,-2.655 -1.704,0.987 m 5.244,1.183 c -1.014,1.388 -2.338,2.939 -2.941,3.447 -0.604,0.509 -0.826,0.93 -0.495,0.936 0.654,0.013 5.547,-5.691 5.547,-6.466 0,-0.747 -0.156,-0.593 -2.111,2.083 m -263.923,1.989 c 5.242,6.613 11.154,13.615 11.339,13.429 0.112,-0.112 -0.548,-1.013 -1.466,-2.003 -0.918,-0.991 -2.019,-2.462 -2.447,-3.271 -0.428,-0.809 -0.979,-1.471 -1.225,-1.471 -0.245,0 -1.811,-1.782 -3.48,-3.96 -1.668,-2.178 -3.44,-4.283 -3.937,-4.679 -0.497,-0.396 0.05,0.484 1.216,1.955 m 189.029,6.163 v 7.05 l 8.422,-0.224 c 8.456,-0.226 14.846,-1.739 16.302,-3.861 0.216,-0.315 0.397,-0.378 0.401,-0.141 0.011,0.546 3.217,-1.32 3.217,-1.873 0,-1.36 -10.088,-4.652 -19.251,-6.282 -3.383,-0.602 -6.812,-1.235 -7.621,-1.407 l -1.47,-0.312 v 7.05 m -116.708,-4.297 c -5.296,0.941 -17.871,5.854 -17.116,6.687 0.221,0.243 0.102,0.27 -0.263,0.06 -0.365,-0.211 -1.062,-0.16 -1.549,0.113 -0.737,0.412 -0.493,0.722 1.466,1.858 9.661,5.602 26.504,4.04 35.17,-3.261 l 1.802,-1.518 -5.011,-1.914 c -5.453,-2.082 -10.338,-2.765 -14.499,-2.025 m 180.415,1.525 c -5.003,5.291 -11.353,12.384 -11.087,12.384 0.507,0 5.889,-5.484 8.104,-8.257 1.16,-1.454 2.952,-3.432 3.982,-4.398 1.029,-0.965 1.662,-1.761 1.407,-1.769 -0.255,-0.008 -1.338,0.91 -2.406,2.04 m -202.21,-1.361 c 0,0.088 -1.023,1.11 -2.273,2.273 l -2.272,2.114 2.113,-2.273 c 1.966,-2.114 2.432,-2.518 2.432,-2.114 m 199.041,12.274 c -3.138,3.501 -6.054,6.429 -9.335,9.374 -1.397,1.254 -2.54,2.41 -2.54,2.57 0,0.374 7.374,-6.132 8.502,-7.501 0.471,-0.572 2.156,-2.437 3.745,-4.145 1.589,-1.708 2.722,-3.105 2.517,-3.105 -0.204,0 -1.504,1.263 -2.889,2.807 m -235.894,1.738 c 1.201,1.827 3.36,4.061 5.035,5.209 1.481,1.016 1.461,0.961 -0.268,-0.717 -1.029,-1 -2.681,-2.66 -3.671,-3.689 -0.99,-1.03 -1.483,-1.391 -1.096,-0.803 m 7.976,1.065 c 1.431,1.882 3.918,4.08 8.289,7.325 0.294,0.218 1.377,1.085 2.406,1.925 1.03,0.841 3.556,2.706 5.615,4.145 2.059,1.439 3.864,2.745 4.011,2.902 0.147,0.157 0.869,0.623 1.604,1.036 0.735,0.412 1.939,1.118 2.674,1.568 2.818,1.726 0.071,-0.432 -4.011,-3.15 -2.353,-1.566 -4.551,-3.118 -4.885,-3.449 -0.334,-0.33 -2.319,-1.906 -4.412,-3.502 -2.092,-1.596 -3.804,-3.085 -3.804,-3.308 0,-0.224 -0.274,-0.407 -0.609,-0.407 -0.335,0 -2.2,-1.381 -4.145,-3.07 -1.944,-1.688 -3.174,-2.595 -2.733,-2.015 m 215.993,2.278 c -1.916,1.691 -5.566,4.639 -8.112,6.55 -2.545,1.912 -4.637,3.694 -4.65,3.96 -0.012,0.267 0.418,0.086 0.956,-0.401 0.537,-0.486 1.146,-0.885 1.353,-0.885 0.206,0 1.992,-1.336 3.968,-2.97 1.977,-1.634 4.971,-4.101 6.654,-5.482 2.518,-2.066 4.117,-3.847 3.453,-3.847 -0.076,0 -1.705,1.384 -3.622,3.075 m -216.528,3.495 c 0,0.138 1.374,1.424 3.053,2.857 1.68,1.433 2.882,2.326 2.673,1.985 -0.459,-0.747 -5.726,-5.201 -5.726,-4.842 m 7.993,6.982 c 1.013,1.076 1.93,1.956 2.036,1.956 0.481,0 -1.503,-2.323 -2.627,-3.075 -0.827,-0.553 -0.627,-0.174 0.591,1.119 m 203.509,0.347 c -0.53,0.585 -2.03,1.69 -3.333,2.453 -1.304,0.764 -2.26,1.5 -2.125,1.635 0.325,0.325 4.665,-2.621 5.946,-4.037 0.556,-0.614 0.89,-1.116 0.743,-1.116 -0.147,0 -0.701,0.479 -1.231,1.065 m -13.806,3.436 c -2.885,1.873 -5.412,3.581 -5.615,3.796 -0.877,0.927 4.679,-2.214 7.372,-4.169 5.889,-4.273 5.162,-4.118 -1.757,0.373 M 99.18,391.95 c 0.378,0.612 4.612,3.504 6.296,4.301 1.069,0.505 1.056,0.462 -0.115,-0.38 -0.728,-0.523 -2.354,-1.733 -3.614,-2.689 -2.321,-1.761 -3.135,-2.152 -2.567,-1.232 m 17.645,5.88 c 0.194,0.312 1.481,1.078 2.86,1.7 1.379,0.623 2.929,1.353 3.443,1.622 0.515,0.27 0.936,0.364 0.936,0.21 0,-0.153 -1.708,-1.139 -3.795,-2.19 -2.087,-1.051 -3.637,-1.655 -3.444,-1.342 m 161.112,0.52 c -2.038,1.306 -2.289,1.625 -1.019,1.293 0.598,-0.156 1.501,-0.742 2.007,-1.301 1.112,-1.228 0.938,-1.227 -0.988,0.008 m -167.777,0.804 c 0,0.113 0.843,0.703 1.872,1.31 1.029,0.607 1.872,0.916 1.872,0.687 0,-0.23 -0.843,-0.82 -1.872,-1.311 -1.029,-0.491 -1.872,-0.8 -1.872,-0.686 m 173.008,1.361 c -0.175,0.283 -1.814,1.381 -3.642,2.44 -1.827,1.059 -2.735,1.759 -2.016,1.556 0.719,-0.204 2.523,-1.216 4.011,-2.249 3.341,-2.32 3.275,-2.262 2.557,-2.262 -0.326,0 -0.736,0.232 -0.91,0.515 m -157.953,1.915 c 0.486,0.497 1.175,0.806 1.531,0.687 0.356,-0.119 -0.041,-0.525 -0.883,-0.903 -1.434,-0.642 -1.475,-0.628 -0.648,0.216 m 140.581,2.415 c -5.997,2.883 -6.233,3.024 -5.793,3.465 0.277,0.276 10.312,-4.771 11.361,-5.714 0.888,-0.799 0.153,-0.502 -5.568,2.249 m -143.871,0.743 c 0,0.147 0.722,0.64 1.604,1.096 0.883,0.457 1.605,0.71 1.605,0.563 0,-0.147 -0.722,-0.641 -1.605,-1.097 -0.882,-0.457 -1.604,-0.71 -1.604,-0.562 m 150.802,0.968 c -2.013,0.966 -5.094,3.174 -3.466,2.484 1.622,-0.688 6.14,-3.215 6.14,-3.434 0,-0.343 0.078,-0.371 -2.674,0.95 m -136.898,0.121 c 0,0.308 3.02,1.607 4.859,2.091 0.71,0.187 -0.004,-0.266 -1.585,-1.006 -3.038,-1.421 -3.274,-1.499 -3.274,-1.085 m -5.08,3.189 c 1.47,0.714 2.914,1.302 3.208,1.307 0.807,0.014 -3.013,-1.898 -4.545,-2.275 -0.736,-0.182 -0.134,0.254 1.337,0.968 m 11.806,-0.253 c 0.574,0.574 6.46,2.698 7.395,2.668 0.526,-0.016 -7.1,-3.183 -7.677,-3.188 -0.133,-0.001 -0.006,0.233 0.282,0.52 m 110.252,0.175 c -1.102,0.308 -2.005,0.74 -2.005,0.958 0,0.489 3.816,-0.499 4.519,-1.17 0.612,-0.584 0.208,-0.55 -2.514,0.212 m 12.835,0.409 c -1.103,0.582 -2.006,1.178 -2.006,1.324 0,0.238 4.224,-1.736 4.769,-2.228 0.615,-0.557 -0.991,-0.032 -2.763,0.904 m -19.252,1.402 c -0.514,0.134 -0.935,0.476 -0.935,0.758 0,0.317 0.359,0.33 0.935,0.034 0.515,-0.265 1.297,-0.616 1.738,-0.779 1.037,-0.385 -0.279,-0.395 -1.738,-0.013 m -95.526,0.919 c 0.512,0.546 7.479,2.44 7.176,1.951 -0.147,-0.238 -1.415,-0.715 -2.817,-1.058 -1.402,-0.344 -3.03,-0.764 -3.619,-0.935 -0.588,-0.17 -0.921,-0.151 -0.74,0.042 m 91.248,0.478 c -1.103,0.309 -2.005,0.74 -2.005,0.959 0,0.489 3.816,-0.5 4.519,-1.17 0.612,-0.585 0.207,-0.551 -2.514,0.211 m -99.922,1.491 c 1.293,0.574 2.446,0.948 2.563,0.832 0.231,-0.231 -3.89,-1.974 -4.523,-1.912 -0.215,0.021 0.667,0.507 1.96,1.08 m 16.901,0.339 c 0.789,0.803 3.476,1.338 3.476,0.692 0,-0.3 -0.462,-0.545 -1.026,-0.545 -0.564,0 -1.467,-0.155 -2.005,-0.346 -0.661,-0.233 -0.806,-0.169 -0.445,0.199 m 92.781,0.415 c -1.747,0.998 -1.136,1.009 1.141,0.021 0.99,-0.43 1.439,-0.783 0.998,-0.784 -0.441,-0.001 -1.404,0.342 -2.139,0.763 m -87.949,0.776 c 0.872,0.353 3.442,0.814 6.608,1.184 1.958,0.229 0.633,-0.35 -2.082,-0.91 -4.159,-0.858 -6.284,-0.986 -4.526,-0.274 m 8.849,1.286 c 0.592,0.507 3.721,0.813 3.426,0.336 -0.179,-0.29 -1.073,-0.527 -1.987,-0.527 -0.914,0 -1.562,0.086 -1.439,0.191 m 46.479,0.37 c -0.901,0.307 -0.466,0.354 1.337,0.146 1.471,-0.17 2.774,-0.398 2.897,-0.508 0.421,-0.376 -2.898,-0.092 -4.234,0.362 m -38.993,0.702 c 0.613,0.53 4.769,0.833 4.769,0.348 0,-0.298 -1.123,-0.541 -2.496,-0.541 -1.372,0 -2.395,0.087 -2.273,0.193 m 32.71,0.19 c 0.809,0.122 2.132,0.122 2.941,0 0.809,-0.123 0.147,-0.223 -1.47,-0.223 -1.618,0 -2.28,0.1 -1.471,0.223 m -23.262,0.538 c 0.956,0.119 2.52,0.119 3.476,0 0.956,-0.118 0.174,-0.215 -1.738,-0.215 -1.912,0 -2.694,0.097 -1.738,0.215 m 14.973,0.005 c 1.25,0.113 3.296,0.113 4.546,0 1.25,-0.112 0.227,-0.205 -2.273,-0.205 -2.5,0 -3.523,0.093 -2.273,0.205 m -45.053,0.653 c 1.026,0.465 3.89,0.768 3.431,0.363 -0.123,-0.108 -1.185,-0.343 -2.362,-0.522 -1.491,-0.227 -1.815,-0.179 -1.069,0.159 m 19.652,3.602 c 0.515,0.135 1.357,0.135 1.872,0 0.514,-0.134 0.093,-0.244 -0.936,-0.244 -1.03,0 -1.451,0.11 -0.936,0.244 m 35.562,0.009 c 0.661,0.128 1.744,0.128 2.406,0 0.662,-0.127 0.12,-0.232 -1.203,-0.232 -1.324,0 -1.865,0.105 -1.203,0.232 m -27.794,0.55 c 1.258,0.113 3.183,0.111 4.278,-0.004 1.095,-0.115 0.066,-0.207 -2.287,-0.205 -2.353,0.002 -3.249,0.096 -1.991,0.209 m 11.617,0.142 -4.813,0.333 4.011,0.041 c 2.206,0.023 6.297,-0.134 9.091,-0.347 l 5.08,-0.389 -4.278,0.015 c -2.353,0.008 -6.444,0.164 -9.091,0.347"
       inkscape:connector-curvature="0"
       style="fill:#b7b5b7;fill-rule:evenodd;stroke:none" />
  </g>
</svg>
