<?xml version="1.0" encoding="UTF-8" standalone="no"?>
<svg
   xmlns:dc="http://purl.org/dc/elements/1.1/"
   xmlns:cc="http://creativecommons.org/ns#"
   xmlns:rdf="http://www.w3.org/1999/02/22-rdf-syntax-ns#"
   xmlns:svg="http://www.w3.org/2000/svg"
   xmlns="http://www.w3.org/2000/svg"
   xmlns:sodipodi="http://sodipodi.sourceforge.net/DTD/sodipodi-0.dtd"
   xmlns:inkscape="http://www.inkscape.org/namespaces/inkscape"
   id="svg"
   version="1.1"
   width="338.00177"
   height="355.11313"
   style="display:block"
   sodipodi:docname="ula-mono.svg"
   inkscape:version="0.92.1 r15371">
  <metadata
     id="metadata9">
    <rdf:RDF>
      <cc:Work
         rdf:about="">
        <dc:format>image/svg+xml</dc:format>
        <dc:type
           rdf:resource="http://purl.org/dc/dcmitype/StillImage" />
        <dc:title></dc:title>
      </cc:Work>
    </rdf:RDF>
  </metadata>
  <defs
     id="defs7" />
  <sodipodi:namedview
     pagecolor="#ffffff"
     bordercolor="#666666"
     borderopacity="1"
     objecttolerance="10"
     gridtolerance="10"
     guidetolerance="10"
     inkscape:pageopacity="0"
     inkscape:pageshadow="2"
     inkscape:window-width="690"
     inkscape:window-height="480"
     id="namedview5"
     showgrid="false"
     fit-margin-top="0"
     fit-margin-left="0"
     fit-margin-right="0"
     fit-margin-bottom="0"
     inkscape:zoom="0.118"
     inkscape:cx="968.32919"
     inkscape:cy="-620.64417"
     inkscape:window-x="0"
     inkscape:window-y="0"
     inkscape:window-maximized="0"
     inkscape:current-layer="svg" />
  <g
     id="svgg"
     transform="translate(-31.670808,-24.242691)">
    <path
       id="path0"
       d="m 359.98,24.701 c -0.374,0.275 -1.31,0.814 -2.08,1.198 -0.77,0.384 -1.67,0.925 -2,1.202 -0.33,0.278 -1.209,0.688 -1.954,0.911 -0.75,0.226 -1.646,0.663 -2.008,0.981 -0.359,0.316 -1.216,0.764 -1.905,0.996 -0.688,0.231 -1.6,0.674 -2.028,0.984 -0.427,0.31 -1.346,0.769 -2.041,1.022 -0.695,0.252 -1.624,0.714 -2.064,1.027 -0.44,0.313 -1.3,0.74 -1.912,0.95 -0.612,0.209 -1.812,0.751 -2.667,1.204 -0.855,0.453 -1.687,0.824 -1.848,0.824 -0.394,0 -1.476,0.558 -1.988,1.025 -0.228,0.208 -1.218,0.608 -2.2,0.889 -0.982,0.281 -2.162,0.776 -2.622,1.101 -0.471,0.333 -1.49,0.754 -2.332,0.965 -0.822,0.205 -2.021,0.694 -2.663,1.086 -0.642,0.392 -1.864,0.887 -2.714,1.102 -0.85,0.214 -1.954,0.659 -2.452,0.989 -0.503,0.333 -1.525,0.74 -2.295,0.914 -0.763,0.173 -1.934,0.589 -2.602,0.926 -0.667,0.337 -2.013,0.827 -2.99,1.089 -0.978,0.261 -2.176,0.709 -2.664,0.995 -0.497,0.291 -1.826,0.726 -3.026,0.991 -1.344,0.296 -2.304,0.621 -2.582,0.875 -0.669,0.609 -1.091,0.774 -2.923,1.141 -0.923,0.185 -2.185,0.592 -2.804,0.904 -0.618,0.312 -2.067,0.763 -3.22,1.002 -1.153,0.239 -2.596,0.691 -3.207,1.004 -0.61,0.313 -1.825,0.716 -2.7,0.895 -1.952,0.401 -3.094,0.738 -4.367,1.292 -0.538,0.233 -1.798,0.566 -2.8,0.739 -1.797,0.309 -2.21,0.43 -4.262,1.251 -0.573,0.229 -2.101,0.603 -3.396,0.831 -1.295,0.229 -2.762,0.6 -3.26,0.825 -1.332,0.603 -1.852,0.736 -4.589,1.179 -1.367,0.221 -2.897,0.589 -3.4,0.816 -1.404,0.635 -1.907,0.757 -4.815,1.17 -1.505,0.214 -3.535,0.66 -4.586,1.008 -1.187,0.392 -2.978,0.767 -4.829,1.011 -1.619,0.213 -3.785,0.646 -4.814,0.962 -1.029,0.317 -2.726,0.682 -3.771,0.813 -4.762,0.594 -6.357,0.865 -7.776,1.32 -1.475,0.473 -2.414,0.61 -7.524,1.099 -1.32,0.126 -3.255,0.452 -4.3,0.725 -2.039,0.532 -3.54,0.723 -8.4,1.066 -1.705,0.121 -3.82,0.347 -4.7,0.502 -5.714,1.009 -8.185,1.256 -17,1.703 -3.945,0.2 -5.788,0.353 -13.2,1.097 -7.999,0.803 -51.574,0.742 -54.099,-0.076 C 123.217,73.102 121.751,73 120.343,73 118.935,73 117.134,72.872 116.342,72.716 115.549,72.559 113.865,72.38 112.6,72.318 99.549,71.675 97.532,71.494 94.387,70.686 93.775,70.529 92.93,70.4 92.51,70.4 c -0.421,0 -1.54,-0.087 -2.487,-0.194 -0.948,-0.107 -3.054,-0.291 -4.681,-0.41 -1.76,-0.129 -4.063,-0.458 -5.684,-0.812 -1.585,-0.347 -4.447,-0.759 -6.842,-0.986 -2.741,-0.26 -4.709,-0.557 -5.891,-0.888 -1.675,-0.469 -3.815,-0.815 -8.064,-1.305 -1.011,-0.116 -2.609,-0.435 -3.55,-0.707 -2.516,-0.73 -3.204,-0.862 -5.726,-1.099 -1.512,-0.143 -2.86,-0.41 -3.985,-0.791 -1.99,-0.673 -3.205,-0.927 -5.79,-1.212 -1.039,-0.115 -2.557,-0.347 -3.373,-0.515 -2.391,-0.494 -2.958,0.32 -2.758,3.964 0.069,1.24 0.217,7.115 0.331,13.055 0.113,5.94 0.278,14.58 0.367,19.2 0.098,5.147 0.248,8.71 0.387,9.2 0.125,0.44 0.229,1.977 0.231,3.415 0.005,2.845 0.064,3 1.396,3.689 0.893,0.462 6.391,1.571 8.87,1.788 7.675,0.675 7.008,0.594 10.939,1.329 2.203,0.413 6.342,0.817 11.065,1.082 2.29,0.128 4.45,0.322 4.8,0.429 1.514,0.467 8.224,1.085 14.935,1.376 7.563,0.327 11.397,0.562 12.6,0.771 0.605,0.106 2.328,0.198 3.829,0.206 1.562,0.009 3.357,0.142 4.2,0.313 4.145,0.839 66.682,0.773 70.371,-0.074 0.495,-0.114 2.115,-0.213 3.6,-0.22 1.485,-0.007 3.06,-0.109 3.5,-0.225 0.44,-0.117 2.375,-0.296 4.3,-0.399 1.925,-0.103 5.255,-0.28 7.4,-0.394 8.114,-0.43 9.315,-0.521 9.863,-0.75 0.31,-0.13 0.94,-0.238 1.4,-0.241 0.46,-0.002 1.197,-0.088 1.636,-0.19 0.752,-0.174 4.912,-0.546 11.144,-0.997 1.508,-0.109 3.128,-0.286 3.6,-0.394 2.184,-0.497 5.25,-1.008 7.257,-1.21 5.326,-0.535 7.777,-0.848 8.657,-1.105 1.459,-0.427 4.105,-0.861 6.743,-1.107 2.632,-0.246 3.982,-0.49 7.005,-1.267 1.102,-0.283 3.037,-0.606 4.3,-0.718 1.262,-0.111 2.79,-0.336 3.395,-0.501 3.663,-0.996 5.165,-1.321 7.343,-1.591 1.586,-0.196 2.856,-0.478 3.635,-0.806 0.659,-0.277 2.081,-0.645 3.16,-0.818 4.139,-0.664 5.33,-0.918 6.067,-1.293 0.884,-0.451 2.091,-0.744 4.14,-1.004 0.804,-0.102 2.383,-0.499 3.508,-0.883 1.126,-0.384 2.992,-0.888 4.147,-1.119 1.155,-0.231 2.64,-0.63 3.3,-0.886 1.694,-0.659 2.405,-0.858 4,-1.119 0.77,-0.126 2.165,-0.531 3.1,-0.901 0.935,-0.37 2.55,-0.855 3.59,-1.079 1.039,-0.224 2.479,-0.683 3.2,-1.02 0.72,-0.338 2.126,-0.778 3.124,-0.979 0.997,-0.201 2.363,-0.643 3.034,-0.982 0.671,-0.338 2.028,-0.792 3.015,-1.007 1.003,-0.219 2.268,-0.659 2.866,-0.996 0.589,-0.332 1.791,-0.772 2.671,-0.977 0.88,-0.206 1.87,-0.522 2.2,-0.703 1.232,-0.675 2.002,-0.986 3.58,-1.443 0.891,-0.259 2.025,-0.696 2.52,-0.973 0.495,-0.276 1.62,-0.692 2.5,-0.925 0.88,-0.233 1.93,-0.641 2.334,-0.905 0.403,-0.265 1.348,-0.675 2.1,-0.912 0.751,-0.237 1.906,-0.727 2.566,-1.088 0.66,-0.362 1.848,-0.854 2.641,-1.094 0.793,-0.24 1.828,-0.69 2.3,-1 0.472,-0.31 1.489,-0.753 2.259,-0.984 0.77,-0.23 1.788,-0.684 2.262,-1.007 0.473,-0.323 1.463,-0.784 2.2,-1.024 0.736,-0.241 1.729,-0.692 2.207,-1.003 0.479,-0.311 1.469,-0.761 2.2,-1.001 3.088,-1.011 2.833,1.543 2.819,-28.242 -0.006,-13.773 -0.083,-25.472 -0.169,-25.997 -0.253,-1.536 -1.061,-1.913 -2.239,-1.044 M 99.1,189.835 c -4.433,0.247 -7.889,0.685 -10.7,1.358 -1.375,0.328 -3.625,0.702 -5,0.829 -1.871,0.173 -2.864,0.373 -3.948,0.798 -1.42,0.555 -3.055,0.904 -6.452,1.377 -0.935,0.13 -2.285,0.487 -3,0.794 -1.514,0.651 -1.915,0.756 -4.203,1.098 -0.988,0.148 -2.316,0.524 -3.162,0.896 -0.802,0.352 -2.415,0.821 -3.584,1.043 -1.322,0.25 -2.555,0.626 -3.258,0.992 -0.623,0.324 -1.798,0.725 -2.613,0.891 -1.766,0.361 -3.218,0.812 -4.197,1.304 -0.394,0.198 -1.474,0.508 -2.4,0.689 -1.13,0.222 -2.049,0.552 -2.798,1.004 -0.733,0.443 -1.752,0.812 -2.975,1.079 -1.024,0.224 -1.978,0.504 -2.122,0.623 -0.65,0.539 -0.688,2.163 -0.688,29.465 v 27.255 l 0.482,0.453 c 0.633,0.595 2.164,0.318 3.695,-0.668 0.632,-0.407 1.724,-0.841 2.781,-1.106 0.958,-0.239 2.151,-0.696 2.65,-1.016 0.535,-0.342 1.521,-0.706 2.4,-0.887 0.821,-0.168 2.101,-0.619 2.845,-1.002 0.744,-0.383 2.094,-0.884 3,-1.112 0.906,-0.228 2.092,-0.645 2.636,-0.926 1.168,-0.603 2.418,-0.982 3.849,-1.166 0.628,-0.081 1.414,-0.373 1.99,-0.738 0.671,-0.426 1.624,-0.747 3.222,-1.085 1.319,-0.28 2.781,-0.74 3.494,-1.099 0.778,-0.393 1.961,-0.75 3.241,-0.979 1.108,-0.197 2.42,-0.512 2.915,-0.698 2.367,-0.89 3.078,-1.071 5.475,-1.394 1.444,-0.194 3.288,-0.593 4.2,-0.908 5.084,-1.755 18.262,-1.697 21.634,0.095 0.483,0.257 1.534,0.57 2.335,0.695 2.416,0.377 3.213,0.611 4.177,1.227 0.513,0.328 1.688,0.776 2.655,1.012 0.955,0.234 2.113,0.673 2.579,0.98 0.465,0.306 1.385,0.708 2.045,0.894 0.66,0.185 1.785,0.681 2.5,1.102 0.715,0.421 1.665,0.862 2.112,0.978 0.446,0.117 1.214,0.479 1.705,0.804 0.491,0.326 1.611,0.823 2.488,1.105 0.877,0.282 1.951,0.783 2.385,1.114 0.435,0.331 1.425,0.79 2.2,1.02 0.776,0.23 1.77,0.682 2.209,1.004 0.44,0.322 1.34,0.754 2,0.96 0.661,0.206 1.921,0.734 2.801,1.173 0.88,0.438 2.046,0.902 2.591,1.031 0.545,0.128 1.535,0.532 2.2,0.897 0.665,0.365 1.857,0.806 2.649,0.979 0.793,0.174 1.963,0.578 2.6,0.9 1.27,0.64 2.386,0.902 5.242,1.23 1.035,0.119 1.951,0.259 2.035,0.311 1.072,0.663 6.194,0.663 10.045,0 1.63,-0.281 3.327,-0.51 3.771,-0.51 0.974,0 2.795,-0.453 4.107,-1.022 0.528,-0.229 1.995,-0.637 3.26,-0.907 1.318,-0.282 2.661,-0.704 3.147,-0.988 0.466,-0.273 1.759,-0.722 2.874,-0.998 1.114,-0.276 2.533,-0.762 3.153,-1.081 0.619,-0.319 1.891,-0.771 2.826,-1.005 0.935,-0.234 2.039,-0.657 2.452,-0.941 0.414,-0.284 1.699,-0.773 2.855,-1.087 1.157,-0.315 2.438,-0.791 2.848,-1.059 0.41,-0.268 1.51,-0.678 2.445,-0.912 0.935,-0.234 2.048,-0.653 2.474,-0.931 0.426,-0.279 1.686,-0.73 2.8,-1.003 1.194,-0.293 2.397,-0.733 2.929,-1.072 0.539,-0.343 1.63,-0.741 2.7,-0.983 0.989,-0.224 2.337,-0.678 2.997,-1.009 0.66,-0.331 2.149,-0.815 3.309,-1.077 1.159,-0.262 2.554,-0.701 3.1,-0.976 0.595,-0.3 1.83,-0.635 3.091,-0.838 1.155,-0.186 2.91,-0.599 3.9,-0.918 2.549,-0.822 3.372,-0.975 6.674,-1.243 6.678,-0.543 15.236,0.114 17.634,1.354 0.326,0.169 1.515,0.443 2.642,0.61 2.581,0.382 3.447,0.612 4.45,1.183 0.44,0.25 1.655,0.657 2.7,0.905 1.045,0.247 2.35,0.697 2.9,1 0.55,0.303 1.87,0.736 2.933,0.961 1.063,0.224 2.503,0.681 3.2,1.014 0.697,0.333 1.987,0.801 2.867,1.039 0.88,0.238 2.11,0.689 2.734,1.003 0.623,0.314 1.825,0.756 2.67,0.982 0.846,0.227 2.05,0.679 2.676,1.004 0.626,0.326 1.989,0.773 3.029,0.994 1.04,0.22 2.417,0.674 3.06,1.009 0.648,0.338 2.007,0.781 3.049,0.996 1.039,0.214 2.402,0.658 3.047,0.994 0.702,0.365 2.074,0.797 3.45,1.086 1.257,0.264 2.78,0.708 3.385,0.987 0.775,0.358 1.869,0.606 3.7,0.836 1.43,0.18 4.085,0.642 5.9,1.027 l 3.3,0.698 5.4,-0.02 c 5.357,-0.02 6.914,-0.153 8.546,-0.728 0.466,-0.165 2.412,-0.523 4.323,-0.797 3.415,-0.489 3.828,-0.6 4.831,-1.302 0.275,-0.193 1.343,-0.539 2.373,-0.769 1.236,-0.277 2.256,-0.653 3,-1.106 0.62,-0.377 1.65,-0.819 2.29,-0.982 0.639,-0.163 1.629,-0.614 2.2,-1.002 0.57,-0.388 1.307,-0.768 1.637,-0.844 0.777,-0.18 1.962,-0.775 2.263,-1.137 0.13,-0.156 0.844,-0.537 1.586,-0.845 0.743,-0.309 1.621,-0.813 1.951,-1.121 0.33,-0.307 0.94,-0.7 1.354,-0.873 0.415,-0.173 1.09,-0.612 1.5,-0.974 0.411,-0.362 1.241,-0.957 1.846,-1.321 1.094,-0.659 1.751,-1.164 3.555,-2.733 0.52,-0.452 1.147,-0.927 1.393,-1.056 1.099,-0.574 1.128,-0.805 1.274,-10.222 0.076,-4.945 0.226,-9.088 0.347,-9.6 0.129,-0.542 0.219,-3.686 0.226,-7.9 0.009,-5.242 0.087,-7.42 0.308,-8.671 0.251,-1.419 0.469,-12.071 0.322,-15.741 -0.061,-1.518 -2.369,-0.984 -4.74,1.098 -0.398,0.35 -1.188,0.842 -1.755,1.093 -0.566,0.251 -1.16,0.614 -1.319,0.806 -0.159,0.192 -0.969,0.692 -1.8,1.11 -0.831,0.418 -1.671,0.938 -1.867,1.155 -0.196,0.217 -0.736,0.561 -1.2,0.765 -0.464,0.204 -1.27,0.659 -1.79,1.01 -0.521,0.352 -1.376,0.797 -1.9,0.989 -0.525,0.193 -1.346,0.647 -1.825,1.009 -0.479,0.362 -1.469,0.854 -2.2,1.094 -0.731,0.24 -1.824,0.738 -2.429,1.106 -0.605,0.369 -1.595,0.815 -2.2,0.992 -0.605,0.177 -1.571,0.589 -2.146,0.916 -0.575,0.326 -1.79,0.799 -2.7,1.05 -0.91,0.252 -2.123,0.696 -2.696,0.987 -0.722,0.368 -1.855,0.659 -3.7,0.952 -1.462,0.231 -3.333,0.655 -4.158,0.942 -1.416,0.491 -1.759,0.525 -6.107,0.592 l -4.608,0.072 -1.892,-0.601 c -1.041,-0.33 -2.478,-0.698 -3.193,-0.818 -2.334,-0.39 -3.268,-0.658 -4.594,-1.317 -0.718,-0.357 -1.965,-0.792 -2.77,-0.967 -0.899,-0.195 -1.786,-0.545 -2.3,-0.906 -0.46,-0.324 -1.466,-0.775 -2.236,-1.003 -0.77,-0.228 -1.797,-0.685 -2.281,-1.015 -0.485,-0.33 -1.486,-0.781 -2.223,-1 -0.738,-0.22 -1.676,-0.665 -2.084,-0.989 -0.407,-0.324 -1.473,-0.826 -2.367,-1.116 -0.894,-0.289 -1.874,-0.736 -2.179,-0.992 -0.304,-0.256 -1.029,-0.619 -1.61,-0.806 -0.581,-0.188 -1.596,-0.637 -2.256,-0.998 -0.66,-0.361 -1.83,-0.844 -2.6,-1.074 -0.77,-0.23 -1.802,-0.687 -2.293,-1.015 -0.574,-0.382 -1.553,-0.746 -2.736,-1.016 -1.171,-0.266 -2.168,-0.635 -2.737,-1.012 -0.614,-0.406 -1.393,-0.68 -2.478,-0.871 -1.858,-0.327 -3.229,-0.693 -5.156,-1.376 -0.812,-0.289 -2.533,-0.638 -4.1,-0.832 -1.485,-0.183 -4.021,-0.597 -5.636,-0.918 -3.898,-0.775 -16.569,-0.903 -19.34,-0.194 -2.12,0.542 -4.557,0.961 -7.007,1.205 -2.416,0.241 -3.468,0.489 -4.348,1.028 -0.348,0.213 -1.428,0.56 -2.4,0.773 -1.934,0.422 -3.068,0.786 -4.083,1.311 -0.363,0.188 -1.463,0.557 -2.444,0.819 -0.98,0.262 -2.336,0.781 -3.012,1.153 -0.677,0.372 -1.725,0.785 -2.33,0.918 -0.605,0.133 -1.595,0.539 -2.2,0.903 -0.605,0.363 -1.64,0.815 -2.3,1.003 -0.66,0.187 -1.667,0.605 -2.238,0.927 -0.571,0.322 -1.696,0.809 -2.5,1.082 -0.804,0.272 -1.831,0.76 -2.282,1.083 -0.451,0.323 -1.472,0.768 -2.269,0.988 -0.796,0.221 -1.732,0.584 -2.079,0.808 -1.07,0.688 -1.875,1.003 -3.365,1.316 -0.788,0.166 -1.893,0.565 -2.455,0.886 -0.575,0.329 -1.961,0.807 -3.167,1.092 -1.179,0.278 -2.482,0.679 -2.896,0.89 -1.069,0.545 -2.008,0.763 -4.849,1.123 -1.375,0.174 -2.905,0.447 -3.4,0.607 -3.958,1.277 -16.099,1.269 -19.5,-0.014 -0.44,-0.165 -1.796,-0.467 -3.013,-0.67 -1.684,-0.282 -2.533,-0.54 -3.555,-1.082 -0.739,-0.392 -1.813,-0.811 -2.388,-0.931 -0.574,-0.121 -1.404,-0.44 -1.844,-0.71 -0.44,-0.271 -1.43,-0.797 -2.2,-1.169 -0.77,-0.373 -1.58,-0.882 -1.8,-1.131 -0.22,-0.249 -0.94,-0.699 -1.6,-1 -0.66,-0.301 -1.425,-0.792 -1.7,-1.092 -0.275,-0.3 -0.834,-0.716 -1.242,-0.925 -0.408,-0.209 -0.993,-0.609 -1.3,-0.888 -0.747,-0.679 -2.862,-2.244 -4.091,-3.027 -0.547,-0.348 -1.308,-0.956 -1.691,-1.35 -0.382,-0.394 -0.823,-0.716 -0.979,-0.716 -0.156,0 -0.593,-0.309 -0.971,-0.687 -0.378,-0.378 -1.259,-0.975 -1.957,-1.327 -0.698,-0.351 -1.512,-0.842 -1.809,-1.091 -0.297,-0.249 -1.164,-0.691 -1.927,-0.982 -0.763,-0.292 -1.535,-0.694 -1.716,-0.894 -0.44,-0.486 -1.566,-0.951 -2.962,-1.223 -0.63,-0.122 -1.575,-0.451 -2.1,-0.73 -1.469,-0.781 -3.296,-1.063 -8.225,-1.269 -4.999,-0.208 -5.768,-0.205 -10.13,0.038 M 32.452,340.749 c -0.722,0.644 -0.899,1.838 -0.65,4.372 0.124,1.263 0.166,2.568 0.093,2.901 -0.141,0.645 -0.157,21.209 -0.018,23.347 0.045,0.698 -0.015,2.152 -0.135,3.23 -0.241,2.176 0.149,4.222 0.881,4.613 0.444,0.238 324.273,0.159 324.51,-0.079 0.3,-0.3 0.208,-38.072 -0.093,-38.373 -0.466,-0.466 -324.065,-0.477 -324.588,-0.011"
       inkscape:connector-curvature="0"
       style="fill:#545454;fill-rule:evenodd;stroke:none" />
  </g>
</svg>
