<?xml version="1.0" encoding="UTF-8" standalone="no"?>
<svg
   xmlns:dc="http://purl.org/dc/elements/1.1/"
   xmlns:cc="http://creativecommons.org/ns#"
   xmlns:rdf="http://www.w3.org/1999/02/22-rdf-syntax-ns#"
   xmlns:svg="http://www.w3.org/2000/svg"
   xmlns="http://www.w3.org/2000/svg"
   xmlns:sodipodi="http://sodipodi.sourceforge.net/DTD/sodipodi-0.dtd"
   xmlns:inkscape="http://www.inkscape.org/namespaces/inkscape"
   id="svg"
   version="1.1"
   width="338.59366"
   height="356.16452"
   style="display:block"
   sodipodi:docname="ula.svg"
   inkscape:version="0.92.1 r15371">
  <metadata
     id="metadata11">
    <rdf:RDF>
      <cc:Work
         rdf:about="">
        <dc:format>image/svg+xml</dc:format>
        <dc:type
           rdf:resource="http://purl.org/dc/dcmitype/StillImage" />
        <dc:title></dc:title>
      </cc:Work>
    </rdf:RDF>
  </metadata>
  <defs
     id="defs9" />
  <sodipodi:namedview
     pagecolor="#ffffff"
     bordercolor="#666666"
     borderopacity="1"
     objecttolerance="10"
     gridtolerance="10"
     guidetolerance="10"
     inkscape:pageopacity="0"
     inkscape:pageshadow="2"
     inkscape:window-width="690"
     inkscape:window-height="480"
     id="namedview7"
     showgrid="false"
     fit-margin-top="0"
     fit-margin-left="0"
     fit-margin-right="0"
     fit-margin-bottom="0"
     inkscape:zoom="0.118"
     inkscape:cx="969.64042"
     inkscape:cy="-619.6"
     inkscape:window-x="0"
     inkscape:window-y="0"
     inkscape:window-maximized="0"
     inkscape:current-layer="svg" />
  <g
     id="svgg"
     transform="translate(-30.359579,-24.235494)">
    <path
       id="path0"
       d="m 360.18,24.701 c -0.374,0.275 -1.4,0.849 -2.28,1.276 -0.88,0.427 -1.768,0.963 -1.973,1.191 -0.205,0.228 -1.07,0.647 -1.922,0.93 -0.864,0.288 -1.75,0.731 -2.005,1.002 -0.251,0.268 -1.052,0.679 -1.778,0.916 -0.727,0.236 -1.661,0.694 -2.075,1.018 -0.414,0.324 -1.269,0.766 -1.9,0.982 -0.631,0.216 -1.597,0.695 -2.147,1.065 -0.55,0.37 -1.63,0.876 -2.4,1.124 -0.77,0.248 -1.656,0.631 -1.969,0.851 -0.314,0.219 -1.234,0.647 -2.045,0.949 -0.812,0.303 -1.752,0.783 -2.09,1.068 -0.338,0.284 -0.993,0.609 -1.455,0.722 -2.022,0.495 -2.94,0.848 -3.63,1.396 -0.447,0.356 -1.184,0.678 -1.874,0.819 -1.447,0.297 -2.326,0.661 -3.035,1.258 -0.339,0.285 -1.254,0.642 -2.305,0.899 -1.007,0.246 -2.114,0.672 -2.622,1.008 -0.488,0.323 -1.52,0.727 -2.317,0.907 -0.791,0.179 -1.92,0.597 -2.508,0.929 -0.589,0.332 -1.936,0.834 -2.994,1.116 -1.058,0.281 -2.246,0.724 -2.64,0.983 -0.397,0.26 -1.697,0.7 -2.916,0.984 -1.21,0.283 -2.425,0.678 -2.7,0.878 -0.886,0.643 -1.311,0.805 -3.2,1.217 -1.02,0.223 -2.238,0.63 -2.705,0.904 -0.493,0.288 -1.815,0.702 -3.14,0.983 -1.395,0.295 -2.728,0.719 -3.413,1.085 -0.664,0.354 -1.724,0.696 -2.584,0.834 -1.782,0.285 -2.482,0.49 -4.163,1.216 -0.717,0.31 -2.192,0.706 -3.277,0.881 -1.154,0.186 -2.552,0.572 -3.371,0.931 -0.847,0.372 -2.414,0.798 -3.976,1.082 -1.417,0.258 -3.065,0.692 -3.662,0.965 -1.178,0.54 -2.286,0.797 -4.909,1.139 -1.021,0.134 -2.235,0.457 -3.04,0.809 -0.944,0.414 -2.154,0.707 -4.1,0.991 -1.518,0.222 -3.795,0.718 -5.06,1.102 -1.265,0.384 -3.11,0.788 -4.1,0.898 -2.64,0.292 -3.892,0.543 -5.469,1.094 -0.9,0.314 -2.659,0.644 -4.87,0.913 -1.904,0.232 -4.316,0.651 -5.361,0.932 -2.549,0.685 -4.477,1.034 -5.767,1.044 -1.869,0.014 -6.075,0.604 -7.833,1.099 -1.879,0.529 -2.233,0.575 -7.7,1.006 -2.09,0.165 -5.707,0.615 -8.038,1.001 -3.181,0.526 -5.325,0.753 -8.6,0.909 -7.917,0.378 -10.75,0.562 -11.78,0.768 -0.56,0.111 -2.3,0.299 -3.866,0.417 -1.566,0.118 -3.448,0.302 -4.182,0.409 -3.718,0.542 -50.691,0.394 -52.634,-0.166 -0.385,-0.111 -2.097,-0.255 -3.804,-0.319 -1.707,-0.065 -3.417,-0.214 -3.8,-0.333 C 115.512,72.571 113.652,72.442 104.9,72.002 102.48,71.88 99.607,71.65 98.515,71.49 97.423,71.331 96.242,71.2 95.89,71.2 95.538,71.2 94.858,71.062 94.379,70.892 93.505,70.584 89.415,70.137 85.3,69.901 83.245,69.783 79.669,69.215 78.3,68.789 77.486,68.536 75.052,68.239 71.802,67.996 70.075,67.866 68.487,67.617 67.4,67.304 65.301,66.7 62.827,66.277 59.731,65.992 57.565,65.793 56.65,65.606 53.4,64.697 52.795,64.528 51.047,64.25 49.515,64.08 47.676,63.875 46.283,63.602 45.415,63.275 43.707,62.632 43.027,62.487 39.9,62.103 38.47,61.928 36.773,61.648 36.128,61.481 33.719,60.857 33.768,60.523 34.032,75.7 c 0.12,6.93 0.285,16.47 0.366,21.2 0.118,6.866 0.213,8.862 0.471,9.9 0.21,0.848 0.324,2.186 0.327,3.847 l 0.004,2.547 0.75,0.492 c 0.443,0.29 1.324,0.586 2.15,0.722 0.77,0.127 2.255,0.44 3.3,0.695 1.786,0.436 3.332,0.616 9.4,1.097 1.375,0.109 3.22,0.335 4.1,0.503 0.88,0.168 2.275,0.433 3.1,0.59 1.946,0.369 5.472,0.671 9.6,0.82 1.815,0.066 3.615,0.205 4,0.309 2.738,0.74 8.65,1.248 18.2,1.562 3.685,0.122 7.33,0.32 8.1,0.441 0.77,0.121 3.155,0.29 5.3,0.376 2.218,0.089 4.202,0.264 4.6,0.408 2.388,0.859 65.778,0.882 69.6,0.025 0.495,-0.111 2.25,-0.255 3.9,-0.319 1.65,-0.064 3.765,-0.248 4.7,-0.408 0.942,-0.161 4.508,-0.389 8,-0.512 9.554,-0.336 11.391,-0.463 12.274,-0.853 0.437,-0.193 1.275,-0.342 1.923,-0.342 0.632,0 1.588,-0.083 2.126,-0.185 0.537,-0.101 2.282,-0.282 3.877,-0.4 1.595,-0.119 4.205,-0.315 5.8,-0.436 1.595,-0.12 4.25,-0.484 5.9,-0.809 1.65,-0.324 4.395,-0.72 6.1,-0.88 4.236,-0.398 7.197,-0.819 9.1,-1.293 0.88,-0.22 2.455,-0.496 3.5,-0.615 5.792,-0.657 6.804,-0.801 7.613,-1.09 1.332,-0.474 4.495,-1.091 5.659,-1.103 1.318,-0.013 3.353,-0.399 5.628,-1.066 0.99,-0.291 3.245,-0.741 5.012,-1 1.924,-0.282 3.602,-0.643 4.185,-0.901 0.97,-0.429 2.508,-0.752 6.103,-1.282 1.123,-0.165 2.351,-0.493 3.002,-0.802 0.606,-0.287 1.956,-0.66 3,-0.829 3.048,-0.495 4.048,-0.731 4.886,-1.156 0.433,-0.22 2.063,-0.659 3.622,-0.975 1.559,-0.317 3.332,-0.796 3.94,-1.064 0.608,-0.269 2.041,-0.667 3.186,-0.884 1.144,-0.216 2.887,-0.708 3.872,-1.092 0.986,-0.384 2.553,-0.84 3.484,-1.015 0.974,-0.182 2.289,-0.61 3.1,-1.008 0.865,-0.425 2.063,-0.805 3.108,-0.987 1.03,-0.179 2.291,-0.576 3.2,-1.009 0.825,-0.393 2.04,-0.811 2.7,-0.928 0.66,-0.117 1.92,-0.566 2.8,-0.997 0.88,-0.432 2.262,-0.923 3.07,-1.091 0.809,-0.168 2.024,-0.611 2.7,-0.985 0.677,-0.373 1.545,-0.739 1.93,-0.812 1.313,-0.251 2.699,-0.749 3.403,-1.222 0.386,-0.26 1.376,-0.642 2.2,-0.847 0.823,-0.206 2.127,-0.702 2.897,-1.102 0.77,-0.4 1.921,-0.878 2.558,-1.061 0.637,-0.184 1.558,-0.587 2.046,-0.897 0.488,-0.31 1.542,-0.757 2.342,-0.994 0.8,-0.238 1.874,-0.696 2.388,-1.018 0.514,-0.322 1.605,-0.793 2.424,-1.046 0.82,-0.253 1.795,-0.688 2.167,-0.966 0.371,-0.279 1.39,-0.751 2.263,-1.049 0.873,-0.298 1.863,-0.747 2.2,-0.999 0.337,-0.251 1.197,-0.659 1.912,-0.907 1.883,-0.651 1.985,-0.726 2.515,-1.864 l 0.481,-1.034 0.002,-26.035 0.002,-26.036 -0.527,-0.414 c -0.661,-0.52 -0.672,-0.519 -1.493,0.086"
       inkscape:connector-curvature="0"
       style="fill:#e3001c;fill-rule:evenodd;stroke:none" />
    <path
       id="path1"
       d="m 358.828,25.309 c -1.433,0.893 -1.547,1.049 -0.315,0.431 0.556,-0.28 1.13,-0.651 1.274,-0.824 0.34,-0.41 0.307,-0.396 -0.959,0.393 m 3.469,25.891 c 0,13.915 0.024,19.607 0.053,12.65 0.029,-6.958 0.029,-18.343 0,-25.3 -0.029,-6.958 -0.053,-1.265 -0.053,12.65 M 352.09,28.816 c -0.074,0.119 -0.416,0.389 -0.762,0.599 -0.345,0.211 -0.517,0.384 -0.381,0.384 0.256,0.001 1.659,-1.183 1.415,-1.193 -0.076,-0.003 -0.199,0.091 -0.272,0.21 m -4.99,2.601 c -0.55,0.315 -0.93,0.576 -0.844,0.578 0.342,0.011 1.46,-0.552 1.718,-0.864 0.342,-0.412 0.341,-0.411 -0.874,0.286 m -3.276,1.568 c -0.701,0.431 -1.499,0.841 -1.773,0.909 -0.274,0.069 -0.457,0.167 -0.406,0.218 0.178,0.177 1.664,-0.47 2.725,-1.188 1.428,-0.966 1.056,-0.925 -0.546,0.061 m -8.437,4.037 c -0.282,0.22 -0.957,0.529 -1.5,0.687 -0.893,0.259 -0.911,0.276 -0.194,0.172 0.899,-0.131 1.713,-0.507 2.096,-0.968 0.342,-0.412 0.225,-0.38 -0.402,0.109 m -4.986,2.077 c -0.137,0.165 -0.598,0.404 -1.026,0.532 -0.428,0.128 -0.738,0.273 -0.69,0.321 0.171,0.17 1.471,-0.372 1.822,-0.76 0.195,-0.215 0.307,-0.392 0.248,-0.392 -0.058,0 -0.218,0.135 -0.354,0.299 m -4.323,1.63 c -0.428,0.291 -1.138,0.697 -1.578,0.903 -0.701,0.328 -0.726,0.361 -0.2,0.262 0.33,-0.061 0.825,-0.291 1.1,-0.509 0.275,-0.218 0.86,-0.572 1.3,-0.786 0.44,-0.215 0.655,-0.392 0.478,-0.395 -0.177,-0.002 -0.672,0.234 -1.1,0.525 m -5.669,2.376 c -0.6,0.382 -0.995,0.695 -0.878,0.695 0.117,0 0.559,-0.235 0.981,-0.521 0.423,-0.287 0.953,-0.596 1.178,-0.688 0.254,-0.103 0.296,-0.169 0.11,-0.173 -0.165,-0.004 -0.791,0.305 -1.391,0.687 m -6.109,2.406 c -0.66,0.256 -1.104,0.471 -0.986,0.477 0.356,0.02 2.077,-0.612 2.198,-0.807 0.061,-0.099 0.084,-0.171 0.05,-0.158 -0.034,0.013 -0.602,0.233 -1.262,0.488 m -4.8,1.722 c -0.751,0.377 -0.976,0.552 -0.6,0.469 0.569,-0.126 1.9,-0.84 1.9,-1.018 0,-0.11 0.077,-0.142 -1.3,0.549 m -4.4,1.166 c -0.22,0.096 -0.67,0.411 -1,0.702 -0.33,0.29 -0.465,0.463 -0.3,0.383 0.165,-0.08 0.45,-0.273 0.634,-0.431 0.183,-0.157 0.723,-0.407 1.2,-0.556 0.613,-0.191 0.72,-0.27 0.366,-0.271 -0.275,0 -0.68,0.078 -0.9,0.173 m -13.2,4.706 c -0.44,0.271 -0.71,0.491 -0.6,0.488 0.11,-0.003 0.56,-0.227 1,-0.498 0.44,-0.271 0.71,-0.491 0.6,-0.488 -0.11,0.003 -0.56,0.227 -1,0.498 m -7.2,2.124 c -0.55,0.223 -1.36,0.486 -1.8,0.584 -0.78,0.173 -0.776,0.175 0.18,0.082 0.539,-0.053 1.439,-0.313 2,-0.579 1.245,-0.589 0.995,-0.647 -0.38,-0.087 M 278.4,57 c -0.385,0.211 -0.61,0.383 -0.5,0.383 0.11,0 0.515,-0.172 0.9,-0.383 0.385,-0.211 0.61,-0.383 0.5,-0.383 -0.11,0 -0.515,0.172 -0.9,0.383 m -1.8,0.6 c -0.402,0.129 -0.422,0.161 -0.1,0.166 0.22,0.003 0.58,-0.071 0.8,-0.166 0.51,-0.219 -0.016,-0.219 -0.7,0 m -3.4,0.61 c -0.337,0.114 -0.174,0.132 0.5,0.054 0.55,-0.063 1.038,-0.149 1.083,-0.19 0.158,-0.14 -1.083,-0.034 -1.583,0.136 M 262.8,61 c -0.385,0.211 -0.61,0.383 -0.5,0.383 0.11,0 0.515,-0.172 0.9,-0.383 0.385,-0.211 0.61,-0.383 0.5,-0.383 -0.11,0 -0.515,0.172 -0.9,0.383 M 33.807,62.387 c -0.114,0.213 -0.192,1.27 -0.173,2.35 l 0.034,1.963 0.116,-2.1 c 0.064,-1.155 0.189,-2.212 0.278,-2.35 0.089,-0.137 0.114,-0.25 0.057,-0.25 -0.058,0 -0.198,0.174 -0.312,0.387 m 6.345,-0.246 c 0.249,0.048 0.609,0.046 0.8,-0.004 0.192,-0.05 -0.012,-0.089 -0.452,-0.087 -0.44,0.003 -0.596,0.044 -0.348,0.091 M 256.7,62.2 c -0.832,0.212 -0.013,0.221 1,0.011 0.673,-0.139 0.704,-0.165 0.2,-0.164 -0.33,0 -0.87,0.069 -1.2,0.153 M 45.5,63.304 c 0.66,0.261 1.38,0.478 1.6,0.481 0.22,0.002 -0.23,-0.214 -1,-0.482 -1.788,-0.621 -2.167,-0.62 -0.6,0.001 m 9,1.696 c 0.55,0.203 1.135,0.369 1.3,0.369 0.165,0 -0.15,-0.166 -0.7,-0.369 -0.55,-0.203 -1.135,-0.369 -1.3,-0.369 -0.165,0 0.15,0.166 0.7,0.369 m 189.7,-0.051 c -0.495,0.175 -0.81,0.348 -0.7,0.384 0.11,0.037 0.65,-0.109 1.2,-0.324 1.193,-0.465 0.788,-0.514 -0.5,-0.06 m -6.448,1.192 c 0.249,0.048 0.609,0.046 0.8,-0.004 0.192,-0.05 -0.012,-0.089 -0.452,-0.087 -0.44,0.003 -0.596,0.044 -0.348,0.091 m -2.952,0.372 c -0.715,0.155 -1.555,0.386 -1.867,0.515 -0.311,0.129 -1.076,0.346 -1.7,0.483 -0.623,0.136 -0.947,0.257 -0.719,0.269 0.227,0.011 1.082,-0.164 1.9,-0.389 0.817,-0.225 2.251,-0.579 3.186,-0.786 0.935,-0.207 1.43,-0.376 1.1,-0.375 -0.33,10e-4 -1.185,0.128 -1.9,0.283 M 69.152,67.741 c 0.249,0.048 0.609,0.046 0.8,-0.004 0.192,-0.05 -0.012,-0.089 -0.452,-0.087 -0.44,0.003 -0.596,0.044 -0.348,0.091 m 1.598,0.2 c 0.248,0.048 0.653,0.048 0.9,0 0.248,-0.048 0.045,-0.087 -0.45,-0.087 -0.495,0 -0.698,0.039 -0.45,0.087 m 154.9,0.197 c 0.193,0.05 0.507,0.05 0.7,0 0.193,-0.05 0.035,-0.092 -0.35,-0.092 -0.385,0 -0.543,0.042 -0.35,0.092 M 33.854,69.2 c 0,0.495 0.039,0.698 0.087,0.45 0.048,-0.247 0.048,-0.652 0,-0.9 -0.048,-0.248 -0.087,-0.045 -0.087,0.45 M 78.3,68.8 c 0.22,0.095 0.58,0.169 0.8,0.166 0.322,-0.005 0.302,-0.037 -0.1,-0.166 -0.684,-0.219 -1.21,-0.219 -0.7,0 m 139.852,0.741 c 0.249,0.048 0.609,0.046 0.8,-0.004 0.192,-0.05 -0.012,-0.089 -0.452,-0.087 -0.44,0.003 -0.596,0.044 -0.348,0.091 m -135.202,0.2 c 0.248,0.048 0.653,0.048 0.9,0 0.248,-0.048 0.045,-0.087 -0.45,-0.087 -0.495,0 -0.697,0.039 -0.45,0.087 m 133.602,0 c 0.249,0.048 0.609,0.046 0.8,-0.004 0.192,-0.05 -0.012,-0.089 -0.452,-0.087 -0.44,0.003 -0.596,0.044 -0.348,0.091 m -2.102,0.197 c 0.193,0.05 0.507,0.05 0.7,0 0.193,-0.05 0.035,-0.092 -0.35,-0.092 -0.385,0 -0.543,0.042 -0.35,0.092 m -2.898,0.203 c 0.249,0.048 0.609,0.046 0.8,-0.004 0.192,-0.05 -0.012,-0.089 -0.452,-0.087 -0.44,0.003 -0.596,0.044 -0.348,0.091 M 90.65,70.338 c 0.193,0.05 0.508,0.05 0.7,0 0.193,-0.05 0.035,-0.092 -0.35,-0.092 -0.385,0 -0.542,0.042 -0.35,0.092 m 118.3,0.003 c 0.247,0.048 0.653,0.048 0.9,0 0.247,-0.048 0.045,-0.087 -0.45,-0.087 -0.495,0 -0.697,0.039 -0.45,0.087 M 93.7,70.72 c 1.1,0.323 2.859,0.598 2.699,0.422 -0.148,-0.163 -2.751,-0.744 -3.261,-0.729 -0.241,0.008 0.012,0.146 0.562,0.307 m 6.753,1.024 c 0.304,0.045 0.754,0.044 1,-0.003 0.246,-0.048 -0.003,-0.085 -0.553,-0.084 -0.55,0.002 -0.751,0.041 -0.447,0.087 m 98.897,0.001 c 0.358,0.044 0.943,0.044 1.3,0 0.358,-0.045 0.065,-0.081 -0.65,-0.081 -0.715,0 -1.007,0.036 -0.65,0.081 m -96,0.196 c 0.247,0.048 0.653,0.048 0.9,0 0.248,-0.048 0.045,-0.087 -0.45,-0.087 -0.495,0 -0.697,0.039 -0.45,0.087 m 92.996,0.003 c 0.355,0.045 0.985,0.045 1.4,0.002 0.414,-0.043 0.124,-0.079 -0.646,-0.08 -0.77,-0.001 -1.11,0.034 -0.754,0.078 m -88.496,0.194 c 0.193,0.05 0.508,0.05 0.7,0 0.193,-0.05 0.035,-0.092 -0.35,-0.092 -0.385,0 -0.542,0.042 -0.35,0.092 m 3,0.208 c 0.413,0.043 1.088,0.043 1.5,0 0.413,-0.043 0.075,-0.079 -0.75,-0.079 -0.825,0 -1.162,0.036 -0.75,0.079 m 78.7,-0.001 c 0.358,0.044 0.943,0.044 1.3,0 0.358,-0.045 0.065,-0.081 -0.65,-0.081 -0.715,0 -1.008,0.036 -0.65,0.081 m -9.712,0.658 c -2.014,0.195 -3.724,0.421 -3.8,0.504 -0.076,0.082 0.304,0.091 0.844,0.021 0.539,-0.071 2.219,-0.222 3.733,-0.336 1.513,-0.114 3.141,-0.284 3.618,-0.378 l 0.867,-0.17 -0.8,0.003 c -0.44,10e-4 -2.448,0.162 -4.462,0.356 m -62.886,-0.062 c 0.249,0.048 0.609,0.046 0.8,-0.004 0.192,-0.05 -0.012,-0.089 -0.452,-0.087 -0.44,0.003 -0.596,0.044 -0.348,0.091 m 3.704,0.206 c 0.526,0.042 1.336,0.041 1.8,-0.001 0.464,-0.042 0.034,-0.076 -0.956,-0.075 -0.99,0.001 -1.37,0.035 -0.844,0.076 m 3.144,0.246 c 0.496,0.166 1.944,0.274 1.783,0.134 -0.045,-0.04 -0.578,-0.124 -1.183,-0.187 -0.71,-0.073 -0.923,-0.054 -0.6,0.053 m 4.361,0.356 c 1.354,0.035 3.514,0.035 4.8,0 1.287,-0.035 0.179,-0.063 -2.461,-0.063 -2.64,0 -3.692,0.029 -2.339,0.063 m 40.4,0 c 1.354,0.035 3.514,0.035 4.8,0 1.287,-0.035 0.179,-0.063 -2.461,-0.063 -2.64,0 -3.692,0.029 -2.339,0.063 m -31.209,0.192 c 0.249,0.048 0.609,0.046 0.8,-0.004 0.192,-0.05 -0.012,-0.089 -0.452,-0.087 -0.44,0.003 -0.596,0.044 -0.348,0.091 m 26,0 c 0.249,0.048 0.609,0.046 0.8,-0.004 0.192,-0.05 -0.012,-0.089 -0.452,-0.087 -0.44,0.003 -0.596,0.044 -0.348,0.091 m 198.192,4.552 c -0.238,0.499 -0.61,0.847 -1.195,1.119 -0.698,0.325 -0.743,0.374 -0.249,0.278 0.845,-0.165 1.485,-0.624 1.715,-1.231 0.317,-0.832 0.108,-0.961 -0.271,-0.166 m -4.244,2.425 -0.6,0.515 0.7,-0.452 c 0.898,-0.579 0.9,-0.581 0.683,-0.58 -0.1,0.001 -0.453,0.233 -0.783,0.517 M 348.2,85 c -0.495,0.329 -0.815,0.599 -0.711,0.599 0.196,10e-4 1.711,-0.997 1.711,-1.126 0,-0.127 -0.08,-0.085 -1,0.527 M 34.062,86.7 c 0.001,0.66 0.038,0.906 0.083,0.546 0.044,-0.359 0.044,-0.899 -0.002,-1.2 -0.046,-0.3 -0.082,-0.006 -0.081,0.654 m 311.147,-0.554 c -0.863,0.305 -2.856,1.454 -2.522,1.454 0.091,0 0.487,-0.202 0.88,-0.45 0.392,-0.247 1.258,-0.645 1.923,-0.884 0.666,-0.239 1.075,-0.435 0.91,-0.435 -0.165,10e-4 -0.701,0.142 -1.191,0.315 m -6.309,2.766 c -0.66,0.389 -0.975,0.647 -0.7,0.573 0.275,-0.074 0.603,-0.216 0.729,-0.317 0.126,-0.1 0.576,-0.356 1,-0.567 0.424,-0.212 0.636,-0.388 0.471,-0.391 -0.165,-0.003 -0.84,0.313 -1.5,0.702 M 34.289,94.4 c 0,3.355 0.027,4.727 0.061,3.05 0.033,-1.677 0.033,-4.422 0,-6.1 -0.034,-1.677 -0.061,-0.305 -0.061,3.05 M 334.45,90.498 c -0.357,0.156 -0.65,0.327 -0.65,0.382 0,0.096 1.414,-0.441 1.583,-0.601 0.175,-0.166 -0.309,-0.052 -0.933,0.219 M 324,94.376 c -0.925,0.367 -2.423,1.222 -2.143,1.223 0.086,10e-4 0.623,-0.236 1.194,-0.525 0.571,-0.289 1.355,-0.643 1.743,-0.786 0.388,-0.143 0.571,-0.262 0.406,-0.265 -0.165,-0.002 -0.705,0.156 -1.2,0.353 m -12.35,4.122 c -0.357,0.156 -0.65,0.327 -0.65,0.382 0,0.055 0.293,-0.019 0.65,-0.164 0.357,-0.145 0.785,-0.314 0.95,-0.374 0.267,-0.098 0.267,-0.111 0,-0.118 -0.165,-0.005 -0.593,0.119 -0.95,0.274 m -6.85,2.23 c -0.385,0.172 -1.15,0.483 -1.7,0.691 -0.739,0.28 -0.827,0.348 -0.335,0.261 0.661,-0.118 3.317,-1.26 2.935,-1.263 -0.11,-0.001 -0.515,0.139 -0.9,0.311 m -8,2.372 c -0.275,0.157 -0.41,0.286 -0.3,0.286 0.11,0 0.425,-0.129 0.7,-0.286 0.275,-0.157 0.41,-0.286 0.3,-0.286 -0.11,0 -0.425,0.129 -0.7,0.286 m -4.9,1.12 c -1.011,0.227 -2.55,0.796 -2.443,0.903 0.044,0.045 0.477,-0.06 0.962,-0.233 0.484,-0.174 1.421,-0.435 2.081,-0.583 0.66,-0.147 0.975,-0.267 0.7,-0.267 -0.275,0 -0.86,0.081 -1.3,0.18 m -257.155,4.59 c 0.082,3.689 0.158,4.266 0.61,4.62 0.299,0.234 0.314,0.23 0.117,-0.03 -0.135,-0.179 -0.268,-1.552 -0.33,-3.4 -0.056,-1.705 -0.184,-3.365 -0.284,-3.69 -0.12,-0.391 -0.158,0.448 -0.113,2.5 m 251.505,-2.872 c 0.193,0.05 0.507,0.05 0.7,0 0.193,-0.05 0.035,-0.092 -0.35,-0.092 -0.385,0 -0.542,0.042 -0.35,0.092 m -3.49,0.579 c -0.517,0.159 -0.995,0.378 -1.062,0.486 -0.07,0.114 0.113,0.103 0.441,-0.028 0.308,-0.123 0.966,-0.339 1.461,-0.481 0.495,-0.142 0.72,-0.26 0.5,-0.262 -0.22,-0.002 -0.823,0.126 -1.34,0.285 m -6.31,1.621 c 0.193,0.05 0.507,0.05 0.7,0 0.193,-0.05 0.035,-0.092 -0.35,-0.092 -0.385,0 -0.543,0.042 -0.35,0.092 m -1.85,0.262 c -0.672,0.215 0.054,0.215 0.9,0 0.539,-0.137 0.549,-0.153 0.1,-0.156 -0.275,-0.002 -0.725,0.068 -1,0.156 m -11.7,2.703 c -0.77,0.266 -1.094,0.431 -0.719,0.368 0.84,-0.143 2.832,-0.84 2.419,-0.846 -0.165,-0.003 -0.93,0.213 -1.7,0.478 m -19.3,3.151 c -2.037,0.318 -1.13,0.37 1.1,0.063 1.133,-0.156 1.61,-0.274 1.1,-0.271 -0.495,0.003 -1.485,0.096 -2.2,0.208 m -203.5,0.753 c 0.77,0.198 1.58,0.36 1.8,0.359 0.22,-0.001 -0.23,-0.172 -1,-0.379 -0.77,-0.208 -1.58,-0.37 -1.8,-0.359 -0.22,0.01 0.23,0.18 1,0.379 m 198.6,0.297 c -0.942,0.198 -1.049,0.254 -0.5,0.259 0.385,0.003 1.06,-0.112 1.5,-0.257 1.003,-0.331 0.566,-0.332 -1,-0.002 m -4.85,0.634 c 0.193,0.05 0.507,0.05 0.7,0 0.193,-0.05 0.035,-0.092 -0.35,-0.092 -0.385,0 -0.543,0.042 -0.35,0.092 m -184.898,0.203 c 0.249,0.048 0.609,0.046 0.8,-0.004 0.192,-0.05 -0.012,-0.089 -0.452,-0.087 -0.44,0.003 -0.596,0.044 -0.348,0.091 m 2.101,0.203 c 0.304,0.045 0.754,0.044 1,-0.003 0.246,-0.048 -0.003,-0.085 -0.553,-0.084 -0.55,0.002 -0.751,0.041 -0.447,0.087 m 178.899,-0.003 c 0.249,0.048 0.609,0.046 0.8,-0.004 0.192,-0.05 -0.012,-0.089 -0.452,-0.087 -0.44,0.003 -0.596,0.044 -0.348,0.091 M 55,116.855 c 0.152,0.152 3.607,0.805 3.711,0.701 0.05,-0.051 -0.382,-0.191 -0.96,-0.312 -1.485,-0.312 -2.869,-0.508 -2.751,-0.389 m 167.1,0.745 -1.4,0.129 1.3,0.016 c 0.715,0.008 1.525,-0.057 1.8,-0.145 0.594,-0.19 0.36,-0.19 -1.7,0 m -162.346,0.145 c 0.359,0.044 0.899,0.044 1.2,-0.002 0.3,-0.046 0.006,-0.082 -0.654,-0.081 -0.66,10e-4 -0.906,0.038 -0.546,0.083 m 159.396,0.196 c 0.248,0.048 0.653,0.048 0.9,0 0.248,-0.048 0.045,-0.087 -0.45,-0.087 -0.495,0 -0.697,0.039 -0.45,0.087 m -153.3,0.202 c 0.303,0.046 0.798,0.046 1.1,0 0.302,-0.046 0.055,-0.083 -0.55,-0.083 -0.605,0 -0.853,0.037 -0.55,0.083 m 149.8,-0.005 c 0.193,0.05 0.507,0.05 0.7,0 0.193,-0.05 0.035,-0.092 -0.35,-0.092 -0.385,0 -0.543,0.042 -0.35,0.092 m -146.504,0.206 c 0.355,0.045 0.985,0.045 1.4,0.002 0.414,-0.043 0.124,-0.079 -0.646,-0.08 -0.77,-0.001 -1.11,0.034 -0.754,0.078 m 144.107,0 c 0.304,0.045 0.754,0.044 1,-0.003 0.246,-0.048 -0.003,-0.085 -0.553,-0.084 -0.55,0.002 -0.751,0.041 -0.447,0.087 M 206,119.21 c -1.169,0.478 -0.667,0.48 1.1,0.003 1.256,-0.338 1.318,-0.377 0.6,-0.374 -0.44,0.001 -1.205,0.168 -1.7,0.371 M 74.952,119.141 c 0.249,0.048 0.609,0.046 0.8,-0.004 0.192,-0.05 -0.012,-0.089 -0.452,-0.087 -0.44,0.003 -0.596,0.044 -0.348,0.091 m 1.6,0.2 c 0.249,0.048 0.609,0.046 0.8,-0.004 0.192,-0.05 -0.012,-0.089 -0.452,-0.087 -0.44,0.003 -0.596,0.044 -0.348,0.091 m 4.398,0.404 c 0.358,0.044 0.942,0.044 1.3,0 0.358,-0.045 0.065,-0.081 -0.65,-0.081 -0.715,0 -1.007,0.036 -0.65,0.081 m 8.8,0.396 c 0.248,0.048 0.653,0.048 0.9,0 0.248,-0.048 0.045,-0.087 -0.45,-0.087 -0.495,0 -0.698,0.039 -0.45,0.087 m 4.15,0.159 c 0.11,0.037 1.235,0.104 2.5,0.149 1.265,0.045 2.03,0.018 1.7,-0.06 -0.587,-0.139 -4.595,-0.224 -4.2,-0.089 m 92.5,0.085 c -0.385,0.073 0.695,0.099 2.4,0.059 1.705,-0.041 3.19,-0.105 3.3,-0.143 0.372,-0.129 -4.995,-0.049 -5.7,0.084 m -86.7,0.447 c 1.095,0.203 7.978,0.364 7.1,0.166 -0.385,-0.087 -2.32,-0.193 -4.3,-0.236 -1.98,-0.043 -3.24,-0.011 -2.8,0.07 m 78.85,0.313 c 0.358,0.044 0.943,0.044 1.3,0 0.358,-0.045 0.065,-0.081 -0.65,-0.081 -0.715,0 -1.008,0.036 -0.65,0.081 m -61.5,0.604 c 0.853,0.037 2.247,0.037 3.1,0 0.853,-0.038 0.155,-0.069 -1.55,-0.069 -1.705,0 -2.403,0.031 -1.55,0.069 m 48.607,-10e-4 c 0.637,0.04 1.627,0.039 2.2,-0.001 0.574,-0.04 0.053,-0.073 -1.157,-0.072 -1.21,0 -1.679,0.033 -1.043,0.073 m 5.593,0 c 0.743,0.039 1.958,0.039 2.7,0 0.742,-0.038 0.135,-0.07 -1.35,-0.07 -1.485,0 -2.092,0.032 -1.35,0.07 m -8.098,0.193 c 0.249,0.048 0.609,0.046 0.8,-0.004 0.192,-0.05 -0.012,-0.089 -0.452,-0.087 -0.44,0.003 -0.596,0.044 -0.348,0.091 M 193.3,339 c -153.436,0.095 -161.03,0.117 -161.647,0.453 -1.348,0.737 -1.276,-0.367 -1.288,19.911 -0.013,21.539 -0.132,20.252 1.935,20.816 0.574,0.156 46.468,0.218 162.743,0.219 l 161.943,10e-4 0.7,-0.614 0.699,-0.615 0.002,-19.005 c 10e-4,-20.796 0.057,-19.758 -1.116,-20.794 -0.562,-0.496 7.361,-0.478 -163.971,-0.372"
       inkscape:connector-curvature="0"
       style="fill:#ffcc00;fill-rule:evenodd;stroke:none" />
    <path
       id="path2"
       d="m 96.9,190.606 c -2.734,0.14 -3.795,0.292 -4.2,0.603 -0.641,0.492 -3.735,1.013 -7.7,1.298 -2.911,0.209 -3.971,0.433 -4.616,0.976 -0.687,0.578 -0.897,0.623 -4.761,1.017 -2.377,0.243 -3.025,0.381 -3.732,0.795 -1.076,0.63 -2.429,0.981 -5.068,1.314 -1.656,0.209 -2.192,0.359 -2.643,0.739 -0.714,0.6 -1.365,0.791 -3.971,1.164 -1.665,0.238 -2.281,0.421 -3.026,0.899 -0.855,0.549 -3.036,1.177 -4.116,1.186 -0.239,0.001 -1.004,0.304 -1.7,0.673 -1.307,0.691 -2.146,0.925 -4.833,1.346 -1.227,0.193 -1.627,0.341 -1.852,0.684 -0.39,0.595 -1.035,0.859 -2.74,1.12 -2.042,0.314 -2.7,0.63 -3.049,1.466 -0.412,0.985 -0.446,55.138 -0.035,55.479 0.38,0.316 1.954,-0.111 2.442,-0.662 0.578,-0.653 1.128,-0.889 2.817,-1.213 1.057,-0.202 1.722,-0.459 2.243,-0.867 0.815,-0.638 1.475,-0.871 3.484,-1.227 0.767,-0.137 1.54,-0.41 1.8,-0.637 0.732,-0.638 1.388,-0.911 2.764,-1.152 1.735,-0.304 2.592,-0.591 3.058,-1.026 0.559,-0.52 1.922,-0.939 3.907,-1.198 1.479,-0.193 1.809,-0.309 2.299,-0.803 0.617,-0.622 1.159,-0.796 3.628,-1.165 0.989,-0.148 1.791,-0.39 2.1,-0.633 0.882,-0.694 1.739,-0.975 3.943,-1.294 1.443,-0.209 2.341,-0.444 2.714,-0.711 0.879,-0.63 1.974,-0.939 4.188,-1.179 2.546,-0.277 3.582,-0.502 4.522,-0.98 1.29,-0.657 2.246,-0.823 6.491,-1.129 2.413,-0.173 4.536,-0.428 5.06,-0.605 0.827,-0.281 1.146,-0.273 3.842,0.092 1.617,0.219 3.795,0.454 4.84,0.522 2.675,0.175 3.831,0.436 4.831,1.094 0.627,0.412 1.315,0.636 2.469,0.803 2.367,0.344 3.033,0.558 3.786,1.22 0.534,0.468 1.029,0.659 2.285,0.88 1.642,0.289 2.622,0.675 3.329,1.312 0.22,0.199 0.983,0.511 1.695,0.694 1.524,0.392 1.883,0.565 2.762,1.328 0.361,0.314 0.831,0.571 1.043,0.571 0.701,0 2.289,0.626 3,1.183 0.385,0.302 1.141,0.659 1.68,0.793 1.248,0.312 2.113,0.75 2.62,1.327 0.262,0.298 0.891,0.571 1.821,0.791 1.442,0.34 2.679,0.939 2.679,1.297 0,0.182 0.778,0.448 2.936,1.002 0.459,0.118 1.204,0.523 1.655,0.899 0.571,0.478 1.105,0.724 1.764,0.815 1.666,0.229 2.479,0.508 3.005,1.035 0.488,0.488 2.062,1.051 2.954,1.056 0.775,0.004 2.466,0.611 3.033,1.088 0.984,0.828 9.264,1.498 13.887,1.123 7.635,-0.618 7.124,-0.544 8.09,-1.183 0.611,-0.405 1.351,-0.666 2.335,-0.823 3.757,-0.601 3.946,-0.65 4.655,-1.214 0.428,-0.341 1.166,-0.657 1.849,-0.794 2.513,-0.503 2.973,-0.645 3.837,-1.186 1.044,-0.653 1.873,-0.923 3.385,-1.103 1.214,-0.144 1.569,-0.297 2.328,-1 0.373,-0.346 1.106,-0.617 2.526,-0.934 1.413,-0.316 2.201,-0.606 2.684,-0.99 0.376,-0.299 1.132,-0.642 1.68,-0.763 0.549,-0.12 1.445,-0.318 1.994,-0.438 0.548,-0.121 1.319,-0.476 1.713,-0.789 0.819,-0.651 1.532,-0.903 3.074,-1.086 1.185,-0.141 1.971,-0.455 2.962,-1.185 0.418,-0.308 1.259,-0.59 2.382,-0.798 1.19,-0.221 2.029,-0.51 2.669,-0.921 0.648,-0.416 1.554,-0.726 2.964,-1.013 1.273,-0.26 2.513,-0.666 3.323,-1.088 0.71,-0.37 1.724,-0.725 2.253,-0.788 3.628,-0.437 4.095,-0.544 4.924,-1.127 0.952,-0.669 2.056,-0.846 7.264,-1.162 1.706,-0.103 3.232,-0.294 3.5,-0.438 0.517,-0.276 1.935,-0.267 3.975,0.025 0.715,0.103 3.253,0.323 5.641,0.489 4.507,0.315 4.994,0.409 6.159,1.194 0.517,0.349 1.197,0.531 2.6,0.697 2.741,0.325 3.674,0.571 4.675,1.234 0.633,0.419 1.392,0.677 2.639,0.894 0.963,0.168 2.104,0.503 2.535,0.743 0.432,0.241 1.07,0.595 1.418,0.788 0.348,0.192 0.885,0.35 1.194,0.35 1.113,0 3.327,0.637 4.18,1.202 0.556,0.369 1.548,0.728 2.741,0.994 1.283,0.286 2.129,0.602 2.694,1.008 0.579,0.415 1.385,0.71 2.709,0.993 1.036,0.221 2.071,0.537 2.3,0.701 0.228,0.165 0.596,0.431 0.817,0.593 0.221,0.162 1.076,0.4 1.9,0.529 2.349,0.37 2.894,0.541 3.661,1.15 0.537,0.428 1.106,0.633 2.277,0.822 2.395,0.386 3.082,0.599 3.955,1.226 0.652,0.468 1.205,0.637 2.905,0.886 2.353,0.346 3.097,0.55 4.4,1.205 1.015,0.511 1.373,0.569 6.064,0.991 2.116,0.19 4.009,0.483 5.1,0.789 2.157,0.605 8.366,0.461 11.902,-0.276 1.081,-0.226 3.151,-0.503 4.6,-0.616 3.159,-0.246 3.799,-0.382 4.838,-1.03 1.099,-0.685 1.35,-0.765 3.374,-1.074 1.368,-0.209 1.899,-0.384 2.3,-0.758 0.73,-0.68 1.157,-0.87 2.792,-1.242 1.025,-0.233 1.658,-0.515 2.233,-0.996 0.442,-0.369 1.318,-0.82 1.947,-1.003 0.671,-0.195 1.446,-0.605 1.875,-0.992 0.401,-0.363 1.033,-0.726 1.403,-0.805 0.915,-0.198 1.616,-0.577 2.407,-1.302 0.366,-0.336 1.044,-0.707 1.508,-0.825 0.576,-0.146 1.008,-0.43 1.362,-0.894 0.285,-0.374 0.895,-0.871 1.357,-1.104 0.461,-0.233 1.225,-0.779 1.699,-1.212 0.473,-0.434 1.115,-0.877 1.425,-0.985 0.311,-0.108 0.844,-0.544 1.185,-0.969 0.368,-0.458 0.866,-0.826 1.223,-0.905 0.331,-0.072 0.67,-0.237 0.754,-0.366 0.154,-0.238 0.428,-14.625 0.531,-27.935 0.049,-6.25 0.109,-7.501 0.417,-8.7 0.444,-1.728 0.636,-5.998 0.449,-10 -0.015,-0.33 0.045,-1.309 0.133,-2.176 0.185,-1.815 0.119,-1.916 -1.254,-1.921 -0.73,-0.002 -0.981,0.106 -1.5,0.648 -0.81,0.846 -1.46,1.254 -2.486,1.561 -0.464,0.139 -0.973,0.464 -1.149,0.734 -0.175,0.266 -0.874,0.735 -1.553,1.043 -0.68,0.308 -1.453,0.796 -1.719,1.083 -0.266,0.288 -0.975,0.708 -1.576,0.933 -0.602,0.225 -1.336,0.669 -1.632,0.986 -0.357,0.381 -1.025,0.724 -1.974,1.012 -1.072,0.326 -1.54,0.583 -1.847,1.014 -0.319,0.448 -0.79,0.693 -2.1,1.092 -0.928,0.283 -1.688,0.598 -1.688,0.699 0,0.285 -1.469,0.967 -2.839,1.318 -0.681,0.174 -1.558,0.573 -1.949,0.885 -0.477,0.381 -1.359,0.736 -2.674,1.076 -1.079,0.279 -2.11,0.656 -2.292,0.838 -0.573,0.573 -1.565,0.867 -3.991,1.183 -1.704,0.222 -2.629,0.45 -3.347,0.824 -2.853,1.484 -13.868,1.53 -16.808,0.069 -0.824,-0.41 -1.835,-0.69 -3.229,-0.896 -2.354,-0.347 -2.984,-0.553 -3.671,-1.203 -0.356,-0.336 -0.987,-0.564 -2.19,-0.791 -1.657,-0.312 -2.375,-0.622 -3.044,-1.314 -0.184,-0.191 -0.977,-0.504 -1.763,-0.696 -0.99,-0.243 -1.746,-0.589 -2.46,-1.126 -0.568,-0.426 -1.189,-0.775 -1.381,-0.775 -0.732,0 -2.288,-0.663 -2.879,-1.226 -0.45,-0.429 -1.046,-0.691 -2.2,-0.965 -1.242,-0.296 -1.691,-0.504 -2.083,-0.964 -0.275,-0.323 -0.77,-0.651 -1.1,-0.729 -1.762,-0.416 -2.741,-0.792 -3.377,-1.298 -0.389,-0.309 -1.138,-0.672 -1.665,-0.806 -1.638,-0.419 -2.595,-0.811 -2.958,-1.212 -0.42,-0.464 -1.125,-0.695 -3.061,-1.006 -1.145,-0.183 -1.657,-0.384 -2.369,-0.927 -0.83,-0.634 -1.106,-0.718 -3.239,-0.989 -2.641,-0.336 -3.434,-0.549 -4.431,-1.191 -0.844,-0.544 -1.27,-0.614 -6,-0.989 -2.058,-0.163 -4.233,-0.45 -4.9,-0.646 -1.922,-0.564 -14.478,-0.491 -16.2,0.094 -0.789,0.268 -2.023,0.454 -3.6,0.543 -4.888,0.275 -6.089,0.462 -7.092,1.106 -0.928,0.596 -1.957,0.877 -4.05,1.106 -0.74,0.082 -1.408,0.307 -1.9,0.642 -1.09,0.742 -1.76,0.984 -3.496,1.262 -1.454,0.232 -1.758,0.36 -3.038,1.269 -0.29,0.205 -1.387,0.576 -2.439,0.825 -1.337,0.315 -1.996,0.571 -2.193,0.852 -0.331,0.473 -1.432,0.942 -2.692,1.148 -1.067,0.175 -1.429,0.348 -2.073,0.992 -0.264,0.265 -0.874,0.579 -1.354,0.697 -1.975,0.49 -2.351,0.638 -3.073,1.212 -0.416,0.33 -1.081,0.69 -1.478,0.799 -0.397,0.108 -1.245,0.341 -1.885,0.517 -0.64,0.176 -1.213,0.45 -1.274,0.609 -0.17,0.442 -1.002,0.795 -2.763,1.171 -0.985,0.211 -1.907,0.555 -2.4,0.896 -0.957,0.663 -1.164,0.732 -3.305,1.109 -1.067,0.187 -1.921,0.469 -2.38,0.785 -1.074,0.739 -1.495,0.849 -4.625,1.208 -2.273,0.261 -3.165,0.456 -4.236,0.926 -1.965,0.863 -4.56,1.049 -13.054,0.937 -7.503,-0.1 -7.41,-0.087 -8.904,-1.192 -0.338,-0.249 -1.239,-0.469 -2.726,-0.664 -2.549,-0.335 -3.01,-0.479 -3.759,-1.174 -0.348,-0.322 -1.049,-0.617 -1.957,-0.824 -1.655,-0.376 -2.072,-0.575 -2.77,-1.321 -0.287,-0.307 -0.84,-0.612 -1.246,-0.688 -0.421,-0.079 -1.101,-0.463 -1.602,-0.904 -0.48,-0.422 -1.269,-0.922 -1.754,-1.11 -1.096,-0.427 -1.321,-0.598 -1.633,-1.248 -0.167,-0.347 -0.491,-0.575 -0.98,-0.69 -0.402,-0.095 -1.032,-0.445 -1.4,-0.778 -0.368,-0.332 -1.184,-0.957 -1.814,-1.388 -0.63,-0.432 -1.237,-0.955 -1.348,-1.163 -0.111,-0.208 -0.654,-0.583 -1.207,-0.832 -0.631,-0.285 -1.142,-0.689 -1.377,-1.088 -0.248,-0.419 -0.585,-0.675 -0.997,-0.758 -0.343,-0.068 -1.01,-0.481 -1.482,-0.916 -0.472,-0.435 -1.35,-0.982 -1.951,-1.215 -0.601,-0.232 -1.318,-0.681 -1.593,-0.995 -0.326,-0.373 -0.904,-0.686 -1.658,-0.899 -0.722,-0.203 -1.448,-0.587 -1.927,-1.02 -0.678,-0.612 -1.014,-0.738 -2.868,-1.072 -2.095,-0.378 -2.6,-0.556 -3.547,-1.249 -0.981,-0.717 -10.046,-0.993 -18.5,-0.563"
       inkscape:connector-curvature="0"
       style="fill:#019ca9;fill-rule:evenodd;stroke:none" />
  </g>
</svg>
