<?xml version="1.0" encoding="UTF-8" standalone="no"?>
<svg
   xmlns:dc="http://purl.org/dc/elements/1.1/"
   xmlns:cc="http://creativecommons.org/ns#"
   xmlns:rdf="http://www.w3.org/1999/02/22-rdf-syntax-ns#"
   xmlns:svg="http://www.w3.org/2000/svg"
   xmlns="http://www.w3.org/2000/svg"
   xmlns:sodipodi="http://sodipodi.sourceforge.net/DTD/sodipodi-0.dtd"
   xmlns:inkscape="http://www.inkscape.org/namespaces/inkscape"
   id="svg"
   version="1.1"
   width="198.63019"
   height="198.675"
   style="display:block"
   sodipodi:docname="umag.svg"
   inkscape:version="0.92.1 r15371">
  <metadata
     id="metadata9">
    <rdf:RDF>
      <cc:Work
         rdf:about="">
        <dc:format>image/svg+xml</dc:format>
        <dc:type
           rdf:resource="http://purl.org/dc/dcmitype/StillImage" />
        <dc:title></dc:title>
      </cc:Work>
    </rdf:RDF>
  </metadata>
  <defs
     id="defs7" />
  <sodipodi:namedview
     pagecolor="#ffffff"
     bordercolor="#666666"
     borderopacity="1"
     objecttolerance="10"
     gridtolerance="10"
     guidetolerance="10"
     inkscape:pageopacity="0"
     inkscape:pageshadow="2"
     inkscape:window-width="640"
     inkscape:window-height="480"
     id="namedview5"
     showgrid="false"
     fit-margin-top="0"
     fit-margin-left="0"
     fit-margin-right="0"
     fit-margin-bottom="0"
     inkscape:zoom="0.284"
     inkscape:cx="399.74215"
     inkscape:cy="-100.76379"
     inkscape:window-x="0"
     inkscape:window-y="0"
     inkscape:window-maximized="0"
     inkscape:current-layer="svg" />
  <g
     id="svgg"
     transform="translate(-100.25785,-33.561214)">
    <path
       id="path0"
       d="m 188.4,34.25 c -27.385,3.232 -50.025,16.059 -68.046,38.55 -24.133,30.119 -26.854,77.249 -6.408,111 42.871,70.77 147.451,62.309 177.973,-14.4 C 319.333,100.5 261.941,25.571 188.4,34.25 m 21.516,2.572 c 63.13,6.855 102.721,72.287 79.596,131.547 -19.465,49.881 -76.376,74.397 -126.291,54.403 C 111.168,201.921 87.729,140.412 112.703,90.2 130.817,53.782 169.665,32.451 209.916,36.822 m -6.016,4.866 c 1.062,0.512 1.114,1.329 0.451,7.044 -0.513,4.424 -0.839,5.268 -2.032,5.268 -1.977,0 -0.178,0.39 4.489,0.973 2.746,0.343 5.486,0.71 6.09,0.815 1.171,0.204 1.926,-0.575 2.508,-2.588 l 0.289,-1 -1.169,1.1 c -1.935,1.82 -8.695,1.499 -8.311,-0.395 0.079,-0.388 0.257,-1.579 0.395,-2.647 l 0.252,-1.942 2.232,0.278 c 2.95,0.369 3.269,0.519 3.56,1.679 0.36,1.432 0.824,0.64 1.04,-1.773 0.202,-2.246 -0.003,-2.578 -0.801,-1.3 -0.527,0.844 -1.823,1.001 -4.549,0.55 -1.544,-0.255 -1.654,-0.79 -0.914,-4.442 0.317,-1.563 6.782,-0.395 7.209,1.304 0.322,1.284 0.961,0.867 0.961,-0.628 0,-1.373 0.204,-1.308 -6.817,-2.169 -5.77,-0.707 -6.105,-0.716 -4.883,-0.127 M 185,42.365 c -1.746,0.209 -1.864,0.277 -0.932,0.537 1.823,0.508 2.47,11.277 0.732,12.171 -0.929,0.479 -0.843,0.515 1.2,0.509 9.176,-0.027 13.468,-2.562 13.106,-7.74 C 198.76,42.906 194.455,41.234 185,42.365 m 8.572,1.136 c 5.705,2.909 3.312,10.899 -3.266,10.899 -1.703,0 -1.908,-0.096 -1.929,-0.9 -0.013,-0.495 -0.095,-1.71 -0.183,-2.7 -0.088,-0.99 -0.269,-3.015 -0.401,-4.499 -0.133,-1.485 -0.13,-2.88 0.006,-3.1 0.409,-0.661 4.284,-0.459 5.773,0.3 M 228,45.454 c 0,0.12 0.388,0.532 0.861,0.915 l 0.861,0.698 -2.315,5.066 c -2.224,4.865 -2.364,5.067 -3.528,5.067 -1.526,0 -1.383,0.132 1.537,1.424 2.033,0.899 2.275,0.94 1.68,0.282 -0.973,-1.075 -0.914,-1.416 1.002,-5.797 2.149,-4.914 2.129,-4.925 2.457,1.297 0.407,7.705 0.024,7.499 5.66,3.051 2.632,-2.077 4.841,-3.723 4.909,-3.659 0.644,0.606 -3.866,8.8 -4.836,8.786 -1.673,-0.024 -1.324,0.333 1.591,1.627 3.473,1.541 3.713,1.603 2.552,0.665 l -0.969,-0.784 0.852,-1.946 c 3.89,-8.883 3.572,-8.332 4.945,-8.546 1.28,-0.199 1.275,-0.205 -0.952,-1.124 l -2.237,-0.924 -2.914,2.08 c -1.603,1.143 -3.511,2.712 -4.24,3.485 -1.611,1.708 -1.688,1.646 -1.959,-1.564 -0.118,-1.404 -0.337,-3.863 -0.486,-5.463 L 232.2,47.179 230.1,46.208 C 228.945,45.674 228,45.335 228,45.454 m -62.314,2.987 c -3.117,0.586 -11.092,4.244 -8.486,3.894 1.785,-0.241 6.433,10.067 5.009,11.108 -1.666,1.218 -0.178,0.76 3.991,-1.23 2.42,-1.154 4.885,-2.62 5.479,-3.256 4.798,-5.146 0.99,-11.827 -5.993,-10.516 m 2.449,1.534 c 2.731,1.039 4.233,5.471 2.688,7.933 -0.885,1.409 -4.276,3.785 -5.145,3.603 -0.468,-0.098 -4.878,-9.389 -4.878,-10.278 0,-1.137 5.274,-2.041 7.335,-1.258 m -22.726,9.211 c -0.079,0.128 0.403,3.278 1.071,7.001 0.974,5.422 1.121,6.92 0.74,7.53 -0.845,1.352 -0.116,1.203 1.755,-0.361 2.105,-1.76 2.159,-1.855 0.869,-1.531 -1.103,0.277 -1.278,0.081 -1.627,-1.828 -0.247,-1.343 -0.161,-1.469 2.23,-3.285 l 2.487,-1.888 1.533,0.862 c 1.621,0.91 1.848,1.415 1.033,2.293 -0.719,0.774 0.283,0.201 2.3,-1.317 2.391,-1.8 2.401,-1.814 1.142,-1.778 -0.692,0.019 -3.654,-1.181 -7.278,-2.949 -3.361,-1.64 -6.176,-2.877 -6.255,-2.749 M 193.8,59.028 c -0.66,0.091 -2.82,0.366 -4.8,0.612 -38.935,4.828 -67.735,43.423 -61.907,82.96 8.986,60.949 83.243,84.55 125.997,40.046 C 288.838,145.435 275.039,83.339 226.691,63.848 217.71,60.227 201.897,57.91 193.8,59.028 m 17.8,2.004 c 27.725,4.324 51.377,26.031 58.151,53.368 13.744,55.465 -38.492,104.127 -92.711,86.368 -24.883,-8.151 -43.669,-29.78 -48.263,-55.568 -7.584,-42.568 22.58,-81.386 66.023,-84.963 3.25,-0.267 12.924,0.19 16.8,0.795 m 39.2,2.849 c -2.97,1.438 -6.063,2.705 -6.872,2.816 l -1.473,0.201 1.073,0.86 c 2.671,2.144 2.652,2.134 2.124,1.144 -0.488,-0.916 1.2,-2.496 2.671,-2.501 1.007,-0.002 4.831,3.364 4.855,4.273 0.044,1.751 -0.706,3.003 -1.626,2.711 -0.578,-0.184 -0.355,0.161 0.7,1.083 2.924,2.556 2.977,2.581 2.722,1.281 -0.182,-0.932 0.843,-7.624 2.06,-13.449 0.318,-1.522 0.02,-1.446 -6.234,1.581 m -101.171,-0.666 2.406,1.214 -2.05,1.62 c -1.127,0.891 -2.1,1.56 -2.163,1.486 C 147.456,67.103 146.578,62 146.87,62 c 0.194,0 1.436,0.547 2.759,1.215 m 59.046,-0.536 c -0.113,0.182 -1.311,5.279 -2.663,11.326 -1.352,6.047 -2.557,11.4 -2.679,11.895 -0.15,0.613 -0.517,0.9 -1.153,0.9 -1.262,0 -1.406,-0.364 -0.911,-2.314 0.51,-2.008 0.237,-3.286 -1.014,-4.74 -1.818,-2.113 -7.855,-2.018 -7.855,0.124 0,0.617 -1.762,3.536 -2.356,3.903 -0.214,0.132 -3.772,-3.903 -7.908,-8.966 -7.344,-8.994 -8.503,-10.225 -7.744,-8.229 0.332,0.874 11.612,25.89 15.051,33.378 0.943,2.055 1.357,3.542 1.357,4.874 0,1.055 0.185,2.405 0.411,2.999 0.226,0.595 0.338,1.155 0.248,1.245 -0.147,0.147 -14.516,-6.505 -34.059,-15.768 -15.458,-7.327 -15.573,-7.319 -4.921,0.367 4.467,3.222 13.881,10.026 20.921,15.119 7.04,5.093 13.069,9.415 13.397,9.604 1.289,0.743 4.025,0.498 -31.797,2.843 -14.08,0.922 -25.675,1.74 -25.767,1.819 -0.542,0.463 2.671,0.944 25.255,3.779 13.702,1.72 25.645,3.232 26.541,3.359 2.776,0.395 2.103,2.052 -1.997,4.917 -9.566,6.684 -39.01,28.294 -38.694,28.4 0.203,0.067 5.115,-1.975 10.915,-4.538 5.801,-2.563 10.766,-4.748 11.033,-4.855 0.359,-0.144 0.424,0.318 0.251,1.779 -0.143,1.209 -0.048,2.319 0.244,2.866 0.47,0.877 0.461,0.881 -0.521,0.237 -2.945,-1.929 -5.361,0.096 -5.485,4.598 -0.085,3.083 -0.831,6.924 -1.959,10.09 -1.014,2.846 -1.013,3.156 0.02,5.181 2.867,5.62 17.933,14.634 29.523,17.664 1.892,0.494 4.161,1.376 5.041,1.959 4.215,2.791 14.74,2.515 17.995,-0.471 0.461,-0.424 1.745,-0.855 3.005,-1.01 10.013,-1.233 22.662,-7.221 30.253,-14.322 4.646,-4.346 4.87,-5.357 2.814,-12.691 -0.695,-2.481 -1.065,-4.785 -1.066,-6.638 -0.001,-3.793 -0.543,-4.323 -4.184,-4.091 -1.438,0.092 -2.774,0.338 -2.97,0.548 -0.333,0.358 0.02,4.676 0.571,6.981 0.546,2.288 -0.666,-0.253 -4.009,-8.4 -1.941,-4.73 -4.316,-10.471 -5.277,-12.758 -2.126,-5.057 -2.36,-4.848 2.91,-2.595 15.243,6.517 34.744,14.498 34.934,14.298 0.123,-0.13 -0.473,-0.801 -1.326,-1.491 -0.852,-0.69 -4.362,-3.567 -7.8,-6.393 -3.437,-2.827 -10.342,-8.497 -15.343,-12.6 -6.971,-5.719 -8.932,-7.523 -8.4,-7.726 0.381,-0.146 8.703,-1.025 18.493,-1.953 9.79,-0.927 17.948,-1.82 18.13,-1.984 0.459,-0.415 -0.126,-0.501 -20.311,-3 -9.889,-1.224 -18.025,-2.271 -18.079,-2.325 -0.055,-0.055 6.466,-5.023 14.49,-11.041 17.885,-13.412 17.631,-13.147 9.547,-9.988 -6.988,2.732 -30.144,11.556 -30.322,11.556 -0.079,0 2.449,-6.885 5.616,-15.3 6.107,-16.224 6.411,-17.109 5.872,-17.084 -0.188,0.008 -4.843,5.856 -10.343,12.994 -5.5,7.138 -10.097,12.981 -10.215,12.984 -0.186,0.005 -1.785,-12.715 -4.418,-35.138 -0.707,-6.024 -0.879,-6.846 -1.292,-6.177 m 45.924,1.821 c -0.982,4.826 -0.866,4.717 -3.2,3 -2.244,-1.651 -2.243,-1.658 0.501,-3.074 2.908,-1.501 3.019,-1.498 2.699,0.074 m -45.273,3.4 c 0.537,6.02 4.45,37.699 4.654,37.685 0.254,-0.017 17.845,-22.686 18.97,-24.446 1.476,-2.309 0.945,-0.694 -4.763,14.481 -3.182,8.459 -5.786,15.496 -5.786,15.637 -0.001,0.307 1.978,-0.42 20.194,-7.422 7.697,-2.959 14.033,-5.34 14.082,-5.292 0.095,0.096 -25.047,19.019 -27.334,20.573 -1.89,1.285 -3.234,1.007 16.884,3.491 9.885,1.221 18.153,2.273 18.373,2.339 0.501,0.151 -0.518,0.26 -19.7,2.115 -8.635,0.835 -15.688,1.613 -15.674,1.729 0.014,0.115 6.899,5.838 15.3,12.717 8.401,6.878 15.814,12.951 16.474,13.495 1.399,1.154 -0.157,0.541 -22.772,-8.956 -7.904,-3.32 -14.426,-5.982 -14.493,-5.915 -0.066,0.067 0.664,2 1.624,4.295 9.414,22.521 10.225,24.583 9.567,24.328 -0.969,-0.378 -5.292,-5.967 -5.668,-7.33 -0.229,-0.828 -0.709,-1.719 -1.067,-1.981 -0.535,-0.391 -0.569,-0.654 -0.19,-1.485 0.784,-1.722 -2.452,-6.266 -4.124,-5.789 -2.868,0.819 -2.645,0.945 -6.577,-3.732 l -3.7,-4.402 -0.006,-2.318 c -0.007,-2.639 -0.637,-5.517 -2.361,-10.787 -1.144,-3.493 -1.171,-3.731 -0.568,-4.94 0.799,-1.602 1.414,-1.098 3.421,2.81 0.957,1.864 1.587,2.636 2.224,2.728 1.579,0.227 1.2,-2.168 -0.71,-4.479 -1.737,-2.102 -1.842,-2.523 -1.123,-4.512 0.426,-1.178 0.383,-1.421 -0.4,-2.255 -0.482,-0.513 -0.877,-1.241 -0.877,-1.616 0,-0.376 -0.438,-1.354 -0.973,-2.175 -0.535,-0.82 -1.085,-2.211 -1.222,-3.091 -0.137,-0.88 -0.617,-3.167 -1.067,-5.082 l -0.818,-3.481 0.886,-1.245 c 2.177,-3.058 -1.605,-14.797 -5.168,-16.039 l -1.097,-0.382 2.43,-10.984 c 2.632,-11.903 2.794,-12.327 3.155,-8.287 m -25.618,9.814 c 7.321,8.952 7.012,8.469 6.085,9.494 -0.948,1.048 -0.53,1.825 1.279,2.38 0.84,0.257 1.924,0.661 2.407,0.896 l 0.88,0.429 -1.588,2.892 c -1.008,1.837 -1.712,3.75 -1.93,5.244 -0.189,1.293 -0.365,2.137 -0.392,1.875 -0.027,-0.262 -3.289,-7.607 -7.249,-16.324 -7.117,-15.665 -7.744,-17.153 -6.579,-15.612 0.327,0.433 3.517,4.36 7.087,8.726 M 134.4,70.446 c -0.966,0.286 -2.61,1.667 -5.299,4.452 -3.74,3.873 -4.506,4.936 -2.775,3.856 1.447,-0.904 9.582,6.347 9.092,8.104 -0.346,1.238 3.17,-2.551 5.385,-5.804 1.543,-2.266 1.776,-3.09 1.599,-5.652 -0.26,-3.768 -4.06,-6.121 -8.002,-4.956 m 3.044,2.202 c 3.959,1.878 4.524,6.46 1.239,10.052 -1.294,1.415 -2.638,0.656 -7.777,-4.392 l -2.094,-2.057 0.903,-1.171 c 1.978,-2.565 5.268,-3.6 7.729,-2.432 M 262.396,74.1 c -4.656,3.169 -3.885,9.06 1.795,13.714 l 1.791,1.467 L 268,87.8 c 1.539,-1.13 2.256,-1.422 3.016,-1.232 0.913,0.229 0.839,0.046 -0.874,-2.16 -1.03,-1.326 -1.966,-2.317 -2.081,-2.203 -0.114,0.115 0.005,0.421 0.266,0.682 0.831,0.831 0.521,1.409 -1.58,2.952 l -2.052,1.506 -1.687,-1.784 c -3.086,-3.267 -2.606,-7.156 1.155,-9.36 4.713,-2.763 10.243,1.131 8.615,6.066 -0.624,1.89 -0.316,2.005 1.38,0.516 1.549,-1.359 1.809,-1.983 0.828,-1.983 -0.342,0 -0.938,-0.755 -1.344,-1.703 -2.157,-5.032 -7.625,-7.462 -11.246,-4.997 m -69.273,7.93 c -0.079,0.237 -0.314,0.43 -0.523,0.43 -0.209,0 -0.444,-0.193 -0.523,-0.43 -0.079,-0.236 0.156,-0.43 0.523,-0.43 0.367,0 0.602,0.194 0.523,0.43 m -71.285,2.754 c -2.059,3.183 -2.271,3.762 -0.907,2.48 l 0.932,-0.875 4.568,2.968 c 4.182,2.716 4.569,3.071 4.566,4.188 -0.003,1.455 0.095,1.372 2.172,-1.845 1.446,-2.24 1.892,-3.556 0.611,-1.805 -0.495,0.677 -6.18,-1.452 -6.18,-2.316 0,-0.146 -0.99,-0.923 -2.2,-1.726 -2.223,-1.476 -2.589,-2.104 -1.727,-2.966 0.261,-0.261 0.368,-0.58 0.238,-0.709 -0.129,-0.13 -1.062,1.043 -2.073,2.606 m 70.152,-0.572 c -0.247,0.297 -0.731,0.432 -1.075,0.3 -0.551,-0.212 -0.541,-0.304 0.088,-0.764 0.873,-0.638 1.613,-0.29 0.987,0.464 m 6.41,3.292 c 0,0.167 -0.36,0.528 -0.8,0.803 -0.44,0.275 -0.8,0.929 -0.8,1.454 0,0.983 -0.991,1.701 -1.411,1.022 -0.13,-0.211 -0.049,-0.383 0.18,-0.383 0.229,0 0.534,-0.495 0.679,-1.1 0.393,-1.647 2.152,-3.115 2.152,-1.796 m 2,2.844 c 0,0.386 0.378,1.107 0.84,1.603 0.813,0.873 0.816,0.92 0.1,1.463 -1.895,1.435 -4.158,-0.705 -2.34,-2.214 0.33,-0.274 0.6,-0.847 0.6,-1.273 0,-0.426 0.18,-0.663 0.4,-0.527 0.22,0.136 0.4,0.563 0.4,0.948 m -39.6,5.273 c 2.75,1.272 10.94,5.106 18.2,8.521 l 13.2,6.21 0.122,1.598 c 0.101,1.331 -0.033,1.678 -0.8,2.074 -1.572,0.812 -2.669,2.026 -2.939,3.254 -0.347,1.577 1.157,2.536 -20.218,-12.889 C 146.891,88.892 146.819,88.834 152,91.416 c 2.09,1.041 6.05,2.934 8.8,4.205 m 36,-3.497 c 0,0.925 -0.965,1.794 -2.3,2.07 -0.749,0.156 -1.3,0.107 -1.3,-0.114 0,-0.21 0.585,-0.619 1.3,-0.908 0.715,-0.289 1.444,-0.761 1.62,-1.049 0.408,-0.668 0.68,-0.668 0.68,10e-4 m 70.8,0.394 c 0,0.44 1.579,3.882 1.781,3.882 0.115,0 0.167,-0.405 0.114,-0.9 -0.085,-0.802 0.105,-0.913 1.737,-1.019 l 1.832,-0.119 1.271,2.877 1.271,2.878 -1.023,1.341 c -1.117,1.465 -1.956,1.709 -2.35,0.685 -0.138,-0.362 -0.341,-0.569 -0.449,-0.46 -0.222,0.221 2.175,5.517 2.496,5.517 0.113,0 0.09,-0.3 -0.05,-0.667 -0.28,-0.728 0.707,-2.109 4.847,-6.778 1.388,-1.565 2.523,-3.022 2.523,-3.238 0,-0.216 0.36,-0.719 0.8,-1.117 1.302,-1.178 1.006,-1.311 -3.5,-1.573 -9.22,-0.537 -10.231,-0.638 -10.757,-1.074 -0.298,-0.248 -0.543,-0.354 -0.543,-0.235 M 117.063,93.42 c 0.132,0.344 -0.119,1.013 -0.562,1.5 -1.911,2.1 -2.259,4.663 -0.872,6.426 1.286,1.635 2.618,1.385 6.083,-1.146 3.224,-2.354 4.181,-2.623 5.226,-1.469 1.647,1.82 -0.062,4.861 -3.272,5.824 -1.049,0.315 -1.603,0.645 -1.266,0.755 3.087,1.001 3.6,1.031 3.6,0.21 0,-0.442 0.445,-1.334 0.989,-1.98 4.837,-5.749 0.049,-10.17 -6.029,-5.568 -3.463,2.621 -5.36,2.556 -5.36,-0.186 0,-1.178 2.582,-3.386 3.96,-3.386 1.71,0 1.554,-0.579 -0.306,-1.137 -2.053,-0.615 -2.475,-0.584 -2.191,0.157 m 86.748,-0.202 c 0.142,0.229 0.04,0.679 -0.226,1 -0.544,0.656 -2.385,0.797 -2.385,0.182 0,-0.22 0.276,-0.4 0.613,-0.4 0.336,0 0.716,-0.27 0.842,-0.6 0.268,-0.698 0.787,-0.78 1.156,-0.182 m 76.083,1.759 c 0.177,0.146 -3.293,4.177 -3.617,4.2 -0.425,0.03 -2.244,-4.082 -1.992,-4.504 0.157,-0.263 5.26,0.014 5.609,0.304 M 197.808,98.2 c 0.009,1.245 -0.45,2.2 -1.057,2.2 -0.193,0 -0.351,-0.366 -0.351,-0.813 0,-0.962 -1.062,-1.485 -1.707,-0.84 -0.337,0.337 -0.279,0.453 0.227,0.453 0.938,0 0.851,0.557 -0.292,1.878 -1.105,1.275 -2.503,0.817 -1.434,-0.47 0.445,-0.537 0.411,-0.592 -0.237,-0.385 -0.713,0.228 -0.717,0.209 -0.057,-0.334 0.385,-0.318 0.7,-0.714 0.7,-0.882 0,-0.168 -0.274,-0.077 -0.61,0.201 -0.335,0.278 -0.737,0.378 -0.894,0.222 -0.381,-0.381 1.409,-1.737 2.904,-2.201 2.058,-0.637 2.799,-0.381 2.808,0.971 m 4.459,0.371 c -0.121,0.314 0.021,0.77 0.315,1.014 1.061,0.881 -0.259,3.067 -1.552,2.571 -0.499,-0.191 -0.608,-0.545 -0.425,-1.379 0.198,-0.9 0.064,-1.223 -0.679,-1.638 -0.965,-0.539 -0.792,-0.624 2.217,-1.086 0.188,-0.029 0.244,0.204 0.124,0.518 m -2.339,1.929 c -0.07,0.495 -0.308,0.9 -0.528,0.9 -0.22,0 -0.458,-0.405 -0.528,-0.9 -0.088,-0.619 0.077,-0.9 0.528,-0.9 0.451,0 0.616,0.281 0.528,0.9 m -2.049,2.13 c 0.084,0.256 -0.43,0.419 -1.268,0.4 -1.393,-0.03 -1.679,-0.228 -1.126,-0.782 0.414,-0.413 2.229,-0.124 2.394,0.382 m -3.858,0.506 c 0.578,0.469 0.75,0.834 0.473,1.006 -0.24,0.148 -0.944,-0.177 -1.565,-0.724 -1.366,-1.201 -0.364,-1.46 1.092,-0.282 m 4.31,1.802 c 0.112,0.581 -0.082,0.696 -0.992,0.592 -1.579,-0.181 -1.835,-1.52 -0.268,-1.4 0.719,0.056 1.171,0.345 1.26,0.808 m 88.909,1.313 c -0.059,1.263 -0.581,1.5 -5.969,2.708 -5.028,1.127 -6.071,1.136 -6.071,0.054 0,-0.337 -0.191,-0.613 -0.424,-0.613 -0.233,0 -0.333,0.146 -0.223,0.323 0.11,0.178 0.77,2.833 1.468,5.9 1.435,6.308 1.271,5.99 3.279,6.347 1.695,0.301 1.998,-0.215 0.521,-0.888 -1.348,-0.614 -2.238,-2.103 -2.863,-4.792 -0.664,-2.857 -0.863,-2.701 5.229,-4.102 5.364,-1.234 5.643,-1.227 6.243,0.153 0.266,0.614 0.302,0.35 0.123,-0.922 -0.329,-2.341 -1.261,-5.298 -1.313,-4.168 M 196.4,107.6 c 0,0.22 -0.27,0.4 -0.6,0.4 -0.33,0 -0.6,-0.18 -0.6,-0.4 0,-0.22 0.27,-0.4 0.6,-0.4 0.33,0 0.6,0.18 0.6,0.4 m -84.398,2.337 c -0.626,0.625 -1.353,1.93 -1.618,2.9 -1.22,4.476 -1.844,7.563 -1.529,7.563 0.19,0 0.345,-0.276 0.345,-0.613 0,-1.084 1.067,-1.079 5.88,0.03 5.537,1.275 6.12,1.529 6.12,2.664 0,1.489 0.47,0.453 1.051,-2.319 0.538,-2.566 0.512,-3.936 -0.041,-2.192 -0.334,1.05 -1.766,1 -5.327,-0.186 -0.649,-0.216 0.086,-1.784 0.836,-1.784 1.446,0 6.278,-3.725 6.672,-5.144 0.534,-1.923 0.496,-2.404 -0.126,-1.586 -0.281,0.369 -1.964,1.563 -3.741,2.654 l -3.231,1.983 -0.222,-1.653 c -0.423,-3.153 -3.038,-4.348 -5.069,-2.317 m 91.78,1.481 c 1.221,1.221 1.227,1.308 0.172,2.582 -0.671,0.81 -0.775,0.848 -0.546,0.2 0.818,-2.316 0.545,-2.896 -0.754,-1.597 -0.791,0.791 -1.163,0.137 -0.667,-1.169 0.484,-1.274 0.536,-1.274 1.795,-0.016 m -88.513,0.844 c 0.761,0.689 1.082,4.674 0.409,5.089 -0.627,0.388 -5.278,-1.034 -5.278,-1.613 0,-3.091 2.959,-5.204 4.869,-3.476 m 79.131,0.167 c 0,0.639 -1.195,1.712 -1.519,1.364 -0.155,-0.166 -0.056,-0.383 0.219,-0.481 0.275,-0.098 0.5,-0.434 0.5,-0.745 0,-0.312 0.18,-0.567 0.4,-0.567 0.22,0 0.4,0.193 0.4,0.429 m 1.6,1.971 c 0,0.44 -0.18,0.8 -0.4,0.8 -0.22,0 -0.4,-0.36 -0.4,-0.8 0,-0.44 0.18,-0.8 0.4,-0.8 0.22,0 0.4,0.36 0.4,0.8 m -2.6,1.2 c -0.136,0.22 -0.651,0.4 -1.144,0.4 -0.493,0 -1.109,0.213 -1.369,0.473 -0.59,0.59 -1.067,0.172 -0.749,-0.656 0.16,-0.417 0.767,-0.617 1.873,-0.617 0.989,0 1.538,0.158 1.389,0.4 m 2.3,1.846 c 0.84,0.297 0.931,0.954 0.133,0.954 -1.024,0 -1.833,-0.475 -1.833,-1.076 0,-0.33 0.221,-0.488 0.5,-0.358 0.275,0.129 0.815,0.345 1.2,0.48 m -4.27,0.641 c -0.726,0.406 -1.83,0.162 -1.83,-0.405 0,-0.189 0.565,-0.261 1.255,-0.159 1.039,0.152 1.138,0.249 0.575,0.564 M 204,118.016 c 0,0.689 -1.712,2.784 -2.275,2.784 -0.749,0 -0.665,-0.268 0.575,-1.821 1.111,-1.393 1.7,-1.726 1.7,-0.963 m -2.8,0.384 c 0,0.22 -0.259,0.4 -0.576,0.4 -0.317,0 -0.688,-0.18 -0.824,-0.4 -0.136,-0.22 0.123,-0.4 0.576,-0.4 0.453,0 0.824,0.18 0.824,0.4 m 4.4,1.259 c 0,0.739 -1.794,2.779 -2.95,3.356 -1.617,0.806 -1.709,0.51 -0.333,-1.073 0.641,-0.738 1.375,-1.74 1.63,-2.227 0.447,-0.85 1.653,-0.891 1.653,-0.056 m 7.1,-0.082 c 1.05,0.876 1.135,1.223 0.3,1.223 -0.33,0 -0.6,-0.158 -0.6,-0.35 0,-0.192 -0.54,-0.458 -1.2,-0.59 -0.66,-0.132 -1.2,-0.424 -1.2,-0.65 0,-0.674 1.734,-0.438 2.7,0.367 m -18.9,0.023 c -0.136,0.22 -0.732,0.387 -1.324,0.372 -0.961,-0.025 -0.99,-0.065 -0.276,-0.372 1.111,-0.478 1.895,-0.478 1.6,0 m -6.717,0.526 c -0.092,0.261 -0.643,0.422 -1.225,0.359 -0.932,-0.102 -1.058,0.026 -1.058,1.07 0,0.651 -0.54,2.533 -1.2,4.181 -0.66,1.649 -1.2,3.192 -1.2,3.431 0,0.563 2.635,0.839 -24.6,-2.577 -24.412,-3.061 -26.025,-3.295 -23.2,-3.368 0.88,-0.023 2.5,-0.129 3.6,-0.237 1.1,-0.108 10.28,-0.733 20.4,-1.389 25.697,-1.667 25.988,-1.687 26.106,-1.786 0.424,-0.355 2.515,-0.077 2.377,0.316 m 2.679,0.119 c 0.181,0.471 0.076,0.579 -0.39,0.4 -0.351,-0.135 -0.723,-0.245 -0.828,-0.245 -0.105,0 -0.08,-0.18 0.056,-0.4 0.367,-0.594 0.882,-0.485 1.162,0.245 m -0.543,1.69 c 0.553,0.448 0.789,0.929 0.602,1.23 -0.226,0.366 -0.555,0.261 -1.263,-0.405 -1.605,-1.507 -1.044,-2.206 0.661,-0.825 m -2.959,0.677 c 0.148,0.386 0.512,0.524 0.987,0.373 0.937,-0.297 0.95,0.187 0.053,1.989 -0.676,1.359 -1.3,1.851 -1.3,1.026 0,-1.057 -1.152,-0.213 -1.735,1.271 -0.361,0.919 -0.74,1.587 -0.843,1.485 -0.214,-0.215 0.569,-2.54 1.29,-3.83 0.268,-0.48 0.488,-1.335 0.488,-1.9 0,-1.122 0.685,-1.39 1.06,-0.414 m 104.54,0.998 c 0,1.973 -11.28,2.331 -12.307,0.39 -0.455,-0.859 -0.513,-0.106 -0.411,5.362 l 0.118,6.361 1.287,0.539 c 2.092,0.875 2.355,0.626 0.911,-0.864 -1.302,-1.343 -1.359,-1.53 -1.378,-4.5 L 279,127.8 l 5.4,-0.2 c 5.658,-0.21 6.245,-0.09 6.522,1.329 0.093,0.479 0.194,-0.704 0.224,-2.629 0.029,-1.925 -0.036,-3.5 -0.146,-3.5 -0.11,0 -0.2,0.364 -0.2,0.81 M 118,124.926 c 0,0.117 0.54,0.752 1.2,1.412 1.135,1.136 1.2,1.375 1.2,4.431 V 134 h -2.8 -2.8 v -2.367 c 0,-2.709 0.259,-3.633 1.019,-3.633 0.294,0 0.645,-0.18 0.781,-0.4 0.155,-0.251 -0.693,-0.395 -2.276,-0.387 l -2.524,0.012 1.1,0.821 c 1,0.746 1.1,1.053 1.1,3.387 V 134 h -2.6 -2.6 v -3.171 c 0,-3.088 0.493,-4.429 1.629,-4.429 0.204,0 0.371,-0.18 0.371,-0.4 0,-0.22 -0.621,-0.4 -1.38,-0.4 h -1.38 l -0.12,6.1 c -0.119,6.039 0.027,7.823 0.48,5.896 l 0.235,-0.996 5.664,-0.111 5.664,-0.111 0.603,1.111 c 0.558,1.029 0.603,0.635 0.618,-5.346 l 0.016,-6.456 -0.963,-0.242 c -0.529,-0.133 -1.249,-0.352 -1.6,-0.486 -0.35,-0.135 -0.637,-0.149 -0.637,-0.033 m 81.632,0.291 c 0.429,0.23 1.145,1.195 1.592,2.144 0.446,0.95 1.219,1.912 1.717,2.139 0.556,0.254 1.094,1.041 1.392,2.036 0.289,0.964 1.036,2.077 1.842,2.743 1.027,0.849 1.454,1.607 1.76,3.121 0.222,1.1 0.681,3.08 1.02,4.4 0.713,2.777 0.835,5.165 0.245,4.8 -0.22,-0.136 -0.4,-0.937 -0.4,-1.78 0,-0.843 -0.356,-2.317 -0.791,-3.276 -0.435,-0.959 -0.795,-2.419 -0.8,-3.244 -0.005,-0.842 -0.207,-1.5 -0.461,-1.5 -0.642,0 -0.132,3.482 1.073,7.321 1.707,5.441 1.314,7.184 -1.821,8.082 -0.55,0.158 -1.47,0.726 -2.044,1.263 -1.005,0.94 -1.141,0.96 -3.619,0.528 -1.416,-0.246 -2.747,-0.405 -2.956,-0.352 -0.21,0.052 -1.191,-0.026 -2.181,-0.175 -0.99,-0.148 -2.864,-0.358 -4.163,-0.465 -1.3,-0.108 -2.451,-0.283 -2.558,-0.39 -0.54,-0.539 -0.07,-5.358 0.684,-7.012 0.967,-2.125 1.159,-8.386 0.349,-11.415 -0.853,-3.187 2.513,-8.173 5.535,-8.198 0.854,-0.007 1.902,-0.277 2.329,-0.6 0.924,-0.698 1.227,-0.721 2.256,-0.17 m -12.432,4.329 c 0,0.19 -0.38,0.829 -0.844,1.419 -0.73,0.928 -0.79,1.285 -0.442,2.654 0.442,1.742 -0.096,2.207 -0.703,0.609 -0.41,-1.077 -0.118,-3.75 0.493,-4.528 0.448,-0.569 1.496,-0.677 1.496,-0.154 m -2.559,0.691 c -0.621,1.619 -0.681,2.63 -0.236,3.979 0.352,1.066 0.362,1.577 0.038,1.901 -0.324,0.324 -0.456,0.314 -0.493,-0.037 -0.027,-0.264 -0.081,-0.615 -0.118,-0.78 -0.583,-2.572 -0.628,-3.543 -0.211,-4.551 0.487,-1.175 1.463,-1.665 1.02,-0.512 m -2.035,8.212 c 0.244,6.33 0.673,5.734 -6.384,8.868 l -6.117,2.717 -2.532,-0.407 c -2.938,-0.473 -3.786,-0.033 -4.201,2.184 -0.218,1.157 -12.679,7.374 -19.529,9.742 -0.476,0.165 31.966,-23.498 35.957,-26.227 2.907,-1.987 2.596,-2.333 2.806,3.123 m 2.726,0.988 c -0.113,2.603 -0.575,4.163 -1.233,4.163 -0.598,0 -0.47,-4.676 0.156,-5.689 0.509,-0.824 1.14,0.069 1.077,1.526 m 92.809,1.132 c -0.223,1.227 -0.255,2.231 -0.073,2.231 0.183,0 0.332,-0.27 0.332,-0.6 0,-0.884 1.237,-0.727 2.55,0.324 l 1.15,0.921 -0.52,2.914 c -0.549,3.069 -0.658,3.194 -3.398,3.881 -0.81,0.204 -0.982,0.099 -0.982,-0.597 0,-1.739 -0.7,-0.759 -0.944,1.323 -0.14,1.191 -0.374,2.496 -0.52,2.9 -0.231,0.641 -0.142,0.625 0.7,-0.128 0.53,-0.473 2.314,-1.25 3.964,-1.725 4.271,-1.229 10.004,-3.279 9.98,-3.568 -0.011,-0.135 -2.455,-2.045 -5.432,-4.245 -2.976,-2.2 -5.635,-4.419 -5.907,-4.931 -0.465,-0.873 -0.521,-0.792 -0.9,1.3 m -169.608,3.269 c 0.142,0.859 0.26,1.877 0.263,2.262 0.002,0.385 0.178,0.7 0.391,0.7 0.214,0 0.285,-0.268 0.159,-0.597 -0.423,-1.101 1.025,-1.102 5.459,-0.002 5.259,1.305 5.212,0.936 0.57,4.499 -4.167,3.199 -4.423,3.301 -4.999,2 -0.328,-0.744 -0.358,-0.657 -0.171,0.5 0.125,0.77 0.334,2.165 0.465,3.1 0.131,0.935 0.405,1.7 0.608,1.7 0.203,0 0.266,-0.167 0.14,-0.371 -0.394,-0.637 1.439,-2.234 5.315,-4.632 2.159,-1.336 3.543,-2.427 3.283,-2.587 -0.277,-0.171 0.173,-0.709 1.167,-1.398 2.101,-1.456 2.068,-1.543 -0.883,-2.302 -1.375,-0.354 -3.58,-0.939 -4.9,-1.302 -1.32,-0.362 -3.084,-0.836 -3.921,-1.054 -0.837,-0.218 -1.9,-0.775 -2.363,-1.238 l -0.841,-0.841 0.258,1.563 m 176.867,1.9 c 0.88,0.663 1.753,1.334 1.94,1.493 0.187,0.159 -0.661,0.58 -1.885,0.936 -1.224,0.356 -2.527,0.762 -2.895,0.904 -0.592,0.227 -0.638,0.028 -0.392,-1.707 0.539,-3.81 0.413,-3.747 3.232,-1.626 m -68.177,3.534 3.144,3.728 -1.526,0.12 c -1.846,0.146 -4.363,-1.195 -4.623,-2.461 -0.387,-1.886 -0.678,-5.642 -0.418,-5.387 0.153,0.15 1.693,1.95 3.423,4 m -35.469,-3.096 c -0.345,0.898 -1.77,1.675 -5.16,2.813 -5.099,1.712 -5.055,0.987 0.077,-1.259 5.318,-2.329 5.388,-2.35 5.083,-1.554 m -1.57,3.685 c -0.948,0.693 -1.384,0.683 -1.384,-0.032 0,-0.314 0.315,-0.642 0.7,-0.729 1.109,-0.252 1.49,0.172 0.684,0.761 m -14.618,1.839 c 0.187,0.495 0.244,1.062 0.126,1.261 -0.255,0.428 -1.292,-0.886 -1.292,-1.637 0,-0.854 0.798,-0.596 1.166,0.376 m -0.188,2.988 c 0.305,0.795 0.028,1.077 -0.761,0.774 -0.339,-0.13 -0.617,-0.597 -0.617,-1.037 0,-0.926 0.995,-0.736 1.378,0.263 m 35.822,1 c 0,0.37 -1.396,0.346 -2.8,-0.049 -0.934,-0.262 -0.95,-0.309 -0.247,-0.705 0.784,-0.443 3.047,0.117 3.047,0.754 m 6.98,-0.915 c 1.444,0.05 0.054,0.816 -1.899,1.045 -1.441,0.17 -1.881,0.092 -1.881,-0.331 0,-0.867 0.416,-1.081 1.757,-0.904 0.684,0.089 1.594,0.175 2.023,0.19 m 18.431,0.845 c 0.404,0.654 -0.515,1.476 -1.925,1.721 -0.707,0.123 -1.871,0.342 -2.586,0.487 -1.383,0.282 -1.839,-0.483 -0.8,-1.341 1.188,-0.981 4.869,-1.582 5.311,-0.867 m 48.323,0.682 c -0.133,0.385 -0.578,1.488 -0.988,2.451 -0.944,2.215 -0.936,2.403 0.057,1.338 0.485,-0.521 1.078,-0.773 1.5,-0.636 1.925,0.622 8.086,3.173 8.085,3.347 -0.001,0.11 -3.193,1.445 -7.095,2.966 -3.901,1.521 -6.913,2.833 -6.693,2.915 6.886,2.574 11.211,4.82 11.415,5.928 l 0.22,1.191 0.626,-1.4 c 1.258,-2.811 1.515,-3.6 1.173,-3.6 -0.192,0 -0.452,0.27 -0.579,0.6 -0.353,0.922 -1.75,0.742 -5.352,-0.69 -4.123,-1.638 -4.338,-1.314 2.604,-3.934 5.865,-2.214 5.897,-2.233 6.777,-4 1.112,-2.236 1.145,-2.772 0.1,-1.651 -1.076,1.155 -1.068,1.156 -6.366,-0.934 -4.859,-1.918 -5.317,-2.258 -4.958,-3.688 0.266,-1.058 -0.173,-1.228 -0.526,-0.203 m -80.634,0.2 c -0.092,0.275 -0.767,0.5 -1.5,0.5 -0.733,0 -1.408,-0.225 -1.5,-0.5 -0.116,-0.347 0.344,-0.5 1.5,-0.5 1.156,0 1.616,0.153 1.5,0.5 m -28.7,0.329 c 0,0.551 -1.172,1.732 -1.447,1.458 -0.259,-0.26 0.727,-1.887 1.143,-1.887 0.167,0 0.304,0.193 0.304,0.429 m -40.912,1.695 c 0.234,1.227 -0.09,1.436 -5.676,3.648 l -4.789,1.897 -0.675,-0.834 c -1.05,-1.297 -1.241,-0.987 -0.41,0.665 0.414,0.825 0.971,2.172 1.237,2.994 0.624,1.929 1.159,2.248 1.084,0.646 -0.058,-1.241 -0.005,-1.277 4.741,-3.197 5.477,-2.215 5.867,-2.276 6.74,-1.043 0.372,0.526 0.251,-0.015 -0.292,-1.3 -0.511,-1.21 -1.049,-2.695 -1.196,-3.3 -0.323,-1.328 -1.015,-1.487 -0.764,-0.176 m 91.625,-0.462 c -0.355,1.063 -6.713,2.109 -6.713,1.105 0,-0.239 0.222,-0.36 0.494,-0.269 0.271,0.09 1.486,-0.148 2.7,-0.53 2.649,-0.835 3.726,-0.928 3.519,-0.306 m -17.049,1.538 c 1.395,0.66 2.941,1.2 3.436,1.2 1.053,0 1.232,0.771 0.2,0.861 -3.714,0.324 -10.234,-2.103 -8.024,-2.988 1.062,-0.425 1.909,-0.246 4.388,0.927 m 26.936,-0.4 c 0,0.391 -0.557,0.688 -1.6,0.853 -0.88,0.139 -2.158,0.483 -2.841,0.765 -0.683,0.282 -1.568,0.388 -1.967,0.234 -0.988,-0.379 -0.293,-1.009 1.32,-1.197 0.701,-0.082 1.683,-0.437 2.181,-0.791 1.107,-0.783 2.907,-0.699 2.907,0.136 m -64.259,0.421 c 1.454,0.886 1.479,1.217 0.405,5.333 l -0.406,1.554 -1.746,-1.714 c -3.93,-3.857 -2.592,-7.819 1.747,-5.173 m 29.659,-0.602 c 0,0.442 -2.205,2.101 -2.528,1.902 -0.435,-0.269 1.31,-2.121 1.998,-2.121 0.291,0 0.53,0.099 0.53,0.219 m 25.768,1.033 c -0.316,0.51 -0.968,0.022 -0.968,-0.725 0,-0.508 0.111,-0.533 0.596,-0.131 0.327,0.272 0.495,0.657 0.372,0.856 m -48.115,0.914 c 1.899,0.349 4.104,0.634 4.9,0.634 1.591,0 1.657,0.075 0.991,1.142 -1.033,1.653 0.536,5.058 2.891,6.276 1.432,0.741 1.434,0.596 -0.076,4.769 l -1.24,3.428 -1.46,-0.873 c -4.045,-2.42 -9.265,-6.041 -10.951,-7.596 l -1.892,-1.746 0.768,-3.128 c 0.423,-1.721 0.674,-3.376 0.558,-3.679 -0.166,-0.432 0.031,-0.476 0.924,-0.205 0.623,0.189 2.688,0.629 4.587,0.978 m 17.947,-0.342 c 0,0.317 -0.27,0.576 -0.6,0.576 -0.602,0 -0.822,-0.844 -0.344,-1.322 0.373,-0.374 0.944,0.077 0.944,0.746 m 27.778,-0.124 c -0.524,1.708 -0.953,1.9 -4.256,1.9 -4.167,0 -4.543,-1.216 -0.517,-1.67 1.317,-0.149 2.845,-0.452 3.395,-0.675 1.492,-0.603 1.681,-0.542 1.378,0.445 m 25.848,-0.486 c 1.639,0.877 0.19,4.108 -2.899,6.463 l -1.412,1.076 -0.458,-3.276 c -0.252,-1.803 -0.458,-3.489 -0.458,-3.749 0.001,-0.829 3.919,-1.214 5.227,-0.514 m -24.991,1.884 c -0.437,0.437 -0.736,-0.258 -0.423,-0.981 0.298,-0.685 0.32,-0.684 0.485,0.014 0.096,0.403 0.068,0.838 -0.062,0.967 m 12.089,-0.425 c 0.159,1.113 -0.683,1.545 -3.658,1.88 -1.284,0.144 -2.85,0.529 -3.481,0.855 -1.305,0.675 -3.185,0.789 -3.185,0.193 0,-0.683 3.737,-2.784 5,-2.811 0.66,-0.015 1.74,-0.277 2.4,-0.583 1.662,-0.772 2.773,-0.595 2.924,0.466 m -29.688,0.323 c 2.534,0.768 4.302,0.76 5.827,-0.029 1.6,-0.827 3.14,-0.462 3.128,0.741 l -0.009,0.892 -0.751,-0.977 -0.75,-0.977 -1.455,1.277 c -1.832,1.609 -3.546,1.668 -6.495,0.226 -1.684,-0.824 -2.537,-1.007 -3.948,-0.848 -1.5,0.169 -1.724,0.11 -1.343,-0.349 0.602,-0.725 3.329,-0.705 5.796,0.044 m -10.636,1.018 c 0,0.51 -1.483,0.498 -1.8,-0.014 -0.136,-0.22 -0.136,-0.58 10e-4,-0.801 0.292,-0.473 1.799,0.209 1.799,0.815 m -17.771,10.902 c 4.743,3.146 11.605,6.467 17.092,8.274 l 3.922,1.29 -1.322,0.66 c -1.5,0.75 -1.793,2.146 -1.878,8.96 -0.052,4.199 0.048,4.16 -5.707,2.28 -9.198,-3.005 -21.371,-10.073 -25.081,-14.563 -2.48,-3.001 -2.557,-3.503 -1.166,-7.647 0.805,-2.395 1.265,-4.689 1.397,-6.97 l 0.199,-3.4 4.257,4.221 c 2.615,2.593 5.813,5.253 8.287,6.895 m 26.395,-10.077 c 0.304,0.491 -1.124,0.455 -2.484,-0.062 -0.832,-0.316 -0.975,-0.508 -0.569,-0.759 0.576,-0.356 2.675,0.209 3.053,0.821 M 214.8,163.12 c 0,0.421 -0.869,1.28 -1.294,1.28 -0.184,0 -0.141,-0.36 0.094,-0.8 0.423,-0.79 1.2,-1.101 1.2,-0.48 m -2.825,1.711 -1.291,1.631 -3.442,-0.275 c -1.893,-0.151 -3.613,-0.435 -3.822,-0.631 -0.209,-0.196 -1.019,-0.377 -1.8,-0.402 l -1.42,-0.046 1.479,-0.288 c 0.814,-0.158 1.758,-0.518 2.098,-0.801 0.34,-0.282 0.953,-0.426 1.361,-0.319 0.408,0.106 1.444,0.058 2.302,-0.107 0.858,-0.166 2.52,-0.322 3.694,-0.347 l 2.133,-0.046 -1.292,1.631 M 242.842,170 c 0.42,1.65 0.978,3.76 1.24,4.689 1.94,6.871 -18.68,19.965 -34.382,21.833 l -1.7,0.202 -0.028,-5.062 c -0.035,-6.302 -0.108,-6.494 -2.792,-7.303 -2.706,-0.815 -2.229,-1.13 3.559,-2.347 10.228,-2.151 18.302,-6.1 27.538,-13.467 2.022,-1.614 4.002,-3.371 4.4,-3.907 l 0.723,-0.973 0.339,1.668 c 0.186,0.917 0.683,3.017 1.103,4.667 m -14.125,-4.769 c 0.264,2.191 -4.87,3.805 -8.765,2.756 -2.371,-0.638 -1.987,-2.011 0.624,-2.232 2.829,-0.239 5.229,-0.709 6.194,-1.212 1.32,-0.689 1.801,-0.518 1.947,0.688 M 213.4,166 c -0.194,0.313 -0.424,0.336 -0.69,0.07 -0.22,-0.22 -0.27,-0.612 -0.11,-0.87 0.194,-0.313 0.424,-0.336 0.69,-0.07 0.22,0.22 0.27,0.612 0.11,0.87 m 19.26,1.35 c 1.274,1.615 1.54,2.191 1.143,2.477 -6.152,4.44 -14.4,8.713 -19.674,10.193 -3.585,1.006 -3.28,1.254 -3.033,-2.466 l 0.202,-3.046 2.975,-0.225 c 1.636,-0.124 3.195,-0.407 3.463,-0.63 0.269,-0.223 1.203,-0.401 2.076,-0.397 0.874,0.005 2.376,-0.276 3.338,-0.624 0.963,-0.347 2.053,-0.632 2.422,-0.632 2.912,0 5.784,-2.934 5.239,-5.351 -0.433,-1.922 -0.128,-1.806 1.849,0.701 M 197.2,166.4 c 0,0.22 -0.259,0.4 -0.576,0.4 -0.317,0 -0.688,-0.18 -0.824,-0.4 -0.136,-0.22 0.123,-0.4 0.576,-0.4 0.453,0 0.824,0.18 0.824,0.4 m 14.445,0.915 c -0.327,0.327 -0.445,0.282 -0.445,-0.168 0,-0.795 0.538,-1.333 0.737,-0.737 0.084,0.253 -0.047,0.66 -0.292,0.905 M 123.6,169.86 c -5.43,3.178 -5.75,3.281 -6.931,2.24 -0.627,-0.553 -0.558,-0.279 0.332,1.3 1.433,2.544 2.435,3.705 1.847,2.139 -0.315,-0.839 -0.258,-1.187 0.277,-1.669 0.769,-0.693 6.126,-3.87 6.526,-3.87 0.144,0 -0.557,2.789 -1.558,6.199 l -1.821,6.198 0.764,1.435 c 0.987,1.854 1.336,2.049 1.241,0.695 -0.069,-0.976 0.324,-1.334 3.723,-3.39 5.383,-3.256 5.819,-3.413 6.91,-2.49 0.88,0.745 0.883,0.744 0.256,-0.047 -0.349,-0.44 -0.867,-1.389 -1.152,-2.109 -0.671,-1.693 -1.188,-1.997 -1.091,-0.64 0.071,0.985 -7.323,6.283 -7.926,5.679 -0.123,-0.123 3.284,-11.932 3.987,-13.817 0.392,-1.053 -0.573,-0.668 -5.384,2.147 m 85.428,-2.565 c 0.156,0.155 -0.175,0.457 -0.734,0.669 -0.559,0.213 -1.134,0.578 -1.279,0.811 -0.59,0.956 -2.615,-0.117 -2.615,-1.385 0,-0.588 4.052,-0.671 4.628,-0.095 m -12.628,0.262 c 0,0.197 -0.273,0.462 -0.606,0.59 -0.333,0.128 -0.783,0.698 -0.999,1.267 -0.452,1.188 -1.227,0.995 -0.908,-0.227 0.311,-1.187 2.513,-2.616 2.513,-1.63 m 1.508,0.118 c -0.247,0.742 -1.108,0.865 -1.108,0.158 0,-0.348 0.285,-0.633 0.633,-0.633 0.349,0 0.562,0.214 0.475,0.475 m 12.892,-0.099 c 0,0.472 -0.78,0.977 -1.067,0.691 -0.286,-0.287 0.219,-1.067 0.691,-1.067 0.207,0 0.376,0.169 0.376,0.376 m -1.6,1.4 c 0,0.717 -0.661,1.157 -1.219,0.812 -0.287,-0.177 -0.272,-0.438 0.049,-0.824 0.604,-0.728 1.17,-0.722 1.17,0.012 m -26.208,1.524 1.038,0.9 -2.616,3.3 c -3.698,4.665 -4.514,4.428 -2.79,-0.81 1.542,-4.685 2.246,-5.232 4.368,-3.39 m 14.332,-0.326 c 0.457,0.347 0.568,0.646 0.3,0.811 -0.233,0.144 -0.424,0.097 -0.424,-0.106 0,-0.202 -0.45,-0.282 -1,-0.177 -0.944,0.181 -1.321,-0.248 -0.733,-0.835 0.406,-0.407 1.057,-0.299 1.857,0.307 m 9.678,0.229 c 0.137,0.221 -0.04,0.514 -0.394,0.649 -0.766,0.294 -1.193,-0.03 -0.824,-0.625 0.332,-0.538 0.894,-0.549 1.218,-0.024 M 193.621,171 c -0.031,0.594 -0.926,0.485 -1.134,-0.138 -0.112,-0.337 0.071,-0.487 0.488,-0.4 0.367,0.076 0.658,0.318 0.646,0.538 m 11.179,-0.047 c 0,0.305 -0.45,0.64 -1,0.745 -1.543,0.295 -0.751,-0.824 0.9,-1.271 0.055,-0.015 0.1,0.222 0.1,0.526 M 202,171.6 c 0,0.22 -0.36,0.4 -0.8,0.4 -0.44,0 -0.8,-0.18 -0.8,-0.4 0,-0.22 0.36,-0.4 0.8,-0.4 0.44,0 0.8,0.18 0.8,0.4 m -43.306,0.7 c -0.559,0.621 -0.565,0.855 -0.052,2.07 0.405,0.959 0.452,1.496 0.157,1.791 -0.627,0.627 -1.819,-0.294 -1.704,-1.318 0.053,-0.463 -0.082,-0.843 -0.3,-0.843 -0.7,0 -0.42,1.853 0.39,2.587 1.519,1.374 2.899,-0.169 2.084,-2.329 -0.517,-1.369 -0.156,-2.02 0.896,-1.616 0.439,0.168 0.627,0.546 0.505,1.013 -0.243,0.927 0.358,1.371 0.688,0.51 0.334,-0.87 0.346,-0.837 -0.633,-1.749 -1.067,-0.994 -1.232,-1.003 -2.031,-0.116 m 31.506,1.162 c 7.491,1.663 8.289,1.772 12.2,1.653 l 3.8,-0.115 0.625,3.2 c 0.706,3.613 0.821,3.405 -2.321,4.2 -1.89,0.478 -2.372,1.396 -1.984,3.783 0.258,1.594 -0.201,1.805 -3.92,1.807 -4.899,0.002 -5.4,-0.22 -5.4,-2.393 0,-2.337 -0.039,-2.367 -5.175,-3.97 -4.883,-1.524 -8.553,-3.078 -8.36,-3.54 0.738,-1.775 4.637,-6.04 5.335,-5.836 0.44,0.128 2.78,0.673 5.2,1.211 m 74.477,3.907 c -3.918,5.601 -3.781,5.224 -2.48,6.815 1.176,1.439 1.56,1.215 0.902,-0.527 -0.542,-1.437 0.788,-4.66 2.643,-6.402 l 0.892,-0.839 2.183,1.451 c 1.201,0.798 2.244,1.501 2.319,1.561 0.701,0.568 -3.327,4.594 -4.367,4.365 -1.571,-0.345 -1.476,-0.088 0.51,1.372 2.014,1.482 2.447,1.548 1.873,0.289 -0.38,-0.834 1.92,-5.454 2.715,-5.454 1.369,0 4.048,3.073 3.47,3.98 -2.058,3.233 -3.403,4.469 -4.582,4.21 -1.457,-0.32 -1.46,-0.062 -0.011,0.97 l 1.144,0.815 2.956,-3.805 c 1.626,-2.092 2.924,-3.932 2.885,-4.087 -0.04,-0.156 0.158,-0.553 0.439,-0.883 0.997,-1.172 1.224,-1.848 0.369,-1.1 -1.024,0.896 -0.874,0.922 -3.389,-0.607 -4.408,-2.682 -7.215,-5.171 -6.963,-6.175 0.359,-1.429 0.19,-1.234 -3.508,4.051 m -103.253,-1.716 c -1.554,1.222 -2.024,2.663 -1.173,3.603 0.71,0.785 2.341,1.004 2.735,0.367 0.128,-0.207 -0.242,-0.342 -0.821,-0.3 -1.617,0.118 -2.144,-1.025 -1.111,-2.409 1.139,-1.524 2.698,-1.528 2.873,-0.007 0.136,1.184 0.873,1.126 0.873,-0.069 0,-1.788 -1.804,-2.422 -3.376,-1.185 m 49.049,2.047 c -0.166,3.118 -0.232,3.277 -1.525,3.667 -0.783,0.236 -0.892,0.035 -1.336,-2.455 -0.265,-1.492 -0.569,-3.027 -0.674,-3.412 -0.164,-0.597 0.094,-0.7 1.748,-0.7 h 1.94 l -0.153,2.9 m 23.37,-0.862 c -1.317,1.035 -1.319,1.973 -0.007,3.531 2.235,2.657 5.639,0.074 3.455,-2.622 -1.266,-1.563 -2.278,-1.83 -3.448,-0.909 m 2.721,1.193 c 1.342,1.594 0.963,3.169 -0.764,3.169 -1.412,0 -2.912,-3.646 -1.7,-4.135 1.014,-0.409 1.452,-0.238 2.464,0.966 m -70.993,0.082 c -0.345,0.488 -1.052,1.47 -1.571,2.182 -0.519,0.712 -0.846,1.392 -0.728,1.511 0.205,0.204 3.528,-3.93 3.528,-4.389 0,-0.496 -0.642,-0.133 -1.229,0.696 m 0.679,2.324 -1.52,2.037 0.905,0.963 c 0.497,0.53 1.084,0.963 1.304,0.963 0.22,0 -0.026,-0.454 -0.547,-1.008 -1.367,-1.456 -0.313,-2.683 1.362,-1.585 0.575,0.377 1.046,0.528 1.046,0.335 0,-0.192 -0.36,-0.574 -0.8,-0.849 -0.881,-0.55 -0.956,-0.827 -0.444,-1.635 0.283,-0.447 0.528,-0.421 1.394,0.146 1.284,0.841 1.389,0.407 0.15,-0.627 -1.212,-1.01 -1.127,-1.048 -2.85,1.26 m 63.042,-0.52 -0.908,0.698 1.465,2.093 c 1.902,2.717 2.605,2.734 0.776,0.019 -1.481,-2.199 -0.917,-4.131 0.792,-2.713 0.664,0.551 0.783,1.586 0.183,1.586 -0.22,0 -0.4,0.166 -0.4,0.369 0,0.435 2.753,1.412 3.074,1.09 0.121,-0.121 -0.266,-0.342 -0.86,-0.491 -0.84,-0.211 -1.033,-0.452 -0.868,-1.084 0.525,-2.007 -1.448,-2.957 -3.254,-1.567 m -59.277,2.92 c -0.691,1.123 -1.192,2.232 -1.114,2.466 0.078,0.234 0.62,-0.368 1.205,-1.339 l 1.063,-1.764 0.015,2.5 c 0.009,1.375 0.179,2.5 0.378,2.5 0.467,0 2.963,-4.409 2.664,-4.707 -0.292,-0.292 -0.367,-0.199 -1.358,1.707 l -0.833,1.6 -0.017,-2.276 c -0.024,-2.999 -0.483,-3.157 -2.003,-0.687 m 56.085,-1.313 c -1.392,0.664 -1.77,1.324 -0.58,1.013 0.548,-0.143 0.945,0.294 1.668,1.837 0.522,1.114 1.098,2.026 1.28,2.026 0.492,0 0.426,-0.242 -0.644,-2.352 -0.907,-1.791 -0.929,-1.971 -0.314,-2.587 0.794,-0.794 0.344,-0.774 -1.41,0.063 m -50.9,1.588 c 0,0.18 0.196,0.524 0.436,0.764 0.316,0.316 0.165,1.004 -0.541,2.48 -1.253,2.618 -0.635,2.688 0.687,0.079 0.804,-1.587 1.153,-1.925 1.807,-1.754 1.329,0.348 0.924,-0.207 -0.789,-1.081 -0.88,-0.449 -1.6,-0.669 -1.6,-0.488 m 47.266,0.327 c -1.544,1.082 -1.01,2.322 1.103,2.561 1.929,0.218 2.419,0.78 1.412,1.616 -0.525,0.436 -0.798,0.441 -1.457,0.029 -0.664,-0.414 -0.779,-0.41 -0.637,0.024 0.284,0.864 2.078,0.853 2.866,-0.017 1.122,-1.24 0.26,-2.452 -1.743,-2.452 -0.86,0 -1.661,-0.16 -1.782,-0.355 -0.387,-0.627 0.882,-1.327 1.85,-1.02 0.815,0.259 0.856,0.218 0.37,-0.367 -0.676,-0.814 -0.844,-0.816 -1.982,-0.019 m -86.266,1.03 c -0.44,0.245 -2.086,1.679 -3.657,3.188 -2.812,2.699 -3.914,3.212 -4.863,2.263 -1.291,-1.291 -0.266,0.356 1.186,1.904 1.496,1.597 2.759,2.252 1.563,0.811 -1.317,-1.587 6.186,-8.269 8.604,-7.662 1.437,0.36 3.767,3.252 3.767,4.674 0,2.286 -6.939,8.774 -8.12,7.593 -0.242,-0.242 -0.623,-0.44 -0.847,-0.44 -0.225,0 0.656,1.075 1.957,2.39 2.352,2.377 3.132,2.835 2.151,1.264 -0.472,-0.755 -0.223,-1.122 2.972,-4.388 4.042,-4.13 4.459,-5.497 2.555,-8.382 -1.819,-2.758 -5.312,-4.303 -7.268,-3.215 m 56.428,0.499 c 0.575,2.294 -0.152,2.773 -2.699,1.777 -1.535,-0.599 -1.696,-1.428 -0.414,-2.124 1.678,-0.911 2.829,-0.782 3.113,0.347 m 12.701,0.07 c 1.029,0.35 1.871,0.783 1.871,0.962 0,0.252 -3.262,1.6 -3.871,1.6 -0.071,0 -0.129,-0.72 -0.129,-1.6 0,-0.88 0.058,-1.6 0.129,-1.6 0.071,0 0.971,0.287 2,0.638 m 15.031,1.462 c 0.832,2.436 0.72,3.1 -0.523,3.1 -0.718,0 -1.012,-0.372 -1.477,-1.87 -0.32,-1.029 -0.805,-1.945 -1.079,-2.036 -0.51,-0.17 0.823,3.744 1.518,4.457 0.495,0.507 2.393,-0.064 2.678,-0.806 0.288,-0.753 -0.962,-4.945 -1.476,-4.945 -0.197,0 -0.035,0.945 0.359,2.1 m -42.494,0.767 c -1.394,3.232 -1.058,3.486 0.508,0.385 1.327,-2.629 1.397,-2.852 0.891,-2.852 -0.183,0 -0.813,1.11 -1.399,2.467 m 80.534,-1.542 c 0,0.325 -0.855,1.14 -1.901,1.811 -2.301,1.477 -3.299,3.05 -3.299,5.203 0,2.936 1.789,3.443 7.24,2.051 3.559,-0.909 4.76,-0.66 4.76,0.989 0,1.81 -2.216,3.151 -4.787,2.895 l -2.213,-0.22 1.6,1.367 c 1.769,1.512 2.2,1.666 2.2,0.789 0,-0.324 0.519,-0.858 1.152,-1.185 5.818,-3.009 3.7,-8.948 -2.498,-7.005 -4.421,1.386 -6.801,0.63 -5.964,-1.897 0.647,-1.955 2.736,-3.04 5.29,-2.747 1.198,0.137 2.098,0.189 2,0.114 -0.099,-0.075 -0.945,-0.726 -1.88,-1.446 -1.177,-0.908 -1.7,-1.129 -1.7,-0.719 m -78.509,2.361 c -1.299,1.864 -1.814,3.436 -0.587,1.791 0.731,-0.979 2.296,-0.454 2.296,0.77 0,0.524 0.18,0.953 0.4,0.953 0.229,0 0.4,-1.2 0.4,-2.8 0,-3.464 -0.494,-3.605 -2.509,-0.714 m 34.149,1.214 c 0.024,1.732 0.148,2.515 0.308,1.943 0.398,-1.422 1.873,-1.833 2.641,-0.737 1.139,1.625 0.619,-0.04 -0.649,-2.079 -1.802,-2.9 -2.349,-2.692 -2.3,0.873 m -32.068,-2 c -0.065,1.148 -0.581,1.865 -1.109,1.539 -0.448,-0.277 -0.448,-0.473 -0.004,-1.185 0.591,-0.946 1.156,-1.126 1.113,-0.354 m 2.613,0.014 c -0.756,2.059 -1.312,4.518 -1.073,4.749 0.551,0.536 2.629,0.889 2.324,0.395 -0.156,-0.252 -0.633,-0.458 -1.06,-0.458 -0.823,0 -0.993,-0.638 -0.413,-1.554 0.233,-0.367 0.704,-0.466 1.394,-0.293 1.343,0.338 1.353,-0.055 0.014,-0.564 -1.425,-0.542 -1.16,-1.833 0.343,-1.674 1.435,0.152 1.377,-0.135 -0.132,-0.661 -0.915,-0.319 -1.263,-0.304 -1.397,0.06 m 5.535,0.168 c 2.065,1.099 11.743,1.248 14.763,0.226 2.825,-0.956 2.775,-1.047 2.687,4.834 -0.06,4.088 -0.13,4.445 -1.038,5.286 -2.656,2.462 -12.454,2.66 -16.432,0.333 l -1.7,-0.995 v -5.183 c 0,-2.851 0.099,-5.183 0.22,-5.183 0.121,0 0.796,0.307 1.5,0.682 m 25.392,0.684 c 0.355,0.779 0.322,1.012 -0.169,1.2 -0.917,0.352 -0.943,0.326 -0.943,-0.966 0,-1.447 0.51,-1.555 1.112,-0.234 M 194.4,194.2 c 0,1.467 0.174,2.6 0.4,2.6 0.226,0 0.4,-1.133 0.4,-2.6 0,-1.467 -0.174,-2.6 -0.4,-2.6 -0.226,0 -0.4,1.133 -0.4,2.6 m 2,0.2 c 0,3.232 0.699,3.814 0.879,0.732 l 0.121,-2.068 0.583,1.168 c 1.638,3.283 2.417,3.273 2.417,-0.032 0,-2.99 -0.696,-3.545 -0.878,-0.7 l -0.122,1.9 -1.117,-1.9 c -1.513,-2.573 -1.883,-2.396 -1.883,0.9 m 30.103,11.142 c -5.829,2.31 -6.507,2.701 -4.631,2.674 1.663,-0.025 5.776,10.012 4.528,11.048 -0.44,0.365 -0.8,0.749 -0.8,0.853 0,0.347 5.394,-1.408 5.8,-1.887 0.22,-0.259 1.48,-0.894 2.8,-1.411 3.187,-1.247 3.393,-1.48 3.026,-3.419 -0.247,-1.302 -0.359,-1.451 -0.601,-0.8 -0.796,2.139 -1.326,2.684 -3.696,3.804 -3.381,1.597 -3.442,1.579 -4.606,-1.353 l -1.012,-2.55 2.052,-0.85 c 2.429,-1.007 3.169,-1.056 3.833,-0.255 0.963,1.16 1.122,0.173 0.289,-1.798 -0.926,-2.192 -1.485,-2.559 -1.485,-0.976 0,0.855 -0.362,1.182 -2.211,2 -2.873,1.27 -2.746,1.307 -3.736,-1.075 -1.106,-2.664 -1.177,-2.47 1.247,-3.442 3.378,-1.354 3.858,-1.425 4.92,-0.729 1.108,0.726 1.295,0.231 0.466,-1.234 -0.484,-0.853 -0.513,-0.847 -6.183,1.4 m -60.115,0.158 c -7,3.536 -3.307,13.158 5.092,13.268 1.528,0.02 2.677,-0.166 2.995,-0.483 0.419,-0.419 0.096,-0.465 -1.748,-0.248 -6.893,0.81 -10.163,-6.386 -4.973,-10.943 3.077,-2.701 8.377,-0.731 8.804,3.273 0.181,1.7 0.516,1.584 1.197,-0.417 0.799,-2.343 0.805,-2.697 0.041,-2.404 -0.332,0.127 -1.45,-0.306 -2.486,-0.962 -3.437,-2.18 -6.11,-2.504 -8.922,-1.084 m 14.412,3.193 c 0,0.169 0.261,0.307 0.58,0.307 1.147,0 1.046,8.072 -0.149,11.9 -0.017,0.055 -0.481,0.1 -1.031,0.1 -0.55,0 -1,0.18 -1,0.4 0,0.22 0.675,0.408 1.5,0.417 0.825,0.01 2.265,0.166 3.2,0.347 0.944,0.182 1.7,0.175 1.7,-0.018 0,-0.19 -0.261,-0.346 -0.58,-0.346 -0.972,0 -1.294,-1.14 -0.979,-3.462 0.373,-2.751 -0.042,-2.539 4.004,-2.046 l 3.444,0.419 -0.2,1.844 c -0.29,2.658 -0.744,3.645 -1.679,3.645 -0.446,0 -0.81,0.18 -0.81,0.4 0,0.22 0.495,0.402 1.1,0.403 0.605,0.002 2.09,0.097 3.3,0.211 1.592,0.149 1.963,0.101 1.341,-0.176 -1.346,-0.598 -1.384,-0.893 -0.738,-5.704 0.83,-6.177 0.842,-6.215 2.096,-6.639 0.963,-0.325 0.754,-0.409 -1.669,-0.673 -1.523,-0.165 -3.008,-0.392 -3.3,-0.504 -0.291,-0.112 -0.53,-0.025 -0.53,0.193 0,0.217 0.36,0.49 0.8,0.605 0.86,0.225 1.051,1.728 0.542,4.273 l -0.258,1.289 -2.242,-0.26 c -5.029,-0.583 -4.865,-0.5 -4.614,-2.362 0.41,-3.05 0.556,-3.384 1.633,-3.743 0.886,-0.295 0.518,-0.419 -2.199,-0.741 -1.794,-0.212 -3.262,-0.248 -3.262,-0.079 m 28.2,1.119 c -1.76,0.385 -2.817,0.72 -2.349,0.744 1.229,0.063 1.549,0.665 2.262,4.244 1.248,6.266 1.27,7.052 0.222,7.903 l -0.935,0.76 1,-0.201 c 0.55,-0.111 3.368,-0.604 6.263,-1.096 5.252,-0.893 5.263,-0.898 5.5,-2.081 0.461,-2.306 0.269,-2.506 -0.966,-1.007 -1.246,1.51 -6.435,3.244 -7.256,2.423 -0.386,-0.386 -1.926,-8.533 -1.935,-10.238 -0.004,-0.805 0.228,-1.199 0.794,-1.347 0.44,-0.115 0.8,-0.368 0.8,-0.563 0,-0.194 -0.045,-0.328 -0.1,-0.298 -0.055,0.031 -1.54,0.371 -3.3,0.757 m -10.099,0.853 c 1.989,0.727 2.258,11.834 0.299,12.378 -0.567,0.157 0.558,0.279 2.6,0.281 2.915,0.003 3.35,-0.068 2.289,-0.374 l -1.31,-0.378 0.11,-5.869 0.111,-5.868 1,-0.278 c 0.57,-0.158 -0.549,-0.281 -2.6,-0.286 -2.869,-0.006 -3.376,0.074 -2.499,0.394"
       inkscape:connector-curvature="0"
       style="fill:#000000;fill-rule:evenodd;stroke:none" />
  </g>
</svg>
