<?xml version="1.0" encoding="UTF-8" standalone="no"?>
<svg
   xmlns:dc="http://purl.org/dc/elements/1.1/"
   xmlns:cc="http://creativecommons.org/ns#"
   xmlns:rdf="http://www.w3.org/1999/02/22-rdf-syntax-ns#"
   xmlns:svg="http://www.w3.org/2000/svg"
   xmlns="http://www.w3.org/2000/svg"
   xmlns:sodipodi="http://sodipodi.sourceforge.net/DTD/sodipodi-0.dtd"
   xmlns:inkscape="http://www.inkscape.org/namespaces/inkscape"
   id="svg"
   version="1.1"
   width="124.82359"
   height="145.60495"
   style="display:block"
   inkscape:version="0.91 r13725"
   sodipodi:docname="unab.svg">
  <metadata
     id="metadata11">
    <rdf:RDF>
      <cc:Work
         rdf:about="">
        <dc:format>image/svg+xml</dc:format>
        <dc:type
           rdf:resource="http://purl.org/dc/dcmitype/StillImage" />
        <dc:title></dc:title>
      </cc:Work>
    </rdf:RDF>
  </metadata>
  <defs
     id="defs9" />
  <sodipodi:namedview
     pagecolor="#ffffff"
     bordercolor="#666666"
     borderopacity="1"
     objecttolerance="10"
     gridtolerance="10"
     guidetolerance="10"
     inkscape:pageopacity="0"
     inkscape:pageshadow="2"
     inkscape:window-width="640"
     inkscape:window-height="480"
     id="namedview7"
     showgrid="false"
     fit-margin-top="0"
     fit-margin-left="0"
     fit-margin-right="0"
     fit-margin-bottom="0"
     inkscape:zoom="0.94"
     inkscape:cx="184.44153"
     inkscape:cy="37.246564"
     inkscape:window-x="0"
     inkscape:window-y="0"
     inkscape:window-maximized="0"
     inkscape:current-layer="svg" />
  <g
     id="svgg"
     transform="translate(-0.667,-6.005255)">
    <path
       id="path0"
       d="m 62.139,51.152 c -0.031,0.083 -2.139,2.265 -4.686,4.847 -2.547,2.583 -4.778,4.896 -4.959,5.14 -0.323,0.437 -0.328,0.753 -0.286,18.028 l 0.042,17.583 10.167,0 10.166,0 0.043,-17.628 0.042,-17.628 -0.709,-0.783 c -0.39,-0.43 -0.972,-1.055 -1.292,-1.388 -2.724,-2.827 -7.055,-7.343 -7.463,-7.781 -0.491,-0.528 -0.953,-0.697 -1.065,-0.39 M 28.916,61.374 c -0.05,0.207 -0.07,8.251 -0.045,17.876 l 0.046,17.5 9.292,0.043 9.293,0.043 L 47.459,78.96 47.417,61.083 38.212,61.04 29.007,60.997 28.916,61.374 M 77.41,61.208 c -0.043,0.115 -0.06,8.159 -0.036,17.875 l 0.043,17.667 9.25,0 9.25,0 0.042,-17.74 C 95.993,64.929 95.958,61.243 95.792,61.138 95.418,60.9 77.502,60.969 77.41,61.208"
       inkscape:connector-curvature="0"
       style="fill:#931e31;fill-rule:evenodd;stroke:none" />
    <path
       id="path1"
       d="m 56.22,6.243 c 0.018,0.103 -0.444,0.194 -1.132,0.224 -0.672,0.029 -1.214,0.134 -1.286,0.25 -0.086,0.138 -0.568,0.181 -1.567,0.14 -1.026,-0.042 -1.41,-0.006 -1.329,0.125 0.076,0.123 -0.106,0.185 -0.545,0.185 -0.432,0 -0.692,0.086 -0.755,0.25 -0.06,0.157 -0.315,0.25 -0.684,0.25 -0.324,0 -0.589,0.075 -0.589,0.166 C 48.333,7.925 47.921,8 47.417,8 46.713,8 46.5,8.058 46.5,8.25 c 0,0.175 -0.176,0.25 -0.583,0.25 -0.321,0 -0.584,0.075 -0.584,0.167 0,0.091 -0.225,0.166 -0.5,0.166 -0.275,0 -0.5,0.075 -0.5,0.167 0,0.092 -0.3,0.167 -0.666,0.167 -0.482,0 -0.667,0.069 -0.667,0.25 0,0.155 -0.157,0.25 -0.417,0.25 -0.229,0 -0.416,0.075 -0.416,0.166 0,0.092 -0.305,0.167 -0.677,0.167 -0.408,0 -0.636,0.066 -0.573,0.167 0.058,0.094 -0.082,0.166 -0.324,0.166 -0.268,0 -0.426,0.093 -0.426,0.25 0,0.156 -0.158,0.25 -0.417,0.25 -0.229,0 -0.417,0.075 -0.417,0.167 0,0.092 -0.225,0.167 -0.5,0.167 -0.275,0 -0.5,0.075 -0.5,0.166 0,0.092 -0.152,0.167 -0.338,0.167 -0.186,0 -0.382,0.112 -0.435,0.25 C 37.508,11.887 37.36,12 37.232,12 37.104,12 37,12.075 37,12.167 c 0,0.091 -0.263,0.166 -0.583,0.166 -0.419,0 -0.584,0.074 -0.584,0.262 0,0.185 -0.096,0.23 -0.333,0.155 -0.237,-0.075 -0.333,-0.03 -0.333,0.155 0,0.144 -0.113,0.262 -0.25,0.262 -0.138,0 -0.25,0.075 -0.25,0.166 0,0.092 -0.153,0.167 -0.339,0.167 -0.186,0 -0.382,0.115 -0.436,0.255 -0.062,0.161 -0.214,0.218 -0.412,0.155 -0.216,-0.068 -0.313,-0.018 -0.313,0.162 0,0.144 -0.113,0.261 -0.25,0.261 -0.138,0 -0.25,0.075 -0.25,0.167 0,0.092 -0.188,0.167 -0.417,0.167 -0.229,0 -0.417,0.08 -0.417,0.178 0,0.266 -0.438,0.655 -0.738,0.655 -0.144,0 -0.262,0.075 -0.262,0.167 0,0.091 -0.094,0.166 -0.21,0.166 -0.115,0 -0.412,0.188 -0.659,0.417 -0.247,0.229 -0.528,0.417 -0.623,0.417 -0.096,0 -0.174,0.075 -0.174,0.166 0,0.092 -0.188,0.167 -0.417,0.167 -0.229,0 -0.417,0.08 -0.417,0.179 0,0.27 -0.44,0.654 -0.75,0.654 -0.269,0 -0.75,0.374 -0.75,0.584 0,0.232 -0.494,0.583 -0.821,0.583 -0.19,0 -0.345,0.066 -0.345,0.146 0,0.18 -1.063,1.354 -1.226,1.354 -0.217,0 -6.913,6.817 -7.017,7.144 -0.056,0.176 -0.324,0.412 -0.596,0.525 -0.272,0.113 -0.495,0.311 -0.495,0.44 0,0.129 -0.112,0.278 -0.25,0.331 -0.137,0.052 -0.25,0.205 -0.25,0.34 0,0.282 -0.395,0.72 -0.649,0.72 -0.096,0 -0.128,0.12 -0.072,0.266 0.065,0.168 -0.06,0.405 -0.338,0.644 -0.242,0.208 -0.441,0.489 -0.441,0.623 0,0.134 -0.187,0.344 -0.416,0.467 -0.229,0.123 -0.417,0.323 -0.417,0.445 0,0.122 -0.075,0.222 -0.167,0.222 -0.091,0 -0.166,0.104 -0.166,0.232 0,0.128 -0.112,0.275 -0.248,0.327 -0.135,0.052 -0.206,0.2 -0.157,0.33 0.05,0.129 -0.026,0.279 -0.169,0.334 -0.143,0.055 -0.26,0.234 -0.26,0.399 0,0.164 -0.187,0.439 -0.416,0.611 -0.229,0.173 -0.417,0.418 -0.417,0.547 0,0.128 -0.15,0.395 -0.333,0.591 -0.184,0.197 -0.334,0.494 -0.334,0.66 0,0.166 -0.112,0.302 -0.25,0.302 -0.139,0 -0.25,0.148 -0.25,0.333 0,0.184 -0.075,0.334 -0.166,0.334 -0.092,0 -0.167,0.187 -0.167,0.416 0,0.23 -0.075,0.417 -0.167,0.417 -0.091,0 -0.166,0.112 -0.166,0.25 0,0.137 -0.113,0.25 -0.25,0.25 -0.139,0 -0.25,0.148 -0.25,0.333 0,0.184 -0.075,0.334 -0.167,0.334 -0.092,0 -0.167,0.187 -0.167,0.416 0,0.23 -0.075,0.417 -0.166,0.417 C 8.575,40.5 8.5,40.604 8.5,40.732 8.5,40.86 8.387,41.008 8.25,41.06 8.112,41.113 8,41.342 8,41.568 c 0,0.227 -0.075,0.459 -0.167,0.515 -0.091,0.057 -0.166,0.215 -0.166,0.351 0,0.136 -0.188,0.449 -0.417,0.697 -0.229,0.247 -0.417,0.614 -0.417,0.816 0,0.202 -0.075,0.413 -0.166,0.47 -0.092,0.056 -0.167,0.286 -0.167,0.51 0,0.25 -0.096,0.406 -0.25,0.406 -0.167,0 -0.25,0.167 -0.25,0.5 0,0.275 -0.083,0.5 -0.185,0.5 -0.111,0 -0.145,0.158 -0.084,0.4 0.068,0.27 0.02,0.43 -0.149,0.494 C 5.445,47.28 5.333,47.475 5.333,47.661 5.333,47.859 5.224,48 5.07,48 4.864,48 4.831,48.109 4.917,48.5 4.999,48.873 4.96,49.026 4.763,49.101 4.607,49.161 4.5,49.399 4.5,49.684 c 0,0.266 -0.075,0.483 -0.167,0.483 -0.091,0 -0.166,0.225 -0.166,0.5 0,0.342 -0.083,0.5 -0.261,0.5 -0.213,0 -0.24,0.133 -0.147,0.75 0.094,0.625 0.068,0.75 -0.157,0.75 -0.187,0 -0.269,0.151 -0.269,0.5 0,0.275 -0.075,0.5 -0.166,0.5 C 3.075,53.667 3,54.034 3,54.482 3,55.01 2.921,55.328 2.777,55.383 2.629,55.44 2.58,55.651 2.632,56.007 c 0.057,0.384 10e-4,0.582 -0.193,0.691 -0.15,0.083 -0.272,0.336 -0.272,0.56 0,0.225 -0.075,0.409 -0.167,0.409 -0.095,0 -0.167,0.5 -0.167,1.166 C 1.833,59.753 1.781,60 1.587,60 1.39,60 1.361,60.152 1.442,60.747 1.524,61.346 1.491,61.514 1.272,61.598 1.072,61.675 1,61.917 1,62.518 c 0,0.448 -0.075,0.815 -0.167,0.815 -0.101,0 -0.166,0.728 -0.166,1.851 0,1.538 -0.041,1.836 -0.239,1.76 -0.2,-0.077 -0.223,0.148 -0.142,1.399 0.069,1.067 0.042,1.49 -0.095,1.49 -0.271,0 -0.274,13.596 -0.002,13.764 0.128,0.079 0.16,0.541 0.099,1.427 -0.072,1.056 -0.045,1.309 0.144,1.309 0.188,0 0.235,0.382 0.235,1.917 0,1.167 0.065,1.917 0.166,1.917 C 0.925,90.167 1,90.542 1,91 c 0,0.653 0.058,0.833 0.267,0.833 0.214,0 0.255,0.149 0.207,0.75 -0.042,0.523 0.004,0.75 0.15,0.75 0.148,0 0.209,0.341 0.209,1.167 0,0.667 0.072,1.167 0.167,1.167 0.092,0 0.167,0.254 0.167,0.565 0,0.359 0.095,0.602 0.26,0.666 0.209,0.08 0.238,0.252 0.144,0.877 C 2.469,98.454 2.489,98.54 2.727,98.449 2.952,98.362 3,98.461 3,99.005 c 0,0.364 0.075,0.662 0.167,0.662 0.091,0 0.166,0.304 0.166,0.676 0,0.409 0.066,0.636 0.167,0.574 0.103,-0.064 0.167,0.218 0.167,0.735 0,0.676 0.048,0.819 0.25,0.742 0.182,-0.071 0.25,0.02 0.25,0.338 0,0.239 0.075,0.435 0.166,0.435 0.092,0 0.167,0.183 0.167,0.406 0,0.224 0.075,0.454 0.167,0.51 0.091,0.057 0.166,0.364 0.166,0.682 0,0.361 0.095,0.615 0.25,0.675 0.138,0.052 0.25,0.275 0.25,0.494 0,0.22 0.075,0.399 0.167,0.399 0.092,0 0.167,0.188 0.167,0.417 0,0.229 0.075,0.417 0.166,0.417 0.092,0 0.167,0.227 0.167,0.505 0,0.295 0.104,0.545 0.25,0.601 0.138,0.053 0.25,0.238 0.25,0.411 0,0.174 0.075,0.316 0.167,0.316 0.091,0 0.166,0.107 0.166,0.238 0,0.131 0.12,0.358 0.267,0.505 0.172,0.172 0.231,0.411 0.166,0.67 -0.068,0.272 -0.017,0.45 0.158,0.548 0.142,0.079 0.271,0.303 0.285,0.497 0.015,0.194 0.086,0.316 0.159,0.271 0.073,-0.045 0.132,0.11 0.132,0.344 0,0.268 0.093,0.427 0.25,0.427 0.137,0 0.25,0.112 0.25,0.25 0,0.138 0.075,0.25 0.167,0.25 0.091,0 0.166,0.15 0.166,0.333 0,0.184 0.075,0.334 0.167,0.334 0.092,0 0.167,0.187 0.167,0.416 0,0.26 0.094,0.417 0.25,0.417 0.155,0 0.25,0.157 0.25,0.417 0,0.229 0.075,0.416 0.166,0.416 0.092,0 0.167,0.155 0.167,0.344 0,0.188 0.075,0.296 0.167,0.24 0.091,-0.057 0.166,0.051 0.166,0.24 0,0.189 0.081,0.343 0.179,0.343 0.321,0 0.655,0.467 0.655,0.917 0,0.449 0.333,0.916 0.654,0.916 0.099,0 0.179,0.192 0.179,0.427 0,0.242 0.072,0.382 0.167,0.323 0.091,-0.056 0.166,0.02 0.166,0.169 0,0.308 0.386,0.748 0.655,0.748 0.098,0 0.179,0.155 0.179,0.345 0,0.379 0.363,0.822 0.674,0.822 0.116,0 0.162,0.138 0.111,0.333 -0.057,0.217 -0.005,0.333 0.147,0.333 0.129,0 0.234,0.113 0.234,0.25 0,0.138 0.075,0.25 0.167,0.25 0.092,0 0.167,0.1 0.167,0.222 0,0.122 0.187,0.322 0.416,0.445 0.724,0.387 0.457,1.333 -0.376,1.333 -0.236,0 -0.349,0.071 -0.283,0.178 0.06,0.098 -0.048,0.219 -0.241,0.27 -0.192,0.05 -0.35,0.157 -0.35,0.238 0,0.081 -0.115,0.148 -0.255,0.148 -0.14,0 -0.298,0.112 -0.351,0.25 -0.053,0.137 -0.201,0.25 -0.33,0.25 -0.129,0 -0.365,0.066 -0.524,0.147 -0.159,0.081 -0.496,0.244 -0.748,0.361 -0.252,0.118 -0.458,0.314 -0.458,0.436 0,0.123 -0.15,0.222 -0.334,0.222 -0.183,0 -0.333,0.075 -0.333,0.167 0,0.092 -0.187,0.167 -0.417,0.167 -0.229,0 -0.416,0.075 -0.416,0.166 0,0.092 -0.115,0.167 -0.256,0.167 -0.14,0 -0.298,0.112 -0.351,0.25 -0.052,0.137 -0.2,0.25 -0.328,0.25 -0.128,0 -0.232,0.075 -0.232,0.167 0,0.091 -0.123,0.166 -0.273,0.166 -0.149,0 -0.446,0.188 -0.658,0.417 -0.213,0.229 -0.54,0.417 -0.728,0.417 -0.187,0 -0.341,0.075 -0.341,0.166 0,0.092 -0.112,0.167 -0.25,0.167 -0.138,0 -0.25,0.056 -0.25,0.125 -0.001,0.213 -0.778,1.042 -0.978,1.042 -0.138,0 -0.189,2.678 -0.189,10.078 0,8.89 0.03,10.067 0.25,9.982 0.221,-0.085 0.325,0.198 0.284,0.773 -0.003,0.046 4,0.083 8.897,0.083 7.011,0 8.903,-0.044 8.903,-0.208 0,-0.115 0.075,-0.208 0.166,-0.208 0.108,0 0.167,-1.804 0.167,-5.078 0,-5.379 0.029,-5.576 0.792,-5.303 0.114,0.041 0.253,-0.044 0.309,-0.189 0.056,-0.145 0.281,-0.264 0.5,-0.264 0.22,0 0.399,-0.069 0.399,-0.154 0,-0.266 0.95,-0.642 1.402,-0.556 0.32,0.061 0.431,0.013 0.431,-0.187 0,-0.158 0.138,-0.269 0.334,-0.269 0.183,0 0.333,-0.075 0.333,-0.167 0,-0.092 0.118,-0.167 0.262,-0.167 0.144,0 0.374,-0.112 0.512,-0.25 0.157,-0.157 0.4,-0.212 0.655,-0.148 0.293,0.073 0.404,0.033 0.404,-0.148 0,-0.138 0.202,-0.287 0.457,-0.335 0.478,-0.092 1.043,0.116 1.043,0.382 0,0.086 0.112,0.113 0.249,0.06 0.142,-0.054 0.293,0.019 0.351,0.172 0.057,0.147 0.245,0.267 0.418,0.267 0.174,0 0.316,0.075 0.316,0.167 0,0.092 0.112,0.167 0.25,0.167 0.137,0 0.25,0.108 0.25,0.239 0,0.157 0.26,0.279 0.75,0.353 0.474,0.071 0.75,0.197 0.75,0.343 0,0.127 0.104,0.231 0.232,0.231 0.128,0 0.275,0.113 0.328,0.25 0.053,0.138 0.272,0.25 0.486,0.25 0.215,0 0.552,0.15 0.749,0.334 0.196,0.183 0.556,0.333 0.799,0.333 0.324,0 0.416,0.067 0.345,0.25 -0.069,0.181 0.019,0.25 0.316,0.25 0.226,0 0.411,0.075 0.411,0.167 0,0.091 0.15,0.166 0.334,0.166 0.183,0 0.333,0.075 0.333,0.167 0,0.092 0.262,0.167 0.583,0.167 0.321,0 0.584,0.075 0.584,0.166 0,0.092 0.152,0.167 0.338,0.167 0.186,0 0.382,0.113 0.435,0.25 0.054,0.143 0.303,0.25 0.578,0.25 0.265,0 0.482,0.075 0.482,0.167 0,0.091 0.254,0.166 0.566,0.166 0.359,0 0.601,0.095 0.665,0.262 0.067,0.174 0.213,0.226 0.436,0.155 0.223,-0.071 0.368,-0.019 0.435,0.155 0.059,0.154 0.298,0.262 0.582,0.262 0.266,0 0.483,0.075 0.483,0.166 0,0.092 0.375,0.167 0.833,0.167 0.458,0 0.833,0.075 0.833,0.167 0,0.091 0.182,0.166 0.405,0.166 0.223,0 0.517,0.113 0.655,0.25 0.156,0.157 0.566,0.25 1.095,0.25 0.465,0 0.845,0.075 0.845,0.167 0,0.092 0.367,0.167 0.816,0.167 0.582,0 0.844,0.073 0.914,0.258 0.075,0.193 0.239,0.231 0.659,0.153 0.398,-0.075 0.636,-0.029 0.824,0.158 0.211,0.211 0.661,0.264 2.262,0.264 1.255,0 2.019,0.065 2.056,0.176 0.078,0.233 10.195,0.219 10.275,-0.014 0.032,-0.093 0.895,-0.162 2.024,-0.162 1.664,0 1.984,-0.042 2.072,-0.271 0.085,-0.222 0.254,-0.251 0.935,-0.161 0.683,0.091 0.83,0.065 0.83,-0.146 0,-0.195 0.195,-0.255 0.833,-0.255 0.459,0 0.834,-0.075 0.834,-0.167 0,-0.092 0.438,-0.167 0.982,-0.167 0.719,0 1.008,-0.067 1.078,-0.25 0.053,-0.137 0.286,-0.25 0.518,-0.25 0.232,0 0.422,-0.075 0.422,-0.166 0,-0.092 0.37,-0.167 0.823,-0.167 0.453,0 0.87,-0.075 0.927,-0.167 0.056,-0.091 0.278,-0.166 0.492,-0.166 0.214,0 0.431,-0.11 0.482,-0.243 0.061,-0.16 0.263,-0.222 0.591,-0.181 0.377,0.048 0.475,0.006 0.406,-0.173 -0.069,-0.181 0.071,-0.237 0.594,-0.237 0.377,0 0.685,-0.075 0.685,-0.166 0,-0.092 0.104,-0.167 0.232,-0.167 0.128,0 0.278,-0.121 0.335,-0.268 0.079,-0.207 0.235,-0.244 0.682,-0.16 0.479,0.09 0.562,0.064 0.48,-0.148 -0.073,-0.191 0.013,-0.257 0.336,-0.257 0.239,0 0.435,-0.075 0.435,-0.167 0,-0.092 0.262,-0.167 0.583,-0.167 0.419,0 0.583,-0.073 0.583,-0.261 0,-0.185 0.097,-0.23 0.334,-0.155 0.223,0.07 0.368,0.018 0.435,-0.156 0.055,-0.143 0.242,-0.261 0.416,-0.261 0.173,0 0.315,-0.075 0.315,-0.167 0,-0.091 0.16,-0.166 0.356,-0.166 0.196,0 0.53,-0.188 0.742,-0.417 0.213,-0.229 0.502,-0.417 0.644,-0.417 0.142,0 0.258,-0.075 0.258,-0.166 0,-0.092 0.188,-0.167 0.417,-0.167 0.229,0 0.417,-0.075 0.417,-0.167 0,-0.091 0.115,-0.166 0.255,-0.166 0.14,0 0.298,-0.113 0.351,-0.25 0.053,-0.138 0.2,-0.25 0.328,-0.25 0.128,0 0.232,-0.075 0.232,-0.167 0,-0.092 0.142,-0.167 0.316,-0.167 0.173,0 0.36,-0.117 0.416,-0.261 0.066,-0.174 0.212,-0.226 0.434,-0.156 0.238,0.076 0.334,0.031 0.334,-0.155 0,-0.179 0.157,-0.261 0.5,-0.261 0.334,0 0.5,0.083 0.5,0.25 0,0.137 0.132,0.256 0.292,0.263 0.16,0.007 0.442,0.049 0.625,0.094 0.183,0.045 0.479,0.102 0.657,0.126 0.178,0.024 0.353,0.131 0.389,0.238 0.036,0.108 0.209,0.196 0.385,0.196 0.182,0 0.319,0.115 0.319,0.268 0,0.208 0.13,0.253 0.583,0.2 0.321,-0.037 0.584,-0.01 0.584,0.062 0,0.071 0.187,0.177 0.416,0.235 0.23,0.057 0.417,0.171 0.417,0.253 0,0.081 0.112,0.148 0.25,0.148 0.138,0 0.25,0.111 0.25,0.246 0,0.184 0.125,0.221 0.5,0.146 l 0.5,-0.1 0,5.271 c 0,4.574 0.033,5.271 0.25,5.271 0.138,0 0.25,0.093 0.25,0.208 0,0.164 1.894,0.208 8.917,0.208 l 8.916,0 0,-0.375 c 0,-0.206 0.075,-0.375 0.167,-0.375 0.109,0 0.167,-3.527 0.167,-10.25 0,-6.211 -0.061,-10.25 -0.155,-10.25 -0.086,0 -0.179,-0.168 -0.209,-0.373 -0.031,-0.216 -0.193,-0.399 -0.386,-0.435 -0.184,-0.034 -0.39,-0.159 -0.458,-0.278 -0.069,-0.119 -0.275,-0.177 -0.459,-0.129 -0.232,0.061 -0.333,0.006 -0.333,-0.182 0,-0.158 -0.138,-0.269 -0.334,-0.269 -0.183,0 -0.333,-0.075 -0.333,-0.167 0,-0.092 -0.095,-0.167 -0.21,-0.167 -0.116,0 -0.352,-0.187 -0.524,-0.416 -0.179,-0.239 -0.481,-0.417 -0.706,-0.417 -0.216,0 -0.393,-0.07 -0.393,-0.156 0,-0.085 -0.207,-0.179 -0.459,-0.208 -0.283,-0.033 -0.521,-0.196 -0.623,-0.428 -0.113,-0.258 -0.307,-0.375 -0.625,-0.375 -0.253,0 -0.46,-0.075 -0.46,-0.166 0,-0.092 -0.175,-0.167 -0.389,-0.167 -0.243,0 -0.471,-0.155 -0.611,-0.417 -0.14,-0.261 -0.368,-0.416 -0.611,-0.416 -0.214,0 -0.389,-0.075 -0.389,-0.167 0,-0.092 -0.152,-0.167 -0.339,-0.167 -0.186,0 -0.381,-0.112 -0.434,-0.25 -0.053,-0.137 -0.219,-0.251 -0.37,-0.252 -0.666,-0.006 -0.795,-0.303 -0.323,-0.744 0.248,-0.231 0.53,-0.42 0.625,-0.42 0.096,0 0.174,-0.156 0.174,-0.346 0,-0.378 0.363,-0.821 0.673,-0.821 0.127,0 0.16,-0.149 0.092,-0.417 -0.066,-0.263 -0.034,-0.416 0.088,-0.416 0.252,0 0.814,-0.655 0.814,-0.948 0,-0.127 0.225,-0.45 0.5,-0.719 0.275,-0.269 0.5,-0.595 0.5,-0.724 0,-0.129 0.112,-0.329 0.25,-0.443 0.138,-0.114 0.25,-0.294 0.25,-0.4 0,-0.106 0.15,-0.301 0.333,-0.433 0.184,-0.132 0.334,-0.366 0.334,-0.519 0,-0.153 0.112,-0.322 0.25,-0.375 0.137,-0.052 0.25,-0.21 0.25,-0.351 0,-0.14 0.075,-0.255 0.166,-0.255 0.092,0 0.167,-0.198 0.167,-0.439 0,-0.255 0.175,-0.602 0.417,-0.826 0.229,-0.212 0.416,-0.464 0.416,-0.56 0,-0.096 0.075,-0.175 0.167,-0.175 0.092,0 0.167,-0.225 0.167,-0.5 0,-0.275 0.075,-0.5 0.166,-0.5 0.092,0 0.167,-0.15 0.167,-0.333 0,-0.186 0.111,-0.334 0.25,-0.334 0.138,0 0.25,-0.145 0.25,-0.323 0,-0.178 0.075,-0.37 0.167,-0.427 0.091,-0.056 0.166,-0.286 0.166,-0.51 0,-0.223 0.075,-0.406 0.167,-0.406 0.092,0 0.167,-0.115 0.167,-0.256 0,-0.14 0.112,-0.298 0.25,-0.351 0.137,-0.052 0.25,-0.275 0.25,-0.494 0,-0.22 0.075,-0.399 0.166,-0.399 0.092,0 0.167,-0.18 0.167,-0.399 0,-0.22 0.107,-0.44 0.237,-0.49 0.145,-0.055 0.202,-0.224 0.148,-0.432 -0.058,-0.221 0.005,-0.378 0.179,-0.445 0.162,-0.062 0.269,-0.296 0.269,-0.585 0,-0.266 0.075,-0.483 0.167,-0.483 0.092,0 0.167,-0.187 0.167,-0.416 0,-0.262 0.094,-0.417 0.253,-0.417 0.186,0 0.226,-0.109 0.149,-0.415 -0.074,-0.296 -0.027,-0.445 0.163,-0.518 0.183,-0.07 0.268,-0.309 0.268,-0.751 0,-0.357 0.075,-0.649 0.167,-0.649 0.091,0 0.166,-0.188 0.166,-0.417 0,-0.259 0.095,-0.417 0.25,-0.417 0.186,0 0.25,-0.194 0.25,-0.75 0,-0.412 0.075,-0.75 0.167,-0.75 0.092,0 0.167,-0.262 0.167,-0.583 0,-0.321 0.075,-0.583 0.166,-0.583 0.092,0 0.167,-0.188 0.167,-0.417 0,-0.268 0.094,-0.417 0.262,-0.417 0.211,0 0.254,-0.175 0.22,-0.905 -0.025,-0.555 0.042,-1.006 0.174,-1.166 0.119,-0.143 0.177,-0.412 0.129,-0.597 -0.049,-0.186 0.017,-0.443 0.147,-0.573 0.129,-0.129 0.235,-0.503 0.235,-0.83 0,-0.441 0.071,-0.595 0.274,-0.595 0.237,0 0.261,-0.156 0.176,-1.167 -0.079,-0.95 -0.053,-1.167 0.143,-1.167 0.179,0 0.24,-0.227 0.24,-0.902 0,-0.497 0.074,-0.928 0.165,-0.959 0.093,-0.031 0.172,-0.802 0.182,-1.764 0.014,-1.367 0.065,-1.708 0.257,-1.708 0.2,0 0.222,-0.283 0.128,-1.723 -0.097,-1.508 -0.077,-1.737 0.162,-1.829 0.42,-0.161 0.418,-12.615 -0.002,-12.615 -0.243,0 -0.263,-0.174 -0.169,-1.5 0.09,-1.265 0.068,-1.5 -0.141,-1.5 -0.205,0 -0.249,-0.32 -0.249,-1.833 0,-1.111 -0.065,-1.833 -0.166,-1.833 -0.092,0 -0.167,-0.415 -0.167,-0.922 0,-0.647 -0.071,-0.949 -0.239,-1.014 -0.189,-0.073 -0.219,-0.331 -0.143,-1.241 0.081,-0.969 0.054,-1.165 -0.177,-1.254 -0.188,-0.072 -0.274,-0.305 -0.274,-0.74 0,-0.357 -0.091,-0.665 -0.207,-0.704 -0.128,-0.042 -0.187,-0.301 -0.154,-0.68 0.037,-0.424 -0.015,-0.612 -0.168,-0.612 -0.162,0 -0.206,-0.223 -0.164,-0.833 0.047,-0.676 0.008,-0.834 -0.208,-0.834 -0.199,0 -0.266,-0.167 -0.266,-0.666 0,-0.367 -0.075,-0.667 -0.167,-0.667 -0.091,0 -0.166,-0.225 -0.166,-0.5 0,-0.275 -0.075,-0.5 -0.167,-0.5 -0.092,0 -0.167,-0.335 -0.167,-0.745 0,-0.593 -0.05,-0.725 -0.25,-0.649 -0.193,0.075 -0.25,-0.039 -0.25,-0.505 0,-0.33 -0.075,-0.601 -0.166,-0.601 -0.092,0 -0.167,-0.254 -0.167,-0.566 0,-0.335 -0.097,-0.602 -0.237,-0.656 -0.145,-0.056 -0.202,-0.224 -0.147,-0.434 0.063,-0.243 0.01,-0.344 -0.18,-0.344 -0.176,0 -0.269,-0.144 -0.269,-0.417 0,-0.229 -0.075,-0.416 -0.167,-0.416 -0.092,0 -0.167,-0.263 -0.167,-0.584 0,-0.407 -0.075,-0.583 -0.25,-0.583 -0.137,0 -0.25,-0.114 -0.25,-0.252 0,-0.139 -0.075,-0.402 -0.166,-0.584 -0.092,-0.182 -0.242,-0.48 -0.334,-0.662 -0.091,-0.182 -0.166,-0.511 -0.166,-0.732 0,-0.221 -0.121,-0.447 -0.268,-0.504 -0.196,-0.075 -0.238,-0.221 -0.156,-0.547 0.097,-0.389 0.079,-0.417 -0.149,-0.228 -0.225,0.187 -0.261,0.157 -0.261,-0.221 0,-0.24 -0.075,-0.437 -0.166,-0.437 -0.092,0 -0.167,-0.153 -0.167,-0.341 0,-0.188 -0.187,-0.515 -0.417,-0.727 -0.229,-0.213 -0.416,-0.547 -0.416,-0.742 0,-0.196 -0.075,-0.356 -0.167,-0.356 -0.092,0 -0.167,-0.15 -0.167,-0.334 0,-0.185 -0.111,-0.333 -0.25,-0.333 -0.155,0 -0.25,-0.157 -0.25,-0.417 0,-0.229 -0.075,-0.416 -0.166,-0.416 -0.092,0 -0.167,-0.081 -0.167,-0.179 0,-0.098 -0.094,-0.283 -0.208,-0.411 -0.517,-0.576 -0.625,-0.745 -0.625,-0.977 0,-0.136 -0.075,-0.293 -0.167,-0.35 -0.092,-0.057 -0.167,-0.231 -0.167,-0.387 0,-0.156 -0.168,-0.358 -0.375,-0.448 -0.231,-0.102 -0.395,-0.34 -0.427,-0.623 -0.029,-0.252 -0.123,-0.459 -0.209,-0.459 -0.085,0 -0.155,-0.112 -0.155,-0.25 0,-0.137 -0.081,-0.25 -0.179,-0.25 -0.294,0 -0.655,-0.452 -0.655,-0.821 0,-0.19 -0.075,-0.345 -0.166,-0.345 -0.092,0 -0.167,-0.155 -0.167,-0.344 0,-0.188 -0.075,-0.296 -0.167,-0.24 -0.091,0.057 -0.166,0.033 -0.166,-0.052 0,-0.086 -0.263,-0.442 -0.584,-0.793 C 110.262,30.888 110,30.466 110,30.301 110,30.135 109.888,30 109.75,30 c -0.138,0 -0.25,-0.113 -0.25,-0.25 0,-0.137 -0.114,-0.25 -0.254,-0.25 -0.149,0 -0.295,-0.206 -0.353,-0.494 -0.054,-0.271 -0.292,-0.62 -0.529,-0.775 -0.582,-0.381 -1.197,-1.01 -1.197,-1.223 0,-0.096 -0.075,-0.175 -0.167,-0.175 -0.092,0 -0.167,-0.08 -0.167,-0.178 0,-0.194 -0.41,-0.655 -0.583,-0.655 -0.139,0 -0.583,-0.444 -0.583,-0.583 0,-0.21 -0.486,-0.589 -0.698,-0.545 -0.144,0.03 -0.198,-0.107 -0.164,-0.414 0.04,-0.351 -0.019,-0.458 -0.251,-0.458 -0.332,0 -1.221,-0.692 -1.221,-0.95 0,-0.088 -0.179,-0.256 -0.398,-0.374 -0.219,-0.117 -0.494,-0.392 -0.611,-0.611 -0.118,-0.219 -0.308,-0.398 -0.424,-0.398 -0.116,0 -0.261,-0.157 -0.321,-0.349 -0.061,-0.192 -0.366,-0.455 -0.678,-0.585 -0.312,-0.131 -0.568,-0.301 -0.568,-0.379 0,-0.262 -1.142,-1.354 -1.417,-1.354 -0.309,0 -0.749,-0.385 -0.749,-0.655 0,-0.098 -0.153,-0.178 -0.34,-0.178 -0.186,0 -0.528,-0.169 -0.759,-0.375 -0.231,-0.207 -0.607,-0.544 -0.835,-0.75 -0.228,-0.207 -0.486,-0.375 -0.574,-0.375 -0.087,0 -0.159,-0.075 -0.159,-0.167 0,-0.092 -0.112,-0.167 -0.25,-0.167 -0.138,0 -0.25,-0.112 -0.25,-0.25 0,-0.155 -0.157,-0.25 -0.417,-0.25 -0.229,0 -0.416,-0.075 -0.416,-0.166 0,-0.092 -0.138,-0.167 -0.306,-0.167 -0.167,0 -0.395,-0.169 -0.506,-0.375 -0.2,-0.373 -0.89,-0.792 -1.305,-0.792 -0.119,0 -0.217,-0.121 -0.217,-0.269 0,-0.187 -0.101,-0.243 -0.333,-0.182 -0.217,0.056 -0.333,0.005 -0.333,-0.148 0,-0.139 -0.17,-0.234 -0.417,-0.234 -0.229,0 -0.417,-0.075 -0.417,-0.167 0,-0.091 -0.112,-0.166 -0.25,-0.166 -0.137,0 -0.25,-0.113 -0.25,-0.25 0,-0.139 -0.148,-0.25 -0.333,-0.25 -0.183,0 -0.333,-0.075 -0.333,-0.167 0,-0.092 -0.183,-0.167 -0.407,-0.167 -0.224,0 -0.453,-0.075 -0.51,-0.166 C 88.193,12.075 88.001,12 87.823,12 87.646,12 87.5,11.887 87.5,11.75 c 0,-0.156 -0.157,-0.25 -0.417,-0.25 -0.229,0 -0.416,-0.075 -0.416,-0.167 0,-0.091 -0.221,-0.166 -0.49,-0.166 -0.27,0 -0.537,-0.075 -0.594,-0.167 -0.056,-0.092 -0.248,-0.167 -0.426,-0.167 -0.178,0 -0.324,-0.112 -0.324,-0.25 0,-0.166 -0.166,-0.25 -0.5,-0.25 -0.275,0 -0.5,-0.075 -0.5,-0.166 C 83.833,10.075 83.65,10 83.427,10 83.203,10 82.973,9.925 82.917,9.833 82.86,9.742 82.631,9.667 82.407,9.667 82.156,9.667 82,9.571 82,9.417 82,9.242 81.824,9.167 81.417,9.167 81.096,9.167 80.833,9.092 80.833,9 80.833,8.908 80.533,8.833 80.167,8.833 79.8,8.833 79.5,8.758 79.5,8.667 79.5,8.575 79.275,8.5 79,8.5 78.667,8.5 78.5,8.417 78.5,8.25 78.5,8.058 78.287,8 77.583,8 77.079,8 76.667,7.925 76.667,7.833 c 0,-0.091 -0.255,-0.166 -0.566,-0.166 -0.349,0 -0.602,-0.096 -0.661,-0.25 -0.06,-0.157 -0.315,-0.25 -0.685,-0.25 -0.323,0 -0.588,-0.078 -0.588,-0.174 0,-0.108 -0.54,-0.162 -1.451,-0.144 C 71.76,6.868 71.243,6.813 71.202,6.689 71.163,6.572 70.696,6.5 69.986,6.5 69.155,6.5 68.833,6.44 68.833,6.285 68.833,6.113 67.565,6.07 62.512,6.07 58.222,6.07 56.2,6.125 56.22,6.243 m 13.447,2.653 c 2.7,0.437 4.895,0.87 6.166,1.216 0.504,0.138 1.142,0.309 1.417,0.38 6.242,1.621 14.852,6.153 20.249,10.66 0.503,0.421 1.005,0.84 1.114,0.931 3.023,2.538 7.168,6.983 10.024,10.75 3.461,4.564 7.502,12.094 9.528,17.75 0.709,1.98 1.316,3.858 1.671,5.167 0.198,0.733 0.435,1.596 0.525,1.917 0.268,0.946 0.751,3.185 1.209,5.601 0.25,1.318 0.403,2.414 0.811,5.815 0.264,2.195 0.263,12.918 0,15.25 -0.456,4.023 -0.644,5.302 -1.041,7.084 -0.081,0.366 -0.276,1.266 -0.432,2 -0.156,0.733 -0.387,1.727 -0.513,2.208 -0.822,3.147 -1.168,4.315 -1.404,4.748 -0.087,0.159 -0.157,0.384 -0.157,0.5 0,0.233 -0.831,2.479 -1.866,5.044 -0.902,2.232 -3.018,6.457 -4.306,8.596 -1.325,2.202 -2.812,4.494 -3.104,4.786 -0.123,0.124 -0.225,0.28 -0.225,0.348 0,0.068 -0.132,0.269 -0.294,0.447 -0.162,0.177 -0.593,0.735 -0.958,1.239 -0.776,1.072 -0.749,1.04 -2.798,3.417 -5.985,6.945 -14.037,12.839 -21.95,16.068 -0.962,0.393 -1.9,0.778 -2.083,0.857 -5.623,2.41 -17.092,3.952 -23.557,3.167 -2.744,-0.334 -5.08,-0.672 -5.776,-0.837 -3.54,-0.838 -4.379,-1.05 -4.667,-1.176 -0.183,-0.081 -0.821,-0.294 -1.417,-0.473 -9.056,-2.732 -18.936,-9.381 -26.01,-17.505 -0.59,-0.677 -1.153,-1.315 -1.25,-1.416 C 18.423,123.279 17.754,122.397 15.21,119 12.917,115.939 9.225,108.992 7.416,104.333 7.077,103.462 6.655,102.3 6.477,101.75 6.299,101.2 6.083,100.6 5.997,100.417 5.911,100.233 5.683,99.521 5.49,98.833 5.297,98.146 5.075,97.358 4.997,97.083 4.92,96.808 4.699,95.908 4.505,95.083 4.312,94.258 4.088,93.321 4.006,93 3.769,92.066 3.517,90.707 3.249,88.917 3.112,88 2.926,86.763 2.835,86.167 2.161,81.719 2.159,71.707 2.83,67.333 2.922,66.737 3.115,65.462 3.26,64.5 c 0.371,-2.461 1.091,-5.814 1.736,-8.083 0.079,-0.275 0.299,-1.063 0.491,-1.75 0.191,-0.688 0.422,-1.381 0.514,-1.54 0.091,-0.159 0.166,-0.371 0.166,-0.47 0,-0.255 1.618,-4.53 2.19,-5.786 0.262,-0.575 0.476,-1.086 0.476,-1.135 0,-0.118 1.856,-3.815 2.621,-5.22 0.653,-1.202 3.508,-5.75 4.194,-6.683 4.06,-5.52 8.754,-10.354 13.554,-13.959 1.823,-1.368 5.013,-3.541 5.2,-3.541 0.05,0 0.487,-0.25 0.97,-0.557 2.684,-1.701 11.184,-5.276 12.547,-5.276 0.191,0 0.419,-0.063 0.506,-0.141 0.087,-0.078 0.758,-0.27 1.492,-0.427 0.733,-0.157 1.633,-0.35 2,-0.429 1.387,-0.298 2.548,-0.491 4,-0.662 0.825,-0.097 1.725,-0.207 2,-0.244 1.293,-0.172 10.247,0.055 11.75,0.299 m -50.65,118.305 c 1.996,2.248 5.029,5.086 7.782,7.282 1.9,1.516 1.902,1.507 -0.466,2.504 -4.675,1.968 -12.629,6.626 -17.155,10.045 -0.589,0.445 -1.152,0.782 -1.25,0.75 -0.123,-0.041 -0.178,-2.546 -0.178,-8.129 l 0,-8.07 1.167,-0.782 c 0.641,-0.431 1.222,-0.787 1.29,-0.792 0.067,-0.005 0.63,-0.333 1.25,-0.729 0.619,-0.397 1.876,-1.122 2.793,-1.612 0.917,-0.491 1.967,-1.063 2.333,-1.273 1.043,-0.596 1.252,-0.527 2.434,0.806 m 89.94,-0.429 c 2.32,1.228 3.261,1.753 3.735,2.085 0.244,0.17 0.49,0.31 0.548,0.31 0.058,0 0.965,0.542 2.016,1.206 l 1.911,1.206 0,8.117 c 0,4.465 -0.061,8.155 -0.136,8.201 -0.074,0.046 -0.933,-0.512 -1.909,-1.24 -0.976,-0.728 -1.815,-1.324 -1.864,-1.324 -0.05,0 -0.447,-0.254 -0.883,-0.565 -0.922,-0.658 -4.518,-2.935 -4.635,-2.935 -0.044,0 -0.397,-0.201 -0.785,-0.447 -1.34,-0.85 -7.861,-4.219 -8.165,-4.219 -0.413,0 -2.256,-1.063 -2.181,-1.257 0.05,-0.129 0.889,-0.864 1.866,-1.633 2.744,-2.161 6.297,-5.531 7.98,-7.569 0.725,-0.877 0.723,-0.877 2.502,0.064 m -87.829,18.936 -0.045,3.542 -5.333,0 c -5.97,0 -5.913,0.014 -4.417,-1.08 0.505,-0.369 0.992,-0.73 1.084,-0.803 1.122,-0.891 8.196,-5.194 8.545,-5.198 0.166,-0.002 0.202,0.763 0.166,3.539 m 83.439,-3.217 c 0.318,0.178 0.881,0.516 1.252,0.75 0.371,0.234 0.71,0.426 0.754,0.426 0.115,0 3.403,2.092 5.301,3.372 2.028,1.369 2.677,1.911 2.544,2.126 -0.16,0.258 -10.459,0.227 -10.718,-0.032 -0.216,-0.216 -0.3,-6.645 -0.089,-6.855 0.173,-0.173 0.334,-0.137 0.956,0.213"
       inkscape:connector-curvature="0"
       style="fill:#cca800;fill-rule:evenodd;stroke:none" />
    <path
       id="path2"
       d="M 54.042,6.106 C 53.607,6.29 53.866,6.419 54.766,6.466 55.471,6.502 55.682,6.462 55.628,6.299 55.557,6.081 54.427,5.944 54.042,6.106 m 15.5,0.004 C 69.107,6.286 69.359,6.5 70,6.5 c 0.382,0 0.667,-0.08 0.667,-0.187 0,-0.129 0.077,-0.123 0.25,0.02 0.144,0.12 0.25,0.136 0.25,0.039 0,-0.32 -1.058,-0.49 -1.625,-0.262 M 49.833,7 C 49.435,7.127 49.441,7.134 49.948,7.15 50.241,7.159 50.527,7.092 50.583,7 50.702,6.808 50.432,6.808 49.833,7 m 24.585,0.003 c 0.056,0.09 0.335,0.164 0.62,0.164 0.629,0 0.566,-0.084 -0.171,-0.224 C 74.523,6.878 74.355,6.9 74.418,7.003 M 76.26,7.411 C 76.647,7.704 77,7.738 77,7.482 77,7.381 76.887,7.341 76.75,7.394 76.612,7.446 76.5,7.417 76.5,7.328 c 0,-0.089 -0.127,-0.161 -0.282,-0.161 -0.246,0 -0.24,0.031 0.042,0.244 M 45.417,8.167 c -0.061,0.097 0.112,0.166 0.416,0.166 0.304,0 0.477,-0.069 0.417,-0.166 C 46.193,8.075 46.006,8 45.833,8 45.661,8 45.473,8.075 45.417,8.167 m 33.5,0 c -0.059,0.095 0.085,0.166 0.333,0.166 0.248,0 0.392,-0.071 0.333,-0.166 C 79.527,8.075 79.377,8 79.25,8 79.123,8 78.973,8.075 78.917,8.167 M 59.146,8.743 c -0.055,0.055 -0.879,0.174 -1.831,0.264 -1.816,0.174 -4.377,0.539 -5.648,0.806 -1.426,0.3 -3.752,0.875 -4.084,1.011 -0.183,0.075 -0.971,0.337 -1.75,0.582 -0.779,0.245 -1.566,0.508 -1.75,0.584 -0.183,0.077 -1.045,0.427 -1.916,0.777 -1.795,0.722 -4.889,2.223 -6.5,3.154 -0.596,0.344 -1.234,0.712 -1.417,0.817 -0.407,0.234 -2.769,1.779 -3,1.962 -0.092,0.073 -0.654,0.486 -1.25,0.918 -1.061,0.77 -2.332,1.793 -4.167,3.352 -2.421,2.058 -5.681,5.529 -8.426,8.974 -1.295,1.623 -3.622,5.069 -4.71,6.973 -0.314,0.55 -0.722,1.262 -0.905,1.583 -0.98,1.71 -3.272,6.457 -3.541,7.333 -0.07,0.23 -0.261,0.717 -0.423,1.084 -0.162,0.366 -0.496,1.229 -0.742,1.916 -0.245,0.688 -0.506,1.4 -0.579,1.584 -0.137,0.343 -0.943,2.945 -1.188,3.833 -0.621,2.25 -1.108,4.429 -1.567,7 -0.147,0.825 -0.333,1.837 -0.415,2.25 -0.535,2.722 -0.92,10.749 -0.693,14.444 0.368,5.976 0.519,7.215 1.529,12.556 0.227,1.201 0.908,3.89 1.435,5.667 0.82,2.764 0.819,2.762 1.22,3.75 0.112,0.275 0.314,0.837 0.449,1.25 0.135,0.412 0.381,1.05 0.546,1.416 0.165,0.367 0.358,0.855 0.428,1.084 0.268,0.873 2.548,5.598 3.54,7.333 0.998,1.748 2.425,4.094 2.534,4.167 0.069,0.045 0.213,0.25 0.321,0.455 3.383,6.425 14.538,16.723 22.437,20.714 0.367,0.185 0.779,0.41 0.917,0.499 0.656,0.426 4.584,2.131 6,2.604 0.413,0.137 1.237,0.426 1.833,0.641 1.455,0.525 5.287,1.506 6.834,1.749 0.687,0.108 1.55,0.263 1.916,0.345 1.513,0.335 4.544,0.544 7.917,0.544 3.373,0 6.404,-0.209 7.917,-0.544 0.366,-0.082 1.229,-0.237 1.916,-0.345 1.61,-0.253 5.418,-1.227 6.917,-1.769 0.642,-0.232 1.392,-0.499 1.667,-0.592 2.368,-0.809 6.446,-2.689 8.121,-3.743 0.342,-0.216 0.66,-0.392 0.707,-0.392 0.047,0 0.611,-0.337 1.255,-0.75 0.644,-0.412 1.238,-0.75 1.321,-0.75 0.083,0 0.176,-0.058 0.207,-0.129 0.03,-0.071 0.655,-0.533 1.389,-1.027 0.733,-0.494 1.37,-0.947 1.416,-1.005 0.046,-0.058 0.382,-0.327 0.747,-0.597 0.924,-0.685 1.208,-0.923 3.49,-2.928 2.32,-2.04 4.216,-3.998 6.596,-6.814 0.503,-0.596 0.953,-1.121 1,-1.166 0.046,-0.046 0.159,-0.203 0.251,-0.349 0.264,-0.421 1.814,-2.514 2.015,-2.72 0.099,-0.103 0.212,-0.261 0.25,-0.351 0.037,-0.09 0.499,-0.812 1.026,-1.605 2.173,-3.271 4.886,-8.437 6.121,-11.655 0.191,-0.497 0.42,-1.072 0.509,-1.279 0.284,-0.657 0.453,-1.104 0.741,-1.958 0.154,-0.458 0.344,-0.983 0.423,-1.167 0.078,-0.183 0.222,-0.596 0.319,-0.916 1.013,-3.342 1.107,-3.678 1.445,-5.167 0.135,-0.596 0.315,-1.346 0.399,-1.667 0.289,-1.097 0.923,-4.648 1.191,-6.666 0.689,-5.188 0.688,-14.672 -10e-4,-19.834 -0.212,-1.588 -0.848,-5.325 -1.021,-6 -0.082,-0.321 -0.271,-1.108 -0.418,-1.75 -0.148,-0.641 -0.339,-1.397 -0.426,-1.678 -0.086,-0.282 -0.157,-0.639 -0.157,-0.794 0,-0.155 -0.067,-0.412 -0.15,-0.572 -0.082,-0.159 -0.28,-0.739 -0.44,-1.289 -0.37,-1.277 -0.575,-1.916 -0.748,-2.333 -0.076,-0.184 -0.299,-0.821 -0.496,-1.417 -0.197,-0.596 -0.455,-1.308 -0.573,-1.583 -0.118,-0.275 -0.347,-0.838 -0.509,-1.25 -1.262,-3.202 -3.836,-8.175 -5.824,-11.25 -0.963,-1.49 -3.673,-5.335 -4.004,-5.681 -0.095,-0.1 -0.885,-1.023 -1.756,-2.051 -1.77,-2.091 -5.461,-5.742 -7.245,-7.165 -0.644,-0.515 -1.209,-0.98 -1.255,-1.035 -0.194,-0.233 -3.616,-2.711 -3.958,-2.867 -0.206,-0.095 -0.375,-0.234 -0.375,-0.311 0,-0.077 -0.087,-0.14 -0.193,-0.14 -0.106,0 -0.438,-0.188 -0.738,-0.417 -0.301,-0.229 -0.596,-0.417 -0.657,-0.417 -0.061,0 -0.31,-0.139 -0.553,-0.309 C 88.957,15.542 84.041,13.131 81.833,12.342 81.512,12.227 81.1,12.069 80.917,11.991 79.569,11.417 75.8,10.335 73.333,9.815 72.326,9.602 69.593,9.19 67.75,8.974 66.045,8.773 59.297,8.592 59.146,8.743 M 42.083,9.333 C 42.025,9.428 42.168,9.5 42.417,9.5 42.665,9.5 42.809,9.428 42.75,9.333 42.693,9.242 42.543,9.167 42.417,9.167 c -0.127,0 -0.277,0.075 -0.334,0.166 m 40.084,0.036 c 0,0.072 0.192,0.131 0.426,0.131 0.235,0 0.383,-0.07 0.33,-0.156 C 82.809,9.159 82.167,9.18 82.167,9.369 M 26.333,18.381 C 26.046,18.615 25.93,19 26.147,19 c 0.081,0 0.189,-0.158 0.239,-0.35 0.058,-0.223 0.166,-0.304 0.295,-0.224 0.13,0.08 0.161,0.056 0.085,-0.067 -0.142,-0.23 -0.122,-0.231 -0.433,0.022 m 72.5,0.22 c 0,0.186 0.668,0.787 0.766,0.689 0.036,-0.036 -0.121,-0.242 -0.35,-0.457 -0.228,-0.215 -0.416,-0.32 -0.416,-0.232 m 1.006,0.857 c -0.003,0.115 0.069,0.209 0.161,0.209 0.092,0 0.167,0.08 0.167,0.178 0,0.231 0.424,0.655 0.654,0.655 0.099,0 0.179,-0.075 0.179,-0.167 0,-0.091 -0.062,-0.148 -0.137,-0.125 -0.075,0.023 -0.335,-0.183 -0.578,-0.458 -0.243,-0.275 -0.444,-0.406 -0.446,-0.292 m 3.828,3.459 c 0,0.157 0.694,0.777 0.777,0.694 0.046,-0.046 -0.072,-0.239 -0.263,-0.43 -0.341,-0.341 -0.514,-0.43 -0.514,-0.264 m -38.25,0.257 c 2.51,0.204 4.19,0.441 5.25,0.742 0.412,0.117 1.2,0.304 1.75,0.416 0.55,0.112 1.15,0.264 1.333,0.338 0.183,0.075 0.933,0.334 1.667,0.577 1.606,0.532 1.458,0.468 4.25,1.818 2.456,1.188 3.553,1.783 3.639,1.977 0.03,0.068 0.13,0.125 0.221,0.125 0.138,0 2.085,1.278 2.965,1.946 3.84,2.919 8.441,7.583 10.508,10.652 3.338,4.955 4.866,7.734 6.545,11.902 0.957,2.374 2.214,6.274 2.606,8.083 0.099,0.458 0.33,1.479 0.512,2.269 1.595,6.902 1.634,18.961 0.082,25.148 -0.149,0.596 -0.308,1.271 -0.352,1.5 -0.439,2.268 -0.995,4.219 -2.064,7.25 -0.411,1.166 -0.616,1.666 -0.933,2.275 -0.126,0.244 -0.229,0.527 -0.229,0.63 0,0.671 -4.398,8.802 -4.859,8.984 -0.078,0.03 -0.141,0.129 -0.141,0.22 0,0.18 -1.314,2.09 -1.992,2.897 -0.234,0.278 -0.65,0.8 -0.925,1.159 -1.215,1.59 -4.297,4.761 -6.083,6.259 -0.596,0.5 -1.121,0.952 -1.167,1.004 -0.046,0.052 -0.533,0.425 -1.083,0.829 -3.623,2.661 -6.486,4.248 -10.542,5.845 -0.206,0.081 -0.544,0.217 -0.75,0.302 -0.206,0.084 -0.825,0.279 -1.375,0.433 -0.55,0.154 -1.187,0.339 -1.417,0.41 -1.419,0.444 -1.721,0.508 -5,1.05 -0.596,0.099 -2.996,0.18 -5.333,0.18 -2.337,0 -4.738,-0.081 -5.333,-0.18 -2.193,-0.363 -3.219,-0.566 -4.141,-0.818 -0.518,-0.142 -1.168,-0.32 -1.443,-0.394 -2.555,-0.697 -9.416,-3.75 -9.416,-4.19 0,-0.08 -0.087,-0.145 -0.193,-0.145 -0.236,0 -3.152,-1.929 -4.158,-2.751 -1.95,-1.593 -2.301,-1.891 -3.224,-2.747 -1.464,-1.358 -2.058,-1.966 -3.259,-3.339 -0.595,-0.681 -1.186,-1.349 -1.312,-1.483 -0.35,-0.375 -2.542,-3.337 -3.094,-4.181 -2.034,-3.112 -3.696,-6.211 -5.095,-9.499 -0.293,-0.688 -0.6,-1.381 -0.682,-1.54 C 21.067,98.968 21,98.723 21,98.583 21,98.443 20.933,98.199 20.85,98.039 20.629,97.611 20.228,96.509 20.017,95.75 19.916,95.383 19.645,94.493 19.416,93.77 19.187,93.048 19,92.246 19,91.989 c 0,-0.258 -0.067,-0.511 -0.149,-0.561 -0.082,-0.051 -0.188,-0.374 -0.235,-0.719 -0.047,-0.344 -0.206,-1.188 -0.353,-1.876 -0.264,-1.228 -0.393,-2.1 -0.804,-5.416 -0.271,-2.184 -0.267,-11.137 0.005,-13.25 0.112,-0.871 0.276,-2.184 0.365,-2.917 0.09,-0.733 0.283,-1.858 0.43,-2.5 0.148,-0.642 0.331,-1.467 0.408,-1.833 0.076,-0.367 0.265,-1.192 0.418,-1.834 0.154,-0.641 0.319,-1.336 0.367,-1.544 0.048,-0.207 0.154,-0.418 0.235,-0.468 0.08,-0.05 0.146,-0.255 0.146,-0.457 0,-0.319 0.562,-2.062 0.978,-3.031 0.078,-0.183 0.239,-0.633 0.357,-1 0.744,-2.321 4.934,-10.406 5.83,-11.25 0.049,-0.045 0.305,-0.417 0.569,-0.824 0.265,-0.408 0.546,-0.82 0.625,-0.917 0.079,-0.096 0.653,-0.822 1.275,-1.612 4.859,-6.17 11.225,-11.077 18.033,-13.901 1.608,-0.667 1.721,-0.711 2.083,-0.801 0.184,-0.046 0.709,-0.225 1.167,-0.397 0.458,-0.173 1.283,-0.414 1.833,-0.537 0.55,-0.122 1.375,-0.32 1.834,-0.44 2.739,-0.718 7.361,-1.025 11,-0.73 M 18.867,25.2 c -0.244,0.243 -0.26,0.467 -0.034,0.467 0.092,0 0.167,-0.107 0.167,-0.236 0,-0.13 0.094,-0.274 0.208,-0.321 0.115,-0.046 0.13,-0.09 0.034,-0.097 -0.097,-0.007 -0.265,0.077 -0.375,0.187 m 86.925,-0.09 c 0.114,0.047 0.208,0.191 0.208,0.321 0,0.129 0.075,0.236 0.167,0.236 0.091,0 0.166,-0.06 0.166,-0.134 0,-0.197 -0.373,-0.535 -0.575,-0.52 -0.096,0.007 -0.081,0.051 0.034,0.097 m 1.708,1.876 c 0,0.201 0.695,0.874 0.797,0.772 0.04,-0.039 -0.124,-0.267 -0.363,-0.505 -0.239,-0.239 -0.434,-0.359 -0.434,-0.267 M 17.026,27.311 C 16.65,27.637 16.549,28 16.833,28 16.925,28 17,27.887 17,27.75 c 0,-0.137 0.067,-0.25 0.149,-0.25 0.082,0 0.192,-0.113 0.245,-0.25 0.124,-0.325 0.066,-0.315 -0.368,0.061 m -2.442,3.021 c -0.166,0.184 -0.248,0.335 -0.181,0.335 0.175,0 0.651,-0.502 0.56,-0.593 -0.042,-0.042 -0.212,0.074 -0.379,0.258 m -5.257,7.925 c -0.146,0.176 -0.159,0.311 -0.042,0.428 0.118,0.118 0.198,0.037 0.254,-0.257 0.095,-0.499 0.075,-0.516 -0.212,-0.171 M 6.25,44.5 c 0.057,0.092 0.024,0.167 -0.073,0.167 -0.098,0 -0.177,0.112 -0.177,0.25 0,0.137 0.112,0.25 0.25,0.25 0.156,0 0.25,-0.158 0.25,-0.417 0,-0.229 -0.079,-0.417 -0.177,-0.417 -0.097,0 -0.13,0.075 -0.073,0.167 m 112.25,0.083 c 0,0.138 0.11,0.25 0.245,0.25 0.149,0 0.207,-0.097 0.149,-0.25 -0.053,-0.137 -0.163,-0.25 -0.245,-0.25 -0.082,0 -0.149,0.113 -0.149,0.25 M 4.944,47.278 c -0.202,0.202 -0.115,0.38 0.139,0.282 0.138,-0.052 0.25,-0.163 0.25,-0.244 0,-0.175 -0.229,-0.198 -0.389,-0.038 m 115.268,1.052 c 0.014,0.185 0.085,0.337 0.157,0.337 0.184,0 0.164,-0.46 -0.026,-0.577 -0.086,-0.054 -0.145,0.054 -0.131,0.24 M 3.768,50.43 c -0.163,0.426 -0.118,0.566 0.149,0.464 0.137,-0.053 0.25,-0.238 0.25,-0.412 0,-0.383 -0.259,-0.416 -0.399,-0.052 M 122,54.069 c 0,0.281 0.091,0.431 0.262,0.431 0.173,0 0.243,-0.122 0.208,-0.362 C 122.391,53.604 122,53.547 122,54.069 M 1.833,56.917 c 0,0.229 0.075,0.416 0.167,0.416 0.092,0 0.167,-0.187 0.167,-0.416 C 2.167,56.688 2.092,56.5 2,56.5 c -0.092,0 -0.167,0.188 -0.167,0.417 m 121.339,1.291 c -0.004,0.447 0.066,0.625 0.245,0.625 0.319,0 0.322,-0.507 0.005,-0.926 -0.229,-0.303 -0.245,-0.284 -0.25,0.301 M 0.667,62.417 c 0,0.412 0.075,0.75 0.166,0.75 0.092,0 0.167,-0.338 0.167,-0.75 0,-0.413 -0.075,-0.75 -0.167,-0.75 -0.091,0 -0.166,0.337 -0.166,0.75 M 124,62 c 0,0.183 0.059,0.333 0.131,0.333 0.072,0 0.143,-0.15 0.157,-0.333 0.013,-0.183 -0.046,-0.333 -0.132,-0.333 -0.086,0 -0.156,0.15 -0.156,0.333 m 1.177,14.758 c -0.003,3.852 0.055,6.221 0.151,6.162 0.21,-0.13 0.22,-12.42 0.01,-12.42 -0.094,0 -0.158,2.481 -0.161,6.258 M 0.667,91.25 c 0,0.321 0.075,0.583 0.166,0.583 C 0.925,91.833 1,91.571 1,91.25 1,90.929 0.925,90.667 0.833,90.667 c -0.091,0 -0.166,0.262 -0.166,0.583 M 124,91.528 c 0,0.198 0.052,0.309 0.116,0.245 0.18,-0.18 0.205,-0.606 0.036,-0.606 -0.084,0 -0.152,0.162 -0.152,0.361 m -0.637,3.119 c -0.133,0.083 -0.2,0.363 -0.167,0.704 0.053,0.556 0.058,0.559 0.273,0.182 0.276,-0.485 0.205,-1.081 -0.106,-0.886 M 1.875,96.583 c 0,0.23 0.049,0.417 0.109,0.417 0.061,0 0.125,-0.187 0.144,-0.417 0.019,-0.229 -0.03,-0.416 -0.109,-0.416 -0.079,0 -0.144,0.187 -0.144,0.416 m 120.236,2.695 c -0.164,0.164 -0.135,0.722 0.038,0.722 0.149,0 0.351,-0.392 0.351,-0.68 0,-0.179 -0.228,-0.203 -0.389,-0.042 m -118.444,3.54 c 0,0.078 0.112,0.235 0.25,0.349 0.203,0.169 0.25,0.16 0.25,-0.045 0,-0.139 -0.113,-0.296 -0.25,-0.349 -0.138,-0.053 -0.25,-0.032 -0.25,0.045 m 117.5,0.164 c 0,0.112 -0.075,0.158 -0.167,0.101 -0.092,-0.056 -0.167,0.014 -0.167,0.157 0,0.143 0.067,0.26 0.149,0.26 0.178,0 0.396,-0.51 0.272,-0.635 -0.048,-0.048 -0.087,0.005 -0.087,0.117 m -0.998,2.226 c 0.002,0.304 0.034,0.327 0.164,0.125 0.209,-0.323 0.209,-0.5 0,-0.5 -0.091,0 -0.165,0.169 -0.164,0.375 M 4.863,105.945 c 0.081,0.418 0.47,0.475 0.47,0.069 0,-0.205 -0.107,-0.347 -0.262,-0.347 -0.155,0 -0.24,0.113 -0.208,0.278 m 113.019,4.493 c 0.058,0.057 -0.007,0.32 -0.143,0.583 -0.136,0.264 -0.21,0.479 -0.164,0.479 0.087,0 0.592,-0.916 0.592,-1.075 0,-0.05 -0.088,-0.092 -0.195,-0.092 -0.107,0 -0.147,0.047 -0.09,0.105 m -107.511,6.593 c 0.084,0.249 0.462,0.386 0.462,0.167 0,-0.089 -0.118,-0.208 -0.264,-0.264 -0.162,-0.062 -0.238,-0.025 -0.198,0.097 m 4.296,6.242 c 0,0.13 0.533,0.548 0.708,0.555 0.069,0.003 -0.025,-0.145 -0.208,-0.328 -0.343,-0.342 -0.5,-0.414 -0.5,-0.227 m 95.183,0.238 c -0.403,0.335 -0.169,0.812 0.4,0.812 0.092,0 0.038,-0.098 -0.119,-0.217 -0.257,-0.196 -0.261,-0.251 -0.032,-0.578 0.31,-0.443 0.266,-0.446 -0.249,-0.017 m 2.557,1.911 c 0.178,0.135 0.398,0.245 0.49,0.245 0.092,0 0.021,-0.11 -0.157,-0.245 -0.178,-0.135 -0.398,-0.245 -0.49,-0.245 -0.092,0 -0.021,0.11 0.157,0.245 m -95.99,1.386 c -0.459,0.255 -1.396,0.768 -2.084,1.14 -2.029,1.097 -2.489,1.367 -4.416,2.589 -1.008,0.64 -1.889,1.25 -1.956,1.355 -0.146,0.228 -0.173,15.608 -0.027,15.608 0.056,0 1.199,-0.776 2.542,-1.723 3.063,-2.163 5.616,-3.781 8.774,-5.561 0.69,-0.389 5.646,-2.867 7.241,-3.621 0.499,-0.235 0.999,-0.428 1.111,-0.428 0.556,0 0.203,-0.501 -1.077,-1.528 -2.41,-1.934 -3.687,-3.103 -6.28,-5.749 -2.747,-2.802 -2.64,-2.744 -3.828,-2.082 m 88.285,2.159 c -2.438,2.504 -4.689,4.533 -6.736,6.069 -0.886,0.666 -1.209,1.131 -0.784,1.131 0.352,0 6.077,2.806 8.538,4.186 1.571,0.88 3.751,2.181 5.351,3.194 1.125,0.711 5.356,3.698 5.401,3.813 0.031,0.077 0.162,0.14 0.292,0.14 0.287,0 0.359,-15.126 0.074,-15.657 -0.304,-0.568 -8.854,-5.542 -9.455,-5.501 -0.073,0.005 -1.279,1.187 -2.681,2.625 m -99.459,0.748 c -0.379,0.439 -0.428,0.618 -0.17,0.618 0.143,0 0.26,-0.112 0.26,-0.25 0,-0.137 0.075,-0.25 0.167,-0.25 0.092,0 0.167,-0.075 0.167,-0.166 0,-0.224 -0.211,-0.2 -0.424,0.048 m 114.557,0.818 c 0.15,0.151 0.21,2.692 0.24,10.209 l 0.041,10.008 0.047,-9.833 c 0.048,-9.912 0.027,-10.584 -0.331,-10.584 -0.15,0 -0.149,0.048 0.003,0.2 m -89.374,7.722 c -0.177,0.135 -0.248,0.245 -0.156,0.245 0.091,0 0.312,-0.11 0.49,-0.245 0.178,-0.134 0.248,-0.244 0.157,-0.244 -0.092,0 -0.313,0.11 -0.491,0.244 M 93.94,138.25 c -0.072,0.187 0.018,0.245 0.357,0.231 0.286,-0.013 0.345,-0.048 0.159,-0.096 -0.161,-0.042 -0.251,-0.146 -0.198,-0.231 0.052,-0.085 0.024,-0.154 -0.064,-0.154 -0.087,0 -0.202,0.112 -0.254,0.25 m -62.335,0.382 c -0.046,0.074 0.062,0.225 0.239,0.336 0.379,0.237 0.425,0.11 0.083,-0.231 -0.131,-0.132 -0.277,-0.179 -0.322,-0.105 M 92,139.417 c 0,0.137 0.066,0.25 0.146,0.25 0.081,0 0.24,-0.113 0.354,-0.25 0.173,-0.209 0.149,-0.25 -0.146,-0.25 -0.204,0 -0.354,0.106 -0.354,0.25 m 7.167,1.065 c 0,0.082 0.118,0.195 0.263,0.25 0.373,0.143 0.403,0.132 0.403,-0.149 0,-0.139 -0.148,-0.25 -0.333,-0.25 -0.183,0 -0.333,0.067 -0.333,0.149 m 1.5,5.675 c 0,3.147 0.061,5.028 0.166,5.093 0.11,0.068 0.167,-1.637 0.167,-4.99 0,-3.284 -0.059,-5.093 -0.167,-5.093 -0.107,0 -0.166,1.774 -0.166,4.99 m -80.334,-3.436 c -0.229,0.12 -0.734,0.42 -1.121,0.666 -0.388,0.245 -0.742,0.446 -0.788,0.446 -0.203,0 -6.992,4.478 -7.743,5.109 -0.039,0.032 2.268,0.058 5.125,0.058 l 5.194,0 0,-3.25 c 0,-1.788 -0.056,-3.25 -0.125,-3.249 -0.069,0.001 -0.312,0.1 -0.542,0.22 m 83.578,-0.015 c -0.047,0.122 -0.065,1.569 -0.04,3.216 l 0.046,2.995 5.056,0.044 c 4.168,0.036 5.017,0.006 4.833,-0.174 -0.637,-0.624 -4.001,-2.878 -6.639,-4.45 -3.023,-1.8 -3.164,-1.871 -3.256,-1.631 M 41,143.667 c 0,0.091 0.15,0.166 0.333,0.166 0.184,0 0.334,-0.075 0.334,-0.166 0,-0.092 -0.15,-0.167 -0.334,-0.167 -0.183,0 -0.333,0.075 -0.333,0.167 m 42.333,0 c 0,0.091 0.146,0.166 0.324,0.166 0.178,0 0.37,-0.075 0.426,-0.166 0.059,-0.095 -0.081,-0.167 -0.323,-0.167 -0.235,0 -0.427,0.075 -0.427,0.167 m -39.25,1.166 c 0.057,0.092 0.249,0.167 0.427,0.167 0.178,0 0.323,-0.075 0.323,-0.167 0,-0.091 -0.192,-0.166 -0.426,-0.166 -0.242,0 -0.382,0.072 -0.324,0.166 m 36.084,0 c 0,0.092 0.145,0.167 0.323,0.167 0.178,0 0.37,-0.075 0.427,-0.167 0.058,-0.094 -0.082,-0.166 -0.324,-0.166 -0.234,0 -0.426,0.075 -0.426,0.166 m -33.424,0.823 c 0.053,0.086 0.242,0.145 0.42,0.132 0.391,-0.03 0.289,-0.166 -0.177,-0.237 -0.187,-0.029 -0.296,0.018 -0.243,0.105 m 30.862,-0.024 c -0.045,0.073 0.061,0.143 0.237,0.156 0.175,0.013 0.362,-0.046 0.415,-0.132 0.053,-0.086 -0.054,-0.156 -0.237,-0.156 -0.184,0 -0.37,0.059 -0.415,0.132 M 51.5,146.833 c 0,0.092 0.262,0.167 0.583,0.167 0.321,0 0.584,-0.075 0.584,-0.167 0,-0.091 -0.263,-0.166 -0.584,-0.166 -0.321,0 -0.583,0.075 -0.583,0.166 m 20.5,0 c 0,0.092 0.337,0.167 0.75,0.167 0.412,0 0.75,-0.075 0.75,-0.167 0,-0.091 -0.338,-0.166 -0.75,-0.166 -0.413,0 -0.75,0.075 -0.75,0.166 m -67.167,4.235 c 0,0.124 0.113,0.318 0.25,0.432 0.208,0.173 0.25,0.151 0.25,-0.128 0,-0.185 -0.112,-0.38 -0.25,-0.432 -0.146,-0.056 -0.25,-0.003 -0.25,0.128"
       inkscape:connector-curvature="0"
       style="fill:#172332;fill-rule:evenodd;stroke:none"
       sodipodi:nodetypes="cccccsscsccccccscccscssccscsccscscccccscccccccccccccccccccccccccccccccccscccccscsccscccccccccccccccsccccscccsscccccccsscscccccccscsccscccscccccscccssssssccsscccsccccscccccccccscscccscccsccscccsscccccccscccscccccccccccsccccccsccccccssccccssscccccccssscccssccscccsssssccscscccsccsccccsccscccsssccscccsssccscscccsccsssccssccccccscsccsscccsccccssccccsccsscccsssccscccccccsccccssscccccscccscccccscccsccccsssscccccsccscscccccsccccccscscccsscccsscccscscsscccccccccsssccscsccsssccscscccccccssccsssccssscccscc" />
  </g>
</svg>
