<?xml version="1.0" encoding="UTF-8" standalone="no"?>
<svg
   xmlns:dc="http://purl.org/dc/elements/1.1/"
   xmlns:cc="http://creativecommons.org/ns#"
   xmlns:rdf="http://www.w3.org/1999/02/22-rdf-syntax-ns#"
   xmlns:svg="http://www.w3.org/2000/svg"
   xmlns="http://www.w3.org/2000/svg"
   xmlns:sodipodi="http://sodipodi.sourceforge.net/DTD/sodipodi-0.dtd"
   xmlns:inkscape="http://www.inkscape.org/namespaces/inkscape"
   id="svg"
   version="1.1"
   width="400.00024"
   height="213.62729"
   style="display:block"
   sodipodi:docname="firma.svg"
   inkscape:version="0.92.1 r15371">
  <metadata
     id="metadata9">
    <rdf:RDF>
      <cc:Work
         rdf:about="">
        <dc:format>image/svg+xml</dc:format>
        <dc:type
           rdf:resource="http://purl.org/dc/dcmitype/StillImage" />
        <dc:title></dc:title>
      </cc:Work>
    </rdf:RDF>
  </metadata>
  <defs
     id="defs7" />
  <sodipodi:namedview
     pagecolor="#ffffff"
     bordercolor="#666666"
     borderopacity="1"
     objecttolerance="10"
     gridtolerance="10"
     guidetolerance="10"
     inkscape:pageopacity="0"
     inkscape:pageshadow="2"
     inkscape:window-width="640"
     inkscape:window-height="480"
     id="namedview5"
     showgrid="false"
     fit-margin-top="0"
     fit-margin-left="0"
     fit-margin-right="0"
     fit-margin-bottom="0"
     inkscape:zoom="0.11833333"
     inkscape:cx="1200"
     inkscape:cy="-426.917"
     inkscape:window-x="0"
     inkscape:window-y="0"
     inkscape:window-maximized="0"
     inkscape:current-layer="svg" />
  <g
     id="svgg"
     transform="translate(0,0.04428647)">
    <path
       id="path0"
       d="m 200.665,0.355 c -0.144,0.195 -0.573,0.407 -1,0.494 -0.412,0.083 -1.161,0.236 -1.665,0.338 -0.504,0.102 -1.367,0.236 -1.917,0.297 -0.55,0.061 -1.15,0.192 -1.333,0.291 -0.183,0.098 -0.596,0.223 -0.917,0.278 -0.321,0.054 -1.025,0.175 -1.564,0.268 -0.54,0.093 -1.103,0.275 -1.25,0.404 -0.148,0.13 -0.456,0.29 -0.686,0.357 -0.229,0.067 -0.815,0.384 -1.303,0.703 -0.488,0.32 -1.163,0.657 -1.5,0.748 -0.714,0.194 -3.74,2.142 -4.396,2.829 -0.247,0.259 -0.6,0.471 -0.785,0.471 -0.186,0 -0.41,0.137 -0.5,0.304 -0.089,0.167 -0.474,0.52 -0.854,0.783 -0.381,0.264 -1.049,0.821 -1.484,1.238 -0.436,0.417 -1.111,0.984 -1.5,1.259 -0.898,0.635 -3.489,3.304 -4.116,4.241 -0.793,1.183 -1.206,1.887 -1.571,2.675 -0.191,0.413 -0.456,0.87 -0.588,1.016 -0.302,0.334 -3.403,6.45 -3.403,6.712 0,0.107 -0.15,0.474 -0.333,0.816 -0.183,0.342 -0.333,0.868 -0.333,1.169 0,0.3 -0.102,0.694 -0.226,0.875 -0.123,0.181 -0.275,0.704 -0.337,1.162 -0.061,0.459 -0.186,1.209 -0.279,1.667 -0.092,0.458 -0.223,1.321 -0.292,1.917 -0.068,0.595 -0.179,1.169 -0.245,1.274 -0.178,0.285 -0.157,11.231 0.023,11.81 0.086,0.275 0.287,1.249 0.448,2.166 0.162,0.916 0.432,1.928 0.601,2.247 0.168,0.32 0.307,0.833 0.307,1.141 0,0.308 0.145,0.764 0.322,1.013 0.177,0.249 0.372,0.651 0.433,0.894 0.061,0.242 0.212,0.525 0.336,0.628 0.124,0.103 0.315,0.462 0.424,0.798 0.11,0.337 0.339,0.791 0.509,1.009 0.17,0.219 0.309,0.507 0.309,0.64 0,0.133 0.218,0.554 0.484,0.936 0.267,0.381 0.698,1.023 0.959,1.426 0.602,0.931 1.873,2.829 2.305,3.444 0.585,0.83 4.396,4.544 4.789,4.667 0.209,0.065 0.867,0.619 1.463,1.231 0.596,0.612 1.346,1.294 1.667,1.516 0.32,0.222 0.936,0.761 1.368,1.198 0.432,0.437 0.898,0.795 1.035,0.795 0.137,0 0.422,0.182 0.632,0.405 0.486,0.517 6.083,4.262 6.368,4.262 0.118,0 0.417,0.187 0.664,0.416 0.248,0.23 0.533,0.417 0.635,0.417 0.102,0 0.91,0.487 1.795,1.081 0.885,0.595 1.866,1.132 2.181,1.193 0.314,0.061 0.751,0.249 0.969,0.419 0.219,0.169 0.494,0.307 0.612,0.307 0.118,0 0.438,0.187 0.71,0.417 0.273,0.229 0.567,0.416 0.654,0.416 0.087,0 0.292,0.148 0.456,0.329 0.164,0.181 0.457,0.377 0.651,0.436 0.194,0.058 0.755,0.379 1.247,0.712 2.041,1.383 3.301,2.187 3.773,2.406 0.275,0.128 0.603,0.356 0.728,0.508 0.126,0.152 0.327,0.276 0.446,0.276 0.119,0 0.429,0.172 0.688,0.381 0.259,0.21 0.659,0.473 0.888,0.583 0.229,0.111 0.979,0.577 1.666,1.036 0.688,0.459 1.588,1.052 2,1.319 0.413,0.267 0.975,0.644 1.25,0.839 0.275,0.195 0.875,0.59 1.334,0.877 0.458,0.288 0.983,0.654 1.166,0.814 0.184,0.161 0.788,0.542 1.343,0.847 0.556,0.304 1.337,0.779 1.736,1.054 0.399,0.275 0.964,0.65 1.256,0.833 1.445,0.91 1.749,1.127 1.749,1.249 0,0.072 0.201,0.182 0.446,0.244 0.246,0.062 0.88,0.464 1.409,0.893 0.529,0.43 1.247,0.99 1.595,1.244 0.906,0.664 1.809,1.412 2.873,2.381 0.51,0.464 1.302,1.115 1.76,1.448 2.028,1.47 6.109,6.053 6.503,7.302 0.07,0.223 0.4,0.818 0.733,1.323 0.827,1.252 1.554,2.781 1.704,3.583 0.232,1.232 0.334,1.665 0.476,2 0.078,0.183 0.179,0.715 0.226,1.18 0.047,0.466 0.241,1.308 0.43,1.87 0.5,1.485 0.518,8.194 0.025,9.664 -0.175,0.524 -0.368,1.253 -0.428,1.619 -0.255,1.574 -1.571,5.539 -2.024,6.1 -0.103,0.129 -0.245,0.421 -0.314,0.65 -0.07,0.23 -0.473,0.843 -0.896,1.365 -0.422,0.521 -0.956,1.219 -1.185,1.551 -0.615,0.89 -2.323,2.584 -2.605,2.584 -0.134,0 -0.409,0.173 -0.611,0.385 -0.329,0.345 -1.571,1.365 -2.937,2.412 -0.272,0.209 -1.156,0.722 -1.963,1.14 -0.807,0.417 -1.586,0.865 -1.73,0.995 -0.145,0.129 -0.457,0.235 -0.694,0.235 -0.237,0 -0.906,0.149 -1.487,0.331 -0.581,0.182 -1.248,0.332 -1.481,0.334 -0.234,0.001 -0.497,0.064 -0.584,0.141 -0.161,0.141 -1.119,0.491 -2.325,0.848 -0.846,0.251 -12.119,0.138 -13.833,-0.139 -0.642,-0.103 -1.701,-0.248 -2.354,-0.323 -0.814,-0.092 -1.331,-0.248 -1.647,-0.496 -0.287,-0.226 -0.696,-0.363 -1.084,-0.363 -0.375,0 -0.715,-0.109 -0.851,-0.272 -0.124,-0.15 -0.527,-0.412 -0.895,-0.582 -0.368,-0.169 -0.782,-0.38 -0.919,-0.467 -0.138,-0.087 -0.827,-0.427 -1.533,-0.754 -0.706,-0.328 -1.324,-0.661 -1.373,-0.741 -0.05,-0.08 -0.353,-0.195 -0.674,-0.255 -0.673,-0.127 -1.962,-0.747 -3.186,-1.533 -0.467,-0.301 -1.067,-0.64 -1.333,-0.756 -0.267,-0.115 -0.757,-0.437 -1.09,-0.716 -1.454,-1.216 -1.959,-1.578 -2.535,-1.819 -0.585,-0.244 -2.609,-2.133 -2.609,-2.434 0,-0.079 -1.107,-1.264 -2.459,-2.633 -1.352,-1.37 -2.796,-2.952 -3.208,-3.517 -0.747,-1.024 -1.998,-2.691 -2.671,-3.562 -0.195,-0.252 -0.955,-1.64 -1.688,-3.084 -0.734,-1.443 -1.432,-2.68 -1.552,-2.748 -0.12,-0.067 -0.269,-0.325 -0.331,-0.573 -0.063,-0.247 -0.249,-0.642 -0.414,-0.877 -0.165,-0.235 -0.356,-0.614 -0.425,-0.843 -0.069,-0.229 -0.218,-0.529 -0.332,-0.667 -0.113,-0.138 -0.293,-0.508 -0.399,-0.823 -0.106,-0.314 -0.294,-0.689 -0.419,-0.833 -0.125,-0.143 -0.322,-0.561 -0.439,-0.927 -0.116,-0.367 -0.456,-1.193 -0.756,-1.836 -0.299,-0.642 -0.595,-1.467 -0.658,-1.833 -0.063,-0.366 -0.255,-0.866 -0.428,-1.112 -0.173,-0.246 -0.379,-0.734 -0.458,-1.086 -0.079,-0.352 -0.344,-0.957 -0.589,-1.345 l -0.445,-0.705 h -2.409 c -2.831,0 -2.914,0.049 -2.599,1.519 0.098,0.457 0.179,1.132 0.179,1.5 0,0.368 0.092,0.833 0.204,1.034 0.112,0.2 0.262,1.001 0.332,1.78 0.071,0.779 0.205,1.942 0.299,2.584 0.093,0.641 0.238,1.804 0.321,2.583 0.083,0.779 0.232,1.628 0.331,1.886 0.099,0.258 0.179,0.835 0.179,1.282 0,0.447 0.066,0.853 0.146,0.902 0.08,0.05 0.192,0.71 0.249,1.468 0.227,3.002 0.318,3.721 0.499,3.945 0.105,0.129 0.242,0.841 0.306,1.584 0.27,3.112 0.343,3.691 0.484,3.841 0.083,0.087 0.153,0.537 0.157,1 0.004,0.463 0.082,1.179 0.174,1.592 0.269,1.214 0.673,4.221 0.907,6.75 0.068,0.733 0.207,1.438 0.309,1.567 0.102,0.128 0.239,0.84 0.303,1.583 0.268,3.102 0.347,3.694 0.518,3.906 0.098,0.122 0.24,0.91 0.314,1.75 0.232,2.627 0.396,3.673 0.678,4.319 l 0.273,0.625 h 2.156 c 2.634,0 2.789,-0.083 3.034,-1.616 0.169,-1.06 0.793,-2.51 1.241,-2.882 0.139,-0.115 0.252,-0.307 0.252,-0.427 0,-1.311 3.932,-2.851 5.917,-2.317 0.458,0.123 1.433,0.341 2.167,0.486 0.733,0.144 1.671,0.379 2.083,0.523 0.412,0.143 1.113,0.326 1.557,0.406 0.444,0.08 0.895,0.218 1.002,0.307 0.108,0.089 0.569,0.254 1.027,0.366 0.457,0.112 1.168,0.38 1.579,0.595 0.412,0.216 0.966,0.392 1.231,0.392 0.265,0 0.718,0.146 1.006,0.325 0.289,0.178 0.877,0.403 1.308,0.5 0.43,0.096 1.327,0.43 1.994,0.741 1.585,0.74 2.836,1.101 3.816,1.101 0.437,0 0.833,0.064 0.882,0.143 0.049,0.078 0.709,0.182 1.468,0.229 0.798,0.051 1.661,0.214 2.047,0.389 0.366,0.165 1.341,0.361 2.166,0.433 2.917,0.258 3.485,0.343 3.846,0.58 0.7,0.458 15.764,0.25 16.77,-0.232 0.431,-0.207 1.045,-0.375 1.365,-0.375 0.321,0 0.629,-0.075 0.686,-0.167 0.057,-0.092 0.329,-0.167 0.604,-0.167 0.276,0 0.639,-0.073 0.808,-0.164 0.168,-0.09 0.857,-0.21 1.53,-0.266 0.745,-0.063 1.388,-0.216 1.641,-0.392 0.23,-0.159 0.787,-0.34 1.238,-0.401 0.452,-0.062 0.952,-0.23 1.112,-0.375 0.16,-0.145 0.611,-0.306 1.002,-0.359 0.715,-0.095 2.839,-1.111 4.047,-1.934 0.356,-0.243 0.74,-0.442 0.852,-0.442 0.112,0 0.383,-0.138 0.602,-0.307 0.218,-0.168 0.622,-0.383 0.897,-0.477 2.304,-0.786 12.084,-8.968 12.084,-10.11 0,-0.12 0.356,-0.6 0.791,-1.067 1.028,-1.103 1.465,-1.694 1.623,-2.196 0.071,-0.224 0.374,-0.756 0.673,-1.182 0.3,-0.426 0.854,-1.422 1.231,-2.213 0.378,-0.792 0.929,-1.796 1.226,-2.232 0.571,-0.839 1.145,-2.203 1.565,-3.716 0.14,-0.504 0.337,-1.016 0.438,-1.139 0.1,-0.122 0.24,-0.572 0.31,-1 0.07,-0.427 0.211,-1.153 0.313,-1.611 0.102,-0.458 0.279,-1.358 0.394,-2 0.115,-0.642 0.254,-1.279 0.309,-1.417 0.774,-1.939 0.288,-12.998 -0.696,-15.84 -0.189,-0.547 -0.344,-1.127 -0.344,-1.29 0,-0.162 -0.112,-0.455 -0.248,-0.65 -0.137,-0.195 -0.335,-0.756 -0.439,-1.246 -0.105,-0.489 -0.331,-1.152 -0.502,-1.471 -0.171,-0.32 -0.311,-0.75 -0.311,-0.956 0,-0.422 -0.778,-2.022 -1.622,-3.337 -0.308,-0.48 -0.665,-1.124 -0.793,-1.43 -0.128,-0.306 -0.349,-0.653 -0.492,-0.772 -0.143,-0.118 -0.26,-0.304 -0.26,-0.412 0,-0.224 -0.976,-1.618 -1.258,-1.797 -0.103,-0.065 -0.405,-0.436 -0.672,-0.825 -0.268,-0.389 -0.805,-1.01 -1.195,-1.378 -0.389,-0.369 -0.708,-0.772 -0.708,-0.896 0,-0.312 -1.739,-2.105 -2.748,-2.831 -0.459,-0.331 -1.693,-1.45 -2.741,-2.485 -1.047,-1.036 -1.976,-1.884 -2.064,-1.884 -0.087,0 -0.327,-0.168 -0.532,-0.375 -0.205,-0.206 -0.649,-0.562 -0.985,-0.791 -0.337,-0.229 -1.055,-0.755 -1.597,-1.167 -0.541,-0.413 -1.257,-0.937 -1.59,-1.167 -0.334,-0.229 -1.011,-0.735 -1.506,-1.125 C 239.243,78.319 238.765,78 238.675,78 c -0.09,0 -0.41,-0.215 -0.711,-0.478 -1.014,-0.885 -3.545,-2.586 -4.119,-2.768 -0.208,-0.066 -0.502,-0.23 -0.653,-0.364 -0.625,-0.555 -1.583,-1.224 -1.757,-1.227 -0.102,-10e-4 -0.523,-0.226 -0.935,-0.499 -2.162,-1.43 -3.206,-2.131 -3.885,-2.606 -0.413,-0.289 -0.926,-0.581 -1.141,-0.648 -0.215,-0.067 -0.596,-0.281 -0.846,-0.474 -1.193,-0.923 -1.402,-1.063 -1.731,-1.167 -0.194,-0.061 -0.487,-0.259 -0.651,-0.44 -0.164,-0.181 -0.38,-0.329 -0.48,-0.33 -0.101,-10e-4 -0.67,-0.338 -1.266,-0.749 -0.596,-0.411 -1.171,-0.748 -1.279,-0.749 -0.107,-0.001 -0.418,-0.189 -0.691,-0.418 -0.272,-0.229 -0.555,-0.416 -0.628,-0.416 -0.122,0 -0.752,-0.388 -1.927,-1.186 -0.243,-0.165 -0.638,-0.349 -0.877,-0.409 -0.24,-0.06 -0.491,-0.203 -0.558,-0.318 -0.068,-0.115 -0.35,-0.325 -0.628,-0.466 -0.277,-0.142 -0.913,-0.527 -1.412,-0.856 -0.5,-0.329 -0.999,-0.599 -1.108,-0.599 -0.11,0 -0.412,-0.171 -0.671,-0.381 -0.259,-0.21 -0.658,-0.476 -0.888,-0.592 -1.062,-0.535 -1.44,-0.758 -1.75,-1.029 -0.183,-0.161 -0.507,-0.346 -0.72,-0.41 -0.501,-0.152 -3.499,-2.17 -3.995,-2.688 -0.21,-0.22 -0.486,-0.4 -0.613,-0.4 -0.127,0 -0.518,-0.272 -0.868,-0.604 -0.35,-0.333 -0.938,-0.735 -1.306,-0.894 -0.368,-0.159 -0.771,-0.412 -0.895,-0.562 -0.125,-0.15 -0.303,-0.273 -0.395,-0.273 -0.093,0 -1.21,-1.013 -2.482,-2.25 -1.272,-1.238 -2.389,-2.25 -2.481,-2.25 -0.267,0 -1.661,-1.351 -1.661,-1.609 0,-0.128 -0.432,-0.706 -0.959,-1.284 -0.527,-0.579 -1.201,-1.345 -1.497,-1.704 -0.834,-1.009 -2.879,-5.165 -3.151,-6.403 -0.131,-0.596 -0.322,-1.383 -0.424,-1.75 -0.371,-1.33 -0.365,-7.408 0.008,-8.52 0.181,-0.539 0.415,-1.458 0.52,-2.043 0.106,-0.585 0.337,-1.334 0.514,-1.664 0.177,-0.331 0.322,-0.722 0.322,-0.87 0,-1.862 4.144,-7.005 6.859,-8.513 0.273,-0.152 0.623,-0.389 0.778,-0.528 0.602,-0.543 6.576,-3.445 7.092,-3.445 0.288,0 0.785,-0.082 1.105,-0.182 2.152,-0.67 9.599,-0.728 10.645,-0.082 0.105,0.065 0.846,0.183 1.647,0.262 2.031,0.199 2.172,0.235 3.957,1 0.377,0.162 0.979,0.299 2.112,0.48 0.428,0.069 0.878,0.206 1,0.306 0.122,0.099 0.709,0.332 1.305,0.516 0.596,0.185 1.308,0.455 1.583,0.6 0.275,0.145 0.575,0.266 0.667,0.269 0.092,0.003 0.354,0.151 0.583,0.331 0.23,0.179 0.538,0.327 0.686,0.329 0.148,0.002 0.448,0.142 0.667,0.311 0.218,0.168 0.622,0.383 0.897,0.478 0.875,0.3 4.796,3.05 5.834,4.092 0.55,0.553 1.421,1.318 1.937,1.701 1.198,0.891 3.347,3.097 4.313,4.427 0.412,0.568 1.106,1.425 1.541,1.905 0.436,0.48 0.792,0.953 0.792,1.052 0,0.098 0.173,0.391 0.385,0.65 0.211,0.259 0.665,1.034 1.008,1.721 0.342,0.688 0.686,1.363 0.763,1.5 0.077,0.138 0.603,1.188 1.17,2.334 0.566,1.146 1.091,2.195 1.166,2.333 0.075,0.137 0.306,0.662 0.514,1.167 0.207,0.504 0.548,1.291 0.758,1.75 0.209,0.458 0.435,1.058 0.501,1.333 0.067,0.275 0.22,0.653 0.341,0.84 0.121,0.187 0.33,0.915 0.464,1.618 0.135,0.704 0.338,1.451 0.451,1.661 0.114,0.209 0.262,0.681 0.329,1.048 0.066,0.366 0.177,0.966 0.246,1.333 0.068,0.367 0.301,0.948 0.516,1.292 l 0.392,0.625 h 2.223 c 2.654,0 3.273,-0.159 3.273,-0.84 0,-0.261 -0.075,-0.52 -0.167,-0.577 -0.094,-0.058 -0.166,-0.868 -0.166,-1.86 0,-1.187 -0.079,-1.927 -0.243,-2.281 -0.134,-0.289 -0.282,-1.238 -0.33,-2.109 -0.233,-4.227 -0.36,-5.612 -0.543,-5.931 -0.11,-0.191 -0.195,-0.877 -0.189,-1.525 0.006,-0.648 -0.051,-1.278 -0.126,-1.4 -0.076,-0.123 -0.198,-1.161 -0.272,-2.308 -0.243,-3.765 -0.378,-5.082 -0.547,-5.336 -0.155,-0.234 -0.309,-1.992 -0.517,-5.917 -0.048,-0.916 -0.158,-1.738 -0.244,-1.825 C 255.07,17.171 255,16.454 255,15.664 c 0,-0.79 -0.105,-1.807 -0.234,-2.259 -0.129,-0.452 -0.244,-1.34 -0.256,-1.973 -0.013,-0.633 -0.068,-1.224 -0.123,-1.313 -0.054,-0.088 -0.169,-1.183 -0.255,-2.432 -0.213,-3.118 -0.391,-4.874 -0.647,-6.395 L 253.267,0 h -2.435 -2.436 l -0.192,0.792 c -0.106,0.435 -0.243,1.091 -0.303,1.458 -0.121,0.736 -0.823,2.349 -1.095,2.517 -0.095,0.059 -0.28,0.363 -0.411,0.676 -0.138,0.331 -0.419,0.638 -0.673,0.734 -0.415,0.158 -1.084,0.63 -1.805,1.275 -0.575,0.514 -4.708,0.541 -5.543,0.036 C 238.031,7.28 237.412,7.053 237,6.982 235.385,6.706 235.133,6.624 233.406,5.817 233.033,5.643 232.561,5.5 232.356,5.5 232.151,5.5 231.743,5.374 231.45,5.221 230.971,4.971 229.809,4.623 228.667,4.388 228.296,4.312 227.953,4.183 226.75,3.668 226.567,3.589 226.229,3.486 226,3.439 224.906,3.212 223.688,2.856 223.322,2.655 223.099,2.533 222.453,2.384 221.886,2.323 221.319,2.262 220.548,2.052 220.173,1.856 219.706,1.613 219.186,1.5 218.532,1.5 217.93,1.5 217.435,1.402 217.199,1.238 216.993,1.093 216.395,0.937 215.871,0.891 214.709,0.788 214,0.537 214,0.23 214,-0.209 200.99,-0.087 200.665,0.355 M 0,3.905 v 1.906 l 2.708,0.082 c 5.02,0.153 7.511,0.421 8.925,0.961 0.21,0.08 0.632,0.146 0.936,0.146 0.304,0 0.732,0.14 0.95,0.31 0.219,0.171 0.585,0.367 0.814,0.435 1.583,0.47 4.948,3.681 5.26,5.019 0.062,0.267 0.204,0.636 0.315,0.819 0.112,0.184 0.337,0.746 0.502,1.25 0.164,0.505 0.364,1.089 0.444,1.3 0.08,0.21 0.146,0.609 0.146,0.886 0,0.277 0.088,0.667 0.196,0.867 0.779,1.449 0.825,3.648 0.901,43.514 0.056,29.322 0.115,37.204 0.279,37.401 0.145,0.175 0.244,1.499 0.331,4.432 0.217,7.352 0.562,12.259 0.9,12.805 0.112,0.181 0.308,1.653 0.55,4.129 0.141,1.443 0.354,2.447 0.606,2.854 0.077,0.125 0.195,0.565 0.262,0.978 0.194,1.205 0.323,1.717 0.574,2.276 0.129,0.289 0.235,0.664 0.235,0.834 0.001,0.169 0.151,0.533 0.333,0.808 0.182,0.275 0.331,0.626 0.332,0.78 0.002,0.442 2.479,5.173 2.842,5.427 0.179,0.126 0.326,0.306 0.326,0.401 0,0.096 0.14,0.373 0.311,0.616 0.171,0.243 0.362,0.604 0.423,0.802 0.165,0.532 1.739,2.844 2.005,2.946 0.126,0.049 0.28,0.318 0.341,0.599 0.062,0.28 0.22,0.57 0.353,0.644 0.329,0.185 2.067,2.383 2.067,2.616 0,0.254 3.563,3.752 3.821,3.752 0.202,0 1.241,0.803 2.218,1.714 0.273,0.255 0.751,0.57 1.062,0.7 0.311,0.129 0.565,0.308 0.565,0.396 0,0.21 1.936,1.444 3.44,2.193 0.655,0.326 1.298,0.682 1.429,0.791 0.206,0.171 0.867,0.525 3.881,2.082 0.275,0.142 0.913,0.389 1.417,0.549 0.504,0.16 0.997,0.353 1.095,0.428 0.262,0.202 2.264,0.809 2.678,0.812 0.195,0.001 0.57,0.114 0.833,0.251 0.263,0.137 0.705,0.249 0.984,0.25 0.278,0 0.8,0.151 1.16,0.334 0.516,0.263 0.983,0.333 2.213,0.333 0.876,0 1.718,0.086 1.923,0.196 0.583,0.314 1.573,0.494 3.447,0.629 1.05,0.076 2.165,0.27 2.787,0.484 1.227,0.424 22.663,0.575 23.429,0.165 0.652,-0.349 1.509,-0.503 3.476,-0.626 1.412,-0.088 2.063,-0.2 2.387,-0.413 0.246,-0.161 0.797,-0.356 1.225,-0.434 1.503,-0.273 2.957,-0.649 4.152,-1.073 0.662,-0.235 1.496,-0.428 1.852,-0.428 0.424,0 1.081,-0.223 1.913,-0.651 0.696,-0.358 1.652,-0.734 2.124,-0.836 0.472,-0.101 1.048,-0.333 1.279,-0.515 0.232,-0.182 0.551,-0.331 0.71,-0.331 0.158,0 0.467,-0.14 0.686,-0.31 0.218,-0.171 0.583,-0.369 0.81,-0.44 0.227,-0.072 0.781,-0.383 1.231,-0.693 0.451,-0.31 1.445,-0.861 2.21,-1.224 0.764,-0.363 1.534,-0.793 1.71,-0.955 0.175,-0.162 0.593,-0.482 0.927,-0.711 0.334,-0.229 1.053,-0.755 1.597,-1.167 0.544,-0.413 1.449,-1.088 2.012,-1.5 2.061,-1.51 6.942,-6.815 7.983,-8.677 0.367,-0.655 0.867,-1.382 1.082,-1.573 0.103,-0.092 0.359,-0.523 0.568,-0.958 0.209,-0.435 0.596,-0.995 0.86,-1.245 0.264,-0.249 0.524,-0.656 0.579,-0.905 0.055,-0.249 0.205,-0.54 0.334,-0.647 0.129,-0.107 0.282,-0.469 0.339,-0.803 0.056,-0.335 0.246,-0.812 0.421,-1.061 0.175,-0.249 0.398,-0.823 0.495,-1.277 0.098,-0.454 0.322,-1.111 0.5,-1.459 0.177,-0.347 0.322,-0.824 0.322,-1.058 0,-0.234 0.139,-0.687 0.309,-1.006 0.17,-0.32 0.363,-0.872 0.429,-1.229 0.065,-0.356 0.264,-0.917 0.441,-1.247 0.177,-0.33 0.321,-0.734 0.321,-0.898 0,-0.164 0.15,-0.725 0.334,-1.247 0.183,-0.522 0.335,-1.251 0.337,-1.621 0.002,-0.37 0.082,-0.972 0.178,-1.339 0.189,-0.723 0.391,-2.222 0.65,-4.833 0.213,-2.144 0.395,-3.277 0.573,-3.565 0.396,-0.641 0.477,-6.485 0.598,-43.185 0.121,-36.627 0.219,-44.083 0.587,-44.677 0.082,-0.132 0.203,-0.878 0.269,-1.657 0.109,-1.278 0.232,-2.063 0.563,-3.583 0.059,-0.275 0.214,-0.736 0.343,-1.025 0.129,-0.289 0.235,-0.668 0.235,-0.841 0,-0.367 1.327,-2.379 2.465,-3.739 2.137,-2.554 5.138,-4.079 8.702,-4.423 0.504,-0.048 1.011,-0.166 1.126,-0.26 0.329,-0.269 2.224,-0.485 5.038,-0.573 1.717,-0.053 2.623,-0.146 2.706,-0.276 0.149,-0.235 0.173,-2.974 0.029,-3.349 -0.175,-0.456 -53.983,-0.398 -54.227,0.058 -0.246,0.461 -0.219,2.887 0.036,3.219 0.17,0.221 0.681,0.288 2.792,0.367 4.282,0.159 6.888,0.354 7.416,0.553 0.275,0.104 1.043,0.348 1.705,0.541 0.663,0.194 1.246,0.418 1.296,0.499 0.05,0.081 0.445,0.199 0.878,0.263 0.433,0.064 0.993,0.274 1.244,0.468 0.25,0.193 0.675,0.52 0.943,0.726 0.268,0.207 0.57,0.375 0.672,0.375 0.269,0 2.346,2.119 2.346,2.394 0,0.127 0.119,0.332 0.266,0.453 0.516,0.429 1.234,2.226 1.234,3.091 0,0.452 0.104,0.971 0.232,1.153 0.128,0.183 0.275,0.743 0.327,1.246 0.052,0.502 0.187,1.626 0.3,2.497 0.157,1.216 0.2,10.616 0.185,40.583 -0.021,42.519 -0.132,49.561 -0.798,50.583 -0.09,0.138 -0.216,0.925 -0.28,1.75 -0.065,0.825 -0.19,1.988 -0.278,2.584 -0.089,0.596 -0.234,1.627 -0.322,2.293 -0.089,0.665 -0.236,1.303 -0.326,1.417 -0.091,0.113 -0.206,0.431 -0.256,0.706 -0.194,1.071 -0.48,2.007 -0.687,2.248 -0.213,0.249 -0.541,1.279 -0.716,2.252 -0.049,0.275 -0.147,0.575 -0.216,0.667 -0.07,0.092 -0.18,0.414 -0.244,0.715 -0.065,0.302 -0.487,1.277 -0.938,2.167 -0.804,1.587 -0.919,1.774 -1.712,2.785 -0.216,0.275 -0.442,0.659 -0.503,0.853 -0.06,0.194 -0.258,0.487 -0.439,0.651 -0.181,0.163 -0.329,0.368 -0.329,0.454 0,0.198 -3.25,3.458 -3.447,3.458 -0.08,0 -0.667,0.525 -1.303,1.167 -0.637,0.642 -1.253,1.167 -1.369,1.167 -0.116,0 -0.619,0.356 -1.117,0.791 -1.466,1.281 -2.619,2.111 -3.242,2.336 -0.321,0.115 -0.701,0.312 -0.845,0.437 -0.143,0.125 -0.536,0.315 -0.872,0.423 -0.337,0.108 -0.702,0.305 -0.812,0.438 -0.111,0.133 -0.319,0.241 -0.463,0.241 -0.235,0 -0.695,0.265 -2.034,1.17 -0.23,0.156 -0.605,0.34 -0.833,0.41 -0.227,0.07 -0.533,0.232 -0.68,0.36 -0.297,0.26 -3.161,1.227 -3.635,1.227 -0.167,0 -0.506,0.159 -0.753,0.354 -0.304,0.238 -0.826,0.395 -1.606,0.48 -0.635,0.07 -1.34,0.249 -1.567,0.397 -0.254,0.166 -0.765,0.269 -1.34,0.269 -0.628,0 -1.156,0.117 -1.631,0.363 -1.506,0.78 -18.088,1.022 -20.785,0.305 -0.321,-0.086 -1.108,-0.274 -1.75,-0.419 -0.641,-0.145 -1.316,-0.33 -1.5,-0.41 -0.386,-0.171 -0.945,-0.295 -2.315,-0.516 -0.54,-0.087 -1.215,-0.298 -1.5,-0.47 -0.285,-0.171 -0.848,-0.352 -1.25,-0.403 -0.403,-0.05 -0.791,-0.186 -0.863,-0.302 -0.135,-0.218 -0.802,-0.607 -1.822,-1.062 -0.321,-0.144 -0.696,-0.335 -0.833,-0.427 -0.138,-0.091 -0.513,-0.279 -0.833,-0.416 -0.321,-0.138 -0.696,-0.326 -0.834,-0.417 -0.137,-0.091 -0.475,-0.271 -0.75,-0.4 -0.275,-0.129 -0.796,-0.54 -1.158,-0.913 -0.363,-0.374 -0.765,-0.68 -0.895,-0.68 -0.129,0 -0.808,-0.548 -1.507,-1.219 -0.7,-0.67 -1.594,-1.466 -1.987,-1.768 -0.71,-0.547 -2.869,-3.093 -2.869,-3.384 0,-0.084 -0.286,-0.503 -0.635,-0.932 -0.66,-0.812 -2.254,-3.921 -2.443,-4.767 -0.061,-0.268 -0.255,-0.671 -0.433,-0.897 -0.177,-0.226 -0.323,-0.607 -0.324,-0.847 -10e-4,-0.24 -0.189,-0.837 -0.417,-1.327 -0.228,-0.491 -0.417,-1.053 -0.419,-1.25 -0.002,-0.197 -0.148,-0.678 -0.326,-1.069 -0.177,-0.39 -0.441,-1.215 -0.585,-1.833 -0.145,-0.618 -0.334,-1.386 -0.419,-1.707 -0.085,-0.32 -0.192,-1.07 -0.236,-1.666 -0.152,-2.029 -0.375,-3.777 -0.511,-3.996 -0.074,-0.121 -0.202,-1.202 -0.285,-2.403 -0.082,-1.202 -0.222,-2.86 -0.31,-3.685 -0.088,-0.825 -0.225,-2.475 -0.304,-3.666 -0.079,-1.192 -0.228,-2.378 -0.331,-2.636 -0.324,-0.805 -0.264,-79.143 0.061,-80.391 0.137,-0.528 0.25,-1.243 0.25,-1.589 0,-0.346 0.077,-0.949 0.172,-1.34 0.094,-0.391 0.317,-1.424 0.494,-2.294 0.761,-3.73 1.393,-5.065 3.281,-6.924 C 49.92,8.792 52.31,7.337 53.23,7.331 53.717,7.328 55.673,6.702 55.972,6.453 56.225,6.244 58.569,6.068 63.353,5.902 65.924,5.812 65.959,5.806 66.145,5.398 66.376,4.89 66.392,3.011 66.171,2.428 L 66.008,2 H 33.004 0 V 3.905 M 273.053,2.208 c -0.21,0.329 -0.629,7.312 -0.851,14.209 -0.065,2.016 -0.194,3.779 -0.285,3.916 -0.092,0.138 -0.222,1.713 -0.289,3.5 -0.162,4.332 -0.43,10.076 -0.553,11.863 -0.136,1.996 0.006,2.137 2.149,2.137 2.018,0 2.173,-0.151 2.469,-2.416 0.084,-0.642 0.227,-1.692 0.317,-2.334 0.091,-0.641 0.206,-1.541 0.255,-2 0.05,-0.458 0.197,-1.069 0.329,-1.358 0.132,-0.289 0.239,-0.716 0.239,-0.95 0,-0.233 0.188,-0.777 0.417,-1.208 0.229,-0.431 0.417,-0.929 0.417,-1.108 0,-0.178 0.14,-0.523 0.311,-0.767 0.171,-0.243 0.368,-0.629 0.437,-0.859 0.068,-0.229 0.219,-0.529 0.335,-0.666 0.116,-0.138 0.267,-0.438 0.337,-0.667 0.154,-0.509 0.583,-1.092 1.621,-2.205 0.436,-0.467 0.792,-0.95 0.792,-1.072 0,-0.123 0.398,-0.618 0.884,-1.1 0.486,-0.482 1.018,-1.105 1.183,-1.385 0.166,-0.279 0.632,-0.718 1.037,-0.974 0.405,-0.256 0.809,-0.602 0.898,-0.768 0.089,-0.166 0.382,-0.351 0.651,-0.41 0.269,-0.059 0.604,-0.283 0.745,-0.498 0.141,-0.215 0.69,-0.598 1.221,-0.851 0.53,-0.254 1.077,-0.553 1.214,-0.666 0.337,-0.275 1.369,-0.567 2.584,-0.73 0.958,-0.128 3.269,-0.666 4.345,-1.01 0.283,-0.091 2.495,-0.164 4.948,-0.164 2.778,0 4.476,-0.063 4.54,-0.167 0.23,-0.372 17.539,-0.211 17.917,0.167 0.379,0.379 0.545,125.016 0.166,125.25 -0.091,0.056 -0.17,0.679 -0.174,1.385 -0.004,0.705 -0.079,1.619 -0.168,2.031 -0.088,0.413 -0.205,1.013 -0.26,1.334 -0.205,1.195 -2.004,4.535 -3.02,5.606 -0.859,0.905 -3.63,2.56 -4.286,2.56 -0.079,0 -0.563,0.201 -1.076,0.446 -1.432,0.685 -2.077,0.76 -7.177,0.836 -3.004,0.045 -4.823,0.136 -4.958,0.248 -0.276,0.229 -0.292,3.117 -0.021,3.712 l 0.194,0.425 h 32.027 32.028 l 0.362,-0.386 c 0.431,-0.458 0.555,-3.47 0.154,-3.729 -0.114,-0.074 -2.308,-0.179 -4.875,-0.232 -2.566,-0.054 -4.966,-0.179 -5.333,-0.278 -0.367,-0.099 -1.154,-0.275 -1.75,-0.391 -0.596,-0.115 -1.271,-0.337 -1.5,-0.492 -0.229,-0.155 -0.604,-0.339 -0.833,-0.41 -0.229,-0.07 -0.596,-0.268 -0.814,-0.438 -0.219,-0.171 -0.474,-0.311 -0.567,-0.311 -0.566,0 -3.286,-2.366 -3.286,-2.859 0,-0.094 -0.148,-0.36 -0.329,-0.59 -0.181,-0.23 -0.38,-0.691 -0.442,-1.026 -0.062,-0.334 -0.223,-0.778 -0.358,-0.985 -0.261,-0.401 -0.724,-2.359 -0.713,-3.011 0.004,-0.213 -0.085,-0.55 -0.197,-0.75 -0.585,-1.042 -0.929,-127.336 -0.348,-127.978 0.32,-0.354 19.16,-0.338 23.637,0.02 5.134,0.411 5.901,0.492 7.154,0.76 0.726,0.155 1.587,0.426 1.914,0.601 0.326,0.175 0.67,0.32 0.763,0.322 0.093,0.002 0.357,0.15 0.586,0.33 0.229,0.179 0.537,0.327 0.686,0.329 0.148,0.002 0.448,0.143 0.666,0.313 0.219,0.17 0.673,0.399 1.009,0.509 0.337,0.109 0.696,0.3 0.799,0.424 0.103,0.124 0.368,0.271 0.591,0.327 0.984,0.247 6.749,5.626 6.749,6.298 0,0.142 0.124,0.362 0.275,0.488 0.152,0.125 0.36,0.416 0.462,0.645 0.103,0.229 0.478,0.863 0.834,1.408 0.356,0.545 0.748,1.325 0.871,1.732 0.122,0.407 0.301,0.835 0.398,0.951 0.096,0.117 0.241,0.575 0.321,1.019 0.08,0.443 0.264,1.332 0.409,1.973 0.145,0.642 0.263,1.408 0.263,1.703 0,0.295 0.105,0.782 0.232,1.083 0.277,0.651 0.6,2.337 0.604,3.141 0.006,1.553 0.436,1.823 2.906,1.823 H 400 v -2 c 0,-1.222 -0.065,-2 -0.167,-2 -0.241,0 -0.205,-0.623 0.042,-0.723 0.167,-0.067 0.167,-0.086 0,-0.097 -0.129,-0.008 -0.208,-0.262 -0.208,-0.666 0,-0.366 0.091,-0.689 0.208,-0.737 0.167,-0.067 0.167,-0.086 0,-0.097 -0.129,-0.008 -0.208,-0.262 -0.208,-0.666 0,-0.359 0.093,-0.696 0.208,-0.75 0.167,-0.078 0.167,-0.116 0,-0.194 -0.115,-0.054 -0.208,-0.391 -0.208,-0.75 0,-0.41 0.077,-0.654 0.208,-0.656 0.129,-0.001 0.145,-0.049 0.042,-0.125 -0.496,-0.364 -0.656,-1.388 -0.785,-5.039 -0.074,-2.062 -0.205,-5.137 -0.294,-6.833 -0.088,-1.696 -0.224,-4.771 -0.303,-6.833 -0.082,-2.161 -0.226,-3.949 -0.339,-4.22 C 398.088,5.189 398,4.432 398,3.765 398,2.801 397.937,2.495 397.695,2.276 397.29,1.909 273.287,1.842 273.053,2.208 m 116.114,138.625 c -0.138,0.089 -0.521,0.163 -0.853,0.164 -0.331,0.002 -0.781,0.143 -1,0.313 -0.218,0.171 -0.559,0.361 -0.757,0.423 -0.387,0.122 -2.224,1.892 -2.224,2.144 0,0.084 -0.152,0.277 -0.338,0.43 -0.188,0.154 -0.383,0.572 -0.439,0.943 -0.056,0.367 -0.217,0.8 -0.359,0.964 -0.219,0.252 -0.498,1.392 -0.559,2.286 -0.043,0.625 0.412,2.624 0.704,3.098 0.179,0.289 0.325,0.644 0.325,0.791 0,0.146 0.144,0.343 0.319,0.437 0.176,0.094 0.367,0.385 0.425,0.647 0.174,0.793 1.859,2.134 3.172,2.524 0.367,0.109 0.892,0.28 1.167,0.381 0.825,0.301 3.044,0.352 3.468,0.079 0.201,-0.13 0.718,-0.355 1.149,-0.501 2.006,-0.676 3.132,-1.682 4.133,-3.694 l 0.917,-1.842 v -1.922 c 0,-1.742 -0.036,-1.968 -0.375,-2.4 -0.207,-0.262 -0.375,-0.606 -0.375,-0.764 0,-1.146 -3.773,-4.334 -5.129,-4.334 -0.193,0 -0.398,-0.075 -0.455,-0.167 -0.132,-0.213 -2.586,-0.213 -2.916,0 m 3.581,1.471 c 0.365,0.2 0.826,0.363 1.025,0.363 0.453,0 2.566,2.223 2.963,3.118 0.154,0.347 0.352,0.762 0.439,0.921 0.531,0.969 0.029,4.119 -0.885,5.562 -0.517,0.815 -2.022,2.232 -2.372,2.232 -0.145,0 -0.434,0.112 -0.644,0.249 -0.873,0.573 -3.25,0.881 -4.082,0.53 -0.335,-0.141 -0.872,-0.299 -1.193,-0.351 -0.756,-0.122 -2.647,-1.358 -2.835,-1.852 -0.08,-0.21 -0.252,-0.445 -0.381,-0.521 -0.13,-0.076 -0.325,-0.413 -0.434,-0.749 -0.109,-0.335 -0.312,-0.653 -0.45,-0.707 -0.356,-0.136 -0.308,-4.662 0.051,-4.96 0.13,-0.108 0.334,-0.427 0.455,-0.709 0.362,-0.85 2.638,-2.93 3.205,-2.93 0.263,0 0.74,-0.15 1.059,-0.334 0.815,-0.469 3.108,-0.391 4.079,0.138 m -5.29,2.034 c -0.492,0.301 -0.441,8.092 0.054,8.249 0.917,0.291 1.155,0.009 1.155,-1.371 0,-1.595 0.374,-2.182 1.138,-1.784 0.245,0.128 0.831,0.233 1.302,0.234 0.902,0.001 1.06,0.135 1.06,0.899 0,0.204 0.11,0.517 0.244,0.695 0.135,0.178 0.247,0.525 0.25,0.77 0.004,0.302 0.117,0.483 0.347,0.556 1.058,0.336 1.169,-2.095 0.135,-2.939 -0.307,-0.25 -0.521,-0.483 -0.475,-0.518 0.045,-0.035 0.288,-0.192 0.54,-0.35 0.276,-0.173 0.459,-0.434 0.46,-0.658 0,-0.204 0.113,-0.586 0.25,-0.848 0.512,-0.983 0.002,-2.211 -1.116,-2.687 -0.857,-0.364 -4.851,-0.55 -5.344,-0.248 m 3.471,0.929 c 2.471,0.804 1.958,3.171 -0.698,3.22 -1.188,0.022 -1.564,-0.431 -1.564,-1.882 0,-1.692 0.416,-1.938 2.262,-1.338 M 1.034,174.642 c -0.155,0.098 -0.201,0.53 -0.166,1.539 l 0.049,1.402 198.635,0.042 c 136.735,0.029 198.737,-0.012 198.959,-0.131 0.559,-0.299 0.474,-2.611 -0.105,-2.831 -0.53,-0.202 -397.054,-0.222 -397.372,-0.021 m 378.004,14.733 c -1.266,2.563 -1.637,3.544 -1.397,3.692 0.373,0.231 3.692,-3.037 3.692,-3.635 0,-0.623 -1.991,-0.672 -2.295,-0.057 m -172.208,3.943 c -0.136,0.054 -0.434,0.221 -0.663,0.372 -0.229,0.15 -0.68,0.32 -1,0.378 -0.568,0.103 -0.817,0.326 -1.959,1.757 -0.568,0.711 -0.7,3.694 -0.19,4.283 0.148,0.17 0.351,0.556 0.452,0.858 0.371,1.106 1.104,1.747 3.197,2.796 0.687,0.344 1.362,0.728 1.5,0.853 0.137,0.124 0.528,0.431 0.869,0.68 0.341,0.25 0.95,0.701 1.355,1.001 2.268,1.682 2.339,4.856 0.13,5.798 -0.858,0.366 -4.058,0.33 -4.652,-0.052 -0.72,-0.463 -2.369,-2.146 -2.369,-2.417 0,-0.136 -0.139,-0.426 -0.308,-0.644 -0.17,-0.219 -0.383,-0.623 -0.473,-0.898 -0.263,-0.803 -0.644,-0.642 -0.59,0.25 0.147,2.384 0.246,3.267 0.384,3.409 0.084,0.087 0.154,0.518 0.154,0.958 0,0.742 0.03,0.8 0.416,0.8 0.243,0 0.417,-0.096 0.417,-0.23 0,-0.487 0.454,-0.635 1.576,-0.515 0.916,0.098 1.091,0.168 1.091,0.431 0,0.295 0.167,0.314 2.75,0.314 2.124,0 2.75,-0.049 2.75,-0.213 0,-0.118 0.318,-0.324 0.708,-0.459 0.602,-0.208 0.84,-0.444 1.583,-1.569 l 0.875,-1.324 v -1.447 c 0,-1.47 -0.242,-2.4 -0.732,-2.806 -0.138,-0.115 -0.335,-0.465 -0.439,-0.779 -0.103,-0.313 -0.247,-0.57 -0.319,-0.57 -0.072,0 -0.4,-0.206 -0.73,-0.458 -1.494,-1.142 -3.585,-2.478 -4.421,-2.824 -2.559,-1.06 -3.824,-4.064 -2.313,-5.492 l 0.768,-0.726 h 1.271 c 2.115,0 4.646,1.598 4.999,3.156 0.192,0.846 1.019,1.64 1.358,1.304 0.264,-0.261 0.271,-0.365 0.074,-1 -0.121,-0.39 -0.283,-1.31 -0.36,-2.043 -0.313,-2.962 -0.534,-3.511 -1.08,-2.678 -0.352,0.537 -2.657,0.625 -4.028,0.154 -1.16,-0.398 -1.772,-0.52 -2.051,-0.408 m 75.503,0.07 c -0.229,0.121 -0.566,0.3 -0.75,0.398 -0.183,0.098 -0.52,0.261 -0.75,0.362 -0.229,0.1 -0.529,0.257 -0.666,0.347 -0.138,0.09 -0.513,0.281 -0.834,0.424 -1.326,0.593 -1.816,0.93 -2.162,1.491 -0.201,0.324 -0.492,0.684 -0.646,0.798 -0.484,0.359 -1.188,1.95 -1.298,2.933 -0.058,0.518 -0.161,1.017 -0.229,1.109 -0.399,0.54 -0.5,2.841 -0.188,4.25 0.112,0.504 0.271,1.274 0.354,1.712 0.083,0.437 0.305,0.991 0.493,1.23 0.189,0.24 0.343,0.527 0.343,0.637 0,0.404 1.726,2.325 2.647,2.947 0.785,0.53 2.326,1.141 2.879,1.141 0.169,0 0.307,0.075 0.307,0.166 0,0.104 0.889,0.167 2.334,0.167 1.444,0 2.333,-0.063 2.333,-0.167 0,-0.241 0.623,-0.205 0.723,0.042 0.053,0.132 0.089,0.108 0.097,-0.065 0.008,-0.16 0.303,-0.39 0.708,-0.552 1.099,-0.44 3.343,-2.409 3.56,-3.124 0.064,-0.211 0.249,-0.534 0.41,-0.717 1.285,-1.46 1.88,-7.301 0.903,-8.865 -0.126,-0.2 -0.308,-0.718 -0.405,-1.151 -0.106,-0.474 -0.425,-1.092 -0.802,-1.552 -0.344,-0.421 -0.755,-0.972 -0.914,-1.224 -0.158,-0.252 -0.388,-0.458 -0.511,-0.458 -0.123,0 -0.43,-0.163 -0.682,-0.361 -2.18,-1.714 -5.815,-2.675 -7.254,-1.918 m 45.827,-0.067 c -0.553,0.108 -1.934,0.676 -2.493,1.025 -0.138,0.086 -0.438,0.24 -0.667,0.343 -0.229,0.102 -0.604,0.27 -0.832,0.373 -0.737,0.333 -2.608,2.334 -2.838,3.035 -0.118,0.359 -0.309,0.803 -0.426,0.986 -0.117,0.184 -0.264,0.634 -0.327,1 -0.063,0.367 -0.218,0.833 -0.346,1.036 -0.337,0.539 -0.318,4.835 0.024,5.288 0.135,0.178 0.245,0.577 0.245,0.887 0,1.876 3.042,5.026 5.468,5.663 0.614,0.161 1.14,0.349 1.171,0.418 0.086,0.194 4.694,0.153 4.694,-0.042 0,-0.091 0.132,-0.167 0.292,-0.168 1.121,-0.006 4.322,-2.485 4.734,-3.667 0.095,-0.274 0.241,-0.498 0.323,-0.498 0.333,0 0.853,-1.495 1.148,-3.3 0.079,-0.486 0.238,-1.252 0.353,-1.702 0.158,-0.614 0.163,-0.92 0.023,-1.228 -0.102,-0.225 -0.24,-0.884 -0.305,-1.465 -0.065,-0.58 -0.214,-1.205 -0.33,-1.388 -0.117,-0.184 -0.266,-0.634 -0.331,-1 -0.207,-1.172 -1.616,-3.089 -2.456,-3.344 -0.202,-0.061 -0.517,-0.243 -0.701,-0.404 -0.318,-0.279 -0.895,-0.615 -1.708,-0.994 -0.206,-0.096 -0.544,-0.253 -0.75,-0.348 -0.206,-0.096 -0.562,-0.282 -0.792,-0.414 -0.438,-0.254 -2.103,-0.302 -3.173,-0.092 m -214.41,0.346 c -0.275,0.182 -0.655,0.331 -0.846,0.332 -0.431,0.001 -2.034,1.596 -2.343,2.331 -0.464,1.104 -0.152,3.861 0.529,4.67 0.115,0.137 0.326,0.531 0.468,0.875 0.142,0.344 0.365,0.625 0.494,0.625 0.13,0 0.436,0.157 0.68,0.349 0.245,0.192 0.948,0.615 1.564,0.94 0.617,0.325 1.177,0.687 1.247,0.805 0.069,0.117 0.355,0.264 0.636,0.325 0.281,0.062 0.552,0.22 0.602,0.353 0.051,0.132 0.44,0.478 0.864,0.77 2.163,1.489 2.745,4.082 1.231,5.486 -1.216,1.128 -4.854,1.159 -6.025,0.051 -0.239,-0.226 -0.661,-0.627 -0.939,-0.889 -0.277,-0.263 -0.746,-0.976 -1.043,-1.584 -0.45,-0.923 -0.608,-1.106 -0.954,-1.106 -0.467,0 -0.523,0.26 -0.16,0.74 0.175,0.231 0.245,0.768 0.245,1.865 0,0.848 0.075,1.588 0.167,1.645 0.091,0.057 0.166,0.361 0.166,0.677 0,0.662 0.717,0.872 0.877,0.257 0.1,-0.379 0.909,-0.591 1.644,-0.43 0.308,0.068 0.553,0.243 0.602,0.43 0.113,0.429 6.211,0.498 6.211,0.07 0,-0.135 0.243,-0.369 0.541,-0.521 0.695,-0.353 1.088,-0.77 1.376,-1.459 0.126,-0.303 0.347,-0.647 0.49,-0.766 0.36,-0.299 0.382,-4.032 0.025,-4.328 -0.128,-0.107 -0.473,-0.589 -0.765,-1.071 -0.322,-0.531 -0.822,-1.061 -1.27,-1.344 -0.406,-0.257 -0.809,-0.6 -0.896,-0.763 -0.088,-0.164 -0.356,-0.346 -0.597,-0.407 -0.241,-0.06 -0.636,-0.245 -0.879,-0.41 -1.217,-0.826 -1.808,-1.185 -1.951,-1.186 -0.352,-0.001 -1.593,-0.975 -2.054,-1.611 -1.687,-2.329 -0.709,-4.555 2.002,-4.555 0.71,0 1.336,0.072 1.39,0.16 0.055,0.088 0.506,0.289 1.004,0.446 0.914,0.288 2.217,1.84 2.885,3.436 0.345,0.826 1.145,0.493 0.956,-0.398 -0.065,-0.308 -0.174,-1.235 -0.242,-2.06 -0.192,-2.333 -0.265,-2.414 -2.172,-2.416 -1.569,-0.001 -3.334,-0.237 -3.883,-0.519 -0.485,-0.249 -1.35,-0.164 -1.877,0.185 m 46.596,0.562 c -0.282,0.492 -0.515,1.036 -0.518,1.208 -0.003,0.172 -0.19,0.613 -0.416,0.98 -0.226,0.366 -0.411,0.765 -0.411,0.885 -0.001,0.206 -0.648,1.736 -1.027,2.429 -0.095,0.174 -0.278,0.671 -0.407,1.105 -0.129,0.435 -0.347,0.884 -0.484,0.998 -0.137,0.114 -0.25,0.374 -0.25,0.578 0,0.205 -0.178,0.708 -0.397,1.119 -0.219,0.411 -0.453,1.004 -0.522,1.317 -0.068,0.313 -0.259,0.741 -0.424,0.951 -0.165,0.211 -0.352,0.624 -0.414,0.917 -0.063,0.294 -0.213,0.722 -0.332,0.951 -0.335,0.639 -0.853,1.854 -1.054,2.47 -0.1,0.305 -0.371,0.78 -0.602,1.055 -0.232,0.275 -0.421,0.562 -0.421,0.638 0,0.075 -0.225,0.216 -0.5,0.312 -0.442,0.154 -0.499,0.248 -0.487,0.808 0.007,0.348 0.051,0.54 0.097,0.425 0.047,-0.116 0.368,-0.208 0.723,-0.208 0.355,0 0.676,0.092 0.723,0.208 0.067,0.167 0.087,0.167 0.097,0 0.008,-0.129 0.262,-0.208 0.666,-0.208 0.366,0 0.69,0.091 0.737,0.208 0.067,0.167 0.087,0.167 0.097,0 0.007,-0.115 0.163,-0.208 0.347,-0.208 0.226,0 0.333,-0.111 0.333,-0.346 0,-0.541 0.561,-0.326 0.687,0.264 0.103,0.481 0.108,0.476 0.127,-0.127 0.017,-0.548 -0.028,-0.625 -0.368,-0.625 -0.585,0 -1.173,-0.71 -1.063,-1.282 0.2,-1.041 0.47,-1.926 0.691,-2.27 0.129,-0.2 0.286,-0.647 0.349,-0.992 0.224,-1.224 0.494,-1.302 4.305,-1.251 l 3.341,0.045 0.721,1.417 c 0.396,0.779 0.87,1.898 1.052,2.486 l 0.331,1.069 -0.366,0.389 c -0.201,0.214 -0.54,0.389 -0.753,0.389 -0.292,0 -0.386,0.092 -0.382,0.375 0.004,0.335 0.023,0.344 0.175,0.084 0.23,-0.397 0.653,-0.37 0.653,0.041 0,0.218 0.111,0.334 0.319,0.334 0.176,0 0.358,0.093 0.404,0.208 0.067,0.167 0.087,0.167 0.097,0 0.008,-0.129 0.262,-0.208 0.666,-0.208 0.366,0 0.69,0.091 0.737,0.208 0.067,0.167 0.087,0.167 0.097,0 0.008,-0.129 0.262,-0.208 0.666,-0.208 0.366,0 0.69,0.091 0.737,0.208 0.067,0.167 0.087,0.167 0.097,0 0.009,-0.134 0.281,-0.208 0.763,-0.208 0.479,0 0.757,0.075 0.77,0.208 0.011,0.115 0.067,-0.017 0.126,-0.292 0.167,-0.79 1.114,-0.827 1.317,-0.051 l 0.144,0.551 0.109,-0.541 c 0.11,-0.546 0.618,-0.785 0.618,-0.292 0,0.137 0.069,0.25 0.154,0.25 0.086,0 0.286,0.131 0.445,0.29 0.209,0.209 0.31,0.232 0.359,0.084 0.091,-0.272 1.322,-0.271 1.431,0.001 0.068,0.167 0.087,0.167 0.098,0 0.008,-0.129 0.261,-0.208 0.665,-0.208 0.367,0 0.69,0.091 0.737,0.208 0.068,0.167 0.087,0.167 0.098,0 0.008,-0.129 0.261,-0.208 0.665,-0.208 0.36,0 0.697,0.093 0.75,0.208 0.078,0.167 0.117,0.167 0.195,0 0.053,-0.115 0.385,-0.208 0.736,-0.208 0.355,0 0.676,0.092 0.723,0.208 0.067,0.167 0.087,0.167 0.097,0 0.008,-0.129 0.262,-0.208 0.666,-0.208 0.366,0 0.69,0.091 0.737,0.208 0.067,0.167 0.087,0.167 0.097,0 0.007,-0.115 0.182,-0.211 0.388,-0.214 0.207,-0.003 0.521,-0.115 0.699,-0.25 0.196,-0.148 0.695,-0.244 1.266,-0.244 0.716,0 1.011,-0.077 1.23,-0.319 0.159,-0.175 0.469,-0.363 0.691,-0.419 0.221,-0.056 0.722,-0.328 1.112,-0.604 0.391,-0.277 0.985,-0.685 1.321,-0.907 0.389,-0.257 0.649,-0.583 0.719,-0.899 0.06,-0.273 0.212,-0.581 0.337,-0.686 0.126,-0.104 0.276,-0.406 0.334,-0.67 0.059,-0.264 0.239,-0.653 0.402,-0.864 0.726,-0.94 1.271,-5.684 0.694,-6.041 -0.085,-0.052 -0.203,-0.338 -0.262,-0.635 -0.264,-1.321 -1.808,-4.102 -2.388,-4.301 -0.304,-0.104 -0.596,-0.301 -0.649,-0.438 -0.112,-0.292 -1.277,-0.835 -2.464,-1.149 -0.458,-0.121 -1.246,-0.33 -1.75,-0.463 -2.097,-0.554 -2.643,-0.605 -6.419,-0.605 h -3.914 v 0.4 c 0,0.281 0.174,0.503 0.583,0.744 l 0.583,0.344 v 8.319 c 0,9.607 0.193,8.716 -1.908,8.826 -1.817,0.096 -2.462,-0.117 -2.813,-0.93 -0.147,-0.341 -0.34,-0.733 -0.429,-0.87 -0.089,-0.138 -0.265,-0.475 -0.392,-0.75 -0.126,-0.275 -0.31,-0.65 -0.407,-0.833 -0.32,-0.6 -0.847,-1.825 -0.969,-2.25 -0.066,-0.229 -0.251,-0.642 -0.412,-0.917 -0.161,-0.275 -0.339,-0.75 -0.396,-1.055 -0.057,-0.306 -0.246,-0.736 -0.42,-0.957 -0.174,-0.221 -0.368,-0.684 -0.432,-1.028 -0.064,-0.345 -0.214,-0.739 -0.333,-0.877 -0.119,-0.137 -0.271,-0.437 -0.338,-0.666 -0.157,-0.535 -1.473,-3.659 -2.007,-4.767 -0.226,-0.467 -0.41,-1.001 -0.41,-1.186 0,-0.185 -0.14,-0.515 -0.311,-0.733 -0.17,-0.219 -0.363,-0.566 -0.428,-0.773 -0.189,-0.603 -0.534,-0.437 -1.082,0.521 m 229.985,-0.587 c -0.32,0.17 -0.862,0.361 -1.206,0.424 -0.344,0.064 -0.625,0.182 -0.625,0.262 0,0.081 -0.175,0.358 -0.39,0.618 -0.214,0.259 -0.524,0.883 -0.69,1.387 -0.165,0.505 -0.406,1.208 -0.534,1.563 -0.264,0.732 -0.151,1.982 0.207,2.279 0.123,0.102 0.312,0.46 0.42,0.797 0.251,0.784 0.594,1.176 1.321,1.51 0.638,0.293 1.286,0.728 1.952,1.31 0.236,0.206 0.521,0.375 0.634,0.375 0.112,0 0.66,0.356 1.218,0.791 0.921,0.72 1.835,1.392 2.285,1.681 1.723,1.106 1.574,4.6 -0.228,5.381 -1.007,0.436 -4.156,0.452 -4.826,0.025 -0.831,-0.531 -2.527,-2.577 -2.543,-3.067 -0.013,-0.398 -0.763,-1.561 -1.008,-1.561 -0.173,0 -0.224,0.196 -0.193,0.75 0.129,2.31 0.25,3.434 0.388,3.575 0.084,0.087 0.154,0.518 0.154,0.958 0,0.913 0.586,1.184 0.918,0.425 0.272,-0.62 2.582,-0.663 2.582,-0.049 v 0.424 h 2.732 c 2.254,0 2.748,-0.043 2.826,-0.246 0.052,-0.135 0.43,-0.33 0.841,-0.434 0.86,-0.216 2.009,-1.683 2.193,-2.799 0.055,-0.332 0.178,-0.811 0.275,-1.065 0.219,-0.575 0.076,-1.507 -0.363,-2.366 -0.186,-0.363 -0.339,-0.813 -0.341,-1 -0.006,-0.553 -1.253,-1.52 -5.83,-4.521 -2.321,-1.521 -2.435,-1.623 -2.877,-2.556 l -0.461,-0.972 0.355,-0.928 c 0.697,-1.821 2.239,-2.233 4.938,-1.321 1.522,0.514 1.795,0.797 2.639,2.731 0.596,1.367 0.802,1.604 1.148,1.317 0.32,-0.265 0.324,-0.955 0.008,-1.507 -0.139,-0.242 -0.241,-0.88 -0.244,-1.528 -0.008,-1.518 -0.509,-2.738 -1.014,-2.467 -0.567,0.303 -4.361,0.009 -4.587,-0.356 -0.161,-0.261 -1.473,-0.159 -2.074,0.16 M 2,194.092 c 0,0.327 0.132,0.48 0.572,0.664 0.858,0.358 0.838,0.208 0.945,6.994 0.122,7.785 0.143,7.908 1.623,9.663 0.581,0.69 1.143,1.254 1.25,1.255 0.533,0.002 1.443,0.374 1.443,0.59 0,0.204 0.53,0.242 3.334,0.242 2.876,0 3.333,-0.035 3.333,-0.254 0,-0.14 0.206,-0.332 0.458,-0.428 0.252,-0.095 0.609,-0.31 0.792,-0.477 0.183,-0.166 0.5,-0.353 0.703,-0.415 1.4,-0.424 1.74,-2.066 1.881,-9.093 0.131,-6.475 0.244,-7.379 0.997,-8 1.12,-0.923 0.777,-1.166 -1.641,-1.166 h -2.144 l 0.084,0.439 c 0.061,0.319 0.257,0.507 0.713,0.686 0.846,0.333 0.819,0.087 0.821,7.336 l 0.003,6.377 -0.535,0.947 c -0.964,1.709 -1.808,2.432 -3.013,2.584 -2.492,0.314 -2.829,0.33 -3.497,0.161 -0.388,-0.098 -0.898,-0.218 -1.134,-0.267 -0.673,-0.139 -1.931,-1.186 -2.058,-1.713 -0.062,-0.257 -0.178,-0.992 -0.258,-1.634 -0.08,-0.641 -0.223,-1.504 -0.318,-1.916 -0.098,-0.424 -0.176,-2.913 -0.18,-5.717 -0.008,-5.522 0.012,-5.639 1.063,-6.205 0.415,-0.223 0.596,-0.436 0.596,-0.7 v -0.378 H 4.917 2 v 0.425 m 20.167,-0.029 c 0,0.398 0.327,0.605 1.333,0.841 0.231,0.055 0.64,0.414 0.917,0.806 l 0.5,0.707 0.046,7.595 c 0.053,8.605 0.136,8.084 -1.315,8.278 -0.601,0.081 -0.655,0.117 -0.346,0.231 0.25,0.092 0.369,0.281 0.378,0.599 0.007,0.255 0.051,0.37 0.097,0.255 0.047,-0.116 0.368,-0.208 0.723,-0.208 0.351,0 0.683,0.093 0.736,0.208 0.078,0.167 0.117,0.167 0.195,0 0.053,-0.115 0.39,-0.208 0.75,-0.208 0.403,0 0.658,0.079 0.667,0.208 0.009,0.115 0.087,-0.04 0.174,-0.343 0.224,-0.775 1.165,-0.738 1.333,0.051 0.102,0.484 0.106,0.48 0.125,-0.125 l 0.02,-0.625 h -0.823 c -0.478,0 -0.878,-0.087 -0.952,-0.207 C 26.204,211.283 25.924,199 26.426,199 c 0.265,0 1.886,1.63 2.615,2.631 0.336,0.461 1.525,1.904 2.5,3.036 0.198,0.229 0.734,0.866 1.191,1.416 0.458,0.55 1.005,1.166 1.217,1.367 0.211,0.202 0.384,0.475 0.384,0.607 0,0.132 0.394,0.654 0.875,1.161 2.085,2.196 2.967,3.281 3.064,3.768 0.086,0.43 0.181,0.514 0.579,0.514 h 0.476 l 0.052,-8.042 c 0.061,-9.381 0.154,-10.32 1.07,-10.757 0.389,-0.186 0.551,-0.376 0.551,-0.649 0,-0.383 -0.012,-0.385 -2.178,-0.385 h -2.177 l 0.052,0.445 c 0.039,0.327 0.187,0.488 0.553,0.606 0.966,0.309 0.924,-0.01 0.877,6.749 -0.045,6.468 -0.124,7.14 -0.684,5.836 -0.131,-0.304 -0.546,-0.849 -0.924,-1.212 -0.377,-0.362 -0.686,-0.724 -0.686,-0.805 0,-0.08 -0.318,-0.473 -0.708,-0.873 -0.39,-0.4 -0.896,-1.006 -1.125,-1.346 -0.229,-0.341 -0.61,-0.813 -0.846,-1.051 -0.237,-0.238 -0.64,-0.751 -0.897,-1.141 -0.258,-0.39 -0.523,-0.708 -0.59,-0.708 -0.068,0 -0.326,-0.307 -0.573,-0.681 -0.415,-0.627 -0.974,-1.296 -2.983,-3.569 -0.405,-0.459 -0.787,-1 -0.85,-1.204 -0.333,-1.082 -5.094,-1.689 -5.094,-0.65 m 22.666,0.016 c 0,0.286 0.148,0.489 0.48,0.661 0.264,0.136 0.527,0.369 0.583,0.517 0.15,0.389 0.123,16.288 -0.027,16.524 -0.163,0.257 -0.946,0.552 -1.463,0.552 -0.362,0 -0.404,0.069 -0.386,0.625 0.019,0.603 0.023,0.608 0.126,0.127 0.114,-0.53 0.687,-0.816 0.687,-0.342 0,0.147 0.132,0.316 0.292,0.375 0.16,0.059 0.347,0.188 0.414,0.287 0.082,0.12 0.123,0.11 0.125,-0.03 0.002,-0.131 0.246,-0.208 0.655,-0.208 0.36,0 0.697,0.093 0.75,0.208 0.078,0.167 0.117,0.167 0.195,0 0.053,-0.115 0.391,-0.208 0.75,-0.208 0.41,0 0.654,0.077 0.655,0.208 0.002,0.14 0.043,0.15 0.125,0.03 0.068,-0.099 0.254,-0.228 0.414,-0.287 0.161,-0.059 0.292,-0.228 0.292,-0.375 0,-0.474 0.574,-0.188 0.687,0.342 0.059,0.274 0.116,0.367 0.127,0.207 0.01,-0.161 0.169,-0.442 0.353,-0.625 L 51,212.333 h -0.73 c -1.46,0 -1.604,-0.852 -1.604,-9.465 0.001,-7.502 0.033,-7.732 1.159,-8.198 0.365,-0.151 0.508,-0.322 0.508,-0.607 v -0.396 h -2.75 -2.75 v 0.412 m 8.5,-0.024 c 0,0.247 0.157,0.472 0.428,0.617 0.525,0.282 1.571,1.676 1.575,2.1 0.001,0.171 0.329,0.959 0.728,1.75 0.399,0.792 0.774,1.703 0.835,2.025 0.06,0.323 0.216,0.675 0.347,0.783 0.13,0.108 0.325,0.472 0.433,0.808 0.108,0.337 0.306,0.738 0.44,0.892 0.135,0.154 0.317,0.602 0.406,0.997 0.088,0.395 0.26,0.832 0.38,0.971 0.121,0.138 0.314,0.552 0.429,0.919 0.115,0.366 0.638,1.566 1.162,2.666 0.524,1.1 1.007,2.219 1.072,2.487 0.066,0.268 0.263,0.669 0.438,0.892 0.175,0.223 0.366,0.66 0.425,0.972 0.106,0.564 0.736,0.857 0.736,0.342 0,-0.123 0.15,-0.36 0.333,-0.526 0.183,-0.166 0.333,-0.466 0.333,-0.668 0,-0.201 0.179,-0.702 0.398,-1.113 0.218,-0.411 0.452,-1.004 0.518,-1.317 0.067,-0.313 0.221,-0.682 0.343,-0.821 0.122,-0.139 0.295,-0.576 0.383,-0.97 0.089,-0.395 0.272,-0.844 0.407,-0.998 0.135,-0.154 0.299,-0.467 0.366,-0.696 0.066,-0.229 0.219,-0.574 0.339,-0.765 0.121,-0.192 0.308,-0.68 0.416,-1.084 0.109,-0.404 0.441,-1.26 0.739,-1.901 0.299,-0.642 0.676,-1.579 0.838,-2.084 0.823,-2.55 2.494,-5.416 3.255,-5.583 0.612,-0.135 0.732,-0.313 0.5,-0.747 -0.167,-0.313 -0.343,-0.336 -2.508,-0.336 H 67.5 v 0.425 c 0,0.327 0.132,0.48 0.572,0.664 1.083,0.452 1.01,1.62 -0.273,4.411 -0.317,0.687 -0.63,1.469 -0.697,1.737 -0.068,0.267 -0.268,0.671 -0.446,0.897 -0.177,0.226 -0.325,0.607 -0.328,0.846 -0.003,0.24 -0.19,0.736 -0.416,1.103 -0.226,0.367 -0.411,0.78 -0.411,0.918 -0.001,0.138 -0.179,0.588 -0.396,1 -0.217,0.412 -0.449,0.936 -0.516,1.165 -0.175,0.608 -0.761,1.817 -0.931,1.922 -0.19,0.118 -0.88,-0.984 -1.153,-1.838 -0.116,-0.367 -0.343,-0.892 -0.503,-1.167 -0.161,-0.275 -0.337,-0.744 -0.393,-1.043 -0.056,-0.299 -0.246,-0.749 -0.423,-1 -0.177,-0.251 -0.368,-0.731 -0.425,-1.065 -0.057,-0.335 -0.214,-0.7 -0.349,-0.812 -0.135,-0.112 -0.247,-0.289 -0.248,-0.392 -0.002,-0.103 -0.272,-0.826 -0.601,-1.605 -0.329,-0.779 -0.663,-1.679 -0.742,-2 -0.646,-2.61 -0.637,-2.718 0.26,-3.093 0.447,-0.187 0.586,-0.342 0.586,-0.659 v -0.414 H 56.5 53.333 v 0.388 m 21.531,0.057 c 0.039,0.327 0.186,0.488 0.553,0.606 0.966,0.309 0.916,-0.163 0.916,8.782 0,9.218 0.088,8.569 -1.19,8.821 -0.4,0.078 -0.597,0.151 -0.439,0.161 0.172,0.011 0.349,0.233 0.443,0.56 0.086,0.298 0.163,0.448 0.171,0.333 0.01,-0.129 0.265,-0.208 0.668,-0.208 0.366,0 0.69,0.091 0.737,0.208 0.067,0.167 0.087,0.167 0.097,0 0.009,-0.133 0.279,-0.208 0.749,-0.208 0.433,0 0.771,0.085 0.821,0.208 0.067,0.167 0.086,0.167 0.097,0 0.008,-0.129 0.262,-0.208 0.666,-0.208 0.366,0 0.689,0.091 0.737,0.208 0.067,0.167 0.086,0.167 0.097,0 0.008,-0.129 0.262,-0.208 0.666,-0.208 0.366,0 0.689,0.091 0.737,0.208 0.067,0.167 0.086,0.167 0.097,0 0.008,-0.133 0.278,-0.208 0.749,-0.208 0.433,0 0.771,0.085 0.82,0.208 0.068,0.167 0.087,0.167 0.098,0 0.008,-0.129 0.261,-0.208 0.665,-0.208 0.367,0 0.69,0.091 0.737,0.208 0.068,0.167 0.087,0.167 0.098,0 0.008,-0.129 0.261,-0.208 0.665,-0.208 0.36,0 0.697,0.093 0.75,0.208 0.078,0.167 0.117,0.167 0.195,0 0.053,-0.115 0.382,-0.208 0.73,-0.208 1.563,0 1.745,-0.22 2.448,-2.956 0.157,-0.612 -0.082,-1.053 -0.329,-0.605 -0.226,0.411 -1.562,1.561 -1.813,1.561 -0.093,0 -0.391,0.187 -0.664,0.416 -0.537,0.452 -6.003,0.65 -7.042,0.254 l -0.427,-0.162 v -3.998 c 0,-4.818 -0.298,-4.398 3.059,-4.317 2.622,0.063 3.359,0.354 3.753,1.483 0.211,0.606 0.801,0.678 0.941,0.115 0.273,-1.093 0.006,-3.873 -0.377,-3.928 -0.28,-0.04 -0.462,0.096 -0.725,0.542 l -0.351,0.595 h -2.874 c -3.723,0 -3.426,0.326 -3.426,-3.772 0,-3.93 -0.388,-3.562 3.753,-3.562 h 3.353 l 0.557,0.497 c 0.326,0.291 0.682,0.856 0.862,1.366 0.793,2.253 1.455,1.219 0.904,-1.414 -0.368,-1.761 0.28,-1.615 -7.211,-1.615 h -6.574 l 0.053,0.445 m 16.803,-0.04 c 0,0.327 0.143,0.493 0.618,0.718 0.863,0.409 0.846,0.25 0.865,8.59 0.02,8.91 0.01,8.953 -1.925,8.953 -0.345,0 -0.389,0.075 -0.372,0.625 0.019,0.603 0.023,0.608 0.126,0.127 0.114,-0.53 0.688,-0.816 0.688,-0.342 0,0.147 0.131,0.316 0.291,0.375 0.161,0.059 0.347,0.188 0.414,0.287 0.083,0.12 0.124,0.11 0.125,-0.03 0.002,-0.131 0.246,-0.208 0.656,-0.208 0.366,0 0.689,0.091 0.737,0.208 0.067,0.167 0.086,0.167 0.097,0 0.008,-0.133 0.278,-0.208 0.749,-0.208 0.433,0 0.771,0.085 0.82,0.208 0.068,0.167 0.087,0.167 0.098,0 0.008,-0.13 0.264,-0.208 0.679,-0.208 0.415,0 0.673,0.079 0.682,0.208 0.008,0.115 0.084,-0.03 0.168,-0.321 0.085,-0.292 0.284,-0.564 0.444,-0.606 0.195,-0.051 0.153,-0.083 -0.127,-0.096 -0.776,-0.037 -1.441,-0.589 -1.557,-1.293 -0.198,-1.197 -0.127,-6.475 0.09,-6.692 0.435,-0.435 2.134,-0.144 2.134,0.365 0,0.121 0.562,0.917 1.25,1.768 0.687,0.851 1.25,1.646 1.25,1.765 0,0.119 0.135,0.314 0.301,0.434 0.166,0.12 0.538,0.565 0.828,0.989 0.289,0.425 0.631,0.812 0.76,0.862 0.129,0.049 0.285,0.291 0.347,0.537 0.113,0.453 1.46,1.913 1.765,1.913 0.091,0 0.171,0.131 0.178,0.292 0.008,0.174 0.047,0.207 0.098,0.083 0.046,-0.116 0.368,-0.208 0.723,-0.208 0.355,0 0.676,0.092 0.723,0.208 0.067,0.167 0.086,0.167 0.097,0 0.016,-0.251 1.346,-0.292 1.346,-0.042 0,0.092 0.075,0.167 0.167,0.167 0.092,0 0.167,-0.19 0.167,-0.422 0,-0.282 0.124,-0.472 0.375,-0.573 0.354,-0.142 0.347,-0.151 -0.108,-0.161 -0.288,-0.006 -0.759,-0.235 -1.167,-0.566 -0.376,-0.306 -0.806,-0.624 -0.956,-0.709 -0.303,-0.169 -0.977,-0.995 -2.427,-2.97 -0.532,-0.725 -1.295,-1.661 -1.695,-2.08 -0.572,-0.599 -1.152,-1.723 -1.187,-2.299 -10e-4,-0.016 0.413,-0.122 0.921,-0.236 2.71,-0.606 4.416,-4.774 2.826,-6.901 -1.941,-2.594 -2.384,-2.737 -8.874,-2.858 l -4.208,-0.079 v 0.426 m 32.666,-0.013 c 0,0.3 0.128,0.429 0.542,0.548 1.037,0.297 1.037,0.296 1.088,8.962 l 0.047,7.819 -0.453,0.473 c -0.374,0.391 -0.592,0.472 -1.255,0.472 H 123.5 l 0.015,0.625 0.015,0.625 0.159,-0.551 c 0.223,-0.775 1.165,-0.738 1.332,0.051 0.059,0.275 0.115,0.407 0.126,0.292 0.012,-0.132 0.289,-0.208 0.756,-0.208 0.433,0 0.771,0.085 0.82,0.208 0.067,0.167 0.087,0.167 0.097,0 0.008,-0.129 0.262,-0.208 0.666,-0.208 0.366,0 0.69,0.091 0.737,0.208 0.067,0.167 0.087,0.167 0.097,0 0.016,-0.251 1.347,-0.292 1.347,-0.042 0,0.092 0.075,0.167 0.166,0.167 0.092,0 0.167,-0.19 0.167,-0.422 0,-0.282 0.125,-0.472 0.375,-0.573 0.347,-0.139 0.336,-0.151 -0.138,-0.161 -1.467,-0.03 -1.57,-0.642 -1.57,-9.264 0,-8.251 -0.06,-7.852 1.259,-8.418 0.539,-0.231 0.715,-0.395 0.696,-0.652 -0.026,-0.334 -0.115,-0.343 -3.157,-0.343 h -3.132 v 0.392 m 10.167,0.02 c 0,0.289 0.149,0.489 0.498,0.67 0.303,0.157 0.536,0.435 0.596,0.712 0.055,0.251 0.17,0.644 0.257,0.874 0.182,0.488 0.11,13.654 -0.08,14.415 -0.068,0.275 -0.157,0.661 -0.197,0.858 -0.076,0.38 -0.791,0.717 -1.557,0.736 -0.425,0.01 -0.427,0.013 -0.059,0.161 0.251,0.101 0.375,0.291 0.375,0.573 0,0.232 0.075,0.422 0.167,0.422 0.092,0 0.167,-0.075 0.167,-0.167 0,-0.244 1.29,-0.205 1.389,0.042 0.068,0.167 0.087,0.167 0.098,0 0.008,-0.129 0.261,-0.208 0.665,-0.208 0.367,0 0.69,0.091 0.737,0.208 0.068,0.167 0.087,0.167 0.098,0 0.008,-0.129 0.261,-0.208 0.665,-0.208 0.36,0 0.697,0.093 0.75,0.208 0.078,0.167 0.117,0.167 0.195,0 0.053,-0.115 0.385,-0.208 0.736,-0.208 0.355,0 0.676,0.092 0.723,0.208 0.067,0.167 0.087,0.167 0.097,0 0.008,-0.129 0.262,-0.208 0.666,-0.208 0.366,0 0.69,0.091 0.737,0.208 0.067,0.167 0.087,0.167 0.097,0 0.008,-0.131 0.277,-0.211 0.722,-0.214 0.389,-0.003 0.896,-0.113 1.125,-0.244 0.229,-0.131 0.838,-0.241 1.354,-0.244 0.596,-0.004 1.009,-0.092 1.132,-0.24 0.107,-0.129 0.595,-0.43 1.085,-0.67 0.489,-0.239 1.171,-0.659 1.515,-0.932 0.345,-0.274 0.683,-0.498 0.753,-0.498 0.07,0 0.281,-0.243 0.469,-0.541 0.187,-0.298 0.606,-0.917 0.93,-1.375 0.325,-0.459 0.591,-1.026 0.592,-1.26 0.002,-0.235 0.113,-0.572 0.248,-0.75 0.353,-0.467 0.353,-4.847 0,-5.314 -0.135,-0.178 -0.245,-0.498 -0.245,-0.712 0,-1.499 -2.102,-4.549 -3.37,-4.891 -0.376,-0.101 -0.84,-0.283 -1.032,-0.404 -0.191,-0.121 -0.611,-0.273 -0.931,-0.338 -0.321,-0.065 -1.034,-0.253 -1.584,-0.417 -1.855,-0.552 -3.006,-0.664 -6.801,-0.664 H 134.5 v 0.412 m 90.705,0.614 c -0.266,0.586 -0.538,1.282 -0.604,1.548 -0.067,0.265 -0.267,0.667 -0.445,0.893 -0.177,0.226 -0.325,0.607 -0.328,0.847 -0.003,0.24 -0.19,0.736 -0.416,1.102 -0.226,0.367 -0.413,0.817 -0.416,1 -0.004,0.184 -0.191,0.634 -0.417,1 -0.226,0.367 -0.411,0.765 -0.411,0.886 -0.001,0.205 -0.648,1.736 -1.028,2.429 -0.094,0.173 -0.277,0.671 -0.406,1.105 -0.129,0.435 -0.347,0.884 -0.485,0.997 -0.137,0.114 -0.249,0.367 -0.25,0.562 0,0.195 -0.225,0.805 -0.499,1.355 -0.274,0.55 -0.499,1.134 -0.499,1.298 -0.002,0.691 -1.703,2.613 -2.326,2.629 -0.42,0.01 -0.421,0.012 -0.05,0.161 0.25,0.101 0.375,0.291 0.375,0.573 0,0.232 0.075,0.422 0.167,0.422 0.091,0 0.166,-0.075 0.166,-0.167 0,-0.244 1.29,-0.205 1.39,0.042 0.067,0.167 0.087,0.167 0.097,0 0.008,-0.13 0.265,-0.208 0.68,-0.208 0.414,0 0.672,0.079 0.682,0.208 0.008,0.115 0.084,-0.03 0.168,-0.321 0.084,-0.292 0.284,-0.564 0.443,-0.606 0.179,-0.047 0.117,-0.083 -0.162,-0.095 -0.781,-0.034 -1.054,-1.118 -0.53,-2.103 0.147,-0.275 0.379,-0.875 0.518,-1.333 0.138,-0.459 0.432,-1.19 0.652,-1.625 l 0.401,-0.792 h 3.308 c 3.647,0 4.007,0.094 4.262,1.109 0.061,0.247 0.257,0.633 0.435,0.859 0.178,0.226 0.323,0.555 0.323,0.731 0,0.177 0.193,0.729 0.428,1.227 0.497,1.051 0.431,1.474 -0.268,1.718 -0.87,0.303 -0.699,1.023 0.243,1.023 0.433,0 0.771,0.085 0.82,0.208 0.067,0.167 0.087,0.167 0.097,0 0.008,-0.129 0.262,-0.208 0.666,-0.208 0.366,0 0.69,0.091 0.737,0.208 0.067,0.167 0.087,0.167 0.097,0 0.008,-0.13 0.265,-0.208 0.68,-0.208 0.421,0 0.668,0.076 0.669,0.208 0.002,0.14 0.043,0.15 0.125,0.03 0.068,-0.099 0.254,-0.228 0.414,-0.287 0.161,-0.059 0.292,-0.222 0.292,-0.363 0,-0.462 0.512,-0.266 0.743,0.285 l 0.227,0.54 0.057,-0.498 c 0.09,-0.793 1.059,-0.831 1.284,-0.05 0.087,0.303 0.166,0.458 0.174,0.343 0.009,-0.129 0.265,-0.208 0.668,-0.208 0.359,0 0.696,0.093 0.75,0.208 0.078,0.167 0.116,0.167 0.194,0 0.054,-0.115 0.391,-0.208 0.75,-0.208 0.41,0 0.654,0.077 0.656,0.208 0.001,0.14 0.042,0.15 0.125,0.03 0.067,-0.099 0.253,-0.228 0.414,-0.287 0.16,-0.059 0.291,-0.228 0.291,-0.375 0,-0.474 0.574,-0.188 0.688,0.342 0.103,0.481 0.107,0.476 0.126,-0.127 0.018,-0.564 -0.022,-0.625 -0.405,-0.625 -0.745,0 -1.384,-0.447 -1.491,-1.042 -0.253,-1.411 -0.009,-12.535 0.276,-12.59 0.159,-0.03 0.321,0.084 0.379,0.266 0.056,0.175 0.42,0.648 0.81,1.051 0.39,0.403 0.835,0.93 0.989,1.172 0.153,0.242 0.695,0.89 1.204,1.439 0.508,0.549 0.924,1.054 0.924,1.121 0,0.067 0.418,0.574 0.929,1.125 0.511,0.552 1.109,1.289 1.329,1.637 0.22,0.348 0.497,0.694 0.616,0.769 0.12,0.074 0.36,0.361 0.535,0.636 0.174,0.275 0.716,0.897 1.204,1.382 0.488,0.485 0.887,0.991 0.887,1.125 0,0.133 0.448,0.691 0.996,1.238 0.548,0.548 1.043,1.186 1.101,1.417 0.077,0.303 0.217,0.421 0.505,0.421 h 0.398 v -8.672 c 0,-9.62 -0.012,-9.499 1.059,-10.076 1.388,-0.748 0.903,-1.085 -1.559,-1.085 h -2.166 v 0.414 c 0,0.314 0.137,0.472 0.57,0.653 0.926,0.387 0.93,0.415 0.93,6.755 0,6.881 -0.068,6.991 -2.334,3.766 -0.229,-0.326 -0.735,-0.937 -1.125,-1.358 -0.389,-0.421 -0.709,-0.814 -0.71,-0.873 -10e-4,-0.059 -0.376,-0.5 -0.833,-0.98 -0.457,-0.48 -0.832,-0.971 -0.832,-1.091 0,-0.119 -0.337,-0.548 -0.75,-0.953 -0.412,-0.405 -0.75,-0.804 -0.75,-0.887 0,-0.084 -0.418,-0.603 -0.929,-1.155 -0.511,-0.552 -1.103,-1.275 -1.316,-1.606 -0.213,-0.331 -0.526,-0.725 -0.696,-0.875 -0.17,-0.151 -0.513,-0.572 -0.762,-0.937 -0.548,-0.801 -0.83,-0.873 -3.401,-0.873 -1.876,0 -1.896,0.004 -1.896,0.39 0,0.44 0.568,0.776 1.31,0.776 0.511,0 1.152,0.585 1.588,1.45 0.236,0.467 0.269,1.457 0.269,7.967 v 7.433 l -0.708,0.321 c -1.596,0.725 -4.292,0.273 -4.292,-0.719 0,-0.212 -0.562,-1.496 -1.25,-2.852 -0.687,-1.356 -1.25,-2.636 -1.25,-2.846 0,-0.209 -0.109,-0.47 -0.241,-0.58 -0.133,-0.11 -0.329,-0.476 -0.436,-0.812 -0.106,-0.336 -0.326,-0.912 -0.489,-1.278 -0.163,-0.367 -0.379,-0.854 -0.48,-1.084 -0.102,-0.229 -0.254,-0.529 -0.34,-0.666 -0.335,-0.543 -0.847,-1.689 -0.847,-1.897 0,-0.121 -0.178,-0.555 -0.396,-0.965 -0.218,-0.409 -0.449,-0.926 -0.513,-1.149 -0.24,-0.828 -1.271,-2.777 -1.664,-3.146 l -0.407,-0.382 -0.482,1.065 m 32.874,-0.794 c -0.23,0.168 -0.356,0.551 -0.453,1.375 -0.075,0.629 -0.173,1.443 -0.219,1.809 -0.158,1.253 0.501,1.465 0.7,0.225 0.221,-1.382 2.143,-2.428 4.529,-2.464 1.479,-0.022 1.364,-0.735 1.364,8.464 v 8.13 l -0.467,0.447 c -0.356,0.341 -0.635,0.448 -1.167,0.448 h -0.699 l 0.333,0.334 c 0.183,0.183 0.342,0.464 0.353,0.625 0.011,0.16 0.068,0.067 0.126,-0.207 0.114,-0.53 0.688,-0.816 0.688,-0.342 0,0.147 0.131,0.316 0.291,0.375 0.161,0.059 0.347,0.188 0.414,0.287 0.083,0.12 0.124,0.11 0.125,-0.03 0.002,-0.131 0.246,-0.208 0.656,-0.208 0.359,0 0.696,0.093 0.75,0.208 0.078,0.167 0.116,0.167 0.194,0 0.054,-0.115 0.391,-0.208 0.75,-0.208 0.41,0 0.654,0.077 0.656,0.208 0.001,0.14 0.042,0.15 0.125,0.03 0.067,-0.099 0.253,-0.228 0.414,-0.287 0.16,-0.059 0.291,-0.228 0.291,-0.375 0,-0.474 0.574,-0.188 0.688,0.342 0.103,0.481 0.107,0.476 0.126,-0.127 0.018,-0.579 -0.015,-0.625 -0.451,-0.625 -1.347,0 -1.417,-0.472 -1.433,-9.666 l -0.013,-7.75 0.917,-0.056 c 2.519,-0.155 4.993,1.01 5.001,2.355 0,0.11 0.143,0.416 0.316,0.679 l 0.316,0.479 0.204,-0.381 c 0.344,-0.644 -0.107,-3.746 -0.597,-4.104 -0.458,-0.335 -14.369,-0.325 -14.828,0.01 m 45.197,0.072 c -0.176,0.195 -0.278,0.602 -0.281,1.125 -0.003,0.456 -0.114,0.965 -0.25,1.144 -0.306,0.404 -0.306,1.212 -0.002,1.76 l 0.232,0.417 0.179,-0.47 c 0.099,-0.258 0.179,-0.604 0.179,-0.769 0,-0.739 1.428,-1.885 2.586,-2.075 1.589,-0.26 2.548,-0.299 2.891,-0.115 l 0.357,0.19 v 8.215 8.216 l -0.386,0.362 c -0.284,0.267 -0.603,0.365 -1.208,0.373 -0.662,0.008 -0.75,0.04 -0.448,0.161 0.256,0.103 0.38,0.298 0.39,0.615 0.015,0.459 0.017,0.458 0.171,-0.078 0.158,-0.545 0.647,-0.762 0.647,-0.287 0,0.141 0.132,0.304 0.292,0.363 0.16,0.059 0.354,0.188 0.429,0.287 0.096,0.124 0.164,0.115 0.223,-0.03 0.047,-0.116 0.368,-0.208 0.723,-0.208 0.355,0 0.676,0.092 0.723,0.208 0.067,0.167 0.087,0.167 0.097,0 0.008,-0.13 0.265,-0.208 0.68,-0.208 0.421,0 0.668,0.076 0.669,0.208 0.002,0.14 0.043,0.15 0.125,0.03 0.068,-0.099 0.254,-0.228 0.414,-0.287 0.161,-0.059 0.292,-0.228 0.292,-0.375 0,-0.474 0.574,-0.188 0.687,0.342 0.103,0.481 0.108,0.476 0.127,-0.127 0.018,-0.58 -0.015,-0.625 -0.455,-0.625 -0.592,0 -1.024,-0.459 -1.031,-1.096 -0.003,-0.268 -0.115,-0.633 -0.25,-0.811 -0.328,-0.433 -0.37,-15.067 -0.045,-15.393 0.479,-0.478 3.859,-0.037 4.789,0.626 0.287,0.204 0.723,0.821 1.02,1.442 0.656,1.374 0.913,1.317 0.891,-0.199 -0.022,-1.507 -0.216,-2.582 -0.531,-2.944 -0.4,-0.46 -14.509,-0.447 -14.926,0.013 m 37.06,0.071 c 0.002,0.276 0.04,0.315 0.147,0.147 0.079,-0.126 0.247,-0.293 0.372,-0.373 0.168,-0.106 0.13,-0.145 -0.147,-0.147 -0.279,-0.002 -0.374,0.093 -0.372,0.373 m 0.831,-0.008 c 0,0.202 0.243,0.618 0.541,0.926 l 0.542,0.558 0.048,7.866 c 0.057,9.369 0.131,8.949 -1.573,8.949 -0.345,0 -0.389,0.075 -0.372,0.625 0.019,0.603 0.023,0.608 0.126,0.127 0.114,-0.53 0.688,-0.816 0.688,-0.342 0,0.147 0.131,0.316 0.291,0.375 0.161,0.059 0.347,0.188 0.414,0.287 0.083,0.12 0.124,0.11 0.125,-0.03 0.002,-0.131 0.246,-0.208 0.656,-0.208 0.366,0 0.689,0.091 0.737,0.208 0.067,0.167 0.086,0.167 0.097,0 0.007,-0.115 0.163,-0.208 0.346,-0.208 0.223,0 0.334,-0.111 0.334,-0.334 0,-0.527 0.491,-0.391 0.751,0.209 l 0.236,0.541 0.006,-0.463 c 0.005,-0.322 0.122,-0.51 0.382,-0.615 0.298,-0.12 0.197,-0.153 -0.49,-0.161 -1.372,-0.017 -1.417,-0.252 -1.498,-7.897 l -0.062,-5.803 0.446,0.053 c 0.352,0.042 0.495,0.193 0.673,0.709 0.124,0.36 0.338,0.779 0.474,0.929 0.137,0.151 0.248,0.414 0.248,0.583 0,0.17 0.516,1.364 1.147,2.654 0.631,1.29 1.198,2.583 1.261,2.875 0.063,0.291 0.217,0.616 0.344,0.721 0.126,0.105 0.356,0.569 0.509,1.03 0.153,0.462 0.382,1.037 0.508,1.279 0.126,0.242 0.23,0.523 0.23,0.626 0.001,0.102 0.14,0.364 0.31,0.583 0.17,0.218 0.397,0.666 0.504,0.995 0.107,0.328 0.404,0.798 0.659,1.042 l 0.465,0.445 0.43,-0.459 c 0.41,-0.438 1.777,-3.137 2.217,-4.379 0.114,-0.322 0.367,-0.884 0.562,-1.247 0.195,-0.364 0.354,-0.732 0.354,-0.817 0,-0.086 0.12,-0.288 0.265,-0.449 0.146,-0.161 0.336,-0.609 0.423,-0.995 0.087,-0.386 0.305,-0.889 0.485,-1.117 0.18,-0.229 0.327,-0.546 0.327,-0.705 0,-0.159 0.146,-0.473 0.323,-0.699 0.178,-0.226 0.373,-0.63 0.433,-0.897 0.26,-1.152 1.149,-2.737 1.536,-2.737 H 359 v 5.615 c 0,7.556 -0.112,8.02 -1.953,8.062 -0.444,0.01 -0.448,0.017 -0.089,0.161 0.251,0.101 0.375,0.291 0.375,0.573 0,0.232 0.075,0.422 0.167,0.422 0.092,0 0.167,-0.075 0.167,-0.167 0,-0.244 1.29,-0.205 1.389,0.042 0.068,0.167 0.087,0.167 0.098,0 0.008,-0.129 0.261,-0.208 0.665,-0.208 0.367,0 0.69,0.091 0.737,0.208 0.068,0.167 0.087,0.167 0.098,0 0.016,-0.261 1.513,-0.29 1.513,-0.03 0,0.098 0.118,0.061 0.262,-0.083 0.144,-0.144 0.331,-0.262 0.416,-0.262 0.085,0 0.155,-0.113 0.155,-0.25 0,-0.476 0.491,-0.25 0.632,0.292 l 0.141,0.541 0.112,-0.552 c 0.157,-0.781 1.134,-0.742 1.303,0.052 0.058,0.275 0.115,0.407 0.126,0.292 0.012,-0.132 0.288,-0.208 0.755,-0.208 0.433,0 0.771,0.085 0.821,0.208 0.067,0.167 0.086,0.167 0.097,0 0.008,-0.13 0.264,-0.208 0.68,-0.208 0.421,0 0.667,0.076 0.669,0.208 0.002,0.14 0.043,0.15 0.125,0.03 0.067,-0.099 0.254,-0.228 0.414,-0.287 0.16,-0.059 0.292,-0.228 0.292,-0.375 0,-0.474 0.573,-0.188 0.687,0.342 0.103,0.481 0.107,0.476 0.126,-0.127 0.017,-0.533 -0.032,-0.625 -0.335,-0.625 -1.108,0 -1.617,-0.741 -1.145,-1.666 0.183,-0.36 0.333,-0.779 0.333,-0.932 0,-0.154 0.141,-0.513 0.313,-0.799 0.173,-0.285 0.363,-0.797 0.423,-1.137 0.218,-1.225 0.515,-1.312 4.318,-1.261 l 3.333,0.045 0.718,1.417 c 0.395,0.779 0.867,1.903 1.049,2.497 l 0.331,1.081 -0.355,0.378 c -0.195,0.207 -0.529,0.377 -0.742,0.377 -0.254,0 -0.388,0.098 -0.388,0.284 0,0.22 0.045,0.239 0.2,0.083 0.274,-0.274 0.467,-0.251 0.467,0.055 0,0.141 0.131,0.304 0.292,0.363 0.16,0.059 0.353,0.188 0.429,0.287 0.096,0.124 0.164,0.115 0.222,-0.03 0.047,-0.116 0.369,-0.208 0.724,-0.208 0.355,0 0.676,0.092 0.723,0.208 0.067,0.167 0.086,0.167 0.097,0 0.008,-0.129 0.262,-0.208 0.666,-0.208 0.366,0 0.689,0.091 0.737,0.208 0.067,0.167 0.086,0.167 0.097,0 0.007,-0.115 0.163,-0.208 0.346,-0.208 0.226,0 0.334,-0.111 0.334,-0.346 0,-0.541 0.561,-0.326 0.687,0.264 0.104,0.486 0.107,0.483 0.126,-0.116 0.018,-0.549 -0.027,-0.619 -0.433,-0.666 -0.476,-0.056 -0.613,-0.249 -1.216,-1.72 -0.189,-0.458 -0.416,-0.946 -0.507,-1.083 -0.09,-0.138 -0.277,-0.513 -0.415,-0.833 -0.138,-0.321 -0.324,-0.696 -0.413,-0.834 -0.297,-0.455 -0.939,-1.91 -1.229,-2.782 -0.157,-0.472 -0.394,-0.949 -0.526,-1.059 -0.133,-0.11 -0.241,-0.379 -0.241,-0.598 0,-0.219 -0.375,-1.109 -0.833,-1.977 -0.459,-0.869 -0.834,-1.758 -0.834,-1.978 0,-0.219 -0.108,-0.488 -0.241,-0.598 -0.132,-0.11 -0.368,-0.588 -0.524,-1.062 -0.155,-0.474 -0.384,-1.01 -0.509,-1.191 -0.124,-0.181 -0.226,-0.452 -0.226,-0.603 0,-0.15 -0.139,-0.452 -0.309,-0.671 -0.17,-0.218 -0.401,-0.679 -0.513,-1.022 -0.112,-0.344 -0.265,-0.625 -0.34,-0.625 -0.266,0 -1.171,1.183 -1.171,1.53 0,0.194 -0.184,0.736 -0.41,1.203 -0.534,1.108 -1.85,4.232 -2.007,4.767 -0.067,0.229 -0.218,0.529 -0.334,0.666 -0.117,0.138 -0.266,0.506 -0.333,0.819 -0.067,0.313 -0.3,0.906 -0.519,1.317 -0.218,0.411 -0.397,0.859 -0.397,0.994 0,0.136 -0.141,0.482 -0.314,0.767 -0.173,0.286 -0.369,0.708 -0.436,0.937 -0.128,0.443 -0.305,0.871 -0.964,2.333 -0.227,0.504 -0.47,1.104 -0.539,1.333 -0.069,0.23 -0.303,0.629 -0.52,0.888 -0.216,0.259 -0.394,0.533 -0.394,0.609 0,0.49 -2.983,0.693 -3.821,0.259 -0.695,-0.359 -0.679,-0.138 -0.679,-8.939 v -8.155 l 0.584,-0.279 c 1.261,-0.601 0.83,-1.049 -1.009,-1.049 -1.926,0 -2.458,0.217 -2.749,1.122 -0.11,0.345 -0.295,0.74 -0.41,0.878 -0.115,0.137 -0.265,0.437 -0.332,0.666 -0.068,0.23 -0.226,0.535 -0.352,0.679 -0.126,0.144 -0.372,0.669 -0.546,1.166 -0.334,0.956 -0.903,2.236 -1.18,2.655 -0.09,0.138 -0.277,0.513 -0.415,0.834 -0.138,0.32 -0.325,0.695 -0.415,0.833 -0.219,0.333 -0.842,1.779 -0.842,1.953 0,0.234 -1.669,3.448 -1.924,3.706 -0.21,0.212 -0.271,0.202 -0.489,-0.083 -0.288,-0.375 -1.754,-3.274 -1.754,-3.468 0,-0.152 -0.783,-1.912 -1.011,-2.275 -0.087,-0.137 -0.241,-0.437 -0.341,-0.666 -0.101,-0.229 -0.263,-0.567 -0.359,-0.75 -0.704,-1.343 -1.122,-2.257 -1.122,-2.451 0,-0.233 -1.146,-2.617 -1.425,-2.966 -0.11,-0.138 -0.287,-0.52 -0.392,-0.85 -0.26,-0.809 -0.722,-0.983 -2.608,-0.983 -1.512,0 -1.575,0.014 -1.575,0.367 m -55.894,0.548 c 0.262,0.137 0.634,0.25 0.827,0.25 0.882,0.003 3.057,2.148 3.245,3.2 0.07,0.395 0.246,1.243 0.391,1.885 0.478,2.112 0.375,7.328 -0.17,8.63 -1.165,2.785 -2.541,3.786 -5.201,3.786 -3.099,0 -3.797,-0.436 -5.341,-3.333 -1.206,-2.264 -1.42,-8.384 -0.356,-10.167 0.083,-0.137 0.423,-0.791 0.758,-1.453 0.771,-1.524 1.758,-2.465 2.758,-2.63 0.403,-0.067 0.845,-0.185 0.983,-0.264 0.4,-0.228 1.587,-0.174 2.106,0.096 m 45.56,0.078 c 1.78,0.641 3.479,2.163 3.701,3.314 0.187,0.976 0.427,2.058 0.616,2.776 0.097,0.367 0.177,0.933 0.179,1.258 0.003,0.326 0.087,0.674 0.187,0.775 0.184,0.183 0.177,0.319 -0.163,3.467 -0.514,4.748 -3.976,7.165 -8.31,5.799 -1.09,-0.344 -2.272,-1.621 -2.693,-2.911 -0.11,-0.336 -0.309,-0.702 -0.442,-0.812 -0.133,-0.11 -0.241,-0.461 -0.241,-0.78 0,-0.318 -0.117,-0.824 -0.259,-1.123 -0.577,-1.217 -0.155,-6.597 0.61,-7.764 0.147,-0.225 0.323,-0.585 0.391,-0.8 0.141,-0.445 0.998,-1.762 1.502,-2.309 0.831,-0.901 3.535,-1.39 4.922,-0.89 m -186.709,0.615 c 4.555,1.557 6.603,7.847 4.17,12.808 -0.331,0.675 -2.567,3.084 -2.862,3.084 -0.088,0 -0.34,0.168 -0.559,0.375 -0.512,0.481 -5.474,0.689 -5.843,0.245 -0.151,-0.183 -0.189,-2.216 -0.157,-8.306 l 0.044,-8.064 0.583,-0.292 c 0.932,-0.465 3.021,-0.397 4.624,0.15 m 38.141,-0.015 c 3.031,0.964 5.066,4.214 5.105,8.157 0.012,1.159 -0.233,2.819 -0.472,3.202 -0.127,0.203 -0.231,0.513 -0.231,0.688 0,0.883 -0.753,1.801 -3.554,4.335 -0.371,0.336 -5.216,0.504 -5.99,0.208 l -0.46,-0.176 0.044,-8.045 0.043,-8.046 0.744,-0.375 c 1.076,-0.542 2.965,-0.522 4.771,0.052 m -82.307,0.239 c 0.378,0.182 0.735,0.409 0.793,0.502 0.058,0.094 0.358,0.276 0.667,0.406 1.111,0.464 1.103,3.709 -0.011,5.024 -1.184,1.397 -1.365,1.478 -3.397,1.542 l -1.801,0.055 -0.188,-0.539 c -0.246,-0.705 -0.249,-6.095 -0.005,-6.797 l 0.183,-0.525 h 1.536 c 1.193,0 1.689,0.074 2.223,0.332 m 60.872,3.788 c 0.003,0.18 0.401,1.076 0.859,1.934 0.09,0.167 0.316,0.8 0.503,1.405 0.187,0.606 0.456,1.278 0.598,1.495 0.203,0.31 0.218,0.478 0.071,0.802 l -0.187,0.41 h -2.754 -2.753 v -0.437 c 0,-0.24 0.368,-1.196 0.818,-2.125 0.449,-0.928 0.908,-1.978 1.02,-2.334 0.111,-0.355 0.429,-0.983 0.707,-1.395 l 0.506,-0.749 0.304,0.395 c 0.167,0.217 0.306,0.487 0.308,0.599 m 213.682,0.171 c 0.281,0.619 0.65,1.425 0.819,1.792 0.169,0.367 0.418,1.042 0.554,1.5 0.137,0.458 0.362,1.049 0.502,1.313 0.569,1.075 0.33,1.181 -2.781,1.233 l -2.773,0.045 v -0.431 c 0,-0.237 0.364,-1.195 0.809,-2.129 0.445,-0.934 0.904,-1.988 1.02,-2.344 0.195,-0.597 1.102,-2.104 1.267,-2.104 0.039,0 0.302,0.507 0.583,1.125 m -148.448,0 c 0.134,0.436 0.399,1.089 0.59,1.452 0.19,0.363 0.346,0.823 0.346,1.021 0,0.199 0.107,0.451 0.239,0.56 0.228,0.189 0.522,1.142 0.71,2.301 l 0.087,0.541 h -2.773 c -3.285,0 -3.651,-0.235 -2.568,-1.647 0.168,-0.219 0.305,-0.527 0.305,-0.686 0,-0.159 0.145,-0.473 0.323,-0.699 0.178,-0.226 0.372,-0.63 0.433,-0.897 0.545,-2.419 1.829,-3.502 2.308,-1.946"
       inkscape:connector-curvature="0"
       style="fill:#11473f;fill-rule:evenodd;stroke:none" />
  </g>
</svg>
