<svg id="svg" version="1.1" width="400" height="400" xmlns="http://www.w3.org/2000/svg" xmlns:xlink="http://www.w3.org/1999/xlink" style="display: block;"><g id="svgg"><path id="path0" d="M0.000 61.500 L 0.000 123.000 200.000 123.000 L 400.000 123.000 400.000 61.500 L 400.000 0.000 200.000 0.000 L 0.000 0.000 0.000 61.500 M0.073 234.750 C 0.144 322.451,0.489 334.996,2.846 335.782 C 3.481 335.994,4.000 337.479,4.000 339.083 C 4.000 341.009,4.510 342.000,5.500 342.000 C 6.433 342.000,7.000 342.944,7.000 344.500 C 7.000 345.875,7.450 347.000,8.000 347.000 C 8.550 347.000,9.000 348.139,9.000 349.531 C 9.000 350.924,9.675 352.322,10.500 352.638 C 11.325 352.955,12.000 354.291,12.000 355.607 C 12.000 357.067,12.585 358.000,13.500 358.000 C 14.325 358.000,15.000 358.675,15.000 359.500 C 15.000 360.325,15.565 361.000,16.256 361.000 C 16.947 361.000,18.153 362.462,18.936 364.250 C 20.723 368.326,32.244 380.000,34.479 380.000 C 36.352 380.000,39.000 382.301,39.000 383.929 C 39.000 384.518,39.627 385.000,40.393 385.000 C 41.159 385.000,42.045 385.675,42.362 386.500 C 42.678 387.325,43.658 388.000,44.540 388.000 C 45.422 388.000,46.818 388.675,47.643 389.500 C 48.468 390.325,50.011 391.000,51.071 391.000 C 52.132 391.000,53.000 391.450,53.000 392.000 C 53.000 392.550,54.125 393.000,55.500 393.000 C 57.056 393.000,58.000 393.567,58.000 394.500 C 58.000 395.559,59.071 396.000,61.640 396.000 C 63.952 396.000,65.746 396.638,66.559 397.750 C 68.547 400.468,331.453 400.468,333.441 397.750 C 334.254 396.638,336.048 396.000,338.360 396.000 C 340.929 396.000,342.000 395.559,342.000 394.500 C 342.000 393.567,342.944 393.000,344.500 393.000 C 345.875 393.000,347.000 392.586,347.000 392.079 C 347.000 391.573,348.350 390.862,350.000 390.500 C 351.650 390.138,353.000 389.499,353.000 389.081 C 353.000 388.664,354.795 387.462,356.989 386.411 C 359.182 385.360,360.982 384.130,360.989 383.679 C 361.007 382.385,363.391 380.328,365.736 379.584 C 368.515 378.702,378.702 368.515,379.584 365.736 C 380.384 363.215,382.416 361.000,383.929 361.000 C 384.518 361.000,385.000 360.325,385.000 359.500 C 385.000 358.675,385.420 358.000,385.933 358.000 C 386.446 358.000,387.180 357.008,387.565 355.797 C 387.949 354.585,388.879 352.978,389.632 352.225 C 390.384 351.473,391.000 349.989,391.000 348.929 C 391.000 347.868,391.450 347.000,392.000 347.000 C 392.550 347.000,393.000 345.875,393.000 344.500 C 393.000 342.944,393.567 342.000,394.500 342.000 C 395.583 342.000,396.000 340.889,396.000 338.000 C 396.000 335.298,396.440 334.000,397.358 334.000 C 399.742 334.000,400.000 324.181,400.000 233.353 L 400.000 145.000 332.000 145.000 L 264.000 145.000 264.000 222.000 L 264.000 299.000 200.000 299.000 L 136.000 299.000 136.000 222.000 L 136.000 145.000 68.000 145.000 L 0.000 145.000 0.073 234.750 " stroke="none" fill="#000000" fill-rule="evenodd"></path></g></svg>