<?xml version="1.0" encoding="UTF-8" standalone="no"?>
<!-- Generator: Adobe Illustrator 15.1.0, SVG Export Plug-In . SVG Version: 6.00 Build 0)  -->

<svg
   xmlns:dc="http://purl.org/dc/elements/1.1/"
   xmlns:cc="http://creativecommons.org/ns#"
   xmlns:rdf="http://www.w3.org/1999/02/22-rdf-syntax-ns#"
   xmlns:svg="http://www.w3.org/2000/svg"
   xmlns="http://www.w3.org/2000/svg"
   xmlns:sodipodi="http://sodipodi.sourceforge.net/DTD/sodipodi-0.dtd"
   xmlns:inkscape="http://www.inkscape.org/namespaces/inkscape"
   version="1.1"
   id="Capa_1"
   x="0px"
   y="0px"
   width="129.101"
   height="129.302"
   viewBox="0 0 129.101 129.302"
   enable-background="new 0 0 300 300"
   xml:space="preserve"
   sodipodi:docname="utal.svg"
   inkscape:version="0.92.1 r15371"
   inkscape:export-filename="D:\Documents\Visual Studio 2017\Projects\BiblioMit\BiblioMit\wwwroot\images\ico\utal.png"
   inkscape:export-xdpi="109.839"
   inkscape:export-ydpi="109.839"><metadata
     id="metadata57"><rdf:RDF><cc:Work
         rdf:about=""><dc:format>image/svg+xml</dc:format><dc:type
           rdf:resource="http://purl.org/dc/dcmitype/StillImage" /><dc:title></dc:title></cc:Work></rdf:RDF></metadata><defs
     id="defs55"><clipPath
       clipPathUnits="userSpaceOnUse"
       id="clipPath67"><rect
         style="fill:#ffffff;fill-rule:evenodd"
         id="rect69"
         width="129.101"
         height="137.96899"
         x="85.457001"
         y="31.577999" /></clipPath><clipPath
       clipPathUnits="userSpaceOnUse"
       id="clipPath71"><rect
         style="fill:#ffffff;fill-rule:evenodd"
         id="rect73"
         width="129.101"
         height="137.96899"
         x="85.457001"
         y="31.577999" /></clipPath></defs><sodipodi:namedview
     pagecolor="#ffffff"
     bordercolor="#666666"
     borderopacity="1"
     objecttolerance="10"
     gridtolerance="10"
     guidetolerance="10"
     inkscape:pageopacity="0"
     inkscape:pageshadow="2"
     inkscape:window-width="1366"
     inkscape:window-height="745"
     id="namedview53"
     showgrid="false"
     fit-margin-top="0"
     fit-margin-left="0"
     fit-margin-right="0"
     fit-margin-bottom="0"
     inkscape:zoom="1.5733333"
     inkscape:cx="-103.14155"
     inkscape:cy="57.844095"
     inkscape:window-x="-8"
     inkscape:window-y="-8"
     inkscape:window-maximized="1"
     inkscape:current-layer="Capa_1" /><g
     id="g50"
     clip-path="url(#clipPath71)"
     transform="translate(-85.457001,-31.578)"><path
       d="M 85.252,31.578 H 214.558 V 70.373 H 85.252 Z m 97.364,129.268 -65.042,0.034 C 99.761,160.81 85.337,146.372 85.317,128.558 l -0.065,-49.44 h 42.969 v 49.437 h 43.361 V 79.118 h 42.98 v 47.354 c 0.041,0.673 0.061,1.361 0.061,2.053 0,17.743 -14.302,32.148 -32.007,32.321"
       id="path2"
       inkscape:connector-curvature="0" /><path
       d="M 85.252,31.578 H 214.558 V 70.373 H 85.252 Z m 97.364,129.268 -65.042,0.034 C 99.761,160.81 85.337,146.372 85.317,128.558 l -0.065,-49.44 h 42.969 v 49.437 h 43.361 V 79.118 h 42.98 v 47.354 c 0.041,0.673 0.061,1.361 0.061,2.053 0,17.743 -14.302,32.148 -32.007,32.321 z"
       id="path4"
       inkscape:connector-curvature="0"
       style="fill:#a41e2e" /></g><rect
     style="fill:#ffffff;fill-rule:evenodd"
     id="rect59"
     width="8.8983049"
     height="25.423729"
     x="30.508474"
     y="158.8983"
     clip-path="url(#clipPath67)"
     transform="translate(-85.457001,-31.578)" /></svg>