<?xml version="1.0" encoding="UTF-8" standalone="no"?>
<svg
   xmlns:dc="http://purl.org/dc/elements/1.1/"
   xmlns:cc="http://creativecommons.org/ns#"
   xmlns:rdf="http://www.w3.org/1999/02/22-rdf-syntax-ns#"
   xmlns:svg="http://www.w3.org/2000/svg"
   xmlns="http://www.w3.org/2000/svg"
   xmlns:sodipodi="http://sodipodi.sourceforge.net/DTD/sodipodi-0.dtd"
   xmlns:inkscape="http://www.inkscape.org/namespaces/inkscape"
   id="svg"
   version="1.1"
   width="274.26999"
   height="447.70401"
   style="display:block"
   sodipodi:docname="uv.svg"
   inkscape:version="0.92.1 r15371">
  <metadata
     id="metadata11">
    <rdf:RDF>
      <cc:Work
         rdf:about="">
        <dc:format>image/svg+xml</dc:format>
        <dc:type
           rdf:resource="http://purl.org/dc/dcmitype/StillImage" />
        <dc:title></dc:title>
      </cc:Work>
    </rdf:RDF>
  </metadata>
  <defs
     id="defs9" />
  <sodipodi:namedview
     pagecolor="#ffffff"
     bordercolor="#666666"
     borderopacity="1"
     objecttolerance="10"
     gridtolerance="10"
     guidetolerance="10"
     inkscape:pageopacity="0"
     inkscape:pageshadow="2"
     inkscape:window-width="1366"
     inkscape:window-height="745"
     id="namedview7"
     showgrid="false"
     fit-margin-top="0"
     fit-margin-left="0"
     fit-margin-right="0"
     fit-margin-bottom="0"
     inkscape:zoom="0.78666667"
     inkscape:cx="94.576427"
     inkscape:cy="161.46143"
     inkscape:window-x="-8"
     inkscape:window-y="-8"
     inkscape:window-maximized="1"
     inkscape:current-layer="svg" />
  <g
     id="svgg"
     transform="translate(-60.43)">
    <path
       id="path0"
       d="m 197.975,147.168 c -0.09,0.158 -1.491,4.354 -3.114,9.324 l -2.95,9.036 h -9.764 c -8.442,0 -9.704,0.058 -9.319,0.431 0.244,0.237 3.656,2.783 7.582,5.656 3.926,2.874 7.251,5.328 7.389,5.454 0.272,0.249 0.178,0.575 -3.284,11.342 -1.28,3.983 -2.282,7.287 -2.225,7.344 0.056,0.056 3.517,-2.362 7.691,-5.373 4.174,-3.012 7.744,-5.539 7.932,-5.616 0.189,-0.078 2.376,1.326 4.86,3.119 8.818,6.364 11.151,8.012 11.23,7.932 0.045,-0.044 -1.209,-4.099 -2.785,-9.01 -1.576,-4.911 -2.866,-9.102 -2.866,-9.314 0,-0.309 5.745,-4.682 14.522,-11.054 l 1.046,-0.759 -9.815,-0.152 -9.814,-0.152 -2.923,-8.808 c -1.607,-4.844 -2.992,-9.006 -3.076,-9.249 -0.085,-0.242 -0.228,-0.31 -0.317,-0.151 m 65.905,61.047 c -0.091,0.159 -1.492,4.353 -3.113,9.321 l -2.948,9.031 -9.808,0.08 -9.807,0.08 7.853,5.733 c 4.319,3.153 7.852,5.818 7.851,5.923 -0.002,0.104 -0.465,1.625 -1.029,3.379 -3.867,12.019 -4.779,14.943 -4.689,15.033 0.056,0.056 3.518,-2.36 7.695,-5.369 4.176,-3.009 7.751,-5.536 7.945,-5.616 0.194,-0.079 3.555,2.172 7.469,5.002 8.585,6.21 8.786,6.345 8.603,5.794 -0.077,-0.23 -1.112,-3.493 -2.302,-7.251 -1.189,-3.759 -2.427,-7.647 -2.751,-8.639 -0.324,-0.993 -0.589,-1.972 -0.589,-2.174 0,-0.325 2.452,-2.204 12.85,-9.847 l 2.677,-1.968 -9.803,-0.151 -9.802,-0.152 -2.905,-8.808 c -3.47,-10.519 -3.194,-9.756 -3.397,-9.401 m -133.199,16.842 c -0.165,0.418 -1.581,4.618 -3.146,9.335 l -2.847,8.576 -9.769,0.08 -9.769,0.08 7.881,5.771 c 5.386,3.943 7.84,5.914 7.75,6.226 -0.073,0.251 -1.328,4.146 -2.789,8.656 -1.461,4.511 -2.729,8.542 -2.819,8.958 l -0.162,0.757 1.037,-0.784 c 2.498,-1.888 14.393,-10.372 14.718,-10.497 0.197,-0.075 3.555,2.168 7.461,4.986 3.907,2.819 7.477,5.369 7.934,5.668 l 0.83,0.543 -0.29,-0.867 c -0.16,-0.477 -1.446,-4.489 -2.858,-8.916 -1.412,-4.426 -2.645,-8.253 -2.739,-8.504 -0.167,-0.445 0.709,-1.125 12.326,-9.567 l 3.343,-2.43 -9.805,-0.152 -9.806,-0.151 -3.091,-9.264 c -2.667,-7.994 -3.132,-9.159 -3.39,-8.504 m 103.929,53.74 -1.459,4.56 -4.882,0.083 -4.883,0.083 3.309,2.43 c 1.819,1.336 3.575,2.64 3.902,2.897 0.583,0.459 0.572,0.533 -0.636,4.252 -1.999,6.155 -2.208,5.899 2.204,2.708 2.229,-1.613 4.023,-2.709 4.276,-2.612 0.239,0.092 1.91,1.241 3.713,2.553 3.966,2.887 4.066,2.95 3.906,2.442 -0.068,-0.217 -0.693,-2.172 -1.387,-4.343 -0.695,-2.172 -1.308,-4.097 -1.362,-4.278 -0.054,-0.181 1.675,-1.616 3.844,-3.189 l 3.942,-2.86 -4.931,-0.152 -4.932,-0.152 -1.416,-4.325 c -0.779,-2.379 -1.491,-4.4 -1.583,-4.491 -0.091,-0.091 -0.822,1.886 -1.625,4.394 m -39.591,84.221 -3.115,9.335 -9.876,0.08 -9.875,0.08 7.849,5.75 c 4.317,3.163 7.893,5.781 7.947,5.819 0.136,0.094 -0.126,0.963 -3.096,10.28 -1.435,4.5 -2.556,8.234 -2.491,8.299 0.065,0.064 3.636,-2.42 7.936,-5.52 l 7.818,-5.638 1.549,1.118 c 10.237,7.385 14.19,10.175 14.277,10.078 0.057,-0.065 -0.138,-0.869 -0.435,-1.788 -3.9,-12.084 -5.155,-16.086 -5.154,-16.437 0,-0.231 3.476,-2.948 7.725,-6.038 4.249,-3.091 7.734,-5.721 7.745,-5.847 0.01,-0.125 -4.389,-0.232 -9.776,-0.236 l -9.795,-0.009 -3.058,-9.331 -3.059,-9.33 -3.116,9.335"
       inkscape:connector-curvature="0"
       style="fill:#ffffff;fill-rule:evenodd;stroke:none" />
    <path
       id="path1"
       d="m 187.396,0.511 c 0,0.281 0.255,1.272 0.566,2.202 0.312,0.93 0.721,2.238 0.908,2.906 0.188,0.668 0.598,2.035 0.912,3.037 0.63,2.015 0.337,1.896 3.65,1.479 L 195.064,9.93 194.877,8.078 C 194.774,7.06 194.554,5.543 194.387,4.708 194.22,3.872 193.995,2.472 193.886,1.595 L 193.689,0 h -3.147 c -2.747,0 -3.146,0.065 -3.146,0.511 m 8.807,4.349 v 4.859 h 2.886 2.885 V 4.86 0 h -2.885 -2.886 v 4.86 m 8.533,-2.962 c -0.799,4.231 -0.931,5 -1.117,6.487 l -0.193,1.551 1.324,0.198 c 0.729,0.11 1.837,0.281 2.463,0.381 0.837,0.133 1.139,0.074 1.139,-0.223 0,-0.42 0.692,-2.768 2.171,-7.371 0.476,-1.484 0.867,-2.748 0.867,-2.809 C 211.39,0.05 209.973,0 208.242,0 h -3.148 l -0.358,1.898 M 178.967,0.529 c -2.139,0.102 -2.485,0.254 -1.939,0.853 0.145,0.159 0.692,1.074 1.215,2.035 0.524,0.96 1.35,2.464 1.836,3.341 0.487,0.877 1.341,2.417 1.899,3.423 1.821,3.285 1.361,3.045 3.924,2.044 2.682,-1.048 2.721,-0.411 -0.422,-6.829 -2.427,-4.957 -2.511,-5.08 -3.4,-5.027 -0.501,0.031 -1.902,0.103 -3.113,0.16 m 37.098,0.125 c -0.696,0.925 -5.317,10.33 -5.219,10.622 0.058,0.174 1.095,0.702 2.304,1.173 l 2.198,0.855 0.349,-0.654 c 0.191,-0.359 0.618,-1.131 0.948,-1.716 0.331,-0.585 0.923,-1.644 1.317,-2.354 0.394,-0.71 1.039,-1.872 1.433,-2.582 1.779,-3.204 2.091,-3.738 2.35,-4.009 0.831,-0.872 0.289,-1.382 -1.472,-1.385 -0.96,-0.002 -2.231,-0.083 -2.823,-0.181 -0.725,-0.12 -1.178,-0.045 -1.385,0.231 m -48.032,0.781 c -1.243,0.154 -0.854,1.584 0.849,3.121 0.092,0.083 0.501,0.63 0.908,1.215 0.407,0.584 0.906,1.268 1.108,1.518 1.202,1.49 6.271,8.412 6.393,8.73 0.29,0.755 4.019,-1.004 4.019,-1.896 0,-0.269 -2.912,-4.971 -3.583,-5.785 -0.144,-0.174 -0.317,-0.458 -0.384,-0.63 -0.067,-0.172 -1.01,-1.703 -2.096,-3.403 l -1.974,-3.09 -2.126,0.048 c -1.17,0.027 -2.571,0.104 -3.114,0.172 m 55.362,3.5 c -1.305,2.047 -3.202,5.002 -4.217,6.568 l -1.844,2.847 0.889,0.709 c 1.8,1.435 2.885,1.867 3.215,1.281 0.16,-0.284 0.462,-0.694 0.671,-0.911 0.209,-0.217 1.052,-1.352 1.873,-2.521 0.822,-1.169 1.577,-2.194 1.679,-2.278 0.101,-0.083 0.513,-0.63 0.915,-1.215 0.401,-0.584 0.811,-1.131 0.911,-1.215 0.099,-0.083 0.509,-0.63 0.911,-1.214 0.401,-0.585 0.805,-1.132 0.897,-1.215 0.525,-0.477 2.748,-3.599 2.748,-3.86 0,-0.368 -2.139,-0.696 -4.547,-0.696 h -1.729 l -2.372,3.72 M 159.15,2.124 c -0.585,0.132 -1.816,0.329 -2.737,0.438 -2.265,0.267 -2.795,0.609 -1.91,1.233 0.368,0.259 0.846,0.639 1.063,0.845 0.217,0.206 1.146,0.988 2.065,1.738 0.919,0.75 1.822,1.501 2.008,1.669 1.15,1.041 2.362,2.05 4.37,3.641 1.253,0.993 2.43,1.947 2.615,2.12 0.625,0.583 2.088,1.825 3.766,3.196 0.917,0.75 1.737,1.433 1.822,1.519 0.085,0.086 0.52,0.479 0.967,0.873 l 0.813,0.718 1.083,-1.052 c 1.16,-1.127 1.303,-1.569 0.703,-2.181 -0.209,-0.213 -1.199,-1.322 -2.202,-2.465 -1.002,-1.142 -2.095,-2.361 -2.429,-2.708 -0.335,-0.346 -1.59,-1.79 -2.791,-3.208 -1.201,-1.418 -2.938,-3.397 -3.861,-4.4 -0.923,-1.002 -1.683,-1.925 -1.689,-2.05 -0.015,-0.288 -2.257,-0.243 -3.656,0.074 m 77.414,0.267 c -0.232,0.321 -1.429,1.725 -2.661,3.121 -1.232,1.395 -3.077,3.486 -4.1,4.647 -1.024,1.161 -2.665,3.006 -3.649,4.1 -0.983,1.095 -2.132,2.44 -2.552,2.991 l -0.764,1 1.017,1.05 c 0.56,0.577 1.115,1.049 1.234,1.049 0.188,0 3.507,-2.568 3.916,-3.031 0.15,-0.169 5.564,-4.659 8.805,-7.302 0.917,-0.748 2.011,-1.658 2.43,-2.022 0.419,-0.364 1.172,-1.019 1.673,-1.454 0.502,-0.436 1.488,-1.231 2.193,-1.768 1.686,-1.283 1.631,-1.625 -0.294,-1.826 -1.991,-0.208 -5.685,-0.783 -6.337,-0.986 -0.272,-0.085 -0.676,0.107 -0.911,0.431 m -90.019,2.054 c -0.334,0.067 -1.427,0.267 -2.43,0.443 -1.002,0.177 -2.437,0.437 -3.189,0.579 -0.751,0.142 -2.255,0.415 -3.341,0.607 -3.285,0.582 -4.859,0.962 -4.852,1.17 0.025,0.68 36.763,18.495 37.047,17.964 0.165,-0.307 0.476,-0.741 0.691,-0.963 0.216,-0.221 0.719,-0.868 1.118,-1.435 l 0.727,-1.033 -0.627,-0.486 c -0.345,-0.267 -0.949,-0.716 -1.344,-0.998 -0.88,-0.628 -4.69,-3.418 -5.728,-4.195 -0.418,-0.313 -1.716,-1.254 -2.886,-2.092 -1.169,-0.838 -2.263,-1.637 -2.43,-1.776 -0.167,-0.138 -1.532,-1.136 -3.033,-2.216 C 154.767,8.933 153.332,7.883 153.079,7.681 152.826,7.479 151.678,6.625 150.528,5.783 148.553,4.337 148,4.152 146.545,4.445 m 102.506,1.032 c -0.919,0.674 -1.877,1.391 -2.13,1.595 -0.253,0.203 -1.688,1.253 -3.189,2.332 -1.501,1.08 -2.897,2.126 -3.101,2.324 -0.205,0.199 -0.888,0.675 -1.519,1.058 -0.631,0.384 -1.215,0.775 -1.299,0.869 -0.083,0.094 -1.382,1.051 -2.885,2.126 -1.504,1.075 -2.802,2.037 -2.885,2.137 -0.084,0.101 -0.631,0.511 -1.215,0.913 -0.585,0.401 -1.132,0.812 -1.215,0.912 -0.084,0.101 -0.649,0.485 -1.257,0.854 -2.124,1.29 -2.079,1.564 0.845,5.189 0.133,0.165 37.146,-18.297 37.155,-18.533 0.008,-0.223 -1.863,-0.712 -4.397,-1.148 -1.002,-0.172 -3.326,-0.585 -5.163,-0.918 -6.051,-1.094 -5.848,-1.102 -7.745,0.29 m -131.663,4.884 c -1.336,0.486 -3.933,1.383 -5.771,1.995 -5.09,1.696 -5.706,1.229 6.53,4.954 1.754,0.533 3.804,1.176 4.556,1.428 1.393,0.466 9.735,2.982 11.39,3.435 0.501,0.137 2.004,0.604 3.341,1.038 1.336,0.433 3.796,1.216 5.467,1.739 1.67,0.523 3.788,1.194 4.707,1.491 1.837,0.593 7.099,2.179 9.719,2.929 0.919,0.263 2.696,0.818 3.949,1.232 1.252,0.415 2.688,0.859 3.189,0.987 0.501,0.127 1.122,0.319 1.379,0.427 0.356,0.148 0.604,-0.19 1.032,-1.408 0.31,-0.881 0.692,-1.767 0.849,-1.969 0.301,-0.388 -1.888,-1.513 -5.69,-2.923 -2.885,-1.07 -17.36,-6.896 -17.84,-7.18 -0.29,-0.172 -0.662,-0.313 -0.827,-0.313 -0.165,0 -1.196,-0.41 -2.29,-0.911 -1.094,-0.501 -2.097,-0.911 -2.228,-0.911 -0.132,0 -0.805,-0.273 -1.497,-0.608 -0.691,-0.334 -1.441,-0.607 -1.666,-0.607 -0.226,0 -0.54,-0.117 -0.698,-0.261 -0.579,-0.523 -13.713,-5.509 -14.431,-5.478 -0.407,0.018 -1.834,0.429 -3.17,0.914 m 158.18,-0.241 c -0.867,0.373 -1.676,0.777 -1.797,0.898 -0.121,0.121 -0.404,0.22 -0.628,0.22 -0.225,0 -0.988,0.261 -1.696,0.58 -0.708,0.319 -2.098,0.873 -3.09,1.232 -0.991,0.358 -2.532,0.985 -3.426,1.393 -0.893,0.409 -1.73,0.743 -1.861,0.743 -0.131,0 -0.803,0.273 -1.495,0.607 -0.691,0.335 -1.441,0.608 -1.667,0.608 -0.225,0 -0.539,0.12 -0.698,0.266 -0.158,0.146 -3.842,1.661 -8.185,3.367 -4.343,1.706 -8.618,3.432 -9.5,3.835 -0.882,0.403 -1.711,0.732 -1.841,0.732 -0.131,0 -0.804,0.274 -1.495,0.608 -0.692,0.334 -1.442,0.607 -1.667,0.607 -0.225,0 -0.539,0.118 -0.698,0.263 -0.159,0.144 -1.287,0.646 -2.506,1.117 -1.22,0.47 -2.29,0.971 -2.378,1.114 -0.327,0.529 1.493,3.917 1.996,3.715 0.26,-0.105 1.157,-0.403 1.992,-0.663 4.092,-1.273 7.058,-2.176 7.745,-2.357 0.417,-0.11 1.989,-0.579 3.493,-1.044 1.503,-0.464 4.168,-1.287 5.922,-1.828 1.754,-0.541 3.941,-1.225 4.86,-1.52 0.918,-0.294 2.695,-0.846 3.948,-1.227 1.253,-0.38 3.03,-0.928 3.948,-1.218 0.919,-0.29 2.833,-0.875 4.252,-1.3 6.53,-1.956 9.082,-2.736 10.631,-3.248 0.918,-0.304 2.558,-0.821 3.644,-1.149 8.842,-2.666 8.642,-2.496 4.538,-3.875 -1.577,-0.531 -4.097,-1.413 -5.601,-1.96 -3.512,-1.28 -4.743,-1.374 -6.74,-0.516 M 87.775,20.984 c -11.777,5.653 -11.158,5.26 -8.732,5.536 1.6,0.183 5.046,0.624 8.732,1.119 3.94,0.528 7.21,0.944 10.782,1.369 3.711,0.443 7.239,0.889 10.782,1.364 1.086,0.146 3.068,0.405 4.404,0.576 1.337,0.171 3.524,0.464 4.86,0.652 1.336,0.187 3.386,0.456 4.556,0.598 1.942,0.235 3.577,0.448 9.263,1.211 1.086,0.146 3.102,0.411 4.48,0.588 1.378,0.178 3.633,0.469 5.011,0.647 1.379,0.177 3.395,0.442 4.48,0.588 1.086,0.145 3.068,0.404 4.404,0.576 1.337,0.171 3.523,0.457 4.86,0.636 1.336,0.18 3.386,0.454 4.556,0.611 1.169,0.156 2.695,0.288 3.391,0.293 l 1.266,0.01 0.309,-1.444 c 0.171,-0.794 0.391,-1.653 0.489,-1.91 0.198,-0.515 0.191,-0.517 -8.037,-2.105 -2.589,-0.5 -5.323,-1.039 -6.074,-1.198 -0.752,-0.159 -3.281,-0.643 -5.619,-1.075 -2.339,-0.431 -4.936,-0.919 -5.771,-1.084 -0.835,-0.165 -3.637,-0.708 -6.226,-1.207 -5.489,-1.059 -7.588,-1.472 -9.264,-1.822 -0.668,-0.14 -2.035,-0.416 -3.037,-0.612 -1.002,-0.197 -2.437,-0.484 -3.189,-0.638 -2.229,-0.456 -10.163,-1.981 -14.73,-2.831 -2.339,-0.435 -4.936,-0.925 -5.771,-1.09 -4.082,-0.803 -6.209,-1.206 -6.29,-1.194 -0.048,0.008 -1.797,0.834 -3.885,1.836 M 304.48,19.612 c -3.976,0.801 -5.161,1.029 -9.415,1.809 -2.339,0.43 -4.799,0.902 -5.467,1.051 -0.669,0.149 -2.787,0.56 -4.708,0.914 -1.921,0.355 -4.04,0.762 -4.708,0.905 -0.668,0.144 -2.035,0.42 -3.037,0.614 -1.002,0.194 -2.369,0.468 -3.037,0.608 -1.514,0.316 -3.646,0.735 -7.745,1.518 -4.267,0.816 -6.287,1.213 -7.745,1.522 -0.668,0.142 -2.513,0.48 -4.1,0.752 -1.587,0.272 -3.501,0.626 -4.252,0.786 -0.752,0.16 -3.485,0.697 -6.075,1.192 -2.589,0.496 -5.322,1.029 -6.074,1.185 -0.752,0.156 -2.221,0.451 -3.265,0.654 -2.087,0.407 -2.056,0.352 -1.526,2.632 l 0.373,1.604 1.374,-0.01 c 0.755,-0.005 2.33,-0.137 3.5,-0.293 1.169,-0.157 3.219,-0.431 4.555,-0.611 1.337,-0.179 3.523,-0.465 4.86,-0.636 1.336,-0.172 3.386,-0.439 4.556,-0.596 1.169,-0.156 3.219,-0.421 4.555,-0.588 1.337,-0.167 3.387,-0.432 4.556,-0.588 1.17,-0.156 3.288,-0.438 4.708,-0.627 1.42,-0.188 3.538,-0.47 4.708,-0.626 1.169,-0.157 3.219,-0.421 4.555,-0.588 2.313,-0.288 4.885,-0.625 9.264,-1.215 1.086,-0.146 3.136,-0.415 4.556,-0.598 1.42,-0.183 3.606,-0.464 4.859,-0.626 1.253,-0.161 3.918,-0.493 5.923,-0.738 5.563,-0.678 8.273,-1.02 10.934,-1.38 2.985,-0.404 6.46,-0.852 8.58,-1.107 2.501,-0.301 2.725,-0.132 -5.087,-3.837 -6.915,-3.279 -7.532,-3.559 -7.789,-3.535 -0.143,0.014 -1.217,0.218 -2.386,0.453 M 60.44,41.61 v 5.258 l 4.48,-0.219 c 5.079,-0.247 13.488,-0.556 33.637,-1.235 7.684,-0.258 17.662,-0.608 22.172,-0.777 19.804,-0.74 23.945,-0.89 33.405,-1.211 5.51,-0.187 10.043,-0.365 10.073,-0.395 0.03,-0.03 0.15,-1.023 0.266,-2.207 l 0.212,-2.153 -7.855,-0.212 C 147.538,38.207 130.752,37.835 100.38,37.206 88.185,36.954 74.21,36.659 69.324,36.55 L 60.44,36.353 v 5.257 m 269.249,-4.997 c -0.167,0.065 -12.126,0.336 -26.576,0.602 -31.22,0.575 -49.042,0.939 -60.516,1.236 l -8.428,0.219 v 2.064 2.063 l 0.987,0.172 c 0.543,0.094 5.087,0.311 10.098,0.481 5.012,0.171 12.461,0.441 16.553,0.601 16.09,0.629 23.752,0.915 36.447,1.358 18.119,0.633 27.341,0.988 32.27,1.243 l 4.176,0.215 v -5.21 -5.211 l -2.354,0.024 c -1.294,0.014 -2.49,0.078 -2.657,0.143 m -167.35,7.755 c -1.779,0.291 -5.137,0.72 -10.631,1.359 -2.171,0.252 -4.905,0.586 -6.074,0.742 -1.169,0.157 -3.288,0.43 -4.708,0.607 -1.42,0.178 -3.538,0.452 -4.707,0.608 -1.17,0.157 -3.288,0.43 -4.708,0.608 -1.42,0.177 -3.538,0.451 -4.708,0.607 -1.169,0.157 -3.287,0.43 -4.707,0.607 -1.42,0.178 -3.539,0.451 -4.708,0.608 -1.169,0.156 -3.288,0.433 -4.708,0.615 -1.42,0.182 -3.47,0.449 -4.555,0.594 -1.086,0.145 -3.205,0.417 -4.708,0.606 -2.868,0.359 -5.658,0.721 -9.34,1.212 -1.211,0.162 -4.047,0.506 -6.302,0.766 -2.255,0.259 -5.193,0.614 -6.53,0.789 -4.641,0.605 -6.69,0.869 -8.165,1.053 -1.77,0.221 -1.622,0.47 1.18,1.987 1.002,0.543 2.369,1.304 3.037,1.692 0.668,0.388 2.377,1.338 3.796,2.113 1.42,0.774 3.092,1.732 3.714,2.128 1.373,0.872 1.469,0.874 5.26,0.11 5.786,-1.165 8.011,-1.596 11.831,-2.287 1.504,-0.273 3.759,-0.706 5.012,-0.963 1.252,-0.258 2.927,-0.588 3.72,-0.734 0.794,-0.146 2.092,-0.385 2.886,-0.531 0.793,-0.147 2.536,-0.488 3.872,-0.759 1.336,-0.271 3.181,-0.643 4.1,-0.826 0.919,-0.184 2.286,-0.459 3.037,-0.611 0.752,-0.153 2.802,-0.55 4.556,-0.883 4.307,-0.819 6.299,-1.211 7.745,-1.525 0.668,-0.145 2.445,-0.482 3.948,-0.75 4.926,-0.878 13.321,-2.48 16.705,-3.189 0.668,-0.14 2.035,-0.413 3.037,-0.607 1.003,-0.194 2.372,-0.488 3.044,-0.652 l 1.221,-0.299 -0.212,-2.334 c -0.117,-1.284 -0.223,-2.436 -0.235,-2.562 -0.011,-0.125 -0.124,-0.21 -0.249,-0.188 -0.125,0.022 -0.911,0.152 -1.746,0.289 m 71.724,1.751 c -0.109,1.167 -0.27,2.311 -0.359,2.543 -0.196,0.51 0.48,0.682 9.272,2.363 4.507,0.862 6.351,1.225 7.745,1.528 0.669,0.145 2.445,0.478 3.949,0.739 2.84,0.494 5.209,0.942 7.289,1.378 1.514,0.317 3.646,0.735 7.745,1.518 3.188,0.61 5.326,1.029 7.897,1.551 0.751,0.152 2.801,0.549 4.555,0.883 4.319,0.82 6.303,1.211 7.745,1.524 0.668,0.145 3.129,0.614 5.467,1.041 2.339,0.427 4.867,0.903 5.619,1.058 10.987,2.263 13.364,2.469 13.364,1.158 0,-0.126 0.113,-0.229 0.251,-0.229 0.241,0 3.734,-1.854 6.279,-3.332 0.668,-0.388 1.966,-1.117 2.885,-1.619 3.924,-2.144 3.979,-2.316 0.847,-2.66 -1.218,-0.133 -3.307,-0.385 -4.643,-0.56 -2.973,-0.387 -9.123,-1.144 -12.605,-1.551 -1.42,-0.166 -3.538,-0.429 -4.707,-0.585 -2.862,-0.383 -6.633,-0.868 -9.492,-1.222 -1.294,-0.161 -3.447,-0.44 -4.783,-0.62 -1.337,-0.18 -3.523,-0.467 -4.86,-0.638 -1.336,-0.171 -3.386,-0.435 -4.556,-0.586 -1.169,-0.152 -3.287,-0.425 -4.707,-0.608 -1.42,-0.182 -3.573,-0.46 -4.784,-0.616 -1.211,-0.157 -3.193,-0.414 -4.404,-0.57 -4.82,-0.624 -7.317,-0.943 -9.567,-1.222 -1.295,-0.16 -3.447,-0.437 -4.784,-0.614 -2.477,-0.329 -8.502,-1.055 -12.604,-1.517 -1.253,-0.142 -2.633,-0.348 -3.068,-0.458 -0.781,-0.197 -0.791,-0.178 -0.986,1.923 m -0.934,5.286 c -0.059,0.209 -0.328,0.999 -0.597,1.756 -0.81,2.28 -0.848,2.214 1.94,3.428 0.585,0.255 1.815,0.758 2.734,1.118 0.919,0.36 2.114,0.849 2.657,1.087 0.543,0.237 1.432,0.626 1.975,0.863 0.542,0.237 2.08,0.856 3.416,1.376 1.337,0.519 2.772,1.095 3.189,1.28 0.418,0.184 1.033,0.439 1.367,0.567 0.334,0.127 1.086,0.44 1.671,0.695 0.584,0.254 1.803,0.754 2.709,1.11 0.905,0.355 2.203,0.9 2.885,1.209 1.395,0.632 6.381,2.674 11.958,4.897 2.053,0.819 4.483,1.831 5.4,2.251 0.917,0.419 1.841,0.762 2.053,0.762 0.212,0 0.516,0.114 0.674,0.253 0.159,0.139 1.034,0.553 1.944,0.919 l 1.655,0.667 3.052,-0.959 c 1.679,-0.528 4.215,-1.334 5.635,-1.792 1.42,-0.457 3.606,-1.13 4.859,-1.496 3.073,-0.896 3.619,-1.133 3.037,-1.316 -1.591,-0.5 -4.609,-1.41 -5.77,-1.74 -0.752,-0.213 -2.119,-0.626 -3.037,-0.918 -0.919,-0.291 -2.662,-0.819 -3.873,-1.174 -1.211,-0.354 -3.193,-0.934 -4.404,-1.289 -1.211,-0.354 -2.954,-0.885 -3.872,-1.178 -0.919,-0.294 -2.491,-0.763 -3.493,-1.043 -1.759,-0.492 -5.102,-1.455 -6.986,-2.014 -0.501,-0.149 -1.731,-0.528 -2.733,-0.844 -1.002,-0.315 -2.437,-0.746 -3.189,-0.958 -0.752,-0.212 -2.119,-0.624 -3.037,-0.915 -0.919,-0.291 -2.628,-0.809 -3.797,-1.151 -1.169,-0.342 -3.561,-1.051 -5.315,-1.575 -1.754,-0.525 -3.941,-1.169 -4.86,-1.433 -2.327,-0.668 -5.118,-1.5 -7.428,-2.216 -2.315,-0.716 -2.279,-0.713 -2.419,-0.227 m -71.398,0.881 c -1.67,0.503 -3.447,1.028 -3.948,1.168 -2.236,0.624 -9.851,2.895 -14.275,4.256 -1.169,0.36 -2.536,0.769 -3.037,0.908 -0.501,0.14 -1.868,0.55 -3.037,0.911 -1.17,0.362 -2.537,0.772 -3.038,0.911 -0.501,0.14 -1.389,0.413 -1.974,0.608 -0.584,0.195 -1.473,0.467 -1.974,0.604 -1.748,0.481 -7.6,2.16 -8.504,2.441 -0.501,0.155 -1.731,0.54 -2.734,0.856 -1.002,0.315 -2.437,0.747 -3.189,0.958 -0.751,0.212 -2.118,0.622 -3.037,0.91 -0.919,0.289 -2.695,0.834 -3.948,1.211 -1.253,0.377 -2.62,0.792 -3.038,0.922 -0.417,0.13 -1.511,0.458 -2.429,0.73 -2.64,0.781 -2.658,0.911 -0.235,1.683 1.215,0.387 2.961,0.944 3.879,1.238 0.919,0.295 3.106,0.977 4.86,1.517 1.754,0.54 3.78,1.171 4.501,1.401 1.301,0.415 1.35,0.403 5.263,-1.256 2.172,-0.92 4.009,-1.674 4.082,-1.674 0.072,0 0.745,-0.273 1.495,-0.607 0.75,-0.334 1.977,-0.881 2.727,-1.215 0.75,-0.334 1.453,-0.608 1.562,-0.608 0.202,0 4.376,-1.718 6.714,-2.765 0.708,-0.316 1.359,-0.575 1.446,-0.575 0.087,0 0.807,-0.29 1.598,-0.643 2.419,-1.081 3.197,-1.411 4.908,-2.083 0.905,-0.356 2.204,-0.9 2.885,-1.208 0.682,-0.309 2.477,-1.038 3.989,-1.62 1.512,-0.582 3.368,-1.34 4.124,-1.685 0.757,-0.345 2.117,-0.918 3.022,-1.273 1.714,-0.674 2.493,-1.005 4.916,-2.087 1.333,-0.596 1.431,-0.713 1.243,-1.478 -0.323,-1.313 -1.279,-3.415 -1.541,-3.391 -0.131,0.012 -1.605,0.433 -3.276,0.935 m 67.502,7.802 c -1.116,1.732 -1.385,2.478 -0.892,2.478 0.135,0 0.511,0.24 0.835,0.532 0.324,0.292 1.682,1.28 3.018,2.195 1.337,0.916 2.635,1.833 2.886,2.04 0.25,0.206 2.71,1.927 5.467,3.825 2.756,1.897 7.239,4.993 9.962,6.88 l 4.951,3.429 1.275,-0.324 c 0.702,-0.178 2.027,-0.48 2.946,-0.672 2.861,-0.596 4.206,-0.886 5.543,-1.193 0.71,-0.163 1.622,-0.334 2.026,-0.379 1.245,-0.141 1.015,-0.676 -0.656,-1.526 -0.879,-0.447 -2.965,-1.547 -4.635,-2.443 -1.67,-0.897 -4.472,-2.391 -6.226,-3.32 -5.274,-2.792 -7.364,-3.909 -8.96,-4.786 -0.835,-0.459 -3.295,-1.763 -5.467,-2.898 -2.172,-1.136 -4.837,-2.541 -5.923,-3.125 -5.54,-2.975 -4.752,-2.884 -6.15,-0.713 m -63.098,-0.49 c -0.919,0.51 -2.783,1.508 -4.142,2.219 -2.275,1.189 -4.172,2.204 -9.07,4.853 -2.669,1.443 -5.71,3.062 -8.808,4.689 -2.899,1.523 -6.07,3.233 -9.983,5.383 -1.315,0.723 -2.494,1.314 -2.621,1.314 -0.126,0 -0.386,0.189 -0.577,0.419 -0.371,0.447 -0.27,0.489 2.703,1.113 0.752,0.158 1.982,0.425 2.734,0.593 0.751,0.169 2.05,0.442 2.885,0.609 0.835,0.166 2.134,0.431 2.885,0.59 1.278,0.269 3.668,-0.774 4.86,-2.121 0.083,-0.094 0.767,-0.586 1.518,-1.094 2.882,-1.945 6.545,-4.504 6.882,-4.805 0.193,-0.173 1.833,-1.334 3.644,-2.579 3.92,-2.694 8.58,-5.975 9.216,-6.489 0.251,-0.202 0.894,-0.678 1.429,-1.057 1.097,-0.778 1.079,-0.931 -0.366,-3.191 -1.061,-1.659 -1.015,-1.653 -3.189,-0.446 m 58.531,6.244 c -1.748,1.774 -1.756,1.992 -0.134,3.71 0.709,0.752 2.175,2.392 3.259,3.645 1.083,1.253 2.175,2.483 2.427,2.733 0.252,0.251 1.414,1.549 2.584,2.885 1.169,1.337 2.262,2.577 2.429,2.757 0.168,0.18 0.75,0.835 1.294,1.456 0.897,1.024 1.095,1.113 2.126,0.95 0.625,-0.098 1.991,-0.309 3.035,-0.469 5.48,-0.836 6.641,-1.16 5.572,-1.555 -0.28,-0.104 -1.726,-1.323 -6.552,-5.526 -4.149,-3.614 -5.96,-5.179 -7.297,-6.306 -0.668,-0.564 -1.283,-1.097 -1.366,-1.185 -0.084,-0.088 -1.041,-0.908 -2.126,-1.823 -1.086,-0.914 -2.195,-1.901 -2.466,-2.194 -0.753,-0.814 -1.232,-0.655 -2.785,0.922 M 171.141,65.68 c -0.642,0.542 -2.343,2.012 -3.781,3.265 -1.438,1.252 -3.495,3.029 -4.572,3.948 -1.076,0.919 -2.575,2.223 -3.329,2.897 -0.755,0.675 -2.261,1.972 -3.347,2.882 -1.085,0.91 -2.582,2.226 -3.325,2.924 l -1.352,1.269 1.2,0.189 c 2.674,0.42 4.646,0.746 6.634,1.095 l 2.093,0.369 1.252,-1.333 c 0.689,-0.733 2.207,-2.426 3.374,-3.762 1.167,-1.336 2.19,-2.498 2.274,-2.582 0.083,-0.083 1.039,-1.177 2.123,-2.429 1.085,-1.253 2.18,-2.483 2.435,-2.734 3.282,-3.225 3.37,-3.544 1.517,-5.436 -1.794,-1.832 -1.712,-1.818 -3.196,-0.562 m 48.2,4.536 c -2.329,1.535 -2.394,1.164 1.117,6.409 1.527,2.282 2.777,4.226 2.777,4.321 0,0.095 0.142,0.338 0.317,0.54 0.174,0.202 0.799,1.153 1.39,2.113 l 1.073,1.746 3.09,-0.171 c 1.699,-0.094 3.401,-0.234 3.782,-0.311 l 0.692,-0.141 -0.886,-1.283 c -0.735,-1.063 -2.645,-3.538 -4.389,-5.687 -0.204,-0.25 -0.704,-0.933 -1.111,-1.518 -0.407,-0.585 -0.816,-1.131 -0.908,-1.215 -0.092,-0.084 -1.161,-1.484 -2.374,-3.113 -2.567,-3.446 -2.144,-3.29 -4.57,-1.69 m -43.335,0.754 c -0.668,0.94 -1.356,1.86 -1.529,2.044 -0.172,0.184 -0.644,0.813 -1.048,1.398 -0.404,0.584 -0.816,1.131 -0.916,1.214 -0.099,0.084 -0.514,0.631 -0.921,1.215 -0.407,0.585 -0.911,1.268 -1.119,1.519 -1.906,2.291 -4.891,6.553 -4.713,6.728 0.123,0.121 1.699,0.335 3.503,0.476 l 3.279,0.257 1.001,-1.529 c 0.551,-0.84 1.661,-2.553 2.467,-3.806 0.806,-1.253 1.55,-2.346 1.653,-2.43 0.103,-0.083 0.623,-0.835 1.156,-1.67 0.532,-0.836 1.108,-1.685 1.281,-1.887 0.172,-0.203 0.471,-0.715 0.664,-1.139 0.193,-0.424 0.466,-0.771 0.606,-0.771 0.825,0 -0.015,-1.013 -1.737,-2.092 -2.45,-1.536 -2.172,-1.573 -3.627,0.473 m 37.965,2.209 c -0.668,0.308 -1.468,0.644 -1.778,0.747 -0.768,0.255 -0.379,1.729 1.91,7.243 0.156,0.376 0.458,1.23 0.671,1.899 0.213,0.668 0.476,1.351 0.585,1.518 0.11,0.167 0.287,0.673 0.395,1.125 0.188,0.79 0.254,0.814 1.788,0.658 2.024,-0.207 4.843,-0.68 5.003,-0.84 0.119,-0.12 -0.882,-2.128 -1.984,-3.98 -0.299,-0.501 -1.015,-1.731 -1.592,-2.734 -0.576,-1.002 -1.288,-2.232 -1.582,-2.733 -0.293,-0.501 -0.833,-1.492 -1.2,-2.202 -0.763,-1.477 -0.625,-1.434 -2.216,-0.701 m -31.891,2.646 c -0.835,1.437 -1.817,3.13 -2.182,3.762 -0.365,0.631 -1.209,2.046 -1.876,3.144 -2.103,3.462 -2.157,3.398 3.094,3.591 l 2.376,0.087 0.556,-1.519 c 0.306,-0.835 0.92,-2.544 1.366,-3.797 0.817,-2.296 1.253,-3.407 1.675,-4.262 0.851,-1.725 0.69,-2.238 -0.926,-2.951 -2.29,-1.011 -2.394,-0.961 -4.083,1.945 m 24.164,-0.304 c -1.076,0.233 -2.007,0.475 -2.07,0.537 -0.161,0.162 0.512,9.486 0.726,10.042 0.142,0.371 0.796,0.46 3.372,0.46 h 3.195 l -0.185,-1.442 c -0.186,-1.454 -0.547,-3.505 -1.109,-6.303 -0.167,-0.835 -0.39,-2.031 -0.495,-2.657 -0.218,-1.302 -0.297,-1.316 -3.434,-0.637 m -16.852,0.167 c -0.067,0.217 -0.195,0.804 -0.285,1.305 -0.091,0.501 -0.462,2.278 -0.827,3.949 -0.364,1.67 -0.759,3.618 -0.877,4.328 l -0.215,1.29 h 3.421 3.42 l 0.176,-2.05 c 0.096,-1.127 0.312,-3.227 0.479,-4.666 0.431,-3.705 0.51,-3.471 -1.29,-3.844 -3.261,-0.675 -3.875,-0.723 -4.002,-0.312 m 7.419,5.709 v 5.163 h 2.582 2.581 v -5.163 -5.163 h -2.581 -2.582 v 5.163 M 60.526,249.582 c 0.074,111.823 0.178,144.122 0.469,146.014 2.876,18.678 10.91,23.197 63.379,35.65 13.354,3.17 60.59,13.771 70.498,15.822 l 3.072,0.636 2.698,-0.606 c 1.485,-0.333 6.526,-1.504 11.203,-2.601 13.024,-3.055 18.917,-4.434 21.412,-5.012 12.317,-2.852 16.782,-3.916 21.868,-5.21 3.258,-0.829 10.501,-2.669 16.097,-4.09 11.305,-2.869 20.837,-5.314 24.298,-6.23 30.757,-8.147 37.339,-13.532 38.28,-31.317 0.159,-3.009 0.281,-65.192 0.285,-145.941 l 0.008,-140.699 H 197.262 60.43 l 0.096,143.584 m 246.839,6.111 c 0,133.745 0.115,125.032 -1.713,129.601 -2.085,5.206 -6.335,8.681 -14.643,11.971 -5.993,2.373 -10.259,3.64 -29.657,8.809 -3.843,1.024 -9.241,2.48 -11.997,3.235 -5.052,1.384 -18.004,4.635 -36.751,9.224 -5.596,1.37 -11.063,2.723 -12.149,3.006 -1.958,0.51 -2.007,0.507 -5.467,-0.303 -1.921,-0.449 -7.456,-1.733 -12.3,-2.853 -4.844,-1.119 -10.79,-2.507 -13.212,-3.084 -2.422,-0.576 -6.454,-1.533 -8.96,-2.127 -60.073,-14.22 -67.999,-17.795 -71.274,-32.155 L 88.549,377.98 88.461,255.657 88.374,133.333 H 197.87 307.365 v 122.36"
       inkscape:connector-curvature="0"
       style="fill:#fdb827;fill-rule:evenodd;stroke:none"
       sodipodi:nodetypes="ccccccccccscccccccccccccccscsscccccccccccccccccsccccccccccscscccccccccsccccccsscccccssccccsccccccsccccccccccsccsccccccccccccccccccccsccccccccccccccccccccccccccccccccccssscsccccsssccscscssscscccccccscccccccccccccccccccccccccccccccscccccccccccccscccsccsccccccccccccccscccccccccccccsccccccccccccccccccccccccccccccccscccccccscccccccscccccccccccscccccccccccccsscccccccccccccccccccccsccccccccccscccccccccccccccscsccccccccccccccccsccccsccsssscscccsccccsccsscccccccccccccccccccccsccccccccccccccccccccccccccccccccccccccccssccccccsccccccccssccccccccccccscccssccccccccccccccccccccccccccccscccccccccccccccccccccccccccccccccccccccccccccccccccccccccccc" />
    <path
       id="path2"
       d="m 198.016,20.425 c -0.006,0.042 -1.066,3.22 -2.356,7.062 l -2.347,6.985 -7.29,0.081 -7.29,0.082 -0.362,1.133 c -0.314,0.983 -0.294,1.185 0.155,1.519 0.284,0.212 0.735,0.569 1.002,0.792 0.266,0.224 1.36,0.997 2.429,1.718 1.07,0.721 2.014,1.398 2.098,1.504 0.083,0.106 1.42,1.064 2.971,2.131 2.091,1.438 2.768,2.061 2.62,2.412 -0.191,0.454 -2.044,5.709 -4.202,11.916 l -1.021,2.939 0.671,0.63 c 1.185,1.114 1.367,1.026 7.355,-3.523 0.478,-0.363 2.202,-1.639 3.832,-2.834 l 2.963,-2.174 1.593,1.154 c 0.876,0.634 1.661,1.233 1.745,1.33 0.083,0.097 0.63,0.509 1.215,0.917 0.584,0.407 1.268,0.901 1.518,1.098 1.136,0.894 5.658,4.261 6.004,4.471 0.349,0.212 2.5,-0.844 2.5,-1.227 0,-0.16 -0.803,-2.646 -3.286,-10.168 l -1.469,-4.449 4.038,-2.654 c 2.22,-1.46 4.281,-2.844 4.579,-3.075 0.298,-0.231 1.407,-0.975 2.464,-1.653 1.348,-0.864 1.869,-1.369 1.745,-1.692 -0.097,-0.253 -0.259,-0.789 -0.36,-1.191 -0.18,-0.718 -0.245,-0.731 -3.595,-0.731 -1.877,0 -5.264,-0.089 -7.527,-0.197 l -4.115,-0.198 -0.641,-1.418 c -0.352,-0.78 -0.641,-1.508 -0.641,-1.618 0,-0.109 -0.41,-1.094 -0.911,-2.188 -0.501,-1.094 -0.911,-2.097 -0.911,-2.228 0,-0.132 -0.273,-0.805 -0.607,-1.497 -0.334,-0.691 -0.608,-1.379 -0.608,-1.529 0,-0.149 -0.196,-0.668 -0.437,-1.153 -0.24,-0.485 -0.578,-1.258 -0.752,-1.717 -0.264,-0.703 -2.69,-1.368 -2.769,-0.76 M 56.195,247.912 c 0.007,161.249 -0.121,151.057 1.966,157.403 3.12,9.494 12.161,15.981 29.007,20.815 3.223,0.925 6.363,1.82 7.517,2.143 0.543,0.152 1.431,0.403 1.974,0.557 2.657,0.754 18.487,4.697 22.096,5.503 4.888,1.093 5.706,1.28 9.263,2.113 1.504,0.353 3.28,0.763 3.949,0.912 0.668,0.148 2.445,0.558 3.948,0.911 1.503,0.352 3.28,0.762 3.948,0.911 0.669,0.149 2.445,0.559 3.949,0.911 1.503,0.352 3.314,0.77 4.024,0.928 0.71,0.158 1.872,0.419 2.582,0.581 1.927,0.438 6.775,1.499 9.187,2.01 2.18,0.462 3.418,0.735 6.075,1.341 1.933,0.44 3.92,0.882 5.467,1.215 1.546,0.332 3.533,0.774 5.467,1.214 0.835,0.191 2.099,0.474 2.809,0.629 0.71,0.155 1.906,0.419 2.657,0.586 0.752,0.167 1.982,0.441 2.734,0.608 0.752,0.167 1.948,0.435 2.658,0.595 2.688,0.606 7.128,1.52 8.836,1.818 1.837,0.321 3.529,0.05 11.437,-1.835 3.403,-0.811 7.277,-1.718 9.719,-2.276 1.086,-0.248 2.452,-0.574 3.037,-0.724 0.585,-0.15 1.747,-0.427 2.582,-0.615 0.835,-0.189 1.997,-0.462 2.581,-0.608 0.585,-0.146 1.678,-0.405 2.43,-0.576 0.752,-0.171 2.802,-0.645 4.556,-1.054 1.754,-0.408 4.487,-1.033 6.074,-1.389 6.244,-1.397 9.272,-2.114 14.883,-3.523 4.358,-1.095 5.383,-1.35 7.745,-1.928 0.668,-0.164 1.761,-0.452 2.429,-0.642 1.619,-0.458 3.052,-0.818 4.708,-1.181 0.752,-0.165 2.255,-0.523 3.341,-0.797 2.038,-0.513 3.423,-0.857 5.391,-1.336 3.121,-0.761 19.027,-4.889 27.493,-7.137 7.417,-1.969 19.819,-6.589 20.216,-7.532 0.056,-0.132 0.27,-0.24 0.475,-0.24 0.703,0 4.585,-2.823 6.321,-4.596 2.693,-2.751 4.463,-5.891 5.372,-9.527 0.167,-0.668 0.478,-1.83 0.691,-2.581 0.312,-1.098 0.405,-30.71 0.476,-150.57 l 0.088,-149.203 H 197.27 56.188 l 0.007,146.166 m 277.89,-1.215 c -0.004,80.749 -0.126,142.932 -0.285,145.941 -0.941,17.785 -7.523,23.17 -38.28,31.317 -3.461,0.916 -12.993,3.361 -24.298,6.23 -5.596,1.421 -12.839,3.261 -16.097,4.09 -5.086,1.294 -9.551,2.358 -21.868,5.21 -2.495,0.578 -8.388,1.957 -21.412,5.012 -4.677,1.097 -9.718,2.268 -11.203,2.601 l -2.698,0.606 -3.072,-0.636 C 168.307,441.569 109.458,427.914 96.887,424.333 73.11,417.56 64.879,411.929 61.983,400.456 60.566,394.842 60.626,401.139 60.526,249.582 L 60.43,105.998 h 136.832 136.831 l -0.008,140.699 m -245.624,8.96 0.088,122.323 0.693,3.037 c 3.275,14.36 11.201,17.935 71.274,32.155 2.506,0.594 6.538,1.551 8.96,2.127 2.422,0.577 8.368,1.965 13.212,3.084 4.844,1.12 10.379,2.404 12.3,2.853 3.46,0.81 3.509,0.813 5.467,0.303 1.086,-0.283 6.553,-1.636 12.149,-3.006 18.747,-4.589 31.699,-7.84 36.751,-9.224 2.756,-0.755 8.154,-2.211 11.997,-3.235 11.769,-3.136 16.858,-4.541 20.501,-5.658 17.791,-5.458 23.324,-9.818 25.055,-19.741 0.402,-2.306 0.457,-17.371 0.457,-124.982 V 133.333 H 197.87 88.374 l 0.087,122.324 m 112.907,-99.089 2.923,8.808 9.814,0.152 9.815,0.152 -1.046,0.759 c -8.777,6.372 -14.522,10.745 -14.522,11.054 0,0.212 1.29,4.403 2.866,9.314 1.576,4.911 2.83,8.966 2.785,9.01 -0.079,0.08 -2.412,-1.568 -11.23,-7.932 -2.484,-1.793 -4.671,-3.197 -4.86,-3.119 -0.188,0.077 -3.758,2.604 -7.932,5.616 -4.174,3.011 -7.635,5.429 -7.691,5.373 -0.057,-0.057 0.945,-3.361 2.225,-7.344 3.462,-10.767 3.556,-11.093 3.284,-11.342 -0.138,-0.126 -3.463,-2.58 -7.389,-5.454 -3.926,-2.873 -7.338,-5.419 -7.582,-5.656 -0.385,-0.373 0.877,-0.431 9.319,-0.431 h 9.764 l 2.95,-9.036 c 3.213,-9.836 3.205,-9.816 3.431,-9.173 0.084,0.243 1.469,4.405 3.076,9.249 m 65.909,61.048 2.905,8.808 9.802,0.152 9.803,0.151 -2.677,1.968 c -10.398,7.643 -12.85,9.522 -12.85,9.847 0,0.202 0.265,1.181 0.589,2.174 0.324,0.992 1.562,4.88 2.751,8.639 1.19,3.758 2.225,7.021 2.302,7.251 0.183,0.551 -0.018,0.416 -8.603,-5.794 -3.914,-2.83 -7.275,-5.081 -7.469,-5.002 -0.194,0.08 -3.769,2.607 -7.945,5.616 -4.177,3.009 -7.639,5.425 -7.695,5.369 -0.09,-0.09 0.822,-3.014 4.689,-15.033 0.564,-1.754 1.027,-3.275 1.029,-3.379 0.001,-0.105 -3.532,-2.77 -7.851,-5.923 l -7.853,-5.733 9.807,-0.08 9.808,-0.08 2.948,-9.031 c 1.621,-4.968 3.022,-9.162 3.113,-9.321 0.203,-0.355 -0.073,-1.118 3.397,9.401 m -120.309,25.36 9.805,0.152 -3.343,2.43 c -11.617,8.442 -12.493,9.122 -12.326,9.567 0.094,0.251 1.327,4.078 2.739,8.504 1.412,4.427 2.698,8.439 2.858,8.916 l 0.29,0.867 -0.83,-0.543 c -0.457,-0.299 -4.027,-2.849 -7.934,-5.668 -3.906,-2.818 -7.264,-5.061 -7.461,-4.986 -0.325,0.125 -12.22,8.609 -14.718,10.497 l -1.037,0.784 0.162,-0.757 c 0.09,-0.416 1.358,-4.447 2.819,-8.958 1.461,-4.51 2.716,-8.405 2.789,-8.656 0.09,-0.312 -2.364,-2.283 -7.75,-6.226 l -7.881,-5.771 9.769,-0.08 9.769,-0.08 2.847,-8.576 c 1.565,-4.717 2.981,-8.917 3.146,-9.335 0.258,-0.655 0.723,0.51 3.39,8.504 l 3.091,9.264 9.806,0.151 m 90.85,35.918 1.416,4.325 4.932,0.152 4.931,0.152 -3.942,2.86 c -2.169,1.573 -3.898,3.008 -3.844,3.189 0.054,0.181 0.667,2.106 1.362,4.278 0.694,2.171 1.319,4.126 1.387,4.343 0.16,0.508 0.06,0.445 -3.906,-2.442 -1.803,-1.312 -3.474,-2.461 -3.713,-2.553 -0.253,-0.097 -2.047,0.999 -4.276,2.612 -4.412,3.191 -4.203,3.447 -2.204,-2.708 1.208,-3.719 1.219,-3.793 0.636,-4.252 -0.327,-0.257 -2.083,-1.561 -3.902,-2.897 l -3.309,-2.43 4.883,-0.083 4.882,-0.083 1.459,-4.56 c 0.803,-2.508 1.534,-4.485 1.625,-4.394 0.092,0.091 0.804,2.112 1.583,4.491 m -23.771,93.459 c 5.387,0.004 9.786,0.111 9.776,0.236 -0.011,0.126 -3.496,2.756 -7.745,5.847 -4.249,3.09 -7.725,5.807 -7.725,6.038 -0.001,0.351 1.254,4.353 5.154,16.437 0.297,0.919 0.492,1.723 0.435,1.788 -0.087,0.097 -4.04,-2.693 -14.277,-10.078 l -1.549,-1.118 -7.818,5.638 c -4.3,3.1 -7.871,5.584 -7.936,5.52 -0.065,-0.065 1.056,-3.799 2.491,-8.299 2.97,-9.317 3.232,-10.186 3.096,-10.28 -0.054,-0.038 -3.63,-2.656 -7.947,-5.819 l -7.849,-5.75 9.875,-0.08 9.876,-0.08 3.115,-9.335 3.116,-9.335 3.059,9.33 3.058,9.331 9.795,0.009"
       inkscape:connector-curvature="0"
       style="fill:#00529b;fill-rule:evenodd;stroke:none"
       sodipodi:nodetypes="cccccccccccccccccccccccscccscccscccssscsccccccccccccccscccccscsccccsccsccccccccccscsccccccccccccccccccccccccccccccccccccscccccccccssccccsccccscccccccccsccccccsccccccccccccccccccccccccccccccccccccccsccccccccccccccccccccccccccccccccccc" />
  </g>
</svg>
