<?xml version="1.0" encoding="UTF-8" standalone="no"?>
<svg
   xmlns:dc="http://purl.org/dc/elements/1.1/"
   xmlns:cc="http://creativecommons.org/ns#"
   xmlns:rdf="http://www.w3.org/1999/02/22-rdf-syntax-ns#"
   xmlns:svg="http://www.w3.org/2000/svg"
   xmlns="http://www.w3.org/2000/svg"
   xmlns:sodipodi="http://sodipodi.sourceforge.net/DTD/sodipodi-0.dtd"
   xmlns:inkscape="http://www.inkscape.org/namespaces/inkscape"
   id="svg"
   version="1.1"
   width="323.05991"
   height="182.3974"
   style="display:block"
   sodipodi:docname="epic_light.svg"
   inkscape:version="0.92.3 (2405546, 2018-03-11)">
  <metadata
     id="metadata11">
    <rdf:RDF>
      <cc:Work
         rdf:about="">
        <dc:format>image/svg+xml</dc:format>
        <dc:type
           rdf:resource="http://purl.org/dc/dcmitype/StillImage" />
        <dc:title></dc:title>
      </cc:Work>
    </rdf:RDF>
  </metadata>
  <defs
     id="defs9" />
  <sodipodi:namedview
     pagecolor="#ffffff"
     bordercolor="#666666"
     borderopacity="1"
     objecttolerance="10"
     gridtolerance="10"
     guidetolerance="10"
     inkscape:pageopacity="0"
     inkscape:pageshadow="2"
     inkscape:window-width="1366"
     inkscape:window-height="745"
     id="namedview7"
     showgrid="false"
     inkscape:zoom="0.69044441"
     inkscape:cx="-193.11934"
     inkscape:cy="-145.64209"
     inkscape:window-x="-8"
     inkscape:window-y="-8"
     inkscape:window-maximized="1"
     inkscape:current-layer="svg"
     showguides="false"
     fit-margin-top="0"
     fit-margin-left="0"
     fit-margin-right="0"
     fit-margin-bottom="0" />
  <g
     aria-label="pic"
     style="font-style:normal;font-weight:normal;font-size:40px;line-height:1.25;font-family:sans-serif;letter-spacing:0px;word-spacing:0px;fill:#000000;fill-opacity:1;stroke:none"
     id="text15">
    <path
       d="m 138.6198,54.687496 q 0,-7.942708 3.0599,-14.908853 3.125,-6.966146 8.46354,-12.174479 5.33854,-5.208333 12.43489,-8.203125 7.09636,-2.994791 15.10417,-2.994791 16.34115,0 27.21354,11.067708 10.9375,11.067708 10.9375,27.148436 0,16.080729 -10.9375,27.083332 -10.87239,11.067708 -26.75781,11.067708 -16.53646,0 -27.47396,-11.132812 l -2.66927,-2.994791 v 38.085931 h -9.375 z m 38.41146,29.817708 q 12.43489,0 20.89844,-8.658854 8.52864,-8.723958 8.52864,-21.354166 0,-12.630208 -8.52864,-21.354166 -8.52865,-8.723958 -20.89844,-8.723958 -12.36979,0 -20.89844,8.723958 -8.52864,8.723958 -8.52864,21.289062 h 0.0651 q 0,12.630207 8.52865,21.354165 8.52864,8.723959 20.83333,8.723959 z"
       style="font-style:normal;font-variant:normal;font-weight:normal;font-stretch:normal;font-size:133.33332825px;font-family:'Epic Fusion';-inkscape-font-specification:'Epic Fusion'"
       id="path826" />
    <path
       d="m 233.54167,91.145828 v -72.981768 0 h 4.6875 4.6875 v 0 72.981768 0 h -4.6875 z M 233.60678,-1.6093254e-6 h 9.24479 V 9.2447897 h -9.24479 z"
       style="font-style:normal;font-variant:normal;font-weight:normal;font-stretch:normal;font-size:133.33332825px;font-family:'Epic Fusion';-inkscape-font-specification:'Epic Fusion'"
       id="path828" />
    <path
       d="m 316.35417,78.776037 6.70573,5.729167 q -1.5625,1.236979 -3.25521,2.278645 -9.50521,6.054688 -21.48437,6.054688 -16.60157,0 -28.125,-11.067708 -11.45834,-11.067708 -11.45834,-27.083333 0,-16.080728 11.45834,-27.148436 11.52343,-11.067708 28.125,-11.067708 11.84895,0 21.35416,6.25 1.69271,1.10677 3.19011,2.408854 l -6.57552,5.859375 q -1.4974,-1.171875 -3.19011,-2.148438 -6.83594,-4.101562 -14.77864,-4.101562 -12.69532,0 -21.48438,8.723958 -8.72396,8.658854 -8.72396,21.223957 0,12.565104 8.72396,21.223958 8.78906,8.658854 21.48438,8.658854 8.13802,0 14.97395,-3.841146 1.62761,-0.911458 3.0599,-1.953125 z"
       style="font-style:normal;font-variant:normal;font-weight:normal;font-stretch:normal;font-size:133.33332825px;font-family:'Epic Fusion';-inkscape-font-specification:'Epic Fusion'"
       id="path830" />
  </g>
  <g
     aria-label="Solutions"
     style="font-style:normal;font-weight:normal;font-size:40px;line-height:1.25;font-family:sans-serif;letter-spacing:0px;word-spacing:0px;fill:#000000;fill-opacity:1;stroke:none"
     id="text19">
    <path
       d="m 34.835348,140.25156 q -0.65625,-4.63021 -4.046875,-7.32812 -3.354167,-2.69792 -8.494792,-2.69792 -5.286458,0 -8.968749,2.69792 -3.6458335,2.66146 -3.6458335,6.5625 0,3.75521 3.2083335,6.05208 3.208333,2.29688 10.864583,3.9375 10.208333,2.22396 14.838541,6.19792 3.354166,4.01041 3.354166,10.57291 0,6.70834 -5.468749,11.33854 -5.46875,4.63021 -14.328125,4.63021 -9.40625,0 -14.5468744,-4.52083 -5.1406248,-4.55729 -5.1406248,-11.84896 v 0 h 5.4687498 v 0 q 0.765625,5.61459 4.3749994,8.53125 3.645834,2.88021 9.84375,2.88021 6.015625,0 10.171875,-3.09896 4.15625,-3.09896 4.15625,-7.58333 0,-4.63021 -3.645834,-7.40104 -3.609374,-2.73438 -12.286458,-4.63021 -9.223958,-1.96875 -13.4166657,-5.50521 -2.9166666,-3.5 -2.9166666,-9.22396 0,-6.125 4.9583332,-10.31771 4.9947911,-4.22916 13.1249991,-4.22916 8.239583,0 13.125,4.26562 4.885416,4.26563 4.885416,10.71875 z"
       style="font-style:normal;font-variant:normal;font-weight:normal;font-stretch:normal;font-size:74.66666412px;line-height:5.25;font-family:'Epic Fusion';-inkscape-font-specification:'Epic Fusion'"
       id="path833" />
    <path
       d="m 71.439512,182.39739 q -8.932291,0 -15.130208,-6.19791 -6.197916,-6.19792 -6.197916,-15.16667 0,-9.00521 6.197916,-15.20312 6.197917,-6.19792 15.130208,-6.19792 9.005208,0 15.166666,6.19792 6.197917,6.19791 6.197917,15.20312 0,8.96875 -6.197917,15.16667 -6.161458,6.19791 -15.166666,6.19791 z m 0,-4.6302 q 6.78125,0 11.447916,-4.84896 4.666667,-4.84896 4.666667,-11.88542 0,-7.03646 -4.666667,-11.88541 -4.666666,-4.88542 -11.447916,-4.88542 -6.744791,0 -11.411458,4.88542 -4.666666,4.84895 -4.666666,11.88541 0,7.03646 4.666666,11.88542 4.666667,4.84896 11.411458,4.84896 z"
       style="font-style:normal;font-variant:normal;font-weight:normal;font-stretch:normal;font-size:74.66666412px;line-height:5.25;font-family:'Epic Fusion';-inkscape-font-specification:'Epic Fusion'"
       id="path835" />
    <path
       d="m 101.84577,181.44948 v -55.23437 0 h 2.625 2.625 v 0 55.23437 0 h -2.625 z"
       style="font-style:normal;font-variant:normal;font-weight:normal;font-stretch:normal;font-size:74.66666412px;line-height:5.25;font-family:'Epic Fusion';-inkscape-font-specification:'Epic Fusion'"
       id="path837" />
    <path
       d="m 123.06452,140.57969 v 24.24479 q 0,6.08854 3.24479,9.51562 3.24479,3.39063 9.0052,3.39063 6.23438,0 9.625,-4.01042 3.39063,-4.01041 3.39063,-11.44791 v 0 -21.69271 0 h 2.625 2.625 v 0 40.86979 0 h -2.44271 -2.47917 v 0 -6.5625 0 0 q -0.61979,1.13021 -1.45833,2.1875 -4.22917,5.32291 -11.73958,5.32291 -8.3125,0 -12.97917,-4.6302 -4.66666,-4.63021 -4.66666,-12.83334 v -24.35416 0 h 2.625 z"
       style="font-style:normal;font-variant:normal;font-weight:normal;font-stretch:normal;font-size:74.66666412px;line-height:5.25;font-family:'Epic Fusion';-inkscape-font-specification:'Epic Fusion'"
       id="path839" />
    <path
       d="m 167.25201,181.44948 v -36.16667 0 h -8.67708 v -4.70312 h 8.67708 v 0 -14.29167 h 5.25 v 14.29167 0 h 9.66146 v 4.70312 h -9.66146 v 0 36.16667 z"
       style="font-style:normal;font-variant:normal;font-weight:normal;font-stretch:normal;font-size:74.66666412px;line-height:5.25;font-family:'Epic Fusion';-inkscape-font-specification:'Epic Fusion'"
       id="path841" />
    <path
       d="m 188.61659,181.44948 v -40.86979 0 h 2.625 2.625 v 0 40.86979 0 h -2.625 z m 0.0365,-51.04167 h 5.17709 v 5.17709 h -5.17709 z"
       style="font-style:normal;font-variant:normal;font-weight:normal;font-stretch:normal;font-size:74.66666412px;line-height:5.25;font-family:'Epic Fusion';-inkscape-font-specification:'Epic Fusion'"
       id="path843" />
    <path
       d="m 224.127,182.39739 q -8.93229,0 -15.1302,-6.19791 -6.19792,-6.19792 -6.19792,-15.16667 0,-9.00521 6.19792,-15.20312 6.19791,-6.19792 15.1302,-6.19792 9.00521,0 15.16667,6.19792 6.19792,6.19791 6.19792,15.20312 0,8.96875 -6.19792,15.16667 -6.16146,6.19791 -15.16667,6.19791 z m 0,-4.6302 q 6.78125,0 11.44792,-4.84896 4.66667,-4.84896 4.66667,-11.88542 0,-7.03646 -4.66667,-11.88541 -4.66667,-4.88542 -11.44792,-4.88542 -6.74479,0 -11.41145,4.88542 -4.66667,4.84895 -4.66667,11.88541 0,7.03646 4.66667,11.88542 4.66666,4.84896 11.41145,4.84896 z"
       style="font-style:normal;font-variant:normal;font-weight:normal;font-stretch:normal;font-size:74.66666412px;line-height:5.25;font-family:'Epic Fusion';-inkscape-font-specification:'Epic Fusion'"
       id="path845" />
    <path
       d="m 272.50722,139.5224 q 8.45834,0 13.19792,5.21354 4.73958,5.21354 4.73958,14.51041 v 22.20313 h -2.625 -2.625 v -22.34896 q 0,-6.96354 -3.35416,-10.90104 -3.35417,-3.9375 -9.33334,-3.9375 -6.125,0 -9.4427,4.01042 -3.28125,3.97395 -3.28125,11.375 v 21.80208 h -2.625 -2.625 v -21.4375 q 0,-4.41146 1.09375,-8.16667 1.09375,-3.75521 3.3177,-6.48958 2.22396,-2.73438 5.57813,-4.26563 3.39062,-1.5677 7.98437,-1.5677 z"
       style="font-style:normal;font-variant:normal;font-weight:normal;font-stretch:normal;font-size:74.66666412px;line-height:5.25;font-family:'Epic Fusion';-inkscape-font-specification:'Epic Fusion'"
       id="path847" />
    <path
       d="m 316.07493,150.67865 q 0.0365,-2.8073 -1.67708,-4.59375 -1.71354,-1.82292 -4.44792,-1.82292 -2.80729,0 -4.44791,1.71354 -1.64063,1.71354 -1.64063,4.66667 0,2.33333 1.67708,3.82812 1.67709,1.49479 5.79688,2.84375 6.08854,1.96875 8.78646,5.06771 2.69791,3.0625 2.69791,8.02083 0,5.14063 -3.64583,8.56771 -3.60938,3.42708 -9.07812,3.42708 -5.83334,0 -9.26042,-3.5 -3.42708,-3.53645 -3.42708,-9.51562 v 0 h 5.28645 v 0 q -0.0729,3.9375 1.89584,6.16146 1.96875,2.22396 5.50521,2.22396 3.39062,0 5.39583,-1.89584 2.00521,-1.89583 2.00521,-5.10416 0,-3.20834 -1.9323,-5.17709 -1.93229,-1.93229 -6.63541,-3.46354 -5.50521,-1.78646 -7.94792,-4.41146 -2.44271,-2.625 -2.44271,-6.74479 0,-4.88541 3.2448,-8.09375 3.24479,-3.24479 8.16666,-3.24479 5.14063,0 8.27604,3.0625 3.13542,3.02604 3.13542,7.98438 v 0 z"
       style="font-style:normal;font-variant:normal;font-weight:normal;font-stretch:normal;font-size:74.66666412px;line-height:5.25;font-family:'Epic Fusion';-inkscape-font-specification:'Epic Fusion'"
       id="path849" />
  </g>
  <flowRoot
     xml:space="preserve"
     id="flowRoot834"
     style="font-style:normal;font-weight:normal;font-size:40px;line-height:1.25;font-family:sans-serif;letter-spacing:0px;word-spacing:0px;fill:#000000;fill-opacity:1;stroke:none"
     transform="translate(-4.1039159,-95.777777)"><flowRegion
       id="flowRegion836"><rect
         id="rect838"
         width="493.53659"
         height="434.78226"
         x="-70.505226"
         y="-8.3934793" /></flowRegion><flowPara
       id="flowPara840" /></flowRoot>  <flowRoot
     xml:space="preserve"
     id="flowRoot842"
     style="font-style:normal;font-weight:normal;font-size:40px;line-height:1.25;font-family:sans-serif;letter-spacing:0px;word-spacing:0px;fill:#000000;fill-opacity:1;stroke:none"
     transform="translate(-4.1039159,-95.777777)"><flowRegion
       id="flowRegion844"><rect
         id="rect846"
         width="545.57617"
         height="468.35617"
         x="-112.47263"
         y="-20.144352" /></flowRegion><flowPara
       id="flowPara848" /></flowRoot>  <g
     aria-label="e"
     style="font-style:normal;font-weight:normal;font-size:40px;line-height:1.25;font-family:sans-serif;letter-spacing:0px;word-spacing:0px;fill:#000000;fill-opacity:1;stroke:none"
     id="text852"
     transform="translate(299.83941,-294.77692)">
    <path
       d="m -217.38889,323.74442 q -10.03125,-9.375 -23.71875,-11.15625 -17.15625,-2.25 -30.65625,8.625 -13.40625,10.78125 -14.90625,28.125 -1.03125,13.5 5.71875,25.59375 z m 14.71875,37.03125 12.5625,0.1875 q -0.46875,4.5 -1.78125,9 -4.78125,16.6875 -18.375,27.65625 -17.8125,14.34375 -40.21875,11.90625 -22.40625,-2.4375 -36.84375,-20.4375 -14.53125,-18.09375 -12.1875,-40.40625 2.4375,-22.40625 20.34375,-36.75 17.90625,-14.4375 40.21875,-11.90625 22.40625,2.4375 36.9375,20.4375 1.59375,1.96875 2.90625,4.125 l -74.25,59.8125 q 10.3125,10.59375 25.125,12.46875 17.25,2.15625 30.84375,-8.8125 9.75,-7.78125 13.125,-18.5625 1.3125,-4.21875 1.59375,-8.71875 z"
       style="font-style:normal;font-variant:normal;font-weight:normal;font-stretch:normal;font-size:192px;font-family:'Epic Fusion';-inkscape-font-specification:'Epic Fusion'"
       id="path854"
       inkscape:connector-curvature="0" />
    <path
       d="m -204.82639,323.93192 q -10.03125,-9.375 -23.71875,-11.15625 -17.15625,-2.25 -30.65625,8.625 -13.40625,10.78125 -14.90625,28.125 -1.03125,13.5 5.71875,25.59375 z m 14.71875,37.03125 12.5625,0.1875 q -0.46875,4.5 -1.78125,9 -4.78125,16.6875 -18.375,27.65625 -17.8125,14.34375 -40.21875,11.90625 -22.40625,-2.4375 -36.84375,-20.4375 -14.53125,-18.09375 -12.1875,-40.40625 2.4375,-22.40625 20.34375,-36.75 17.90625,-14.4375 40.21875,-11.90625 22.40625,2.4375 36.9375,20.4375 1.59375,1.96875 2.90625,4.125 l -74.25,59.8125 q 10.3125,10.59375 25.125,12.46875 17.25,2.15625 30.84375,-8.8125 9.75,-7.78125 13.125,-18.5625 1.3125,-4.21875 1.59375,-8.71875 z"
       style="font-style:normal;font-variant:normal;font-weight:normal;font-stretch:normal;font-size:192px;line-height:1.25;font-family:'Epic Fusion';-inkscape-font-specification:'Epic Fusion';letter-spacing:0px;word-spacing:0px;display:block;fill:#66d37e;fill-opacity:0.98994976;stroke:none"
       id="path854-0"
       inkscape:connector-curvature="0" />
  </g>
</svg>
