<svg xmlns="http://www.w3.org/2000/svg" viewBox="0 0 595.33 174.8"><defs><style>.cls-1{font-size:42.46px;fill:#58585a;font-family:gobCL-Bold, gobCL Bold;}.cls-2{font-weight:700;}.cls-3{font-size:29.39px;font-family:gobCL, gobCL;}.cls-4{letter-spacing:-0.03em;}.cls-5{letter-spacing:-0.03em;}.cls-6{letter-spacing:0em;}.cls-7{letter-spacing:0em;}.cls-8{letter-spacing:-0.01em;}.cls-9{letter-spacing:0em;}.cls-10{letter-spacing:-0.01em;}.cls-11{letter-spacing:0em;}.cls-12{letter-spacing:0em;}.cls-13{letter-spacing:-0.04em;}.cls-14{letter-spacing:-0.07em;}.cls-15{letter-spacing:-0.01em;}.cls-16{fill:#0064ac;}.cls-17{fill:#e43439;}.cls-18{fill:#fff;}</style></defs><title>Asset 1fondef</title><g id="Layer_2" data-name="Layer 2"><g id="Capa_1" data-name="Capa 1"><text class="cls-1" transform="translate(203.35 116.08)"><tspan class="cls-2">FONDEF</tspan><tspan class="cls-3"><tspan class="cls-4" x="0" y="25.04">F</tspan><tspan x="13.4" y="25.04">ondo de </tspan><tspan class="cls-5" x="122.33" y="25.04">F</tspan><tspan class="cls-6" x="135.73" y="25.04">ome</tspan><tspan class="cls-7" x="191.11" y="25.04">n</tspan><tspan class="cls-8" x="207.3" y="25.04">t</tspan><tspan x="216.86" y="25.04">o al </tspan><tspan class="cls-9" x="266.56" y="25.04">D</tspan><tspan x="286.25" y="25.04">esa</tspan><tspan class="cls-9" x="326.78" y="25.04">r</tspan><tspan class="cls-10" x="336.51" y="25.04">r</tspan><tspan class="cls-6" x="345.83" y="25.04">ollo</tspan><tspan class="cls-11" x="0" y="50.08">C</tspan><tspan x="16.96" y="50.08">ie</tspan><tspan class="cls-12" x="38.56" y="50.08">n</tspan><tspan x="54.76" y="50.08">tífi</tspan><tspan class="cls-8" x="86.74" y="50.08">c</tspan><tspan class="cls-6" x="99.73" y="50.08">o y</tspan><tspan class="cls-13" x="135.94" y="50.08"> </tspan><tspan class="cls-14" x="140.96" y="50.08">T</tspan><tspan x="153.49" y="50.08">ecnoló</tspan><tspan class="cls-8" x="236.9" y="50.08">g</tspan><tspan x="253.15" y="50.08">i</tspan><tspan class="cls-15" x="260.03" y="50.08">c</tspan><tspan x="273.02" y="50.08">o</tspan></tspan></text><rect class="cls-16" width="78.65" height="174.8"/><rect class="cls-17" x="78.65" width="113.6" height="174.8"/><path class="cls-18" d="M46.55,34.54v2.72a3.36,3.36,0,0,0,0-2.72"/><path class="cls-18" d="M51.9,19.73c.07,0,0-.38.32-.4a.91.91,0,0,1,.85.56c.08.35-.21,1.19.9,1.31,0,0,0,.18,0,.36h0a1.67,1.67,0,0,1-.16.58H54c1.48.07,2.32-.05,2.74-.49a2.77,2.77,0,0,0,.38-.53,2.6,2.6,0,0,0,.23-2.05s0-.07,0-.11a1.21,1.21,0,0,0-.09-.2,4.37,4.37,0,0,0-2.27-1.7l-.22,0a0,0,0,0,1,0,0l0,0h0A1.7,1.7,0,0,1,55,17a3.41,3.41,0,0,1,2.41,1.68,1.42,1.42,0,0,0,.53-1h0a2.61,2.61,0,0,1,.17-1,.25.25,0,0,0-.11-.33.25.25,0,0,0-.32.12c-.2.41-.66.18-.47-.23a.25.25,0,0,0-.1-.33.26.26,0,0,0-.33.12c-.19.4-.64.18-.45-.22a.24.24,0,1,0-.43-.21c-.19.41-.67.19-.47-.23a.24.24,0,1,0-.43-.2,2.3,2.3,0,0,1-.39.62A4.86,4.86,0,0,1,57,17.11a2.67,2.67,0,0,1,.27.33h0s0,.08,0,.09,0,0,0,0a1.75,1.75,0,0,0-.28-.27A5.15,5.15,0,0,0,54.43,16c-.48.05-.34.59-.29.94a1.19,1.19,0,0,0-1.46,1,1.53,1.53,0,0,0,.15.66s0,0,0,0-.15-.07-.22-.24a2.34,2.34,0,0,1-.1-.4c-.65,0-1.25.38-1.2,1a1.12,1.12,0,0,0,.6.81m2.31-.91c.16-.2.22.67.9.42-.49.58-1.14,0-.9-.42m-.06-.44c.26-.15.5-.68.89-.42a6.36,6.36,0,0,1,.58.44,1.81,1.81,0,0,1,.54.47c.12.24-.2.8-.55.3s-.57-1.05-1.1-.79-.72.53-.83.24.31-.14.47-.24m-1.87.11c-.11.25-.46.25-.51.56-.3-.26.25-.87.51-.56"/><path class="cls-18" d="M69.82,47.5c-.46-.55-1.65-.28-1.65-.28A1.78,1.78,0,0,0,67,44.79a1.58,1.58,0,0,0-1.33.13v0h0l-.12.1a.93.93,0,0,0,.66,1.57,1,1,0,0,0,.54-.17.9.9,0,0,0,.36-.55,1,1,0,0,1,.35.43c.51,1.64-1.33,2.23-1.33,2.23a7.21,7.21,0,0,1-6.56-.88l.71-.38a1.52,1.52,0,0,1,.64-.14.45.45,0,0,0,0,.12.81.81,0,0,0,1.61,0,.88.88,0,0,0-.1-.4h0l-.06-.08c-.48-.72-2.12-.25-2.12-.25a3,3,0,0,0,.06-2.32c-.3-.5-.25-.68-.25-.68,0-.48-.11-.53-.11-.53a.59.59,0,0,0-.69-.15c-.66.14-.81-.13-.81-.13-.54-.38-.79-.15-.79-.15-.23.16.09.57.09.57-.58,0-.75.75-.75.75-.24,1.23.78,1.33.78,1.33.73,0,.74-.55.74-.55.1-.58-.72-.61-.72-.61a.47.47,0,0,1,.39-.33c.85-.21,1.24.76,1.24.76a1.83,1.83,0,0,1-.2,2.09.22.22,0,0,1-.28.06,7.67,7.67,0,0,1-1.17-.72l-.06,0h-.29a2.53,2.53,0,0,0-.88.2c.32.34,1.39,1.24,1.39,1.24-.8.63-1.27.2-1.27.2a1.71,1.71,0,0,1-.23-1.41l-.09,0c-.37.17-.74.32-1.13.47l1,1.65c-.93.35-1.13-.9-1.17-1.58l-.55.21a.91.91,0,0,1,.05.26,3.73,3.73,0,0,0,.69,1.52,1.22,1.22,0,0,0-1.08.29,1.15,1.15,0,0,0-.38,1,.47.47,0,0,0,.94,0,.48.48,0,0,0-.45-.48c.21-.51.7-.1.7-.1.72.65-.41,1.37-.41,1.37-.8.54-1.57-.49-1.57-.49a5.93,5.93,0,0,0,1-3.2l-.87.29a2,2,0,0,1-.54,2.13c-.27-.18-.31-.91-.31-.91-.08-.32-.18-.61-.28-.89-.25.08-.51.14-.77.21A11.3,11.3,0,0,1,51.58,50c-.15.18-.6.22-.6.22-.67.06-.32-.31-.32-.31.33-.28.26-.48.26-.48-.2-.45-.92,0-.92,0-1,.53-.68,1.11-.68,1.11.12.34,1.1.68,1.1.68a2.42,2.42,0,0,1-1.67.21.7.7,0,0,0-.5-.58h-.06a.62.62,0,0,0-.63.25.61.61,0,0,0-.11.21l-.6-.12c-.41-.07-.65-1.26-.77-2.29l-.5.06c.16,1.11.36,2.09.36,2.09a5.17,5.17,0,0,1-1.08-.61A2.46,2.46,0,0,0,43,50a1.17,1.17,0,1,0,1.37,1.18c.42.2.79.43.79.43a4.51,4.51,0,0,0,2.3.79.85.85,0,0,0,.83.68.84.84,0,0,0,.75-.44,4.21,4.21,0,0,0,3.06-1.07c.24-.31.29-.13.29-.13.82,1.19,2.4.47,2.4.47.32-.15.38,0,.38,0a.61.61,0,0,0,.82.24c.63-.33.25-.72.25-.72-.21-.22,0-.21,0-.21.75.11.9-.32.9-.32.15-.34-.39-.64-.39-.64-.15-.18.14-.34.14-.34.45-.25.37-.51.37-.51.56,0,.52-.24.52-.24,0-.22-.69-.21-.69-.21-.54-.06-.43-.34-.43-.34a10.46,10.46,0,0,0,2-.4,10.18,10.18,0,0,0,4.48,1.83,1.55,1.55,0,0,1-.05.68h0a.42.42,0,1,0,0,.84h.13c.85-.23.92-1.49.92-1.49a5.32,5.32,0,0,0,4.11-1.61c.24-.21.36-.15.41-.08h0a.71.71,0,0,0,1.12,0A1,1,0,0,0,70,48h0a.68.68,0,0,0-.14-.45"/><path class="cls-18" d="M40.37,50.64a.53.53,0,0,0,.28-.38,1.07,1.07,0,0,0-.45-1l-.87,0h0l-.87,0a1.07,1.07,0,0,0-.45,1,.54.54,0,0,0,.27.38s-.61.26-.62.69c0,0-.07.32.47.76a3.06,3.06,0,0,1,.52.78s0,.48.69.48.68-.48.68-.48a3.13,3.13,0,0,1,.51-.78c.55-.44.49-.76.49-.76,0-.43-.64-.69-.64-.69"/><polygon class="cls-18" points="44.94 47.93 45.27 47.89 45.06 47.52 44.94 47.93"/><polygon class="cls-18" points="34.13 47.95 34.45 47.98 34.33 47.57 34.13 47.95"/><path class="cls-18" d="M32.87,47.06h0l-.06.5a.78.78,0,0,0,.22,0,.15.15,0,0,0,.1-.06.3.3,0,0,0,.05-.15.24.24,0,0,0,0-.2.35.35,0,0,0-.22-.08"/><path class="cls-18" d="M37.52,47.44a.3.3,0,0,0-.25.12.82.82,0,0,0-.1.41,1,1,0,0,0,.07.44.27.27,0,0,0,.24.15.3.3,0,0,0,.26-.11.89.89,0,0,0,.1-.44.84.84,0,0,0-.07-.42.28.28,0,0,0-.25-.15"/><path class="cls-18" d="M41.58,47.44a.26.26,0,0,0-.25.14.77.77,0,0,0-.06.41.92.92,0,0,0,.1.44.27.27,0,0,0,.25.12.3.3,0,0,0,.25-.13.85.85,0,0,0,.06-.44.76.76,0,0,0-.1-.42.26.26,0,0,0-.25-.12"/><polygon class="cls-18" points="30.51 47.42 30.82 47.48 30.73 47.06 30.51 47.42"/><path class="cls-18" d="M24.33,45l-.17.48.05,0a.23.23,0,0,0,.23,0,.31.31,0,0,0,.11-.15.44.44,0,0,0,0-.16.21.21,0,0,0-.07-.11.38.38,0,0,0-.17-.08"/><path class="cls-18" d="M25.89,45.5a.28.28,0,0,0-.28,0,.84.84,0,0,0-.2.37,1,1,0,0,0-.06.45.29.29,0,0,0,.2.2.28.28,0,0,0,.27,0,.78.78,0,0,0,.22-.39.87.87,0,0,0,.05-.43.3.3,0,0,0-.2-.21"/><path class="cls-18" d="M27.38,46l-.05,0-.12.49a.46.46,0,0,0,.21,0,.16.16,0,0,0,.11-.05.26.26,0,0,0,.07-.14.22.22,0,0,0,0-.2s-.1-.08-.21-.11"/><path class="cls-18" d="M51.6,46a.39.39,0,0,0-.23,0h0l.13.48a.57.57,0,0,0,.2-.08.14.14,0,0,0,.07-.1.3.3,0,0,0,0-.16A.25.25,0,0,0,51.6,46"/><polygon class="cls-18" points="54.3 45.83 54.6 45.71 54.3 45.4 54.3 45.83"/><path class="cls-18" d="M55.53,44.15a.77.77,0,0,0-.45-.13,1,1,0,0,0-.31,0A43,43,0,0,1,39.33,46.7a43.07,43.07,0,0,1-15.45-2.63,1,1,0,0,0-.31,0,.77.77,0,0,0-.45.13l-1.9,1.49h0a3.22,3.22,0,0,1,1.19.3C27.35,48.1,33,49,39.33,49.05s12-.95,16.9-3.11a3.22,3.22,0,0,1,1.19-.3h0Zm-18,2.77.39,0-.46.3h-.09ZM24.9,45.45a.37.37,0,0,1-.15.19.38.38,0,0,1-.23,0,1.09,1.09,0,0,1-.31-.08l-.09,0-.11.29c0,.06,0,.1,0,.13a.14.14,0,0,0,.1.08h0l0,.1-.68-.25,0-.1h0c.06,0,.11,0,.14,0s0-.05.07-.11L24,45a.22.22,0,0,0,0-.13.19.19,0,0,0-.11-.07l0,0,0-.09.5.17.29.11a.55.55,0,0,1,.17.13.27.27,0,0,1,.08.17.33.33,0,0,1,0,.17m1.52.82a.64.64,0,0,1-.33.39.74.74,0,0,1-.57,0,.81.81,0,0,1-.36-.22.53.53,0,0,1-.17-.33.72.72,0,0,1,0-.33.55.55,0,0,1,.2-.3.57.57,0,0,1,.33-.16.77.77,0,0,1,.37,0,.74.74,0,0,1,.46.35.72.72,0,0,1,0,.54m1.33.65a1.21,1.21,0,0,0,.11.26.18.18,0,0,0,.09.06l0,.1-.4-.1a3.32,3.32,0,0,1-.12-.39.81.81,0,0,0-.06-.2.15.15,0,0,0,0-.06.42.42,0,0,0-.14-.05l-.08.3c0,.06,0,.11,0,.13s.05.06.12.07h0l0,.11L26.51,47l0-.11h0c.07,0,.11,0,.14,0a.22.22,0,0,0,.06-.12L27,46a.2.2,0,0,0,0-.13.22.22,0,0,0-.12-.07h0l0-.1.51.14.12,0,.24.07a.71.71,0,0,1,.14.1.24.24,0,0,1,.09.15.25.25,0,0,1,0,.17.32.32,0,0,1-.34.24.88.88,0,0,1,.14.33m2.17.87-1.18-.26,0-.1h0c.07,0,.12,0,.14,0a.23.23,0,0,0,0-.12l.17-.77a.19.19,0,0,0,0-.13s-.05,0-.12-.06h0l0-.1.7.14,0,.11h0c-.07,0-.1,0-.13,0s0,.06-.06.12l-.15.73a.35.35,0,0,0,0,.12l0,.05a.32.32,0,0,0,.14,0,.31.31,0,0,0,.27,0,.39.39,0,0,0,.16-.21l.11,0Zm1.44.26-.64-.12,0-.11c.06,0,.1,0,.11,0s0,0,0,0V47.7l0-.1-.4-.08,0,.06a.21.21,0,0,0-.05.09.06.06,0,0,0,0,.07.19.19,0,0,0,.1,0l0,.11L30,47.81l0-.11c.08,0,.16,0,.24-.17l.58-.93.11,0,.23,1.08a.38.38,0,0,0,.08.2.18.18,0,0,0,.09,0Zm2.23.31-.41,0a2.18,2.18,0,0,1-.16-.37l-.08-.19s0,0-.06,0a.29.29,0,0,0-.14,0l0,.31a.24.24,0,0,0,0,.13.18.18,0,0,0,.13.06h0l0,.1-.7-.09v-.11h0a.16.16,0,0,0,.13,0,.33.33,0,0,0,0-.12l.11-.77c0-.06,0-.11,0-.13s0-.05-.11-.06h0v-.11l.53.07L33,47a.68.68,0,0,1,.25,0,.34.34,0,0,1,.15.07.28.28,0,0,1,.11.13.36.36,0,0,1,0,.18c0,.15-.12.24-.31.28a1.3,1.3,0,0,1,.19.3,1,1,0,0,0,.13.25.21.21,0,0,0,.1,0Zm1.45.15-.66-.06,0-.11h.11a.05.05,0,0,0,0,0s0,0,0-.06v0l0-.1-.41,0,0,.06,0,.09a.08.08,0,0,0,0,.07l.1,0v.11l-.43,0v-.11c.08,0,.15-.06.23-.19l.5-1h.12l.3,1.06a.43.43,0,0,0,.1.19.12.12,0,0,0,.09,0Zm1.42-1.13-.83,1.06.3,0h.19a.28.28,0,0,0,.12-.08.48.48,0,0,0,.09-.16h.11l0,.4-1.18-.09v-.08L36,47.38l-.21,0a.69.69,0,0,0-.28,0,.44.44,0,0,0-.13.19h-.1l0-.35,1.11.08ZM38,48.51a.8.8,0,0,1-.54.18.86.86,0,0,1-.41-.12.57.57,0,0,1-.25-.28.7.7,0,0,1-.06-.32.66.66,0,0,1,.11-.35.6.6,0,0,1,.28-.24.89.89,0,0,1,.36-.07.72.72,0,0,1,.54.23.68.68,0,0,1,.19.5.77.77,0,0,1-.22.47m1.93-1-.09,0a.19.19,0,0,0-.06.07.45.45,0,0,0,0,.13v1h-.13l-.85-1v.6c0,.1,0,.17,0,.19a.21.21,0,0,0,.14,0v.11h-.5v-.11a.2.2,0,0,0,.11,0,.21.21,0,0,0,.06-.08,1.23,1.23,0,0,0,0-.13v-.67c0-.13-.06-.2-.19-.2v-.11H39l.72.81V47.7c0-.14-.06-.21-.18-.22v-.1H40Zm2.2,1a.73.73,0,0,1-.53.23.71.71,0,0,1-.41-.09.55.55,0,0,1-.27-.25.77.77,0,0,1-.09-.32.63.63,0,0,1,.09-.35.57.57,0,0,1,.25-.26.68.68,0,0,1,.36-.1.73.73,0,0,1,.56.18.68.68,0,0,1,.22.48.64.64,0,0,1-.18.48m1.12.11v-.11h0a.15.15,0,0,0,.12,0,.25.25,0,0,0,0-.13l-.06-.78c0-.06,0-.1,0-.12s-.06,0-.12,0h0v-.1l.7-.07v.11h0a.17.17,0,0,0-.12,0,.17.17,0,0,0,0,.13l.07.74a.25.25,0,0,0,0,.12s0,0,.05,0H44a.39.39,0,0,0,.26-.11.53.53,0,0,0,.1-.24h.09l0,.43Zm2-.2,0-.1.11,0s0,0,0,0a.09.09,0,0,0,0-.06v0l0-.1-.4,0,0,.07,0,.09s0,.06,0,.07H45v.1l-.43.06v-.11c.08,0,.14-.09.17-.24l.3-1.06h.11l.53,1a.37.37,0,0,0,.13.17.17.17,0,0,0,.1,0v.1Zm2.26-1.3a.32.32,0,0,0-.08-.13s-.06-.06-.09-.06h-.13l-.2,0,.07.46.1,0c.05,0,.08,0,.1-.05s0-.06,0-.13l.11,0,.07.45h-.1c0-.06,0-.11-.06-.12s-.06,0-.11,0l-.1,0,.05.35a.35.35,0,0,0,0,.12.16.16,0,0,0,.14,0h0v.1l-.7.12,0-.11h0c.07,0,.11,0,.12-.05a.16.16,0,0,0,0-.12l-.12-.78c0-.06,0-.1-.05-.11s-.07,0-.13,0h0v-.11l1.09-.17.06.34Zm1.54-.32.08.43a1.11,1.11,0,0,1,0,.23.49.49,0,0,1-.05.19.41.41,0,0,1-.16.16.57.57,0,0,1-.25.11.66.66,0,0,1-.28,0,.58.58,0,0,1-.21-.09.33.33,0,0,1-.11-.15.77.77,0,0,1-.07-.2l-.1-.51a.23.23,0,0,0,0-.12s-.07,0-.15,0l0-.1.69-.14,0,.11h0q-.11,0-.12.06a.18.18,0,0,0,0,.13l.1.51a.71.71,0,0,0,.07.22.24.24,0,0,0,.13.11.25.25,0,0,0,.19,0,.26.26,0,0,0,.19-.1.25.25,0,0,0,.08-.16.79.79,0,0,0,0-.25L49,46.75a.17.17,0,0,0-.23-.15l0-.11.48-.09,0,.1-.08,0a.22.22,0,0,0,0,.08.57.57,0,0,0,0,.12m.6.9,0-.11h0a.19.19,0,0,0,.11-.07s0-.06,0-.13l-.18-.76c0-.06,0-.1-.06-.11s-.07,0-.13,0h0l0-.11,1.1-.26.1.34-.11,0a.45.45,0,0,0-.1-.13l-.08,0a.37.37,0,0,0-.13,0l-.24.05.1.45.13,0c.05,0,.09,0,.1-.06a.24.24,0,0,0,0-.13l.1,0,.1.44-.1,0h0a.93.93,0,0,0,0-.1.19.19,0,0,0-.14,0l-.12,0,.08.32a.53.53,0,0,0,0,.11.07.07,0,0,0,.06,0,.4.4,0,0,0,.15,0,.54.54,0,0,0,.17-.08.33.33,0,0,0,.09-.13,1.11,1.11,0,0,0,0-.19l.11,0,.09.42ZM52.15,47a2.11,2.11,0,0,1-.29-.28l-.16-.14-.07,0a.31.31,0,0,0-.14,0l.08.3c0,.05,0,.1.06.11a.17.17,0,0,0,.14,0h0l0,.11-.68.19,0-.11h0a.15.15,0,0,0,.12-.07.17.17,0,0,0,0-.12L51,46.24c0-.06,0-.1-.06-.12h-.16l0-.11.51-.14.12,0,.25-.06a.5.5,0,0,1,.17,0,.34.34,0,0,1,.15.09.29.29,0,0,1,.08.14.32.32,0,0,1-.17.38,1.05,1.05,0,0,1,.29.22,1.27,1.27,0,0,0,.22.16.17.17,0,0,0,.12,0l0,.1Zm.61-.18,0-.09.35-1.29-.2.07a.51.51,0,0,0-.24.12.37.37,0,0,0,0,.22l-.1,0-.09-.35,1.06-.34,0,.08-.36,1.3.29-.1a.54.54,0,0,0,.17-.08.25.25,0,0,0,.08-.12.9.9,0,0,0,0-.18l.11,0,.1.38Zm2-.68,0-.11.09,0s0,0,0,0,0,0,0-.05l0,0-.07-.08-.38.14V46a.22.22,0,0,0,0,.1.1.1,0,0,0,0,.06l.1,0,0,.11-.41.15,0-.1q.11,0,.12-.27l0-1.1.11,0,.74.8a.36.36,0,0,0,.17.14h.1l0,.1Z"/><path class="cls-18" d="M33.42,25.78a7.28,7.28,0,0,1-.73-.44l-.69.44Z"/><path class="cls-18" d="M36.77,25.47c-.12.05-.38.16-.59.27l-.08,0h6l-.08,0a6.52,6.52,0,0,0-.6-.27l-.07,0a7.77,7.77,0,0,0-.77-.26H37.63a7.13,7.13,0,0,0-.78.26.29.29,0,0,1-.08,0"/><path class="cls-18" d="M45.74,25.35h0a5.37,5.37,0,0,1-.61.42h1.25c-.23-.16-.45-.3-.59-.41l0,0"/><path class="cls-18" d="M31.9,37.25V34.17a3.84,3.84,0,0,0,0,3.08"/><polygon class="cls-18" points="39.08 32.08 33.37 30.24 37.82 30.24 39.08 32.08"/><path class="cls-18" d="M39.05,26.19h-7.6a.25.25,0,0,0,.09.2s.15.19.3.4h7Z"/><path class="cls-18" d="M38.75,27.2H32.1a6.73,6.73,0,0,1,.33.61h6.13Z"/><path class="cls-18" d="M38.44,28.22H32.6a4.84,4.84,0,0,1,.21.61h5.44Z"/><path class="cls-18" d="M38.13,29.24H32.91a5.24,5.24,0,0,1,.09.61h4.94Z"/><path class="cls-18" d="M34.8,31.26H33a6.31,6.31,0,0,1-.13.62h2.78Z"/><path class="cls-18" d="M34.24,30.86l-.86-.61H33v.05a2.63,2.63,0,0,1,0,.56Z"/><path class="cls-18" d="M39.11,26.19l0-.09v6l5.71-1.84H40.33l-.12-.39h5a5.51,5.51,0,0,1,.11-.61H40l-.12-.41h5.56a4.84,4.84,0,0,1,.22-.61h-6l-.12-.41h6.28c.11-.22.22-.43.33-.61H39.42l-.13-.4h7.19a6.63,6.63,0,0,1,.4-.54l0-.07Z"/><path class="cls-18" d="M40.45,35.34v4.57a3.55,3.55,0,0,1,.61-.32V35.8Z"/><path class="cls-18" d="M39.42,34.55v6.62l.23-.38,0,0a2.47,2.47,0,0,1,.35-.48V35Z"/><path class="cls-18" d="M38.4,34.81v5.32a2.32,2.32,0,0,1,.49.62l0,0a.8.8,0,0,0,.09.14V34.35Z"/><path class="cls-18" d="M37.38,35.58v4a3.16,3.16,0,0,1,.62.29V35.12Z"/><path class="cls-18" d="M41.47,39.45a5.15,5.15,0,0,1,.61-.13V36.57l-.61-.46Z"/><path class="cls-18" d="M36.37,39.3a3.85,3.85,0,0,1,.61.12V35.89l-.61.46Z"/><path class="cls-18" d="M39.08,32.07,37,32.84l-.78-.56H32.76c-.07.19-.15.4-.24.61a5,5,0,0,1-.22.47v4.52a3.14,3.14,0,0,0,.61.56V32.89h.41v5.8a3.85,3.85,0,0,0,.61.27V32.89h.4v6.2a5.55,5.55,0,0,0,.61.1v-6.3h.41v6.34h.26l.35,0V36.66l-.35.27ZM36,32.89h.41v1.79L36,35.88Z"/><path class="cls-18" d="M45.67,32.89h0c-.09-.22-.17-.42-.23-.61h-3.5l-.77.56-1.53-.56-.56-.21,3.4,4.81v2.38l.48,0h.13V32.89h.41V39.2a4,4,0,0,0,.62-.08V32.89h.39V39a4.45,4.45,0,0,0,.62-.25V32.89h.4v5.64a3.76,3.76,0,0,0,.57-.46.43.43,0,0,0,0-.07V33.83c-.19-.34-.34-.65-.47-.94m-3.19,3.83-.4-1.19V32.89h.4Z"/><path class="cls-18" d="M42.51,31.88h2.81c-.06-.23-.09-.44-.12-.61H43.36Z"/><path class="cls-18" d="M44.77,30.25l-.85.61h1.26a2.14,2.14,0,0,1,0-.42,1.15,1.15,0,0,1,0-.19Z"/><path class="cls-18" d="M48.12,18.21a2.69,2.69,0,0,0,.5,0c1.89-.49,2-2.83,1.66-3,0,0,0,0,0,0a3.7,3.7,0,0,1-.16.4c-.12.25-.27.39-.32.38a.06.06,0,0,1,0-.06,2.32,2.32,0,0,0,.19-2,2.13,2.13,0,0,0-.74-1,3.74,3.74,0,0,0-3.92,0,3.89,3.89,0,0,0-1.36-.83,3.65,3.65,0,0,1-1.35,1.77,1.74,1.74,0,0,1-.57.3s-.13,0,0-.13a2.75,2.75,0,0,0,1.53-2.36v0a3.35,3.35,0,0,0-.75-2,3.9,3.9,0,0,0-4.56-.2,2.42,2.42,0,0,0-.6,1.18,1.38,1.38,0,0,1,.93-.87c.5-.15,1.47,0,1.62.54-.86-.88-2.42-.23-2.64,1.26h0c0,.1-.07.11-.07.11h0s-.1,0-.07-.68a4.09,4.09,0,0,1,.33-1.36c-1.92-.35-4.22.58-4.17,3.44a1.88,1.88,0,0,0,.53,1.2c.07.08,0,.12,0,.12s-.29-.14-.44-.33a2.89,2.89,0,0,1-.43-.94,5.67,5.67,0,0,0-2.63-.38,3.45,3.45,0,0,0-2,1.13,3.89,3.89,0,0,0-.44.69,3,3,0,0,0-.34,1.7,3.08,3.08,0,0,0,1.47,2.5,5.26,5.26,0,0,0,3,.45,2.3,2.3,0,0,0,.86-.36l.11-.08.05,0a2.12,2.12,0,0,0,.69-1.76,0,0,0,0,1,0,0s.11.21.11.47a2.66,2.66,0,0,1-.2,1s0,.1,0,.15a.72.72,0,0,0,.12.31,1.11,1.11,0,0,0,1.15.14s.06,0,.06,0a.9.9,0,0,1-.79.35,1.65,1.65,0,0,1-.31,0,2.14,2.14,0,0,0,1.89.77s0,0,0,0-.2.12-.46.12a2.63,2.63,0,0,1-1.17-.26,3.32,3.32,0,0,0,2.21,1.05c0,.14-.87,0-1.12-.05.53,2.07,1.63,1.83,1.65,2a.64.64,0,0,0-.32,1,7.1,7.1,0,0,1,2.31-.45,7.28,7.28,0,0,1,2.38.48.53.53,0,0,0,.07-.54c-.18-.52-1.77-.92-3.27-.48a.81.81,0,0,0-.2.11h0s0,0,0,0h0a1.32,1.32,0,0,1,.2-.13,3.67,3.67,0,0,1,2.75-.1s0,0,0,0a.76.76,0,0,0,1-.91.76.76,0,0,0,.86-.73l-.25.12h0c-.17.09-.34.1-.35.07v0h0l.2-.1a2.27,2.27,0,0,0,1.21-1.79.68.68,0,0,1-.6.32c-.15,0-.23,0-.23,0s0,0,0,0a.56.56,0,0,0,.29-.12,2.37,2.37,0,0,0,.73-1,4.6,4.6,0,0,1-1-1.93,1,1,0,0,0-.75-.64h-.16l-.13,0s0,0,0,0c.42-.35.87,0,1.14.18.05-.77.32-1,.34-1s0,0,0,0a3.19,3.19,0,0,0,1.34,3.55,4.2,4.2,0,0,0,4.42-.45h0a3.1,3.1,0,0,1-.71.12c-.27,0-.47-.06-.48-.11a0,0,0,0,1,0,0m-17.85-.09c.71-.18,1.32-.56,1.14-1.22a.49.49,0,0,0-.47-.36,1,1,0,0,0-.86.54.92.92,0,0,1,1.06-.95,1.08,1.08,0,0,1,.84.7c.19,1-.7,1.37-1.71,1.29m2.5-.7c.3-.81.45-2-.83-2.35a2.74,2.74,0,0,0-2.36.91,2.14,2.14,0,0,1,2.62-1.31c-.28-.77-1.26-1.09-2.41-.46a3.26,3.26,0,0,0-.66.5,2,2,0,0,1,1.22-1.21,2.19,2.19,0,0,1,2.21.46c1.41,1.4.64,3.36.21,3.46m6.55,4.21c-.59,0-.65-.4-.76-.84.25.21.62.48.59,0-.22-.19-1.53-.53-1.19-1.1.22-.31.92.94,1.13.53.12-.85-2.52-1.11-2.44-1.84,0-.39,2.07,1,2.37,1,0-.45-3.07-1.68-4-3.34-.07-.12-.1-.23-.08-.24s0,0,0,0a7.14,7.14,0,0,0,3.92,2.62c.64.18.94,2.21.43,3.22m.69.51c-.2-.05-.09-.41-.09-.56a9,9,0,0,0-.23-2.44,14.73,14.73,0,0,0-1.17-3,8.89,8.89,0,0,1,1.62,3.52A4.32,4.32,0,0,1,40,22.14m1-5.2c.55.23-.28,1.35-.35,1.56.13-.06.58-.54.76-.39s-.59,1.38-.82,1.47c-1.24-1.62.35-2.1.41-2.64m-.15,4.73c-.17-.08-.17-.41-.15-.56.06-.41.54-.6.75-.82.06,0,0,.65-.6,1.38m-.15-1.14c-.24-.43.39-1,.54-1.37.77-.12-.2,1.24-.54,1.37m.69-11a1.7,1.7,0,0,1,1.33,1.24c0,.64-.32.84-.38.8s0,0,0-.07A1.61,1.61,0,0,0,42.05,10a2.82,2.82,0,0,0-.7-.48m6.5,6.31h0l0,0a2.85,2.85,0,0,1,0-.29,2.35,2.35,0,0,0,0-.74c-.29-1.25-1.32-1.69-2-1a2.15,2.15,0,0,1,2.59-.94,1.77,1.77,0,0,1,1,1.05,1.53,1.53,0,0,1,0,1.25h0s0,0,0,0A2.35,2.35,0,0,0,49.12,14c-.1-.2-.29-.55-.59-.63a4.27,4.27,0,0,1,.39.66,1.23,1.23,0,0,1,.12.52A2.17,2.17,0,0,1,48.52,16h0a0,0,0,0,1,0,0,2.21,2.21,0,0,0,.07-1.79c0-.06-.05-.12-.08-.17a1.33,1.33,0,0,0-1.12-.8A1.91,1.91,0,0,1,48,14a1.67,1.67,0,0,1-.14,1.84"/><path class="cls-18" d="M65.24,31.45a36.62,36.62,0,0,0-1.13-8.08c-.44-1.5-1.29-4.58-3.28-5a1.41,1.41,0,0,0-1.62,1.45c0,.67.47,1,.27,1.67a5.42,5.42,0,0,0-.62,1.39c-.12.48.31.68.17,1.19-.6-.09-.92.41-1.81.23a2.83,2.83,0,0,1-1.64.16s0,0,0,0c.89,0,1.69-.31,1.86-.71a1.86,1.86,0,0,0-.37-1.82,4.6,4.6,0,0,1-2.55.44c-1.46-.08-1.82.19-2,1.08a.57.57,0,0,1-.08-.42c0-.49.54-.79,1.13-.85a1,1,0,0,0,.15-.61,2.6,2.6,0,0,0-.73,0,2.42,2.42,0,0,0-1.9,1.2,1.2,1.2,0,0,0,0,.36,1.53,1.53,0,0,0,0,.32,1.42,1.42,0,0,1,.07.22c.23.48.78.75,2,.8,0,0,0,0,0,0s-.24.1-.54.07A2.35,2.35,0,0,1,51.06,24l-.08.1a2.27,2.27,0,0,1-1.32.62,1.78,1.78,0,0,1-1.33-.6c-.7-.95.21-2.59.19-3.2,0-1.63-2.26-.9-3.07-.47a8,8,0,0,0-2.4,2.14A7.21,7.21,0,0,0,42.12,24a5.22,5.22,0,0,0,1.77.51h.26a2.31,2.31,0,0,0,1.44-.44.76.76,0,0,1,.5-.19.8.8,0,0,1,.57.23c.11.09,1.51,1.21,2,1.53a.55.55,0,0,1,.23.35.66.66,0,0,1-.18.49,8,8,0,0,0-1.27,2.07,4.24,4.24,0,0,0-.18.5c-.17.6-.29,1.55.54,1.85,0,0,.92.23.85-1.29,0,0,.15,1,.86.94.3,0,.58-.31.53-1h0a8.32,8.32,0,0,1,.06-2.15.24.24,0,0,0,0-.08,1.69,1.69,0,0,1,.07.39,8,8,0,0,0,2.66,6.32A5.38,5.38,0,0,1,50.76,32a1.87,1.87,0,0,0-.86,2.24,2,2,0,0,0,.72,1,.11.11,0,0,1,0,.06c0,.06-.16.18-.42-.09h0l-.12-.14a2.07,2.07,0,0,1-.23-.44,11.82,11.82,0,0,1-1-.92h0c-.24-.47-.11-1.89-1.48-1.89h-.14l-.23,0h0a5.47,5.47,0,0,1-.25-2.13,7.57,7.57,0,0,1,1.7-3.43.4.4,0,0,0,.1-.24.26.26,0,0,0-.08-.12h0c-.47-.32-1.85-1.41-2-1.54h0a.46.46,0,0,0-.64,0,2.64,2.64,0,0,1-1.65.53l-.27,0h0a5.7,5.7,0,0,1-2-.59,7.07,7.07,0,0,0-2.61-.59,7.11,7.11,0,0,0-2.62.59,5.63,5.63,0,0,1-2,.59h0l-.27,0a2.67,2.67,0,0,1-1.65-.52h0a.48.48,0,0,0-.3-.11.46.46,0,0,0-.33.15h0c-.16.13-1.54,1.22-2,1.54h0a.2.2,0,0,0-.08.12.35.35,0,0,0,.1.24,7.7,7.7,0,0,1,1.69,3.43,3.81,3.81,0,0,1,0,.77c-.12-.38-.23-.71-.31-.95a1.65,1.65,0,0,0-.2-.51h0a2.22,2.22,0,0,0-.79-.7c-.25-.14-.52-.18-.75-.34a2.78,2.78,0,0,1-1-1,3.14,3.14,0,0,0-.48-1.6c.13-.07.69.34.73,1.33a5.71,5.71,0,0,0,1.22-2.8c.5-.68,1.89-.41,2.42-.32a1.29,1.29,0,0,1,.47.15c.15.11.18.34.39.43a1.63,1.63,0,0,0,.73,0,2,2,0,0,1,.2.35h.21A5.31,5.31,0,0,0,36.53,24h0l.1-.05a1.8,1.8,0,0,0-1.16-.54c-.52-.08-.8-.52-1.29-.62a1.88,1.88,0,0,0-.71,0,13.08,13.08,0,0,1-2.9-.35c-1-.07-1,.59-1.35,1.14a3.17,3.17,0,0,1-.46.6c-.26.27-.58.27-.9.52l-.05,0a3.58,3.58,0,0,0-.45-1.25s0,0,0,0a.75.75,0,0,1-.07-.12A3.5,3.5,0,0,0,25,21.46a1.3,1.3,0,0,1-.41-.22.2.2,0,0,1,0-.35c.34-.19.91-.12,1.3-.3.92-.44.6-1.23.23-1.29a8.63,8.63,0,0,1-1.49-.42c-.22-.14-.37-.53-.73-.66a1.74,1.74,0,0,0-.78,0c-.22,0-.37.2-.54.17a1.41,1.41,0,0,1,1.06-.49c-.41-.11-.27-.78-.65-.93a1.27,1.27,0,0,0-.67.18c0-.21-.15-.91-.54-1.14s-.42.1-.41.28.48.36.56,1.08l-.24.17a1.43,1.43,0,0,0-.51-.94c-.31-.18-.42.1-.41.28s.43.34.55,1l-.31.27c-.64-.17-.78-.62-.93-.64s-.47.05-.32.37a1.45,1.45,0,0,0,.91.61l-.2.22c-.73-.14-.88-.64-1-.67s-.48,0-.33.38.92.62,1.11.66a.85.85,0,0,0-.16.51c-.56-.07-1.57.24-1.38.9.19.14.86-.41,1.48-.1a2.14,2.14,0,0,0,1.21.77c.22.18.26.51.36.8a6.51,6.51,0,0,0,.88,1.47c.35.53.72,1.09,1.08,1.55a.89.89,0,0,1,.07.45,14,14,0,0,1-2.18,1.92c-.52.49-5.4,4.21-6,5.83a3.55,3.55,0,0,0-.19,1.31,1,1,0,0,1-1-.1c-.33-.39.33-.75.17-1.26a.43.43,0,0,0-.54-.19c-.36.13-.44.85-.26,1.3.05.12.24.28.1.37s-.29-.11-.29-.37a.4.4,0,0,0-.15.42c.09.36.52.37.67.46,0,.16-.26.23-.43.08-.27.4,0,.55.1.57.29,0,.61-.22.8-.24.08.2-.06.27-.37.35.49.59.93-.43,1.47-.31.17,0,1.71,1.47,1.44,2.57a1,1,0,0,1-.1.26c-.34.42-.91.74-1.3,1.14-.8.51.77,3.73.64,5.38-.1.64.55.52.92,1.57a1.13,1.13,0,0,0-1,.4.37.37,0,0,0-.06.09h0a.88.88,0,0,0-.1.4.81.81,0,0,0,1.61,0s0-.09,0-.12a1.55,1.55,0,0,1,.64.14l.71.38a7.21,7.21,0,0,1-6.56.88s-1.84-.59-1.33-2.23a1,1,0,0,1,.34-.43,1,1,0,0,0,.37.55,1,1,0,0,0,.53.17.93.93,0,0,0,.93-.93.93.93,0,0,0-.26-.64L13,45h0l0,0a1.55,1.55,0,0,0-1.32-.13,1.78,1.78,0,0,0-1.14,2.43s-1.2-.27-1.65.28a.63.63,0,0,0-.14.45h0a1,1,0,0,0,.12.39.71.71,0,0,0,.58.3.73.73,0,0,0,.54-.25h0c.05-.07.17-.13.42.08a5.29,5.29,0,0,0,4.11,1.6s.07,1.27.92,1.5h.13a.42.42,0,0,0,0-.84h0a1.67,1.67,0,0,1-.06-.68,10.2,10.2,0,0,0,4.49-1.83,10.46,10.46,0,0,0,2.05.4s.12.28-.43.34c0,0-.71,0-.69.21,0,0-.05.25.51.24,0,0-.07.26.37.51,0,0,.29.16.14.34,0,0-.53.3-.38.64,0,0,.15.43.9.32,0,0,.25,0,0,.21,0,0-.37.39.26.72a.61.61,0,0,0,.82-.24s.07-.2.37,0c0,0,1.59.72,2.41-.47,0,0,.06-.18.3.13a4.14,4.14,0,0,0,3.05,1.07.85.85,0,0,0,.74.44.83.83,0,0,0,.83-.68,4.51,4.51,0,0,0,2.31-.79s.37-.23.78-.43A1.18,1.18,0,1,0,35.65,50a2.46,2.46,0,0,0-1.86.44,4.92,4.92,0,0,1-1.08.61s.2-1,.36-2.09l-.49-.06c-.13,1-.37,2.22-.79,2.29l-.59.12a.84.84,0,0,0-.11-.21.64.64,0,0,0-.63-.26l-.06,0a.71.71,0,0,0-.51.58,2.4,2.4,0,0,1-1.66-.21s1-.34,1.1-.68c0,0,.29-.58-.68-1.11,0,0-.72-.42-.92,0,0,0-.07.2.26.48,0,0,.35.37-.32.31,0,0-.45,0-.6-.22a11.84,11.84,0,0,1,.4-2.09l-.76-.21c-.1.28-.2.57-.28.89,0,0,0,.73-.31.91a2,2,0,0,1-.54-2.13l-.88-.28a6.06,6.06,0,0,0,1,3.19s-.78,1-1.57.49c0,0-1.13-.72-.41-1.37,0,0,.49-.41.7.1A.48.48,0,0,0,24,50a.47.47,0,0,0,.94,0,1.16,1.16,0,0,0-.39-1,1.18,1.18,0,0,0-1.07-.29,3.73,3.73,0,0,0,.69-1.52.91.91,0,0,1,.05-.26l-.55-.21c0,.68-.24,1.92-1.17,1.58l1-1.65-1.11-.46-.1,0a1.69,1.69,0,0,1-.23,1.4s-.47.43-1.28-.2c0,0,1.07-.89,1.4-1.24a2.53,2.53,0,0,0-.88-.2h-.29l-.06,0a7.43,7.43,0,0,1-1.18.72.22.22,0,0,1-.28-.06,1.86,1.86,0,0,1-.2-2.1s.4-1,1.25-.75c0,0,.24,0,.39.33,0,0-.82,0-.73.6,0,0,0,.6.75.56,0,0,1-.1.78-1.33,0,0-.18-.75-.76-.75,0,0,.33-.41.09-.57,0,0-.24-.23-.79.15,0,0-.14.27-.8.13a.59.59,0,0,0-.69.15s-.11.05-.11.53c0,0,0,.18-.25.68a2.44,2.44,0,0,0-.2.88,1.47,1.47,0,0,0-.68-.32c-.33-.35-.36-2-.71-2.78-.08-.19.16-1,.17-1.9a4.79,4.79,0,0,0,3.65-3.24,6.24,6.24,0,0,0-.19-3.11s0,0,.06,0a3.32,3.32,0,0,1,.27.64,6.14,6.14,0,0,0,2.58-.31l.08,0,.12,0,.3-.14.1-.06a7.2,7.2,0,0,0,3-3.12A2.31,2.31,0,0,1,25.64,30c.64.05,1.12.32,1.75.32.94,0,1.56-.52,2.59-.39,0,.06.14.49.8.76A4.71,4.71,0,0,0,31,32.26a.73.73,0,0,0,.09.19s-.78.6-.58,1.1c.06.13.11.27.16.38h-.11c-.11-.06-.25.15-.42.41s-.5,1-.19,1.06l.19,0a4,4,0,0,0,.57,3.07h0a4.68,4.68,0,0,0,4.15,1.9h0c.3,0,2.94,0,3.88,1.8,0,.1.26.4.49.4s.43-.3.49-.4c.94-1.75,3.57-1.8,3.87-1.8h0a4.71,4.71,0,0,0,4.16-1.9h0a3.67,3.67,0,0,0,.62-1.62c.59-.32.56-1.65.56-1.88A2.18,2.18,0,0,0,50.28,36c-.11.63-.07,1.66.59,1.8.21,0,.39-.29.33-.52.58,1.65.1,2.67.53,2.79s.59-1,.64-1a1.6,1.6,0,0,1,.23.83c0,.52-.06,1,.17,1.11.78.13.41-2.13,1-1.9-.15,1,0,1.56.41,1.73,0,.45-.06.9-.25.9-1.11.25-2.13-.63-3.1-.37l-.1-.06a3.89,3.89,0,0,0-3-.33c-.5-.46-.69.23-.84.15-.93-.53-1.44.37-1.69.41s-.62-.47-1,.59c-.19.46-1.23.66-1.31.68-.42,0-.52-.23-.52-.23a1.83,1.83,0,0,0-.12-.31A1,1,0,0,0,42,42.1a.51.51,0,0,0-.42-.13.58.58,0,0,0-.55.58.56.56,0,0,0,.12.36s.12-.11.26-.1a.44.44,0,0,1,.42.42h0c0,.47-.7.95-.7.95-.42.37-.94-.15-.94-.15a1.31,1.31,0,0,0-.5-.26.57.57,0,0,0-.45.34.56.56,0,0,0-.44-.34,1.24,1.24,0,0,0-.5.26s-.52.52-.94.15c0,0-.73-.48-.7-.95h0a.44.44,0,0,1,.42-.42c.13,0,.23.13.26.1a.56.56,0,0,0,.12-.36A.59.59,0,0,0,37,42a.5.5,0,0,0-.42.13.74.74,0,0,0-.15.21,3.24,3.24,0,0,0-.13.31s-.09.28-.51.23c-.09,0-1.12-.22-1.31-.68-.44-1.06-.84-.56-1-.59s-.76-.94-1.69-.41c-.15.08-.34-.61-.84-.15a4.16,4.16,0,0,0-2.4,0c-.09-.17-.54-.25-.67-.3a3.73,3.73,0,0,1-.73-.4,4.68,4.68,0,0,0-1.51-.13A1.52,1.52,0,0,1,25,40a5.7,5.7,0,0,1-1.64-1.33l-.24-.33a2.35,2.35,0,0,1-.41-.78,5.56,5.56,0,0,1,.22-2.24,6.23,6.23,0,0,0,.07-.7,4.23,4.23,0,0,1-2.23-.1,5.57,5.57,0,0,1,.18,2.25,1.66,1.66,0,0,1,.6.92c0,.37-.13.76.08,1.06a6,6,0,0,0,1.47,1.14,28.73,28.73,0,0,0,2.42,1.71c.28.06.46-.15.71-.11a.71.71,0,0,1,.22.13,2.4,2.4,0,0,0,.41.35c-.61.38-1.37.84-1.93,1.11,0,0-.9.5-.47.51,0,0,.63,0,.68.11l-.67.29c.95.34,1.91.64,2.9.91a7,7,0,0,1,2.23-1.58s1.13,0,1.49-.78c.12-.25.6.48,1.59-.07.1-.05.24.21.53.29.09,0-.41.1-.31.54,0,0-.81,0-1.08.46a7.7,7.7,0,0,0-3.39,1.41c.29.08.59.14.89.2a2.77,2.77,0,0,1,1.86-.6A1.63,1.63,0,0,1,32.49,46c.6.09,1.21.16,1.82.22h0c.16-.07,1-.48.62-1,0,0-.19-.25-.54.09,0,0-.23.19-.32-.12a.93.93,0,0,0-.11-.33s-.17-.24.16-.12a1.63,1.63,0,0,0,.59.05.57.57,0,0,0,.53-.57.58.58,0,0,0-.54-.61s-.06,0-.06,0a.25.25,0,0,1,.08.17c0,.11-.1.23-.21.2-.35-.09-.24-.76.23-.78a1.12,1.12,0,0,1,.75.44A4.49,4.49,0,0,0,37,45.11s-.13.43.34.57c0,0,0,.37.46.34a1.53,1.53,0,0,1,.22.41l1.26,0,1.26,0a1.73,1.73,0,0,1,.23-.41c.47,0,.4-.32.46-.34.47-.14.28-.55.34-.57a4.43,4.43,0,0,0,1.52-1.44,1.16,1.16,0,0,1,.76-.44c.48,0,.57.69.23.78-.11,0-.21-.09-.21-.2a.25.25,0,0,1,.08-.17s-.05,0-.07,0a.58.58,0,0,0-.53.61.56.56,0,0,0,.53.57,1.59,1.59,0,0,0,.59-.05c.33-.12.16.12.16.12a1.08,1.08,0,0,0-.12.33c-.09.31-.31.12-.31.12-.35-.34-.55-.09-.55-.09-.37.5.46.91.63,1h0c.62-.06,1.22-.13,1.82-.22a1.63,1.63,0,0,1,1.35-1.19,2.79,2.79,0,0,1,1.86.6c.3-.06.59-.12.89-.2a7.71,7.71,0,0,0-3.4-1.41c-.26-.46-1.09-.41-1.08-.46.11-.44-.39-.52-.3-.54.28-.08.44-.34.53-.29,1,.55,1.47-.18,1.58.07.37.83,1.51.78,1.51.78a7,7,0,0,1,2.21,1.58c.91-.25,1.79-.52,2.66-.83,0,0,0,0,0,0s0-.1-.05-.14,0,0,0-.05h0c0-.08-.08-.16-.13-.24h0a7.05,7.05,0,0,0-.67-.88h0l0,0s.66-1,1.07-.32c0,.09,0,.32-.45.32A5.72,5.72,0,0,1,54.18,44h0l.41-.14a.61.61,0,0,1,.13,0c-.27-.5-.65-.79-.54-.95s.46.13.66-.17a3.71,3.71,0,0,0,.15-.82,1.42,1.42,0,0,0,.64.15c.68,0,.93-1,.75-1.36.1-.07.49-.39.53-.3.21.48,1.3,1,1.21-.09.17.52.3,1.12.91,1.07.45-.1.16-.85.32-.85.13.21.31,1.08,1,.87a.54.54,0,0,0,.36-.52c0-.82-2.35-5.18-2.56-7.07l-.12,0c-.23-.11-.25-.49-.21-.76a.2.2,0,0,1,0-.05,1.08,1.08,0,0,1-.81-1.1c0-.72.32-1.07.38-1.07s0,.05,0,.07c-.18.56-.3,1.23.1,1.61a.74.74,0,0,0,.42.15.75.75,0,0,1,.32-.35s0,0,0,.06a1.12,1.12,0,0,0,0,1.16.71.71,0,0,0,.44.19c.66-.24,1-1.5,1.15-1.9.44.1-.72,2.65.18,3.2.36,0,.57-.46.7-.83.29.75-.94,2.34,0,2.69.54.14.74-1.25.74-1.07.16,2.12-.95,3.14-.24,3.47S62,37.74,62,38c0,2.26-1.15,2.89-.67,3.28.56.23.95-1.14.95-.82,0,2-1.06,2.56-.62,3.2s1.49-1.32,1.54-.93-1.1,2.81-.43,3,.76-.67.81-.83a42.91,42.91,0,0,0,1.68-13.38M48,20.8a.12.12,0,0,1-.1,0,2.34,2.34,0,0,0-1.94.11,4.8,4.8,0,0,0-.89.73,2.93,2.93,0,0,1,2.1-1.34c.81,0,.9.41.83.49m2.93,3.76a1.55,1.55,0,0,1-.88.82,1.75,1.75,0,0,1-1.56-.54,4.7,4.7,0,0,0,1.28.27,2.08,2.08,0,0,0,1.13-.59c0-.05.07,0,0,0M18.17,45.65h0c.1.08.23.15.33.24a.39.39,0,0,1,.08.1c-.06.12-.19.11-.35,0h0a3.2,3.2,0,0,1-.38-.22c-.12.18.11.37.23.53s-.08.09-.16.1h0a.69.69,0,0,1-.25,0h0c-.24-.11-.27-.44-.28-.63a.77.77,0,0,0-.39-.61c.46-.3,1.15.43,1.21.49m4.16-25.13c.68.25.74-.62.91-.42.23.4-.42,1-.91.42m.86-.71c-.28,0-.48-.2-.74,0,0,0-.37.29-.3.63a.25.25,0,0,1-.41.19c-.25-.56.66-1.35.89-1.42.51-.19.9.13,1.46.22.33,0,.68,0,.95,0,.61.06.45.5.34.57-.5.14-.79-.25-1.22-.31s-.66.14-1,.11m2.33,3.61c-.74-.26-1.59-.38-1.9-1a7.62,7.62,0,0,1,2.8.48l.08,0a2.61,2.61,0,0,1,1,1.41,7.75,7.75,0,0,0-2-1M31,29.78c-.2,0-.24-.88-1.37-.66a1.66,1.66,0,0,1-1.43-.05c1.59-.9,2.92,0,2.8.71m16.42,2.38a.78.78,0,0,1,.22,0h0a1,1,0,0,1,.24,0,1.23,1.23,0,0,1,.28.59,1.84,1.84,0,0,0,.3.66c.15.15.08.44-.28.4h0a1,1,0,0,1-.64-1.28.9.9,0,0,0-.28,0h0l-.15,0h0l-.08.05-.05,0c-.1.08-.13.22-.26.23a.7.7,0,0,1,.33-.56h0a1.07,1.07,0,0,1,.41-.16M31.25,34.28a.36.36,0,0,0,0,.09l-.06.15,0,.06-.06.1,0,0-.09.13,0,0L30.8,35l0,0-.13.08h0l-.14.05h-.21a.25.25,0,0,1,0-.12h0c0-.17.17-.32.25-.51s.05-.3.15-.42.32,0,.37-.12a.66.66,0,0,1,.06-1c.47-.48,0-1.51.09-1.64a1.64,1.64,0,0,1,.29.9.34.34,0,0,0,0,.1.66.66,0,0,0,0,.14V33s0,.07,0,.1a.49.49,0,0,1,0,.12v.09l0,.18a.36.36,0,0,1,0,.11s0,.08,0,.12,0,.06,0,.09l0,.11a.94.94,0,0,1,0,.16l0,.1,0,.09m15.42,3.5A4.16,4.16,0,0,1,43,39.5c-.24,0-2.33,0-3.05,1.37l0,.06c-.09.15-.35.57-.46.8a.15.15,0,0,1-.13.07.13.13,0,0,1-.12-.07c-.11-.23-.38-.65-.46-.8l0-.06c-.72-1.33-2.81-1.37-3-1.37a4.16,4.16,0,0,1-3.71-1.72,4.1,4.1,0,0,1-.07-4.09,5.59,5.59,0,0,0,.93-3.36,6.22,6.22,0,0,0-1.42-3.75.48.48,0,0,1-.15-.41.41.41,0,0,1,.21-.32c.29-.2.91-.59,1.18-.75l.11-.08.1,0c.08,0,.15.05.26.14a2.43,2.43,0,0,0,1.56.56l.44,0a5.29,5.29,0,0,0,1.15-.43c.22-.12.49-.23.62-.29l0,0a6.63,6.63,0,0,1,2.41-.52,6.56,6.56,0,0,1,2.4.52l.07,0c.12.06.4.18.62.3a5.36,5.36,0,0,0,1.14.43l.45,0a2.37,2.37,0,0,0,1.55-.56c.12-.09.19-.14.27-.14a.15.15,0,0,1,.11,0l.13.07,1.17.76a.39.39,0,0,1,.19.29.5.5,0,0,1-.15.41,6.21,6.21,0,0,0-1.42,3.73,5.54,5.54,0,0,0,.93,3.39,4.15,4.15,0,0,1-.07,4.09m1.85-1.58h0l-.06.09-.08.07h0l-.08,0h0l-.08,0h-.12l-.08,0,0,0-.07,0,0,0-.09-.07,0,0s-.18-.3.09-.33l.1.1h0L48,36h.1a.08.08,0,0,0,0,0,0,0,0,0,0,0,0s0,0,0,0a0,0,0,0,0,0,0,.62.62,0,0,0,0-.1s0,0,0,0a.25.25,0,0,1,0-.08.13.13,0,0,1,0-.06v-.08a4.58,4.58,0,0,1,.14-1.31l0,0h0l.06,0h0l.08,0,0,0,0,0s0,0,0,0,0,0,0,0v.06a.19.19,0,0,1,0,.08v.05c0,.12,0,.28,0,.45s0,.06,0,.08h0c0,.1,0,.21,0,.33a1.28,1.28,0,0,1-.16.81m4.82.95A2.57,2.57,0,0,1,51.16,36a3.83,3.83,0,0,0,.94.66,2.21,2.21,0,0,0,2-.24s.08,0,.1,0,0,.54-.82.71m-25.16,4a.09.09,0,0,1,0,.06l0,0s0,0,0,0a.5.5,0,0,1-.23,0,2.63,2.63,0,0,1-.43,0,.21.21,0,0,0,.12.23h0l.11.06.19.09c0,.14-.25.24-.37.24s-.43-.29-.52-.46l-.07-.06-.06,0a2.2,2.2,0,0,0-.89-.19C26,40.6,27.63,41,27.67,41a1.73,1.73,0,0,1,.52.13s0,0,0,0m24.57,1.4h0a.51.51,0,0,0,0,.09,2.72,2.72,0,0,1-1-.46.77.77,0,0,0-.62-.13h0c-.26.11-.38.39-.53.52a1.24,1.24,0,0,1,0-.16h0a.62.62,0,0,1,0-.13v-.05a.34.34,0,0,1,0-.1s0,0,0,0a.31.31,0,0,1,.06-.13l0-.06.05,0,.08-.06,0,0a1,1,0,0,1,.5-.09A1.2,1.2,0,0,1,52,42a1.73,1.73,0,0,0,.94.26,1.41,1.41,0,0,0-.19.34m6-17.86a2.81,2.81,0,0,1-.9.45,1.22,1.22,0,0,1-1.32-.41c.42-.13.78.16,1.34.09a4.32,4.32,0,0,0,.54-.1c.17-.06.29-.22.47-.22s-.07.15-.13.19M64,40.07a11.78,11.78,0,0,1-.44,1.87c1.19-10.79.54-13.47.34-13.43s-.36,1.34-1,.95,1.34-2.76.57-4.07c-.18-.21-.34.29-.64.2-.81-.26.43-2.31.2-2.53s-.77-.27-.79-1c0-.34.22-.62,0-.91s-.19.2-.42.09c-.37-.39,0-.84-.21-1.13-.11-.08-.36.24-.56.08s.12-.53-.15-.65a.91.91,0,0,0-.77,1c.06.3.41.5.38.84s-.37.63-.44.79c-.51,1.16.35,1.4.23,1.81,0,.2-.42.31-.66.22s-.38-1.17-.28-1.6.8-1.08.8-1.36-.33-.64-.37-1a1,1,0,0,1,1-1.11,1.78,1.78,0,0,1,.92.73c.09.11.23.22.31.32a11.22,11.22,0,0,1,1.65,3.76A37.62,37.62,0,0,1,64,40.07"/><path class="cls-18" d="M94.59,165.57a7,7,0,0,1-3,.74c-2.48,0-3.75-1.73-3.75-4.37s1.27-4.21,3.86-4.21a4.82,4.82,0,0,1,2.74.73l-.68,1.23a3.72,3.72,0,0,0-2-.53c-1.5,0-2.18,1.1-2.18,2.75,0,2,.72,3,2.16,3a3.21,3.21,0,0,0,1.4-.26v-1.54H92l-.1-1.19h2.73Z"/><path class="cls-18" d="M101.33,163.15c0,2.06-1,3.16-2.84,3.16s-2.83-1.09-2.83-3.16c0-1.78,1-3.14,2.83-3.14s2.84,1.36,2.84,3.14m-1.65,0c0-1.46-.43-2-1.19-2s-1.17.51-1.17,2,.39,2,1.17,2,1.19-.53,1.19-2"/><path class="cls-18" d="M104,160.75a2.14,2.14,0,0,1,1.6-.74c1.42,0,2.45,1,2.45,3.14s-1.23,3.16-2.64,3.16a2,2,0,0,1-1.75-.86l-.3.73h-.86v-8.51h1.61v2.11Zm.11,3.75a1.45,1.45,0,0,0,1.1.62c.7,0,1.22-.52,1.22-2s-.46-2-1.19-2a1.71,1.71,0,0,0-1.13.48Z"/><path class="cls-18" d="M109.79,166.18V161.3l-.7-.15v-1h2.3v6Zm-.05-8.51h1.63v1.47h-1.63Z"/><path class="cls-18" d="M114.24,163.59a1.38,1.38,0,0,0,1.56,1.49,4.14,4.14,0,0,0,1.78-.5l.3,1.13a4.82,4.82,0,0,1-2.28.6c-1.86,0-3-1.17-3-3.16s.9-3.14,2.83-3.14,2.55,1.36,2.55,2.88v.7Zm1.14-2.39c-.8,0-1.14.73-1.14,1.44h2.21c0-.78-.23-1.44-1.07-1.44"/><path class="cls-18" d="M122.66,161.48a2.86,2.86,0,0,0-.76-.1,1.74,1.74,0,0,0-1.08.41v4.39h-1.6v-6h1.12l.17.81h0A1.6,1.6,0,0,1,122,160a3.19,3.19,0,0,1,.7.08Z"/><path class="cls-18" d="M127.38,166.18v-3.59c0-.91-.35-1.34-1.09-1.34a1.9,1.9,0,0,0-1.06.37v4.56h-1.61v-6h1.11l.24.69a2.51,2.51,0,0,1,1.92-.82c1.52,0,2.13.9,2.13,2.44v3.73Z"/><path class="cls-18" d="M135.77,163.15c0,2.06-1,3.16-2.84,3.16s-2.84-1.09-2.84-3.16c0-1.78,1-3.14,2.84-3.14a2.83,2.83,0,0,1,2.84,3.14m-1.66,0c0-1.46-.43-2-1.18-2s-1.17.51-1.17,2,.38,2,1.17,2,1.18-.53,1.18-2"/><path class="cls-18" d="M143.6,160.61a3.73,3.73,0,0,1-.15-1.11v-1.83h1.6v8.51h-1.31l-.18-.66a2,2,0,0,1-1.6.79c-1.37,0-2.47-1-2.47-3.15,0-2,1.13-3.15,2.6-3.15a2,2,0,0,1,1.51.6m-.15.91a2.15,2.15,0,0,0-1.1-.3c-.76,0-1.25.52-1.25,1.93s.46,2,1.22,2a1.6,1.6,0,0,0,1.13-.51Z"/><path class="cls-18" d="M147.89,163.59a1.37,1.37,0,0,0,1.55,1.49,4.06,4.06,0,0,0,1.78-.5l.31,1.13a4.89,4.89,0,0,1-2.28.6c-1.87,0-3-1.17-3-3.16s.9-3.14,2.84-3.14,2.54,1.36,2.54,2.88v.7ZM149,161.2c-.8,0-1.13.73-1.13,1.44h2.21c0-.78-.24-1.44-1.08-1.44"/><path class="cls-18" d="M159,166.31c-2.34,0-3.6-1.56-3.6-4.34,0-2.58,1.24-4.24,3.6-4.24a5.19,5.19,0,0,1,2.84.71l-.62,1.3a3.5,3.5,0,0,0-2.05-.58c-1.38,0-2.07,1-2.07,2.8s.69,2.91,2.05,2.91a3.83,3.83,0,0,0,2.19-.76l.52,1.31a4.9,4.9,0,0,1-2.86.89"/><path class="cls-18" d="M163,166.18v-8.51h1.61v2.23a2.49,2.49,0,0,1-.16.94,2.14,2.14,0,0,1,1.74-.83c1.73,0,2.21.9,2.21,2.44v3.73h-1.64v-3.6c0-.86-.35-1.33-1.08-1.33a1.86,1.86,0,0,0-1.07.37v4.56Z"/><path class="cls-18" d="M170.15,166.18V161.3l-.7-.15v-1h2.3v6Zm-.05-8.51h1.62v1.47H170.1Z"/><path class="cls-18" d="M173.23,164.58v-6.91h1.59v6.82c0,.51.31.58,1,.58v1.14a5,5,0,0,1-.89.1c-1.24,0-1.68-.66-1.68-1.73"/><path class="cls-18" d="M178.23,163.59a1.37,1.37,0,0,0,1.55,1.49,4.06,4.06,0,0,0,1.78-.5l.31,1.13a4.9,4.9,0,0,1-2.29.6c-1.86,0-3-1.17-3-3.16s.9-3.14,2.84-3.14,2.54,1.36,2.54,2.88v.7Zm1.13-2.39c-.8,0-1.13.73-1.13,1.44h2.2c0-.78-.23-1.44-1.07-1.44"/><path class="cls-18" d="M92.06,27.19c-2.63,0-4-1.75-4-4.87,0-2.91,1.4-4.77,4-4.77a5.79,5.79,0,0,1,3.19.79l-.69,1.47a3.88,3.88,0,0,0-2.3-.66c-1.56,0-2.33,1.1-2.33,3.16s.77,3.27,2.3,3.27a4.38,4.38,0,0,0,2.47-.86l.59,1.47a5.57,5.57,0,0,1-3.23,1"/><path class="cls-18" d="M100,27.19c-3.09,0-4-2.34-4-4.9s.86-4.74,4-4.74,4,2.26,4,4.74-.91,4.9-4,4.9m0-8.08c-1.64,0-2.06,1.49-2.06,3.17,0,1.86.41,3.39,2.06,3.39s2.09-1.5,2.09-3.39c0-1.71-.45-3.17-2.09-3.17"/><polygon class="cls-18" points="110.05 27.05 107.13 19.68 107.07 19.68 107.2 27.05 105.56 27.05 105.56 17.68 108.35 17.68 111.31 25.21 111.36 25.21 111.24 17.68 112.92 17.68 112.92 27.05 110.05 27.05"/><rect class="cls-18" x="114.97" y="17.68" width="1.82" height="9.37"/><path class="cls-18" d="M122.57,27.19c-2.63,0-4-1.75-4-4.87,0-2.91,1.4-4.77,4-4.77a5.85,5.85,0,0,1,3.2.79l-.7,1.47a3.88,3.88,0,0,0-2.3-.66c-1.56,0-2.33,1.1-2.33,3.16s.77,3.27,2.3,3.27a4.38,4.38,0,0,0,2.47-.86l.58,1.47a5.52,5.52,0,0,1-3.22,1"/><polygon class="cls-18" points="130.94 23.79 130.94 27.05 129.11 27.05 129.11 23.78 126.29 17.68 128.59 17.68 130.22 21.9 130.29 21.9 132.1 17.68 134.09 17.68 130.94 23.79"/><polygon class="cls-18" points="138.53 19.23 138.53 27.05 136.64 27.05 136.64 19.23 134.38 19.23 134.38 17.68 140.86 17.68 140.86 19.23 138.53 19.23"/><path class="cls-18" d="M93.41,41.33l-.13-5.27h0c-.11.67-.22,1.15-.3,1.51l-.89,3.76H90.26l-.85-3.76c-.08-.36-.19-.84-.31-1.51h0L89,41.33H87.87l.24-6.24h2.08s.68,3.14,1,5.16h0c.42-2,1.23-5.16,1.23-5.16h2.05l.24,6.24Z"/><path class="cls-18" d="M96.19,41.33V37.67l-.52-.11V36.8H97.4v4.53Zm0-6.38h1.21v1.1H96.16Z"/><path class="cls-18" d="M101.31,41.33V38.64c0-.68-.26-1-.82-1a1.44,1.44,0,0,0-.79.28v3.42H98.49V36.8h.83l.18.52a1.87,1.87,0,0,1,1.44-.61c1.14,0,1.6.68,1.6,1.82v2.8Z"/><path class="cls-18" d="M103.9,41.33V37.67l-.53-.11V36.8h1.73v4.53Zm0-6.38h1.22v1.1h-1.22Z"/><path class="cls-18" d="M107.25,38c0,.71,2,.49,2,2,0,.83-.61,1.47-1.79,1.47a2.86,2.86,0,0,1-1.36-.34l.25-.84a2.09,2.09,0,0,0,1.07.32c.4,0,.67-.23.67-.5,0-.82-1.93-.55-1.93-2.09,0-.67.51-1.27,1.73-1.27a3.67,3.67,0,0,1,1.28.22l-.17.88a2.72,2.72,0,0,0-1.09-.23c-.42,0-.62.16-.62.41"/><path class="cls-18" d="M111.84,41.42c-.81,0-1.34-.37-1.34-1.51V37.66h-.67V36.8h.67V36l1.19-.38V36.8h1.22v.86h-1.22v2.22a.46.46,0,0,0,.49.52,1.53,1.53,0,0,0,.69-.17l.18.89a2.53,2.53,0,0,1-1.21.3"/><path class="cls-18" d="M114.64,39.39a1,1,0,0,0,1.16,1.12,3.05,3.05,0,0,0,1.33-.38l.24.85a3.65,3.65,0,0,1-1.72.45,2.1,2.1,0,0,1-2.22-2.37c0-1.4.67-2.35,2.12-2.35s1.91,1,1.91,2.15v.53Zm.85-1.79c-.6,0-.85.54-.85,1.08h1.65c0-.58-.17-1.08-.8-1.08"/><path class="cls-18" d="M120.94,37.81a1.91,1.91,0,0,0-.56-.07,1.27,1.27,0,0,0-.81.3v3.29h-1.21V36.8h.84l.14.61h0a1.23,1.23,0,0,1,1.09-.69,2.55,2.55,0,0,1,.52.06Z"/><path class="cls-18" d="M122,41.33V37.67l-.52-.11V36.8h1.73v4.53ZM122,35h1.22v1.1H122Z"/><path class="cls-18" d="M128.42,39.06c0,1.54-.78,2.37-2.13,2.37s-2.13-.82-2.13-2.37a2.14,2.14,0,1,1,4.26,0m-1.24,0c0-1.09-.33-1.47-.89-1.47s-.88.39-.88,1.47.29,1.48.88,1.48.89-.4.89-1.48"/><path class="cls-18" d="M134.29,37.15a2.88,2.88,0,0,1-.11-.83V35h1.2v6.38h-1l-.13-.5a1.49,1.49,0,0,1-1.21.59c-1,0-1.85-.74-1.85-2.35s.85-2.36,1.95-2.36a1.5,1.5,0,0,1,1.13.44m-.11.69a1.63,1.63,0,0,0-.82-.22c-.58,0-.94.38-.94,1.44s.34,1.49.92,1.49a1.2,1.2,0,0,0,.84-.39Z"/><path class="cls-18" d="M137.51,39.39a1,1,0,0,0,1.17,1.12,3.09,3.09,0,0,0,1.33-.38l.23.85a3.64,3.64,0,0,1-1.71.45,2.11,2.11,0,0,1-2.23-2.37c0-1.4.67-2.35,2.13-2.35s1.9,1,1.9,2.15v.53Zm.85-1.79c-.6,0-.85.54-.85,1.08h1.66c0-.58-.18-1.08-.81-1.08"/><polygon class="cls-18" points="143.35 41.33 143.35 35.09 147.19 35.09 147.19 36.12 144.56 36.12 144.56 37.65 146.56 37.65 146.47 38.73 144.56 38.73 144.56 40.33 147.19 40.33 147.19 41.33 143.35 41.33"/><path class="cls-18" d="M150.67,37.15a2.88,2.88,0,0,1-.11-.83V35h1.2v6.38h-1l-.14-.5a1.44,1.44,0,0,1-1.2.59c-1,0-1.85-.74-1.85-2.35s.85-2.36,2-2.36a1.48,1.48,0,0,1,1.12.44m-.11.69a1.6,1.6,0,0,0-.82-.22c-.57,0-.93.38-.93,1.44s.34,1.49.91,1.49a1.18,1.18,0,0,0,.84-.39Z"/><path class="cls-18" d="M156,41.33l-.18-.55a1.8,1.8,0,0,1-1.42.64c-1.13,0-1.65-.63-1.65-1.87V36.8H154v2.76c0,.69.24.94.79.94a1.43,1.43,0,0,0,.81-.27V36.8h1.23v4.53Z"/><path class="cls-18" d="M161.43,41a3.49,3.49,0,0,1-1.55.4c-1.35,0-2.17-.77-2.17-2.36a2.09,2.09,0,0,1,2.16-2.36,3,3,0,0,1,1.55.37l-.32.82a2.26,2.26,0,0,0-1.13-.28c-.63,0-1,.43-1,1.45s.38,1.44,1,1.44a2.74,2.74,0,0,0,1.23-.34Z"/><path class="cls-18" d="M165,41.33l-.17-.53a1.62,1.62,0,0,1-1.32.62A1.4,1.4,0,0,1,162,40c0-.84.62-1.34,1.71-1.34h1V38.4c0-.58-.33-.76-.79-.76a3.21,3.21,0,0,0-1.36.3l-.31-.86a4.72,4.72,0,0,1,1.79-.37c1.29,0,1.84.59,1.84,1.75v2.87Zm-.35-2h-.74c-.5,0-.73.24-.73.59a.6.6,0,0,0,.67.66,1.36,1.36,0,0,0,.8-.3Z"/><path class="cls-18" d="M170.51,41a3.45,3.45,0,0,1-1.55.4c-1.35,0-2.16-.77-2.16-2.36A2.08,2.08,0,0,1,169,36.71a3,3,0,0,1,1.55.37l-.31.82a2.29,2.29,0,0,0-1.14-.28c-.63,0-1,.43-1,1.45s.37,1.44,1,1.44a2.71,2.71,0,0,0,1.23-.34Z"/><path class="cls-18" d="M171.69,41.33V37.67l-.53-.11V36.8h1.73v4.53Zm0-6.38h1.22v1.1h-1.22Z"/><path class="cls-18" d="M178.06,39.06c0,1.54-.77,2.37-2.13,2.37s-2.13-.82-2.13-2.37a2.14,2.14,0,1,1,4.26,0m-3.25-3-.12-.7,2.34-.65.16.89Zm2,3c0-1.09-.32-1.47-.89-1.47s-.88.39-.88,1.47.29,1.48.88,1.48.89-.4.89-1.48"/><path class="cls-18" d="M181.78,41.33V38.64c0-.68-.26-1-.81-1a1.45,1.45,0,0,0-.8.28v3.42H179V36.8h.83l.19.52a1.83,1.83,0,0,1,1.43-.61c1.15,0,1.6.68,1.6,1.82v2.8Z"/></g></g></svg>