<?xml version="1.0" encoding="UTF-8" standalone="no"?>
<svg
   xmlns:dc="http://purl.org/dc/elements/1.1/"
   xmlns:cc="http://creativecommons.org/ns#"
   xmlns:rdf="http://www.w3.org/1999/02/22-rdf-syntax-ns#"
   xmlns:svg="http://www.w3.org/2000/svg"
   xmlns="http://www.w3.org/2000/svg"
   xmlns:sodipodi="http://sodipodi.sourceforge.net/DTD/sodipodi-0.dtd"
   xmlns:inkscape="http://www.inkscape.org/namespaces/inkscape"
   width="1483.0508"
   height="1483.0508"
   viewBox="0 0 153.02741 153.05084"
   preserveAspectRatio="xMidYMid"
   version="1.1"
   id="svg45"
   sodipodi:docname="Google.svg"
   inkscape:version="0.92.1 r15371">
  <metadata
     id="metadata49">
    <rdf:RDF>
      <cc:Work
         rdf:about="">
        <dc:format>image/svg+xml</dc:format>
        <dc:type
           rdf:resource="http://purl.org/dc/dcmitype/StillImage" />
        <dc:title></dc:title>
      </cc:Work>
    </rdf:RDF>
  </metadata>
  <sodipodi:namedview
     pagecolor="#ffffff"
     bordercolor="#666666"
     borderopacity="1"
     objecttolerance="10"
     gridtolerance="10"
     guidetolerance="10"
     inkscape:pageopacity="0"
     inkscape:pageshadow="2"
     inkscape:window-width="1366"
     inkscape:window-height="745"
     id="namedview47"
     showgrid="false"
     fit-margin-top="0"
     fit-margin-left="0"
     fit-margin-right="0"
     fit-margin-bottom="0"
     inkscape:zoom="0.0944"
     inkscape:cx="-776.07574"
     inkscape:cy="639.20865"
     inkscape:window-x="1358"
     inkscape:window-y="393"
     inkscape:window-maximized="1"
     inkscape:current-layer="svg45" />
  <defs
     id="defs23">
    <filter
       x="-0.5"
       y="-0.5"
       width="2"
       height="2"
       filterUnits="objectBoundingBox"
       id="a">
      <feOffset
         dy="2"
         in="SourceAlpha"
         result="shadowOffsetOuter1"
         id="feOffset2" />
      <feGaussianBlur
         stdDeviation="1"
         in="shadowOffsetOuter1"
         result="shadowBlurOuter1"
         id="feGaussianBlur4" />
      <feColorMatrix
         values="0 0 0 0 0 0 0 0 0 0 0 0 0 0 0 0 0 0 0.168 0"
         in="shadowBlurOuter1"
         result="shadowMatrixOuter1"
         id="feColorMatrix6" />
      <feOffset
         in="SourceAlpha"
         result="shadowOffsetOuter2"
         id="feOffset8" />
      <feGaussianBlur
         stdDeviation="1"
         in="shadowOffsetOuter2"
         result="shadowBlurOuter2"
         id="feGaussianBlur10" />
      <feColorMatrix
         values="0 0 0 0 0 0 0 0 0 0 0 0 0 0 0 0 0 0 0.084 0"
         in="shadowBlurOuter2"
         result="shadowMatrixOuter2"
         id="feColorMatrix12" />
      <feMerge
         id="feMerge20">
        <feMergeNode
           in="shadowMatrixOuter1"
           id="feMergeNode14" />
        <feMergeNode
           in="shadowMatrixOuter2"
           id="feMergeNode16" />
        <feMergeNode
           in="SourceGraphic"
           id="feMergeNode18" />
      </feMerge>
    </filter>
    <clipPath
       clipPathUnits="userSpaceOnUse"
       id="clipPath29">
      <rect
         id="rect31"
         width="251.99998"
         height="251.99998"
         x="6.2500053e-006"
         y="-4.9999999e-006"
         style="stroke-width:0.1032" />
    </clipPath>
    <clipPath
       clipPathUnits="userSpaceOnUse"
       id="clipPath45">
      <rect
         id="rect47"
         width="201.60001"
         height="201.60001"
         x="25.200001"
         y="25.200001"
         style="stroke-width:0.11206093" />
    </clipPath>
    <clipPath
       clipPathUnits="userSpaceOnUse"
       id="clipPath51">
      <rect
         id="rect53"
         width="184.10847"
         height="184.10849"
         x="25.200001"
         y="25.200001"
         style="stroke-width:0.1032"
         ry="0" />
    </clipPath>
    <clipPath
       clipPathUnits="userSpaceOnUse"
       id="clipPath61">
      <rect
         id="rect63"
         width="161.79662"
         height="161.79662"
         x="47.027779"
         y="45.38134"
         style="stroke-width:0.1032" />
    </clipPath>
    <clipPath
       clipPathUnits="userSpaceOnUse"
       id="clipPath67">
      <rect
         id="rect69"
         width="153.05084"
         height="153.05084"
         x="47.027779"
         y="48.660995"
         style="stroke-width:0.1032" />
    </clipPath>
  </defs>
  <g
     transform="translate(-47.047069,-48.660995)"
     id="g43"
     style="fill:none"
     clip-path="url(#clipPath67)">
    <rect
       width="252"
       height="252"
       rx="7"
       id="rect25"
       x="0"
       y="0"
       style="fill:#dc4e41;filter:url(#a)" />
    <path
       d="m 100.8,119.7 v 15.12 h 25.011 c -1.008,6.489 -7.56,19.026 -25.011,19.026 -15.057,0 -27.342,-12.474 -27.342,-27.846 0,-15.372 12.285,-27.846 27.342,-27.846 8.568,0 14.301,3.654 17.577,6.804 l 11.97,-11.529 C 122.661,86.247 112.707,81.9 100.8,81.9 c -24.381,0 -44.1,19.719 -44.1,44.1 0,24.381 19.719,44.1 44.1,44.1 25.452,0 42.336,-17.892 42.336,-43.092 0,-2.898 -0.315,-5.103 -0.693,-7.308 z"
       id="path27"
       inkscape:connector-curvature="0"
       style="fill:#ffffff" />
    <path
       d="m 100.8,120.456 h 41.643 c 0.441,2.079 0.693,4.284 0.693,6.93 v -0.441 c 0,-2.898 -0.315,-5.103 -0.693,-7.308 H 100.8 Z m 0,-37.8 c 11.655,0 21.483,4.221 29.043,11.151 l 0.441,-0.441 C 122.661,86.247 112.707,81.9 100.8,81.9 76.419,81.9 56.7,101.619 56.7,126 v 0.378 c 0.252,-24.129 19.908,-43.722 44.1,-43.722 z m 0,71.946 c 17.451,0 24.003,-12.474 25.011,-19.026 h -0.189 c -1.386,6.678 -8.001,18.207 -24.822,18.207 -14.931,0 -27.09,-12.285 -27.279,-27.405 0,0.126 -0.063,0.252 -0.063,0.378 0,15.372 12.285,27.846 27.342,27.846 z"
       id="path29"
       inkscape:connector-curvature="0"
       style="opacity:0.4;fill:#ffffff" />
    <path
       d="m 100.8,98.154 c -15.057,0 -27.342,12.474 -27.342,27.846 0,0.126 0.063,0.252 0.063,0.378 0.189,-15.183 12.348,-27.405 27.279,-27.405 8.568,0 14.301,3.654 17.577,6.804 l 11.97,-11.529 c -0.126,-0.126 -0.315,-0.252 -0.441,-0.378 l -11.529,11.151 c -3.276,-3.15 -9.009,-6.867 -17.577,-6.867 z m 0,36.666 v 0.756 h 24.822 c 0.063,-0.252 0.126,-0.567 0.189,-0.756 z"
       id="path31"
       inkscape:connector-curvature="0"
       style="opacity:0.1;fill:#3e2723" />
    <path
       d="m 100.8,170.1 c -24.192,0 -43.848,-19.53 -44.1,-43.722 v 0.378 c 0,24.381 19.719,44.1 44.1,44.1 25.452,0 42.336,-17.892 42.336,-43.092 v -0.378 C 142.947,152.397 126.126,170.1 100.8,170.1 Z"
       id="path33"
       inkscape:connector-curvature="0"
       style="opacity:0.1;fill:#3e2723" />
    <path
       d="m 195.3,119.7 h -12.6 v -12.6 h -12.6 v 12.6 h -12.6 v 12.6 h 12.6 v 12.6 h 12.6 v -12.6 h 12.6"
       id="path35"
       inkscape:connector-curvature="0"
       style="fill:#ffffff" />
    <path
       d="m 182.7,119.7 h 12.6 v 0.756 h -12.6 z m -12.6,-12.6 h 12.6 v 0.756 h -12.6 z m -12.6,12.6 h 12.6 v 0.756 h -12.6 z"
       id="path37"
       inkscape:connector-curvature="0"
       style="opacity:0.4;fill:#ffffff" />
    <path
       d="m 157.5,132.3 h 12.6 v 0.756 h -12.6 z m 25.2,0 h 12.6 v 0.756 h -12.6 z m -12.6,12.6 h 12.6 v 0.756 h -12.6 z"
       id="path39"
       inkscape:connector-curvature="0"
       style="opacity:0.1;fill:#3e2723" />
    <path
       d="M 25.2,25.2 H 226.8 V 226.8 H 25.2 Z"
       id="path41"
       inkscape:connector-curvature="0" />
  </g>
</svg>
