<?xml version="1.0" encoding="UTF-8" standalone="no"?>
<svg
   xmlns:dc="http://purl.org/dc/elements/1.1/"
   xmlns:cc="http://creativecommons.org/ns#"
   xmlns:rdf="http://www.w3.org/1999/02/22-rdf-syntax-ns#"
   xmlns:svg="http://www.w3.org/2000/svg"
   xmlns="http://www.w3.org/2000/svg"
   xmlns:sodipodi="http://sodipodi.sourceforge.net/DTD/sodipodi-0.dtd"
   xmlns:inkscape="http://www.inkscape.org/namespaces/inkscape"
   id="svg"
   version="1.1"
   width="398.79001"
   height="398.05136"
   style="display:block"
   sodipodi:docname="linkedin.svg"
   inkscape:version="0.92.1 r15371">
  <metadata
     id="metadata10">
    <rdf:RDF>
      <cc:Work
         rdf:about="">
        <dc:format>image/svg+xml</dc:format>
        <dc:type
           rdf:resource="http://purl.org/dc/dcmitype/StillImage" />
        <dc:title></dc:title>
      </cc:Work>
    </rdf:RDF>
  </metadata>
  <defs
     id="defs8" />
  <sodipodi:namedview
     pagecolor="#ffffff"
     bordercolor="#666666"
     borderopacity="1"
     objecttolerance="10"
     gridtolerance="10"
     guidetolerance="10"
     inkscape:pageopacity="0"
     inkscape:pageshadow="2"
     inkscape:window-width="640"
     inkscape:window-height="480"
     id="namedview6"
     showgrid="false"
     fit-margin-top="0"
     fit-margin-left="0"
     fit-margin-right="0"
     fit-margin-bottom="0"
     inkscape:zoom="0.30729167"
     inkscape:cx="383.39531"
     inkscape:cy="15.104131"
     inkscape:window-x="1654"
     inkscape:window-y="515"
     inkscape:window-maximized="0"
     inkscape:current-layer="svg" />
  <g
     id="svgg"
     transform="translate(-0.60468767,-1.0527684)">
    <path
       id="path0"
       d="M 84.337,56.25 C 56.919,60.601 45.984,94.389 65.625,114.072 86.549,135.04 122.141,121.507 123.798,91.953 124.999,70.521 105.512,52.889 84.337,56.25 m 179.726,89.62 c -20.021,1.44 -38.648,11.653 -48.141,26.396 -3.411,5.298 -3.387,5.36 -3.543,-9.115 l -0.139,-12.891 -27.997,-0.134 -27.996,-0.135 0.132,94.926 0.131,94.927 h 28.907 28.906 l 0.308,-52.604 c 0.262,-44.747 0.433,-53.383 1.144,-57.813 3.444,-21.434 13.487,-31.246 32.665,-31.912 19.133,-0.665 28.225,7.658 31.82,29.128 0.464,2.769 0.725,18.938 0.946,58.513 l 0.304,54.688 h 29.167 29.167 l 0.074,-58.854 c 0.04,-32.37 -0.135,-61.433 -0.39,-64.584 -2.908,-35.928 -14.515,-56.138 -37.516,-65.326 -9.991,-3.991 -25.43,-6.11 -37.949,-5.21 m -203.927,4.781 c -0.136,0.358 -0.187,43.073 -0.113,94.922 l 0.133,94.271 H 89.323 118.49 L 118.621,244.922 118.753,150 H 89.568 c -22.868,0 -29.238,0.141 -29.432,0.651"
       inkscape:connector-curvature="0"
       style="fill:#ffffff;fill-rule:evenodd;stroke:none" />
    <path
       id="path1"
       d="M 20.833,2.227 C 11.513,5.416 4.937,12.009 1.756,21.354 0.195,25.94 0.234,373.576 1.796,378.385 c 3.038,9.353 10.868,17.068 20.043,19.747 4.784,1.397 352.034,1.24 356.641,-0.161 11.304,-3.438 19.379,-13.233 20.53,-24.904 0.316,-3.197 0.448,-69.281 0.356,-177.234 L 399.219,23.698 397.865,20.219 C 394.402,11.325 387.566,4.847 378.721,2.078 375.444,1.052 373.668,1.042 199.815,1.055 L 24.219,1.069 20.833,2.227 M 97.736,56.81 c 18.915,4.498 30.634,25.448 24.485,43.767 C 111.314,133.066 64.757,131.433 56.543,98.273 50.425,73.577 72.942,50.913 97.736,56.81 m 184.344,89.584 c 32.471,3.134 51.047,22.498 56.17,58.554 1.594,11.222 1.741,17.886 1.668,76.042 l -0.074,58.854 H 310.677 281.51 l -0.304,-54.688 c -0.221,-39.575 -0.482,-55.744 -0.946,-58.513 -3.595,-21.47 -12.687,-29.793 -31.82,-29.128 -19.178,0.666 -29.221,10.478 -32.665,31.912 -0.711,4.43 -0.882,13.066 -1.144,57.813 l -0.308,52.604 H 185.417 156.51 l -0.131,-94.927 -0.132,-94.926 27.996,0.135 27.997,0.134 0.139,12.891 c 0.156,14.475 0.132,14.413 3.543,9.115 12.629,-19.613 36.06,-28.777 66.158,-25.872 m -163.459,98.528 -0.131,94.922 H 89.323 60.156 L 60.023,245.573 C 59.949,193.724 60,151.009 60.136,150.651 60.33,150.141 66.7,150 89.568,150 h 29.185 l -0.132,94.922"
       inkscape:connector-curvature="0"
       style="fill:#0274b3;fill-rule:evenodd;stroke:none" />
  </g>
</svg>
